0
SECTION
2
HEADER
9
$INSUNITS
70
4
9
$ACADVER
1
AC1014
9
$HANDSEED
5
FFFF
0
ENDSEC
0
SECTION
2
TABLES
0
TABLE
2
VPORT
5
8
100
AcDbSymbolTable
0
ENDTAB
0
TABLE
2
LTYPE
5
5
100
AcDbSymbolTable
0
LTYPE
5
14
100
AcDbSymbolTableRecord
100
AcDbLinetypeTableRecord
2
BYBLOCK
70
0
0
LTYPE
5
15
100
AcDbSymbolTableRecord
100
AcDbLinetypeTableRecord
2
BYLAYER
70
0
0
ENDTAB
0
TABLE
2
LAYER
5
2
100
AcDbSymbolTable
70
2
0
LAYER
5
50
100
AcDbSymbolTableRecord
100
AcDbLayerTableRecord
2
0
70
0
6
CONTINUOUS
0
ENDTAB
0
TABLE
2
STYLE
5
3
100
AcDbSymbolTable
70
1
0
STYLE
5
11
100
AcDbSymbolTableRecord
100
AcDbTextStyleTableRecord
2
STANDARD
70
0
0
ENDTAB
0
TABLE
2
VIEW
5
6
100
AcDbSymbolTable
70
0
0
ENDTAB
0
TABLE
2
UCS
5
7
100
AcDbSymbolTable
70
0
0
ENDTAB
0
TABLE
2
APPID
5
9
100
AcDbSymbolTable
70
2
0
APPID
5
12
100
AcDbSymbolTableRecord
100
AcDbRegAppTableRecord
2
ACAD
70
0
0
ENDTAB
0
TABLE
2
DIMSTYLE
5
A
100
AcDbSymbolTable
70
1
0
ENDTAB
0
TABLE
2
BLOCK_RECORD
5
1
100
AcDbSymbolTable
70
1
0
BLOCK_RECORD
5
1F
100
AcDbSymbolTableRecord
100
AcDbBlockTableRecord
2
*MODEL_SPACE
0
BLOCK_RECORD
5
1B
100
AcDbSymbolTableRecord
100
AcDbBlockTableRecord
2
*PAPER_SPACE
0
ENDTAB
0
ENDSEC
0
SECTION
2
BLOCKS
0
BLOCK
5
20
100
AcDbEntity
100
AcDbBlockBegin
2
*MODEL_SPACE
0
ENDBLK
5
21
100
AcDbEntity
100
AcDbBlockEnd
0
BLOCK
5
1C
100
AcDbEntity
100
AcDbBlockBegin
2
*PAPER_SPACE
0
ENDBLK
5
1D
100
AcDbEntity
100
AcDbBlockEnd
0
ENDSEC
0
SECTION
2
ENTITIES
0
LWPOLYLINE
5
100
100
AcDbEntity
8
0
100
AcDbPolyline
90
6
70
1
43
0.0
10
286.80000000000007
20
0
10
286.80000000000007
20
-42.812500000000007
10
314.32499999999999
20
-42.8125
10
314.32499999999999
20
-123.825
10
0
20
-123.825
10
0
20
0
0
LWPOLYLINE
5
101
100
AcDbEntity
8
0
100
AcDbPolyline
90
8
70
1
43
0.0
10
225.07499999999999
20
-2.5249999999999884
42
-0.41421356237309437
10
226.07500000000002
20
-3.5250000000000004
10
226.07500000000005
20
-15.525000000000002
42
-0.41421356237310542
10
225.07499999999999
20
-16.525000000000002
10
213.07500000000002
20
-16.525000000000013
42
-0.41421356237307294
10
212.07499999999999
20
-15.525000000000002
10
212.07499999999999
20
-3.5250000000000004
42
-0.41421356237307422
10
213.07500000000002
20
-2.5250000000000004
0
LWPOLYLINE
5
102
100
AcDbEntity
8
0
100
AcDbPolyline
90
8
70
1
43
0.0
10
244.125
20
-2.5249999999999884
42
-0.41421356237309437
10
245.12500000000003
20
-3.5250000000000004
10
245.12500000000006
20
-15.525000000000002
42
-0.41421356237310542
10
244.125
20
-16.525000000000002
10
232.12500000000003
20
-16.525000000000013
42
-0.41421356237307294
10
231.125
20
-15.525000000000002
10
231.125
20
-3.5250000000000004
42
-0.41421356237307422
10
232.12500000000003
20
-2.5250000000000004
0
LWPOLYLINE
5
103
100
AcDbEntity
8
0
100
AcDbPolyline
90
8
70
1
43
0.0
10
231.125
20
-27.337500000000002
10
231.125
20
-39.337499999999999
42
0.41421356237307294
10
232.12500000000003
20
-40.337499999999991
10
244.125
20
-40.337499999999991
42
0.41421356237310675
10
245.12500000000003
20
-39.337499999999999
10
245.12500000000003
20
-27.337500000000002
42
0.41421356237309503
10
244.125
20
-26.337499999999999
10
232.12500000000003
20
-26.337499999999999
42
0.41421356237307555
0
LWPOLYLINE
5
104
100
AcDbEntity
8
0
100
AcDbPolyline
90
8
70
1
43
0.0
10
53.625000000000007
20
-26.337499999999999
42
-0.41421356237309631
10
54.625
20
-27.337500000000002
10
54.625
20
-39.337499999999999
42
-0.41421356237309631
10
53.625000000000007
20
-40.337499999999991
10
41.625000000000014
20
-40.337499999999991
42
-0.41421356237309631
10
40.625000000000007
20
-39.337499999999999
10
40.625
20
-27.337500000000002
42
-0.41421356237309503
10
41.625000000000007
20
-26.337499999999999
0
LWPOLYLINE
5
105
100
AcDbEntity
8
0
100
AcDbPolyline
90
45
70
1
43
0.0
10
71.255129276108363
20
-97.837501000000287
10
70.905131076113207
20
-97.487499999999997
10
77.4375
20
-97.487499999999997
42
0.41421356237309764
10
78.4375
20
-96.487499999999997
10
78.4375
20
-84.487500000000011
42
0.41421356237309764
10
77.4375
20
-83.487500000000011
10
65.4375
20
-83.487500000000011
42
0.41421356237309764
10
64.4375
20
-84.487500000000011
10
64.4375
20
-96.487499999999997
42
0.13790543129320673
10
64.584017363834676
20
-97.008621281242924
10
63.755144276108396
20
-97.83750100000033
10
63.564768297031492
20
-98.925406451186205
42
0.0026140985354217421
10
63.555288536565577
20
-98.929818800413102
10
63.555295103381667
20
-98.979541111776314
10
62.780309044647794
20
-99.754532595450542
10
62.780309044647908
20
-111.92021731745362
10
63.555301126904297
20
-112.69521327469762
10
63.555139358371861
20
-115.42033738465209
10
64.672294153581461
20
-116.53750000000001
10
182.97770584641853
20
-116.53750000000001
10
184.09486064162815
20
-115.42033738465213
10
184.09469887309569
20
-112.69521327469766
10
184.8696909553521
20
-111.92021731745362
10
184.86969095535221
20
-99.754532595450613
10
184.09470489661834
20
-98.979541111776314
10
184.09471146343441
20
-98.929818800413173
42
0.0026140985331335764
10
184.08523170296854
20
-98.925406451186277
10
183.89485572389162
20
-97.837501000000401
10
183.54485752389647
20
-97.487499999999997
10
191.73750000000001
20
-97.487499999999997
42
0.41421356237310542
10
192.73750000000001
20
-96.487499999999997
10
192.73750000000004
20
-84.487500000000011
42
0.41421356237307944
10
191.73750000000001
20
-83.487500000000011
10
179.73750000000001
20
-83.487500000000011
42
0.41421356237310542
10
178.73750000000001
20
-84.487500000000011
10
178.73750000000001
20
-96.487499999999997
42
0.089631654092387908
10
178.8007503002404
20
-96.837500000000375
10
177.39486372389172
20
-96.837500000000375
10
176.39487072389164
20
-97.83750100000033
10
176.39487072389164
20
-98.33750000000029
10
176.24842072389163
20
-98.691056000000316
10
175.89486072389184
20
-98.837500000000333
10
71.755139276108167
20
-98.83750000000029
10
71.401579276108379
20
-98.691056000000316
10
71.255129276108363
20
-98.33750000000029
0
LWPOLYLINE
5
106
100
AcDbEntity
8
0
100
AcDbPolyline
90
8
70
1
43
0.0
10
54.912500000000009
20
-65.4375
42
-0.41421356237309503
10
55.912500000000009
20
-64.4375
10
67.912499999999994
20
-64.4375
42
-0.41421356237309503
10
68.912499999999994
20
-65.4375
10
68.912499999999994
20
-77.4375
42
-0.41421356237309503
10
67.912499999999994
20
-78.4375
10
55.912500000000009
20
-78.4375
42
-0.41421356237309503
10
54.912500000000009
20
-77.4375
0
LWPOLYLINE
5
107
100
AcDbEntity
8
0
100
AcDbPolyline
90
8
70
1
43
0.0
10
91.724999999999994
20
-2.5249999999999977
42
-0.41421356237309687
10
92.724999999999994
20
-3.5250000000000004
10
92.724999999999994
20
-15.525000000000002
42
-0.41421356237309631
10
91.724999999999994
20
-16.525000000000002
10
79.724999999999994
20
-16.525000000000002
42
-0.41421356237309631
10
78.725000000000009
20
-15.525000000000002
10
78.725000000000009
20
-3.5250000000000004
42
-0.41421356237309537
10
79.724999999999994
20
-2.5250000000000004
0
LWPOLYLINE
5
108
100
AcDbEntity
8
0
100
AcDbPolyline
90
8
70
1
43
0.0
10
35.862500000000004
20
-103.53749999999999
42
-0.41421356237309503
10
36.862499999999997
20
-102.53749999999999
10
48.862500000000004
20
-102.53749999999999
42
-0.41421356237309503
10
49.862499999999997
20
-103.53749999999999
10
49.862500000000011
20
-115.53750000000001
42
-0.41421356237309764
10
48.862500000000004
20
-116.53750000000001
10
36.862499999999997
20
-116.53750000000001
42
-0.41421356237309631
10
35.862499999999997
20
-115.53750000000001
0
LWPOLYLINE
5
109
100
AcDbEntity
8
0
100
AcDbPolyline
90
8
70
1
43
0.0
10
234.60000000000002
20
-45.387499999999996
42
-0.41421356237309503
10
235.60000000000002
20
-46.38750000000001
10
235.60000000000002
20
-58.38750000000001
42
-0.41421356237310542
10
234.60000000000002
20
-59.387500000000003
10
222.60000000000002
20
-59.387500000000017
42
-0.41421356237307161
10
221.59999999999999
20
-58.38750000000001
10
221.60000000000002
20
-46.38750000000001
42
-0.4142135623730846
10
222.60000000000002
20
-45.38750000000001
0
LWPOLYLINE
5
110
100
AcDbEntity
8
0
100
AcDbPolyline
90
8
70
1
43
0.0
10
216.83750000000003
20
-84.487500000000011
42
-0.41421356237310542
10
217.83750000000001
20
-83.487500000000011
10
229.83750000000001
20
-83.487499999999969
42
-0.41421356237310025
10
230.83750000000003
20
-84.487500000000011
10
230.83750000000003
20
-96.487499999999997
42
-0.41421356237310542
10
229.83750000000001
20
-97.487499999999997
10
217.83750000000003
20
-97.487500000000026
42
-0.41421356237307944
10
216.83750000000001
20
-96.487499999999997
0
LWPOLYLINE
5
111
100
AcDbEntity
8
0
100
AcDbPolyline
90
8
70
1
43
0.0
10
40.625000000000007
20
-3.5250000000000004
42
-0.41421356237309537
10
41.625000000000007
20
-2.5250000000000004
10
53.625000000000007
20
-2.5250000000000021
42
-0.41421356237309553
10
54.625
20
-3.5250000000000004
10
54.625
20
-15.525000000000002
42
-0.41421356237309503
10
53.625000000000007
20
-16.525000000000002
10
41.625000000000014
20
-16.525000000000002
42
-0.41421356237309631
10
40.625000000000007
20
-15.525000000000002
0
LWPOLYLINE
5
112
100
AcDbEntity
8
0
100
AcDbPolyline
90
8
70
1
43
0.0
10
45.387500000000003
20
-84.487500000000011
42
-0.41421356237309764
10
46.38750000000001
20
-83.487500000000011
10
58.38750000000001
20
-83.487500000000026
42
-0.41421356237309764
10
59.387500000000003
20
-84.487500000000011
10
59.387500000000017
20
-96.487499999999997
42
-0.41421356237309764
10
58.38750000000001
20
-97.487499999999997
10
46.38750000000001
20
-97.487499999999983
42
-0.41421356237309764
10
45.38750000000001
20
-96.487499999999997
0
LWPOLYLINE
5
113
100
AcDbEntity
8
0
100
AcDbPolyline
90
8
70
1
43
0.0
10
226.36250000000004
20
-103.53749999999999
42
-0.41421356237310025
10
227.36250000000001
20
-102.53749999999999
10
239.36250000000001
20
-102.53749999999998
42
-0.41421356237309503
10
240.36250000000001
20
-103.53749999999999
10
240.36250000000001
20
-115.53750000000001
42
-0.41421356237310542
10
239.36250000000001
20
-116.53750000000001
10
227.36250000000007
20
-116.53750000000004
42
-0.41421356237307944
10
226.36250000000001
20
-115.53750000000001
0
LWPOLYLINE
5
114
100
AcDbEntity
8
0
100
AcDbPolyline
90
8
70
1
43
0.0
10
226.36250000000004
20
-65.4375
42
-0.4142135623730846
10
227.36250000000001
20
-64.4375
10
239.36250000000001
20
-64.437499999999986
42
-0.41421356237309503
10
240.36250000000001
20
-65.4375
10
240.36250000000001
20
-77.4375
42
-0.41421356237310542
10
239.36250000000001
20
-78.4375
10
227.36250000000001
20
-78.437500000000014
42
-0.41421356237307161
10
226.36250000000001
20
-77.4375
0
LWPOLYLINE
5
115
100
AcDbEntity
8
0
100
AcDbPolyline
90
8
70
1
43
0.0
10
110.77500000000001
20
-2.5249999999999977
42
-0.41421356237309687
10
111.77500000000001
20
-3.5250000000000004
10
111.77500000000001
20
-15.525000000000002
42
-0.41421356237309631
10
110.77500000000001
20
-16.525000000000002
10
98.775000000000006
20
-16.525000000000006
42
-0.41421356237309764
10
97.77500000000002
20
-15.525000000000002
10
97.77500000000002
20
-3.5250000000000004
42
-0.41421356237309687
10
98.775000000000006
20
-2.5250000000000004
0
LWPOLYLINE
5
116
100
AcDbEntity
8
0
100
AcDbPolyline
90
8
70
1
43
0.0
10
50.150000000000006
20
-46.38750000000001
42
-0.41421356237309503
10
51.150000000000006
20
-45.38750000000001
10
63.150000000000006
20
-45.38750000000001
42
-0.41421356237309503
10
64.150000000000006
20
-46.38750000000001
10
64.150000000000006
20
-58.38750000000001
42
-0.41421356237309503
10
63.150000000000006
20
-59.387500000000003
10
51.150000000000006
20
-59.387500000000003
42
-0.41421356237309503
10
50.150000000000006
20
-58.38750000000001
0
LWPOLYLINE
5
117
100
AcDbEntity
8
0
100
AcDbPolyline
90
8
70
1
43
0.0
10
197.78750000000002
20
-103.53749999999999
42
-0.41421356237310025
10
198.78749999999999
20
-102.53749999999999
10
210.78749999999999
20
-102.53749999999998
42
-0.41421356237309503
10
211.78750000000002
20
-103.53749999999999
10
211.78750000000002
20
-115.53750000000001
42
-0.41421356237310542
10
210.78749999999999
20
-116.53750000000001
10
198.78750000000002
20
-116.53750000000004
42
-0.41421356237307944
10
197.78749999999999
20
-115.53750000000001
0
LWPOLYLINE
5
118
100
AcDbEntity
8
0
100
AcDbPolyline
90
8
70
1
43
0.0
10
158.40000000000001
20
-2.5250000000000061
42
-0.41421356237309437
10
159.40000000000001
20
-3.5250000000000004
10
159.40000000000001
20
-15.525000000000002
42
-0.4142135623730937
10
158.40000000000001
20
-16.525000000000002
10
146.40000000000001
20
-16.525000000000006
42
-0.41421356237309764
10
145.40000000000001
20
-15.525000000000002
10
145.40000000000001
20
-3.5250000000000004
42
-0.41421356237309687
10
146.40000000000001
20
-2.5250000000000004
0
LWPOLYLINE
5
119
100
AcDbEntity
8
0
100
AcDbPolyline
90
8
70
1
43
0.0
10
139.34999999999999
20
-2.5250000000000061
42
-0.41421356237309437
10
140.34999999999999
20
-3.5250000000000004
10
140.34999999999999
20
-15.525000000000002
42
-0.4142135623730937
10
139.34999999999999
20
-16.525000000000002
10
127.34999999999999
20
-16.525000000000006
42
-0.41421356237309764
10
126.34999999999999
20
-15.525000000000002
10
126.34999999999999
20
-3.5250000000000004
42
-0.41421356237309687
10
127.34999999999999
20
-2.5250000000000004
0
LWPOLYLINE
5
120
100
AcDbEntity
8
0
100
AcDbPolyline
90
8
70
1
43
0.0
10
72.674999999999997
20
-2.5250000000000021
42
-0.41421356237309553
10
73.674999999999997
20
-3.5250000000000004
10
73.674999999999997
20
-15.525000000000002
42
-0.41421356237309503
10
72.674999999999997
20
-16.525000000000002
10
60.675000000000011
20
-16.525000000000002
42
-0.41421356237309631
10
59.675000000000004
20
-15.525000000000002
10
59.675000000000004
20
-3.5250000000000004
42
-0.41421356237309537
10
60.674999999999997
20
-2.5250000000000004
0
LWPOLYLINE
5
121
100
AcDbEntity
8
0
100
AcDbPolyline
90
8
70
1
43
0.0
10
177.45000000000002
20
-2.5249999999999884
42
-0.41421356237307355
10
178.45000000000002
20
-3.5250000000000004
10
178.45000000000002
20
-15.525000000000002
42
-0.41421356237307422
10
177.45000000000002
20
-16.525000000000002
10
165.44999999999999
20
-16.525000000000013
42
-0.41421356237307294
10
164.44999999999996
20
-15.525000000000002
10
164.44999999999996
20
-3.5250000000000004
42
-0.41421356237307422
10
165.44999999999999
20
-2.5250000000000004
0
LWPOLYLINE
5
122
100
AcDbEntity
8
0
100
AcDbPolyline
90
8
70
1
43
0.0
10
154.92500000000001
20
-27.337500000000002
42
-0.41421356237309631
10
155.92500000000001
20
-26.337499999999999
10
167.92500000000001
20
-26.337499999999988
42
-0.41421356237307422
10
168.92500000000001
20
-27.337500000000002
10
168.92499999999995
20
-39.337499999999999
42
-0.41421356237308721
10
167.92500000000001
20
-40.337499999999991
10
155.92500000000001
20
-40.337500000000006
42
-0.41421356237309764
10
154.92500000000001
20
-39.337499999999999
0
LWPOLYLINE
5
123
100
AcDbEntity
8
0
100
AcDbPolyline
90
21
70
1
43
0.0
10
270.31875000000002
20
-64.437500000000014
42
-0.053492530337860708
10
270.70329326404135
20
-64.47875844344199
42
0.2640248235564584
10
271.6457420796836
20
-64.184638941608
10
271.98958050170802
20
-63.817049398345759
42
-0.20736777219121433
10
272.71899561777241
20
-63.500169133860787
10
279.45418854932564
20
-63.494163708244244
42
-0.41338020564623318
10
280.45507321225284
20
-64.490425575103842
10
280.52091353756174
20
-82.105332580067795
42
-0.41483458089568181
10
279.52253844231075
20
-83.109069006857368
10
272.9237217680809
20
-83.119745374284904
10
249.77706667771443
20
-83.119745374284904
42
-0.035099298395359857
10
249.63718731203954
20
-83.109913927137598
10
249.1149615576893
20
-83.109069006857339
42
-0.41483458089570791
10
248.11658646243836
20
-82.105332580067795
10
248.18242678774715
20
-64.490425575103842
42
-0.41338020564623057
10
249.18331145067438
20
-63.494163708244244
10
255.91850438222764
20
-63.500169133860787
42
-0.20736777219122415
10
256.64791949829203
20
-63.817049398345745
10
256.99175792031645
20
-64.184638941608
42
0.26402482355645346
10
257.9342067359587
20
-64.47875844344199
42
-0.053492530337902577
10
258.31875000000002
20
-64.4375
0
LWPOLYLINE
5
124
100
AcDbEntity
8
0
100
AcDbPolyline
90
21
70
1
43
0.0
10
13.031004382227618
20
-82.550169133860791
42
-0.20736777219120331
10
13.760419498291991
20
-82.867049398345756
10
14.104257920316403
20
-83.234638941608011
42
0.26402482355645968
10
15.046706735958658
20
-83.528758443441973
42
-0.053492530337872844
10
15.431249999999999
20
-83.487500000000011
10
27.431249999999974
20
-83.487500000000026
42
-0.053492530337869618
10
27.815793264041304
20
-83.528758443441987
42
0.26402482355646306
10
28.758242079683576
20
-83.234638941608011
10
29.102080501707981
20
-82.86704939834577
42
-0.20736777219120101
10
29.831495617772354
20
-82.550169133860791
10
36.566688549325633
20
-82.544163708244241
42
-0.41338020564622802
10
37.567573212252853
20
-83.540425575103839
10
37.633413537561665
20
-101.15533258006781
42
-0.4148345808956897
10
36.635038442310702
20
-102.15906900685738
10
30.036221768080864
20
-102.1697453742849
10
6.8895666777143925
20
-102.1697453742849
42
-0.035099298395131207
10
6.7496873120395229
20
-102.15991392713759
10
6.22746155768926
20
-102.15906900685737
42
-0.41483458089569325
10
5.2290864624383104
20
-101.15533258006781
10
5.2949267877471273
20
-83.540425575103839
42
-0.41338020564622702
10
6.2958114506743357
20
-82.544163708244241
0
LWPOLYLINE
5
125
100
AcDbEntity
8
0
100
AcDbPolyline
90
8
70
1
43
0.0
10
196.50000000000003
20
-2.5249999999999884
42
-0.41421356237307355
10
197.50000000000003
20
-3.5250000000000004
10
197.50000000000003
20
-15.525000000000002
42
-0.41421356237307422
10
196.50000000000003
20
-16.525000000000002
10
184.5
20
-16.525000000000013
42
-0.41421356237307294
10
183.49999999999997
20
-15.525000000000002
10
183.49999999999997
20
-3.5250000000000004
42
-0.41421356237307422
10
184.5
20
-2.5250000000000004
0
LWPOLYLINE
5
126
100
AcDbEntity
8
0
100
AcDbPolyline
90
8
70
1
43
0.0
10
202.55000000000001
20
-46.38750000000001
10
202.55000000000001
20
-58.38750000000001
42
0.41421356237309243
10
203.55000000000004
20
-59.387500000000003
10
215.55000000000004
20
-59.387500000000003
42
0.41421356237310025
10
216.55000000000001
20
-58.38750000000001
10
216.55000000000004
20
-46.38750000000001
42
0.41421356237307422
10
215.55000000000004
20
-45.38750000000001
10
203.55000000000004
20
-45.38750000000001
42
0.41421356237310802
0
LWPOLYLINE
5
127
100
AcDbEntity
8
0
100
AcDbPolyline
90
8
70
1
43
0.0
10
273.98750000000001
20
-89.25
42
-0.41421356237310542
10
274.98750000000001
20
-88.250000000000014
10
286.98750000000007
20
-88.249999999999972
42
-0.41421356237310025
10
287.98750000000007
20
-89.25
10
287.98750000000007
20
-101.25
42
-0.41421356237310542
10
286.98750000000007
20
-102.25
10
274.98750000000001
20
-102.25000000000003
42
-0.41421356237310025
10
273.98750000000001
20
-101.25
0
LWPOLYLINE
5
128
100
AcDbEntity
8
0
100
AcDbPolyline
90
8
70
1
43
0.0
10
254.9375
20
-108.3
42
-0.41421356237308982
10
255.9375
20
-107.30000000000001
10
267.9375
20
-107.29999999999998
42
-0.41421356237309503
10
268.93750000000006
20
-108.3
10
268.93750000000006
20
-120.30000000000001
42
-0.41421356237310542
10
267.9375
20
-121.30000000000001
10
255.9375
20
-121.30000000000004
42
-0.41421356237310025
10
254.9375
20
-120.30000000000001
0
LWPOLYLINE
5
129
100
AcDbEntity
8
0
100
AcDbPolyline
90
8
70
1
43
0.0
10
131.11250000000001
20
-65.4375
42
-0.41421356237309503
10
132.11250000000001
20
-64.4375
10
144.11250000000001
20
-64.4375
42
-0.41421356237309764
10
145.11250000000001
20
-65.4375
10
145.11250000000001
20
-77.4375
42
-0.41421356237309764
10
144.11250000000001
20
-78.4375
10
132.11250000000001
20
-78.4375
42
-0.41421356237309503
10
131.11250000000001
20
-77.4375
0
LWPOLYLINE
5
130
100
AcDbEntity
8
0
100
AcDbPolyline
90
8
70
1
43
0.0
10
273.98750000000001
20
-108.3
10
273.98750000000001
20
-120.30000000000001
42
0.41421356237310025
10
274.98750000000001
20
-121.30000000000001
10
286.98750000000007
20
-121.30000000000001
42
0.41421356237310542
10
287.98750000000007
20
-120.30000000000001
10
287.98750000000007
20
-108.3
42
0.41421356237309503
10
286.98750000000007
20
-107.30000000000001
10
274.98750000000001
20
-107.30000000000001
42
0.41421356237308982
0
LWPOLYLINE
5
131
100
AcDbEntity
8
0
100
AcDbPolyline
90
8
70
1
43
0.0
10
35.862499999999997
20
-65.4375
42
-0.4142135623730937
10
36.862499999999997
20
-64.4375
10
48.862500000000004
20
-64.4375
42
-0.41421356237309503
10
49.862499999999997
20
-65.4375
10
49.862499999999997
20
-77.4375
42
-0.41421356237309503
10
48.862500000000004
20
-78.4375
10
36.862499999999997
20
-78.4375
42
-0.41421356237309243
10
35.862499999999997
20
-77.4375
0
LWPOLYLINE
5
132
100
AcDbEntity
8
0
100
AcDbPolyline
90
8
70
1
43
0.0
10
145.40000000000003
20
-46.38750000000001
42
-0.41421356237309764
10
146.40000000000001
20
-45.38750000000001
10
158.40000000000001
20
-45.38750000000001
42
-0.41421356237309503
10
159.40000000000001
20
-46.38750000000001
10
159.40000000000001
20
-58.38750000000001
42
-0.41421356237309503
10
158.40000000000001
20
-59.387500000000003
10
146.40000000000001
20
-59.387500000000017
42
-0.41421356237309764
10
145.40000000000001
20
-58.38750000000001
0
LWPOLYLINE
5
133
100
AcDbEntity
8
0
100
AcDbPolyline
90
8
70
1
43
0.0
10
196.50000000000003
20
-45.387499999999996
42
-0.41421356237307422
10
197.50000000000003
20
-46.38750000000001
10
197.5
20
-58.38750000000001
42
-0.41421356237310025
10
196.50000000000003
20
-59.387500000000003
10
184.5
20
-59.387500000000017
42
-0.41421356237307161
10
183.49999999999997
20
-58.38750000000001
10
183.5
20
-46.38750000000001
42
-0.4142135623730846
10
184.5
20
-45.38750000000001
0
LWPOLYLINE
5
134
100
AcDbEntity
8
0
100
AcDbPolyline
90
8
70
1
43
0.0
10
297.80000000000001
20
-46.38750000000001
42
-0.41421356237310802
10
298.80000000000001
20
-45.38750000000001
10
310.80000000000001
20
-45.387499999999996
42
-0.41421356237307422
10
311.80000000000001
20
-46.38750000000001
10
311.80000000000001
20
-58.38750000000001
42
-0.41421356237310025
10
310.80000000000001
20
-59.387500000000003
10
298.80000000000001
20
-59.387500000000017
42
-0.41421356237309243
10
297.80000000000001
20
-58.38750000000001
0
LWPOLYLINE
5
135
100
AcDbEntity
8
0
100
AcDbPolyline
90
8
70
1
43
0.0
10
88.250000000000028
20
-46.38750000000001
42
-0.41421356237309764
10
89.25
20
-45.38750000000001
10
101.25
20
-45.387500000000003
42
-0.41421356237309764
10
102.25
20
-46.38750000000001
10
102.24999999999997
20
-58.38750000000001
42
-0.41421356237309764
10
101.25
20
-59.387500000000003
10
89.25
20
-59.387500000000017
42
-0.41421356237309764
10
88.250000000000014
20
-58.38750000000001
0
LWPOLYLINE
5
136
100
AcDbEntity
8
0
100
AcDbPolyline
90
8
70
1
43
0.0
10
243.03125
20
-84.487500000000011
42
-0.41421356237310542
10
244.03125000000003
20
-83.487500000000011
10
256.03125
20
-83.487499999999969
42
-0.41421356237307944
10
257.03125000000006
20
-84.487500000000011
10
257.03125
20
-96.487499999999997
42
-0.41421356237310542
10
256.03125
20
-97.487499999999997
10
244.03125000000003
20
-97.487500000000026
42
-0.41421356237310025
10
243.03125
20
-96.487499999999997
0
LWPOLYLINE
5
137
100
AcDbEntity
8
0
100
AcDbPolyline
90
8
70
1
43
0.0
10
31.100000000000009
20
-46.38750000000001
10
31.100000000000001
20
-58.38750000000001
42
0.41421356237309243
10
32.100000000000001
20
-59.387500000000003
10
44.100000000000001
20
-59.387500000000003
42
0.41421356237309503
10
45.099999999999994
20
-58.38750000000001
10
45.099999999999994
20
-46.38750000000001
42
0.41421356237309503
10
44.100000000000001
20
-45.38750000000001
10
32.100000000000001
20
-45.38750000000001
42
0.41421356237309631
0
LWPOLYLINE
5
138
100
AcDbEntity
8
0
100
AcDbPolyline
90
8
70
1
43
0.0
10
159.6875
20
-84.487500000000011
42
-0.41421356237311063
10
160.6875
20
-83.487500000000011
10
172.68749999999997
20
-83.487499999999969
42
-0.41421356237307944
10
173.68750000000003
20
-84.487500000000011
10
173.6875
20
-96.487499999999997
42
-0.41421356237310542
10
172.6875
20
-97.487499999999997
10
160.6875
20
-97.487499999999983
42
-0.41421356237311063
10
159.68750000000003
20
-96.487499999999997
0
LWPOLYLINE
5
139
100
AcDbEntity
8
0
100
AcDbPolyline
90
8
70
1
43
0.0
10
86.962500000000006
20
-64.4375
42
-0.41421356237309503
10
87.962500000000006
20
-65.4375
10
87.962500000000006
20
-77.4375
42
-0.41421356237309503
10
86.962500000000006
20
-78.4375
10
74.962500000000006
20
-78.4375
42
-0.41421356237309503
10
73.962500000000006
20
-77.4375
10
73.962500000000006
20
-65.4375
42
-0.41421356237309503
10
74.962500000000006
20
-64.4375
0
LWPOLYLINE
5
140
100
AcDbEntity
8
0
100
AcDbPolyline
90
8
70
1
43
0.0
10
150.16250000000002
20
-65.4375
42
-0.41421356237309764
10
151.16250000000002
20
-64.4375
10
163.16249999999999
20
-64.437499999999986
42
-0.41421356237307422
10
164.16250000000002
20
-65.4375
10
164.16249999999997
20
-77.4375
42
-0.41421356237310025
10
163.16249999999999
20
-78.4375
10
151.16250000000002
20
-78.437500000000014
42
-0.41421356237309764
10
150.16250000000002
20
-77.4375
0
LWPOLYLINE
5
141
100
AcDbEntity
8
0
100
AcDbPolyline
90
8
70
1
43
0.0
10
7.2875000000000023
20
-46.38750000000001
42
-0.41421356237309537
10
8.2874999999999979
20
-45.38750000000001
10
20.287500000000001
20
-45.387500000000003
42
-0.41421356237309503
10
21.287500000000001
20
-46.38750000000001
10
21.287500000000001
20
-58.38750000000001
42
-0.41421356237309631
10
20.287500000000001
20
-59.387500000000003
10
8.2874999999999979
20
-59.387500000000003
42
-0.41421356237309503
10
7.2874999999999996
20
-58.38750000000001
0
LWPOLYLINE
5
142
100
AcDbEntity
8
0
100
AcDbPolyline
90
8
70
1
43
0.0
10
9.6687500000000011
20
-65.4375
42
-0.4142135623730957
10
10.668749999999999
20
-64.4375
10
22.668750000000003
20
-64.4375
42
-0.41421356237309503
10
23.668750000000003
20
-65.4375
10
23.668750000000003
20
-77.4375
42
-0.41421356237309631
10
22.668750000000003
20
-78.4375
10
10.668749999999999
20
-78.4375
42
-0.4142135623730957
10
9.6687500000000011
20
-77.4375
0
LWPOLYLINE
5
143
100
AcDbEntity
8
0
100
AcDbPolyline
90
8
70
1
43
0.0
10
106.0125
20
-64.4375
42
-0.41421356237309764
10
107.0125
20
-65.4375
10
107.01249999999999
20
-77.4375
42
-0.41421356237309764
10
106.0125
20
-78.4375
10
94.012500000000017
20
-78.437500000000014
42
-0.41421356237309764
10
93.012500000000017
20
-77.4375
10
93.012500000000031
20
-65.4375
42
-0.41421356237309764
10
94.012500000000017
20
-64.4375
0
LWPOLYLINE
5
144
100
AcDbEntity
8
0
100
AcDbPolyline
90
8
70
1
43
0.0
10
297.80000000000001
20
-65.4375
10
297.80000000000001
20
-77.4375
42
0.41421356237309243
10
298.80000000000001
20
-78.437500000000014
10
310.80000000000001
20
-78.4375
42
0.41421356237310025
10
311.80000000000001
20
-77.4375
10
311.80000000000001
20
-65.4375
42
0.41421356237307422
10
310.80000000000001
20
-64.4375
10
298.80000000000001
20
-64.4375
42
0.41421356237310802
0
LWPOLYLINE
5
145
100
AcDbEntity
8
0
100
AcDbPolyline
90
8
70
1
43
0.0
10
269.22500000000008
20
-27.337500000000002
42
-0.41421356237307555
10
270.22500000000002
20
-26.337499999999999
10
282.22500000000002
20
-26.337499999999988
42
-0.41421356237309503
10
283.22500000000002
20
-27.337500000000002
10
283.22500000000002
20
-39.337499999999999
42
-0.41421356237310675
10
282.22500000000002
20
-40.337499999999991
10
270.22500000000002
20
-40.337500000000013
42
-0.41421356237307294
10
269.22500000000002
20
-39.337499999999999
0
LWPOLYLINE
5
146
100
AcDbEntity
8
0
100
AcDbPolyline
90
8
70
1
43
0.0
10
164.44999999999999
20
-46.38750000000001
42
-0.4142135623730846
10
165.44999999999999
20
-45.38750000000001
10
177.45000000000002
20
-45.387499999999996
42
-0.41421356237307422
10
178.45000000000002
20
-46.38750000000001
10
178.44999999999999
20
-58.38750000000001
42
-0.41421356237310025
10
177.45000000000002
20
-59.387500000000003
10
165.44999999999999
20
-59.387500000000017
42
-0.41421356237307161
10
164.44999999999996
20
-58.38750000000001
0
LWPOLYLINE
5
147
100
AcDbEntity
8
0
100
AcDbPolyline
90
8
70
1
43
0.0
10
277.46249999999998
20
-45.387499999999996
42
-0.41421356237307422
10
278.46250000000003
20
-46.38750000000001
10
278.46249999999998
20
-58.38750000000001
42
-0.41421356237310025
10
277.46249999999998
20
-59.387500000000003
10
265.46249999999998
20
-59.387500000000017
42
-0.41421356237309243
10
264.46249999999998
20
-58.38750000000001
10
264.46249999999998
20
-46.38750000000001
42
-0.41421356237310802
10
265.46249999999998
20
-45.38750000000001
0
LWPOLYLINE
5
148
100
AcDbEntity
8
0
100
AcDbPolyline
90
8
70
1
43
0.0
10
107.30000000000001
20
-46.38750000000001
42
-0.41421356237309503
10
108.3
20
-45.38750000000001
10
120.30000000000001
20
-45.387500000000003
42
-0.41421356237309764
10
121.30000000000001
20
-46.38750000000001
10
121.29999999999998
20
-58.38750000000001
42
-0.41421356237309764
10
120.30000000000001
20
-59.387500000000003
10
108.3
20
-59.387500000000003
42
-0.41421356237309503
10
107.30000000000001
20
-58.38750000000001
0
LWPOLYLINE
5
149
100
AcDbEntity
8
0
100
AcDbPolyline
90
8
70
1
43
0.0
10
293.03750000000002
20
-108.3
42
-0.41421356237308982
10
294.03750000000002
20
-107.30000000000001
10
306.03750000000002
20
-107.29999999999998
42
-0.41421356237309503
10
307.03750000000008
20
-108.3
10
307.03750000000008
20
-120.30000000000001
42
-0.41421356237310542
10
306.03750000000002
20
-121.30000000000001
10
294.03750000000002
20
-121.30000000000004
42
-0.41421356237310025
10
293.03750000000002
20
-120.30000000000001
0
LWPOLYLINE
5
150
100
AcDbEntity
8
0
100
AcDbPolyline
90
8
70
1
43
0.0
10
207.31250000000003
20
-65.4375
10
207.3125
20
-77.4375
42
0.41421356237307161
10
208.3125
20
-78.4375
10
220.3125
20
-78.4375
42
0.41421356237310542
10
221.3125
20
-77.4375
10
221.3125
20
-65.4375
42
0.41421356237309503
10
220.3125
20
-64.4375
10
208.3125
20
-64.4375
42
0.4142135623730846
0
LWPOLYLINE
5
151
100
AcDbEntity
8
0
100
AcDbPolyline
90
8
70
1
43
0.0
10
112.0625
20
-65.4375
42
-0.41421356237309503
10
113.0625
20
-64.4375
10
125.06250000000001
20
-64.4375
42
-0.41421356237309764
10
126.06250000000001
20
-65.4375
10
126.0625
20
-77.4375
42
-0.41421356237309764
10
125.06250000000001
20
-78.4375
10
113.0625
20
-78.4375
42
-0.41421356237309503
10
112.0625
20
-77.4375
0
LWPOLYLINE
5
152
100
AcDbEntity
8
0
100
AcDbPolyline
90
8
70
1
43
0.0
10
193.02500000000003
20
-27.337500000000002
42
-0.41421356237310675
10
194.02500000000003
20
-26.337499999999999
10
206.02500000000003
20
-26.337499999999988
42
-0.41421356237307422
10
207.02500000000003
20
-27.337500000000002
10
207.02499999999998
20
-39.337499999999999
42
-0.41421356237308721
10
206.02500000000003
20
-40.337499999999991
10
194.02500000000003
20
-40.337500000000013
42
-0.4142135623730937
10
193.02500000000003
20
-39.337499999999999
0
LWPOLYLINE
5
153
100
AcDbEntity
8
0
100
AcDbPolyline
90
8
70
1
43
0.0
10
188.26250000000002
20
-65.4375
10
188.26249999999999
20
-77.4375
42
0.41421356237307161
10
189.26249999999999
20
-78.4375
10
201.26249999999999
20
-78.4375
42
0.41421356237310542
10
202.26249999999999
20
-77.4375
10
202.26249999999999
20
-65.4375
42
0.41421356237309503
10
201.26249999999999
20
-64.4375
10
189.26249999999999
20
-64.4375
42
0.4142135623730846
0
LWPOLYLINE
5
154
100
AcDbEntity
8
0
100
AcDbPolyline
90
8
70
1
43
0.0
10
126.34999999999999
20
-46.38750000000001
10
126.34999999999999
20
-58.38750000000001
42
0.41421356237309764
10
127.34999999999999
20
-59.387500000000003
10
139.34999999999999
20
-59.387500000000003
42
0.41421356237309503
10
140.34999999999999
20
-58.38750000000001
10
140.34999999999999
20
-46.38750000000001
42
0.41421356237309503
10
139.34999999999999
20
-45.38750000000001
10
127.34999999999999
20
-45.38750000000001
42
0.41421356237309764
0
LWPOLYLINE
5
155
100
AcDbEntity
8
0
100
AcDbPolyline
90
8
70
1
43
0.0
10
69.200000000000003
20
-46.38750000000001
42
-0.41421356237309503
10
70.200000000000003
20
-45.38750000000001
10
82.200000000000003
20
-45.38750000000001
42
-0.41421356237309503
10
83.200000000000003
20
-46.38750000000001
10
83.200000000000003
20
-58.38750000000001
42
-0.41421356237309503
10
82.200000000000003
20
-59.387500000000003
10
70.200000000000003
20
-59.387500000000003
42
-0.41421356237309503
10
69.200000000000003
20
-58.38750000000001
0
LWPOLYLINE
5
156
100
AcDbEntity
8
0
100
AcDbPolyline
90
8
70
1
43
0.0
10
250.17500000000007
20
-27.337500000000002
42
-0.41421356237307555
10
251.17500000000004
20
-26.337499999999999
10
263.17500000000001
20
-26.337499999999988
42
-0.41421356237309503
10
264.17500000000007
20
-27.337500000000002
10
264.17500000000007
20
-39.337499999999999
42
-0.41421356237310675
10
263.17500000000001
20
-40.337499999999991
10
251.17500000000004
20
-40.337500000000013
42
-0.41421356237307294
10
250.17500000000001
20
-39.337499999999999
0
LWPOLYLINE
5
157
100
AcDbEntity
8
0
100
AcDbPolyline
90
8
70
1
43
0.0
10
102.53749999999999
20
-84.487500000000011
42
-0.41421356237309503
10
103.53749999999999
20
-83.487500000000011
10
115.53750000000001
20
-83.487500000000011
42
-0.41421356237310542
10
116.53750000000001
20
-84.487500000000011
10
116.53750000000001
20
-96.487499999999997
42
-0.41421356237310542
10
115.53750000000001
20
-97.487499999999997
10
103.53749999999999
20
-97.487499999999997
42
-0.41421356237309503
10
102.53749999999999
20
-96.487499999999997
0
LWPOLYLINE
5
158
100
AcDbEntity
8
0
100
AcDbPolyline
90
8
70
1
43
0.0
10
7.2875000000000068
20
-103.53749999999999
42
-0.41421356237309404
10
8.2874999999999979
20
-102.53749999999999
10
20.287500000000001
20
-102.53749999999999
42
-0.4142135623730937
10
21.287500000000001
20
-103.53749999999999
10
21.287500000000005
20
-115.53750000000001
42
-0.41421356237309764
10
20.287500000000001
20
-116.53750000000001
10
8.2874999999999979
20
-116.53750000000001
42
-0.41421356237309631
10
7.2874999999999996
20
-115.53750000000001
0
LWPOLYLINE
5
159
100
AcDbEntity
8
0
100
AcDbPolyline
90
8
70
1
43
0.0
10
240.65000000000003
20
-46.38750000000001
42
-0.4142135623730846
10
241.65000000000003
20
-45.38750000000001
10
253.65000000000003
20
-45.387499999999996
42
-0.41421356237309503
10
254.65000000000003
20
-46.38750000000001
10
254.65000000000003
20
-58.38750000000001
42
-0.41421356237310542
10
253.65000000000003
20
-59.387500000000003
10
241.65000000000003
20
-59.387500000000017
42
-0.41421356237307161
10
240.65000000000001
20
-58.38750000000001
0
LWPOLYLINE
5
160
100
AcDbEntity
8
0
100
AcDbPolyline
90
8
70
1
43
0.0
10
212.07500000000005
20
-27.337500000000002
42
-0.41421356237307555
10
213.07500000000002
20
-26.337499999999999
10
225.07499999999999
20
-26.337499999999988
42
-0.41421356237309503
10
226.07500000000002
20
-27.337500000000002
10
226.07500000000002
20
-39.337499999999999
42
-0.41421356237310675
10
225.07499999999999
20
-40.337499999999991
10
213.07500000000002
20
-40.337500000000013
42
-0.41421356237307294
10
212.07499999999999
20
-39.337499999999999
0
LWPOLYLINE
5
161
100
AcDbEntity
8
0
100
AcDbPolyline
90
8
70
1
43
0.0
10
297.80000000000001
20
-84.487500000000011
10
297.80000000000001
20
-96.487499999999997
42
0.41421356237310025
10
298.80000000000001
20
-97.487500000000011
10
310.80000000000001
20
-97.487499999999997
42
0.41421356237310542
10
311.80000000000001
20
-96.487499999999997
10
311.80000000000001
20
-84.487500000000011
42
0.41421356237307944
10
310.80000000000001
20
-83.487500000000011
10
298.80000000000001
20
-83.487500000000011
42
0.41421356237310542
0
LWPOLYLINE
5
162
100
AcDbEntity
8
0
100
AcDbPolyline
90
8
70
1
43
0.0
10
121.58750000000001
20
-84.487500000000011
42
-0.41421356237309503
10
122.58750000000001
20
-83.487500000000011
10
134.58750000000003
20
-83.487500000000011
42
-0.41421356237310542
10
135.58750000000001
20
-84.487500000000011
10
135.58750000000001
20
-96.487499999999997
42
-0.41421356237310542
10
134.58750000000003
20
-97.487499999999997
10
122.58750000000001
20
-97.487499999999997
42
-0.41421356237309503
10
121.58750000000001
20
-96.487499999999997
0
LWPOLYLINE
5
163
100
AcDbEntity
8
0
100
AcDbPolyline
90
8
70
1
43
0.0
10
169.21250000000001
20
-65.4375
42
-0.41421356237310802
10
170.21250000000003
20
-64.4375
10
182.21250000000001
20
-64.437499999999986
42
-0.41421356237307422
10
183.21250000000003
20
-65.4375
10
183.21249999999998
20
-77.4375
42
-0.41421356237310025
10
182.21250000000001
20
-78.4375
10
170.21250000000003
20
-78.437500000000014
42
-0.41421356237309243
10
169.21250000000001
20
-77.4375
0
LWPOLYLINE
5
164
100
AcDbEntity
8
0
100
AcDbPolyline
90
8
70
1
43
0.0
10
269.22500000000002
20
-3.5250000000000004
42
-0.41421356237307422
10
270.22500000000002
20
-2.5250000000000004
10
282.22500000000002
20
-2.5249999999999884
42
-0.41421356237309437
10
283.22500000000002
20
-3.5250000000000004
10
283.22500000000008
20
-15.525000000000002
42
-0.41421356237310542
10
282.22500000000002
20
-16.525000000000002
10
270.22500000000002
20
-16.525000000000013
42
-0.41421356237307294
10
269.22500000000002
20
-15.525000000000002
0
LWPOLYLINE
5
165
100
AcDbEntity
8
0
100
AcDbPolyline
90
8
70
1
43
0.0
10
78.725000000000009
20
-27.337500000000002
42
-0.41421356237309243
10
79.724999999999994
20
-26.337499999999999
10
91.724999999999994
20
-26.337499999999995
42
-0.41421356237309764
10
92.724999999999994
20
-27.337500000000002
10
92.724999999999966
20
-39.337499999999999
42
-0.41421356237309764
10
91.724999999999994
20
-40.337499999999991
10
79.724999999999994
20
-40.337499999999991
42
-0.41421356237309631
10
78.725000000000009
20
-39.337499999999999
0
LWPOLYLINE
5
166
100
AcDbEntity
8
0
100
AcDbPolyline
90
8
70
1
43
0.0
10
135.875
20
-27.337500000000002
42
-0.41421356237309631
10
136.875
20
-26.337499999999999
10
148.875
20
-26.337500000000006
42
-0.41421356237309503
10
149.875
20
-27.337500000000002
10
149.875
20
-39.337499999999999
42
-0.41421356237309503
10
148.875
20
-40.337499999999991
10
136.875
20
-40.337500000000006
42
-0.41421356237309764
10
135.875
20
-39.337499999999999
0
LWPOLYLINE
5
167
100
AcDbEntity
8
0
100
AcDbPolyline
90
8
70
1
43
0.0
10
2.5249999999999999
20
-3.5250000000000004
42
-0.41421356237309492
10
3.5250000000000004
20
-2.5250000000000004
10
15.525000000000002
20
-2.5249999999999999
42
-0.41421356237309492
10
16.525000000000002
20
-3.5250000000000004
10
16.525000000000002
20
-15.525000000000002
42
-0.4142135623730937
10
15.525000000000002
20
-16.525000000000002
10
3.5250000000000004
20
-16.525000000000002
42
-0.41421356237309359
10
2.5250000000000004
20
-15.525000000000002
0
LWPOLYLINE
5
168
100
AcDbEntity
8
0
100
AcDbPolyline
90
8
70
1
43
0.0
10
97.77500000000002
20
-27.337500000000002
42
-0.41421356237309631
10
98.775000000000006
20
-26.337499999999999
10
110.77500000000001
20
-26.337499999999995
42
-0.41421356237309764
10
111.77500000000001
20
-27.337500000000002
10
111.77499999999998
20
-39.337499999999999
42
-0.41421356237309764
10
110.77500000000001
20
-40.337499999999991
10
98.775000000000006
20
-40.337500000000006
42
-0.41421356237309764
10
97.77500000000002
20
-39.337499999999999
0
LWPOLYLINE
5
169
100
AcDbEntity
8
0
100
AcDbPolyline
90
8
70
1
43
0.0
10
173.97500000000002
20
-27.337500000000002
42
-0.41421356237307555
10
174.97499999999999
20
-26.337499999999999
10
186.97500000000002
20
-26.337499999999988
42
-0.41421356237307422
10
187.97500000000002
20
-27.337500000000002
10
187.97499999999997
20
-39.337499999999999
42
-0.41421356237308721
10
186.97500000000002
20
-40.337499999999991
10
174.97499999999999
20
-40.337500000000013
42
-0.41421356237307294
10
173.97499999999997
20
-39.337499999999999
0
LWPOLYLINE
5
170
100
AcDbEntity
8
0
100
AcDbPolyline
90
8
70
1
43
0.0
10
59.674999999999997
20
-27.337500000000002
42
-0.41421356237309503
10
60.674999999999997
20
-26.337499999999999
10
72.674999999999997
20
-26.337499999999999
42
-0.41421356237309631
10
73.674999999999997
20
-27.337500000000002
10
73.674999999999997
20
-39.337499999999999
42
-0.41421356237309631
10
72.674999999999997
20
-40.337499999999991
10
60.675000000000011
20
-40.337499999999991
42
-0.41421356237309631
10
59.675000000000004
20
-39.337499999999999
0
LWPOLYLINE
5
171
100
AcDbEntity
8
0
100
AcDbPolyline
90
8
70
1
43
0.0
10
2.5249999999999995
20
-27.337500000000002
42
-0.41421356237309243
10
3.5250000000000004
20
-26.337499999999999
10
15.525000000000002
20
-26.337499999999999
42
-0.41421356237309176
10
16.525000000000002
20
-27.337500000000002
10
16.524999999999999
20
-39.337499999999999
42
-0.41421356237309764
10
15.525000000000002
20
-40.337499999999991
10
3.5250000000000004
20
-40.337499999999991
42
-0.41421356237309537
10
2.5250000000000004
20
-39.337499999999999
0
LWPOLYLINE
5
172
100
AcDbEntity
8
0
100
AcDbPolyline
90
8
70
1
43
0.0
10
116.82500000000002
20
-27.337500000000002
42
-0.4142135623730937
10
117.825
20
-26.337499999999999
10
129.82499999999999
20
-26.337500000000006
42
-0.41421356237309503
10
130.82499999999999
20
-27.337500000000002
10
130.82499999999999
20
-39.337499999999999
42
-0.41421356237309503
10
129.82499999999999
20
-40.337499999999991
10
117.825
20
-40.337499999999991
42
-0.41421356237309503
10
116.82500000000002
20
-39.337499999999999
0
LWPOLYLINE
5
173
100
AcDbEntity
8
0
100
AcDbPolyline
90
8
70
1
43
0.0
10
250.17500000000001
20
-3.5250000000000004
42
-0.41421356237307422
10
251.17500000000004
20
-2.5250000000000004
10
263.17500000000001
20
-2.5249999999999884
42
-0.41421356237309437
10
264.17500000000007
20
-3.5250000000000004
10
264.17500000000007
20
-15.525000000000002
42
-0.41421356237310542
10
263.17500000000001
20
-16.525000000000002
10
251.17500000000004
20
-16.525000000000013
42
-0.41421356237307294
10
250.17500000000001
20
-15.525000000000002
0
LWPOLYLINE
5
174
100
AcDbEntity
8
0
100
AcDbPolyline
90
8
70
1
43
0.0
10
34.575000000000003
20
-26.337499999999995
42
-0.41421356237309115
10
35.575000000000003
20
-27.337500000000002
10
35.575000000000003
20
-39.337499999999999
42
-0.41421356237309764
10
34.575000000000003
20
-40.337499999999991
10
22.574999999999999
20
-40.337499999999991
42
-0.4142135623730937
10
21.574999999999996
20
-39.337499999999999
10
21.574999999999996
20
-27.337500000000002
42
-0.41421356237308982
10
22.574999999999999
20
-26.337499999999999
0
LWPOLYLINE
5
175
100
AcDbEntity
8
0
100
AcDbPolyline
90
8
70
1
43
0.0
10
140.63750000000002
20
-84.487500000000011
42
-0.41421356237310542
10
141.63749999999999
20
-83.487500000000011
10
153.63749999999999
20
-83.487500000000011
42
-0.41421356237310542
10
154.63749999999999
20
-84.487500000000011
10
154.63749999999999
20
-96.487499999999997
42
-0.41421356237310542
10
153.63749999999999
20
-97.487499999999997
10
141.63749999999999
20
-97.487499999999997
42
-0.41421356237310542
10
140.63750000000002
20
-96.487499999999997
0
LWPOLYLINE
5
176
100
AcDbEntity
8
0
100
AcDbPolyline
90
8
70
1
43
0.0
10
197.78750000000002
20
-84.487500000000011
42
-0.41421356237310542
10
198.78749999999999
20
-83.487500000000011
10
210.78749999999999
20
-83.487499999999969
42
-0.41421356237310025
10
211.78750000000002
20
-84.487500000000011
10
211.78750000000002
20
-96.487499999999997
42
-0.41421356237310542
10
210.78749999999999
20
-97.487499999999997
10
198.78750000000002
20
-97.487500000000026
42
-0.41421356237307944
10
197.78749999999999
20
-96.487499999999997
0
LWPOLYLINE
5
177
100
AcDbEntity
8
0
100
AcDbPolyline
90
8
70
1
43
0.0
10
83.487500000000011
20
-84.487500000000011
10
83.487500000000011
20
-96.487499999999997
42
0.41421356237310542
10
84.487500000000011
20
-97.487499999999997
10
96.487499999999997
20
-97.487499999999997
42
0.41421356237310542
10
97.487499999999997
20
-96.487499999999997
10
97.487499999999997
20
-84.487500000000011
42
0.41421356237310542
10
96.487499999999997
20
-83.487500000000011
10
84.487500000000011
20
-83.487500000000011
42
0.41421356237310542
0
ENDSEC
0
SECTION
2
OBJECTS
0
DICTIONARY
5
C
100
AcDbDictionary
3
ACAD_GROUP
350
D
3
ACAD_MLINESTYLE
350
17
0
DICTIONARY
5
D
100
AcDbDictionary
0
DICTIONARY
5
1A
330
C
100
AcDbDictionary
0
DICTIONARY
5
17
100
AcDbDictionary
0
ENDSEC
0
EOF
