0
SECTION
2
HEADER
9
$INSUNITS
70
4
9
$ACADVER
1
AC1014
9
$HANDSEED
5
FFFF
0
ENDSEC
0
SECTION
2
TABLES
0
TABLE
2
VPORT
5
8
100
AcDbSymbolTable
0
ENDTAB
0
TABLE
2
LTYPE
5
5
100
AcDbSymbolTable
0
LTYPE
5
14
100
AcDbSymbolTableRecord
100
AcDbLinetypeTableRecord
2
BYBLOCK
70
0
0
LTYPE
5
15
100
AcDbSymbolTableRecord
100
AcDbLinetypeTableRecord
2
BYLAYER
70
0
0
ENDTAB
0
TABLE
2
LAYER
5
2
100
AcDbSymbolTable
70
2
0
LAYER
5
50
100
AcDbSymbolTableRecord
100
AcDbLayerTableRecord
2
0
70
0
6
CONTINUOUS
0
ENDTAB
0
TABLE
2
STYLE
5
3
100
AcDbSymbolTable
70
1
0
STYLE
5
11
100
AcDbSymbolTableRecord
100
AcDbTextStyleTableRecord
2
STANDARD
70
0
0
ENDTAB
0
TABLE
2
VIEW
5
6
100
AcDbSymbolTable
70
0
0
ENDTAB
0
TABLE
2
UCS
5
7
100
AcDbSymbolTable
70
0
0
ENDTAB
0
TABLE
2
APPID
5
9
100
AcDbSymbolTable
70
2
0
APPID
5
12
100
AcDbSymbolTableRecord
100
AcDbRegAppTableRecord
2
ACAD
70
0
0
ENDTAB
0
TABLE
2
DIMSTYLE
5
A
100
AcDbSymbolTable
70
1
0
ENDTAB
0
TABLE
2
BLOCK_RECORD
5
1
100
AcDbSymbolTable
70
1
0
BLOCK_RECORD
5
1F
100
AcDbSymbolTableRecord
100
AcDbBlockTableRecord
2
*MODEL_SPACE
0
BLOCK_RECORD
5
1B
100
AcDbSymbolTableRecord
100
AcDbBlockTableRecord
2
*PAPER_SPACE
0
ENDTAB
0
ENDSEC
0
SECTION
2
BLOCKS
0
BLOCK
5
20
100
AcDbEntity
100
AcDbBlockBegin
2
*MODEL_SPACE
0
ENDBLK
5
21
100
AcDbEntity
100
AcDbBlockEnd
0
BLOCK
5
1C
100
AcDbEntity
100
AcDbBlockBegin
2
*PAPER_SPACE
0
ENDBLK
5
1D
100
AcDbEntity
100
AcDbBlockEnd
0
ENDSEC
0
SECTION
2
ENTITIES
0
CIRCLE
5
100
100
AcDbEntity
8
0
100
AcDbCircle
10
47.162499999999966
20
-14.999999999999986
30
0
40
2.0000000000000018
210
0
220
0
230
1
0
CIRCLE
5
101
100
AcDbEntity
8
0
100
AcDbCircle
10
157.16249999999997
20
-14.999999999999986
30
0
40
2.0000000000000107
210
0
220
0
230
1
0
CIRCLE
5
102
100
AcDbEntity
8
0
100
AcDbCircle
10
267.16249999999997
20
-14.999999999999986
30
0
40
1.9999999999999929
210
0
220
0
230
1
0
LWPOLYLINE
5
103
100
AcDbEntity
8
0
100
AcDbPolyline
90
6
70
1
43
0.0
10
211.75416666666663
20
9.6989265014994075
10
212.67916666666665
20
9.6989265014994075
10
213.14166666666665
20
10.500000000000007
10
212.67916666666665
20
11.301073498500607
10
211.75416666666663
20
11.301073498500607
10
211.29166666666666
20
10.500000000000007
0
LWPOLYLINE
5
104
100
AcDbEntity
8
0
100
AcDbPolyline
90
6
70
1
43
0.0
10
-7.5375000000000068
20
-130.62607349850057
10
-7.0750000000000064
20
-129.82499999999999
10
-7.5375000000000103
20
-129.02392650149937
10
-8.4625000000000021
20
-129.02392650149937
10
-8.9249999999999989
20
-129.82499999999999
10
-8.4625000000000021
20
-130.62607349850057
0
LWPOLYLINE
5
105
100
AcDbEntity
8
0
100
AcDbPolyline
90
6
70
1
43
0.0
10
321.86250000000001
20
-130.62607349850057
10
322.78749999999997
20
-130.62607349850057
10
323.24999999999994
20
-129.82499999999999
10
322.78749999999997
20
-129.02392650149937
10
321.86250000000001
20
-129.02392650149937
10
321.39999999999998
20
-129.82499999999999
0
LWPOLYLINE
5
106
100
AcDbEntity
8
0
100
AcDbPolyline
90
6
70
1
43
0.0
10
-8.4625000000000021
20
-60.463573498500587
10
-7.5375000000000068
20
-60.463573498500587
10
-7.0750000000000064
20
-59.662499999999987
10
-7.5375000000000103
20
-58.861426501499388
10
-8.4625000000000021
20
-58.861426501499388
10
-8.9249999999999989
20
-59.662499999999987
0
LWPOLYLINE
5
107
100
AcDbEntity
8
0
100
AcDbPolyline
90
6
70
1
43
0.0
10
321.86250000000001
20
9.6989265014994075
10
322.78749999999997
20
9.6989265014994075
10
323.24999999999994
20
10.500000000000007
10
322.78749999999997
20
11.301073498500607
10
321.86250000000001
20
11.301073498500607
10
321.39999999999998
20
10.500000000000007
0
LWPOLYLINE
5
108
100
AcDbEntity
8
0
100
AcDbPolyline
90
6
70
1
43
0.0
10
101.64583333333333
20
9.6989265014994075
10
102.57083333333333
20
9.6989265014994075
10
103.0333333333333
20
10.500000000000007
10
102.5708333333333
20
11.301073498500607
10
101.64583333333333
20
11.301073498500607
10
101.18333333333332
20
10.500000000000007
0
LWPOLYLINE
5
109
100
AcDbEntity
8
0
100
AcDbPolyline
90
6
70
1
43
0.0
10
101.64583333333333
20
-130.62607349850057
10
102.57083333333333
20
-130.62607349850057
10
103.0333333333333
20
-129.82499999999999
10
102.5708333333333
20
-129.02392650149937
10
101.64583333333333
20
-129.02392650149937
10
101.18333333333332
20
-129.82499999999999
0
LWPOLYLINE
5
110
100
AcDbEntity
8
0
100
AcDbPolyline
90
6
70
1
43
0.0
10
211.75416666666663
20
-130.62607349850057
10
212.67916666666665
20
-130.62607349850057
10
213.14166666666665
20
-129.82499999999999
10
212.67916666666665
20
-129.02392650149937
10
211.75416666666663
20
-129.02392650149937
10
211.29166666666666
20
-129.82499999999999
0
LWPOLYLINE
5
111
100
AcDbEntity
8
0
100
AcDbPolyline
90
6
70
1
43
0.0
10
-8.4625000000000021
20
9.6989265014994075
10
-7.5375000000000068
20
9.6989265014994075
10
-7.0750000000000064
20
10.500000000000007
10
-7.5375000000000103
20
11.301073498500607
10
-8.4625000000000021
20
11.301073498500607
10
-8.9249999999999989
20
10.500000000000007
0
LWPOLYLINE
5
112
100
AcDbEntity
8
0
100
AcDbPolyline
90
6
70
1
43
0.0
10
321.86250000000001
20
-60.463573498500587
10
322.78749999999997
20
-60.463573498500587
10
323.24999999999994
20
-59.662499999999987
10
322.78749999999997
20
-58.861426501499388
10
321.86250000000001
20
-58.861426501499388
10
321.39999999999998
20
-59.662499999999987
0
LWPOLYLINE
5
113
100
AcDbEntity
8
0
100
AcDbPolyline
90
12
70
1
43
0.0
10
315.49134130900438
20
4.785918801968652
10
315.49134130900438
20
19.999999999999993
10
319.32500000000005
20
19.999999999999968
42
-0.41421356237309209
10
329.3250000000001
20
10
10
329.32500000000005
20
-128.82499999999999
42
-0.41421356237309709
10
319.32499999999999
20
-138.82499999999999
10
-5.0000000000000675
20
-138.82499999999999
42
-0.41421356237309365
10
-15.000000000000014
20
-128.82499999999999
10
-15
20
9.9999999999999964
42
-0.41421356237309587
10
-5
20
20
10
295.49134130900438
20
19.999999999999993
10
295.49134130900438
20
4.785918801968652
0
ENDSEC
0
SECTION
2
OBJECTS
0
DICTIONARY
5
C
100
AcDbDictionary
3
ACAD_GROUP
350
D
3
ACAD_MLINESTYLE
350
17
0
DICTIONARY
5
D
100
AcDbDictionary
0
DICTIONARY
5
1A
330
C
100
AcDbDictionary
0
DICTIONARY
5
17
100
AcDbDictionary
0
ENDSEC
0
EOF
