<?xml version="1.0" encoding="UTF-8" standalone="no"?>
<!-- Created with Inkscape (http://www.inkscape.org/) -->

<svg
   xmlns:dc="http://purl.org/dc/elements/1.1/"
   xmlns:cc="http://creativecommons.org/ns#"
   xmlns:rdf="http://www.w3.org/1999/02/22-rdf-syntax-ns#"
   xmlns:svg="http://www.w3.org/2000/svg"
   xmlns="http://www.w3.org/2000/svg"
   xmlns:sodipodi="http://sodipodi.sourceforge.net/DTD/sodipodi-0.dtd"
   xmlns:inkscape="http://www.inkscape.org/namespaces/inkscape"
   width="420mm"
   height="300mm"
   viewBox="0 0 420 300"
   version="1.1"
   id="svg8"
   inkscape:version="0.92.4 (5da689c313, 2019-01-14)"
   sodipodi:docname="L4_plate_2u_backspace.svg">
  <defs
     id="defs2">
    <marker
       style="overflow:visible"
       refY="0.0"
       refX="0.0"
       orient="auto"
       id="DistanceX">
      <path
         id="path12"
         style="stroke:#000000; stroke-width:0.5"
         d="M 3,-3 L -3,3 M 0,-5 L  0,5" />
    </marker>
    <pattern
       y="0"
       x="0"
       width="8"
       patternUnits="userSpaceOnUse"
       id="Hatch"
       height="8">
      <path
         id="path15"
         stroke-width="0.25"
         stroke="#000000"
         linecap="square"
         d="M8 4 l-4,4" />
      <path
         id="path17"
         stroke-width="0.25"
         stroke="#000000"
         linecap="square"
         d="M6 2 l-4,4" />
      <path
         id="path19"
         stroke-width="0.25"
         stroke="#000000"
         linecap="square"
         d="M4 0 l-4,4" />
    </pattern>
    <symbol
       id="*MODEL_SPACE" />
    <symbol
       id="*PAPER_SPACE" />
    <marker
       style="overflow:visible"
       refY="0.0"
       refX="0.0"
       orient="auto"
       id="DistanceX-4">
      <path
         id="path57"
         style="stroke:#000000; stroke-width:0.5"
         d="M 3,-3 L -3,3 M 0,-5 L  0,5" />
    </marker>
    <pattern
       y="0"
       x="0"
       width="8"
       patternUnits="userSpaceOnUse"
       id="Hatch-8"
       height="8">
      <path
         id="path60"
         stroke-width="0.25"
         stroke="#000000"
         linecap="square"
         d="M8 4 l-4,4" />
      <path
         id="path62"
         stroke-width="0.25"
         stroke="#000000"
         linecap="square"
         d="M6 2 l-4,4" />
      <path
         id="path64"
         stroke-width="0.25"
         stroke="#000000"
         linecap="square"
         d="M4 0 l-4,4" />
    </pattern>
    <symbol
       id="*MODEL_SPACE-8" />
    <symbol
       id="*PAPER_SPACE-1" />
    <marker
       style="overflow:visible"
       refY="0.0"
       refX="0.0"
       orient="auto"
       id="DistanceX-2">
      <path
         id="path102"
         style="stroke:#000000; stroke-width:0.5"
         d="M 3,-3 L -3,3 M 0,-5 L  0,5" />
    </marker>
    <pattern
       y="0"
       x="0"
       width="8"
       patternUnits="userSpaceOnUse"
       id="Hatch-5"
       height="8">
      <path
         id="path105"
         stroke-width="0.25"
         stroke="#000000"
         linecap="square"
         d="M8 4 l-4,4" />
      <path
         id="path107"
         stroke-width="0.25"
         stroke="#000000"
         linecap="square"
         d="M6 2 l-4,4" />
      <path
         id="path109"
         stroke-width="0.25"
         stroke="#000000"
         linecap="square"
         d="M4 0 l-4,4" />
    </pattern>
    <symbol
       id="*MODEL_SPACE-84" />
    <symbol
       id="*PAPER_SPACE-4" />
    <marker
       style="overflow:visible"
       refY="0.0"
       refX="0.0"
       orient="auto"
       id="DistanceX-6">
      <path
         id="path147"
         style="stroke:#000000; stroke-width:0.5"
         d="M 3,-3 L -3,3 M 0,-5 L  0,5" />
    </marker>
    <pattern
       y="0"
       x="0"
       width="8"
       patternUnits="userSpaceOnUse"
       id="Hatch-6"
       height="8">
      <path
         id="path150"
         stroke-width="0.25"
         stroke="#000000"
         linecap="square"
         d="M8 4 l-4,4" />
      <path
         id="path152"
         stroke-width="0.25"
         stroke="#000000"
         linecap="square"
         d="M6 2 l-4,4" />
      <path
         id="path154"
         stroke-width="0.25"
         stroke="#000000"
         linecap="square"
         d="M4 0 l-4,4" />
    </pattern>
    <symbol
       id="*MODEL_SPACE-0" />
    <symbol
       id="*PAPER_SPACE-9" />
    <marker
       style="overflow:visible"
       refY="0.0"
       refX="0.0"
       orient="auto"
       id="DistanceX-7">
      <path
         id="path414"
         style="stroke:#000000; stroke-width:0.5"
         d="M 3,-3 L -3,3 M 0,-5 L  0,5" />
    </marker>
    <pattern
       y="0"
       x="0"
       width="8"
       patternUnits="userSpaceOnUse"
       id="Hatch-59"
       height="8">
      <path
         id="path417"
         stroke-width="0.25"
         stroke="#000000"
         linecap="square"
         d="M8 4 l-4,4" />
      <path
         id="path419"
         stroke-width="0.25"
         stroke="#000000"
         linecap="square"
         d="M6 2 l-4,4" />
      <path
         id="path421"
         stroke-width="0.25"
         stroke="#000000"
         linecap="square"
         d="M4 0 l-4,4" />
    </pattern>
    <symbol
       id="*MODEL_SPACE-4" />
    <symbol
       id="*PAPER_SPACE-2" />
    <marker
       style="overflow:visible"
       refY="0.0"
       refX="0.0"
       orient="auto"
       id="DistanceX-1">
      <path
         id="path489"
         style="stroke:#000000; stroke-width:0.5"
         d="M 3,-3 L -3,3 M 0,-5 L  0,5" />
    </marker>
    <pattern
       y="0"
       x="0"
       width="8"
       patternUnits="userSpaceOnUse"
       id="Hatch-86"
       height="8">
      <path
         id="path492"
         stroke-width="0.25"
         stroke="#000000"
         linecap="square"
         d="M8 4 l-4,4" />
      <path
         id="path494"
         stroke-width="0.25"
         stroke="#000000"
         linecap="square"
         d="M6 2 l-4,4" />
      <path
         id="path496"
         stroke-width="0.25"
         stroke="#000000"
         linecap="square"
         d="M4 0 l-4,4" />
    </pattern>
    <symbol
       id="*MODEL_SPACE-1" />
    <symbol
       id="*PAPER_SPACE-90" />
    <marker
       style="overflow:visible"
       refY="0.0"
       refX="0.0"
       orient="auto"
       id="DistanceX-23">
      <path
         id="path555"
         style="stroke:#000000; stroke-width:0.5"
         d="M 3,-3 L -3,3 M 0,-5 L  0,5" />
    </marker>
    <pattern
       y="0"
       x="0"
       width="8"
       patternUnits="userSpaceOnUse"
       id="Hatch-64"
       height="8">
      <path
         id="path558"
         stroke-width="0.25"
         stroke="#000000"
         linecap="square"
         d="M8 4 l-4,4" />
      <path
         id="path560"
         stroke-width="0.25"
         stroke="#000000"
         linecap="square"
         d="M6 2 l-4,4" />
      <path
         id="path562"
         stroke-width="0.25"
         stroke="#000000"
         linecap="square"
         d="M4 0 l-4,4" />
    </pattern>
    <symbol
       id="*MODEL_SPACE-9" />
    <symbol
       id="*PAPER_SPACE-0" />
    <marker
       style="overflow:visible"
       refY="0.0"
       refX="0.0"
       orient="auto"
       id="DistanceX-18">
      <path
         id="path306"
         style="stroke:#000000; stroke-width:0.5"
         d="M 3,-3 L -3,3 M 0,-5 L  0,5" />
    </marker>
    <pattern
       y="0"
       x="0"
       width="8"
       patternUnits="userSpaceOnUse"
       id="Hatch-2"
       height="8">
      <path
         id="path309"
         stroke-width="0.25"
         stroke="#000000"
         linecap="square"
         d="M8 4 l-4,4" />
      <path
         id="path311"
         stroke-width="0.25"
         stroke="#000000"
         linecap="square"
         d="M6 2 l-4,4" />
      <path
         id="path313"
         stroke-width="0.25"
         stroke="#000000"
         linecap="square"
         d="M4 0 l-4,4" />
    </pattern>
    <symbol
       id="*MODEL_SPACE-6" />
    <symbol
       id="*PAPER_SPACE-8" />
  </defs>
  <sodipodi:namedview
     id="base"
     pagecolor="#ffffff"
     bordercolor="#666666"
     borderopacity="1.0"
     inkscape:pageopacity="0.0"
     inkscape:pageshadow="2"
     inkscape:zoom="0.7"
     inkscape:cx="542.00931"
     inkscape:cy="611.73031"
     inkscape:document-units="mm"
     inkscape:current-layer="layer1"
     showgrid="false"
     inkscape:window-width="2560"
     inkscape:window-height="1377"
     inkscape:window-x="-8"
     inkscape:window-y="-8"
     inkscape:window-maximized="1" />
  <metadata
     id="metadata5">
    <rdf:RDF>
      <cc:Work
         rdf:about="">
        <dc:format>image/svg+xml</dc:format>
        <dc:type
           rdf:resource="http://purl.org/dc/dcmitype/StillImage" />
        <dc:title></dc:title>
      </cc:Work>
    </rdf:RDF>
  </metadata>
  <g
     inkscape:label="Layer 1"
     inkscape:groupmode="layer"
     id="layer1"
     transform="translate(0,3)">
    <g
       id="g392"
       inkscape:label="0"
       transform="matrix(0.26458333,0,0,0.26458333,52.837504,-209.41249)">
      <path
         id="path320"
         style="fill:none;stroke:#000000"
         d="m -56.692913,1084.7244 a 37.795276,37.795276 0 0 1 37.795275,-37.7953 H 1206.8976 a 37.795276,37.795276 0 0 1 37.7953,37.7953 v 524.6929 a 37.795276,37.795276 0 0 1 -37.7953,37.7953 H -18.897638 a 37.795276,37.795276 0 0 1 -37.795275,-37.7953 z"
         inkscape:connector-curvature="0" />
      <path
         id="path322"
         style="fill:none;stroke:#000000"
         d="m 888.56693,1294.5694 a 3.779528,3.779528 0 0 1 -1.88977,-3.2732 v -12.5403 a 3.779528,3.779528 0 0 1 3.77953,-3.7795 h 32.22047 a 3.779528,3.779528 0 0 0 3.77953,-3.7795 v -45.3544 a 3.779528,3.779528 0 0 0 -3.77953,-3.7795 v -37.0866 a 3.779528,3.779528 0 0 0 3.77953,-3.7795 v -45.3544 a 3.779528,3.779528 0 0 0 -3.77953,-3.7795 H 157.32283 a 3.779528,3.779528 0 0 0 -3.77952,3.7795 v 45.3544 a 3.779528,3.779528 0 0 0 3.77952,3.7795 h 41.57481 a 3.779528,3.779528 0 0 1 3.77952,3.7795 v 29.5276 a 3.779528,3.779528 0 0 1 -3.77952,3.7795 h -41.57481 a 3.779528,3.779528 0 0 0 -3.77952,3.7795 v 45.3544 a 3.779528,3.779528 0 0 0 3.77952,3.7795 h 32.22048 a 3.779528,3.779528 0 0 1 3.77952,3.7795 v 15.3071 a 3.779528,3.779528 0 0 0 -3.77952,3.7795 v 45.3544 a 3.779528,3.779528 0 0 0 3.77952,3.7795 h 14.22048 a 3.779528,3.779528 0 0 1 3.77952,3.7795 v 15.3071 a 3.779528,3.779528 0 0 0 -3.77952,3.7795 v 64.441 a 3.779528,3.779528 0 0 1 -3.77953,3.7795 h -28.44095 a 3.779528,3.779528 0 0 0 -3.77952,3.7795 v 45.3544 a 3.779528,3.779528 0 0 0 3.77952,3.7795 h 63.39889 a 2.07874,2.07874 0 0 1 2.04762,2.437 l -0.46541,2.6596 a 2.07874,2.07874 0 0 1 -0.095,0.3547 2.07874,2.07874 0 0 1 -0.42316,0.6111 l -2.50589,2.5059 v 71.044 h 33.94237 v -3.8328 a 3.779528,3.779528 0 0 1 3.77953,-3.7795 h 391.1811 a 3.779528,3.779528 0 0 1 3.77953,3.7795 v 3.8328 h 33.25984 v -52.9667 a 3.779528,3.779528 0 0 1 3.77953,-3.7795 h 36.76197 a 3.779528,3.779528 0 0 1 3.77953,3.7795 v 41.5749 a 3.779528,3.779528 0 0 0 3.77953,3.7795 h 45.35432 a 3.779528,3.779528 0 0 0 3.77953,-3.7795 v -41.5749 a 3.779528,3.779528 0 0 1 3.77953,-3.7795 h 47.52756 a 3.779528,3.779528 0 0 1 3.77953,3.7795 v 41.5749 a 3.779528,3.779528 0 0 0 3.77953,3.7795 h 45.35432 a 3.779528,3.779528 0 0 0 3.77953,-3.7795 v -45.3544 a 3.779528,3.779528 0 0 0 -3.77953,-3.7795 h -41.5748 a 3.779528,3.779528 0 0 1 -3.77952,-3.7795 v -11.5276 a 3.779528,3.779528 0 0 1 3.77952,-3.7795 h 5.5748 a 3.779528,3.779528 0 0 0 3.77953,-3.7795 v -45.3544 a 3.779528,3.779528 0 0 0 -3.77953,-3.7795 v -15.3071 a 3.779528,3.779528 0 0 1 3.77953,-3.7795 h 32.22047 a 3.779528,3.779528 0 0 0 3.77953,-3.7795 v -45.3544 a 3.779528,3.779528 0 0 0 -3.77953,-3.7795 h -14.22047 a 3.779528,3.779528 0 0 1 -3.77953,-3.7795 v -12.5403 a 3.779528,3.779528 0 0 1 1.88977,-3.2732 3.779528,3.779528 0 0 0 1.88976,-3.2731 v -45.3544 a 3.779528,3.779528 0 0 0 -1.88976,-3.2731 z"
         inkscape:connector-curvature="0" />
      <path
         id="path324"
         style="fill:none;stroke:#000000"
         d="m 1021.6772,1366.063 a 6.851031,6.851031 0 0 1 1.4534,0.1559 3.779528,3.779528 0 0 0 3.562,-1.1116 l 1.2995,-1.3893 a 3.779528,3.779528 0 0 1 2.7569,-1.1977 l 25.4558,-0.023 a 3.779528,3.779528 0 0 1 3.7829,3.7654 l 0.2488,66.5761 a 3.779528,3.779528 0 0 1 -3.7734,3.7936 l -24.9404,0.04 h -87.48339 a 3.779528,3.779528 0 0 1 -0.52868,-0.037 h -1.97377 a 3.779528,3.779528 0 0 1 -3.77338,-3.7936 l 0.24884,-66.5761 a 3.779528,3.779528 0 0 1 3.78287,-3.7654 l 25.45585,0.023 a 3.779528,3.779528 0 0 1 2.75684,1.1977 l 1.29955,1.3893 a 3.779528,3.779528 0 0 0 3.56201,1.1116 6.851031,6.851031 0 0 1 1.4534,-0.1559 z"
         inkscape:connector-curvature="0" />
      <path
         id="path326"
         style="fill:none;stroke:#000000"
         d="m 135.54331,1513.8425 a 3.779528,3.779528 0 0 1 3.77952,-3.7795 h 45.35433 a 3.779528,3.779528 0 0 1 3.77953,3.7795 v 45.3544 a 3.779528,3.779528 0 0 1 -3.77953,3.7795 h -45.35433 a 3.779528,3.779528 0 0 1 -3.77952,-3.7795 z"
         inkscape:connector-curvature="0" />
      <path
         id="path328"
         style="fill:none;stroke:#000000"
         d="m 963.54331,1531.8425 a 3.779528,3.779528 0 0 1 3.77953,-3.7795 h 45.35436 a 3.779528,3.779528 0 0 1 3.7795,3.7795 v 45.3544 a 3.779528,3.779528 0 0 1 -3.7795,3.7795 h -45.35436 a 3.779528,3.779528 0 0 1 -3.77953,-3.7795 z"
         inkscape:connector-curvature="0" />
      <path
         id="path330"
         style="fill:none;stroke:#000000"
         d="m 1035.5433,1531.8425 v 45.3544 a 3.779528,3.779528 0 0 0 3.7795,3.7795 h 45.3544 a 3.779528,3.779528 0 0 0 3.7795,-3.7795 v -45.3544 a 3.779528,3.779528 0 0 0 -3.7795,-3.7795 h -45.3544 a 3.779528,3.779528 0 0 0 -3.7795,3.7795 z"
         inkscape:connector-curvature="0" />
      <path
         id="path332"
         style="fill:none;stroke:#000000"
         d="m 36.543307,1369.8425 a 3.779528,3.779528 0 0 1 3.779528,-3.7795 h 45.35433 a 3.779528,3.779528 0 0 1 3.779528,3.7795 v 45.3544 a 3.779528,3.779528 0 0 1 -3.779528,3.7795 h -45.35433 a 3.779528,3.779528 0 0 1 -3.779528,-3.7795 z"
         inkscape:connector-curvature="0" />
      <path
         id="path334"
         style="fill:none;stroke:#000000"
         d="m 1035.5433,1459.8425 a 3.779528,3.779528 0 0 1 3.7795,-3.7795 h 45.3544 a 3.779528,3.779528 0 0 1 3.7795,3.7795 v 45.3544 a 3.779528,3.779528 0 0 1 -3.7795,3.7795 h -45.3544 a 3.779528,3.779528 0 0 1 -3.7795,-3.7795 z"
         inkscape:connector-curvature="0" />
      <path
         id="path336"
         style="fill:none;stroke:#000000"
         d="m 1125.5433,1297.8425 a 3.779528,3.779528 0 0 1 3.7795,-3.7795 h 45.3544 a 3.779528,3.779528 0 0 1 3.7795,3.7795 v 45.3544 a 3.779528,3.779528 0 0 1 -3.7795,3.7795 h -45.3544 a 3.779528,3.779528 0 0 1 -3.7795,-3.7795 z"
         inkscape:connector-curvature="0" />
      <path
         id="path338"
         style="fill:none;stroke:#000000"
         d="m 135.54331,1369.8425 a 3.779528,3.779528 0 0 1 3.77952,-3.7795 h 45.35433 a 3.779528,3.779528 0 0 1 3.77953,3.7795 v 45.3544 a 3.779528,3.779528 0 0 1 -3.77953,3.7795 h -45.35433 a 3.779528,3.779528 0 0 1 -3.77952,-3.7795 z"
         inkscape:connector-curvature="0" />
      <path
         id="path340"
         style="fill:none;stroke:#000000"
         d="m 918.54331,1441.8425 a 3.779528,3.779528 0 0 1 3.77953,-3.7795 h 45.35432 a 3.779528,3.779528 0 0 1 3.77953,3.7795 v 45.3544 a 3.779528,3.779528 0 0 1 -3.77953,3.7795 h -45.35432 a 3.779528,3.779528 0 0 1 -3.77953,-3.7795 z"
         inkscape:connector-curvature="0" />
      <path
         id="path342"
         style="fill:none;stroke:#000000"
         d="m 27.543307,1297.8425 a 3.779528,3.779528 0 0 1 3.779528,-3.7795 h 45.35433 a 3.779528,3.779528 0 0 1 3.779528,3.7795 v 45.3544 a 3.779528,3.779528 0 0 1 -3.779528,3.7795 h -45.35433 a 3.779528,3.779528 0 0 1 -3.779528,-3.7795 z"
         inkscape:connector-curvature="0" />
      <path
         id="path344"
         style="fill:none;stroke:#000000"
         d="m 117.54331,1297.8425 v 45.3544 a 3.779528,3.779528 0 0 0 3.77952,3.7795 h 45.35433 a 3.779528,3.779528 0 0 0 3.77953,-3.7795 v -45.3544 a 3.779528,3.779528 0 0 0 -3.77953,-3.7795 h -45.35433 a 3.779528,3.779528 0 0 0 -3.77952,3.7795 z"
         inkscape:connector-curvature="0" />
      <path
         id="path346"
         style="fill:none;stroke:#000000"
         d="m 1048.6772,1294.063 a 3.779528,3.779528 0 0 1 3.7795,3.7795 v 45.3544 a 3.779528,3.779528 0 0 1 -3.7795,3.7795 h -45.3544 a 3.779528,3.779528 0 0 1 -3.77949,-3.7795 v -45.3544 a 3.779528,3.779528 0 0 1 3.77949,-3.7795 z"
         inkscape:connector-curvature="0" />
      <path
         id="path348"
         style="fill:none;stroke:#000000"
         d="m 945.54331,1135.8425 a 3.779528,3.779528 0 0 1 3.77953,-3.7795 h 45.35432 a 3.779528,3.779528 0 0 1 3.77953,3.7795 v 45.3544 a 3.779528,3.779528 0 0 1 -3.77953,3.7795 h -45.35432 a 3.779528,3.779528 0 0 1 -3.77953,-3.7795 z"
         inkscape:connector-curvature="0" />
      <path
         id="path350"
         style="fill:none;stroke:#000000"
         d="m 9.543307,1135.8425 a 3.779528,3.779528 0 0 1 3.779528,-3.7795 h 45.35433 a 3.779528,3.779528 0 0 1 3.779528,3.7795 v 45.3544 a 3.779528,3.779528 0 0 1 -3.779528,3.7795 h -45.35433 a 3.779528,3.779528 0 0 1 -3.779528,-3.7795 z"
         inkscape:connector-curvature="0" />
      <path
         id="path352"
         style="fill:none;stroke:#000000"
         d="m 1125.5433,1441.8425 v 45.3544 a 3.779528,3.779528 0 0 0 3.7795,3.7795 h 45.3544 a 3.779528,3.779528 0 0 0 3.7795,-3.7795 v -45.3544 a 3.779528,3.779528 0 0 0 -3.7795,-3.7795 h -45.3544 a 3.779528,3.779528 0 0 0 -3.7795,3.7795 z"
         inkscape:connector-curvature="0" />
      <path
         id="path354"
         style="fill:none;stroke:#000000"
         d="m 9.543307,1225.8425 a 3.779528,3.779528 0 0 1 3.779528,-3.7795 h 45.35433 a 3.779528,3.779528 0 0 1 3.779528,3.7795 v 45.3544 a 3.779528,3.779528 0 0 1 -3.779528,3.7795 h -45.35433 a 3.779528,3.779528 0 0 1 -3.779528,-3.7795 z"
         inkscape:connector-curvature="0" />
      <path
         id="path356"
         style="fill:none;stroke:#000000"
         d="m 130.67716,1222.063 a 3.779528,3.779528 0 0 1 3.77953,3.7795 v 45.3544 a 3.779528,3.779528 0 0 1 -3.77953,3.7795 H 85.322835 a 3.779528,3.779528 0 0 1 -3.779528,-3.7795 v -45.3544 a 3.779528,3.779528 0 0 1 3.779528,-3.7795 z"
         inkscape:connector-curvature="0" />
      <path
         id="path358"
         style="fill:none;stroke:#000000"
         d="m 909.54331,1297.8425 a 3.779528,3.779528 0 0 1 3.77953,-3.7795 h 45.35432 a 3.779528,3.779528 0 0 1 3.77953,3.7795 v 45.3544 a 3.779528,3.779528 0 0 1 -3.77953,3.7795 h -45.35432 a 3.779528,3.779528 0 0 1 -3.77953,-3.7795 z"
         inkscape:connector-curvature="0" />
      <path
         id="path360"
         style="fill:none;stroke:#000000"
         d="m 49.25104,1434.5203 a 3.779528,3.779528 0 0 1 2.756845,1.1977 l 1.299547,1.3893 a 3.779528,3.779528 0 0 0 3.562011,1.1116 6.851031,6.851031 0 0 1 1.453392,-0.1559 h 45.354335 a 6.851031,6.851031 0 0 1 1.45339,0.1559 3.779528,3.779528 0 0 0 3.56201,-1.1116 l 1.29954,-1.3893 a 3.779528,3.779528 0 0 1 2.75685,-1.1977 l 25.45585,-0.023 a 3.779528,3.779528 0 0 1 3.78287,3.7654 l 0.24884,66.5761 a 3.779528,3.779528 0 0 1 -3.77338,3.7936 l -24.94041,0.04 H 26.039307 a 3.779528,3.779528 0 0 1 -0.528678,-0.037 h -1.973766 a 3.779528,3.779528 0 0 1 -3.773387,-3.7936 l 0.248846,-66.5761 a 3.779528,3.779528 0 0 1 3.782871,-3.7654 z"
         inkscape:connector-curvature="0" />
      <path
         id="path362"
         style="fill:none;stroke:#000000"
         d="m 1107.5433,1531.8425 a 3.779528,3.779528 0 0 1 3.7795,-3.7795 h 45.3544 a 3.779528,3.779528 0 0 1 3.7795,3.7795 v 45.3544 a 3.779528,3.779528 0 0 1 -3.7795,3.7795 h -45.3544 a 3.779528,3.779528 0 0 1 -3.7795,-3.7795 z"
         inkscape:connector-curvature="0" />
      <path
         id="path364"
         style="fill:none;stroke:#000000"
         d="m 1125.5433,1369.8425 v 45.3544 a 3.779528,3.779528 0 0 0 3.7795,3.7795 h 45.3544 a 3.779528,3.779528 0 0 0 3.7795,-3.7795 v -45.3544 a 3.779528,3.779528 0 0 0 -3.7795,-3.7795 h -45.3544 a 3.779528,3.779528 0 0 0 -3.7795,3.7795 z"
         inkscape:connector-curvature="0" />
      <path
         id="path366"
         style="fill:none;stroke:#000000"
         d="m 27.543307,1513.8425 a 3.779528,3.779528 0 0 1 3.779528,-3.7795 h 45.35433 a 3.779528,3.779528 0 0 1 3.779528,3.7795 v 45.3544 a 3.779528,3.779528 0 0 1 -3.779528,3.7795 h -45.35433 a 3.779528,3.779528 0 0 1 -3.779528,-3.7795 z"
         inkscape:connector-curvature="0" />
      <path
         id="path368"
         style="fill:none;stroke:#000000"
         d="m 1017.5433,1135.8425 a 3.779528,3.779528 0 0 1 3.7795,-3.7795 h 45.3544 a 3.779528,3.779528 0 0 1 3.7795,3.7795 v 45.3544 a 3.779528,3.779528 0 0 1 -3.7795,3.7795 h -45.3544 a 3.779528,3.779528 0 0 1 -3.7795,-3.7795 z"
         inkscape:connector-curvature="0" />
      <path
         id="path370"
         style="fill:none;stroke:#000000"
         d="m -24.094488,1613.1969 a 6.1417325,6.1417325 0 1 0 -12.283465,0 6.1417325,6.1417325 0 1 0 12.283465,0 z"
         inkscape:connector-curvature="0" />
      <path
         id="path372"
         style="fill:none;stroke:#000000"
         d="m 1224.378,1348.0157 a 6.14175,6.14175 0 1 0 -12.2835,0 6.14175,6.14175 0 1 0 12.2835,0 z"
         inkscape:connector-curvature="0" />
      <path
         id="path374"
         style="fill:none;stroke:#000000"
         d="m -24.094488,1348.0157 a 6.1417325,6.1417325 0 1 0 -12.283465,0 6.1417325,6.1417325 0 1 0 12.283465,0 z"
         inkscape:connector-curvature="0" />
      <path
         id="path376"
         style="fill:none;stroke:#000000"
         d="m 392.06299,1082.8346 a 6.141732,6.141732 0 1 0 -12.28346,0 6.141732,6.141732 0 1 0 12.28346,0 z"
         inkscape:connector-curvature="0" />
      <path
         id="path378"
         style="fill:none;stroke:#000000"
         d="m 1224.378,1613.1969 a 6.14175,6.14175 0 1 0 -12.2835,0 6.14175,6.14175 0 1 0 12.2835,0 z"
         inkscape:connector-curvature="0" />
      <path
         id="path380"
         style="fill:none;stroke:#000000"
         d="m 392.06299,1613.1969 a 6.141732,6.141732 0 1 0 -12.28346,0 6.141732,6.141732 0 1 0 12.28346,0 z"
         inkscape:connector-curvature="0" />
      <path
         id="path382"
         style="fill:none;stroke:#000000"
         d="m 1224.378,1082.8346 a 6.14175,6.14175 0 1 0 -12.2835,0 6.14175,6.14175 0 1 0 12.2835,0 z"
         inkscape:connector-curvature="0" />
      <path
         id="path384"
         style="fill:none;stroke:#000000"
         d="m -24.094488,1082.8346 a 6.1417325,6.1417325 0 1 0 -12.283465,0 6.1417325,6.1417325 0 1 0 12.283465,0 z"
         inkscape:connector-curvature="0" />
      <path
         id="path386"
         style="fill:none;stroke:#000000"
         d="m 808.22047,1082.8346 a 6.141732,6.141732 0 1 0 -12.28346,0 6.141732,6.141732 0 1 0 12.28346,0 z"
         inkscape:connector-curvature="0" />
      <path
         id="path388"
         style="fill:none;stroke:#000000"
         d="m 808.22047,1613.1969 a 6.141732,6.141732 0 1 0 -12.28346,0 6.141732,6.141732 0 1 0 12.28346,0 z"
         inkscape:connector-curvature="0" />
      <path
         id="path390"
         style="fill:none;stroke:#000000"
         d="m 1039.181,1220.1732 -1.8896,1.8898 h -58.58275 l -1.33629,-0.5535 -0.55351,-1.3363 v -1.8897 l -3.7795,-3.7796 h -20.7874 l -3.7795,3.7796 -0.71953,4.1117 a 3.779528,3.779528 0 0 0 -0.0358,0.017 v 0.01 a 3.779528,3.779528 0 0 0 -1.94348,2.1223 l -0.98558,0.9855 v 45.9806 l 0.98503,0.985 a 3.779528,3.779528 0 0 0 0.0418,0.1092 3.779528,3.779528 0 0 0 1.90222,2.104 l -6e-4,10.0306 4.22232,4.2223 h 112.12237 l 4.2222,-4.2223 3e-4,-9.9917 a 3.779528,3.779528 0 0 0 2.0593,-2.3673 l 0.8699,-0.8698 V 1225.53 l -0.987,-0.987 a 3.779528,3.779528 0 0 0 -1.9422,-2.1205 v -0.016 a 3.779528,3.779528 0 0 0 -0.037,-0.017 l -0.7193,-4.1052 -3.7795,-3.7796 h -20.7874 l -2.6725,1.107 -1.1071,2.6726 z"
         inkscape:connector-curvature="0" />
    </g>
  </g>
</svg>
