0
SECTION
2
HEADER
9
$INSUNITS
70
4
9
$ACADVER
1
AC1014
9
$HANDSEED
5
FFFF
0
ENDSEC
0
SECTION
2
TABLES
0
TABLE
2
VPORT
5
8
100
AcDbSymbolTable
0
ENDTAB
0
TABLE
2
LTYPE
5
5
100
AcDbSymbolTable
0
LTYPE
5
14
100
AcDbSymbolTableRecord
100
AcDbLinetypeTableRecord
2
BYBLOCK
70
0
0
LTYPE
5
15
100
AcDbSymbolTableRecord
100
AcDbLinetypeTableRecord
2
BYLAYER
70
0
0
ENDTAB
0
TABLE
2
LAYER
5
2
100
AcDbSymbolTable
70
2
0
LAYER
5
50
100
AcDbSymbolTableRecord
100
AcDbLayerTableRecord
2
0
70
0
6
CONTINUOUS
0
ENDTAB
0
TABLE
2
STYLE
5
3
100
AcDbSymbolTable
70
1
0
STYLE
5
11
100
AcDbSymbolTableRecord
100
AcDbTextStyleTableRecord
2
STANDARD
70
0
0
ENDTAB
0
TABLE
2
VIEW
5
6
100
AcDbSymbolTable
70
0
0
ENDTAB
0
TABLE
2
UCS
5
7
100
AcDbSymbolTable
70
0
0
ENDTAB
0
TABLE
2
APPID
5
9
100
AcDbSymbolTable
70
2
0
APPID
5
12
100
AcDbSymbolTableRecord
100
AcDbRegAppTableRecord
2
ACAD
70
0
0
ENDTAB
0
TABLE
2
DIMSTYLE
5
A
100
AcDbSymbolTable
70
1
0
ENDTAB
0
TABLE
2
BLOCK_RECORD
5
1
100
AcDbSymbolTable
70
1
0
BLOCK_RECORD
5
1F
100
AcDbSymbolTableRecord
100
AcDbBlockTableRecord
2
*MODEL_SPACE
0
BLOCK_RECORD
5
1B
100
AcDbSymbolTableRecord
100
AcDbBlockTableRecord
2
*PAPER_SPACE
0
ENDTAB
0
ENDSEC
0
SECTION
2
BLOCKS
0
BLOCK
5
20
100
AcDbEntity
100
AcDbBlockBegin
2
*MODEL_SPACE
0
ENDBLK
5
21
100
AcDbEntity
100
AcDbBlockEnd
0
BLOCK
5
1C
100
AcDbEntity
100
AcDbBlockBegin
2
*PAPER_SPACE
0
ENDBLK
5
1D
100
AcDbEntity
100
AcDbBlockEnd
0
ENDSEC
0
SECTION
2
ENTITIES
0
LWPOLYLINE
5
100
100
AcDbEntity
8
0
100
AcDbPolyline
90
25
70
1
43
0.0
10
15.237874858710594
20
-82.497844125612033
10
15.011346648256936
20
-82.497844125612005
42
-0.41421356237312623
10
14.511346648256929
20
-81.997844125612019
10
14.511346648256929
20
-80.992333210526255
42
0.41421356237309503
10
13.511346648256914
20
-79.992333210526269
10
6.2963075397169099
20
-79.992333210526255
42
0.41395242870914251
10
5.2963079372353494
20
-80.991441562240851
10
5.2949267877471229
20
-82.540425575103853
10
5.2290864624383104
20
-100.15533258006782
42
0.4148345808956907
10
6.22746155768926
20
-101.15906900685737
10
6.7496873120395229
20
-101.15991392713759
42
0.035099298395131241
10
6.8895666777143916
20
-101.1697453742849
10
30.036221768080864
20
-101.1697453742849
10
36.635038442310702
20
-101.15906900685738
42
0.41483458089570008
10
37.633413537561644
20
-100.15533258006782
10
37.567573212252867
20
-82.540425575103853
10
37.566192062764628
20
-80.991441562240865
42
0.41395242870914872
10
36.566192460283077
20
-79.992333210526255
10
29.351153351743076
20
-79.992333210526269
42
0.41421356237308982
10
28.351153351743061
20
-80.992333210526255
10
28.351153351743061
20
-81.997844125612019
42
-0.41421356237312623
10
27.851153351743054
20
-82.497844125612005
10
27.624625141289396
20
-82.497844125612033
42
0.026727159213962105
10
27.431249999999991
20
-82.487500000000011
10
15.431249999999999
20
-82.487500000000026
42
0.026727159214209713
0
LWPOLYLINE
5
101
100
AcDbEntity
8
0
100
AcDbPolyline
90
8
70
1
43
0.0
10
-15
20
10.000000000000004
42
-0.41421356237309559
10
-5
20
20
10
319.32500000000005
20
19.999999999999979
42
-0.41421356237309442
10
329.32500000000005
20
10
10
329.32500000000005
20
-128.82499999999999
42
-0.41421356237309503
10
319.32499999999999
20
-138.82499999999999
10
-5.0000000000000044
20
-138.82499999999999
42
-0.41421356237309515
10
-15
20
-128.82499999999999
0
LWPOLYLINE
5
102
100
AcDbEntity
8
0
100
AcDbPolyline
90
8
70
1
43
0.0
10
2.5249999999999995
20
-27.337500000000002
42
-0.41421356237309243
10
3.5250000000000004
20
-26.337499999999999
10
15.52500000000002
20
-26.337499999999999
42
-0.4142135623730866
10
16.525000000000002
20
-27.337500000000002
10
16.524999999999999
20
-39.337499999999999
42
-0.41421356237309764
10
15.525000000000002
20
-40.337499999999991
10
3.5249999999999915
20
-40.337499999999991
42
-0.41421356237309276
10
2.5250000000000004
20
-39.337499999999999
0
LWPOLYLINE
5
103
100
AcDbEntity
8
0
100
AcDbPolyline
90
8
70
1
43
0.0
10
293.03750000000002
20
-108.3
42
-0.41421356237308982
10
294.03750000000002
20
-107.30000000000001
10
306.03750000000002
20
-107.29999999999998
42
-0.41421356237309503
10
307.03750000000008
20
-108.3
10
307.03750000000008
20
-120.30000000000001
42
-0.41421356237310542
10
306.03750000000002
20
-121.30000000000001
10
294.03750000000002
20
-121.30000000000004
42
-0.41421356237310025
10
293.03750000000002
20
-120.30000000000001
0
LWPOLYLINE
5
104
100
AcDbEntity
8
0
100
AcDbPolyline
90
8
70
1
43
0.0
10
35.862500000000004
20
-103.53749999999999
42
-0.41421356237309503
10
36.862499999999997
20
-102.53749999999999
10
48.862500000000004
20
-102.53749999999999
42
-0.41421356237309503
10
49.862499999999997
20
-103.53749999999999
10
49.862500000000011
20
-115.53750000000001
42
-0.41421356237309764
10
48.862500000000004
20
-116.53750000000001
10
36.862500000000011
20
-116.53750000000001
42
-0.41421356237310025
10
35.862499999999997
20
-115.53750000000001
0
LWPOLYLINE
5
105
100
AcDbEntity
8
0
100
AcDbPolyline
90
8
70
1
43
0.0
10
34.575000000000003
20
-26.337499999999995
42
-0.41421356237309115
10
35.575000000000003
20
-27.337500000000002
10
35.575000000000003
20
-39.337499999999999
42
-0.41421356237309764
10
34.575000000000003
20
-40.337499999999991
10
22.575000000000003
20
-40.337499999999991
42
-0.41421356237309503
10
21.574999999999996
20
-39.337499999999999
10
21.574999999999996
20
-27.337500000000006
42
-0.41421356237309115
10
22.574999999999999
20
-26.337499999999999
0
LWPOLYLINE
5
106
100
AcDbEntity
8
0
100
AcDbPolyline
90
8
70
1
43
0.0
10
250.17500000000007
20
-27.337500000000002
42
-0.41421356237307555
10
251.17500000000004
20
-26.337499999999999
10
263.17500000000001
20
-26.337499999999988
42
-0.41421356237309503
10
264.17500000000007
20
-27.337500000000002
10
264.17500000000007
20
-39.337499999999999
42
-0.41421356237310675
10
263.17500000000001
20
-40.337499999999991
10
251.17500000000004
20
-40.337500000000013
42
-0.41421356237307294
10
250.17500000000001
20
-39.337499999999999
0
LWPOLYLINE
5
107
100
AcDbEntity
8
0
100
AcDbPolyline
90
8
70
1
43
0.0
10
2.5249999999999999
20
-3.5250000000000004
42
-0.41421356237309492
10
3.5250000000000004
20
-2.5250000000000004
10
15.52500000000002
20
-2.5249999999999999
42
-0.41421356237308971
10
16.525000000000002
20
-3.5250000000000004
10
16.525000000000002
20
-15.525000000000002
42
-0.4142135623730937
10
15.525000000000002
20
-16.525000000000002
10
3.5249999999999915
20
-16.525000000000002
42
-0.41421356237309098
10
2.5250000000000004
20
-15.525000000000002
0
LWPOLYLINE
5
108
100
AcDbEntity
8
0
100
AcDbPolyline
90
8
70
1
43
0.0
10
297.80000000000001
20
-84.487500000000011
10
297.80000000000001
20
-96.487499999999997
42
0.41421356237310025
10
298.80000000000001
20
-97.487500000000011
10
310.80000000000001
20
-97.487499999999997
42
0.41421356237310542
10
311.80000000000001
20
-96.487499999999997
10
311.80000000000001
20
-84.487500000000011
42
0.41421356237307944
10
310.80000000000001
20
-83.487500000000011
10
298.80000000000001
20
-83.487500000000011
42
0.41421356237310542
0
LWPOLYLINE
5
109
100
AcDbEntity
8
0
100
AcDbPolyline
90
92
70
1
43
0.0
10
235.10000000000002
20
-45.52147459621554
42
-0.26794919243111331
10
234.60000000000002
20
-44.655449192431121
10
234.60000000000002
20
-41.337499999999991
42
-0.41421356237310542
10
235.60000000000002
20
-40.337499999999991
10
244.125
20
-40.337499999999991
42
0.41421356237310675
10
245.12500000000003
20
-39.337499999999999
10
245.12500000000003
20
-27.337500000000002
42
0.41421356237309503
10
244.125
20
-26.337499999999999
10
244.125
20
-16.525000000000002
42
0.41421356237310542
10
245.12500000000003
20
-15.525000000000002
10
245.12500000000003
20
-3.5250000000000004
42
0.41421356237309437
10
244.125
20
-2.5250000000000039
10
41.625000000000007
20
-2.5250000000000004
42
0.41421356237309537
10
40.625
20
-3.5250000000000004
10
40.625000000000007
20
-15.525000000000002
42
0.41421356237309892
10
41.625000000000014
20
-16.524999999999999
10
52.625000000000014
20
-16.525000000000006
42
-0.41421356237309503
10
53.625000000000007
20
-17.525000000000006
10
53.625000000000007
20
-25.337500000000006
42
-0.41421356237309503
10
52.625000000000014
20
-26.337499999999999
10
41.625000000000007
20
-26.337499999999999
42
0.41421356237309631
10
40.625
20
-27.337500000000006
10
40.625000000000007
20
-39.337499999999999
42
0.41421356237309892
10
41.625000000000014
20
-40.337499999999991
10
50.150000000000006
20
-40.337500000000006
42
-0.41421356237309503
10
51.150000000000006
20
-41.337499999999999
10
51.150000000000006
20
-45.38750000000001
42
0.41421356237309503
10
50.150000000000006
20
-46.38750000000001
10
50.150000000000006
20
-58.38750000000001
42
0.41421356237310025
10
51.15000000000002
20
-59.387500000000003
10
54.912500000000009
20
-59.387500000000003
42
-0.41421356237309503
10
55.912500000000009
20
-60.387500000000003
10
55.912500000000009
20
-64.4375
42
0.41421356237309503
10
54.912500000000009
20
-65.4375
10
54.912500000000016
20
-82.487500000000011
42
-0.41421356237309764
10
53.912500000000009
20
-83.487500000000011
10
46.38750000000001
20
-83.487500000000011
42
0.41421356237309764
10
45.387500000000003
20
-84.487500000000011
10
45.38750000000001
20
-96.487499999999997
42
0.41421356237310025
10
46.387500000000017
20
-97.487499999999997
10
63.161788112824375
20
-97.487500000000026
42
-0.4659138974621746
10
63.703555501815302
20
-98.132305570648327
10
63.580415390949724
20
-98.835990975287444
42
-0.044238237428316902
10
63.555288536565584
20
-98.929818800413102
42
-0.09012242067993903
10
63.443326223504215
20
-99.091510775441407
10
62.78030904464778
20
-99.754532595450542
10
62.780309044647922
20
-120.55158119803241
10
71.760894445962506
20
-120.55158119803241
10
71.760894445962492
20
-117.53749999999999
42
-0.41421356237309764
10
72.760894445962506
20
-116.53750000000001
10
176.26089444596238
20
-116.53750000000002
42
-0.41421356237310542
10
177.26089444596241
20
-117.53749999999999
10
177.26089444596241
20
-120.55158119803241
10
186.06089444596245
20
-120.55158119803241
10
186.06089444596245
20
-104.53749999999985
42
-0.41421356237310542
10
187.06089444596245
20
-103.53749999999988
10
196.78750000000002
20
-103.53749999999998
42
-0.41421356237308982
10
197.78750000000002
20
-104.53749999999998
10
197.78749999999999
20
-115.53750000000001
42
0.41421356237307944
10
198.78749999999999
20
-116.53750000000002
10
210.78749999999999
20
-116.53750000000001
42
0.41421356237310542
10
211.78750000000002
20
-115.53750000000001
10
211.78750000000002
20
-104.53749999999999
42
-0.41421356237310542
10
212.78750000000002
20
-103.53749999999999
10
225.36250000000001
20
-103.53750000000002
42
-0.41421356237310542
10
226.36250000000004
20
-104.53749999999999
10
226.36250000000001
20
-115.53750000000001
42
0.41421356237307944
10
227.36250000000001
20
-116.53750000000001
10
239.36250000000001
20
-116.53750000000001
42
0.41421356237310542
10
240.36250000000001
20
-115.53750000000001
10
240.36250000000001
20
-103.53749999999999
42
0.41421356237309503
10
239.36250000000001
20
-102.53749999999998
10
228.36250000000001
20
-102.53749999999999
42
-0.41421356237305862
10
227.36250000000001
20
-101.53750000000001
10
227.36250000000007
20
-98.487499999999983
42
-0.41421356237307422
10
228.36250000000004
20
-97.487499999999997
10
229.83750000000001
20
-97.487499999999997
42
0.41421356237310542
10
230.83750000000003
20
-96.487499999999997
10
230.83750000000003
20
-84.487500000000011
42
0.41421356237310025
10
229.83750000000001
20
-83.487500000000011
10
229.83750000000001
20
-79.4375
42
-0.41421356237310542
10
230.83750000000003
20
-78.4375
10
239.36250000000001
20
-78.4375
42
0.41421356237310542
10
240.36250000000001
20
-77.4375
10
240.36250000000001
20
-65.4375
42
0.41421356237309503
10
239.36250000000001
20
-64.4375
10
235.60000000000002
20
-64.4375
42
-0.41421356237310802
10
234.60000000000002
20
-63.437500000000007
10
234.59999999999997
20
-60.119550807568885
42
-0.26794919243111692
10
235.10000000000002
20
-59.253525403784444
42
0.26794919243111565
10
235.60000000000002
20
-58.38750000000001
10
235.60000000000002
20
-46.387500000000017
42
0.26794919243116055
0
LWPOLYLINE
5
110
100
AcDbEntity
8
0
100
AcDbPolyline
90
8
70
1
43
0.0
10
7.2875000000000068
20
-103.53749999999999
42
-0.41421356237309404
10
8.2874999999999979
20
-102.53749999999999
10
20.287499999999987
20
-102.53749999999999
42
-0.41421356237309764
10
21.287500000000001
20
-103.53749999999999
10
21.287500000000005
20
-115.53750000000001
42
-0.41421356237309764
10
20.287500000000001
20
-116.53750000000001
10
8.2874999999999943
20
-116.53750000000001
42
-0.41421356237309503
10
7.2874999999999996
20
-115.53750000000001
0
LWPOLYLINE
5
111
100
AcDbEntity
8
0
100
AcDbPolyline
90
8
70
1
43
0.0
10
240.65000000000003
20
-46.38750000000001
42
-0.4142135623730846
10
241.65000000000003
20
-45.38750000000001
10
253.65000000000003
20
-45.387499999999996
42
-0.41421356237309503
10
254.65000000000003
20
-46.38750000000001
10
254.65000000000003
20
-58.38750000000001
42
-0.41421356237310542
10
253.65000000000003
20
-59.387500000000003
10
241.65000000000003
20
-59.387500000000017
42
-0.41421356237307161
10
240.65000000000001
20
-58.38750000000001
0
LWPOLYLINE
5
112
100
AcDbEntity
8
0
100
AcDbPolyline
90
8
70
1
43
0.0
10
269.22500000000002
20
-3.5250000000000004
42
-0.41421356237307422
10
270.22500000000002
20
-2.5250000000000004
10
282.22500000000002
20
-2.5249999999999884
42
-0.41421356237309437
10
283.22500000000002
20
-3.5250000000000004
10
283.22500000000008
20
-15.525000000000002
42
-0.41421356237310542
10
282.22500000000002
20
-16.525000000000002
10
270.22500000000002
20
-16.525000000000013
42
-0.41421356237307294
10
269.22500000000002
20
-15.525000000000002
0
LWPOLYLINE
5
113
100
AcDbEntity
8
0
100
AcDbPolyline
90
8
70
1
43
0.0
10
250.17500000000001
20
-3.5250000000000004
42
-0.41421356237307422
10
251.17500000000004
20
-2.5250000000000004
10
263.17500000000001
20
-2.5249999999999884
42
-0.41421356237309437
10
264.17500000000007
20
-3.5250000000000004
10
264.17500000000007
20
-15.525000000000002
42
-0.41421356237310542
10
263.17500000000001
20
-16.525000000000002
10
251.17500000000004
20
-16.525000000000013
42
-0.41421356237307294
10
250.17500000000001
20
-15.525000000000002
0
LWPOLYLINE
5
114
100
AcDbEntity
8
0
100
AcDbPolyline
90
8
70
1
43
0.0
10
254.9375
20
-108.3
42
-0.41421356237308982
10
255.9375
20
-107.30000000000001
10
267.9375
20
-107.29999999999998
42
-0.41421356237309503
10
268.93750000000006
20
-108.3
10
268.93750000000006
20
-120.30000000000001
42
-0.41421356237310542
10
267.9375
20
-121.30000000000001
10
255.9375
20
-121.30000000000004
42
-0.41421356237310025
10
254.9375
20
-120.30000000000001
0
LWPOLYLINE
5
115
100
AcDbEntity
8
0
100
AcDbPolyline
90
8
70
1
43
0.0
10
297.80000000000001
20
-46.38750000000001
42
-0.41421356237310802
10
298.80000000000001
20
-45.38750000000001
10
310.80000000000001
20
-45.387499999999996
42
-0.41421356237307422
10
311.80000000000001
20
-46.38750000000001
10
311.80000000000001
20
-58.38750000000001
42
-0.41421356237310025
10
310.80000000000001
20
-59.387500000000003
10
298.80000000000001
20
-59.387500000000017
42
-0.41421356237309243
10
297.80000000000001
20
-58.38750000000001
0
LWPOLYLINE
5
116
100
AcDbEntity
8
0
100
AcDbPolyline
90
8
70
1
43
0.0
10
243.03125
20
-84.487500000000011
42
-0.41421356237310542
10
244.03125000000003
20
-83.487500000000011
10
256.03125
20
-83.487499999999969
42
-0.41421356237307944
10
257.03125000000006
20
-84.487500000000011
10
257.03125
20
-96.487499999999997
42
-0.41421356237310542
10
256.03125
20
-97.487499999999997
10
244.03125000000003
20
-97.487500000000026
42
-0.41421356237310025
10
243.03125
20
-96.487499999999997
0
LWPOLYLINE
5
117
100
AcDbEntity
8
0
100
AcDbPolyline
90
8
70
1
43
0.0
10
273.98750000000001
20
-89.25
42
-0.41421356237310542
10
274.98750000000001
20
-88.250000000000014
10
286.98750000000007
20
-88.249999999999972
42
-0.41421356237310025
10
287.98750000000007
20
-89.25
10
287.98750000000007
20
-101.25
42
-0.41421356237310542
10
286.98750000000007
20
-102.25
10
274.98750000000001
20
-102.25000000000003
42
-0.41421356237310025
10
273.98750000000001
20
-101.25
0
LWPOLYLINE
5
118
100
AcDbEntity
8
0
100
AcDbPolyline
90
8
70
1
43
0.0
10
35.862499999999997
20
-65.4375
42
-0.4142135623730937
10
36.862499999999997
20
-64.4375
10
48.862500000000004
20
-64.4375
42
-0.41421356237309503
10
49.862499999999997
20
-65.4375
10
49.862499999999997
20
-77.4375
42
-0.41421356237309503
10
48.862500000000004
20
-78.4375
10
36.862500000000011
20
-78.4375
42
-0.41421356237309631
10
35.862499999999997
20
-77.4375
0
LWPOLYLINE
5
119
100
AcDbEntity
8
0
100
AcDbPolyline
90
8
70
1
43
0.0
10
31.099999999999994
20
-46.38750000000001
10
31.099999999999994
20
-58.38750000000001
42
0.4142135623730937
10
32.100000000000009
20
-59.387500000000003
10
44.100000000000001
20
-59.387500000000003
42
0.41421356237309503
10
45.09999999999998
20
-58.38750000000001
10
45.099999999999994
20
-46.38750000000001
42
0.41421356237309503
10
44.100000000000001
20
-45.38750000000001
10
32.100000000000001
20
-45.38750000000001
42
0.41421356237309631
0
LWPOLYLINE
5
120
100
AcDbEntity
8
0
100
AcDbPolyline
90
8
70
1
43
0.0
10
269.22500000000008
20
-27.337500000000002
42
-0.41421356237307555
10
270.22500000000002
20
-26.337499999999999
10
282.22500000000002
20
-26.337499999999988
42
-0.41421356237309503
10
283.22500000000002
20
-27.337500000000002
10
283.22500000000002
20
-39.337499999999999
42
-0.41421356237310675
10
282.22500000000002
20
-40.337499999999991
10
270.22500000000002
20
-40.337500000000013
42
-0.41421356237307294
10
269.22500000000002
20
-39.337499999999999
0
LWPOLYLINE
5
121
100
AcDbEntity
8
0
100
AcDbPolyline
90
8
70
1
43
0.0
10
7.2875000000000023
20
-46.38750000000001
42
-0.41421356237309537
10
8.2874999999999979
20
-45.38750000000001
10
20.287499999999987
20
-45.387500000000003
42
-0.41421356237309892
10
21.287500000000001
20
-46.38750000000001
10
21.287500000000001
20
-58.38750000000001
42
-0.41421356237309631
10
20.287500000000001
20
-59.387500000000003
10
8.2874999999999943
20
-59.387500000000003
42
-0.4142135623730937
10
7.2874999999999996
20
-58.38750000000001
0
LWPOLYLINE
5
122
100
AcDbEntity
8
0
100
AcDbPolyline
90
8
70
1
43
0.0
10
9.6687500000000011
20
-65.4375
42
-0.4142135623730957
10
10.668749999999999
20
-64.4375
10
22.668749999999989
20
-64.4375
42
-0.41421356237309892
10
23.668750000000003
20
-65.4375
10
23.668750000000003
20
-77.4375
42
-0.41421356237309631
10
22.668750000000003
20
-78.4375
10
10.668749999999996
20
-78.4375
42
-0.41421356237309437
10
9.6687500000000011
20
-77.4375
0
LWPOLYLINE
5
123
100
AcDbEntity
8
0
100
AcDbPolyline
90
8
70
1
43
0.0
10
273.98750000000001
20
-108.3
10
273.98750000000001
20
-120.30000000000001
42
0.41421356237310025
10
274.98750000000001
20
-121.30000000000001
10
286.98750000000007
20
-121.30000000000001
42
0.41421356237310542
10
287.98750000000007
20
-120.30000000000001
10
287.98750000000007
20
-108.3
42
0.41421356237309503
10
286.98750000000007
20
-107.30000000000001
10
274.98750000000001
20
-107.30000000000001
42
0.41421356237308982
0
LWPOLYLINE
5
124
100
AcDbEntity
8
0
100
AcDbPolyline
90
8
70
1
43
0.0
10
277.46249999999998
20
-45.387499999999996
42
-0.41421356237307422
10
278.46250000000003
20
-46.38750000000001
10
278.46249999999998
20
-58.38750000000001
42
-0.41421356237310025
10
277.46249999999998
20
-59.387500000000003
10
265.46249999999998
20
-59.387500000000017
42
-0.41421356237309243
10
264.46249999999998
20
-58.38750000000001
10
264.46249999999998
20
-46.38750000000001
42
-0.41421356237310802
10
265.46249999999998
20
-45.38750000000001
0
LWPOLYLINE
5
125
100
AcDbEntity
8
0
100
AcDbPolyline
90
8
70
1
43
0.0
10
297.80000000000001
20
-65.4375
10
297.80000000000001
20
-77.4375
42
0.41421356237309243
10
298.80000000000001
20
-78.437500000000014
10
310.80000000000001
20
-78.4375
42
0.41421356237310025
10
311.80000000000001
20
-77.4375
10
311.80000000000001
20
-65.4375
42
0.41421356237307422
10
310.80000000000001
20
-64.4375
10
298.80000000000001
20
-64.4375
42
0.41421356237310802
0
CIRCLE
5
126
100
AcDbEntity
8
0
100
AcDbCircle
10
-8.0000000000000071
20
-129.82499999999999
30
0
40
1.6250000000000009
210
0
220
-0
230
1
0
CIRCLE
5
127
100
AcDbEntity
8
0
100
AcDbCircle
10
322.32500000000005
20
-59.662499999999994
30
0
40
1.6249999999999432
210
0
220
-0
230
1
0
CIRCLE
5
128
100
AcDbEntity
8
0
100
AcDbCircle
10
-8.0000000000000071
20
-59.662499999999994
30
0
40
1.6250000000000009
210
0
220
-0
230
1
0
CIRCLE
5
129
100
AcDbEntity
8
0
100
AcDbCircle
10
102.10833333333332
20
10.5
30
0
40
1.6250000000000142
210
0
220
-0
230
1
0
CIRCLE
5
130
100
AcDbEntity
8
0
100
AcDbCircle
10
322.32500000000005
20
-129.82499999999999
30
0
40
1.6249999999999432
210
0
220
-0
230
1
0
CIRCLE
5
131
100
AcDbEntity
8
0
100
AcDbCircle
10
102.10833333333332
20
-129.82499999999999
30
0
40
1.6250000000000142
210
0
220
-0
230
1
0
CIRCLE
5
132
100
AcDbEntity
8
0
100
AcDbCircle
10
322.32500000000005
20
10.5
30
0
40
1.6249999999999432
210
0
220
-0
230
1
0
CIRCLE
5
133
100
AcDbEntity
8
0
100
AcDbCircle
10
-8.0000000000000071
20
10.5
30
0
40
1.6250000000000009
210
0
220
-0
230
1
0
CIRCLE
5
134
100
AcDbEntity
8
0
100
AcDbCircle
10
212.21666666666664
20
10.5
30
0
40
1.6250000000000142
210
0
220
-0
230
1
0
CIRCLE
5
135
100
AcDbEntity
8
0
100
AcDbCircle
10
212.21666666666664
20
-129.82499999999999
30
0
40
1.6250000000000142
210
0
220
-0
230
1
0
LWPOLYLINE
5
136
100
AcDbEntity
8
0
100
AcDbPolyline
90
25
70
1
43
0.0
10
248.18380793723537
20
-61.941441562240854
10
248.18242678774715
20
-63.490425575103842
10
248.11658646243836
20
-81.10533258006781
42
0.41483458089570791
10
249.1149615576893
20
-82.109069006857354
10
249.63718731203954
20
-82.109913927137598
42
0.035099298395358913
10
249.77706667771443
20
-82.119745374284904
10
272.9237217680809
20
-82.119745374284904
10
279.52253844231075
20
-82.109069006857368
42
0.41483458089568703
10
280.52091353756174
20
-81.10533258006781
10
280.45507321225284
20
-63.490425575103842
10
280.45369206276467
20
-61.941441562240854
42
0.41395242870914872
10
279.45369246028309
20
-60.942333210526243
10
272.2386533517431
20
-60.942333210526265
42
0.41421356237309243
10
271.2386533517431
20
-61.942333210526257
10
271.2386533517431
20
-62.947844125612008
42
-0.41421356237313145
10
270.7386533517431
20
-63.447844125612008
10
270.5121251412894
20
-63.447844125612029
42
0.026727159214046201
10
270.31875000000002
20
-63.437500000000007
10
258.31875000000002
20
-63.437500000000007
42
0.026727159214104783
10
258.12537485871064
20
-63.447844125612008
10
257.89884664825695
20
-63.447844125612008
42
-0.41421356237313145
10
257.39884664825695
20
-62.947844125612008
10
257.39884664825695
20
-61.942333210526257
42
0.41421356237308721
10
256.39884664825695
20
-60.942333210526272
10
249.18380753971692
20
-60.942333210526243
42
0.41395242870914872
0
ENDSEC
0
SECTION
2
OBJECTS
0
DICTIONARY
5
C
100
AcDbDictionary
3
ACAD_GROUP
350
D
3
ACAD_MLINESTYLE
350
17
0
DICTIONARY
5
D
100
AcDbDictionary
0
DICTIONARY
5
1A
330
C
100
AcDbDictionary
0
DICTIONARY
5
17
100
AcDbDictionary
0
ENDSEC
0
EOF
