<?xml version="1.0" encoding="UTF-8" standalone="no"?>
<!-- Created with Inkscape (http://www.inkscape.org/) -->

<svg
   xmlns:dc="http://purl.org/dc/elements/1.1/"
   xmlns:cc="http://creativecommons.org/ns#"
   xmlns:rdf="http://www.w3.org/1999/02/22-rdf-syntax-ns#"
   xmlns:svg="http://www.w3.org/2000/svg"
   xmlns="http://www.w3.org/2000/svg"
   xmlns:sodipodi="http://sodipodi.sourceforge.net/DTD/sodipodi-0.dtd"
   xmlns:inkscape="http://www.inkscape.org/namespaces/inkscape"
   width="420mm"
   height="300mm"
   viewBox="0 0 420 300"
   version="1.1"
   id="svg8"
   inkscape:version="0.92.4 (5da689c313, 2019-01-14)"
   sodipodi:docname="L4_plate_full.svg">
  <defs
     id="defs2">
    <marker
       style="overflow:visible"
       refY="0.0"
       refX="0.0"
       orient="auto"
       id="DistanceX">
      <path
         id="path12"
         style="stroke:#000000; stroke-width:0.5"
         d="M 3,-3 L -3,3 M 0,-5 L  0,5" />
    </marker>
    <pattern
       y="0"
       x="0"
       width="8"
       patternUnits="userSpaceOnUse"
       id="Hatch"
       height="8">
      <path
         id="path15"
         stroke-width="0.25"
         stroke="#000000"
         linecap="square"
         d="M8 4 l-4,4" />
      <path
         id="path17"
         stroke-width="0.25"
         stroke="#000000"
         linecap="square"
         d="M6 2 l-4,4" />
      <path
         id="path19"
         stroke-width="0.25"
         stroke="#000000"
         linecap="square"
         d="M4 0 l-4,4" />
    </pattern>
    <symbol
       id="*MODEL_SPACE" />
    <symbol
       id="*PAPER_SPACE" />
    <marker
       style="overflow:visible"
       refY="0.0"
       refX="0.0"
       orient="auto"
       id="DistanceX-4">
      <path
         id="path57"
         style="stroke:#000000; stroke-width:0.5"
         d="M 3,-3 L -3,3 M 0,-5 L  0,5" />
    </marker>
    <pattern
       y="0"
       x="0"
       width="8"
       patternUnits="userSpaceOnUse"
       id="Hatch-8"
       height="8">
      <path
         id="path60"
         stroke-width="0.25"
         stroke="#000000"
         linecap="square"
         d="M8 4 l-4,4" />
      <path
         id="path62"
         stroke-width="0.25"
         stroke="#000000"
         linecap="square"
         d="M6 2 l-4,4" />
      <path
         id="path64"
         stroke-width="0.25"
         stroke="#000000"
         linecap="square"
         d="M4 0 l-4,4" />
    </pattern>
    <symbol
       id="*MODEL_SPACE-8" />
    <symbol
       id="*PAPER_SPACE-1" />
    <marker
       style="overflow:visible"
       refY="0.0"
       refX="0.0"
       orient="auto"
       id="DistanceX-2">
      <path
         id="path102"
         style="stroke:#000000; stroke-width:0.5"
         d="M 3,-3 L -3,3 M 0,-5 L  0,5" />
    </marker>
    <pattern
       y="0"
       x="0"
       width="8"
       patternUnits="userSpaceOnUse"
       id="Hatch-5"
       height="8">
      <path
         id="path105"
         stroke-width="0.25"
         stroke="#000000"
         linecap="square"
         d="M8 4 l-4,4" />
      <path
         id="path107"
         stroke-width="0.25"
         stroke="#000000"
         linecap="square"
         d="M6 2 l-4,4" />
      <path
         id="path109"
         stroke-width="0.25"
         stroke="#000000"
         linecap="square"
         d="M4 0 l-4,4" />
    </pattern>
    <symbol
       id="*MODEL_SPACE-84" />
    <symbol
       id="*PAPER_SPACE-4" />
    <marker
       style="overflow:visible"
       refY="0.0"
       refX="0.0"
       orient="auto"
       id="DistanceX-6">
      <path
         id="path147"
         style="stroke:#000000; stroke-width:0.5"
         d="M 3,-3 L -3,3 M 0,-5 L  0,5" />
    </marker>
    <pattern
       y="0"
       x="0"
       width="8"
       patternUnits="userSpaceOnUse"
       id="Hatch-6"
       height="8">
      <path
         id="path150"
         stroke-width="0.25"
         stroke="#000000"
         linecap="square"
         d="M8 4 l-4,4" />
      <path
         id="path152"
         stroke-width="0.25"
         stroke="#000000"
         linecap="square"
         d="M6 2 l-4,4" />
      <path
         id="path154"
         stroke-width="0.25"
         stroke="#000000"
         linecap="square"
         d="M4 0 l-4,4" />
    </pattern>
    <symbol
       id="*MODEL_SPACE-0" />
    <symbol
       id="*PAPER_SPACE-9" />
    <marker
       style="overflow:visible"
       refY="0.0"
       refX="0.0"
       orient="auto"
       id="DistanceX-3">
      <path
         id="path244"
         style="stroke:#000000; stroke-width:0.5"
         d="M 3,-3 L -3,3 M 0,-5 L  0,5" />
    </marker>
    <pattern
       y="0"
       x="0"
       width="8"
       patternUnits="userSpaceOnUse"
       id="Hatch-1"
       height="8">
      <path
         id="path247"
         stroke-width="0.25"
         stroke="#000000"
         linecap="square"
         d="M8 4 l-4,4" />
      <path
         id="path249"
         stroke-width="0.25"
         stroke="#000000"
         linecap="square"
         d="M6 2 l-4,4" />
      <path
         id="path251"
         stroke-width="0.25"
         stroke="#000000"
         linecap="square"
         d="M4 0 l-4,4" />
    </pattern>
    <symbol
       id="*MODEL_SPACE-5" />
    <symbol
       id="*PAPER_SPACE-2" />
    <marker
       style="overflow:visible"
       refY="0.0"
       refX="0.0"
       orient="auto"
       id="DistanceX-28">
      <path
         id="path511"
         style="stroke:#000000; stroke-width:0.5"
         d="M 3,-3 L -3,3 M 0,-5 L  0,5" />
    </marker>
    <pattern
       y="0"
       x="0"
       width="8"
       patternUnits="userSpaceOnUse"
       id="Hatch-2"
       height="8">
      <path
         id="path514"
         stroke-width="0.25"
         stroke="#000000"
         linecap="square"
         d="M8 4 l-4,4" />
      <path
         id="path516"
         stroke-width="0.25"
         stroke="#000000"
         linecap="square"
         d="M6 2 l-4,4" />
      <path
         id="path518"
         stroke-width="0.25"
         stroke="#000000"
         linecap="square"
         d="M4 0 l-4,4" />
    </pattern>
    <symbol
       id="*MODEL_SPACE-09" />
    <symbol
       id="*PAPER_SPACE-94" />
    <marker
       style="overflow:visible"
       refY="0.0"
       refX="0.0"
       orient="auto"
       id="DistanceX-8">
      <path
         id="path736"
         style="stroke:#000000; stroke-width:0.5"
         d="M 3,-3 L -3,3 M 0,-5 L  0,5" />
    </marker>
    <pattern
       y="0"
       x="0"
       width="8"
       patternUnits="userSpaceOnUse"
       id="Hatch-3"
       height="8">
      <path
         id="path739"
         stroke-width="0.25"
         stroke="#000000"
         linecap="square"
         d="M8 4 l-4,4" />
      <path
         id="path741"
         stroke-width="0.25"
         stroke="#000000"
         linecap="square"
         d="M6 2 l-4,4" />
      <path
         id="path743"
         stroke-width="0.25"
         stroke="#000000"
         linecap="square"
         d="M4 0 l-4,4" />
    </pattern>
    <symbol
       id="*MODEL_SPACE-2" />
    <symbol
       id="*PAPER_SPACE-6" />
    <marker
       style="overflow:visible"
       refY="0.0"
       refX="0.0"
       orient="auto"
       id="DistanceX-5">
      <path
         id="path856"
         style="stroke:#000000; stroke-width:0.5"
         d="M 3,-3 L -3,3 M 0,-5 L  0,5" />
    </marker>
    <pattern
       y="0"
       x="0"
       width="8"
       patternUnits="userSpaceOnUse"
       id="Hatch-27"
       height="8">
      <path
         id="path859"
         stroke-width="0.25"
         stroke="#000000"
         linecap="square"
         d="M8 4 l-4,4" />
      <path
         id="path861"
         stroke-width="0.25"
         stroke="#000000"
         linecap="square"
         d="M6 2 l-4,4" />
      <path
         id="path863"
         stroke-width="0.25"
         stroke="#000000"
         linecap="square"
         d="M4 0 l-4,4" />
    </pattern>
    <symbol
       id="*MODEL_SPACE-3" />
    <symbol
       id="*PAPER_SPACE-40" />
    <marker
       style="overflow:visible"
       refY="0.0"
       refX="0.0"
       orient="auto"
       id="DistanceX-87">
      <path
         id="path943"
         style="stroke:#000000; stroke-width:0.5"
         d="M 3,-3 L -3,3 M 0,-5 L  0,5" />
    </marker>
    <pattern
       y="0"
       x="0"
       width="8"
       patternUnits="userSpaceOnUse"
       id="Hatch-7"
       height="8">
      <path
         id="path946"
         stroke-width="0.25"
         stroke="#000000"
         linecap="square"
         d="M8 4 l-4,4" />
      <path
         id="path948"
         stroke-width="0.25"
         stroke="#000000"
         linecap="square"
         d="M6 2 l-4,4" />
      <path
         id="path950"
         stroke-width="0.25"
         stroke="#000000"
         linecap="square"
         d="M4 0 l-4,4" />
    </pattern>
    <symbol
       id="*MODEL_SPACE-7" />
    <symbol
       id="*PAPER_SPACE-5" />
    <marker
       style="overflow:visible"
       refY="0.0"
       refX="0.0"
       orient="auto"
       id="DistanceX-0">
      <path
         id="path1129"
         style="stroke:#000000; stroke-width:0.5"
         d="M 3,-3 L -3,3 M 0,-5 L  0,5" />
    </marker>
    <pattern
       y="0"
       x="0"
       width="8"
       patternUnits="userSpaceOnUse"
       id="Hatch-28"
       height="8">
      <path
         id="path1132"
         stroke-width="0.25"
         stroke="#000000"
         linecap="square"
         d="M8 4 l-4,4" />
      <path
         id="path1134"
         stroke-width="0.25"
         stroke="#000000"
         linecap="square"
         d="M6 2 l-4,4" />
      <path
         id="path1136"
         stroke-width="0.25"
         stroke="#000000"
         linecap="square"
         d="M4 0 l-4,4" />
    </pattern>
    <symbol
       id="*MODEL_SPACE-08" />
    <symbol
       id="*PAPER_SPACE-13" />
    <marker
       style="overflow:visible"
       refY="0.0"
       refX="0.0"
       orient="auto"
       id="DistanceX-86">
      <path
         id="path7513"
         style="stroke:#000000; stroke-width:0.5"
         d="M 3,-3 L -3,3 M 0,-5 L  0,5" />
    </marker>
    <pattern
       y="0"
       x="0"
       width="8"
       patternUnits="userSpaceOnUse"
       id="Hatch-4"
       height="8">
      <path
         id="path7516"
         stroke-width="0.25"
         stroke="#000000"
         linecap="square"
         d="M8 4 l-4,4" />
      <path
         id="path7518"
         stroke-width="0.25"
         stroke="#000000"
         linecap="square"
         d="M6 2 l-4,4" />
      <path
         id="path7520"
         stroke-width="0.25"
         stroke="#000000"
         linecap="square"
         d="M4 0 l-4,4" />
    </pattern>
    <symbol
       id="*MODEL_SPACE-28" />
    <symbol
       id="*PAPER_SPACE-0" />
    <marker
       style="overflow:visible"
       refY="0.0"
       refX="0.0"
       orient="auto"
       id="DistanceX-1">
      <path
         id="path7723"
         style="stroke:#000000; stroke-width:0.5"
         d="M 3,-3 L -3,3 M 0,-5 L  0,5" />
    </marker>
    <pattern
       y="0"
       x="0"
       width="8"
       patternUnits="userSpaceOnUse"
       id="Hatch-54"
       height="8">
      <path
         id="path7726"
         stroke-width="0.25"
         stroke="#000000"
         linecap="square"
         d="M8 4 l-4,4" />
      <path
         id="path7728"
         stroke-width="0.25"
         stroke="#000000"
         linecap="square"
         d="M6 2 l-4,4" />
      <path
         id="path7730"
         stroke-width="0.25"
         stroke="#000000"
         linecap="square"
         d="M4 0 l-4,4" />
    </pattern>
    <symbol
       id="*MODEL_SPACE-37" />
    <symbol
       id="*PAPER_SPACE-05" />
    <marker
       style="overflow:visible"
       refY="0.0"
       refX="0.0"
       orient="auto"
       id="DistanceX-68">
      <path
         id="path7930"
         style="stroke:#000000; stroke-width:0.5"
         d="M 3,-3 L -3,3 M 0,-5 L  0,5" />
    </marker>
    <pattern
       y="0"
       x="0"
       width="8"
       patternUnits="userSpaceOnUse"
       id="Hatch-19"
       height="8">
      <path
         id="path7933"
         stroke-width="0.25"
         stroke="#000000"
         linecap="square"
         d="M8 4 l-4,4" />
      <path
         id="path7935"
         stroke-width="0.25"
         stroke="#000000"
         linecap="square"
         d="M6 2 l-4,4" />
      <path
         id="path7937"
         stroke-width="0.25"
         stroke="#000000"
         linecap="square"
         d="M4 0 l-4,4" />
    </pattern>
    <symbol
       id="*MODEL_SPACE-89" />
    <symbol
       id="*PAPER_SPACE-99" />
  </defs>
  <sodipodi:namedview
     id="base"
     pagecolor="#ffffff"
     bordercolor="#666666"
     borderopacity="1.0"
     inkscape:pageopacity="0.0"
     inkscape:pageshadow="2"
     inkscape:zoom="0.7"
     inkscape:cx="483.01475"
     inkscape:cy="494.5946"
     inkscape:document-units="mm"
     inkscape:current-layer="layer1"
     showgrid="false"
     inkscape:window-width="2560"
     inkscape:window-height="1377"
     inkscape:window-x="-8"
     inkscape:window-y="-8"
     inkscape:window-maximized="1" />
  <metadata
     id="metadata5">
    <rdf:RDF>
      <cc:Work
         rdf:about="">
        <dc:format>image/svg+xml</dc:format>
        <dc:type
           rdf:resource="http://purl.org/dc/dcmitype/StillImage" />
        <dc:title></dc:title>
      </cc:Work>
    </rdf:RDF>
  </metadata>
  <g
     inkscape:label="Layer 1"
     inkscape:groupmode="layer"
     id="layer1"
     transform="translate(0,3)">
    <g
       id="g8114"
       inkscape:label="0"
       transform="matrix(0.26458333,0,0,0.26458333,52.837504,-209.41249)">
      <path
         id="path7944"
         style="fill:none;stroke:#000000"
         d="m 1032.6466,1222.063 h -49.29321 a 1.889764,1.889764 0 0 1 -1.50735,-1.8507 v -3.8003 a 3.779528,3.779528 0 0 0 -3.77953,-3.7796 h -27.26944 a 3.779528,3.779528 0 0 0 -3.77953,3.7762 l -0.005,5.8544 -0.002,0.5902 a 3.779528,3.779528 0 0 0 -1.23651,1.6902 l -0.98558,0.9855 v 45.9806 l 0.98503,0.985 a 3.779528,3.779528 0 0 0 0.0418,0.1092 3.779528,3.779528 0 0 0 1.00367,1.4957 l -0.0746,19.9636 h -33.42111 a 3.779528,3.779528 0 0 0 -3.77953,3.7795 v 45.3544 a 3.779528,3.779528 0 0 0 3.77953,3.7795 h 45.35432 a 3.779528,3.779528 0 0 0 3.77953,-3.7795 v -45.3544 h 37.08662 v 45.3544 a 3.779528,3.779528 0 0 0 3.77949,3.7795 h 45.3544 a 3.779528,3.779528 0 0 0 3.7795,-3.7795 v -50.5432 l 13.0064,-0.021 a 3.779528,3.779528 0 0 0 3.7734,-3.7936 l -0.055,-14.6658 a 3.779528,3.779528 0 0 0 1.1613,-1.794 l 0.8699,-0.8698 v -45.9806 l -0.987,-0.987 a 3.779528,3.779528 0 0 0 -1.236,-1.6887 v -0.5902 l -0.01,-5.8544 a 3.779528,3.779528 0 0 0 -3.7796,-3.7762 h -27.2694 a 3.779528,3.779528 0 0 0 -3.7795,3.7796 v 3.8003 a 1.889764,1.889764 0 0 1 -1.5074,1.8507 z"
         inkscape:connector-curvature="0" />
      <path
         id="path7946"
         style="fill:none;stroke:#000000"
         d="m 800.45669,1559.1969 v -45.3544 a 3.779528,3.779528 0 0 0 -3.77953,-3.7795 h -45.35432 a 3.779528,3.779528 0 0 0 -3.77953,3.7795 v 45.3544 a 3.779528,3.779528 0 0 0 3.77953,3.7795 h 45.35432 a 3.779528,3.779528 0 0 0 3.77953,-3.7795 z"
         inkscape:connector-curvature="0" />
      <path
         id="path7948"
         style="fill:none;stroke:#000000"
         d="m 855.54331,1513.8425 v 45.3544 a 3.779528,3.779528 0 0 0 3.77953,3.7795 h 45.35432 a 3.779528,3.779528 0 0 0 3.77953,-3.7795 v -45.3544 a 3.779528,3.779528 0 0 0 -3.77953,-3.7795 h -45.35432 a 3.779528,3.779528 0 0 0 -3.77953,3.7795 z"
         inkscape:connector-curvature="0" />
      <path
         id="path7950"
         style="fill:none;stroke:#000000"
         d="m 823.32284,1490.9764 h 45.35432 a 3.779528,3.779528 0 0 0 3.77953,-3.7795 v -45.3544 a 3.779528,3.779528 0 0 0 -3.77953,-3.7795 h -45.35432 a 3.779528,3.779528 0 0 0 -3.77953,3.7795 v 45.3544 a 3.779528,3.779528 0 0 0 3.77953,3.7795 z"
         inkscape:connector-curvature="0" />
      <path
         id="path7952"
         style="fill:none;stroke:#000000"
         d="m 859.32284,1418.9764 h 45.35432 a 3.779528,3.779528 0 0 0 3.77953,-3.7795 v -45.3544 a 3.779528,3.779528 0 0 0 -3.77953,-3.7795 h -45.35432 a 3.779528,3.779528 0 0 0 -3.77953,3.7795 v 45.3544 a 3.779528,3.779528 0 0 0 3.77953,3.7795 z"
         inkscape:connector-curvature="0" />
      <path
         id="path7954"
         style="fill:none;stroke:#000000"
         d="m 890.45669,1343.1969 a 3.779528,3.779528 0 0 1 -3.77953,3.7795 h -45.35432 a 3.779528,3.779528 0 0 1 -3.77953,-3.7795 v -45.3544 a 3.779528,3.779528 0 0 1 3.77953,-3.7795 h 45.35432 a 3.779528,3.779528 0 0 1 3.77953,3.7795 z"
         inkscape:connector-curvature="0" />
      <path
         id="path7956"
         style="fill:none;stroke:#000000"
         d="m 877.32284,1274.9764 h 45.35432 a 3.779528,3.779528 0 0 0 3.77953,-3.7795 v -45.3544 a 3.779528,3.779528 0 0 0 -3.77953,-3.7795 h -45.35432 a 3.779528,3.779528 0 0 0 -3.77953,3.7795 v 45.3544 a 3.779528,3.779528 0 0 0 3.77953,3.7795 z"
         inkscape:connector-curvature="0" />
      <path
         id="path7958"
         style="fill:none;stroke:#000000"
         d="m 877.32284,1184.9764 h 45.35432 a 3.779528,3.779528 0 0 0 3.77953,-3.7795 v -45.3544 a 3.779528,3.779528 0 0 0 -3.77953,-3.7795 h -45.35432 a 3.779528,3.779528 0 0 0 -3.77953,3.7795 v 45.3544 a 3.779528,3.779528 0 0 0 3.77953,3.7795 z"
         inkscape:connector-curvature="0" />
      <path
         id="path7960"
         style="fill:none;stroke:#000000"
         d="m 850.67716,1132.063 a 3.779528,3.779528 0 0 1 3.77953,3.7795 v 45.3544 a 3.779528,3.779528 0 0 1 -3.77953,3.7795 h -45.35432 a 3.779528,3.779528 0 0 1 -3.77953,-3.7795 v -45.3544 a 3.779528,3.779528 0 0 1 3.77953,-3.7795 z"
         inkscape:connector-curvature="0" />
      <path
         id="path7962"
         style="fill:none;stroke:#000000"
         d="m 742.67716,1132.063 a 3.779528,3.779528 0 0 1 3.77953,3.7795 v 45.3544 a 3.779528,3.779528 0 0 1 -3.77953,3.7795 h -45.35432 a 3.779528,3.779528 0 0 1 -3.77953,-3.7795 v -45.3544 a 3.779528,3.779528 0 0 1 3.77953,-3.7795 z"
         inkscape:connector-curvature="0" />
      <path
         id="path7964"
         style="fill:none;stroke:#000000"
         d="m 670.67716,1132.063 a 3.779528,3.779528 0 0 1 3.77953,3.7795 v 45.3544 a 3.779528,3.779528 0 0 1 -3.77953,3.7795 h -45.35432 a 3.779528,3.779528 0 0 1 -3.77953,-3.7795 v -45.3544 a 3.779528,3.779528 0 0 1 3.77953,-3.7795 z"
         inkscape:connector-curvature="0" />
      <path
         id="path7966"
         style="fill:none;stroke:#000000"
         d="m 598.67716,1132.063 a 3.779528,3.779528 0 0 1 3.77953,3.7795 v 45.3544 a 3.779528,3.779528 0 0 1 -3.77953,3.7795 h -45.35432 a 3.779528,3.779528 0 0 1 -3.77953,-3.7795 v -45.3544 a 3.779528,3.779528 0 0 1 3.77953,-3.7795 z"
         inkscape:connector-curvature="0" />
      <path
         id="path7968"
         style="fill:none;stroke:#000000"
         d="m 526.67716,1132.063 a 3.779528,3.779528 0 0 1 3.77953,3.7795 v 45.3544 a 3.779528,3.779528 0 0 1 -3.77953,3.7795 h -45.35433 a 3.779528,3.779528 0 0 1 -3.77952,-3.7795 v -45.3544 a 3.779528,3.779528 0 0 1 3.77952,-3.7795 z"
         inkscape:connector-curvature="0" />
      <path
         id="path7970"
         style="fill:none;stroke:#000000"
         d="m 418.67716,1132.063 a 3.779528,3.779528 0 0 1 3.77953,3.7795 v 45.3544 a 3.779528,3.779528 0 0 1 -3.77953,3.7795 h -45.35433 a 3.779528,3.779528 0 0 1 -3.77952,-3.7795 v -45.3544 a 3.779528,3.779528 0 0 1 3.77952,-3.7795 z"
         inkscape:connector-curvature="0" />
      <path
         id="path7972"
         style="fill:none;stroke:#000000"
         d="m 346.67716,1132.063 a 3.779528,3.779528 0 0 1 3.77953,3.7795 v 45.3544 a 3.779528,3.779528 0 0 1 -3.77953,3.7795 h -45.35433 a 3.779528,3.779528 0 0 1 -3.77952,-3.7795 v -45.3544 a 3.779528,3.779528 0 0 1 3.77952,-3.7795 z"
         inkscape:connector-curvature="0" />
      <path
         id="path7974"
         style="fill:none;stroke:#000000"
         d="m 274.67716,1132.063 a 3.779528,3.779528 0 0 1 3.77953,3.7795 v 45.3544 a 3.779528,3.779528 0 0 1 -3.77953,3.7795 h -45.35433 a 3.779528,3.779528 0 0 1 -3.77952,-3.7795 v -45.3544 a 3.779528,3.779528 0 0 1 3.77952,-3.7795 z"
         inkscape:connector-curvature="0" />
      <path
         id="path7976"
         style="fill:none;stroke:#000000"
         d="m 202.67716,1132.063 a 3.779528,3.779528 0 0 1 3.77953,3.7795 v 45.3544 a 3.779528,3.779528 0 0 1 -3.77953,3.7795 h -45.35433 a 3.779528,3.779528 0 0 1 -3.77952,-3.7795 v -45.3544 a 3.779528,3.779528 0 0 1 3.77952,-3.7795 z"
         inkscape:connector-curvature="0" />
      <path
         id="path7978"
         style="fill:none;stroke:#000000"
         d="m 202.67716,1222.063 h -45.35433 a 3.779528,3.779528 0 0 0 -3.77952,3.7795 v 45.3544 a 3.779528,3.779528 0 0 0 3.77952,3.7795 h 45.35433 a 3.779528,3.779528 0 0 0 3.77953,-3.7795 v -45.3544 a 3.779528,3.779528 0 0 0 -3.77953,-3.7795 z"
         inkscape:connector-curvature="0" />
      <path
         id="path7980"
         style="fill:none;stroke:#000000"
         d="m 238.67716,1294.063 h -45.35433 a 3.779528,3.779528 0 0 0 -3.77952,3.7795 v 45.3544 a 3.779528,3.779528 0 0 0 3.77952,3.7795 h 45.35433 a 3.779528,3.779528 0 0 0 3.77953,-3.7795 v -45.3544 a 3.779528,3.779528 0 0 0 -3.77953,-3.7795 z"
         inkscape:connector-curvature="0" />
      <path
         id="path7982"
         style="fill:none;stroke:#000000"
         d="m 256.67716,1366.063 h -45.35433 a 3.779528,3.779528 0 0 0 -3.77952,3.7795 v 45.3544 a 3.779528,3.779528 0 0 0 3.77952,3.7795 h 45.35433 a 3.779528,3.779528 0 0 0 3.77953,-3.7795 v -45.3544 a 3.779528,3.779528 0 0 0 -3.77953,-3.7795 z"
         inkscape:connector-curvature="0" />
      <path
         id="path7984"
         style="fill:none;stroke:#000000"
         d="m 220.67716,1438.063 h -45.35433 a 3.779528,3.779528 0 0 0 -3.77952,3.7795 v 45.3544 a 3.779528,3.779528 0 0 0 3.77952,3.7795 h 45.35433 a 3.779528,3.779528 0 0 0 3.77953,-3.7795 v -45.3544 a 3.779528,3.779528 0 0 0 -3.77953,-3.7795 z"
         inkscape:connector-curvature="0" />
      <path
         id="path7986"
         style="fill:none;stroke:#000000"
         d="m 620.45669,1415.1969 a 3.779528,3.779528 0 0 1 -3.77953,3.7795 h -45.35432 a 3.779528,3.779528 0 0 1 -3.77953,-3.7795 v -45.3544 a 3.779528,3.779528 0 0 1 3.77953,-3.7795 h 45.35432 a 3.779528,3.779528 0 0 1 3.77953,3.7795 z"
         inkscape:connector-curvature="0" />
      <path
         id="path7988"
         style="fill:none;stroke:#000000"
         d="m 350.45669,1271.1969 a 3.779528,3.779528 0 0 1 -3.77953,3.7795 h -45.35433 a 3.779528,3.779528 0 0 1 -3.77952,-3.7795 v -45.3544 a 3.779528,3.779528 0 0 1 3.77952,-3.7795 h 45.35433 a 3.779528,3.779528 0 0 1 3.77953,3.7795 z"
         inkscape:connector-curvature="0" />
      <path
         id="path7990"
         style="fill:none;stroke:#000000"
         d="m 355.32283,1418.9764 a 3.779528,3.779528 0 0 1 -3.77952,-3.7795 v -45.3544 a 3.779528,3.779528 0 0 1 3.77952,-3.7795 h 45.35433 a 3.779528,3.779528 0 0 1 3.77953,3.7795 v 45.3544 a 3.779528,3.779528 0 0 1 -3.77953,3.7795 z"
         inkscape:connector-curvature="0" />
      <path
         id="path7992"
         style="fill:none;stroke:#000000"
         d="m 674.45669,1343.1969 a 3.779528,3.779528 0 0 1 -3.77953,3.7795 h -45.35432 a 3.779528,3.779528 0 0 1 -3.77953,-3.7795 v -45.3544 a 3.779528,3.779528 0 0 1 3.77953,-3.7795 h 45.35432 a 3.779528,3.779528 0 0 1 3.77953,3.7795 z"
         inkscape:connector-curvature="0" />
      <path
         id="path7994"
         style="fill:none;stroke:#000000"
         d="m 422.45669,1271.1969 a 3.779528,3.779528 0 0 1 -3.77953,3.7795 h -45.35433 a 3.779528,3.779528 0 0 1 -3.77952,-3.7795 v -45.3544 a 3.779528,3.779528 0 0 1 3.77952,-3.7795 h 45.35433 a 3.779528,3.779528 0 0 1 3.77953,3.7795 z"
         inkscape:connector-curvature="0" />
      <path
         id="path7996"
         style="fill:none;stroke:#000000"
         d="m 602.45669,1343.1969 a 3.779528,3.779528 0 0 1 -3.77953,3.7795 h -45.35432 a 3.779528,3.779528 0 0 1 -3.77953,-3.7795 v -45.3544 a 3.779528,3.779528 0 0 1 3.77953,-3.7795 h 45.35432 a 3.779528,3.779528 0 0 1 3.77953,3.7795 z"
         inkscape:connector-curvature="0" />
      <path
         id="path7998"
         style="fill:none;stroke:#000000"
         d="m 638.45669,1271.1969 a 3.779528,3.779528 0 0 1 -3.77953,3.7795 h -45.35432 a 3.779528,3.779528 0 0 1 -3.77953,-3.7795 v -45.3544 a 3.779528,3.779528 0 0 1 3.77953,-3.7795 h 45.35432 a 3.779528,3.779528 0 0 1 3.77953,3.7795 z"
         inkscape:connector-curvature="0" />
      <path
         id="path8000"
         style="fill:none;stroke:#000000"
         d="m 386.45669,1343.1969 a 3.779528,3.779528 0 0 1 -3.77953,3.7795 h -45.35433 a 3.779528,3.779528 0 0 1 -3.77952,-3.7795 v -45.3544 a 3.779528,3.779528 0 0 1 3.77952,-3.7795 h 45.35433 a 3.779528,3.779528 0 0 1 3.77953,3.7795 z"
         inkscape:connector-curvature="0" />
      <path
         id="path8002"
         style="fill:none;stroke:#000000"
         d="m 783.54331,1369.8425 a 3.779528,3.779528 0 0 1 3.77953,-3.7795 h 45.35432 a 3.779528,3.779528 0 0 1 3.77953,3.7795 v 45.3544 a 3.779528,3.779528 0 0 1 -3.77953,3.7795 h -45.35432 a 3.779528,3.779528 0 0 1 -3.77953,-3.7795 z"
         inkscape:connector-curvature="0" />
      <path
         id="path8004"
         style="fill:none;stroke:#000000"
         d="m 656.45669,1487.1969 a 3.779528,3.779528 0 0 1 -3.77953,3.7795 h -45.35432 a 3.779528,3.779528 0 0 1 -3.77953,-3.7795 v -45.3544 a 3.779528,3.779528 0 0 1 3.77953,-3.7795 h 45.35432 a 3.779528,3.779528 0 0 1 3.77953,3.7795 z"
         inkscape:connector-curvature="0" />
      <path
         id="path8006"
         style="fill:none;stroke:#000000"
         d="m 711.54331,1369.8425 a 3.779528,3.779528 0 0 1 3.77953,-3.7795 h 45.35432 a 3.779528,3.779528 0 0 1 3.77953,3.7795 v 45.3544 a 3.779528,3.779528 0 0 1 -3.77953,3.7795 h -45.35432 a 3.779528,3.779528 0 0 1 -3.77953,-3.7795 z"
         inkscape:connector-curvature="0" />
      <path
         id="path8008"
         style="fill:none;stroke:#000000"
         d="m 710.45669,1271.1969 a 3.779528,3.779528 0 0 1 -3.77953,3.7795 h -45.35432 a 3.779528,3.779528 0 0 1 -3.77953,-3.7795 v -45.3544 a 3.779528,3.779528 0 0 1 3.77953,-3.7795 h 45.35432 a 3.779528,3.779528 0 0 1 3.77953,3.7795 z"
         inkscape:connector-curvature="0" />
      <path
         id="path8010"
         style="fill:none;stroke:#000000"
         d="m 494.45669,1271.1969 a 3.779528,3.779528 0 0 1 -3.77953,3.7795 h -45.35433 a 3.779528,3.779528 0 0 1 -3.77952,-3.7795 v -45.3544 a 3.779528,3.779528 0 0 1 3.77952,-3.7795 h 45.35433 a 3.779528,3.779528 0 0 1 3.77953,3.7795 z"
         inkscape:connector-curvature="0" />
      <path
         id="path8012"
         style="fill:none;stroke:#000000"
         d="m 458.45669,1343.1969 a 3.779528,3.779528 0 0 1 -3.77953,3.7795 h -45.35433 a 3.779528,3.779528 0 0 1 -3.77952,-3.7795 v -45.3544 a 3.779528,3.779528 0 0 1 3.77952,-3.7795 h 45.35433 a 3.779528,3.779528 0 0 1 3.77953,3.7795 z"
         inkscape:connector-curvature="0" />
      <path
         id="path8014"
         style="fill:none;stroke:#000000"
         d="m 697.32284,1346.9764 a 3.779528,3.779528 0 0 1 -3.77953,-3.7795 v -45.3544 a 3.779528,3.779528 0 0 1 3.77953,-3.7795 h 45.35432 a 3.779528,3.779528 0 0 1 3.77953,3.7795 v 45.3544 a 3.779528,3.779528 0 0 1 -3.77953,3.7795 z"
         inkscape:connector-curvature="0" />
      <path
         id="path8016"
         style="fill:none;stroke:#000000"
         d="m 765.54331,1297.8425 a 3.779528,3.779528 0 0 1 3.77953,-3.7795 h 45.35432 a 3.779528,3.779528 0 0 1 3.77953,3.7795 v 45.3544 a 3.779528,3.779528 0 0 1 -3.77953,3.7795 h -45.35432 a 3.779528,3.779528 0 0 1 -3.77953,-3.7795 z"
         inkscape:connector-curvature="0" />
      <path
         id="path8018"
         style="fill:none;stroke:#000000"
         d="m 548.45669,1415.1969 a 3.779528,3.779528 0 0 1 -3.77953,3.7795 h -45.35433 a 3.779528,3.779528 0 0 1 -3.77952,-3.7795 v -45.3544 a 3.779528,3.779528 0 0 1 3.77952,-3.7795 h 45.35433 a 3.779528,3.779528 0 0 1 3.77953,3.7795 z"
         inkscape:connector-curvature="0" />
      <path
         id="path8020"
         style="fill:none;stroke:#000000"
         d="m 278.45669,1271.1969 a 3.779528,3.779528 0 0 1 -3.77953,3.7795 h -45.35433 a 3.779528,3.779528 0 0 1 -3.77952,-3.7795 v -45.3544 a 3.779528,3.779528 0 0 1 3.77952,-3.7795 h 45.35433 a 3.779528,3.779528 0 0 1 3.77953,3.7795 z"
         inkscape:connector-curvature="0" />
      <path
         id="path8022"
         style="fill:none;stroke:#000000"
         d="m 782.45669,1271.1969 a 3.779528,3.779528 0 0 1 -3.77953,3.7795 h -45.35432 a 3.779528,3.779528 0 0 1 -3.77953,-3.7795 v -45.3544 a 3.779528,3.779528 0 0 1 3.77953,-3.7795 h 45.35432 a 3.779528,3.779528 0 0 1 3.77953,3.7795 z"
         inkscape:connector-curvature="0" />
      <path
         id="path8024"
         style="fill:none;stroke:#000000"
         d="m 315.54331,1441.8425 a 3.779528,3.779528 0 0 1 3.77952,-3.7795 h 45.35433 a 3.779528,3.779528 0 0 1 3.77953,3.7795 v 45.3544 a 3.779528,3.779528 0 0 1 -3.77953,3.7795 h -45.35433 a 3.779528,3.779528 0 0 1 -3.77952,-3.7795 z"
         inkscape:connector-curvature="0" />
      <path
         id="path8026"
         style="fill:none;stroke:#000000"
         d="m 800.45669,1487.1969 a 3.779528,3.779528 0 0 1 -3.77953,3.7795 h -45.35432 a 3.779528,3.779528 0 0 1 -3.77953,-3.7795 v -45.3544 a 3.779528,3.779528 0 0 1 3.77953,-3.7795 h 45.35432 a 3.779528,3.779528 0 0 1 3.77953,3.7795 z"
         inkscape:connector-curvature="0" />
      <path
         id="path8028"
         style="fill:none;stroke:#000000"
         d="m 476.45669,1415.1969 a 3.779528,3.779528 0 0 1 -3.77953,3.7795 h -45.35433 a 3.779528,3.779528 0 0 1 -3.77952,-3.7795 v -45.3544 a 3.779528,3.779528 0 0 1 3.77952,-3.7795 h 45.35433 a 3.779528,3.779528 0 0 1 3.77953,3.7795 z"
         inkscape:connector-curvature="0" />
      <path
         id="path8030"
         style="fill:none;stroke:#000000"
         d="m 440.45669,1487.1969 a 3.779528,3.779528 0 0 1 -3.77953,3.7795 h -45.35433 a 3.779528,3.779528 0 0 1 -3.77952,-3.7795 v -45.3544 a 3.779528,3.779528 0 0 1 3.77952,-3.7795 h 45.35433 a 3.779528,3.779528 0 0 1 3.77953,3.7795 z"
         inkscape:connector-curvature="0" />
      <path
         id="path8032"
         style="fill:none;stroke:#000000"
         d="m 692.45669,1415.1969 a 3.779528,3.779528 0 0 1 -3.77953,3.7795 h -45.35432 a 3.779528,3.779528 0 0 1 -3.77953,-3.7795 v -45.3544 a 3.779528,3.779528 0 0 1 3.77953,-3.7795 h 45.35432 a 3.779528,3.779528 0 0 1 3.77953,3.7795 z"
         inkscape:connector-curvature="0" />
      <path
         id="path8034"
         style="fill:none;stroke:#000000"
         d="m 566.45669,1271.1969 a 3.779528,3.779528 0 0 1 -3.77953,3.7795 h -45.35432 a 3.779528,3.779528 0 0 1 -3.77953,-3.7795 v -45.3544 a 3.779528,3.779528 0 0 1 3.77953,-3.7795 h 45.35432 a 3.779528,3.779528 0 0 1 3.77953,3.7795 z"
         inkscape:connector-curvature="0" />
      <path
         id="path8036"
         style="fill:none;stroke:#000000"
         d="m 477.54331,1297.8425 a 3.779528,3.779528 0 0 1 3.77952,-3.7795 h 45.35433 a 3.779528,3.779528 0 0 1 3.77953,3.7795 v 45.3544 a 3.779528,3.779528 0 0 1 -3.77953,3.7795 h -45.35433 a 3.779528,3.779528 0 0 1 -3.77952,-3.7795 z"
         inkscape:connector-curvature="0" />
      <path
         id="path8038"
         style="fill:none;stroke:#000000"
         d="m 512.45669,1487.1969 a 3.779528,3.779528 0 0 1 -3.77953,3.7795 h -45.35433 a 3.779528,3.779528 0 0 1 -3.77952,-3.7795 v -45.3544 a 3.779528,3.779528 0 0 1 3.77952,-3.7795 h 45.35433 a 3.779528,3.779528 0 0 1 3.77953,3.7795 z"
         inkscape:connector-curvature="0" />
      <path
         id="path8040"
         style="fill:none;stroke:#000000"
         d="m 584.45669,1487.1969 a 3.779528,3.779528 0 0 1 -3.77953,3.7795 h -45.35432 a 3.779528,3.779528 0 0 1 -3.77953,-3.7795 v -45.3544 a 3.779528,3.779528 0 0 1 3.77953,-3.7795 h 45.35432 a 3.779528,3.779528 0 0 1 3.77953,3.7795 z"
         inkscape:connector-curvature="0" />
      <path
         id="path8042"
         style="fill:none;stroke:#000000"
         d="m 283.32283,1418.9764 a 3.779528,3.779528 0 0 1 -3.77952,-3.7795 v -45.3544 a 3.779528,3.779528 0 0 1 3.77952,-3.7795 h 45.35433 a 3.779528,3.779528 0 0 1 3.77953,3.7795 v 45.3544 a 3.779528,3.779528 0 0 1 -3.77953,3.7795 z"
         inkscape:connector-curvature="0" />
      <path
         id="path8044"
         style="fill:none;stroke:#000000"
         d="m 314.45669,1343.1969 a 3.779528,3.779528 0 0 1 -3.77953,3.7795 h -45.35433 a 3.779528,3.779528 0 0 1 -3.77952,-3.7795 v -45.3544 a 3.779528,3.779528 0 0 1 3.77952,-3.7795 h 45.35433 a 3.779528,3.779528 0 0 1 3.77953,3.7795 z"
         inkscape:connector-curvature="0" />
      <path
         id="path8046"
         style="fill:none;stroke:#000000"
         d="m 854.45669,1271.1969 a 3.779528,3.779528 0 0 1 -3.77953,3.7795 h -45.35432 a 3.779528,3.779528 0 0 1 -3.77953,-3.7795 v -45.3544 a 3.779528,3.779528 0 0 1 3.77953,-3.7795 h 45.35432 a 3.779528,3.779528 0 0 1 3.77953,3.7795 z"
         inkscape:connector-curvature="0" />
      <path
         id="path8048"
         style="fill:none;stroke:#000000"
         d="m 57.591968,1434.3226 h -0.85617 a 1.889764,1.889764 0 0 1 -1.889763,-1.8898 v -3.8004 a 3.779528,3.779528 0 0 0 -3.779528,-3.7795 H 23.797068 a 3.779528,3.779528 0 0 0 -3.779526,3.7762 l -0.0052,5.8544 -0.248846,66.576 a 3.779528,3.779528 0 0 0 3.773387,3.7937 h 1.973766 a 3.779528,3.779528 0 0 0 0.528678,0.037 h 87.483423 l 24.94041,-0.04 a 3.779528,3.779528 0 0 0 3.77338,-3.7937 l -0.24884,-66.576 -0.005,-5.8544 a 3.779528,3.779528 0 0 0 -3.77953,-3.7762 h -27.26944 a 3.779528,3.779528 0 0 0 -3.77952,3.7795 v 3.8004 a 1.889764,1.889764 0 0 1 -1.88977,1.8898 h -0.85617 a 6.851031,6.851031 0 0 0 -0.73086,-0.039 H 58.322835 a 6.851031,6.851031 0 0 0 -0.730867,0.039 z"
         inkscape:connector-curvature="0" />
      <path
         id="path8050"
         style="fill:none;stroke:#000000"
         d="m -56.692913,1084.7244 a 37.795276,37.795276 0 0 1 37.795275,-37.7953 H 1206.8976 a 37.795276,37.795276 0 0 1 37.7953,37.7953 v 524.6929 a 37.795276,37.795276 0 0 1 -37.7953,37.7953 H -18.897638 a 37.795276,37.795276 0 0 1 -37.795275,-37.7953 z"
         inkscape:connector-curvature="0" />
      <path
         id="path8052"
         style="fill:none;stroke:#000000"
         d="m 9.543307,1225.8425 a 3.779528,3.779528 0 0 1 3.779528,-3.7795 h 45.35433 a 3.779528,3.779528 0 0 1 3.779528,3.7795 v 45.3544 a 3.779528,3.779528 0 0 1 -3.779528,3.7795 h -45.35433 a 3.779528,3.779528 0 0 1 -3.779528,-3.7795 z"
         inkscape:connector-curvature="0" />
      <path
         id="path8054"
         style="fill:none;stroke:#000000"
         d="m 1107.5433,1531.8425 a 3.779528,3.779528 0 0 1 3.7795,-3.7795 h 45.3544 a 3.779528,3.779528 0 0 1 3.7795,3.7795 v 45.3544 a 3.779528,3.779528 0 0 1 -3.7795,3.7795 h -45.3544 a 3.779528,3.779528 0 0 1 -3.7795,-3.7795 z"
         inkscape:connector-curvature="0" />
      <path
         id="path8056"
         style="fill:none;stroke:#000000"
         d="m 135.54331,1513.8425 a 3.779528,3.779528 0 0 1 3.77952,-3.7795 h 45.35433 a 3.779528,3.779528 0 0 1 3.77953,3.7795 v 45.3544 a 3.779528,3.779528 0 0 1 -3.77953,3.7795 h -45.35433 a 3.779528,3.779528 0 0 1 -3.77952,-3.7795 z"
         inkscape:connector-curvature="0" />
      <path
         id="path8058"
         style="fill:none;stroke:#000000"
         d="m 130.67716,1222.063 a 3.779528,3.779528 0 0 1 3.77953,3.7795 v 45.3544 a 3.779528,3.779528 0 0 1 -3.77953,3.7795 H 85.322835 a 3.779528,3.779528 0 0 1 -3.779528,-3.7795 v -45.3544 a 3.779528,3.779528 0 0 1 3.779528,-3.7795 z"
         inkscape:connector-curvature="0" />
      <path
         id="path8060"
         style="fill:none;stroke:#000000"
         d="m 9.543307,1135.8425 a 3.779528,3.779528 0 0 1 3.779528,-3.7795 h 45.35433 a 3.779528,3.779528 0 0 1 3.779528,3.7795 v 45.3544 a 3.779528,3.779528 0 0 1 -3.779528,3.7795 h -45.35433 a 3.779528,3.779528 0 0 1 -3.779528,-3.7795 z"
         inkscape:connector-curvature="0" />
      <path
         id="path8062"
         style="fill:none;stroke:#000000"
         d="m 1125.5433,1441.8425 v 45.3544 a 3.779528,3.779528 0 0 0 3.7795,3.7795 h 45.3544 a 3.779528,3.779528 0 0 0 3.7795,-3.7795 v -45.3544 a 3.779528,3.779528 0 0 0 -3.7795,-3.7795 h -45.3544 a 3.779528,3.779528 0 0 0 -3.7795,3.7795 z"
         inkscape:connector-curvature="0" />
      <path
         id="path8064"
         style="fill:none;stroke:#000000"
         d="m 240.96432,1492.2992 -0.66039,3.7738 a 2.07874,2.07874 0 0 1 -0.095,0.3547 2.07874,2.07874 0 0 1 -0.42316,0.6111 l -2.50589,2.5059 v 78.603 h 33.94237 v -11.3918 a 3.779528,3.779528 0 0 1 3.77953,-3.7795 h 391.1811 a 3.779528,3.779528 0 0 1 3.77953,3.7795 v 11.3918 h 33.25984 v -87.1713 h 21.45488 a 3.779528,3.779528 0 0 0 3.77953,-3.7795 v -45.3544 a 3.779528,3.779528 0 0 0 -3.77953,-3.7795 h -45.35432 a 3.779528,3.779528 0 0 0 -3.77953,3.7795 v 45.3544 a 3.779528,3.779528 0 0 0 0.23905,1.3228 h -5.31358 l -3.77951,3.7795 v 1.8898 l -0.55351,1.3363 -1.33629,0.5534 H 271.20053 l -1.33629,-0.5534 -0.55352,-1.3363 v -1.8898 l -1.32282,-1.3228 h 24.68926 a 3.779528,3.779528 0 0 0 3.77953,-3.7795 v -45.3544 a 3.779528,3.779528 0 0 0 -3.77953,-3.7795 h -45.35433 a 3.779528,3.779528 0 0 0 -3.77952,3.7795 v 45.3544 a 3.779528,3.779528 0 0 0 0.55376,1.9695 z"
         inkscape:connector-curvature="0" />
      <path
         id="path8066"
         style="fill:none;stroke:#000000"
         d="m 27.543307,1513.8425 a 3.779528,3.779528 0 0 1 3.779528,-3.7795 h 45.35433 a 3.779528,3.779528 0 0 1 3.779528,3.7795 v 45.3544 a 3.779528,3.779528 0 0 1 -3.779528,3.7795 h -45.35433 a 3.779528,3.779528 0 0 1 -3.779528,-3.7795 z"
         inkscape:connector-curvature="0" />
      <path
         id="path8068"
         style="fill:none;stroke:#000000"
         d="m 1017.5433,1135.8425 a 3.779528,3.779528 0 0 1 3.7795,-3.7795 h 45.3544 a 3.779528,3.779528 0 0 1 3.7795,3.7795 v 45.3544 a 3.779528,3.779528 0 0 1 -3.7795,3.7795 h -45.3544 a 3.779528,3.779528 0 0 1 -3.7795,-3.7795 z"
         inkscape:connector-curvature="0" />
      <path
         id="path8070"
         style="fill:none;stroke:#000000"
         d="m 945.54331,1135.8425 a 3.779528,3.779528 0 0 1 3.77953,-3.7795 h 45.35432 a 3.779528,3.779528 0 0 1 3.77953,3.7795 v 45.3544 a 3.779528,3.779528 0 0 1 -3.77953,3.7795 h -45.35432 a 3.779528,3.779528 0 0 1 -3.77953,-3.7795 z"
         inkscape:connector-curvature="0" />
      <path
         id="path8072"
         style="fill:none;stroke:#000000"
         d="m 963.54331,1531.8425 a 3.779528,3.779528 0 0 1 3.77953,-3.7795 h 45.35436 a 3.779528,3.779528 0 0 1 3.7795,3.7795 v 45.3544 a 3.779528,3.779528 0 0 1 -3.7795,3.7795 h -45.35436 a 3.779528,3.779528 0 0 1 -3.77953,-3.7795 z"
         inkscape:connector-curvature="0" />
      <path
         id="path8074"
         style="fill:none;stroke:#000000"
         d="m 1125.5433,1297.8425 a 3.779528,3.779528 0 0 1 3.7795,-3.7795 h 45.3544 a 3.779528,3.779528 0 0 1 3.7795,3.7795 v 45.3544 a 3.779528,3.779528 0 0 1 -3.7795,3.7795 h -45.3544 a 3.779528,3.779528 0 0 1 -3.7795,-3.7795 z"
         inkscape:connector-curvature="0" />
      <path
         id="path8076"
         style="fill:none;stroke:#000000"
         d="m 918.54331,1441.8425 a 3.779528,3.779528 0 0 1 3.77953,-3.7795 h 45.35432 a 3.779528,3.779528 0 0 1 3.77953,3.7795 v 45.3544 a 3.779528,3.779528 0 0 1 -3.77953,3.7795 h -45.35432 a 3.779528,3.779528 0 0 1 -3.77953,-3.7795 z"
         inkscape:connector-curvature="0" />
      <path
         id="path8078"
         style="fill:none;stroke:#000000"
         d="m 1035.5433,1459.8425 a 3.779528,3.779528 0 0 1 3.7795,-3.7795 h 45.3544 a 3.779528,3.779528 0 0 1 3.7795,3.7795 v 45.3544 a 3.779528,3.779528 0 0 1 -3.7795,3.7795 h -45.3544 a 3.779528,3.779528 0 0 1 -3.7795,-3.7795 z"
         inkscape:connector-curvature="0" />
      <path
         id="path8080"
         style="fill:none;stroke:#000000"
         d="m 135.54331,1369.8425 a 3.779528,3.779528 0 0 1 3.77952,-3.7795 h 45.35433 a 3.779528,3.779528 0 0 1 3.77953,3.7795 v 45.3544 a 3.779528,3.779528 0 0 1 -3.77953,3.7795 h -45.35433 a 3.779528,3.779528 0 0 1 -3.77952,-3.7795 z"
         inkscape:connector-curvature="0" />
      <path
         id="path8082"
         style="fill:none;stroke:#000000"
         d="m 117.54331,1297.8425 v 45.3544 a 3.779528,3.779528 0 0 0 3.77952,3.7795 h 45.35433 a 3.779528,3.779528 0 0 0 3.77953,-3.7795 v -45.3544 a 3.779528,3.779528 0 0 0 -3.77953,-3.7795 h -45.35433 a 3.779528,3.779528 0 0 0 -3.77952,3.7795 z"
         inkscape:connector-curvature="0" />
      <path
         id="path8084"
         style="fill:none;stroke:#000000"
         d="m 27.543307,1297.8425 a 3.779528,3.779528 0 0 1 3.779528,-3.7795 h 45.35433 a 3.779528,3.779528 0 0 1 3.779528,3.7795 v 45.3544 a 3.779528,3.779528 0 0 1 -3.779528,3.7795 h -45.35433 a 3.779528,3.779528 0 0 1 -3.779528,-3.7795 z"
         inkscape:connector-curvature="0" />
      <path
         id="path8086"
         style="fill:none;stroke:#000000"
         d="m 36.543307,1369.8425 a 3.779528,3.779528 0 0 1 3.779528,-3.7795 h 45.35433 a 3.779528,3.779528 0 0 1 3.779528,3.7795 v 45.3544 a 3.779528,3.779528 0 0 1 -3.779528,3.7795 h -45.35433 a 3.779528,3.779528 0 0 1 -3.779528,-3.7795 z"
         inkscape:connector-curvature="0" />
      <path
         id="path8088"
         style="fill:none;stroke:#000000"
         d="m 1035.5433,1531.8425 v 45.3544 a 3.779528,3.779528 0 0 0 3.7795,3.7795 h 45.3544 a 3.779528,3.779528 0 0 0 3.7795,-3.7795 v -45.3544 a 3.779528,3.779528 0 0 0 -3.7795,-3.7795 h -45.3544 a 3.779528,3.779528 0 0 0 -3.7795,3.7795 z"
         inkscape:connector-curvature="0" />
      <path
         id="path8090"
         style="fill:none;stroke:#000000"
         d="m 1125.5433,1369.8425 v 45.3544 a 3.779528,3.779528 0 0 0 3.7795,3.7795 h 45.3544 a 3.779528,3.779528 0 0 0 3.7795,-3.7795 v -45.3544 a 3.779528,3.779528 0 0 0 -3.7795,-3.7795 h -45.3544 a 3.779528,3.779528 0 0 0 -3.7795,3.7795 z"
         inkscape:connector-curvature="0" />
      <path
         id="path8092"
         style="fill:none;stroke:#000000"
         d="m -24.094488,1613.1969 a 6.1417325,6.1417325 0 1 0 -12.283465,0 6.1417325,6.1417325 0 1 0 12.283465,0 z"
         inkscape:connector-curvature="0" />
      <path
         id="path8094"
         style="fill:none;stroke:#000000"
         d="m 1224.378,1348.0157 a 6.14175,6.14175 0 1 0 -12.2835,0 6.14175,6.14175 0 1 0 12.2835,0 z"
         inkscape:connector-curvature="0" />
      <path
         id="path8096"
         style="fill:none;stroke:#000000"
         d="m -24.094488,1348.0157 a 6.1417325,6.1417325 0 1 0 -12.283465,0 6.1417325,6.1417325 0 1 0 12.283465,0 z"
         inkscape:connector-curvature="0" />
      <path
         id="path8098"
         style="fill:none;stroke:#000000"
         d="m 392.06299,1082.8346 a 6.141732,6.141732 0 1 0 -12.28346,0 6.141732,6.141732 0 1 0 12.28346,0 z"
         inkscape:connector-curvature="0" />
      <path
         id="path8100"
         style="fill:none;stroke:#000000"
         d="m 1224.378,1613.1969 a 6.14175,6.14175 0 1 0 -12.2835,0 6.14175,6.14175 0 1 0 12.2835,0 z"
         inkscape:connector-curvature="0" />
      <path
         id="path8102"
         style="fill:none;stroke:#000000"
         d="m 392.06299,1613.1969 a 6.141732,6.141732 0 1 0 -12.28346,0 6.141732,6.141732 0 1 0 12.28346,0 z"
         inkscape:connector-curvature="0" />
      <path
         id="path8104"
         style="fill:none;stroke:#000000"
         d="m 1224.378,1082.8346 a 6.14175,6.14175 0 1 0 -12.2835,0 6.14175,6.14175 0 1 0 12.2835,0 z"
         inkscape:connector-curvature="0" />
      <path
         id="path8106"
         style="fill:none;stroke:#000000"
         d="m -24.094488,1082.8346 a 6.1417325,6.1417325 0 1 0 -12.283465,0 6.1417325,6.1417325 0 1 0 12.283465,0 z"
         inkscape:connector-curvature="0" />
      <path
         id="path8108"
         style="fill:none;stroke:#000000"
         d="m 808.22047,1082.8346 a 6.141732,6.141732 0 1 0 -12.28346,0 6.141732,6.141732 0 1 0 12.28346,0 z"
         inkscape:connector-curvature="0" />
      <path
         id="path8110"
         style="fill:none;stroke:#000000"
         d="m 808.22047,1613.1969 a 6.141732,6.141732 0 1 0 -12.28346,0 6.141732,6.141732 0 1 0 12.28346,0 z"
         inkscape:connector-curvature="0" />
      <path
         id="path8112"
         style="fill:none;stroke:#000000"
         d="m 938.01754,1356.6291 -0.005,5.8544 -0.24884,66.576 a 3.779528,3.779528 0 0 0 3.77338,3.7937 h 1.97377 a 3.779528,3.779528 0 0 0 0.52868,0.037 h 87.48337 l 24.9404,-0.04 a 3.779528,3.779528 0 0 0 3.7734,-3.7937 l -0.2488,-66.576 -0.01,-5.8544 a 3.779528,3.779528 0 0 0 -3.7796,-3.7762 h -27.2694 a 3.779528,3.779528 0 0 0 -3.7795,3.7795 v 3.8004 a 1.889764,1.889764 0 0 1 -1.8898,1.8898 h -0.8562 a 6.851031,6.851031 0 0 0 -0.7308,-0.039 h -45.35434 a 6.851031,6.851031 0 0 0 -0.73087,0.039 h -0.85617 a 1.889764,1.889764 0 0 1 -1.88976,-1.8898 v -3.8004 a 3.779528,3.779528 0 0 0 -3.77953,-3.7795 h -27.26944 a 3.779528,3.779528 0 0 0 -3.77953,3.7762 z"
         inkscape:connector-curvature="0" />
    </g>
  </g>
</svg>
