0
SECTION
2
HEADER
9
$INSUNITS
70
4
9
$ACADVER
1
AC1014
9
$HANDSEED
5
FFFF
0
ENDSEC
0
SECTION
2
TABLES
0
TABLE
2
VPORT
5
8
100
AcDbSymbolTable
0
ENDTAB
0
TABLE
2
LTYPE
5
5
100
AcDbSymbolTable
0
LTYPE
5
14
100
AcDbSymbolTableRecord
100
AcDbLinetypeTableRecord
2
BYBLOCK
70
0
0
LTYPE
5
15
100
AcDbSymbolTableRecord
100
AcDbLinetypeTableRecord
2
BYLAYER
70
0
0
ENDTAB
0
TABLE
2
LAYER
5
2
100
AcDbSymbolTable
70
2
0
LAYER
5
50
100
AcDbSymbolTableRecord
100
AcDbLayerTableRecord
2
0
70
0
6
CONTINUOUS
0
ENDTAB
0
TABLE
2
STYLE
5
3
100
AcDbSymbolTable
70
1
0
STYLE
5
11
100
AcDbSymbolTableRecord
100
AcDbTextStyleTableRecord
2
STANDARD
70
0
0
ENDTAB
0
TABLE
2
VIEW
5
6
100
AcDbSymbolTable
70
0
0
ENDTAB
0
TABLE
2
UCS
5
7
100
AcDbSymbolTable
70
0
0
ENDTAB
0
TABLE
2
APPID
5
9
100
AcDbSymbolTable
70
2
0
APPID
5
12
100
AcDbSymbolTableRecord
100
AcDbRegAppTableRecord
2
ACAD
70
0
0
ENDTAB
0
TABLE
2
DIMSTYLE
5
A
100
AcDbSymbolTable
70
1
0
ENDTAB
0
TABLE
2
BLOCK_RECORD
5
1
100
AcDbSymbolTable
70
1
0
BLOCK_RECORD
5
1F
100
AcDbSymbolTableRecord
100
AcDbBlockTableRecord
2
*MODEL_SPACE
0
BLOCK_RECORD
5
1B
100
AcDbSymbolTableRecord
100
AcDbBlockTableRecord
2
*PAPER_SPACE
0
ENDTAB
0
ENDSEC
0
SECTION
2
BLOCKS
0
BLOCK
5
20
100
AcDbEntity
100
AcDbBlockBegin
2
*MODEL_SPACE
0
ENDBLK
5
21
100
AcDbEntity
100
AcDbBlockEnd
0
BLOCK
5
1C
100
AcDbEntity
100
AcDbBlockBegin
2
*PAPER_SPACE
0
ENDBLK
5
1D
100
AcDbEntity
100
AcDbBlockEnd
0
ENDSEC
0
SECTION
2
ENTITIES
0
CIRCLE
5
100
100
AcDbEntity
8
0
100
AcDbCircle
10
212.21666666666664
20
-129.82499999999999
30
0
40
1.6250000000000142
210
0
220
-0
230
1
0
CIRCLE
5
101
100
AcDbEntity
8
0
100
AcDbCircle
10
212.21666666666664
20
10.5
30
0
40
1.6250000000000142
210
0
220
-0
230
1
0
CIRCLE
5
102
100
AcDbEntity
8
0
100
AcDbCircle
10
-8.0000000000000071
20
10.5
30
0
40
1.6250000000000009
210
0
220
-0
230
1
0
CIRCLE
5
103
100
AcDbEntity
8
0
100
AcDbCircle
10
322.32500000000005
20
10.5
30
0
40
1.6249999999999432
210
0
220
-0
230
1
0
CIRCLE
5
104
100
AcDbEntity
8
0
100
AcDbCircle
10
102.10833333333332
20
-129.82499999999999
30
0
40
1.6250000000000142
210
0
220
-0
230
1
0
CIRCLE
5
105
100
AcDbEntity
8
0
100
AcDbCircle
10
322.32500000000005
20
-129.82499999999999
30
0
40
1.6249999999999432
210
0
220
-0
230
1
0
CIRCLE
5
106
100
AcDbEntity
8
0
100
AcDbCircle
10
102.10833333333332
20
10.5
30
0
40
1.6250000000000142
210
0
220
-0
230
1
0
CIRCLE
5
107
100
AcDbEntity
8
0
100
AcDbCircle
10
-8.0000000000000071
20
-59.662499999999994
30
0
40
1.6250000000000009
210
0
220
-0
230
1
0
CIRCLE
5
108
100
AcDbEntity
8
0
100
AcDbCircle
10
322.32500000000005
20
-59.662499999999994
30
0
40
1.6249999999999432
210
0
220
-0
230
1
0
CIRCLE
5
109
100
AcDbEntity
8
0
100
AcDbCircle
10
-8.0000000000000071
20
-129.82499999999999
30
0
40
1.6250000000000009
210
0
220
-0
230
1
0
LWPOLYLINE
5
110
100
AcDbEntity
8
0
100
AcDbPolyline
90
8
70
1
43
0.0
10
-5.0000000000000142
20
-136.82500000000002
42
-0.41421356237309509
10
-15
20
-126.82500000000003
10
-15
20
10.000000000000004
42
-0.4142135623730957
10
-5
20
20
10
319.32500000000005
20
19.999999999999979
42
-0.41421356237309442
10
329.32500000000005
20
10
10
329.32500000000005
20
-126.82499999999997
42
-0.41421356237310025
10
319.32500000000005
20
-136.82500000000002
0
LWPOLYLINE
5
111
100
AcDbEntity
8
0
100
AcDbPolyline
90
8
70
1
43
0.0
10
314.37500000000006
20
-99.0625
10
314.37500000000006
20
-43.812500000000007
42
0.41421356237309503
10
313.375
20
-42.812500000000007
10
296.22500000000002
20
-42.812500000000007
42
0.41421356237309503
10
295.22500000000002
20
-43.812500000000007
10
295.22500000000002
20
-99.0625
42
0.41421356237309503
10
296.22500000000002
20
-100.0625
10
313.375
20
-100.0625
42
0.41421356237309503
0
LWPOLYLINE
5
112
100
AcDbEntity
8
0
100
AcDbPolyline
90
15
70
1
43
0.0
10
291.56250000000006
20
-104.72499999999999
42
-0.41421356237308982
10
290.56250000000006
20
-103.72500000000001
10
290.56250000000006
20
-85.675000000000011
10
272.41250000000002
20
-85.675000000000011
42
0.41421356237309503
10
271.41250000000002
20
-86.675000000000011
10
271.41250000000002
20
-103.72499999999999
42
-0.41421356237310542
10
270.41249999999997
20
-104.72499999999999
10
253.36250000000001
20
-104.72499999999999
42
0.41421356237309503
10
252.36249999999998
20
-105.72499999999999
10
252.36249999999998
20
-123.825
42
0.41421356237309503
10
253.36250000000001
20
-124.825
10
308.61250000000007
20
-124.825
42
0.41421356237309503
10
309.61250000000007
20
-123.825
10
309.61250000000007
20
-105.72500000000002
42
0.41421356237309503
10
308.61250000000007
20
-104.72499999999999
0
LWPOLYLINE
5
113
100
AcDbEntity
8
0
100
AcDbPolyline
90
16
70
1
43
0.0
10
247.6995
20
-101.06200000000001
42
-0.41421356237307422
10
248.6995
20
-100.06200000000001
10
265.74949999999995
20
-100.062
42
0.41421356237309503
10
266.74950000000001
20
-99.061999999999998
10
266.74950000000001
20
-84.119745374284918
42
-0.41421356237307422
10
267.74950000000001
20
-83.119745374284904
10
285.80000000000007
20
-83.119745374284904
42
0.41421356237309503
10
286.80000000000007
20
-82.119745374284904
10
286.80000000000007
20
-2.5308595891117525e-16
42
0.41421356237309509
10
285.80000000000007
20
1
10
1.8369701987210297e-16
20
1
42
0.41421356237309509
10
-1
20
0
10
-1
20
-123.825
42
0.41421356237309503
10
0
20
-124.825
10
246.69949999999997
20
-124.825
42
0.41421356237309503
10
247.69949999999997
20
-123.825
0
ENDSEC
0
SECTION
2
OBJECTS
0
DICTIONARY
5
C
100
AcDbDictionary
3
ACAD_GROUP
350
D
3
ACAD_MLINESTYLE
350
17
0
DICTIONARY
5
D
100
AcDbDictionary
0
DICTIONARY
5
1A
330
C
100
AcDbDictionary
0
DICTIONARY
5
17
100
AcDbDictionary
0
ENDSEC
0
EOF
