<?xml version="1.0" encoding="UTF-8" standalone="no"?>
<!-- Created with Inkscape (http://www.inkscape.org/) -->

<svg
   xmlns:dc="http://purl.org/dc/elements/1.1/"
   xmlns:cc="http://creativecommons.org/ns#"
   xmlns:rdf="http://www.w3.org/1999/02/22-rdf-syntax-ns#"
   xmlns:svg="http://www.w3.org/2000/svg"
   xmlns="http://www.w3.org/2000/svg"
   xmlns:sodipodi="http://sodipodi.sourceforge.net/DTD/sodipodi-0.dtd"
   xmlns:inkscape="http://www.inkscape.org/namespaces/inkscape"
   width="420mm"
   height="300mm"
   viewBox="0 0 420 300"
   version="1.1"
   id="svg8"
   inkscape:version="0.92.4 (5da689c313, 2019-01-14)"
   sodipodi:docname="L6.svg">
  <defs
     id="defs2">
    <marker
       style="overflow:visible"
       refY="0.0"
       refX="0.0"
       orient="auto"
       id="DistanceX">
      <path
         id="path12"
         style="stroke:#000000; stroke-width:0.5"
         d="M 3,-3 L -3,3 M 0,-5 L  0,5" />
    </marker>
    <pattern
       y="0"
       x="0"
       width="8"
       patternUnits="userSpaceOnUse"
       id="Hatch"
       height="8">
      <path
         id="path15"
         stroke-width="0.25"
         stroke="#000000"
         linecap="square"
         d="M8 4 l-4,4" />
      <path
         id="path17"
         stroke-width="0.25"
         stroke="#000000"
         linecap="square"
         d="M6 2 l-4,4" />
      <path
         id="path19"
         stroke-width="0.25"
         stroke="#000000"
         linecap="square"
         d="M4 0 l-4,4" />
    </pattern>
    <symbol
       id="*MODEL_SPACE" />
    <symbol
       id="*PAPER_SPACE" />
    <marker
       style="overflow:visible"
       refY="0.0"
       refX="0.0"
       orient="auto"
       id="DistanceX-4">
      <path
         id="path57"
         style="stroke:#000000; stroke-width:0.5"
         d="M 3,-3 L -3,3 M 0,-5 L  0,5" />
    </marker>
    <pattern
       y="0"
       x="0"
       width="8"
       patternUnits="userSpaceOnUse"
       id="Hatch-8"
       height="8">
      <path
         id="path60"
         stroke-width="0.25"
         stroke="#000000"
         linecap="square"
         d="M8 4 l-4,4" />
      <path
         id="path62"
         stroke-width="0.25"
         stroke="#000000"
         linecap="square"
         d="M6 2 l-4,4" />
      <path
         id="path64"
         stroke-width="0.25"
         stroke="#000000"
         linecap="square"
         d="M4 0 l-4,4" />
    </pattern>
    <symbol
       id="*MODEL_SPACE-8" />
    <symbol
       id="*PAPER_SPACE-1" />
    <marker
       style="overflow:visible"
       refY="0.0"
       refX="0.0"
       orient="auto"
       id="DistanceX-2">
      <path
         id="path102"
         style="stroke:#000000; stroke-width:0.5"
         d="M 3,-3 L -3,3 M 0,-5 L  0,5" />
    </marker>
    <pattern
       y="0"
       x="0"
       width="8"
       patternUnits="userSpaceOnUse"
       id="Hatch-5"
       height="8">
      <path
         id="path105"
         stroke-width="0.25"
         stroke="#000000"
         linecap="square"
         d="M8 4 l-4,4" />
      <path
         id="path107"
         stroke-width="0.25"
         stroke="#000000"
         linecap="square"
         d="M6 2 l-4,4" />
      <path
         id="path109"
         stroke-width="0.25"
         stroke="#000000"
         linecap="square"
         d="M4 0 l-4,4" />
    </pattern>
    <symbol
       id="*MODEL_SPACE-84" />
    <symbol
       id="*PAPER_SPACE-4" />
    <marker
       style="overflow:visible"
       refY="0.0"
       refX="0.0"
       orient="auto"
       id="DistanceX-6">
      <path
         id="path147"
         style="stroke:#000000; stroke-width:0.5"
         d="M 3,-3 L -3,3 M 0,-5 L  0,5" />
    </marker>
    <pattern
       y="0"
       x="0"
       width="8"
       patternUnits="userSpaceOnUse"
       id="Hatch-6"
       height="8">
      <path
         id="path150"
         stroke-width="0.25"
         stroke="#000000"
         linecap="square"
         d="M8 4 l-4,4" />
      <path
         id="path152"
         stroke-width="0.25"
         stroke="#000000"
         linecap="square"
         d="M6 2 l-4,4" />
      <path
         id="path154"
         stroke-width="0.25"
         stroke="#000000"
         linecap="square"
         d="M4 0 l-4,4" />
    </pattern>
    <symbol
       id="*MODEL_SPACE-0" />
    <symbol
       id="*PAPER_SPACE-9" />
    <marker
       style="overflow:visible"
       refY="0.0"
       refX="0.0"
       orient="auto"
       id="DistanceX-7">
      <path
         id="path414"
         style="stroke:#000000; stroke-width:0.5"
         d="M 3,-3 L -3,3 M 0,-5 L  0,5" />
    </marker>
    <pattern
       y="0"
       x="0"
       width="8"
       patternUnits="userSpaceOnUse"
       id="Hatch-59"
       height="8">
      <path
         id="path417"
         stroke-width="0.25"
         stroke="#000000"
         linecap="square"
         d="M8 4 l-4,4" />
      <path
         id="path419"
         stroke-width="0.25"
         stroke="#000000"
         linecap="square"
         d="M6 2 l-4,4" />
      <path
         id="path421"
         stroke-width="0.25"
         stroke="#000000"
         linecap="square"
         d="M4 0 l-4,4" />
    </pattern>
    <symbol
       id="*MODEL_SPACE-4" />
    <symbol
       id="*PAPER_SPACE-2" />
    <marker
       style="overflow:visible"
       refY="0.0"
       refX="0.0"
       orient="auto"
       id="DistanceX-1">
      <path
         id="path489"
         style="stroke:#000000; stroke-width:0.5"
         d="M 3,-3 L -3,3 M 0,-5 L  0,5" />
    </marker>
    <pattern
       y="0"
       x="0"
       width="8"
       patternUnits="userSpaceOnUse"
       id="Hatch-86"
       height="8">
      <path
         id="path492"
         stroke-width="0.25"
         stroke="#000000"
         linecap="square"
         d="M8 4 l-4,4" />
      <path
         id="path494"
         stroke-width="0.25"
         stroke="#000000"
         linecap="square"
         d="M6 2 l-4,4" />
      <path
         id="path496"
         stroke-width="0.25"
         stroke="#000000"
         linecap="square"
         d="M4 0 l-4,4" />
    </pattern>
    <symbol
       id="*MODEL_SPACE-1" />
    <symbol
       id="*PAPER_SPACE-90" />
    <marker
       style="overflow:visible"
       refY="0.0"
       refX="0.0"
       orient="auto"
       id="DistanceX-23">
      <path
         id="path555"
         style="stroke:#000000; stroke-width:0.5"
         d="M 3,-3 L -3,3 M 0,-5 L  0,5" />
    </marker>
    <pattern
       y="0"
       x="0"
       width="8"
       patternUnits="userSpaceOnUse"
       id="Hatch-64"
       height="8">
      <path
         id="path558"
         stroke-width="0.25"
         stroke="#000000"
         linecap="square"
         d="M8 4 l-4,4" />
      <path
         id="path560"
         stroke-width="0.25"
         stroke="#000000"
         linecap="square"
         d="M6 2 l-4,4" />
      <path
         id="path562"
         stroke-width="0.25"
         stroke="#000000"
         linecap="square"
         d="M4 0 l-4,4" />
    </pattern>
    <symbol
       id="*MODEL_SPACE-9" />
    <symbol
       id="*PAPER_SPACE-0" />
    <marker
       style="overflow:visible"
       refY="0.0"
       refX="0.0"
       orient="auto"
       id="DistanceX-47">
      <path
         id="path699"
         style="stroke:#000000; stroke-width:0.5"
         d="M 3,-3 L -3,3 M 0,-5 L  0,5" />
    </marker>
    <pattern
       y="0"
       x="0"
       width="8"
       patternUnits="userSpaceOnUse"
       id="Hatch-1"
       height="8">
      <path
         id="path702"
         stroke-width="0.25"
         stroke="#000000"
         linecap="square"
         d="M8 4 l-4,4" />
      <path
         id="path704"
         stroke-width="0.25"
         stroke="#000000"
         linecap="square"
         d="M6 2 l-4,4" />
      <path
         id="path706"
         stroke-width="0.25"
         stroke="#000000"
         linecap="square"
         d="M4 0 l-4,4" />
    </pattern>
    <symbol
       id="*MODEL_SPACE-6" />
    <symbol
       id="*PAPER_SPACE-99" />
    <marker
       style="overflow:visible"
       refY="0.0"
       refX="0.0"
       orient="auto"
       id="DistanceX-0">
      <path
         id="path858"
         style="stroke:#000000; stroke-width:0.5"
         d="M 3,-3 L -3,3 M 0,-5 L  0,5" />
    </marker>
    <pattern
       y="0"
       x="0"
       width="8"
       patternUnits="userSpaceOnUse"
       id="Hatch-596"
       height="8">
      <path
         id="path861"
         stroke-width="0.25"
         stroke="#000000"
         linecap="square"
         d="M8 4 l-4,4" />
      <path
         id="path863"
         stroke-width="0.25"
         stroke="#000000"
         linecap="square"
         d="M6 2 l-4,4" />
      <path
         id="path865"
         stroke-width="0.25"
         stroke="#000000"
         linecap="square"
         d="M4 0 l-4,4" />
    </pattern>
    <symbol
       id="*MODEL_SPACE-82" />
    <symbol
       id="*PAPER_SPACE-05" />
  </defs>
  <sodipodi:namedview
     id="base"
     pagecolor="#ffffff"
     bordercolor="#666666"
     borderopacity="1.0"
     inkscape:pageopacity="0.0"
     inkscape:pageshadow="2"
     inkscape:zoom="0.7"
     inkscape:cx="422.7236"
     inkscape:cy="476.01602"
     inkscape:document-units="mm"
     inkscape:current-layer="layer1"
     showgrid="false"
     inkscape:window-width="2560"
     inkscape:window-height="1377"
     inkscape:window-x="-8"
     inkscape:window-y="-8"
     inkscape:window-maximized="1" />
  <metadata
     id="metadata5">
    <rdf:RDF>
      <cc:Work
         rdf:about="">
        <dc:format>image/svg+xml</dc:format>
        <dc:type
           rdf:resource="http://purl.org/dc/dcmitype/StillImage" />
        <dc:title></dc:title>
      </cc:Work>
    </rdf:RDF>
  </metadata>
  <g
     inkscape:label="Layer 1"
     inkscape:groupmode="layer"
     id="layer1"
     transform="translate(0,3)">
    <g
       id="g900"
       inkscape:label="0"
       transform="matrix(0.26458333,0,0,0.26458333,52.837504,-207.41249)">
      <path
         id="path872"
         style="fill:none;stroke:#000000"
         d="m 1222.4882,1082.8346 a 4.251969,4.251969 0 1 0 -8.5039,0 4.251969,4.251969 0 1 0 8.5039,0 z"
         inkscape:connector-curvature="0" />
      <path
         id="path874"
         style="fill:none;stroke:#000000"
         d="m 390.17323,1613.1969 a 4.25197,4.25197 0 1 0 -8.50394,0 4.25197,4.25197 0 1 0 8.50394,0 z"
         inkscape:connector-curvature="0" />
      <path
         id="path876"
         style="fill:none;stroke:#000000"
         d="m -25.984252,1082.8346 a 4.251969,4.251969 0 1 0 -8.503937,0 4.251969,4.251969 0 1 0 8.503937,0 z"
         inkscape:connector-curvature="0" />
      <path
         id="path878"
         style="fill:none;stroke:#000000"
         d="m 806.33071,1613.1969 a 4.25197,4.25197 0 1 0 -8.50394,0 4.25197,4.25197 0 1 0 8.50394,0 z"
         inkscape:connector-curvature="0" />
      <path
         id="path880"
         style="fill:none;stroke:#000000"
         d="m 806.33071,1082.8346 a 4.25197,4.25197 0 1 0 -8.50394,0 4.25197,4.25197 0 1 0 8.50394,0 z"
         inkscape:connector-curvature="0" />
      <path
         id="path882"
         style="fill:none;stroke:#000000"
         d="m 1222.4882,1348.0157 a 4.251969,4.251969 0 1 0 -8.5039,0 4.251969,4.251969 0 1 0 8.5039,0 z"
         inkscape:connector-curvature="0" />
      <path
         id="path884"
         style="fill:none;stroke:#000000"
         d="m -25.984252,1613.1969 a 4.251969,4.251969 0 1 0 -8.503937,0 4.251969,4.251969 0 1 0 8.503937,0 z"
         inkscape:connector-curvature="0" />
      <path
         id="path886"
         style="fill:none;stroke:#000000"
         d="m -25.984252,1348.0157 a 4.251969,4.251969 0 1 0 -8.503937,0 4.251969,4.251969 0 1 0 8.503937,0 z"
         inkscape:connector-curvature="0" />
      <path
         id="path888"
         style="fill:none;stroke:#000000"
         d="m 1222.4882,1613.1969 a 4.251969,4.251969 0 1 0 -8.5039,0 4.251969,4.251969 0 1 0 8.5039,0 z"
         inkscape:connector-curvature="0" />
      <path
         id="path890"
         style="fill:none;stroke:#000000"
         d="m 390.17323,1082.8346 a 4.25197,4.25197 0 1 0 -8.50394,0 4.25197,4.25197 0 1 0 8.50394,0 z"
         inkscape:connector-curvature="0" />
      <path
         id="path892"
         style="fill:none;stroke:#000000"
         d="m -18.897638,1632.0945 a 37.795276,37.795276 0 0 1 -37.795275,-37.7953 v -509.5748 a 37.795276,37.795276 0 0 1 37.795275,-37.7953 H 1206.8976 a 37.795276,37.795276 0 0 1 37.7953,37.7953 v 509.5748 a 37.795276,37.795276 0 0 1 -37.7953,37.7953 z"
         inkscape:connector-curvature="0" />
      <path
         id="path894"
         style="fill:none;stroke:#000000"
         d="m 1188.189,1496.9291 v -208.8189 a 3.779528,3.779528 0 0 0 -3.7796,-3.7795 h -64.8188 a 3.779528,3.779528 0 0 0 -3.7796,3.7795 v 208.8189 a 3.779528,3.779528 0 0 0 3.7796,3.7796 h 64.8188 a 3.779528,3.779528 0 0 0 3.7796,-3.7796 z"
         inkscape:connector-curvature="0" />
      <path
         id="path896"
         style="fill:none;stroke:#000000"
         d="m 1101.9685,1518.3307 a 3.779528,3.779528 0 0 1 -3.7795,-3.7795 v -68.2205 h -68.5984 a 3.779528,3.779528 0 0 0 -3.7796,3.7795 v 64.441 a 3.779528,3.779528 0 0 1 -3.7795,3.7795 h -64.44095 a 3.779528,3.779528 0 0 0 -3.77953,3.7795 v 68.4095 a 3.779528,3.779528 0 0 0 3.77953,3.7795 h 208.81885 a 3.779528,3.779528 0 0 0 3.7796,-3.7795 v -68.4095 a 3.779528,3.779528 0 0 0 -3.7796,-3.7795 z"
         inkscape:connector-curvature="0" />
      <path
         id="path898"
         style="fill:none;stroke:#000000"
         d="m 936.18709,1504.4863 a 3.779528,3.779528 0 0 1 3.77952,-3.7795 h 64.44099 a 3.779528,3.779528 0 0 0 3.7795,-3.7796 v -56.4746 a 3.779528,3.779528 0 0 1 3.7795,-3.7795 h 68.2224 a 3.779528,3.779528 0 0 0 3.7795,-3.7796 v -310.3738 a 3.779528,3.779528 0 0 0 -3.7795,-3.7795 H 0 a 3.779528,3.779528 0 0 0 -3.779528,3.7795 v 468 A 3.779528,3.779528 0 0 0 0,1594.2992 h 932.40756 a 3.779528,3.779528 0 0 0 3.77953,-3.7795 z"
         inkscape:connector-curvature="0" />
    </g>
  </g>
</svg>
