<?xml version="1.0" encoding="UTF-8" standalone="no"?>
<!-- Created with Inkscape (http://www.inkscape.org/) -->

<svg
   xmlns:dc="http://purl.org/dc/elements/1.1/"
   xmlns:cc="http://creativecommons.org/ns#"
   xmlns:rdf="http://www.w3.org/1999/02/22-rdf-syntax-ns#"
   xmlns:svg="http://www.w3.org/2000/svg"
   xmlns="http://www.w3.org/2000/svg"
   xmlns:sodipodi="http://sodipodi.sourceforge.net/DTD/sodipodi-0.dtd"
   xmlns:inkscape="http://www.inkscape.org/namespaces/inkscape"
   width="420mm"
   height="300mm"
   viewBox="0 0 420 300"
   version="1.1"
   id="svg8"
   inkscape:version="0.92.4 (5da689c313, 2019-01-14)"
   sodipodi:docname="L6.svg">
  <defs
     id="defs2">
    <marker
       style="overflow:visible"
       refY="0.0"
       refX="0.0"
       orient="auto"
       id="DistanceX">
      <path
         id="path12"
         style="stroke:#000000; stroke-width:0.5"
         d="M 3,-3 L -3,3 M 0,-5 L  0,5" />
    </marker>
    <pattern
       y="0"
       x="0"
       width="8"
       patternUnits="userSpaceOnUse"
       id="Hatch"
       height="8">
      <path
         id="path15"
         stroke-width="0.25"
         stroke="#000000"
         linecap="square"
         d="M8 4 l-4,4" />
      <path
         id="path17"
         stroke-width="0.25"
         stroke="#000000"
         linecap="square"
         d="M6 2 l-4,4" />
      <path
         id="path19"
         stroke-width="0.25"
         stroke="#000000"
         linecap="square"
         d="M4 0 l-4,4" />
    </pattern>
    <symbol
       id="*MODEL_SPACE" />
    <symbol
       id="*PAPER_SPACE" />
    <marker
       style="overflow:visible"
       refY="0.0"
       refX="0.0"
       orient="auto"
       id="DistanceX-4">
      <path
         id="path57"
         style="stroke:#000000; stroke-width:0.5"
         d="M 3,-3 L -3,3 M 0,-5 L  0,5" />
    </marker>
    <pattern
       y="0"
       x="0"
       width="8"
       patternUnits="userSpaceOnUse"
       id="Hatch-8"
       height="8">
      <path
         id="path60"
         stroke-width="0.25"
         stroke="#000000"
         linecap="square"
         d="M8 4 l-4,4" />
      <path
         id="path62"
         stroke-width="0.25"
         stroke="#000000"
         linecap="square"
         d="M6 2 l-4,4" />
      <path
         id="path64"
         stroke-width="0.25"
         stroke="#000000"
         linecap="square"
         d="M4 0 l-4,4" />
    </pattern>
    <symbol
       id="*MODEL_SPACE-8" />
    <symbol
       id="*PAPER_SPACE-1" />
    <marker
       style="overflow:visible"
       refY="0.0"
       refX="0.0"
       orient="auto"
       id="DistanceX-2">
      <path
         id="path102"
         style="stroke:#000000; stroke-width:0.5"
         d="M 3,-3 L -3,3 M 0,-5 L  0,5" />
    </marker>
    <pattern
       y="0"
       x="0"
       width="8"
       patternUnits="userSpaceOnUse"
       id="Hatch-5"
       height="8">
      <path
         id="path105"
         stroke-width="0.25"
         stroke="#000000"
         linecap="square"
         d="M8 4 l-4,4" />
      <path
         id="path107"
         stroke-width="0.25"
         stroke="#000000"
         linecap="square"
         d="M6 2 l-4,4" />
      <path
         id="path109"
         stroke-width="0.25"
         stroke="#000000"
         linecap="square"
         d="M4 0 l-4,4" />
    </pattern>
    <symbol
       id="*MODEL_SPACE-84" />
    <symbol
       id="*PAPER_SPACE-4" />
    <marker
       style="overflow:visible"
       refY="0.0"
       refX="0.0"
       orient="auto"
       id="DistanceX-6">
      <path
         id="path147"
         style="stroke:#000000; stroke-width:0.5"
         d="M 3,-3 L -3,3 M 0,-5 L  0,5" />
    </marker>
    <pattern
       y="0"
       x="0"
       width="8"
       patternUnits="userSpaceOnUse"
       id="Hatch-6"
       height="8">
      <path
         id="path150"
         stroke-width="0.25"
         stroke="#000000"
         linecap="square"
         d="M8 4 l-4,4" />
      <path
         id="path152"
         stroke-width="0.25"
         stroke="#000000"
         linecap="square"
         d="M6 2 l-4,4" />
      <path
         id="path154"
         stroke-width="0.25"
         stroke="#000000"
         linecap="square"
         d="M4 0 l-4,4" />
    </pattern>
    <symbol
       id="*MODEL_SPACE-0" />
    <symbol
       id="*PAPER_SPACE-9" />
    <marker
       style="overflow:visible"
       refY="0.0"
       refX="0.0"
       orient="auto"
       id="DistanceX-3">
      <path
         id="path244"
         style="stroke:#000000; stroke-width:0.5"
         d="M 3,-3 L -3,3 M 0,-5 L  0,5" />
    </marker>
    <pattern
       y="0"
       x="0"
       width="8"
       patternUnits="userSpaceOnUse"
       id="Hatch-1"
       height="8">
      <path
         id="path247"
         stroke-width="0.25"
         stroke="#000000"
         linecap="square"
         d="M8 4 l-4,4" />
      <path
         id="path249"
         stroke-width="0.25"
         stroke="#000000"
         linecap="square"
         d="M6 2 l-4,4" />
      <path
         id="path251"
         stroke-width="0.25"
         stroke="#000000"
         linecap="square"
         d="M4 0 l-4,4" />
    </pattern>
    <symbol
       id="*MODEL_SPACE-5" />
    <symbol
       id="*PAPER_SPACE-2" />
    <marker
       style="overflow:visible"
       refY="0.0"
       refX="0.0"
       orient="auto"
       id="DistanceX-28">
      <path
         id="path511"
         style="stroke:#000000; stroke-width:0.5"
         d="M 3,-3 L -3,3 M 0,-5 L  0,5" />
    </marker>
    <pattern
       y="0"
       x="0"
       width="8"
       patternUnits="userSpaceOnUse"
       id="Hatch-2"
       height="8">
      <path
         id="path514"
         stroke-width="0.25"
         stroke="#000000"
         linecap="square"
         d="M8 4 l-4,4" />
      <path
         id="path516"
         stroke-width="0.25"
         stroke="#000000"
         linecap="square"
         d="M6 2 l-4,4" />
      <path
         id="path518"
         stroke-width="0.25"
         stroke="#000000"
         linecap="square"
         d="M4 0 l-4,4" />
    </pattern>
    <symbol
       id="*MODEL_SPACE-09" />
    <symbol
       id="*PAPER_SPACE-94" />
    <marker
       style="overflow:visible"
       refY="0.0"
       refX="0.0"
       orient="auto"
       id="DistanceX-8">
      <path
         id="path736"
         style="stroke:#000000; stroke-width:0.5"
         d="M 3,-3 L -3,3 M 0,-5 L  0,5" />
    </marker>
    <pattern
       y="0"
       x="0"
       width="8"
       patternUnits="userSpaceOnUse"
       id="Hatch-3"
       height="8">
      <path
         id="path739"
         stroke-width="0.25"
         stroke="#000000"
         linecap="square"
         d="M8 4 l-4,4" />
      <path
         id="path741"
         stroke-width="0.25"
         stroke="#000000"
         linecap="square"
         d="M6 2 l-4,4" />
      <path
         id="path743"
         stroke-width="0.25"
         stroke="#000000"
         linecap="square"
         d="M4 0 l-4,4" />
    </pattern>
    <symbol
       id="*MODEL_SPACE-2" />
    <symbol
       id="*PAPER_SPACE-6" />
    <marker
       style="overflow:visible"
       refY="0.0"
       refX="0.0"
       orient="auto"
       id="DistanceX-5">
      <path
         id="path856"
         style="stroke:#000000; stroke-width:0.5"
         d="M 3,-3 L -3,3 M 0,-5 L  0,5" />
    </marker>
    <pattern
       y="0"
       x="0"
       width="8"
       patternUnits="userSpaceOnUse"
       id="Hatch-27"
       height="8">
      <path
         id="path859"
         stroke-width="0.25"
         stroke="#000000"
         linecap="square"
         d="M8 4 l-4,4" />
      <path
         id="path861"
         stroke-width="0.25"
         stroke="#000000"
         linecap="square"
         d="M6 2 l-4,4" />
      <path
         id="path863"
         stroke-width="0.25"
         stroke="#000000"
         linecap="square"
         d="M4 0 l-4,4" />
    </pattern>
    <symbol
       id="*MODEL_SPACE-3" />
    <symbol
       id="*PAPER_SPACE-40" />
    <marker
       style="overflow:visible"
       refY="0.0"
       refX="0.0"
       orient="auto"
       id="DistanceX-87">
      <path
         id="path943"
         style="stroke:#000000; stroke-width:0.5"
         d="M 3,-3 L -3,3 M 0,-5 L  0,5" />
    </marker>
    <pattern
       y="0"
       x="0"
       width="8"
       patternUnits="userSpaceOnUse"
       id="Hatch-7"
       height="8">
      <path
         id="path946"
         stroke-width="0.25"
         stroke="#000000"
         linecap="square"
         d="M8 4 l-4,4" />
      <path
         id="path948"
         stroke-width="0.25"
         stroke="#000000"
         linecap="square"
         d="M6 2 l-4,4" />
      <path
         id="path950"
         stroke-width="0.25"
         stroke="#000000"
         linecap="square"
         d="M4 0 l-4,4" />
    </pattern>
    <symbol
       id="*MODEL_SPACE-7" />
    <symbol
       id="*PAPER_SPACE-5" />
    <marker
       style="overflow:visible"
       refY="0.0"
       refX="0.0"
       orient="auto"
       id="DistanceX-84">
      <path
         id="path805"
         style="stroke:#000000; stroke-width:0.5"
         d="M 3,-3 L -3,3 M 0,-5 L  0,5" />
    </marker>
    <pattern
       y="0"
       x="0"
       width="8"
       patternUnits="userSpaceOnUse"
       id="Hatch-85"
       height="8">
      <path
         id="path808"
         stroke-width="0.25"
         stroke="#000000"
         linecap="square"
         d="M8 4 l-4,4" />
      <path
         id="path810"
         stroke-width="0.25"
         stroke="#000000"
         linecap="square"
         d="M6 2 l-4,4" />
      <path
         id="path812"
         stroke-width="0.25"
         stroke="#000000"
         linecap="square"
         d="M4 0 l-4,4" />
    </pattern>
    <symbol
       id="*MODEL_SPACE-24" />
    <symbol
       id="*PAPER_SPACE-45" />
    <marker
       style="overflow:visible"
       refY="0.0"
       refX="0.0"
       orient="auto"
       id="DistanceX-7">
      <path
         id="path892"
         style="stroke:#000000; stroke-width:0.5"
         d="M 3,-3 L -3,3 M 0,-5 L  0,5" />
    </marker>
    <pattern
       y="0"
       x="0"
       width="8"
       patternUnits="userSpaceOnUse"
       id="Hatch-17"
       height="8">
      <path
         id="path895"
         stroke-width="0.25"
         stroke="#000000"
         linecap="square"
         d="M8 4 l-4,4" />
      <path
         id="path897"
         stroke-width="0.25"
         stroke="#000000"
         linecap="square"
         d="M6 2 l-4,4" />
      <path
         id="path899"
         stroke-width="0.25"
         stroke="#000000"
         linecap="square"
         d="M4 0 l-4,4" />
    </pattern>
    <symbol
       id="*MODEL_SPACE-39" />
    <symbol
       id="*PAPER_SPACE-54" />
    <marker
       style="overflow:visible"
       refY="0.0"
       refX="0.0"
       orient="auto"
       id="DistanceX-9">
      <path
         id="path1066"
         style="stroke:#000000; stroke-width:0.5"
         d="M 3,-3 L -3,3 M 0,-5 L  0,5" />
    </marker>
    <pattern
       y="0"
       x="0"
       width="8"
       patternUnits="userSpaceOnUse"
       id="Hatch-73"
       height="8">
      <path
         id="path1069"
         stroke-width="0.25"
         stroke="#000000"
         linecap="square"
         d="M8 4 l-4,4" />
      <path
         id="path1071"
         stroke-width="0.25"
         stroke="#000000"
         linecap="square"
         d="M6 2 l-4,4" />
      <path
         id="path1073"
         stroke-width="0.25"
         stroke="#000000"
         linecap="square"
         d="M4 0 l-4,4" />
    </pattern>
    <symbol
       id="*MODEL_SPACE-4" />
    <symbol
       id="*PAPER_SPACE-8" />
    <marker
       style="overflow:visible"
       refY="0.0"
       refX="0.0"
       orient="auto"
       id="DistanceX-40">
      <path
         id="path1797"
         style="stroke:#000000; stroke-width:0.5"
         d="M 3,-3 L -3,3 M 0,-5 L  0,5" />
    </marker>
    <pattern
       y="0"
       x="0"
       width="8"
       patternUnits="userSpaceOnUse"
       id="Hatch-51"
       height="8">
      <path
         id="path1800"
         stroke-width="0.25"
         stroke="#000000"
         linecap="square"
         d="M8 4 l-4,4" />
      <path
         id="path1802"
         stroke-width="0.25"
         stroke="#000000"
         linecap="square"
         d="M6 2 l-4,4" />
      <path
         id="path1804"
         stroke-width="0.25"
         stroke="#000000"
         linecap="square"
         d="M4 0 l-4,4" />
    </pattern>
    <symbol
       id="*MODEL_SPACE-33" />
    <symbol
       id="*PAPER_SPACE-7" />
    <marker
       style="overflow:visible"
       refY="0.0"
       refX="0.0"
       orient="auto"
       id="DistanceX-38">
      <path
         id="path1884"
         style="stroke:#000000; stroke-width:0.5"
         d="M 3,-3 L -3,3 M 0,-5 L  0,5" />
    </marker>
    <pattern
       y="0"
       x="0"
       width="8"
       patternUnits="userSpaceOnUse"
       id="Hatch-9"
       height="8">
      <path
         id="path1887"
         stroke-width="0.25"
         stroke="#000000"
         linecap="square"
         d="M8 4 l-4,4" />
      <path
         id="path1889"
         stroke-width="0.25"
         stroke="#000000"
         linecap="square"
         d="M6 2 l-4,4" />
      <path
         id="path1891"
         stroke-width="0.25"
         stroke="#000000"
         linecap="square"
         d="M4 0 l-4,4" />
    </pattern>
    <symbol
       id="*MODEL_SPACE-6" />
    <symbol
       id="*PAPER_SPACE-81" />
    <marker
       style="overflow:visible"
       refY="0.0"
       refX="0.0"
       orient="auto"
       id="DistanceX-60">
      <path
         id="path1971"
         style="stroke:#000000; stroke-width:0.5"
         d="M 3,-3 L -3,3 M 0,-5 L  0,5" />
    </marker>
    <pattern
       y="0"
       x="0"
       width="8"
       patternUnits="userSpaceOnUse"
       id="Hatch-11"
       height="8">
      <path
         id="path1974"
         stroke-width="0.25"
         stroke="#000000"
         linecap="square"
         d="M8 4 l-4,4" />
      <path
         id="path1976"
         stroke-width="0.25"
         stroke="#000000"
         linecap="square"
         d="M6 2 l-4,4" />
      <path
         id="path1978"
         stroke-width="0.25"
         stroke="#000000"
         linecap="square"
         d="M4 0 l-4,4" />
    </pattern>
    <symbol
       id="*MODEL_SPACE-40" />
    <symbol
       id="*PAPER_SPACE-77" />
  </defs>
  <sodipodi:namedview
     id="base"
     pagecolor="#ffffff"
     bordercolor="#666666"
     borderopacity="1.0"
     inkscape:pageopacity="0.0"
     inkscape:pageshadow="2"
     inkscape:zoom="0.98994949"
     inkscape:cx="270.23708"
     inkscape:cy="776.69775"
     inkscape:document-units="mm"
     inkscape:current-layer="layer1"
     showgrid="false"
     inkscape:window-width="2560"
     inkscape:window-height="1377"
     inkscape:window-x="-8"
     inkscape:window-y="-8"
     inkscape:window-maximized="1" />
  <metadata
     id="metadata5">
    <rdf:RDF>
      <cc:Work
         rdf:about="">
        <dc:format>image/svg+xml</dc:format>
        <dc:type
           rdf:resource="http://purl.org/dc/dcmitype/StillImage" />
        <dc:title></dc:title>
      </cc:Work>
    </rdf:RDF>
  </metadata>
  <g
     inkscape:label="Layer 1"
     inkscape:groupmode="layer"
     id="layer1"
     transform="translate(0,3)">
    <g
       id="g2021"
       inkscape:label="0"
       transform="matrix(0.26458333,0,0,0.26458333,52.837504,-207.41249)">
      <path
         id="path1985"
         style="fill:none;stroke:#000000"
         d="m 1222.4882,1082.8346 a 4.251969,4.251969 0 1 0 -8.5039,0 4.251969,4.251969 0 1 0 8.5039,0 z"
         inkscape:connector-curvature="0" />
      <path
         id="path1987"
         style="fill:none;stroke:#000000"
         d="m 390.17323,1613.1969 a 4.25197,4.25197 0 1 0 -8.50394,0 4.25197,4.25197 0 1 0 8.50394,0 z"
         inkscape:connector-curvature="0" />
      <path
         id="path1989"
         style="fill:none;stroke:#000000"
         d="m -25.984252,1082.8346 a 4.251969,4.251969 0 1 0 -8.503937,0 4.251969,4.251969 0 1 0 8.503937,0 z"
         inkscape:connector-curvature="0" />
      <path
         id="path1991"
         style="fill:none;stroke:#000000"
         d="m 806.33071,1613.1969 a 4.25197,4.25197 0 1 0 -8.50394,0 4.25197,4.25197 0 1 0 8.50394,0 z"
         inkscape:connector-curvature="0" />
      <path
         id="path1993"
         style="fill:none;stroke:#000000"
         d="m 806.33071,1082.8346 a 4.25197,4.25197 0 1 0 -8.50394,0 4.25197,4.25197 0 1 0 8.50394,0 z"
         inkscape:connector-curvature="0" />
      <path
         id="path1995"
         style="fill:none;stroke:#000000"
         d="m 1222.4882,1348.0157 a 4.251969,4.251969 0 1 0 -8.5039,0 4.251969,4.251969 0 1 0 8.5039,0 z"
         inkscape:connector-curvature="0" />
      <path
         id="path1997"
         style="fill:none;stroke:#000000"
         d="m -25.984252,1613.1969 a 4.251969,4.251969 0 1 0 -8.503937,0 4.251969,4.251969 0 1 0 8.503937,0 z"
         inkscape:connector-curvature="0" />
      <path
         id="path1999"
         style="fill:none;stroke:#000000"
         d="m -25.984252,1348.0157 a 4.251969,4.251969 0 1 0 -8.503937,0 4.251969,4.251969 0 1 0 8.503937,0 z"
         inkscape:connector-curvature="0" />
      <path
         id="path2001"
         style="fill:none;stroke:#000000"
         d="m 1222.4882,1613.1969 a 4.251969,4.251969 0 1 0 -8.5039,0 4.251969,4.251969 0 1 0 8.5039,0 z"
         inkscape:connector-curvature="0" />
      <path
         id="path2003"
         style="fill:none;stroke:#000000"
         d="m 390.17323,1082.8346 a 4.25197,4.25197 0 1 0 -8.50394,0 4.25197,4.25197 0 1 0 8.50394,0 z"
         inkscape:connector-curvature="0" />
      <path
         id="path2005"
         style="fill:none;stroke:#000000"
         d="m -18.897638,1632.0945 a 37.795276,37.795276 0 0 1 -37.795275,-37.7953 v -509.5748 a 37.795276,37.795276 0 0 1 37.795275,-37.7953 H 1206.8976 a 37.795276,37.795276 0 0 1 37.7953,37.7953 v 509.5748 a 37.795276,37.795276 0 0 1 -37.7953,37.7953 z"
         inkscape:connector-curvature="0" />
      <path
         id="path2007"
         style="fill:none;stroke:#000000"
         d="m 1008.1871,1433.1024 a 3.779528,3.779528 0 0 1 3.7795,-3.7796 h 68.2224 a 3.779528,3.779528 0 0 0 3.7795,-3.7795 v -209.4331 a 3.779528,3.779528 0 0 0 -3.7795,-3.7795 H 0 a 3.779528,3.779528 0 0 0 -3.779528,3.7795 v 354.4252 A 3.779528,3.779528 0 0 0 0,1574.315 h 932.40756 a 3.779528,3.779528 0 0 0 3.77953,-3.7796 v -66.0491 a 3.779528,3.779528 0 0 1 3.77952,-3.7795 h 64.44099 a 3.779528,3.779528 0 0 0 3.7795,-3.7796 z"
         inkscape:connector-curvature="0" />
      <path
         id="path2009"
         style="fill:none;stroke:#000000"
         d="m 1105.748,1514.5512 a 3.779528,3.779528 0 0 1 -3.7795,-3.7795 v -64.441 a 3.779528,3.779528 0 0 0 -3.7795,-3.7795 h -72.378 a 3.779528,3.779528 0 0 0 -3.7795,3.7795 v 64.441 a 3.779528,3.779528 0 0 1 -3.7795,3.7795 h -64.44098 a 3.779528,3.779528 0 0 0 -3.77952,3.7795 v 72.189 a 3.779528,3.779528 0 0 0 3.77952,3.7795 H 1170.189 a 3.779528,3.779528 0 0 0 3.7795,-3.7795 v -72.189 a 3.779528,3.779528 0 0 0 -3.7795,-3.7795 z"
         inkscape:connector-curvature="0" />
      <path
         id="path2011"
         style="fill:none;stroke:#000000"
         d="m 146.98819,1196.315 h 282.02362 a 3.779528,3.779528 0 0 0 3.77953,-3.7796 v -68.0315 a 3.779528,3.779528 0 0 0 -3.77953,-3.7795 H 146.98819 a 3.779528,3.779528 0 0 0 -3.77953,3.7795 v 68.0315 a 3.779528,3.779528 0 0 0 3.77953,3.7796 z"
         inkscape:connector-curvature="0" />
      <path
         id="path2013"
         style="fill:none;stroke:#000000"
         d="m 72.791339,1192.5354 v -68.0315 a 3.779528,3.779528 0 0 0 -3.779528,-3.7795 H 0 a 3.779528,3.779528 0 0 0 -3.779528,3.7795 v 68.0315 A 3.779528,3.779528 0 0 0 0,1196.315 h 69.011811 a 3.779528,3.779528 0 0 0 3.779528,-3.7796 z"
         inkscape:connector-curvature="0" />
      <path
         id="path2015"
         style="fill:none;stroke:#000000"
         d="m 1083.9685,1192.5354 v -68.0315 a 3.779528,3.779528 0 0 0 -3.7795,-3.7795 H 793.98425 a 3.779528,3.779528 0 0 0 -3.77953,3.7795 v 68.0315 a 3.779528,3.779528 0 0 0 3.77953,3.7796 H 1080.189 a 3.779528,3.779528 0 0 0 3.7795,-3.7796 z"
         inkscape:connector-curvature="0" />
      <path
         id="path2017"
         style="fill:none;stroke:#000000"
         d="m 470.98819,1196.315 h 282.02362 a 3.779528,3.779528 0 0 0 3.77953,-3.7796 v -68.0315 a 3.779528,3.779528 0 0 0 -3.77953,-3.7795 H 470.98819 a 3.779528,3.779528 0 0 0 -3.77953,3.7795 v 68.0315 a 3.779528,3.779528 0 0 0 3.77953,3.7796 z"
         inkscape:connector-curvature="0" />
      <path
         id="path2019"
         style="fill:none;stroke:#000000"
         d="m 1188.189,1496.9291 v -208.8189 a 3.779528,3.779528 0 0 0 -3.7796,-3.7795 h -64.8188 a 3.779528,3.779528 0 0 0 -3.7796,3.7795 v 208.8189 a 3.779528,3.779528 0 0 0 3.7796,3.7796 h 64.8188 a 3.779528,3.779528 0 0 0 3.7796,-3.7796 z"
         inkscape:connector-curvature="0" />
    </g>
  </g>
</svg>
