M48
INCH,TZ
T1C0.0709
T2C0.0866
T3C0.1200
T4C0.1570
%
G90
G05
T1
X14.0969Y-4.3594
X14.4969Y-4.3594
X16.0656Y-6.6094
X16.4656Y-6.6094
X17.5656Y-5.1094
X17.9656Y-5.1094
X14.6594Y-5.8594
X15.0594Y-5.8594
X12.7844Y-5.1094
X13.1844Y-5.1094
X10.1594Y-5.8594
X10.5594Y-5.8594
X14.8469Y-4.3594
X15.2469Y-4.3594
X11.8469Y-4.3594
X12.2469Y-4.3594
X8.8469Y-4.3594
X9.2469Y-4.3594
X12.4094Y-5.8594
X12.8094Y-5.8594
X12.0344Y-5.1094
X12.4344Y-5.1094
X17.0031Y-5.8594
X17.4031Y-5.8594
X11.0969Y-4.3594
X11.4969Y-4.3594
X8.1906Y-5.1094
X8.5906Y-5.1094
X7.1594Y-4.3594
X7.5594Y-4.3594
X16.9094Y-6.6094
X17.3094Y-6.6094
X13.1594Y-5.8594
X13.5594Y-5.8594
X11.6594Y-5.8594
X12.0594Y-5.8594
X9.0344Y-5.1094
X9.4344Y-5.1094
X15.0344Y-5.1094
X15.4344Y-5.1094
X10.5344Y-5.1094
X10.9344Y-5.1094
X16.3469Y-4.3594
X16.7469Y-4.3594
X15.217Y-6.608
X15.617Y-6.608
X17.8469Y-5.8594
X18.2469Y-5.8594
X9.8773Y-6.6094
X10.2773Y-6.6094
X7.1602Y-6.6094
X7.5602Y-6.6094
X10.718Y-6.609
X11.118Y-6.609
X7.1594Y-5.8594
X7.5594Y-5.8594
X14.2844Y-5.1094
X14.6844Y-5.1094
X12.5969Y-4.3594
X12.9969Y-4.3594
X16.1594Y-5.8594
X16.5594Y-5.8594
X9.7844Y-5.1094
X10.1844Y-5.1094
X13.3469Y-4.3594
X13.7469Y-4.3594
X13.811Y-6.609
X14.211Y-6.609
X11.936Y-6.609
X12.336Y-6.609
X16.5344Y-5.1094
X16.9344Y-5.1094
X15.7844Y-5.1094
X16.1844Y-5.1094
X13.9094Y-5.8594
X14.3094Y-5.8594
X15.5969Y-4.3594
X15.9969Y-4.3594
X17.0969Y-4.3594
X17.4969Y-4.3594
X7.1594Y-5.1094
X7.5594Y-5.1094
X8.0969Y-4.3594
X8.4969Y-4.3594
X9.0344Y-6.6094
X9.4344Y-6.6094
X13.5344Y-5.1094
X13.9344Y-5.1094
X8.3781Y-5.8594
X8.7781Y-5.8594
X11.2844Y-5.1094
X11.6844Y-5.1094
X10.9094Y-5.8594
X11.3094Y-5.8594
X17.8469Y-4.3594
X18.2469Y-4.3594
X9.5969Y-4.3594
X9.9969Y-4.3594
X12.9719Y-6.6094
X13.3719Y-6.6094
X15.4094Y-5.8594
X15.8094Y-5.8594
X9.4094Y-5.8594
X9.8094Y-5.8594
X10.3469Y-4.3594
X10.7469Y-4.3594
T2
X14.8585Y-6.324
X12.234Y-5.4815
X15.046Y-4.7315
X8.2965Y-4.731
X17.7655Y-5.4815
X9.6085Y-6.2315
T3
X13.541Y-6.334
X14.481Y-6.334
X11.666Y-6.334
X12.606Y-6.334
X10.9219Y-6.3344
X10.9219Y-6.3344
X15.4219Y-6.3344
T4
X12.6094Y-5.8594
X12.2344Y-5.1094
X17.2031Y-5.8594
X11.2969Y-4.3594
X8.3906Y-5.1094
X7.3594Y-4.3594
X17.1094Y-6.6094
X13.3594Y-5.8594
X11.8594Y-5.8594
X9.2344Y-5.1094
X15.2344Y-5.1094
X10.7344Y-5.1094
X16.5469Y-4.3594
X15.417Y-6.608
X18.0469Y-5.8594
X10.0773Y-6.6094
X7.3602Y-6.6094
X10.918Y-6.609
X7.3594Y-5.8594
X14.4844Y-5.1094
X12.7969Y-4.3594
X16.3594Y-5.8594
X9.9844Y-5.1094
X13.5469Y-4.3594
X13.541Y-6.934
X14.011Y-6.609
X14.481Y-6.934
X11.666Y-6.934
X12.136Y-6.609
X12.606Y-6.934
X16.7344Y-5.1094
X15.9844Y-5.1094
X14.1094Y-5.8594
X15.7969Y-4.3594
X17.2969Y-4.3594
X7.3594Y-5.1094
X8.2969Y-4.3594
X9.2344Y-6.6094
X13.7344Y-5.1094
X8.5781Y-5.8594
X11.4844Y-5.1094
X11.1094Y-5.8594
X18.0469Y-4.3594
X9.7969Y-4.3594
X10.9219Y-6.9344
X10.9219Y-6.9344
X13.1719Y-6.6094
X15.4219Y-6.9344
X15.6094Y-5.8594
X9.6094Y-5.8594
X10.5469Y-4.3594
X14.2969Y-4.3594
X16.2656Y-6.6094
X17.7656Y-5.1094
X14.8594Y-5.8594
X12.9844Y-5.1094
X10.3594Y-5.8594
X15.0469Y-4.3594
X12.0469Y-4.3594
X9.0469Y-4.3594
T0
M30
