G04 #@! TF.GenerationSoftware,KiCad,Pcbnew,(5.0.0)*
G04 #@! TF.CreationDate,2019-08-23T11:13:26-06:00*
G04 #@! TF.ProjectId,CK50,434B35302E6B696361645F7063620000,rev?*
G04 #@! TF.SameCoordinates,Original*
G04 #@! TF.FileFunction,Soldermask,Bot*
G04 #@! TF.FilePolarity,Negative*
%FSLAX46Y46*%
G04 Gerber Fmt 4.6, Leading zero omitted, Abs format (unit mm)*
G04 Created by KiCad (PCBNEW (5.0.0)) date 08/23/19 11:13:26*
%MOMM*%
%LPD*%
G01*
G04 APERTURE LIST*
%ADD10C,2.686000*%
%ADD11C,2.152600*%
%ADD12R,2.152600X2.152600*%
%ADD13R,2.000000X2.000000*%
%ADD14C,2.000000*%
%ADD15R,1.600000X2.000000*%
%ADD16C,2.600000*%
G04 APERTURE END LIST*
D10*
G04 #@! TO.C,K51*
X387781800Y-165303200D03*
X394131800Y-162763200D03*
G04 #@! TD*
G04 #@! TO.C,K45.2*
X352069400Y-165328600D03*
X358419400Y-162788600D03*
G04 #@! TD*
G04 #@! TO.C,K50*
X304444400Y-165328600D03*
X310794400Y-162788600D03*
G04 #@! TD*
G04 #@! TO.C,K49*
X273507200Y-165328600D03*
X279857200Y-162788600D03*
G04 #@! TD*
D11*
G04 #@! TO.C,U0*
X332638400Y-93248480D03*
X317398400Y-121188480D03*
X332638400Y-95788480D03*
X332638400Y-98328480D03*
X332638400Y-100868480D03*
X332638400Y-103408480D03*
X332638400Y-105948480D03*
X332638400Y-108488480D03*
X332638400Y-111028480D03*
X332638400Y-113568480D03*
X332638400Y-116108480D03*
X332638400Y-118648480D03*
X332638400Y-121188480D03*
X317398400Y-118648480D03*
X317398400Y-116108480D03*
X317398400Y-113568480D03*
X317398400Y-111028480D03*
X317398400Y-108488480D03*
X317398400Y-105948480D03*
X317398400Y-103408480D03*
X317398400Y-100868480D03*
X317398400Y-98328480D03*
X317398400Y-95788480D03*
D12*
X317398400Y-93248480D03*
G04 #@! TD*
D10*
G04 #@! TO.C,K41*
X447436496Y-127238016D03*
X453786496Y-124698016D03*
G04 #@! TD*
G04 #@! TO.C,K26*
X421242768Y-127238016D03*
X427592768Y-124698016D03*
G04 #@! TD*
D13*
G04 #@! TO.C,D0*
X195262336Y-114002248D03*
D14*
X195262336Y-106202248D03*
D15*
X195262336Y-108702248D03*
X195262336Y-111502248D03*
G04 #@! TD*
D13*
G04 #@! TO.C,D1*
X219074816Y-113704592D03*
D14*
X219074816Y-105904592D03*
D15*
X219074816Y-108404592D03*
X219074816Y-111204592D03*
G04 #@! TD*
D13*
G04 #@! TO.C,D2*
X238124800Y-113704592D03*
D14*
X238124800Y-105904592D03*
D15*
X238124800Y-108404592D03*
X238124800Y-111204592D03*
G04 #@! TD*
D13*
G04 #@! TO.C,D3*
X257174784Y-113704592D03*
D14*
X257174784Y-105904592D03*
D15*
X257174784Y-108404592D03*
X257174784Y-111204592D03*
G04 #@! TD*
D13*
G04 #@! TO.C,D4*
X276224768Y-113704592D03*
D14*
X276224768Y-105904592D03*
D15*
X276224768Y-108404592D03*
X276224768Y-111204592D03*
G04 #@! TD*
G04 #@! TO.C,D5*
X295274752Y-111204592D03*
X295274752Y-108404592D03*
D14*
X295274752Y-105904592D03*
D13*
X295274752Y-113704592D03*
G04 #@! TD*
G04 #@! TO.C,D6*
X314324736Y-113735064D03*
D14*
X314324736Y-105935064D03*
D15*
X314324736Y-108435064D03*
X314324736Y-111235064D03*
G04 #@! TD*
D13*
G04 #@! TO.C,D7*
X336053624Y-113735064D03*
D14*
X336053624Y-105935064D03*
D15*
X336053624Y-108435064D03*
X336053624Y-111235064D03*
G04 #@! TD*
G04 #@! TO.C,D8*
X352722360Y-111204592D03*
X352722360Y-108404592D03*
D14*
X352722360Y-105904592D03*
D13*
X352722360Y-113704592D03*
G04 #@! TD*
D15*
G04 #@! TO.C,D9*
X371772344Y-111502248D03*
X371772344Y-108702248D03*
D14*
X371772344Y-106202248D03*
D13*
X371772344Y-114002248D03*
G04 #@! TD*
G04 #@! TO.C,D10*
X390524672Y-113765536D03*
D14*
X390524672Y-105965536D03*
D15*
X390524672Y-108465536D03*
X390524672Y-111265536D03*
G04 #@! TD*
G04 #@! TO.C,D11*
X409574656Y-111563192D03*
X409574656Y-108763192D03*
D14*
X409574656Y-106263192D03*
D13*
X409574656Y-114063192D03*
G04 #@! TD*
G04 #@! TO.C,D12*
X428624640Y-113765536D03*
D14*
X428624640Y-105965536D03*
D15*
X428624640Y-108465536D03*
X428624640Y-111265536D03*
G04 #@! TD*
D13*
G04 #@! TO.C,D13*
X466724608Y-113765536D03*
D14*
X466724608Y-105965536D03*
D15*
X466724608Y-108465536D03*
X466724608Y-111265536D03*
G04 #@! TD*
D13*
G04 #@! TO.C,D14*
X195559992Y-127217864D03*
D14*
X195559992Y-119417864D03*
D15*
X195559992Y-121917864D03*
X195559992Y-124717864D03*
G04 #@! TD*
G04 #@! TO.C,D15*
X221753720Y-124717864D03*
X221753720Y-121917864D03*
D14*
X221753720Y-119417864D03*
D13*
X221753720Y-127217864D03*
G04 #@! TD*
G04 #@! TO.C,D16*
X242887296Y-127099112D03*
D14*
X242887296Y-119299112D03*
D15*
X242887296Y-121799112D03*
X242887296Y-124599112D03*
G04 #@! TD*
G04 #@! TO.C,D17*
X261937280Y-124599112D03*
X261937280Y-121799112D03*
D14*
X261937280Y-119299112D03*
D13*
X261937280Y-127099112D03*
G04 #@! TD*
G04 #@! TO.C,D18*
X280987264Y-127099112D03*
D14*
X280987264Y-119299112D03*
D15*
X280987264Y-121799112D03*
X280987264Y-124599112D03*
G04 #@! TD*
D13*
G04 #@! TO.C,D19*
X300037248Y-127099112D03*
D14*
X300037248Y-119299112D03*
D15*
X300037248Y-121799112D03*
X300037248Y-124599112D03*
G04 #@! TD*
G04 #@! TO.C,D20*
X319087232Y-130849888D03*
X319087232Y-128049888D03*
D14*
X319087232Y-125549888D03*
D13*
X319087232Y-133349888D03*
G04 #@! TD*
D15*
G04 #@! TO.C,D21*
X338137216Y-124599112D03*
X338137216Y-121799112D03*
D14*
X338137216Y-119299112D03*
D13*
X338137216Y-127099112D03*
G04 #@! TD*
D15*
G04 #@! TO.C,D22*
X357187200Y-124599112D03*
X357187200Y-121799112D03*
D14*
X357187200Y-119299112D03*
D13*
X357187200Y-127099112D03*
G04 #@! TD*
D15*
G04 #@! TO.C,D23*
X376237184Y-124599112D03*
X376237184Y-121799112D03*
D14*
X376237184Y-119299112D03*
D13*
X376237184Y-127099112D03*
G04 #@! TD*
G04 #@! TO.C,D24*
X395287168Y-127160056D03*
D14*
X395287168Y-119360056D03*
D15*
X395287168Y-121860056D03*
X395287168Y-124660056D03*
G04 #@! TD*
D13*
G04 #@! TO.C,D25*
X414337152Y-127099112D03*
D14*
X414337152Y-119299112D03*
D15*
X414337152Y-121799112D03*
X414337152Y-124599112D03*
G04 #@! TD*
D13*
G04 #@! TO.C,D26*
X433387136Y-127099112D03*
D14*
X433387136Y-119299112D03*
D15*
X433387136Y-121799112D03*
X433387136Y-124599112D03*
G04 #@! TD*
G04 #@! TO.C,D27*
X447674624Y-111204592D03*
X447674624Y-108404592D03*
D14*
X447674624Y-105904592D03*
D13*
X447674624Y-113704592D03*
G04 #@! TD*
D15*
G04 #@! TO.C,D28*
X195262336Y-143710040D03*
X195262336Y-140910040D03*
D14*
X195262336Y-138410040D03*
D13*
X195262336Y-146210040D03*
G04 #@! TD*
G04 #@! TO.C,D29*
X233362304Y-146210040D03*
D14*
X233362304Y-138410040D03*
D15*
X233362304Y-140910040D03*
X233362304Y-143710040D03*
G04 #@! TD*
G04 #@! TO.C,D30*
X252412288Y-143710040D03*
X252412288Y-140910040D03*
D14*
X252412288Y-138410040D03*
D13*
X252412288Y-146210040D03*
G04 #@! TD*
G04 #@! TO.C,D31*
X271462272Y-146210040D03*
D14*
X271462272Y-138410040D03*
D15*
X271462272Y-140910040D03*
X271462272Y-143710040D03*
G04 #@! TD*
G04 #@! TO.C,D32*
X290512256Y-143710040D03*
X290512256Y-140910040D03*
D14*
X290512256Y-138410040D03*
D13*
X290512256Y-146210040D03*
G04 #@! TD*
G04 #@! TO.C,D33*
X310750000Y-152050000D03*
D14*
X310750000Y-144250000D03*
D15*
X310750000Y-146750000D03*
X310750000Y-149550000D03*
G04 #@! TD*
G04 #@! TO.C,D34*
X328314568Y-143710040D03*
X328314568Y-140910040D03*
D14*
X328314568Y-138410040D03*
D13*
X328314568Y-146210040D03*
G04 #@! TD*
G04 #@! TO.C,D35*
X347662208Y-146210040D03*
D14*
X347662208Y-138410040D03*
D15*
X347662208Y-140910040D03*
X347662208Y-143710040D03*
G04 #@! TD*
G04 #@! TO.C,D36*
X366712192Y-143649096D03*
X366712192Y-140849096D03*
D14*
X366712192Y-138349096D03*
D13*
X366712192Y-146149096D03*
G04 #@! TD*
D15*
G04 #@! TO.C,D37*
X385762176Y-143710040D03*
X385762176Y-140910040D03*
D14*
X385762176Y-138410040D03*
D13*
X385762176Y-146210040D03*
G04 #@! TD*
G04 #@! TO.C,D38*
X404812160Y-146149096D03*
D14*
X404812160Y-138349096D03*
D15*
X404812160Y-140849096D03*
X404812160Y-143649096D03*
G04 #@! TD*
G04 #@! TO.C,D39*
X423862144Y-143649096D03*
X423862144Y-140849096D03*
D14*
X423862144Y-138349096D03*
D13*
X423862144Y-146149096D03*
G04 #@! TD*
G04 #@! TO.C,D40*
X447674624Y-146210040D03*
D14*
X447674624Y-138410040D03*
D15*
X447674624Y-140910040D03*
X447674624Y-143710040D03*
G04 #@! TD*
G04 #@! TO.C,D41*
X466724608Y-124660056D03*
X466724608Y-121860056D03*
D14*
X466724608Y-119360056D03*
D13*
X466724608Y-127160056D03*
G04 #@! TD*
G04 #@! TO.C,D43*
X245500000Y-170550000D03*
D14*
X245500000Y-162750000D03*
D15*
X245500000Y-165250000D03*
X245500000Y-168050000D03*
G04 #@! TD*
G04 #@! TO.C,D44*
X266699776Y-162729552D03*
X266699776Y-159929552D03*
D14*
X266699776Y-157429552D03*
D13*
X266699776Y-165229552D03*
G04 #@! TD*
G04 #@! TO.C,D45*
X347500000Y-164050000D03*
D14*
X347500000Y-156250000D03*
D15*
X347500000Y-158750000D03*
X347500000Y-161550000D03*
G04 #@! TD*
G04 #@! TO.C,D46*
X423862144Y-162760024D03*
X423862144Y-159960024D03*
D14*
X423862144Y-157460024D03*
D13*
X423862144Y-165260024D03*
G04 #@! TD*
G04 #@! TO.C,D47*
X442912128Y-165199080D03*
D14*
X442912128Y-157399080D03*
D15*
X442912128Y-159899080D03*
X442912128Y-162699080D03*
G04 #@! TD*
G04 #@! TO.C,D48*
X466426952Y-143767848D03*
X466426952Y-140967848D03*
D14*
X466426952Y-138467848D03*
D13*
X466426952Y-146267848D03*
G04 #@! TD*
G04 #@! TO.C,D420*
X195559992Y-165496736D03*
D14*
X195559992Y-157696736D03*
D15*
X195559992Y-160196736D03*
X195559992Y-162996736D03*
G04 #@! TD*
D10*
G04 #@! TO.C,K0*
X189468125Y-105648125D03*
X183118125Y-108188125D03*
G04 #@! TD*
G04 #@! TO.C,K1*
X213280448Y-105648032D03*
X206930448Y-108188032D03*
G04 #@! TD*
G04 #@! TO.C,K2*
X232330432Y-105648032D03*
X225980432Y-108188032D03*
G04 #@! TD*
G04 #@! TO.C,K3*
X251380416Y-105648032D03*
X245030416Y-108188032D03*
G04 #@! TD*
G04 #@! TO.C,K4*
X270430400Y-105648032D03*
X264080400Y-108188032D03*
G04 #@! TD*
G04 #@! TO.C,K5*
X283130384Y-108188032D03*
X289480384Y-105648032D03*
G04 #@! TD*
G04 #@! TO.C,K6*
X302180368Y-108188032D03*
X308530368Y-105648032D03*
G04 #@! TD*
G04 #@! TO.C,K7*
X327580352Y-105648032D03*
X321230352Y-108188032D03*
G04 #@! TD*
G04 #@! TO.C,K8*
X340280336Y-108188032D03*
X346630336Y-105648032D03*
G04 #@! TD*
G04 #@! TO.C,K9*
X365680320Y-105648032D03*
X359330320Y-108188032D03*
G04 #@! TD*
G04 #@! TO.C,K10*
X378380304Y-108188032D03*
X384730304Y-105648032D03*
G04 #@! TD*
G04 #@! TO.C,K11*
X403780288Y-105648032D03*
X397430288Y-108188032D03*
G04 #@! TD*
G04 #@! TO.C,K12*
X416480272Y-108188032D03*
X422830272Y-105648032D03*
G04 #@! TD*
G04 #@! TO.C,K13*
X454580240Y-108188032D03*
X460930240Y-105648032D03*
G04 #@! TD*
G04 #@! TO.C,K14*
X183117968Y-127238016D03*
X189467968Y-124698016D03*
G04 #@! TD*
G04 #@! TO.C,K15*
X215661696Y-124698016D03*
X209311696Y-127238016D03*
G04 #@! TD*
G04 #@! TO.C,K16*
X230742928Y-127238016D03*
X237092928Y-124698016D03*
G04 #@! TD*
G04 #@! TO.C,K17*
X256142912Y-124698016D03*
X249792912Y-127238016D03*
G04 #@! TD*
G04 #@! TO.C,K18*
X275192896Y-124698016D03*
X268842896Y-127238016D03*
G04 #@! TD*
G04 #@! TO.C,K19*
X294242880Y-124698016D03*
X287892880Y-127238016D03*
G04 #@! TD*
G04 #@! TO.C,K20*
X306942864Y-127238016D03*
X313292864Y-124698016D03*
G04 #@! TD*
G04 #@! TO.C,K21*
X332342848Y-124698016D03*
X325992848Y-127238016D03*
G04 #@! TD*
G04 #@! TO.C,K22*
X345042832Y-127238016D03*
X351392832Y-124698016D03*
G04 #@! TD*
G04 #@! TO.C,K23*
X364092816Y-127238016D03*
X370442816Y-124698016D03*
G04 #@! TD*
G04 #@! TO.C,K24*
X389492800Y-124698016D03*
X383142800Y-127238016D03*
G04 #@! TD*
G04 #@! TO.C,K25*
X402192784Y-127238016D03*
X408542784Y-124698016D03*
G04 #@! TD*
G04 #@! TO.C,K27*
X441880256Y-105648032D03*
X435530256Y-108188032D03*
G04 #@! TD*
G04 #@! TO.C,K28*
X189467968Y-143748000D03*
X183117968Y-146288000D03*
G04 #@! TD*
G04 #@! TO.C,K29*
X214074192Y-146288000D03*
X220424192Y-143748000D03*
G04 #@! TD*
G04 #@! TO.C,K30*
X246617920Y-143748000D03*
X240267920Y-146288000D03*
G04 #@! TD*
G04 #@! TO.C,K31*
X259317904Y-146288000D03*
X265667904Y-143748000D03*
G04 #@! TD*
G04 #@! TO.C,K32*
X278367888Y-146288000D03*
X284717888Y-143748000D03*
G04 #@! TD*
G04 #@! TO.C,K33*
X297417872Y-146288000D03*
X303767872Y-143748000D03*
G04 #@! TD*
G04 #@! TO.C,K34*
X316467856Y-146288000D03*
X322817856Y-143748000D03*
G04 #@! TD*
G04 #@! TO.C,K35*
X341867840Y-143748000D03*
X335517840Y-146288000D03*
G04 #@! TD*
G04 #@! TO.C,K36*
X360917824Y-143748000D03*
X354567824Y-146288000D03*
G04 #@! TD*
G04 #@! TO.C,K37*
X373617808Y-146288000D03*
X379967808Y-143748000D03*
G04 #@! TD*
G04 #@! TO.C,K38*
X399017792Y-143748000D03*
X392667792Y-146288000D03*
G04 #@! TD*
G04 #@! TO.C,K39*
X411717776Y-146288000D03*
X418067776Y-143748000D03*
G04 #@! TD*
G04 #@! TO.C,K40*
X433149008Y-146288000D03*
X439499008Y-143748000D03*
G04 #@! TD*
G04 #@! TO.C,K43*
X230742928Y-165337984D03*
X237092928Y-162797984D03*
G04 #@! TD*
G04 #@! TO.C,K44*
X252154312Y-165337984D03*
X258504312Y-162797984D03*
G04 #@! TD*
G04 #@! TO.C,K45*
X337105344Y-162797984D03*
X330755344Y-165337984D03*
G04 #@! TD*
G04 #@! TO.C,K46*
X415686528Y-162797984D03*
X409336528Y-165337984D03*
G04 #@! TD*
G04 #@! TO.C,K47*
X430767760Y-165337984D03*
X437117760Y-162797984D03*
G04 #@! TD*
G04 #@! TO.C,K48*
X460930240Y-143748000D03*
X454580240Y-146288000D03*
G04 #@! TD*
G04 #@! TO.C,K420*
X183137816Y-165337984D03*
X189487816Y-162797984D03*
G04 #@! TD*
D16*
G04 #@! TO.C,H2*
X382168400Y-120180100D03*
G04 #@! TD*
G04 #@! TO.C,H0*
X451243700Y-139230100D03*
G04 #@! TD*
G04 #@! TO.C,H1*
X377405900Y-160629600D03*
G04 #@! TD*
G04 #@! TO.C,H4*
X244055900Y-158280100D03*
G04 #@! TD*
G04 #@! TO.C,H5*
X210731100Y-120167400D03*
G04 #@! TD*
G04 #@! TO.C,H3*
X310743600Y-139230100D03*
G04 #@! TD*
D15*
G04 #@! TO.C,D49*
X287147000Y-159940800D03*
X287147000Y-162740800D03*
D14*
X287147000Y-157440800D03*
D13*
X287147000Y-165240800D03*
G04 #@! TD*
G04 #@! TO.C,D50*
X325501000Y-164986800D03*
D14*
X325501000Y-157186800D03*
D15*
X325501000Y-162486800D03*
X325501000Y-159686800D03*
G04 #@! TD*
G04 #@! TO.C,D51*
X401294600Y-159966200D03*
X401294600Y-162766200D03*
D14*
X401294600Y-157466200D03*
D13*
X401294600Y-165266200D03*
G04 #@! TD*
M02*
