M48
INCH,TZ
T1C0.0157
T2C0.0394
T3C0.0430
T4C0.0590
%
G90
G05
T1
X12.1161Y-3.9862
X12.1457Y-3.9567
X12.185Y-4.6654
X12.2047Y-4.7638
X12.5689Y-4.124
X12.5886Y-4.6654
X12.6083Y-5.3445
X12.6969Y-4.8819
X12.76Y-3.8505
X12.815Y-3.878
X12.8642Y-3.9173
X12.9134Y-3.9469
X12.9528Y-3.9862
X13.002Y-4.0157
X17.0374Y-4.5472
X17.0571Y-4.5954
X17.2638Y-5.2264
X17.4409Y-5.9646
T2
X15.5625Y-4.6992
X15.5625Y-5.0063
X16.6875Y-6.1992
X16.6875Y-6.5063
X10.125Y-4.1695
X10.125Y-4.4766
X10.875Y-4.1695
X10.875Y-4.4766
X8.625Y-4.1695
X8.625Y-4.4766
X12.5625Y-4.9429
X12.5625Y-5.25
X14.8125Y-4.6968
X14.8125Y-5.0039
X9.1875Y-5.4492
X9.1875Y-5.7563
X17.625Y-5.4492
X17.625Y-5.7563
X10.5Y-6.198
X10.5Y-6.5051
X18.3633Y-5.4515
X18.3633Y-5.7586
X16.125Y-4.1836
X16.125Y-4.4907
X7.6875Y-4.1812
X7.6875Y-4.4883
X16.3125Y-4.6968
X16.3125Y-5.0039
X13.3125Y-4.6968
X13.3125Y-5.0039
X11.0625Y-4.6968
X11.0625Y-5.0039
X15.9375Y-5.4468
X15.9375Y-5.7539
X9.6654Y-6.4075
X9.6654Y-6.7146
X15.375Y-4.1719
X15.375Y-4.479
X9.5625Y-4.6968
X9.5625Y-5.0039
X10.6875Y-5.4492
X10.6875Y-5.7563
X11.8125Y-4.6968
X11.8125Y-5.0039
X17.0625Y-4.6968
X17.0625Y-5.0039
X18.375Y-4.6992
X18.375Y-5.0063
X14.4375Y-5.4468
X14.4375Y-5.7539
X14.6367Y-4.1812
X14.6367Y-4.4883
X8.7305Y-4.7015
X8.7305Y-5.0086
X7.6875Y-5.4492
X7.6875Y-5.7563
X14.0625Y-4.6968
X14.0625Y-5.0039
X17.4375Y-6.1968
X17.4375Y-6.5039
X15.1875Y-5.4492
X15.1875Y-5.7563
X13.6875Y-5.4492
X13.6875Y-5.7563
X16.875Y-4.1719
X16.875Y-4.479
X9.375Y-4.1695
X9.375Y-4.4766
X7.6992Y-4.7015
X7.6992Y-5.0086
X12.9258Y-5.4492
X12.9258Y-5.7563
X10.3125Y-4.6968
X10.3125Y-5.0039
X13.6811Y-6.1516
X13.6811Y-6.4587
X7.6992Y-6.2085
X7.6992Y-6.5156
X13.8867Y-4.1695
X13.8867Y-4.4766
X11.305Y-6.1985
X11.305Y-6.5055
X18.375Y-4.1719
X18.375Y-4.479
X12.815Y-6.1885
X12.815Y-6.4955
X12.2343Y-5.6791
X12.2343Y-5.9862
X11.4375Y-5.4492
X11.4375Y-5.7563
X15.799Y-6.1995
X15.799Y-6.5065
X16.6875Y-5.4468
X16.6875Y-5.7539
X13.2305Y-4.1707
X13.2305Y-4.4778
X11.625Y-4.1695
X11.625Y-4.4766
X12.375Y-4.1707
X12.375Y-4.4778
X17.625Y-4.1695
X17.625Y-4.4766
X9.9375Y-5.4492
X9.9375Y-5.7563
T3
X12.496Y-3.6712
X12.496Y-3.7712
X12.496Y-3.8712
X12.496Y-3.9712
X12.496Y-4.0712
X12.496Y-4.1712
X12.496Y-4.2712
X12.496Y-4.3712
X12.496Y-4.4712
X12.496Y-4.5712
X12.496Y-4.6712
X12.496Y-4.7712
X13.096Y-3.6712
X13.096Y-3.7712
X13.096Y-3.8712
X13.096Y-3.9712
X13.096Y-4.0712
X13.096Y-4.1712
X13.096Y-4.2712
X13.096Y-4.3712
X13.096Y-4.4712
X13.096Y-4.5712
X13.096Y-4.6712
X13.096Y-4.7712
T4
X16.1156Y-6.5094
X16.3656Y-6.4094
X17.6156Y-5.0094
X17.8656Y-4.9094
X14.7094Y-5.7594
X14.9594Y-5.6594
X12.8344Y-5.0094
X13.0844Y-4.9094
X10.2094Y-5.7594
X10.4594Y-5.6594
X14.8969Y-4.2594
X15.1469Y-4.1594
X11.8969Y-4.2594
X12.1469Y-4.1594
X8.8969Y-4.2594
X9.1469Y-4.1594
X12.4594Y-5.7594
X12.7094Y-5.6594
X12.0844Y-5.0094
X12.3344Y-4.9094
X17.0531Y-5.7594
X17.3031Y-5.6594
X11.1469Y-4.2594
X11.3969Y-4.1594
X8.2406Y-5.0094
X8.4906Y-4.9094
X7.2094Y-4.2594
X7.4594Y-4.1594
X16.9594Y-6.5094
X17.2094Y-6.4094
X13.2094Y-5.7594
X13.4594Y-5.6594
X11.7094Y-5.7594
X11.9594Y-5.6594
X9.0844Y-5.0094
X9.3344Y-4.9094
X15.0844Y-5.0094
X15.3344Y-4.9094
X10.5844Y-5.0094
X10.8344Y-4.9094
X16.3969Y-4.2594
X16.6469Y-4.1594
X15.267Y-6.508
X15.517Y-6.408
X17.8969Y-5.7594
X18.1469Y-5.6594
X9.9273Y-6.5094
X10.1773Y-6.4094
X7.2102Y-6.5094
X7.4602Y-6.4094
X10.768Y-6.509
X11.018Y-6.409
X7.2094Y-5.7594
X7.4594Y-5.6594
X14.3344Y-5.0094
X14.5844Y-4.9094
X12.6469Y-4.2594
X12.8969Y-4.1594
X16.2094Y-5.7594
X16.4594Y-5.6594
X9.8344Y-5.0094
X10.0844Y-4.9094
X13.3969Y-4.2594
X13.6469Y-4.1594
X13.861Y-6.509
X14.111Y-6.409
X11.986Y-6.509
X12.236Y-6.409
X16.5844Y-5.0094
X16.8344Y-4.9094
X15.8344Y-5.0094
X16.0844Y-4.9094
X13.9594Y-5.7594
X14.2094Y-5.6594
X15.6469Y-4.2594
X15.8969Y-4.1594
X17.1469Y-4.2594
X17.3969Y-4.1594
X7.2094Y-5.0094
X7.4594Y-4.9094
X8.1469Y-4.2594
X8.3969Y-4.1594
X9.0844Y-6.5094
X9.3344Y-6.4094
X13.5844Y-5.0094
X13.8344Y-4.9094
X8.4281Y-5.7594
X8.6781Y-5.6594
X11.3344Y-5.0094
X11.5844Y-4.9094
X10.9594Y-5.7594
X11.2094Y-5.6594
X17.8969Y-4.2594
X18.1469Y-4.1594
X9.6469Y-4.2594
X9.8969Y-4.1594
X13.0219Y-6.5094
X13.2719Y-6.4094
X15.4594Y-5.7594
X15.7094Y-5.6594
X9.4594Y-5.7594
X9.7094Y-5.6594
X10.3969Y-4.2594
X10.6469Y-4.1594
X14.1469Y-4.2594
X14.3969Y-4.1594
T0
M30
