0
SECTION
2
HEADER
9
$INSUNITS
70
4
9
$ACADVER
1
AC1014
9
$HANDSEED
5
FFFF
0
ENDSEC
0
SECTION
2
TABLES
0
TABLE
2
VPORT
5
8
100
AcDbSymbolTable
0
ENDTAB
0
TABLE
2
LTYPE
5
5
100
AcDbSymbolTable
0
LTYPE
5
14
100
AcDbSymbolTableRecord
100
AcDbLinetypeTableRecord
2
BYBLOCK
70
0
0
LTYPE
5
15
100
AcDbSymbolTableRecord
100
AcDbLinetypeTableRecord
2
BYLAYER
70
0
0
ENDTAB
0
TABLE
2
LAYER
5
2
100
AcDbSymbolTable
70
2
0
LAYER
5
50
100
AcDbSymbolTableRecord
100
AcDbLayerTableRecord
2
0
70
0
6
CONTINUOUS
0
ENDTAB
0
TABLE
2
STYLE
5
3
100
AcDbSymbolTable
70
1
0
STYLE
5
11
100
AcDbSymbolTableRecord
100
AcDbTextStyleTableRecord
2
STANDARD
70
0
0
ENDTAB
0
TABLE
2
VIEW
5
6
100
AcDbSymbolTable
70
0
0
ENDTAB
0
TABLE
2
UCS
5
7
100
AcDbSymbolTable
70
0
0
ENDTAB
0
TABLE
2
APPID
5
9
100
AcDbSymbolTable
70
2
0
APPID
5
12
100
AcDbSymbolTableRecord
100
AcDbRegAppTableRecord
2
ACAD
70
0
0
ENDTAB
0
TABLE
2
DIMSTYLE
5
A
100
AcDbSymbolTable
70
1
0
ENDTAB
0
TABLE
2
BLOCK_RECORD
5
1
100
AcDbSymbolTable
70
1
0
BLOCK_RECORD
5
1F
100
AcDbSymbolTableRecord
100
AcDbBlockTableRecord
2
*MODEL_SPACE
0
BLOCK_RECORD
5
1B
100
AcDbSymbolTableRecord
100
AcDbBlockTableRecord
2
*PAPER_SPACE
0
ENDTAB
0
ENDSEC
0
SECTION
2
BLOCKS
0
BLOCK
5
20
100
AcDbEntity
100
AcDbBlockBegin
2
*MODEL_SPACE
0
ENDBLK
5
21
100
AcDbEntity
100
AcDbBlockEnd
0
BLOCK
5
1C
100
AcDbEntity
100
AcDbBlockBegin
2
*PAPER_SPACE
0
ENDBLK
5
1D
100
AcDbEntity
100
AcDbBlockEnd
0
ENDSEC
0
SECTION
2
ENTITIES
0
CIRCLE
5
100
100
AcDbEntity
8
0
100
AcDbCircle
10
15.094957165953229
20
73.233456941133682
30
0
40
1.9999999999999996
210
0
220
0
230
1
0
CIRCLE
5
101
100
AcDbEntity
8
0
100
AcDbCircle
10
283.58031968356352
20
73.272482034648448
30
0
40
1.9999999999999929
210
0
220
0
230
1
0
LWPOLYLINE
5
102
100
AcDbEntity
8
0
100
AcDbPolyline
90
6
70
1
43
0.0
10
272.42975209932985
20
96.593199791348709
10
271.71725209932987
20
95.3591135909559
10
272.42975209932985
20
94.125027390563076
10
273.85475209932986
20
94.125027390563076
10
274.56725209932983
20
95.3591135909559
10
273.85475209932986
20
96.593199791348709
0
LWPOLYLINE
5
103
100
AcDbEntity
8
0
100
AcDbPolyline
90
6
70
1
43
0.0
10
24.812958547743953
20
96.593199791348724
10
24.100458547743955
20
95.3591135909559
10
24.81295854774395
20
94.125027390563062
10
26.237958547743965
20
94.125027390563062
10
26.95045854774397
20
95.3591135909559
10
26.237958547743965
20
96.593199791348724
0
LWPOLYLINE
5
104
100
AcDbEntity
8
0
100
AcDbPolyline
90
6
70
1
43
0.0
10
273.89143177499312
20
-8.0009969202554743
10
274.6039317749931
20
-6.7669107198626328
10
273.89143177499307
20
-5.5328245194697825
10
272.46643177499305
20
-5.5328245194698038
10
271.75393177499308
20
-6.7669107198626568
10
272.46643177499311
20
-8.0009969202554903
0
LWPOLYLINE
5
105
100
AcDbEntity
8
0
100
AcDbPolyline
90
6
70
1
43
0.0
10
307.07787055193671
20
45.146767387724502
10
306.36537055193673
20
43.912681187331692
10
307.07787055193671
20
42.678594986938883
10
308.50287055193667
20
42.678594986938883
10
309.21537055193664
20
43.912681187331692
10
308.50287055193667
20
45.146767387724502
0
LWPOLYLINE
5
106
100
AcDbEntity
8
0
100
AcDbPolyline
90
6
70
1
43
0.0
10
-9.8351599048629019
20
45.146767387724516
10
-10.547659904862901
20
43.912681187331692
10
-9.8351599048629019
20
42.678594986938869
10
-8.4101599048629012
20
42.678594986938869
10
-7.6976599048629009
20
43.912681187331692
10
-8.4101599048629012
20
45.146767387724516
0
LWPOLYLINE
5
107
100
AcDbEntity
8
0
100
AcDbPolyline
90
6
70
1
43
0.0
10
26.236097807444306
20
-8.0009969202554583
10
26.948597807444305
20
-6.7669107198626328
10
26.236097807444306
20
-5.5328245194698074
10
24.811097807444305
20
-5.5328245194698074
10
24.098597807444303
20
-6.7669107198626328
10
24.811097807444305
20
-8.0009969202554583
0
LWPOLYLINE
5
108
100
AcDbEntity
8
0
100
AcDbPolyline
90
84
70
1
43
0.0
10
299.038107548791
20
-14.406939127194162
10
297.57412283698892
20
-14.701694386766501
10
296.1079439569844
20
-14.870062474536867
10
294.93699373054648
20
-14.921451899999997
10
3.7639159133096718
20
-14.921451899999997
10
2.5964189292483186
20
-14.870019106326989
10
1.1273223082172368
20
-14.701763563773698
10
-0.33073512039991676
20
-14.407532983677964
10
-1.7512428002779958
20
-14.013663880276503
10
-3.2121120488930437
20
-13.474365841552419
10
-4.5511718642032628
20
-12.850328211555615
10
-5.8289329621936616
20
-12.13763999937029
10
-7.0789608717867161
20
-11.302061607568199
10
-8.2624878397863419
20
-10.369811612208581
10
-9.3475387692873007
20
-9.3626987692875705
10
-10.337056779289062
20
-8.2966042953096313
10
-11.291029453763766
20
-7.0940407110073123
10
-12.119947638680467
20
-5.8440801712700727
10
-12.845862606438743
20
-4.5542806273516936
10
-13.469610007951553
20
-3.1951799552905507
10
-13.99544924758237
20
-1.7774339775160426
10
-14.392378533628126
20
-0.34587257315569608
10
-14.680143483434554
20
1.0801444731493526
10
-14.858856142407266
20
2.5827295003338344
10
-14.906298751982201
20
3.784554878989308
10
-14.90491062282562
20
80.544500995647056
10
-14.862631835917394
20
81.744478538513818
10
-14.680182167413927
20
83.279317311905956
10
-14.392163533330598
20
84.706127032449658
10
-13.998359136447537
20
86.126090305056067
10
-13.47005559515134
20
87.557177277372617
10
-12.839081900805114
20
88.925998778631651
10
-12.118263399802087
20
90.206135821037719
10
-11.292664699344977
20
91.450472643950405
10
-10.339068279416239
20
92.654170106235114
10
-9.3483728261533745
20
93.720930191677283
10
-8.2803680503014849
20
94.713149463728499
10
-7.0741037939287912
20
95.668693452439015
10
-5.8311300601300626
20
96.49284836874584
10
-4.5538440261363693
20
97.212439574448979
10
-3.1864152763789093
20
97.842997306309456
10
-1.7506618089265862
20
98.373675936191859
10
-0.32909587425219378
20
98.767083535621822
10
1.095735553681497
20
99.055017254055542
10
2.6015714968962884
20
99.233601512257351
10
3.799402581143454
20
99.280701420624169
10
294.86830806593036
20
99.279298745737279
10
296.06978847929872
20
99.237591304636211
10
297.60578332224264
20
99.054945764016878
10
299.03645112205504
20
98.766489691392408
10
300.45892996149701
20
98.371304344938153
10
301.87718299491229
20
97.847271868184606
10
303.26049572668359
20
97.211918757346581
10
304.54324555725049
20
96.485966930157559
10
305.77038485065862
20
95.672870054830696
10
306.98099752231923
20
94.715162702431741
10
308.05994762437615
20
93.712208216258944
10
309.05606156919782
20
92.636592219503257
10
309.98400043091243
20
91.461202994664802
10
310.82297822366007
20
90.20657163259601
10
311.54040657078309
20
88.9212964041878
10
312.1723007048447
20
87.561766600601217
10
312.69750763471512
20
86.127659900426906
10
313.09029171193049
20
84.727038090968279
10
313.38350071694049
20
83.274234762919065
10
313.56498205012161
20
81.739000782223343
10
313.60700000000008
20
80.54378109886612
10
313.60700000000008
20
3.8153246881244374
10
313.56495542293709
20
2.6197298058262417
10
313.38346224453625
20
1.0852295085511421
10
313.09050885416548
20
-0.36677979565696794
10
312.69458575201162
20
-1.7789210530688844
10
312.17184422028811
20
-3.1996163715084327
10
311.54717907613372
20
-4.5495082834025915
10
310.82466063413142
20
-5.8445163379798535
10
309.98235394378105
20
-7.1047515421763983
10
309.05405464027672
20
-8.2790263585631134
10
308.05911630308009
20
-9.353980159215979
10
306.96312376932423
20
-10.371823660129918
10
305.77524903783575
20
-11.306248244962099
10
304.54094688602572
20
-12.130747949140472
10
303.25763754723789
20
-12.849781940973182
10
301.9028052789148
20
-13.478666557144122
10
300.45952415059787
20
-14.011291110755455
0
ENDSEC
0
SECTION
2
OBJECTS
0
DICTIONARY
5
C
100
AcDbDictionary
3
ACAD_GROUP
350
D
3
ACAD_MLINESTYLE
350
17
0
DICTIONARY
5
D
100
AcDbDictionary
0
DICTIONARY
5
1A
330
C
100
AcDbDictionary
0
DICTIONARY
5
17
100
AcDbDictionary
0
ENDSEC
0
EOF
