<?xml version="1.0" encoding="UTF-8" standalone="no"?>
<!-- Created with Inkscape (http://www.inkscape.org/) -->

<svg
   xmlns:dc="http://purl.org/dc/elements/1.1/"
   xmlns:cc="http://creativecommons.org/ns#"
   xmlns:rdf="http://www.w3.org/1999/02/22-rdf-syntax-ns#"
   xmlns:svg="http://www.w3.org/2000/svg"
   xmlns="http://www.w3.org/2000/svg"
   xmlns:sodipodi="http://sodipodi.sourceforge.net/DTD/sodipodi-0.dtd"
   xmlns:inkscape="http://www.inkscape.org/namespaces/inkscape"
   width="330mm"
   height="120mm"
   viewBox="0 0 330 120"
   version="1.1"
   id="svg8"
   inkscape:version="0.92.4 (5da689c313, 2019-01-14)"
   sodipodi:docname="L0.svg">
  <defs
     id="defs2">
    <marker
       style="overflow:visible"
       refY="0"
       refX="0"
       orient="auto"
       id="DistanceX">
      <path
         id="path3715"
         style="stroke:#000000;stroke-width:0.5"
         d="M 3,-3 -3,3 M 0,-5 V 5"
         inkscape:connector-curvature="0" />
    </marker>
    <pattern
       y="0"
       x="0"
       width="8"
       patternUnits="userSpaceOnUse"
       id="Hatch"
       height="8">
      <path
         id="path3718"
         stroke-width="0.25"
         stroke="#000000"
         linecap="square"
         d="M8 4 l-4,4" />
      <path
         id="path3720"
         stroke-width="0.25"
         stroke="#000000"
         linecap="square"
         d="M6 2 l-4,4" />
      <path
         id="path3722"
         stroke-width="0.25"
         stroke="#000000"
         linecap="square"
         d="M4 0 l-4,4" />
    </pattern>
    <symbol
       id="*MODEL_SPACE" />
    <symbol
       id="*PAPER_SPACE" />
  </defs>
  <sodipodi:namedview
     id="base"
     pagecolor="#ffffff"
     bordercolor="#666666"
     borderopacity="1.0"
     inkscape:pageopacity="0.0"
     inkscape:pageshadow="2"
     inkscape:zoom="0.98994949"
     inkscape:cx="557.61823"
     inkscape:cy="231.58086"
     inkscape:document-units="mm"
     inkscape:current-layer="layer1"
     showgrid="false"
     inkscape:window-width="2560"
     inkscape:window-height="1377"
     inkscape:window-x="-8"
     inkscape:window-y="-8"
     inkscape:window-maximized="1" />
  <metadata
     id="metadata5">
    <rdf:RDF>
      <cc:Work
         rdf:about="">
        <dc:format>image/svg+xml</dc:format>
        <dc:type
           rdf:resource="http://purl.org/dc/dcmitype/StillImage" />
        <dc:title></dc:title>
      </cc:Work>
    </rdf:RDF>
  </metadata>
  <g
     inkscape:label="Layer 1"
     inkscape:groupmode="layer"
     id="layer1"
     transform="translate(0,-177)">
    <g
       id="g3747"
       inkscape:label="0"
       transform="matrix(0.26458333,0,0,0.26458333,15.554956,-18.223282)">
      <path
         id="path3729"
         style="fill:none;stroke:#000000"
         d="m 64.610862,845.73182 a 7.5590555,7.5590555 0 1 0 -15.118111,0 7.5590555,7.5590555 0 1 0 15.118111,0 z"
         inkscape:connector-curvature="0" />
      <path
         id="path3731"
         style="fill:none;stroke:#000000"
         d="m 1079.3587,845.58432 a 7.5590555,7.5590555 0 1 0 -15.1181,0 7.5590555,7.5590555 0 1 0 15.1181,0 z"
         inkscape:connector-curvature="0" />
      <path
         id="path3733"
         style="fill:none;stroke:#000000"
         d="m 1029.6558,757.44302 -2.693,4.66427 2.693,4.66426 h 5.3858 l 2.6929,-4.66426 -2.6929,-4.66427 z"
         inkscape:connector-curvature="0" />
      <path
         id="path3735"
         style="fill:none;stroke:#000000"
         d="m 93.781261,757.44302 -2.692914,4.66427 2.692914,4.66426 h 5.385826 l 2.692913,-4.66426 -2.692913,-4.66427 z"
         inkscape:connector-curvature="0" />
      <path
         id="path3737"
         style="fill:none;stroke:#000000"
         d="m 1035.1802,1152.7597 2.6929,-4.6643 -2.6929,-4.6643 h -5.3858 l -2.6929,4.6643 2.6929,4.6643 z"
         inkscape:connector-curvature="0" />
      <path
         id="path3739"
         style="fill:none;stroke:#000000"
         d="m 1160.6093,951.88623 -2.6929,4.66427 2.6929,4.66426 h 5.3858 l 2.6929,-4.66426 -2.6929,-4.66427 z"
         inkscape:connector-curvature="0" />
      <path
         id="path3741"
         style="fill:none;stroke:#000000"
         d="m -37.172258,951.88623 -2.692913,4.66427 2.692913,4.66426 h 5.385827 l 2.692913,-4.66426 -2.692913,-4.66427 z"
         inkscape:connector-curvature="0" />
      <path
         id="path3743"
         style="fill:none;stroke:#000000"
         d="m 99.160055,1152.7597 2.692915,-4.6643 -2.692915,-4.6643 h -5.385827 l -2.692913,4.6643 2.692913,4.6643 z"
         inkscape:connector-curvature="0" />
      <path
         id="path3745"
         style="fill:none;stroke:#000000"
         d="m 1130.2228,1176.9711 -5.5332,1.114 -5.5415,0.6364 -4.4256,0.1942 H 14.225824 l -4.412587,-0.1944 -5.552491,-0.6359 -5.510769,-1.112 -5.368847,-1.4887 -5.521396,-2.0383 -5.061013,-2.3585 -4.829334,-2.6937 -4.724515,-3.1581 -4.473172,-3.5234 -4.10098,-3.8064 -3.739911,-4.0294 -3.605566,-4.5451 -3.132919,-4.7243 -2.743616,-4.8748 -2.35747,-5.1367 -1.987424,-5.3585 -1.500205,-5.4106 -1.087616,-5.3897 -0.675449,-5.679 -0.179311,-4.5423 0.0052,-290.11638 0.159793,-4.53534 0.689574,-5.80097 1.088574,-5.39267 1.488395,-5.36679 1.996738,-5.40883 2.384782,-5.1735 2.724354,-4.83831 3.120373,-4.70301 3.604144,-4.5494 3.74436,-4.03185 4.036554,-3.75012 4.559109,-3.61151 4.697853,-3.11491 4.827538,-2.71972 5.168235,-2.38321 5.426469,-2.00571 5.372848,-1.4869 5.38519,-1.08825 5.691348,-0.67497 4.527236,-0.17801 1100.103,0.005 4.541,0.15763 5.8054,0.69032 5.4072,1.09022 5.3763,1.49362 5.3603,1.98059 5.2283,2.40134 4.8482,2.74375 4.638,3.07313 4.5755,3.61968 4.078,3.79069 3.7648,4.06532 3.5072,4.44242 3.1709,4.74191 2.7116,4.85774 2.3882,5.13838 1.985,5.42024 1.4846,5.29369 1.1082,5.49091 0.6859,5.80246 0.1588,4.51737 v 289.99735 l -0.1589,4.5187 -0.686,5.7997 -1.1072,5.4879 -1.4964,5.3373 -1.9757,5.3695 -2.361,5.102 -2.7307,4.8945 -3.1835,4.7631 -3.5086,4.4382 -3.7604,4.0628 -4.1423,3.847 -4.4896,3.5317 -4.6651,3.1162 -4.8503,2.7176 -5.1206,2.3769 -5.4549,2.013 z"
         inkscape:connector-curvature="0" />
    </g>
  </g>
</svg>
