0
SECTION
2
HEADER
9
$INSUNITS
70
4
9
$ACADVER
1
AC1014
9
$HANDSEED
5
FFFF
0
ENDSEC
0
SECTION
2
TABLES
0
TABLE
2
VPORT
5
8
100
AcDbSymbolTable
0
ENDTAB
0
TABLE
2
LTYPE
5
5
100
AcDbSymbolTable
0
LTYPE
5
14
100
AcDbSymbolTableRecord
100
AcDbLinetypeTableRecord
2
BYBLOCK
70
0
0
LTYPE
5
15
100
AcDbSymbolTableRecord
100
AcDbLinetypeTableRecord
2
BYLAYER
70
0
0
ENDTAB
0
TABLE
2
LAYER
5
2
100
AcDbSymbolTable
70
2
0
LAYER
5
50
100
AcDbSymbolTableRecord
100
AcDbLayerTableRecord
2
0
70
0
6
CONTINUOUS
0
ENDTAB
0
TABLE
2
STYLE
5
3
100
AcDbSymbolTable
70
1
0
STYLE
5
11
100
AcDbSymbolTableRecord
100
AcDbTextStyleTableRecord
2
STANDARD
70
0
0
ENDTAB
0
TABLE
2
VIEW
5
6
100
AcDbSymbolTable
70
0
0
ENDTAB
0
TABLE
2
UCS
5
7
100
AcDbSymbolTable
70
0
0
ENDTAB
0
TABLE
2
APPID
5
9
100
AcDbSymbolTable
70
2
0
APPID
5
12
100
AcDbSymbolTableRecord
100
AcDbRegAppTableRecord
2
ACAD
70
0
0
ENDTAB
0
TABLE
2
DIMSTYLE
5
A
100
AcDbSymbolTable
70
1
0
ENDTAB
0
TABLE
2
BLOCK_RECORD
5
1
100
AcDbSymbolTable
70
1
0
BLOCK_RECORD
5
1F
100
AcDbSymbolTableRecord
100
AcDbBlockTableRecord
2
*MODEL_SPACE
0
BLOCK_RECORD
5
1B
100
AcDbSymbolTableRecord
100
AcDbBlockTableRecord
2
*PAPER_SPACE
0
ENDTAB
0
ENDSEC
0
SECTION
2
BLOCKS
0
BLOCK
5
20
100
AcDbEntity
100
AcDbBlockBegin
2
*MODEL_SPACE
0
ENDBLK
5
21
100
AcDbEntity
100
AcDbBlockEnd
0
BLOCK
5
1C
100
AcDbEntity
100
AcDbBlockBegin
2
*PAPER_SPACE
0
ENDBLK
5
1D
100
AcDbEntity
100
AcDbBlockEnd
0
ENDSEC
0
SECTION
2
ENTITIES
0
CIRCLE
5
100
100
AcDbEntity
8
0
100
AcDbCircle
10
229.35126479121868
20
-6.7669107198626319
30
0
40
1.6250000000000142
210
0
220
-0
230
1
0
CIRCLE
5
101
100
AcDbEntity
8
0
100
AcDbCircle
10
-9.1226599048629016
20
43.912681187331692
30
0
40
1.6250000000000009
210
0
220
-0
230
1
0
CIRCLE
5
102
100
AcDbEntity
8
0
100
AcDbCircle
10
69.353097722396427
20
94.589434811786475
30
0
40
1.6249999999999964
210
0
220
-0
230
1
0
CIRCLE
5
103
100
AcDbEntity
8
0
100
AcDbCircle
10
69.351264791218696
20
-6.7669107198626319
30
0
40
1.6249999999999964
210
0
220
-0
230
1
0
CIRCLE
5
104
100
AcDbEntity
8
0
100
AcDbCircle
10
307.79037055193669
20
43.912681187331692
30
0
40
1.6250000000000142
210
0
220
-0
230
1
0
CIRCLE
5
105
100
AcDbEntity
8
0
100
AcDbCircle
10
229.35309761774616
20
94.583647922237503
30
0
40
1.6250000000000142
210
0
220
-0
230
1
0
LWPOLYLINE
5
106
100
AcDbEntity
8
0
100
AcDbPolyline
90
136
70
1
43
0.0
10
157.70352501489197
20
91.437630460274761
10
157.70356280744946
20
99.279959749162572
10
294.86830806593036
20
99.279298745737279
10
296.06978847929872
20
99.237591304636211
10
297.60578332224264
20
99.054945764016878
10
299.03645112205504
20
98.766489691392408
10
300.45892996149701
20
98.371304344938153
10
301.87718299491229
20
97.847271868184606
10
303.26049572668359
20
97.211918757346581
10
304.54324555725049
20
96.485966930157559
10
305.77038485065862
20
95.672870054830696
10
306.98099752231923
20
94.715162702431741
10
308.05994762437615
20
93.712208216258944
10
309.05606156919782
20
92.636592219503257
10
309.98400043091243
20
91.461202994664802
10
310.82297822366007
20
90.20657163259601
10
311.54040657078309
20
88.9212964041878
10
312.1723007048447
20
87.561766600601217
10
312.69750763471512
20
86.127659900426906
10
313.09029171193049
20
84.727038090968279
10
313.38350071694049
20
83.274234762919065
10
313.56498205012161
20
81.739000782223343
10
313.60700000000008
20
80.54378109886612
10
313.60700000000008
20
3.8153246881244374
10
313.56495542293709
20
2.6197298058262417
10
313.38346224453625
20
1.0852295085511421
10
313.09050885416548
20
-0.36677979565696794
10
312.69458575201162
20
-1.7789210530688844
10
312.17184422028811
20
-3.1996163715084327
10
311.54717907613372
20
-4.5495082834025915
10
310.82466063413142
20
-5.8445163379798535
10
309.98235394378105
20
-7.1047515421763983
10
309.05405464027672
20
-8.2790263585631134
10
308.05911630308009
20
-9.353980159215979
10
306.96312376932423
20
-10.371823660129918
10
305.77524903783575
20
-11.306248244962099
10
304.54094688602572
20
-12.130747949140472
10
303.25763754723789
20
-12.849781940973182
10
301.9028052789148
20
-13.478666557144122
10
300.45952415059787
20
-14.011291110755455
10
299.038107548791
20
-14.406939127194162
10
297.57412283698892
20
-14.701694386766501
10
296.1079439569844
20
-14.870062474536867
10
294.93699373054648
20
-14.921451899999997
10
3.7639159133096718
20
-14.921451899999997
10
2.5964189292483186
20
-14.870019106326989
10
1.1273223082172368
20
-14.701763563773698
10
-0.33073512039991676
20
-14.407532983677964
10
-1.7512428002779958
20
-14.013663880276503
10
-3.2121120488930437
20
-13.474365841552419
10
-4.5511718642032628
20
-12.850328211555615
10
-5.8289329621936616
20
-12.13763999937029
10
-7.0789608717867161
20
-11.302061607568199
10
-8.2624878397863419
20
-10.369811612208581
10
-9.3475387692873007
20
-9.3626987692875705
10
-10.337056779289062
20
-8.2966042953096313
10
-11.291029453763766
20
-7.0940407110073123
10
-12.119947638680467
20
-5.8440801712700727
10
-12.845862606438743
20
-4.5542806273516936
10
-13.469610007951553
20
-3.1951799552905507
10
-13.99544924758237
20
-1.7774339775160426
10
-14.392378533628126
20
-0.34587257315569608
10
-14.680143483434554
20
1.0801444731493526
10
-14.858856142407266
20
2.5827295003338344
10
-14.906298751982201
20
3.784554878989308
10
-14.90491062282562
20
80.544500995647056
10
-14.862631835917394
20
81.744478538513818
10
-14.680182167413927
20
83.279317311905956
10
-14.392163533330598
20
84.706127032449658
10
-13.998359136447537
20
86.126090305056067
10
-13.47005559515134
20
87.557177277372617
10
-12.839081900805114
20
88.925998778631651
10
-12.118263399802087
20
90.206135821037719
10
-11.292664699344977
20
91.450472643950405
10
-10.339068279416239
20
92.654170106235114
10
-9.3483728261533745
20
93.720930191677283
10
-8.2803680503014849
20
94.713149463728499
10
-7.0741037939287912
20
95.668693452439015
10
-5.8311300601300626
20
96.49284836874584
10
-4.5538440261363693
20
97.212439574448979
10
-3.1864152763789093
20
97.842997306309456
10
-1.7506618089265862
20
98.373675936191859
10
-0.32909587425219378
20
98.767083535621822
10
1.095735553681497
20
99.055017254055542
10
2.6015714968962884
20
99.233601512257351
10
3.799402581143454
20
99.280701420624169
10
145.70356280758881
20
99.280017577733005
10
145.70352501475264
20
91.437630460274761
10
4.1841932163000806
20
91.437630460274761
10
3.2684767223117861
20
91.381535244583446
10
2.1998104146293835
20
91.171043435354605
10
1.1721180250449839
20
90.808310588971722
10
0.20824848370206692
20
90.301138855545787
10
-0.67146372806887156
20
89.660205672684157
10
-1.4508255761454008
20
88.898883669725635
10
-2.1116375978770434
20
88.033138840027561
10
-2.6407027087093375
20
87.080922993998954
10
-3.025832666801838
20
86.062456954822267
10
-3.2609580481513385
20
84.998919992804247
10
-3.339746737868643
20
83.913555286377999
10
-3.3397467378686416
20
3.9115979315367611
10
-3.2841563034210051
20
2.995871865908633
10
-3.0734558075118663
20
1.9271746390616862
10
-2.7106165478146305
20
0.8994679090813209
10
-2.2028475659733529
20
-0.064380996569502053
10
-1.5623364630375631
20
-0.94407029617121307
10
-0.80120923178865655
20
-1.7234402573301337
10
0.064348943305390371
20
-2.3842645315237601
10
1.0170727938521182
20
-2.9133303293805453
10
2.035624604762543
20
-3.2984543971874731
10
3.0987613487992185
20
-3.5335809220840479
10
4.1846301175721123
20
-3.6123695397252775
10
294.18628579086936
20
-3.6123695397252789
10
295.10201185649748
20
-3.5567791052776383
10
296.17070908334438
20
-3.3460786093684662
10
297.19841581332497
20
-2.9832393496712264
10
298.16226471897568
20
-2.4754703678299776
10
299.04195401857726
20
-1.834959264894185
10
299.82132397973618
20
-1.0738320336453255
10
300.48214825392995
20
-0.2082738585511773
10
301.01121405178668
20
0.74444999199542228
10
301.39633811959362
20
1.763001802905888
10
301.63146464449022
20
2.8261385469425617
10
301.71025326213146
20
3.9120073157158686
10
301.71025326213146
20
83.91336065210497
10
301.65466317190953
20
84.829788557635453
10
301.44395962095666
20
85.898298680447994
10
301.08111799174549
20
86.925302654972526
10
300.57336564058278
20
87.889119992209572
10
299.93284876641758
20
88.769729346579979
10
299.17170016854408
20
89.548513078412185
10
298.30615108346797
20
90.209330412685745
10
297.35345668253268
20
90.738177155673071
10
296.3348990006096
20
91.124114235549939
10
295.27172694927225
20
91.358843165092111
10
294.18587640669068
20
91.437630460274761
0
ENDSEC
0
SECTION
2
OBJECTS
0
DICTIONARY
5
C
100
AcDbDictionary
3
ACAD_GROUP
350
D
3
ACAD_MLINESTYLE
350
17
0
DICTIONARY
5
D
100
AcDbDictionary
0
DICTIONARY
5
1A
330
C
100
AcDbDictionary
0
DICTIONARY
5
17
100
AcDbDictionary
0
ENDSEC
0
EOF
