<?xml version="1.0" encoding="UTF-8" standalone="no"?>
<!-- Created with Inkscape (http://www.inkscape.org/) -->

<svg
   xmlns:dc="http://purl.org/dc/elements/1.1/"
   xmlns:cc="http://creativecommons.org/ns#"
   xmlns:rdf="http://www.w3.org/1999/02/22-rdf-syntax-ns#"
   xmlns:svg="http://www.w3.org/2000/svg"
   xmlns="http://www.w3.org/2000/svg"
   xmlns:sodipodi="http://sodipodi.sourceforge.net/DTD/sodipodi-0.dtd"
   xmlns:inkscape="http://www.inkscape.org/namespaces/inkscape"
   width="330mm"
   height="120mm"
   viewBox="0 0 330 120"
   version="1.1"
   id="svg8"
   inkscape:version="0.92.4 (5da689c313, 2019-01-14)"
   sodipodi:docname="L2.svg">
  <defs
     id="defs2">
    <marker
       style="overflow:visible"
       refY="0"
       refX="0"
       orient="auto"
       id="DistanceX">
      <path
         id="path3715"
         style="stroke:#000000;stroke-width:0.5"
         d="M 3,-3 -3,3 M 0,-5 V 5"
         inkscape:connector-curvature="0" />
    </marker>
    <pattern
       y="0"
       x="0"
       width="8"
       patternUnits="userSpaceOnUse"
       id="Hatch"
       height="8">
      <path
         id="path3718"
         stroke-width="0.25"
         stroke="#000000"
         linecap="square"
         d="M8 4 l-4,4" />
      <path
         id="path3720"
         stroke-width="0.25"
         stroke="#000000"
         linecap="square"
         d="M6 2 l-4,4" />
      <path
         id="path3722"
         stroke-width="0.25"
         stroke="#000000"
         linecap="square"
         d="M4 0 l-4,4" />
    </pattern>
    <symbol
       id="*MODEL_SPACE" />
    <symbol
       id="*PAPER_SPACE" />
    <marker
       style="overflow:visible"
       refY="0.0"
       refX="0.0"
       orient="auto"
       id="DistanceX-9">
      <path
         id="path3775"
         style="stroke:#000000; stroke-width:0.5"
         d="M 3,-3 L -3,3 M 0,-5 L  0,5" />
    </marker>
    <pattern
       y="0"
       x="0"
       width="8"
       patternUnits="userSpaceOnUse"
       id="Hatch-1"
       height="8">
      <path
         id="path3778"
         stroke-width="0.25"
         stroke="#000000"
         linecap="square"
         d="M8 4 l-4,4" />
      <path
         id="path3780"
         stroke-width="0.25"
         stroke="#000000"
         linecap="square"
         d="M6 2 l-4,4" />
      <path
         id="path3782"
         stroke-width="0.25"
         stroke="#000000"
         linecap="square"
         d="M4 0 l-4,4" />
    </pattern>
    <symbol
       id="*MODEL_SPACE-0" />
    <symbol
       id="*PAPER_SPACE-6" />
    <marker
       style="overflow:visible"
       refY="0.0"
       refX="0.0"
       orient="auto"
       id="DistanceX-6">
      <path
         id="path3829"
         style="stroke:#000000; stroke-width:0.5"
         d="M 3,-3 L -3,3 M 0,-5 L  0,5" />
    </marker>
    <pattern
       y="0"
       x="0"
       width="8"
       patternUnits="userSpaceOnUse"
       id="Hatch-8"
       height="8">
      <path
         id="path3832"
         stroke-width="0.25"
         stroke="#000000"
         linecap="square"
         d="M8 4 l-4,4" />
      <path
         id="path3834"
         stroke-width="0.25"
         stroke="#000000"
         linecap="square"
         d="M6 2 l-4,4" />
      <path
         id="path3836"
         stroke-width="0.25"
         stroke="#000000"
         linecap="square"
         d="M4 0 l-4,4" />
    </pattern>
    <symbol
       id="*MODEL_SPACE-5" />
    <symbol
       id="*PAPER_SPACE-7" />
  </defs>
  <sodipodi:namedview
     id="base"
     pagecolor="#ffffff"
     bordercolor="#666666"
     borderopacity="1.0"
     inkscape:pageopacity="0.0"
     inkscape:pageshadow="2"
     inkscape:zoom="0.98994949"
     inkscape:cx="557.61823"
     inkscape:cy="231.58086"
     inkscape:document-units="mm"
     inkscape:current-layer="layer1"
     showgrid="false"
     inkscape:window-width="2560"
     inkscape:window-height="1377"
     inkscape:window-x="-8"
     inkscape:window-y="-8"
     inkscape:window-maximized="1" />
  <metadata
     id="metadata5">
    <rdf:RDF>
      <cc:Work
         rdf:about="">
        <dc:format>image/svg+xml</dc:format>
        <dc:type
           rdf:resource="http://purl.org/dc/dcmitype/StillImage" />
        <dc:title></dc:title>
      </cc:Work>
    </rdf:RDF>
  </metadata>
  <g
     inkscape:label="Layer 1"
     inkscape:groupmode="layer"
     id="layer1"
     transform="translate(0,-177)">
    <g
       id="g3857"
       inkscape:label="0"
       transform="matrix(-0.26458333,0,0,-0.26458333,15.822209,575.51012)">
      <path
         id="path3843"
         style="fill:none;stroke:#000000"
         d="m -1026.2069,1482.9321 a 6.14175,6.14175 0 1 0 -12.2835,0 6.14175,6.14175 0 1 0 12.2835,0 z"
         inkscape:connector-curvature="0" />
      <path
         id="path3845"
         style="fill:none;stroke:#000000"
         d="m -90.332442,1482.9321 a 6.141734,6.141734 0 1 0 -12.283468,0 6.141734,6.141734 0 1 0 12.283468,0 z"
         inkscape:connector-curvature="0" />
      <path
         id="path3847"
         style="fill:none;stroke:#000000"
         d="m -90.325409,1096.944 a 6.1417325,6.1417325 0 1 0 -12.283461,0 6.1417325,6.1417325 0 1 0 12.283461,0 z"
         inkscape:connector-curvature="0" />
      <path
         id="path3849"
         style="fill:none;stroke:#000000"
         d="m -1157.1605,1288.4889 a 6.141732,6.141732 0 1 0 -12.2834,0 6.141732,6.141732 0 1 0 12.2834,0 z"
         inkscape:connector-curvature="0" />
      <path
         id="path3851"
         style="fill:none;stroke:#000000"
         d="m 40.621077,1288.4889 a 6.1417325,6.1417325 0 1 0 -12.283465,0 6.1417325,6.1417325 0 1 0 12.283465,0 z"
         inkscape:connector-curvature="0" />
      <path
         id="path3853"
         style="fill:none;stroke:#000000"
         d="m -1026.3456,1096.944 a 6.141732,6.141732 0 1 0 -12.2834,0 6.141732,6.141732 0 1 0 12.2834,0 z"
         inkscape:connector-curvature="0" />
      <path
         id="path3855"
         style="fill:none;stroke:#000000"
         d="m -588.48576,1468.1107 -1.5e-4,29.6404 h -525.97699 l -4.541,-0.1576 -5.8054,-0.6903 -5.4072,-1.0902 -5.3763,-1.4937 -5.3603,-1.9806 -5.2283,-2.4013 -4.8482,-2.7437 -4.638,-3.0732 -4.5755,-3.6196 -4.078,-3.7907 -3.7648,-4.0654 -3.5072,-4.4424 -3.1709,-4.7419 -2.7116,-4.8577 -2.3882,-5.1384 -1.985,-5.4203 -1.4846,-5.2936 -1.1082,-5.4909 -0.6859,-5.8025 -0.1588,-4.5174 v -289.9973 l 0.1589,-4.5188 0.686,-5.7997 1.1072,-5.4879 1.4964,-5.3372 1.9757,-5.3696 2.361,-5.1019 2.7307,-4.8945 3.1835,-4.7631 3.5086,-4.4382 3.7604,-4.0628 4.1423,-3.847 4.4896,-3.5317 4.6651,-3.1162 4.8503,-2.7176 5.1206,-2.3769 5.4549,-2.0131 5.3723,-1.4953 5.5332,-1.1141 5.5415,-0.6363 4.4256,-0.1943 H -14.225824 l 4.412587,0.1944 5.552491,0.636 5.510769,1.112 5.368847,1.4887 5.521396,2.0382 5.061013,2.3586 4.829334,2.6936 4.724515,3.1581 4.473172,3.5235 4.10098,3.8064 3.739911,4.0293 3.605566,4.5452 3.132919,4.7242 2.743616,4.8749 2.35747,5.1367 1.987424,5.3584 1.500205,5.4107 1.087616,5.3896 0.675449,5.6791 0.179311,4.5423 -0.0052,290.1163 -0.159793,4.5354 -0.689574,5.801 -1.088574,5.3926 -1.488395,5.3668 -1.996738,5.4089 -2.384782,5.1734 -2.724354,4.8384 -3.120373,4.703 -3.604144,4.5494 -3.74436,4.0318 -4.036554,3.7501 -4.559109,3.6115 -4.697853,3.115 -4.827538,2.7197 -5.168235,2.3832 -5.426469,2.0057 -5.372848,1.4869 -5.38519,1.0883 -5.691348,0.6749 -4.527236,0.178 h -543.88974 l 1.5e-4,-29.6405 h 542.435263 l 3.460976,-0.212 4.039054,-0.7955 3.884192,-1.371 3.642971,-1.9169 3.324897,-2.4224 2.945619,-2.8774 2.497557,-3.2721 1.999617,-3.599 1.455609,-3.8493 0.888663,-4.0197 0.297784,-4.1021 v -302.3696 l -0.210106,-3.461 -0.796348,-4.0392 -1.371361,-3.8843 -1.919127,-3.6428 -2.420829,-3.3249 -2.876702,-2.9456 -3.271401,-2.4976 -3.600846,-1.9996 -3.849644,-1.4556 -4.018155,-0.8887 -4.104071,-0.2978 H -1111.8852 l -3.461,0.2101 -4.0392,0.7964 -3.8842,1.3714 -3.6429,1.9191 -3.3248,2.4208 -2.9457,2.8767 -2.4976,3.2714 -1.9996,3.6009 -1.4556,3.8496 -0.8886,4.0182 -0.2978,4.104 v 302.3673 l 0.2101,3.4637 0.7963,4.0385 1.3714,3.8816 1.9191,3.6427 2.4208,3.3283 2.8768,2.9435 3.2714,2.4975 3.6007,1.9988 3.8497,1.4587 4.0183,0.8872 4.104,0.2977 z"
         inkscape:connector-curvature="0" />
    </g>
  </g>
</svg>
