<?xml version="1.0" encoding="UTF-8" standalone="no"?>
<!-- Created with Inkscape (http://www.inkscape.org/) -->

<svg
   xmlns:dc="http://purl.org/dc/elements/1.1/"
   xmlns:cc="http://creativecommons.org/ns#"
   xmlns:rdf="http://www.w3.org/1999/02/22-rdf-syntax-ns#"
   xmlns:svg="http://www.w3.org/2000/svg"
   xmlns="http://www.w3.org/2000/svg"
   xmlns:sodipodi="http://sodipodi.sourceforge.net/DTD/sodipodi-0.dtd"
   xmlns:inkscape="http://www.inkscape.org/namespaces/inkscape"
   width="350mm"
   height="130mm"
   viewBox="0 0 350 130"
   version="1.1"
   id="svg8"
   inkscape:version="0.92.4 (5da689c313, 2019-01-14)"
   sodipodi:docname="L4_plate.svg">
  <defs
     id="defs2">
    <marker
       style="overflow:visible"
       refY="0.0"
       refX="0.0"
       orient="auto"
       id="DistanceX">
      <path
         id="path12"
         style="stroke:#000000; stroke-width:0.5"
         d="M 3,-3 L -3,3 M 0,-5 L  0,5" />
    </marker>
    <pattern
       y="0"
       x="0"
       width="8"
       patternUnits="userSpaceOnUse"
       id="Hatch"
       height="8">
      <path
         id="path15"
         stroke-width="0.25"
         stroke="#000000"
         linecap="square"
         d="M8 4 l-4,4" />
      <path
         id="path17"
         stroke-width="0.25"
         stroke="#000000"
         linecap="square"
         d="M6 2 l-4,4" />
      <path
         id="path19"
         stroke-width="0.25"
         stroke="#000000"
         linecap="square"
         d="M4 0 l-4,4" />
    </pattern>
    <symbol
       id="*MODEL_SPACE" />
    <symbol
       id="*PAPER_SPACE" />
    <marker
       style="overflow:visible"
       refY="0.0"
       refX="0.0"
       orient="auto"
       id="DistanceX-2">
      <path
         id="path3775"
         style="stroke:#000000; stroke-width:0.5"
         d="M 3,-3 L -3,3 M 0,-5 L  0,5" />
    </marker>
    <pattern
       y="0"
       x="0"
       width="8"
       patternUnits="userSpaceOnUse"
       id="Hatch-2"
       height="8">
      <path
         id="path3778"
         stroke-width="0.25"
         stroke="#000000"
         linecap="square"
         d="M8 4 l-4,4" />
      <path
         id="path3780"
         stroke-width="0.25"
         stroke="#000000"
         linecap="square"
         d="M6 2 l-4,4" />
      <path
         id="path3782"
         stroke-width="0.25"
         stroke="#000000"
         linecap="square"
         d="M4 0 l-4,4" />
    </pattern>
    <symbol
       id="*MODEL_SPACE-6" />
    <symbol
       id="*PAPER_SPACE-1" />
    <marker
       style="overflow:visible"
       refY="0.0"
       refX="0.0"
       orient="auto"
       id="DistanceX-0">
      <path
         id="path3829"
         style="stroke:#000000; stroke-width:0.5"
         d="M 3,-3 L -3,3 M 0,-5 L  0,5" />
    </marker>
    <pattern
       y="0"
       x="0"
       width="8"
       patternUnits="userSpaceOnUse"
       id="Hatch-4"
       height="8">
      <path
         id="path3832"
         stroke-width="0.25"
         stroke="#000000"
         linecap="square"
         d="M8 4 l-4,4" />
      <path
         id="path3834"
         stroke-width="0.25"
         stroke="#000000"
         linecap="square"
         d="M6 2 l-4,4" />
      <path
         id="path3836"
         stroke-width="0.25"
         stroke="#000000"
         linecap="square"
         d="M4 0 l-4,4" />
    </pattern>
    <symbol
       id="*MODEL_SPACE-2" />
    <symbol
       id="*PAPER_SPACE-9" />
    <marker
       style="overflow:visible"
       refY="0.0"
       refX="0.0"
       orient="auto"
       id="DistanceX-5">
      <path
         id="path3883"
         style="stroke:#000000; stroke-width:0.5"
         d="M 3,-3 L -3,3 M 0,-5 L  0,5" />
    </marker>
    <pattern
       y="0"
       x="0"
       width="8"
       patternUnits="userSpaceOnUse"
       id="Hatch-3"
       height="8">
      <path
         id="path3886"
         stroke-width="0.25"
         stroke="#000000"
         linecap="square"
         d="M8 4 l-4,4" />
      <path
         id="path3888"
         stroke-width="0.25"
         stroke="#000000"
         linecap="square"
         d="M6 2 l-4,4" />
      <path
         id="path3890"
         stroke-width="0.25"
         stroke="#000000"
         linecap="square"
         d="M4 0 l-4,4" />
    </pattern>
    <symbol
       id="*MODEL_SPACE-8" />
    <symbol
       id="*PAPER_SPACE-7" />
    <marker
       style="overflow:visible"
       refY="0.0"
       refX="0.0"
       orient="auto"
       id="DistanceX-9">
      <path
         id="path3940"
         style="stroke:#000000; stroke-width:0.5"
         d="M 3,-3 L -3,3 M 0,-5 L  0,5" />
    </marker>
    <pattern
       y="0"
       x="0"
       width="8"
       patternUnits="userSpaceOnUse"
       id="Hatch-8"
       height="8">
      <path
         id="path3943"
         stroke-width="0.25"
         stroke="#000000"
         linecap="square"
         d="M8 4 l-4,4" />
      <path
         id="path3945"
         stroke-width="0.25"
         stroke="#000000"
         linecap="square"
         d="M6 2 l-4,4" />
      <path
         id="path3947"
         stroke-width="0.25"
         stroke="#000000"
         linecap="square"
         d="M4 0 l-4,4" />
    </pattern>
    <symbol
       id="*MODEL_SPACE-20" />
    <symbol
       id="*PAPER_SPACE-15" />
  </defs>
  <sodipodi:namedview
     id="base"
     pagecolor="#ffffff"
     bordercolor="#666666"
     borderopacity="1.0"
     inkscape:pageopacity="0.0"
     inkscape:pageshadow="2"
     inkscape:zoom="0.35"
     inkscape:cx="47.142857"
     inkscape:cy="560"
     inkscape:document-units="mm"
     inkscape:current-layer="layer1"
     showgrid="false"
     inkscape:window-width="2560"
     inkscape:window-height="1377"
     inkscape:window-x="-8"
     inkscape:window-y="-8"
     inkscape:window-maximized="1" />
  <metadata
     id="metadata5">
    <rdf:RDF>
      <cc:Work
         rdf:about="">
        <dc:format>image/svg+xml</dc:format>
        <dc:type
           rdf:resource="http://purl.org/dc/dcmitype/StillImage" />
        <dc:title></dc:title>
      </cc:Work>
    </rdf:RDF>
  </metadata>
  <g
     inkscape:label="Layer 1"
     inkscape:groupmode="layer"
     id="layer1"
     transform="translate(0,-167)">
    <g
       id="g4066"
       inkscape:label="0"
       transform="matrix(0.26458333,0,0,0.26458333,24.518705,-22.332278)">
      <path
         id="path3954"
         style="fill:none;stroke:#000000"
         d="m 1038.4904,762.10729 a 6.14175,6.14175 0 1 0 -12.2835,0 6.14175,6.14175 0 1 0 12.2835,0 z"
         inkscape:connector-curvature="0" />
      <path
         id="path3956"
         style="fill:none;stroke:#000000"
         d="m 102.61591,762.10729 a 6.141734,6.141734 0 1 0 -12.283468,0 6.141734,6.141734 0 1 0 12.283468,0 z"
         inkscape:connector-curvature="0" />
      <path
         id="path3958"
         style="fill:none;stroke:#000000"
         d="m 102.60887,1148.0954 a 6.1417325,6.1417325 0 1 0 -12.283461,0 6.1417325,6.1417325 0 1 0 12.283461,0 z"
         inkscape:connector-curvature="0" />
      <path
         id="path3960"
         style="fill:none;stroke:#000000"
         d="m 1169.4439,956.5505 a 6.141732,6.141732 0 1 0 -12.2834,0 6.141732,6.141732 0 1 0 12.2834,0 z"
         inkscape:connector-curvature="0" />
      <path
         id="path3962"
         style="fill:none;stroke:#000000"
         d="m -28.337612,956.5505 a 6.1417325,6.1417325 0 1 0 -12.283465,0 6.1417325,6.1417325 0 1 0 12.283465,0 z"
         inkscape:connector-curvature="0" />
      <path
         id="path3964"
         style="fill:none;stroke:#000000"
         d="m 1038.629,1148.0954 a 6.141732,6.141732 0 1 0 -12.2834,0 6.141732,6.141732 0 1 0 12.2834,0 z"
         inkscape:connector-curvature="0" />
      <path
         id="path3966"
         style="fill:none;stroke:#000000"
         d="M 1136.5151,1175.1362 H -7.562947 l -4.577319,-1.6898 -5.061013,-2.3585 -4.829334,-2.6937 -4.724515,-3.1581 -4.473172,-3.5234 -4.10098,-3.8064 -3.739911,-4.0294 -3.605566,-4.5451 -3.132919,-4.7243 -2.743616,-4.8748 -2.35747,-5.1367 -1.987424,-5.3585 -1.500205,-5.4106 -1.087616,-5.3897 -0.675449,-5.679 -0.179311,-4.5423 0.0052,-290.11638 0.159793,-4.53534 0.689574,-5.80097 1.088574,-5.39267 1.488395,-5.36679 1.996738,-5.40883 2.384782,-5.1735 2.724354,-4.83831 3.120373,-4.70301 3.604144,-4.5494 3.74436,-4.03185 4.036554,-3.75012 4.559109,-3.61151 4.697853,-3.11491 4.827538,-2.71972 5.168235,-2.38321 5.426469,-2.00571 5.372848,-1.4869 5.38519,-1.08825 5.691348,-0.67497 4.527236,-0.17801 1100.103,0.005 4.541,0.15763 5.8054,0.69032 5.4072,1.09022 5.3763,1.49362 5.3603,1.98059 5.2283,2.40134 4.8482,2.74375 4.638,3.07313 4.5755,3.61968 4.078,3.79069 3.7648,4.06532 3.5072,4.44242 3.1709,4.74191 2.7116,4.85774 2.3882,5.13838 1.985,5.42024 1.4846,5.29369 1.1082,5.49091 0.6859,5.80246 0.1588,4.51737 v 289.99735 l -0.1589,4.5187 -0.686,5.7997 -1.1072,5.4879 -1.4964,5.3373 -1.9757,5.3695 -2.361,5.102 -2.7307,4.8945 -3.1835,4.7631 -3.5086,4.4382 -3.7604,4.0628 -4.1423,3.847 -4.4896,3.5317 -4.6651,3.1162 -4.8503,2.7176 -5.1206,2.3769 z"
         inkscape:connector-curvature="0" />
      <path
         id="path3968"
         style="fill:none;stroke:#000000"
         d="m 273.99458,938.06098 v 11.71351 h 3.02665 v 3.78104 h 52.91074 v -3.78104 h 3.02664 v -11.71351 h -3.02664 v -21.92126 h 3.02664 v -11.71881 h -3.02664 v -3.77574 h -52.91074 v 3.77574 h -3.02665 v 11.71881 h 3.02665 v 21.92126 z"
         inkscape:connector-curvature="0" />
      <path
         id="path3970"
         style="fill:none;stroke:#000000"
         d="m 601.02047,1021.7749 v 3.781 h 52.91339 v -3.781 h 3.02362 v -11.7135 h -3.02362 v -21.92168 h 3.02362 v -11.71881 h -3.02362 v -3.77574 h -52.91339 v 3.77574 h -3.0274 v 11.71881 h 3.0274 v 21.92168 h -3.0274 v 11.7135 z"
         inkscape:connector-curvature="0" />
      <path
         id="path3972"
         style="fill:none;stroke:#000000"
         d="m 797.93386,1025.5559 v -3.781 h 3.02362 v -11.7135 h -3.02362 v -21.92168 h 3.02362 v -11.71881 h -3.02362 v -3.77574 h -52.91339 v 3.77574 h -3.0274 v 11.71881 h 3.0274 v 21.92168 h -3.0274 v 11.7135 h 3.0274 v 3.781 z"
         inkscape:connector-curvature="0" />
      <path
         id="path3974"
         style="fill:none;stroke:#000000"
         d="m 401.93386,900.64517 h -52.91263 v 3.77574 h -3.02665 v 11.71881 h 3.02665 v 21.92126 h -3.02665 v 11.71351 h 3.02665 v 3.78104 h 52.91263 v -3.78104 h 3.02362 v -11.71351 h -3.02362 v -21.92126 h 3.02362 v -11.71881 h -3.02362 z"
         inkscape:connector-curvature="0" />
      <path
         id="path3976"
         style="fill:none;stroke:#000000"
         d="m 728.95748,1010.0614 h -3.02362 v -21.92168 h 3.02362 v -11.71881 h -3.02362 v -3.77574 h -52.91339 v 3.77574 h -3.0274 v 11.71881 h 3.0274 v 21.92168 h -3.0274 v 11.7135 h 3.0274 v 3.781 h 52.91339 v -3.781 h 3.02362 z"
         inkscape:connector-curvature="0" />
      <path
         id="path3978"
         style="fill:none;stroke:#000000"
         d="m 476.95748,949.77449 v -11.71351 h -3.02362 v -21.92126 h 3.02362 v -11.71881 h -3.02362 v -3.77574 h -52.91339 v 3.77574 h -3.0274 v 11.71881 h 3.0274 v 21.92126 h -3.0274 v 11.71351 h 3.0274 v 3.78104 h 52.91339 v -3.78104 z"
         inkscape:connector-curvature="0" />
      <path
         id="path3980"
         style="fill:none;stroke:#000000"
         d="m 124.01575,953.55553 h 52.91641 v -3.78104 h 3.02135 v -11.71351 h -3.02135 v -21.92126 h 3.02135 v -11.71881 h -3.02135 v -3.77574 h -52.91641 v 3.77574 h -3.02098 v 11.71881 h 3.02098 v 21.92126 h -3.02098 v 11.71351 h 3.02098 z"
         inkscape:connector-curvature="0" />
      <path
         id="path3982"
         style="fill:none;stroke:#000000"
         d="m 142.02142,1021.7749 v 3.781 h 52.91074 v -3.781 h 3.02135 v -11.7135 h -3.02135 v -21.92168 h 3.02135 v -11.71881 h -3.02135 v -3.77574 h -52.91074 v 3.77574 h -3.02665 v 11.71881 h 3.02665 v 21.92168 h -3.02665 v 11.7135 z"
         inkscape:connector-curvature="0" />
      <path
         id="path3984"
         style="fill:none;stroke:#000000"
         d="m 201.99458,1082.0614 v 11.7135 h 3.02665 v 3.7812 h 52.91074 v -3.7812 h 3.02664 v -11.7135 h -3.02664 v -21.9274 h 3.02664 v -11.7131 h -3.02664 v -3.7761 h -52.91074 v 3.7761 h -3.02665 v 11.7131 h 3.02665 v 21.9274 z"
         inkscape:connector-curvature="0" />
      <path
         id="path3986"
         style="fill:none;stroke:#000000"
         d="m 527.93197,877.77449 h 3.01984 v -11.7188 h -3.01984 v -21.92127 h 3.01984 v -11.71351 h -3.01984 V 828.6395 H 475.0148 v 3.78141 h -3.01984 v 11.71351 h 3.01984 v 21.92127 h -3.01984 v 11.7188 h 3.01984 v 3.78104 h 52.91717 z"
         inkscape:connector-curvature="0" />
      <path
         id="path3988"
         style="fill:none;stroke:#000000"
         d="m 383.93197,877.77449 h 3.01984 v -11.7188 h -3.01984 v -21.92127 h 3.01984 v -11.71351 h -3.01984 v -3.78141 h -52.91603 v 3.78141 h -3.02136 v 11.71351 h 3.02136 v 21.92127 h -3.02136 v 11.7188 h 3.02136 v 3.78104 h 52.91603 z"
         inkscape:connector-curvature="0" />
      <path
         id="path3990"
         style="fill:none;stroke:#000000"
         d="m 903.99496,844.13442 h 3.01984 v 21.92127 h -3.01984 v 11.7188 h 3.01984 v 3.78104 h 52.91717 v -3.78104 h 3.01984 v -11.7188 h -3.01984 v -21.92127 h 3.01984 v -11.71351 h -3.01984 V 828.6395 H 907.0148 v 3.78141 h -3.01984 z"
         inkscape:connector-curvature="0" />
      <path
         id="path3992"
         style="fill:none;stroke:#000000"
         d="m 905.93386,916.13972 h 3.02362 v -11.71881 h -3.02362 v -3.77574 h -52.91339 v 3.77574 h -3.0274 v 11.71881 h 3.0274 v 21.92126 h -3.0274 v 11.71351 h 3.0274 v 3.78104 h 52.91339 v -3.78104 h 3.02362 v -11.71351 h -3.02362 z"
         inkscape:connector-curvature="0" />
      <path
         id="path3994"
         style="fill:none;stroke:#000000"
         d="m 183.99458,866.05569 v 11.7188 h 3.02136 v 3.78104 h 52.91603 v -3.78104 h 3.02135 v -11.7188 h -3.02135 v -21.92127 h 3.02135 v -11.71351 h -3.02135 v -3.78141 h -52.91603 v 3.78141 h -3.02136 v 11.71351 h 3.02136 v 21.92127 z"
         inkscape:connector-curvature="0" />
      <path
         id="path3996"
         style="fill:none;stroke:#000000"
         d="m 1024.0176,916.13972 v 21.92126 h -3.0236 v 11.71351 h 3.0236 v 3.78104 h 52.9134 v -3.78104 h 3.0236 v -11.71351 h -3.0236 v -21.92126 h 3.0236 v -11.71881 h -3.0236 v -3.77574 h -52.9134 v 3.77574 h -3.0236 v 11.71881 z"
         inkscape:connector-curvature="0" />
      <path
         id="path3998"
         style="fill:none;stroke:#000000"
         d="m 944.95748,1021.7749 v -11.7135 h -3.02362 v -21.92168 h 3.02362 v -11.71881 h -3.02362 v -3.77574 h -52.91339 v 3.77574 h -3.0274 v 11.71881 h 3.0274 v 21.92168 h -3.0274 v 11.7135 h 3.0274 v 3.781 h 52.91339 v -3.781 z"
         inkscape:connector-curvature="0" />
      <path
         id="path4000"
         style="fill:none;stroke:#000000"
         d="m 25.015597,972.64517 v 3.77574 h -3.026003 v 11.71881 h 3.026003 v 21.92168 h -3.026003 v 11.7135 h 3.026003 v 3.781 h 52.916749 v -3.781 h 3.02589 v -11.7135 h -3.02589 v -21.92168 h 3.02589 v -11.71881 h -3.02589 v -3.77574 z"
         inkscape:connector-curvature="0" />
      <path
         id="path4002"
         style="fill:none;stroke:#000000"
         d="m 548.95748,949.77449 v -11.71351 h -3.02362 v -21.92126 h 3.02362 v -11.71881 h -3.02362 v -3.77574 h -52.91339 v 3.77574 h -3.03118 v 11.71881 h 3.03118 v 21.92126 h -3.03118 v 11.71351 h 3.03118 v 3.78104 h 52.91339 v -3.78104 z"
         inkscape:connector-curvature="0" />
      <path
         id="path4004"
         style="fill:none;stroke:#000000"
         d="m 743.93197,866.05569 v -21.92127 h 3.01984 v -11.71351 h -3.01984 V 828.6395 H 691.0148 v 3.78141 h -3.01984 v 11.71351 h 3.01984 v 21.92127 h -3.01984 v 11.7188 h 3.01984 v 3.78104 h 52.91717 v -3.78104 h 3.01984 v -11.7188 z"
         inkscape:connector-curvature="0" />
      <path
         id="path4006"
         style="fill:none;stroke:#000000"
         d="m 457.02047,1010.0614 h -3.0274 v 11.7135 h 3.0274 v 3.781 h 52.91339 v -3.781 h 3.02362 v -11.7135 h -3.02362 v -21.92168 h 3.02362 v -11.71881 h -3.02362 v -3.77574 h -52.91339 v 3.77574 h -3.0274 v 11.71881 h 3.0274 z"
         inkscape:connector-curvature="0" />
      <path
         id="path4008"
         style="fill:none;stroke:#000000"
         d="m 979.0148,877.77449 v 3.78104 h 52.9172 v -3.78104 h 3.0198 v -11.7188 h -3.0198 v -21.92127 h 3.0198 v -11.71351 h -3.0198 v -3.78141 h -52.9172 v 3.78141 h -3.01984 v 11.71351 h 3.01984 v 21.92127 h -3.01984 v 11.7188 z"
         inkscape:connector-curvature="0" />
      <path
         id="path4010"
         style="fill:none;stroke:#000000"
         d="m 201.99458,916.13972 h 3.02665 v 21.92126 h -3.02665 v 11.71351 h 3.02665 v 3.78104 h 52.91074 v -3.78104 h 3.02664 v -11.71351 h -3.02664 v -21.92126 h 3.02664 v -11.71881 h -3.02664 v -3.77574 h -52.91074 v 3.77574 h -3.02665 z"
         inkscape:connector-curvature="0" />
      <path
         id="path4012"
         style="fill:none;stroke:#000000"
         d="m 617.93386,953.55553 v -3.78104 h 3.02362 v -11.71351 h -3.02362 v -21.92126 h 3.02362 v -11.71881 h -3.02362 v -3.77574 h -52.91339 v 3.77574 h -3.0274 v 11.71881 h 3.0274 v 21.92126 h -3.0274 v 11.71351 h 3.0274 v 3.78104 z"
         inkscape:connector-curvature="0" />
      <path
         id="path4014"
         style="fill:none;stroke:#000000"
         d="m 286.02142,1093.7749 v 3.7812 h 52.91074 v -3.7812 h 3.02135 v -11.7135 h -3.02135 v -21.9274 h 3.02135 v -11.7131 h -3.02135 v -3.7761 h -52.91074 v 3.7761 h -3.02665 v 11.7131 h 3.02665 v 21.9274 h -3.02665 v 11.7135 z"
         inkscape:connector-curvature="0" />
      <path
         id="path4016"
         style="fill:none;stroke:#000000"
         d="m 716.93102,1048.4209 v -3.7761 h -52.91338 v 3.7761 h -1.51181 v -12.8724 h -34.01575 v 9.0963 H 583.0148 v 3.7761 h -3.01984 v 11.7131 h 3.01984 v 2.2712 h -10.55716 v -26.8567 h -34.01575 v 12.8724 h -1.51087 v -3.7761 h -52.91338 v 3.7761 h -1.5137 v -12.8724 h -34.01575 v 26.8567 h -28.55622 v -2.2712 h 3.01984 v -11.7131 h -3.01984 v -3.7761 h -11.81103 v -0.1172 h -29.29133 v 0.1172 h -11.81367 v 3.7761 h -3.02136 v 11.7131 h 3.02136 v 21.9274 h -3.02136 v 11.7135 h 3.02136 v 3.7812 h 11.81367 v 4.7995 h 29.29133 v -4.7995 h 11.81103 v -3.7812 h 3.01984 v -11.7135 h -3.01984 v -2.2708 h 28.55622 v 28.07 h 34.01575 v -14.0857 h 1.5137 v 3.7812 h 52.91338 v -3.7812 h 1.51087 v 14.0857 h 34.01575 v -28.07 h 10.55716 v 2.2708 h -3.01984 v 11.7135 h 3.01984 v 3.7812 h 45.47528 v 10.3045 h 34.01575 v -14.0857 h 1.51181 v 3.7812 h 52.91338 v -3.7812 h 1.51087 v 14.0857 h 34.01575 v -28.07 h 46.55716 v 2.2708 h -3.01984 v 11.7135 h 3.01984 v 3.7812 h 11.81103 v 4.7995 h 29.29133 v -4.7995 h 11.81481 v -3.7812 h 3.01984 v -11.7135 h -3.01984 v -21.9274 h 3.01984 v -11.7131 h -3.01984 v -3.7761 h -11.81481 v -0.1172 h -29.29133 v 0.1172 H 799.0148 v 3.7761 h -3.01984 v 11.7131 h 3.01984 v 2.2712 h -46.55716 v -26.8567 h -34.01575 v 12.8724 z"
         inkscape:connector-curvature="0" />
      <path
         id="path4018"
         style="fill:none;stroke:#000000"
         d="m 869.93386,976.42091 v -3.77574 h -52.91339 v 3.77574 h -3.0274 v 11.71881 h 3.0274 v 21.92168 h -3.0274 v 11.7135 h 3.0274 v 3.781 h 52.91339 v -3.781 h 3.02362 v -11.7135 h -3.02362 v -21.92168 h 3.02362 v -11.71881 z"
         inkscape:connector-curvature="0" />
      <path
         id="path4020"
         style="fill:none;stroke:#000000"
         d="m 77.932346,1082.0614 v -21.9274 h 3.02589 v -11.7131 h -3.02589 v -3.7761 H 25.015597 v 3.7761 h -3.026003 v 11.7131 h 3.026003 v 21.9274 h -3.026003 v 11.7135 h 3.026003 v 3.7812 h 52.916749 v -3.7812 h 3.02589 v -11.7135 z"
         inkscape:connector-curvature="0" />
      <path
         id="path4022"
         style="fill:none;stroke:#000000"
         d="m 980.95748,916.13972 v -11.71881 h -3.02362 v -3.77574 h -52.91339 v 3.77574 h -3.0274 v 11.71881 h 3.0274 v 21.92126 h -3.0274 v 11.71351 h 3.0274 v 3.78104 h 52.91339 v -3.78104 h 3.02362 v -11.71351 h -3.02362 v -21.92126 z"
         inkscape:connector-curvature="0" />
      <path
         id="path4024"
         style="fill:none;stroke:#000000"
         d="m 80.958236,949.77449 v -11.71351 h -3.02589 v -21.92126 h 3.02589 v -11.71881 h -3.02589 v -3.77574 H 25.015597 v 3.77574 h -3.026003 v 11.71881 h 3.026003 v 21.92126 h -3.026003 v 11.71351 h 3.026003 v 3.78104 h 52.916749 v -3.78104 z"
         inkscape:connector-curvature="0" />
      <path
         id="path4026"
         style="fill:none;stroke:#000000"
         d="m 309.99458,988.13972 h 3.02665 v 21.92168 h -3.02665 v 11.7135 h 3.02665 v 3.781 h 52.91074 v -3.781 h 3.02664 v -11.7135 h -3.02664 v -21.92168 h 3.02664 v -11.71881 h -3.02664 v -3.77574 h -52.91074 v 3.77574 h -3.02665 z"
         inkscape:connector-curvature="0" />
      <path
         id="path4028"
         style="fill:none;stroke:#000000"
         d="m 547.0148,877.77449 v 3.78104 h 52.91717 v -3.78104 h 3.01984 v -11.7188 h -3.01984 v -21.92127 h 3.01984 v -11.71351 h -3.01984 V 828.6395 H 547.0148 v 3.78141 h -3.01984 v 11.71351 h 3.01984 v 21.92127 h -3.01984 v 11.7188 z"
         inkscape:connector-curvature="0" />
      <path
         id="path4030"
         style="fill:none;stroke:#000000"
         d="m 237.99458,988.13972 h 3.02665 v 21.92168 h -3.02665 v 11.7135 h 3.02665 v 3.781 h 52.91074 v -3.781 h 3.02664 v -11.7135 h -3.02664 v -21.92168 h 3.02664 v -11.71881 h -3.02664 v -3.77574 h -52.91074 v 3.77574 h -3.02665 z"
         inkscape:connector-curvature="0" />
      <path
         id="path4032"
         style="fill:none;stroke:#000000"
         d="m 167.93197,828.6395 h -52.91641 v 3.78141 h -3.0206 v 11.71351 h 3.0206 v 21.92127 h -3.0206 v 11.7188 h 3.0206 v 3.78104 h 52.91641 v -3.78104 h 3.02135 v -11.7188 h -3.02135 v -21.92127 h 3.02135 v -11.71351 h -3.02135 z"
         inkscape:connector-curvature="0" />
      <path
         id="path4034"
         style="fill:none;stroke:#000000"
         d="m 1103.932,844.13442 h 3.0198 v -11.71351 h -3.0198 v -3.78141 h -52.9172 v 3.78141 h -3.0198 v 11.71351 h 3.0198 v 21.92127 h -3.0198 v 11.7188 h 3.0198 v 3.78104 h 52.9172 v -3.78104 h 3.0198 v -11.7188 h -3.0198 z"
         inkscape:connector-curvature="0" />
      <path
         id="path4036"
         style="fill:none;stroke:#000000"
         d="m 815.93197,877.77449 h 3.01984 v -11.7188 h -3.01984 v -21.92127 h 3.01984 v -11.71351 h -3.01984 V 828.6395 H 763.0148 v 3.78141 h -3.01984 v 11.71351 h 3.01984 v 21.92127 h -3.01984 v 11.7188 h 3.01984 v 3.78104 h 52.91717 z"
         inkscape:connector-curvature="0" />
      <path
         id="path4038"
         style="fill:none;stroke:#000000"
         d="m 761.93386,916.13972 h 3.02362 v -11.71881 h -3.02362 v -3.77574 h -52.91339 v 3.77574 h -3.0274 v 11.71881 h 3.0274 v 21.92126 h -3.0274 v 11.71351 h 3.0274 v 3.78104 h 52.91339 v -3.78104 h 3.02362 v -11.71351 h -3.02362 z"
         inkscape:connector-curvature="0" />
      <path
         id="path4040"
         style="fill:none;stroke:#000000"
         d="m 966.98835,976.42091 v 11.71881 h 3.0274 v 21.92168 h -3.0274 v 11.7135 h 3.0274 v 3.781 h 52.91715 v -3.781 h 3.0199 v -11.7135 h -3.0199 v -21.92168 h 3.0199 v -11.71881 h -3.0199 v -3.77574 h -52.91715 v 3.77574 z"
         inkscape:connector-curvature="0" />
      <path
         id="path4042"
         style="fill:none;stroke:#000000"
         d="m 615.99496,832.42091 v 11.71351 h 3.01984 v 21.92127 h -3.01984 v 11.7188 h 3.01984 v 3.78104 h 52.91717 v -3.78104 h 3.01984 v -11.7188 h -3.01984 v -21.92127 h 3.01984 v -11.71351 h -3.01984 V 828.6395 H 619.0148 v 3.78141 z"
         inkscape:connector-curvature="0" />
      <path
         id="path4044"
         style="fill:none;stroke:#000000"
         d="m 836.95748,949.77449 v -11.71351 h -3.02362 v -21.92126 h 3.02362 v -11.71881 h -3.02362 v -3.77574 h -52.91339 v 3.77574 h -3.0274 v 11.71881 h 3.0274 v 21.92126 h -3.0274 v 11.71351 h 3.0274 v 3.78104 h 52.91339 v -3.78104 z"
         inkscape:connector-curvature="0" />
      <path
         id="path4046"
         style="fill:none;stroke:#000000"
         d="m 259.01594,866.05569 h -3.02136 v 11.7188 h 3.02136 v 3.78104 h 52.91603 v -3.78104 h 3.02135 v -11.7188 h -3.02135 v -21.92127 h 3.02135 v -11.71351 h -3.02135 v -3.78141 h -52.91603 v 3.78141 h -3.02136 v 11.71351 h 3.02136 z"
         inkscape:connector-curvature="0" />
      <path
         id="path4048"
         style="fill:none;stroke:#000000"
         d="m 455.93197,877.77449 h 3.01984 v -11.7188 h -3.01984 v -21.92127 h 3.01984 v -11.71351 h -3.01984 V 828.6395 H 403.0148 v 3.78141 h -3.01984 v 11.71351 h 3.01984 v 21.92127 h -3.01984 v 11.7188 h 3.01984 v 3.78104 h 52.91717 z"
         inkscape:connector-curvature="0" />
      <path
         id="path4050"
         style="fill:none;stroke:#000000"
         d="m 890.95181,832.42091 h -3.01984 V 828.6395 H 835.0148 v 3.78141 h -3.01984 v 11.71351 h 3.01984 v 21.92127 h -3.01984 v 11.7188 h 3.01984 v 3.78104 h 52.91717 v -3.78104 h 3.01984 v -11.7188 h -3.01984 v -21.92127 h 3.01984 z"
         inkscape:connector-curvature="0" />
      <path
         id="path4052"
         style="fill:none;stroke:#000000"
         d="m 692.95748,904.42091 h -3.02362 v -3.77574 h -52.91339 v 3.77574 h -3.0274 v 11.71881 h 3.0274 v 21.92126 h -3.0274 v 11.71351 h 3.0274 v 3.78104 h 52.91339 v -3.78104 h 3.02362 v -11.71351 h -3.02362 v -21.92126 h 3.02362 z"
         inkscape:connector-curvature="0" />
      <path
         id="path4054"
         style="fill:none;stroke:#000000"
         d="m 529.02047,972.64517 v 3.77574 h -3.0274 v 11.71881 h 3.0274 v 21.92168 h -3.0274 v 11.7135 h 3.0274 v 3.781 h 52.91339 v -3.781 h 3.02362 v -11.7135 h -3.02362 v -21.92168 h 3.02362 v -11.71881 h -3.02362 v -3.77574 z"
         inkscape:connector-curvature="0" />
      <path
         id="path4056"
         style="fill:none;stroke:#000000"
         d="m 932.93102,1044.6448 h -52.91338 v 3.7761 h -3.02362 v 11.7131 h 3.02362 v 21.9274 h -3.02362 v 11.7135 h 3.02362 v 3.7812 h 52.91338 v -3.7812 h 3.02363 v -11.7135 h -3.02363 v -21.9274 h 3.02363 v -11.7131 h -3.02363 z"
         inkscape:connector-curvature="0" />
      <path
         id="path4058"
         style="fill:none;stroke:#000000"
         d="m 21.989594,866.05569 v 11.7188 h 3.026003 v 3.78104 h 52.916749 v -3.78104 h 3.02589 v -11.7188 h -3.02589 v -21.92127 h 3.02589 v -11.71351 h -3.02589 V 828.6395 H 25.015597 v 3.78141 h -3.026003 v 11.71351 h 3.026003 v 21.92127 z"
         inkscape:connector-curvature="0" />
      <path
         id="path4060"
         style="fill:none;stroke:#000000"
         d="m 437.93386,976.42091 v -3.77574 h -52.91339 v 3.77574 h -3.0274 v 11.71881 h 3.0274 v 21.92168 h -3.0274 v 11.7135 h 3.0274 v 3.781 h 52.91339 v -3.781 h 3.02362 v -11.7135 h -3.02362 v -21.92168 h 3.02362 v -11.71881 z"
         inkscape:connector-curvature="0" />
      <path
         id="path4062"
         style="fill:none;stroke:#000000"
         d="m 1013.9339,1097.5561 v -3.7812 h 3.0236 v -11.7135 h -3.0236 v -21.9274 h 3.0236 v -11.7131 h -3.0236 v -3.7761 h -52.91343 v 3.7761 h -3.0274 v 11.7131 h 3.0274 v 21.9274 h -3.0274 v 11.7135 h 3.0274 v 3.7812 z"
         inkscape:connector-curvature="0" />
      <path
         id="path4064"
         style="fill:none;stroke:#000000"
         d="m 1106.9518,976.42091 h -3.0198 v -3.77574 h -52.9172 v 3.77574 h -3.0198 v 11.71881 h 3.0198 v 21.92168 h -3.0198 v 11.7135 h 3.0198 v 3.781 h 52.9172 v -3.781 h 3.0198 v -11.7135 h -3.0198 v -21.92168 h 3.0198 z"
         inkscape:connector-curvature="0" />
    </g>
  </g>
</svg>
