<?xml version="1.0" encoding="UTF-8" standalone="no"?>
<svg
   xmlns:dc="http://purl.org/dc/elements/1.1/"
   xmlns:cc="http://creativecommons.org/ns#"
   xmlns:rdf="http://www.w3.org/1999/02/22-rdf-syntax-ns#"
   xmlns:svg="http://www.w3.org/2000/svg"
   xmlns="http://www.w3.org/2000/svg"
   xmlns:sodipodi="http://sodipodi.sourceforge.net/DTD/sodipodi-0.dtd"
   xmlns:inkscape="http://www.inkscape.org/namespaces/inkscape"
   width="350mm"
   height="130mm"
   version="1.1"
   id="svg46"
   sodipodi:docname="L4_plate.svg"
   inkscape:version="0.92.4 (5da689c313, 2019-01-14)">
  <metadata
     id="metadata50">
    <rdf:RDF>
      <cc:Work
         rdf:about="">
        <dc:format>image/svg+xml</dc:format>
        <dc:type
           rdf:resource="http://purl.org/dc/dcmitype/StillImage" />
        <dc:title></dc:title>
      </cc:Work>
    </rdf:RDF>
  </metadata>
  <sodipodi:namedview
     pagecolor="#ffffff"
     bordercolor="#666666"
     borderopacity="1"
     objecttolerance="10"
     gridtolerance="10"
     guidetolerance="10"
     inkscape:pageopacity="0"
     inkscape:pageshadow="2"
     inkscape:window-width="2560"
     inkscape:window-height="1377"
     id="namedview48"
     showgrid="false"
     units="mm"
     inkscape:zoom="0.38047663"
     inkscape:cx="478.90457"
     inkscape:cy="114.08926"
     inkscape:window-x="-8"
     inkscape:window-y="-8"
     inkscape:window-maximized="1"
     inkscape:current-layer="g44" />
  <desc
     id="desc10">C:\msys64\home\Cody Bender\keyboards\nightmare\case\acrylic\L0.dxf - scale = 1.000000, origin = (0.000000, 0.000000), method = manual</desc>
  <defs
     id="defs24">
    <marker
       id="DistanceX"
       orient="auto"
       refX="0"
       refY="0"
       style="overflow:visible">
      <path
         d="M 3,-3 -3,3 M 0,-5 V 5"
         style="stroke:#000000;stroke-width:0.5"
         id="path12"
         inkscape:connector-curvature="0" />
    </marker>
    <pattern
       height="8"
       id="Hatch"
       patternUnits="userSpaceOnUse"
       width="8"
       x="0"
       y="0">
      <path
         d="M8 4 l-4,4"
         linecap="square"
         stroke="#000000"
         stroke-width="0.25"
         id="path15" />
      <path
         d="M6 2 l-4,4"
         linecap="square"
         stroke="#000000"
         stroke-width="0.25"
         id="path17" />
      <path
         d="M4 0 l-4,4"
         linecap="square"
         stroke="#000000"
         stroke-width="0.25"
         id="path19" />
    </pattern>
    <symbol
       id="*MODEL_SPACE" />
    <symbol
       id="*PAPER_SPACE" />
    <marker
       style="overflow:visible"
       refY="0.0"
       refX="0.0"
       orient="auto"
       id="DistanceX-2">
      <path
         id="path3757"
         style="stroke:#000000; stroke-width:0.5"
         d="M 3,-3 L -3,3 M 0,-5 L  0,5" />
    </marker>
    <pattern
       y="0"
       x="0"
       width="8"
       patternUnits="userSpaceOnUse"
       id="Hatch-8"
       height="8">
      <path
         id="path3760"
         stroke-width="0.25"
         stroke="#000000"
         linecap="square"
         d="M8 4 l-4,4" />
      <path
         id="path3762"
         stroke-width="0.25"
         stroke="#000000"
         linecap="square"
         d="M6 2 l-4,4" />
      <path
         id="path3764"
         stroke-width="0.25"
         stroke="#000000"
         linecap="square"
         d="M4 0 l-4,4" />
    </pattern>
    <symbol
       id="*MODEL_SPACE-9" />
    <symbol
       id="*PAPER_SPACE-9" />
    <marker
       style="overflow:visible"
       refY="0.0"
       refX="0.0"
       orient="auto"
       id="DistanceX-3">
      <path
         id="path3811"
         style="stroke:#000000; stroke-width:0.5"
         d="M 3,-3 L -3,3 M 0,-5 L  0,5" />
    </marker>
    <pattern
       y="0"
       x="0"
       width="8"
       patternUnits="userSpaceOnUse"
       id="Hatch-3"
       height="8">
      <path
         id="path3814"
         stroke-width="0.25"
         stroke="#000000"
         linecap="square"
         d="M8 4 l-4,4" />
      <path
         id="path3816"
         stroke-width="0.25"
         stroke="#000000"
         linecap="square"
         d="M6 2 l-4,4" />
      <path
         id="path3818"
         stroke-width="0.25"
         stroke="#000000"
         linecap="square"
         d="M4 0 l-4,4" />
    </pattern>
    <symbol
       id="*MODEL_SPACE-6" />
    <symbol
       id="*PAPER_SPACE-0" />
    <marker
       style="overflow:visible"
       refY="0.0"
       refX="0.0"
       orient="auto"
       id="DistanceX-34">
      <path
         id="path3865"
         style="stroke:#000000; stroke-width:0.5"
         d="M 3,-3 L -3,3 M 0,-5 L  0,5" />
    </marker>
    <pattern
       y="0"
       x="0"
       width="8"
       patternUnits="userSpaceOnUse"
       id="Hatch-34"
       height="8">
      <path
         id="path3868"
         stroke-width="0.25"
         stroke="#000000"
         linecap="square"
         d="M8 4 l-4,4" />
      <path
         id="path3870"
         stroke-width="0.25"
         stroke="#000000"
         linecap="square"
         d="M6 2 l-4,4" />
      <path
         id="path3872"
         stroke-width="0.25"
         stroke="#000000"
         linecap="square"
         d="M4 0 l-4,4" />
    </pattern>
    <symbol
       id="*MODEL_SPACE-1" />
    <symbol
       id="*PAPER_SPACE-4" />
    <marker
       style="overflow:visible"
       refY="0.0"
       refX="0.0"
       orient="auto"
       id="DistanceX-6">
      <path
         id="path3919"
         style="stroke:#000000; stroke-width:0.5"
         d="M 3,-3 L -3,3 M 0,-5 L  0,5" />
    </marker>
    <pattern
       y="0"
       x="0"
       width="8"
       patternUnits="userSpaceOnUse"
       id="Hatch-7"
       height="8">
      <path
         id="path3922"
         stroke-width="0.25"
         stroke="#000000"
         linecap="square"
         d="M8 4 l-4,4" />
      <path
         id="path3924"
         stroke-width="0.25"
         stroke="#000000"
         linecap="square"
         d="M6 2 l-4,4" />
      <path
         id="path3926"
         stroke-width="0.25"
         stroke="#000000"
         linecap="square"
         d="M4 0 l-4,4" />
    </pattern>
    <symbol
       id="*MODEL_SPACE-8" />
    <symbol
       id="*PAPER_SPACE-3" />
  </defs>
  <g
     inkscape:groupmode="layer"
     inkscape:label="0"
     id="g44"
     transform="translate(0,-631.18121)">
    <g
       id="g4045"
       inkscape:label="0"
       transform="translate(97.853395,-85.749617)">
      <path
         id="path3933"
         style="fill:none;stroke:#000000"
         d="m 872.98116,1148.0954 a 6.141735,6.141735 0 1 0 -12.28347,0 6.141735,6.141735 0 1 0 12.28347,0 z"
         inkscape:connector-curvature="0" />
      <path
         id="path3935"
         style="fill:none;stroke:#000000"
         d="m -28.337612,956.5505 a 6.1417325,6.1417325 0 1 0 -12.283465,0 6.1417325,6.1417325 0 1 0 12.283465,0 z"
         inkscape:connector-curvature="0" />
      <path
         id="path3937"
         style="fill:none;stroke:#000000"
         d="m 268.26368,765.01631 a 6.141735,6.141735 0 1 0 -12.28347,0 6.141735,6.141735 0 1 0 12.28347,0 z"
         inkscape:connector-curvature="0" />
      <path
         id="path3939"
         style="fill:none;stroke:#000000"
         d="m 268.25675,1148.0954 a 6.141735,6.141735 0 1 0 -12.28347,0 6.141735,6.141735 0 1 0 12.28347,0 z"
         inkscape:connector-curvature="0" />
      <path
         id="path3941"
         style="fill:none;stroke:#000000"
         d="m 1169.4439,956.5505 a 6.141732,6.141732 0 1 0 -12.2834,0 6.141732,6.141732 0 1 0 12.2834,0 z"
         inkscape:connector-curvature="0" />
      <path
         id="path3943"
         style="fill:none;stroke:#000000"
         d="m 872.98808,765.03818 a 6.141732,6.141732 0 1 0 -12.28346,0 6.141732,6.141732 0 1 0 12.28346,0 z"
         inkscape:connector-curvature="0" />
      <path
         id="path3945"
         style="fill:none;stroke:#000000"
         d="M 1136.5151,1175.1362 H -7.562947 l -4.577319,-1.6898 -5.061013,-2.3585 -4.829334,-2.6937 -4.724515,-3.1581 -4.473172,-3.5234 -4.10098,-3.8064 -3.739911,-4.0294 -3.605566,-4.5451 -3.132919,-4.7243 -2.743616,-4.8748 -2.35747,-5.1367 -1.987424,-5.3585 -1.500205,-5.4106 -1.087616,-5.3897 -0.675449,-5.679 -0.179311,-4.5423 0.0052,-290.11638 0.159793,-4.53534 0.689574,-5.80097 1.088574,-5.39267 1.488395,-5.36679 1.996738,-5.40883 2.384782,-5.1735 2.724354,-4.83831 3.120373,-4.70301 3.604144,-4.5494 3.74436,-4.03185 4.036554,-3.75012 4.559109,-3.61151 4.697853,-3.11491 4.827538,-2.71972 5.168235,-2.38321 5.426469,-2.00571 5.372848,-1.4869 5.38519,-1.08825 5.691348,-0.67497 4.527236,-0.17801 1100.103,0.005 4.541,0.15763 5.8054,0.69032 5.4072,1.09022 5.3763,1.49362 5.3603,1.98059 5.2283,2.40134 4.8482,2.74375 4.638,3.07313 4.5755,3.61968 4.078,3.79069 3.7648,4.06532 3.5072,4.44242 3.1709,4.74191 2.7116,4.85774 2.3882,5.13838 1.985,5.42024 1.4846,5.29369 1.1082,5.49091 0.6859,5.80246 0.1588,4.51737 v 289.99735 l -0.1589,4.5187 -0.686,5.7997 -1.1072,5.4879 -1.4964,5.3373 -1.9757,5.3695 -2.361,5.102 -2.7307,4.8945 -3.1835,4.7631 -3.5086,4.4382 -3.7604,4.0628 -4.1423,3.847 -4.4896,3.5317 -4.6651,3.1162 -4.8503,2.7176 -5.1206,2.3769 z"
         inkscape:connector-curvature="0" />
      <path
         id="path3947"
         style="fill:none;stroke:#000000"
         d="m 273.99458,938.06098 v 11.71351 h 3.02665 v 3.78104 h 52.91074 v -3.78104 h 3.02664 v -11.71351 h -3.02664 v -21.92126 h 3.02664 v -11.71881 h -3.02664 v -3.77574 h -52.91074 v 3.77574 h -3.02665 v 11.71881 h 3.02665 v 21.92126 z"
         inkscape:connector-curvature="0" />
      <path
         id="path3949"
         style="fill:none;stroke:#000000"
         d="m 601.02047,1021.7749 v 3.781 h 52.91339 v -3.781 h 3.02362 v -11.7135 h -3.02362 v -21.92168 h 3.02362 v -11.71881 h -3.02362 v -3.77574 h -52.91339 v 3.77574 h -3.0274 v 11.71881 h 3.0274 v 21.92168 h -3.0274 v 11.7135 z"
         inkscape:connector-curvature="0" />
      <path
         id="path3951"
         style="fill:none;stroke:#000000"
         d="m 797.93386,1025.5559 v -3.781 h 3.02362 v -11.7135 h -3.02362 v -21.92168 h 3.02362 v -11.71881 h -3.02362 v -3.77574 h -52.91339 v 3.77574 h -3.0274 v 11.71881 h 3.0274 v 21.92168 h -3.0274 v 11.7135 h 3.0274 v 3.781 z"
         inkscape:connector-curvature="0" />
      <path
         id="path3953"
         style="fill:none;stroke:#000000"
         d="m 401.93386,900.64517 h -52.91263 v 3.77574 h -3.02665 v 11.71881 h 3.02665 v 21.92126 h -3.02665 v 11.71351 h 3.02665 v 3.78104 h 52.91263 v -3.78104 h 3.02362 v -11.71351 h -3.02362 v -21.92126 h 3.02362 v -11.71881 h -3.02362 z"
         inkscape:connector-curvature="0" />
      <path
         id="path3955"
         style="fill:none;stroke:#000000"
         d="m 728.95748,1010.0614 h -3.02362 v -21.92168 h 3.02362 v -11.71881 h -3.02362 v -3.77574 h -52.91339 v 3.77574 h -3.0274 v 11.71881 h 3.0274 v 21.92168 h -3.0274 v 11.7135 h 3.0274 v 3.781 h 52.91339 v -3.781 h 3.02362 z"
         inkscape:connector-curvature="0" />
      <path
         id="path3957"
         style="fill:none;stroke:#000000"
         d="m 476.95748,949.77449 v -11.71351 h -3.02362 v -21.92126 h 3.02362 v -11.71881 h -3.02362 v -3.77574 h -52.91339 v 3.77574 h -3.0274 v 11.71881 h 3.0274 v 21.92126 h -3.0274 v 11.71351 h 3.0274 v 3.78104 h 52.91339 v -3.78104 z"
         inkscape:connector-curvature="0" />
      <path
         id="path3959"
         style="fill:none;stroke:#000000"
         d="m 124.01575,953.55553 h 52.91641 v -3.78104 h 3.02135 v -11.71351 h -3.02135 v -21.92126 h 3.02135 v -11.71881 h -3.02135 v -3.77574 h -52.91641 v 3.77574 h -3.02098 v 11.71881 h 3.02098 v 21.92126 h -3.02098 v 11.71351 h 3.02098 z"
         inkscape:connector-curvature="0" />
      <path
         id="path3961"
         style="fill:none;stroke:#000000"
         d="m 142.02142,1021.7749 v 3.781 h 52.91074 v -3.781 h 3.02135 v -11.7135 h -3.02135 v -21.92168 h 3.02135 v -11.71881 h -3.02135 v -3.77574 h -52.91074 v 3.77574 h -3.02665 v 11.71881 h 3.02665 v 21.92168 h -3.02665 v 11.7135 z"
         inkscape:connector-curvature="0" />
      <path
         id="path3963"
         style="fill:none;stroke:#000000"
         d="m 201.99458,1082.0614 v 11.7135 h 3.02665 v 3.7812 h 52.91074 v -3.7812 h 3.02664 v -11.7135 h -3.02664 v -21.9274 h 3.02664 v -11.7131 h -3.02664 v -3.7761 h -52.91074 v 3.7761 h -3.02665 v 11.7131 h 3.02665 v 21.9274 z"
         inkscape:connector-curvature="0" />
      <path
         id="path3965"
         style="fill:none;stroke:#000000"
         d="m 527.93197,877.77449 h 3.01984 v -11.7188 h -3.01984 v -21.92127 h 3.01984 v -11.71351 h -3.01984 V 828.6395 H 475.0148 v 3.78141 h -3.01984 v 11.71351 h 3.01984 v 21.92127 h -3.01984 v 11.7188 h 3.01984 v 3.78104 h 52.91717 z"
         inkscape:connector-curvature="0" />
      <path
         id="path3967"
         style="fill:none;stroke:#000000"
         d="m 383.93197,877.77449 h 3.01984 v -11.7188 h -3.01984 v -21.92127 h 3.01984 v -11.71351 h -3.01984 v -3.78141 h -52.91603 v 3.78141 h -3.02136 v 11.71351 h 3.02136 v 21.92127 h -3.02136 v 11.7188 h 3.02136 v 3.78104 h 52.91603 z"
         inkscape:connector-curvature="0" />
      <path
         id="path3969"
         style="fill:none;stroke:#000000"
         d="m 903.99496,844.13442 h 3.01984 v 21.92127 h -3.01984 v 11.7188 h 3.01984 v 3.78104 h 52.91717 v -3.78104 h 3.01984 v -11.7188 h -3.01984 v -21.92127 h 3.01984 v -11.71351 h -3.01984 V 828.6395 H 907.0148 v 3.78141 h -3.01984 z"
         inkscape:connector-curvature="0" />
      <path
         id="path3971"
         style="fill:none;stroke:#000000"
         d="m 905.93386,916.13972 h 3.02362 v -11.71881 h -3.02362 v -3.77574 h -52.91339 v 3.77574 h -3.0274 v 11.71881 h 3.0274 v 21.92126 h -3.0274 v 11.71351 h 3.0274 v 3.78104 h 52.91339 v -3.78104 h 3.02362 v -11.71351 h -3.02362 z"
         inkscape:connector-curvature="0" />
      <path
         id="path3973"
         style="fill:none;stroke:#000000"
         d="m 183.99458,866.05569 v 11.7188 h 3.02136 v 3.78104 h 52.91603 v -3.78104 h 3.02135 v -11.7188 h -3.02135 v -21.92127 h 3.02135 v -11.71351 h -3.02135 v -3.78141 h -52.91603 v 3.78141 h -3.02136 v 11.71351 h 3.02136 v 21.92127 z"
         inkscape:connector-curvature="0" />
      <path
         id="path3975"
         style="fill:none;stroke:#000000"
         d="m 1024.0176,916.13972 v 21.92126 h -3.0236 v 11.71351 h 3.0236 v 3.78104 h 52.9134 v -3.78104 h 3.0236 v -11.71351 h -3.0236 v -21.92126 h 3.0236 v -11.71881 h -3.0236 v -3.77574 h -52.9134 v 3.77574 h -3.0236 v 11.71881 z"
         inkscape:connector-curvature="0" />
      <path
         id="path3977"
         style="fill:none;stroke:#000000"
         d="m 944.95748,1021.7749 v -11.7135 h -3.02362 v -21.92168 h 3.02362 v -11.71881 h -3.02362 v -3.77574 h -52.91339 v 3.77574 h -3.0274 v 11.71881 h 3.0274 v 21.92168 h -3.0274 v 11.7135 h 3.0274 v 3.781 h 52.91339 v -3.781 z"
         inkscape:connector-curvature="0" />
      <path
         id="path3979"
         style="fill:none;stroke:#000000"
         d="m 25.015597,972.64517 v 3.77574 h -3.026003 v 11.71881 h 3.026003 v 21.92168 h -3.026003 v 11.7135 h 3.026003 v 3.781 h 52.916749 v -3.781 h 3.02589 v -11.7135 h -3.02589 v -21.92168 h 3.02589 v -11.71881 h -3.02589 v -3.77574 z"
         inkscape:connector-curvature="0" />
      <path
         id="path3981"
         style="fill:none;stroke:#000000"
         d="m 548.95748,949.77449 v -11.71351 h -3.02362 v -21.92126 h 3.02362 v -11.71881 h -3.02362 v -3.77574 h -52.91339 v 3.77574 h -3.03118 v 11.71881 h 3.03118 v 21.92126 h -3.03118 v 11.71351 h 3.03118 v 3.78104 h 52.91339 v -3.78104 z"
         inkscape:connector-curvature="0" />
      <path
         id="path3983"
         style="fill:none;stroke:#000000"
         d="m 743.93197,866.05569 v -21.92127 h 3.01984 v -11.71351 h -3.01984 V 828.6395 H 691.0148 v 3.78141 h -3.01984 v 11.71351 h 3.01984 v 21.92127 h -3.01984 v 11.7188 h 3.01984 v 3.78104 h 52.91717 v -3.78104 h 3.01984 v -11.7188 z"
         inkscape:connector-curvature="0" />
      <path
         id="path3985"
         style="fill:none;stroke:#000000"
         d="m 457.02047,1010.0614 h -3.0274 v 11.7135 h 3.0274 v 3.781 h 52.91339 v -3.781 h 3.02362 v -11.7135 h -3.02362 v -21.92168 h 3.02362 v -11.71881 h -3.02362 v -3.77574 h -52.91339 v 3.77574 h -3.0274 v 11.71881 h 3.0274 z"
         inkscape:connector-curvature="0" />
      <path
         id="path3987"
         style="fill:none;stroke:#000000"
         d="m 979.0148,877.77449 v 3.78104 h 52.9172 v -3.78104 h 3.0198 v -11.7188 h -3.0198 v -21.92127 h 3.0198 v -11.71351 h -3.0198 v -3.78141 h -52.9172 v 3.78141 h -3.01984 v 11.71351 h 3.01984 v 21.92127 h -3.01984 v 11.7188 z"
         inkscape:connector-curvature="0" />
      <path
         id="path3989"
         style="fill:none;stroke:#000000"
         d="m 201.99458,916.13972 h 3.02665 v 21.92126 h -3.02665 v 11.71351 h 3.02665 v 3.78104 h 52.91074 v -3.78104 h 3.02664 v -11.71351 h -3.02664 v -21.92126 h 3.02664 v -11.71881 h -3.02664 v -3.77574 h -52.91074 v 3.77574 h -3.02665 z"
         inkscape:connector-curvature="0" />
      <path
         id="path3991"
         style="fill:none;stroke:#000000"
         d="m 617.93386,953.55553 v -3.78104 h 3.02362 v -11.71351 h -3.02362 v -21.92126 h 3.02362 v -11.71881 h -3.02362 v -3.77574 h -52.91339 v 3.77574 h -3.0274 v 11.71881 h 3.0274 v 21.92126 h -3.0274 v 11.71351 h 3.0274 v 3.78104 z"
         inkscape:connector-curvature="0" />
      <path
         id="path3993"
         style="fill:none;stroke:#000000"
         d="m 286.02142,1093.7749 v 3.7812 h 52.91074 v -3.7812 h 3.02135 v -11.7135 h -3.02135 v -21.9274 h 3.02135 v -11.7131 h -3.02135 v -3.7761 h -52.91074 v 3.7761 h -3.02665 v 11.7131 h 3.02665 v 21.9274 h -3.02665 v 11.7135 z"
         inkscape:connector-curvature="0" />
      <path
         id="path3995"
         style="fill:none;stroke:#000000"
         d="m 716.93102,1048.4209 v -3.7761 h -52.91338 v 3.7761 h -1.51181 v -12.8724 h -34.01575 v 9.0963 H 583.0148 v 3.7761 h -3.01984 v 11.7131 h 3.01984 v 2.2712 h -10.55716 v -26.8567 h -34.01575 v 12.8724 h -1.51087 v -3.7761 h -52.91338 v 3.7761 h -1.5137 v -12.8724 h -34.01575 v 26.8567 h -28.55622 v -2.2712 h 3.01984 v -11.7131 h -3.01984 v -3.7761 h -11.81103 v -0.1172 h -29.29133 v 0.1172 h -11.81367 v 3.7761 h -3.02136 v 11.7131 h 3.02136 v 21.9274 h -3.02136 v 11.7135 h 3.02136 v 3.7812 h 11.81367 v 4.7995 h 29.29133 v -4.7995 h 11.81103 v -3.7812 h 3.01984 v -11.7135 h -3.01984 v -2.2708 h 28.55622 v 28.07 h 34.01575 v -14.0857 h 1.5137 v 3.7812 h 52.91338 v -3.7812 h 1.51087 v 14.0857 h 34.01575 v -28.07 h 10.55716 v 2.2708 h -3.01984 v 11.7135 h 3.01984 v 3.7812 h 45.47528 v 10.3045 h 34.01575 v -14.0857 h 1.51181 v 3.7812 h 52.91338 v -3.7812 h 1.51087 v 14.0857 h 34.01575 v -28.07 h 46.55716 v 2.2708 h -3.01984 v 11.7135 h 3.01984 v 3.7812 h 11.81103 v 4.7995 h 29.29133 v -4.7995 h 11.81481 v -3.7812 h 3.01984 v -11.7135 h -3.01984 v -21.9274 h 3.01984 v -11.7131 h -3.01984 v -3.7761 h -11.81481 v -0.1172 h -29.29133 v 0.1172 H 799.0148 v 3.7761 h -3.01984 v 11.7131 h 3.01984 v 2.2712 h -46.55716 v -26.8567 h -34.01575 v 12.8724 z"
         inkscape:connector-curvature="0" />
      <path
         id="path3997"
         style="fill:none;stroke:#000000"
         d="m 869.93386,976.42091 v -3.77574 h -52.91339 v 3.77574 h -3.0274 v 11.71881 h 3.0274 v 21.92168 h -3.0274 v 11.7135 h 3.0274 v 3.781 h 52.91339 v -3.781 h 3.02362 v -11.7135 h -3.02362 v -21.92168 h 3.02362 v -11.71881 z"
         inkscape:connector-curvature="0" />
      <path
         id="path3999"
         style="fill:none;stroke:#000000"
         d="m 77.932346,1082.0614 v -21.9274 h 3.02589 v -11.7131 h -3.02589 v -3.7761 H 25.015597 v 3.7761 h -3.026003 v 11.7131 h 3.026003 v 21.9274 h -3.026003 v 11.7135 h 3.026003 v 3.7812 h 52.916749 v -3.7812 h 3.02589 v -11.7135 z"
         inkscape:connector-curvature="0" />
      <path
         id="path4001"
         style="fill:none;stroke:#000000"
         d="m 980.95748,916.13972 v -11.71881 h -3.02362 v -3.77574 h -52.91339 v 3.77574 h -3.0274 v 11.71881 h 3.0274 v 21.92126 h -3.0274 v 11.71351 h 3.0274 v 3.78104 h 52.91339 v -3.78104 h 3.02362 v -11.71351 h -3.02362 v -21.92126 z"
         inkscape:connector-curvature="0" />
      <path
         id="path4003"
         style="fill:none;stroke:#000000"
         d="m 80.958236,949.77449 v -11.71351 h -3.02589 v -21.92126 h 3.02589 v -11.71881 h -3.02589 v -3.77574 H 25.015597 v 3.77574 h -3.026003 v 11.71881 h 3.026003 v 21.92126 h -3.026003 v 11.71351 h 3.026003 v 3.78104 h 52.916749 v -3.78104 z"
         inkscape:connector-curvature="0" />
      <path
         id="path4005"
         style="fill:none;stroke:#000000"
         d="m 309.99458,988.13972 h 3.02665 v 21.92168 h -3.02665 v 11.7135 h 3.02665 v 3.781 h 52.91074 v -3.781 h 3.02664 v -11.7135 h -3.02664 v -21.92168 h 3.02664 v -11.71881 h -3.02664 v -3.77574 h -52.91074 v 3.77574 h -3.02665 z"
         inkscape:connector-curvature="0" />
      <path
         id="path4007"
         style="fill:none;stroke:#000000"
         d="m 547.0148,877.77449 v 3.78104 h 52.91717 v -3.78104 h 3.01984 v -11.7188 h -3.01984 v -21.92127 h 3.01984 v -11.71351 h -3.01984 V 828.6395 H 547.0148 v 3.78141 h -3.01984 v 11.71351 h 3.01984 v 21.92127 h -3.01984 v 11.7188 z"
         inkscape:connector-curvature="0" />
      <path
         id="path4009"
         style="fill:none;stroke:#000000"
         d="m 237.99458,988.13972 h 3.02665 v 21.92168 h -3.02665 v 11.7135 h 3.02665 v 3.781 h 52.91074 v -3.781 h 3.02664 v -11.7135 h -3.02664 v -21.92168 h 3.02664 v -11.71881 h -3.02664 v -3.77574 h -52.91074 v 3.77574 h -3.02665 z"
         inkscape:connector-curvature="0" />
      <path
         id="path4011"
         style="fill:none;stroke:#000000"
         d="m 167.93197,828.6395 h -52.91641 v 3.78141 h -3.0206 v 11.71351 h 3.0206 v 21.92127 h -3.0206 v 11.7188 h 3.0206 v 3.78104 h 52.91641 v -3.78104 h 3.02135 v -11.7188 h -3.02135 v -21.92127 h 3.02135 v -11.71351 h -3.02135 z"
         inkscape:connector-curvature="0" />
      <path
         id="path4013"
         style="fill:none;stroke:#000000"
         d="m 1103.932,844.13442 h 3.0198 v -11.71351 h -3.0198 v -3.78141 h -52.9172 v 3.78141 h -3.0198 v 11.71351 h 3.0198 v 21.92127 h -3.0198 v 11.7188 h 3.0198 v 3.78104 h 52.9172 v -3.78104 h 3.0198 v -11.7188 h -3.0198 z"
         inkscape:connector-curvature="0" />
      <path
         id="path4015"
         style="fill:none;stroke:#000000"
         d="m 815.93197,877.77449 h 3.01984 v -11.7188 h -3.01984 v -21.92127 h 3.01984 v -11.71351 h -3.01984 V 828.6395 H 763.0148 v 3.78141 h -3.01984 v 11.71351 h 3.01984 v 21.92127 h -3.01984 v 11.7188 h 3.01984 v 3.78104 h 52.91717 z"
         inkscape:connector-curvature="0" />
      <path
         id="path4017"
         style="fill:none;stroke:#000000"
         d="m 761.93386,916.13972 h 3.02362 v -11.71881 h -3.02362 v -3.77574 h -52.91339 v 3.77574 h -3.0274 v 11.71881 h 3.0274 v 21.92126 h -3.0274 v 11.71351 h 3.0274 v 3.78104 h 52.91339 v -3.78104 h 3.02362 v -11.71351 h -3.02362 z"
         inkscape:connector-curvature="0" />
      <path
         id="path4019"
         style="fill:none;stroke:#000000"
         d="m 966.98835,976.42091 v 11.71881 h 3.0274 v 21.92168 h -3.0274 v 11.7135 h 3.0274 v 3.781 h 52.91715 v -3.781 h 3.0199 v -11.7135 h -3.0199 v -21.92168 h 3.0199 v -11.71881 h -3.0199 v -3.77574 h -52.91715 v 3.77574 z"
         inkscape:connector-curvature="0" />
      <path
         id="path4021"
         style="fill:none;stroke:#000000"
         d="m 615.99496,832.42091 v 11.71351 h 3.01984 v 21.92127 h -3.01984 v 11.7188 h 3.01984 v 3.78104 h 52.91717 v -3.78104 h 3.01984 v -11.7188 h -3.01984 v -21.92127 h 3.01984 v -11.71351 h -3.01984 V 828.6395 H 619.0148 v 3.78141 z"
         inkscape:connector-curvature="0" />
      <path
         id="path4023"
         style="fill:none;stroke:#000000"
         d="m 836.95748,949.77449 v -11.71351 h -3.02362 v -21.92126 h 3.02362 v -11.71881 h -3.02362 v -3.77574 h -52.91339 v 3.77574 h -3.0274 v 11.71881 h 3.0274 v 21.92126 h -3.0274 v 11.71351 h 3.0274 v 3.78104 h 52.91339 v -3.78104 z"
         inkscape:connector-curvature="0" />
      <path
         id="path4025"
         style="fill:none;stroke:#000000"
         d="m 259.01594,866.05569 h -3.02136 v 11.7188 h 3.02136 v 3.78104 h 52.91603 v -3.78104 h 3.02135 v -11.7188 h -3.02135 v -21.92127 h 3.02135 v -11.71351 h -3.02135 v -3.78141 h -52.91603 v 3.78141 h -3.02136 v 11.71351 h 3.02136 z"
         inkscape:connector-curvature="0" />
      <path
         id="path4027"
         style="fill:none;stroke:#000000"
         d="m 455.93197,877.77449 h 3.01984 v -11.7188 h -3.01984 v -21.92127 h 3.01984 v -11.71351 h -3.01984 V 828.6395 H 403.0148 v 3.78141 h -3.01984 v 11.71351 h 3.01984 v 21.92127 h -3.01984 v 11.7188 h 3.01984 v 3.78104 h 52.91717 z"
         inkscape:connector-curvature="0" />
      <path
         id="path4029"
         style="fill:none;stroke:#000000"
         d="m 890.95181,832.42091 h -3.01984 V 828.6395 H 835.0148 v 3.78141 h -3.01984 v 11.71351 h 3.01984 v 21.92127 h -3.01984 v 11.7188 h 3.01984 v 3.78104 h 52.91717 v -3.78104 h 3.01984 v -11.7188 h -3.01984 v -21.92127 h 3.01984 z"
         inkscape:connector-curvature="0" />
      <path
         id="path4031"
         style="fill:none;stroke:#000000"
         d="m 692.95748,904.42091 h -3.02362 v -3.77574 h -52.91339 v 3.77574 h -3.0274 v 11.71881 h 3.0274 v 21.92126 h -3.0274 v 11.71351 h 3.0274 v 3.78104 h 52.91339 v -3.78104 h 3.02362 v -11.71351 h -3.02362 v -21.92126 h 3.02362 z"
         inkscape:connector-curvature="0" />
      <path
         id="path4033"
         style="fill:none;stroke:#000000"
         d="m 529.02047,972.64517 v 3.77574 h -3.0274 v 11.71881 h 3.0274 v 21.92168 h -3.0274 v 11.7135 h 3.0274 v 3.781 h 52.91339 v -3.781 h 3.02362 v -11.7135 h -3.02362 v -21.92168 h 3.02362 v -11.71881 h -3.02362 v -3.77574 z"
         inkscape:connector-curvature="0" />
      <path
         id="path4035"
         style="fill:none;stroke:#000000"
         d="m 932.93102,1044.6448 h -52.91338 v 3.7761 h -3.02362 v 11.7131 h 3.02362 v 21.9274 h -3.02362 v 11.7135 h 3.02362 v 3.7812 h 52.91338 v -3.7812 h 3.02363 v -11.7135 h -3.02363 v -21.9274 h 3.02363 v -11.7131 h -3.02363 z"
         inkscape:connector-curvature="0" />
      <path
         id="path4037"
         style="fill:none;stroke:#000000"
         d="m 21.989594,866.05569 v 11.7188 h 3.026003 v 3.78104 h 52.916749 v -3.78104 h 3.02589 v -11.7188 h -3.02589 v -21.92127 h 3.02589 v -11.71351 h -3.02589 V 828.6395 H 25.015597 v 3.78141 h -3.026003 v 11.71351 h 3.026003 v 21.92127 z"
         inkscape:connector-curvature="0" />
      <path
         id="path4039"
         style="fill:none;stroke:#000000"
         d="m 437.93386,976.42091 v -3.77574 h -52.91339 v 3.77574 h -3.0274 v 11.71881 h 3.0274 v 21.92168 h -3.0274 v 11.7135 h 3.0274 v 3.781 h 52.91339 v -3.781 h 3.02362 v -11.7135 h -3.02362 v -21.92168 h 3.02362 v -11.71881 z"
         inkscape:connector-curvature="0" />
      <path
         id="path4041"
         style="fill:none;stroke:#000000"
         d="m 1013.9339,1097.5561 v -3.7812 h 3.0236 v -11.7135 h -3.0236 v -21.9274 h 3.0236 v -11.7131 h -3.0236 v -3.7761 h -52.91343 v 3.7761 h -3.0274 v 11.7131 h 3.0274 v 21.9274 h -3.0274 v 11.7135 h 3.0274 v 3.7812 z"
         inkscape:connector-curvature="0" />
      <path
         id="path4043"
         style="fill:none;stroke:#000000"
         d="m 1106.9518,976.42091 h -3.0198 v -3.77574 h -52.9172 v 3.77574 h -3.0198 v 11.71881 h 3.0198 v 21.92168 h -3.0198 v 11.7135 h 3.0198 v 3.781 h 52.9172 v -3.781 h 3.0198 v -11.7135 h -3.0198 v -21.92168 h 3.0198 z"
         inkscape:connector-curvature="0" />
    </g>
  </g>
</svg>
