0
SECTION
2
HEADER
9
$INSUNITS
70
4
9
$ACADVER
1
AC1014
9
$HANDSEED
5
FFFF
0
ENDSEC
0
SECTION
2
TABLES
0
TABLE
2
VPORT
5
8
100
AcDbSymbolTable
0
ENDTAB
0
TABLE
2
LTYPE
5
5
100
AcDbSymbolTable
0
LTYPE
5
14
100
AcDbSymbolTableRecord
100
AcDbLinetypeTableRecord
2
BYBLOCK
70
0
0
LTYPE
5
15
100
AcDbSymbolTableRecord
100
AcDbLinetypeTableRecord
2
BYLAYER
70
0
0
ENDTAB
0
TABLE
2
LAYER
5
2
100
AcDbSymbolTable
70
2
0
LAYER
5
50
100
AcDbSymbolTableRecord
100
AcDbLayerTableRecord
2
0
70
0
6
CONTINUOUS
0
ENDTAB
0
TABLE
2
STYLE
5
3
100
AcDbSymbolTable
70
1
0
STYLE
5
11
100
AcDbSymbolTableRecord
100
AcDbTextStyleTableRecord
2
STANDARD
70
0
0
ENDTAB
0
TABLE
2
VIEW
5
6
100
AcDbSymbolTable
70
0
0
ENDTAB
0
TABLE
2
UCS
5
7
100
AcDbSymbolTable
70
0
0
ENDTAB
0
TABLE
2
APPID
5
9
100
AcDbSymbolTable
70
2
0
APPID
5
12
100
AcDbSymbolTableRecord
100
AcDbRegAppTableRecord
2
ACAD
70
0
0
ENDTAB
0
TABLE
2
DIMSTYLE
5
A
100
AcDbSymbolTable
70
1
0
ENDTAB
0
TABLE
2
BLOCK_RECORD
5
1
100
AcDbSymbolTable
70
1
0
BLOCK_RECORD
5
1F
100
AcDbSymbolTableRecord
100
AcDbBlockTableRecord
2
*MODEL_SPACE
0
BLOCK_RECORD
5
1B
100
AcDbSymbolTableRecord
100
AcDbBlockTableRecord
2
*PAPER_SPACE
0
ENDTAB
0
ENDSEC
0
SECTION
2
BLOCKS
0
BLOCK
5
20
100
AcDbEntity
100
AcDbBlockBegin
2
*MODEL_SPACE
0
ENDBLK
5
21
100
AcDbEntity
100
AcDbBlockEnd
0
BLOCK
5
1C
100
AcDbEntity
100
AcDbBlockBegin
2
*PAPER_SPACE
0
ENDBLK
5
1D
100
AcDbEntity
100
AcDbBlockEnd
0
ENDSEC
0
SECTION
2
ENTITIES
0
CIRCLE
5
100
100
AcDbEntity
8
0
100
AcDbCircle
10
273.14225209932988
20
95.3591135909559
30
0
40
1.6250000000000142
210
0
220
-0
230
1
0
CIRCLE
5
101
100
AcDbEntity
8
0
100
AcDbCircle
10
25.525458547743956
20
95.3591135909559
30
0
40
1.6250000000000009
210
0
220
-0
230
1
0
CIRCLE
5
102
100
AcDbEntity
8
0
100
AcDbCircle
10
25.523597807444304
20
-6.7669107198626328
30
0
40
1.6250000000000009
210
0
220
-0
230
1
0
CIRCLE
5
103
100
AcDbEntity
8
0
100
AcDbCircle
10
307.79037055193669
20
43.912681187331692
30
0
40
1.6250000000000142
210
0
220
-0
230
1
0
CIRCLE
5
104
100
AcDbEntity
8
0
100
AcDbCircle
10
-9.1226599048629016
20
43.912681187331692
30
0
40
1.6250000000000009
210
0
220
-0
230
1
0
CIRCLE
5
105
100
AcDbEntity
8
0
100
AcDbCircle
10
273.17893177499309
20
-6.7669107198626328
30
0
40
1.6250000000000142
210
0
220
-0
230
1
0
LWPOLYLINE
5
106
100
AcDbEntity
8
0
100
AcDbPolyline
90
76
70
1
43
0.0
10
300.70296624613604
20
-13.921451900000005
10
-2.0010298135194131
20
-13.921451899999999
10
-3.2121120488930432
20
-13.474365841552416
10
-4.5511718642032628
20
-12.850328211555624
10
-5.8289329621936616
20
-12.137639999370293
10
-7.078960871786717
20
-11.302061607568206
10
-8.2624878397863419
20
-10.369811612208579
10
-9.3475387692873024
20
-9.3626987692875652
10
-10.337056779289062
20
-8.2966042953096242
10
-11.291029453763766
20
-7.0940407110073167
10
-12.119947638680467
20
-5.8440801712700718
10
-12.845862606438743
20
-4.5542806273516945
10
-13.469610007951553
20
-3.1951799552905591
10
-13.99544924758237
20
-1.7774339775160364
10
-14.392378533628126
20
-0.34587257315569886
10
-14.680143483434554
20
1.0801444731493604
10
-14.858856142407266
20
2.5827295003338335
10
-14.906298751982201
20
3.784554878989308
10
-14.90491062282562
20
80.544500995647056
10
-14.862631835917394
20
81.744478538513818
10
-14.680182167413927
20
83.279317311905956
10
-14.392163533330598
20
84.706127032449658
10
-13.998359136447537
20
86.126090305056067
10
-13.47005559515134
20
87.557177277372617
10
-12.839081900805114
20
88.925998778631651
10
-12.118263399802087
20
90.206135821037719
10
-11.292664699344977
20
91.450472643950405
10
-10.339068279416239
20
92.654170106235114
10
-9.3483728261533727
20
93.720930191677283
10
-8.2803680503014849
20
94.713149463728499
10
-7.0741037939287921
20
95.668693452439015
10
-5.8311300601300626
20
96.49284836874584
10
-4.5538440261363693
20
97.212439574448979
10
-3.1864152763789089
20
97.842997306309456
10
-1.7506618089265857
20
98.373675936191859
10
-0.32909587425219378
20
98.767083535621822
10
1.095735553681497
20
99.055017254055542
10
2.6015714968962884
20
99.233601512257351
10
3.799402581143454
20
99.280701420624169
10
294.86830806593036
20
99.279298745737279
10
296.06978847929872
20
99.237591304636211
10
297.60578332224264
20
99.054945764016878
10
299.03645112205504
20
98.766489691392408
10
300.45892996149701
20
98.371304344938153
10
301.87718299491229
20
97.847271868184606
10
303.26049572668359
20
97.211918757346581
10
304.54324555725049
20
96.485966930157559
10
305.77038485065862
20
95.672870054830696
10
306.98099752231923
20
94.715162702431741
10
308.05994762437615
20
93.712208216258944
10
309.05606156919782
20
92.636592219503257
10
309.98400043091243
20
91.461202994664802
10
310.82297822366007
20
90.20657163259601
10
311.54040657078309
20
88.9212964041878
10
312.1723007048447
20
87.561766600601217
10
312.69750763471512
20
86.127659900426906
10
313.09029171193049
20
84.727038090968279
10
313.38350071694049
20
83.274234762919065
10
313.56498205012161
20
81.739000782223343
10
313.60700000000008
20
80.54378109886612
10
313.60700000000008
20
3.8153246881244307
10
313.56495542293709
20
2.6197298058262497
10
313.38346224453625
20
1.0852295085511443
10
313.09050885416548
20
-0.36677979565697072
10
312.69458575201162
20
-1.7789210530688848
10
312.17184422028811
20
-3.1996163715084336
10
311.54717907613372
20
-4.5495082834025879
10
310.82466063413142
20
-5.8445163379798615
10
309.98235394378105
20
-7.1047515421764018
10
309.05405464027672
20
-8.2790263585631152
10
308.05911630308009
20
-9.3539801592159755
10
306.96312376932423
20
-10.37182366012992
10
305.77524903783575
20
-11.306248244962092
10
304.54094688602572
20
-12.130747949140481
10
303.25763754723789
20
-12.849781940973184
10
301.9028052789148
20
-13.478666557144123
0
LWPOLYLINE
5
107
100
AcDbEntity
8
0
100
AcDbPolyline
90
20
70
1
43
0.0
10
72.494400000000041
20
48.804699999999997
10
72.494400000000041
20
45.705500000000001
10
73.295200000000023
20
45.705500000000001
10
73.295200000000023
20
44.705100000000002
10
87.294500000000056
20
44.705100000000002
10
87.294500000000056
20
45.705500000000001
10
88.095300000000037
20
45.705500000000001
10
88.095300000000037
20
48.804699999999997
10
87.294500000000056
20
48.804699999999997
10
87.294500000000056
20
54.604700000000008
10
88.095300000000037
20
54.604700000000008
10
88.095300000000037
20
57.705300000000008
10
87.294500000000056
20
57.705300000000008
10
87.294500000000056
20
58.704300000000003
10
73.295200000000023
20
58.704300000000003
10
73.295200000000023
20
57.705300000000008
10
72.494400000000041
20
57.705300000000008
10
72.494400000000041
20
54.604700000000008
10
73.295200000000023
20
54.604700000000008
10
73.295200000000023
20
48.804699999999997
0
LWPOLYLINE
5
108
100
AcDbEntity
8
0
100
AcDbPolyline
90
20
70
1
43
0.0
10
159.02000000000004
20
26.6554
10
159.02000000000004
20
25.655000000000001
10
173.02000000000007
20
25.655000000000001
10
173.02000000000007
20
26.6554
10
173.82000000000005
20
26.6554
10
173.82000000000005
20
29.7546
10
173.02000000000007
20
29.7546
10
173.02000000000007
20
35.554699999999997
10
173.82000000000005
20
35.554699999999997
10
173.82000000000005
20
38.655299999999997
10
173.02000000000007
20
38.655299999999997
10
173.02000000000007
20
39.654299999999999
10
159.02000000000004
20
39.654299999999999
10
159.02000000000004
20
38.655299999999997
10
158.21900000000005
20
38.655299999999997
10
158.21900000000005
20
35.554699999999997
10
159.02000000000004
20
35.554699999999997
10
159.02000000000004
20
29.7546
10
158.21900000000005
20
29.7546
10
158.21900000000005
20
26.6554
0
LWPOLYLINE
5
109
100
AcDbEntity
8
0
100
AcDbPolyline
90
20
70
1
43
0.0
10
211.12000000000009
20
25.655000000000001
10
211.12000000000009
20
26.6554
10
211.92000000000007
20
26.6554
10
211.92000000000007
20
29.7546
10
211.12000000000009
20
29.7546
10
211.12000000000009
20
35.554699999999997
10
211.92000000000007
20
35.554699999999997
10
211.92000000000007
20
38.655299999999997
10
211.12000000000009
20
38.655299999999997
10
211.12000000000009
20
39.654299999999999
10
197.12000000000012
20
39.654299999999999
10
197.12000000000012
20
38.655299999999997
10
196.31900000000005
20
38.655299999999997
10
196.31900000000005
20
35.554699999999997
10
197.12000000000012
20
35.554699999999997
10
197.12000000000012
20
29.7546
10
196.31900000000005
20
29.7546
10
196.31900000000005
20
26.6554
10
197.12000000000012
20
26.6554
10
197.12000000000012
20
25.655000000000001
0
LWPOLYLINE
5
110
100
AcDbEntity
8
0
100
AcDbPolyline
90
20
70
1
43
0.0
10
106.34500000000004
20
58.704300000000003
10
92.345200000000034
20
58.704300000000003
10
92.345200000000034
20
57.705300000000008
10
91.544400000000024
20
57.705300000000008
10
91.544400000000024
20
54.604700000000008
10
92.345200000000034
20
54.604700000000008
10
92.345200000000034
20
48.804699999999997
10
91.544400000000024
20
48.804699999999997
10
91.544400000000024
20
45.705500000000001
10
92.345200000000034
20
45.705500000000001
10
92.345200000000034
20
44.705100000000002
10
106.34500000000004
20
44.705100000000002
10
106.34500000000004
20
45.705500000000001
10
107.14500000000004
20
45.705500000000001
10
107.14500000000004
20
48.804699999999997
10
106.34500000000004
20
48.804699999999997
10
106.34500000000004
20
54.604700000000008
10
107.14500000000004
20
54.604700000000008
10
107.14500000000004
20
57.705300000000008
10
106.34500000000004
20
57.705300000000008
0
LWPOLYLINE
5
111
100
AcDbEntity
8
0
100
AcDbPolyline
90
20
70
1
43
0.0
10
192.87000000000009
20
29.7546
10
192.07000000000008
20
29.7546
10
192.07000000000008
20
35.554699999999997
10
192.87000000000009
20
35.554699999999997
10
192.87000000000009
20
38.655299999999997
10
192.07000000000008
20
38.655299999999997
10
192.07000000000008
20
39.654299999999999
10
178.07000000000005
20
39.654299999999999
10
178.07000000000005
20
38.655299999999997
10
177.26900000000003
20
38.655299999999997
10
177.26900000000003
20
35.554699999999997
10
178.07000000000005
20
35.554699999999997
10
178.07000000000005
20
29.7546
10
177.26900000000003
20
29.7546
10
177.26900000000003
20
26.6554
10
178.07000000000005
20
26.6554
10
178.07000000000005
20
25.655000000000001
10
192.07000000000008
20
25.655000000000001
10
192.07000000000008
20
26.6554
10
192.87000000000009
20
26.6554
0
LWPOLYLINE
5
112
100
AcDbEntity
8
0
100
AcDbPolyline
90
20
70
1
43
0.0
10
126.19500000000004
20
45.705500000000001
10
126.19500000000004
20
48.804699999999997
10
125.39500000000004
20
48.804699999999997
10
125.39500000000004
20
54.604700000000008
10
126.19500000000004
20
54.604700000000008
10
126.19500000000004
20
57.705300000000008
10
125.39500000000004
20
57.705300000000008
10
125.39500000000004
20
58.704300000000003
10
111.39500000000005
20
58.704300000000003
10
111.39500000000005
20
57.705300000000008
10
110.59400000000004
20
57.705300000000008
10
110.59400000000004
20
54.604700000000008
10
111.39500000000005
20
54.604700000000008
10
111.39500000000005
20
48.804699999999997
10
110.59400000000004
20
48.804699999999997
10
110.59400000000004
20
45.705500000000001
10
111.39500000000005
20
45.705500000000001
10
111.39500000000005
20
44.705100000000002
10
125.39500000000004
20
44.705100000000002
10
125.39500000000004
20
45.705500000000001
0
LWPOLYLINE
5
113
100
AcDbEntity
8
0
100
AcDbPolyline
90
20
70
1
43
0.0
10
32.812500000000036
20
44.705100000000002
10
46.813300000000027
20
44.705100000000002
10
46.813300000000027
20
45.705500000000001
10
47.612700000000025
20
45.705500000000001
10
47.612700000000025
20
48.804699999999997
10
46.813300000000027
20
48.804699999999997
10
46.813300000000027
20
54.604700000000008
10
47.612700000000025
20
54.604700000000008
10
47.612700000000025
20
57.705300000000008
10
46.813300000000027
20
57.705300000000008
10
46.813300000000027
20
58.704300000000003
10
32.812500000000036
20
58.704300000000003
10
32.812500000000036
20
57.705300000000008
10
32.013200000000033
20
57.705300000000008
10
32.013200000000033
20
54.604700000000008
10
32.812500000000036
20
54.604700000000008
10
32.812500000000036
20
48.804699999999997
10
32.013200000000033
20
48.804699999999997
10
32.013200000000033
20
45.705500000000001
10
32.812500000000036
20
45.705500000000001
0
LWPOLYLINE
5
114
100
AcDbEntity
8
0
100
AcDbPolyline
90
20
70
1
43
0.0
10
37.576500000000038
20
26.6554
10
37.576500000000038
20
25.655000000000001
10
51.575800000000037
20
25.655000000000001
10
51.575800000000037
20
26.6554
10
52.375200000000035
20
26.6554
10
52.375200000000035
20
29.7546
10
51.575800000000037
20
29.7546
10
51.575800000000037
20
35.554699999999997
10
52.375200000000035
20
35.554699999999997
10
52.375200000000035
20
38.655299999999997
10
51.575800000000037
20
38.655299999999997
10
51.575800000000037
20
39.654299999999999
10
37.576500000000038
20
39.654299999999999
10
37.576500000000038
20
38.655299999999997
10
36.775700000000036
20
38.655299999999997
10
36.775700000000036
20
35.554699999999997
10
37.576500000000038
20
35.554699999999997
10
37.576500000000038
20
29.7546
10
36.775700000000036
20
29.7546
10
36.775700000000036
20
26.6554
0
LWPOLYLINE
5
115
100
AcDbEntity
8
0
100
AcDbPolyline
90
20
70
1
43
0.0
10
53.444400000000051
20
10.704599999999997
10
53.444400000000051
20
7.6053900000000008
10
54.245200000000047
20
7.6053900000000008
10
54.245200000000047
20
6.6049500000000005
10
68.244500000000045
20
6.6049500000000005
10
68.244500000000045
20
7.6053900000000008
10
69.045300000000054
20
7.6053900000000008
10
69.045300000000054
20
10.704599999999997
10
68.244500000000045
20
10.704599999999997
10
68.244500000000045
20
16.5062
10
69.045300000000054
20
16.5062
10
69.045300000000054
20
19.605300000000003
10
68.244500000000045
20
19.605300000000003
10
68.244500000000045
20
20.604399999999998
10
54.245200000000047
20
20.604399999999998
10
54.245200000000047
20
19.605300000000003
10
53.444400000000051
20
19.605300000000003
10
53.444400000000051
20
16.5062
10
54.245200000000047
20
16.5062
10
54.245200000000047
20
10.704599999999997
0
LWPOLYLINE
5
116
100
AcDbEntity
8
0
100
AcDbPolyline
90
20
70
1
43
0.0
10
139.68200000000007
20
64.755499999999998
10
140.48100000000002
20
64.755499999999998
10
140.48100000000002
20
67.856099999999998
10
139.68200000000007
20
67.856099999999998
10
139.68200000000007
20
73.656100000000023
10
140.48100000000002
20
73.656100000000023
10
140.48100000000002
20
76.755300000000005
10
139.68200000000007
20
76.755300000000005
10
139.68200000000007
20
77.755799999999979
10
125.68100000000004
20
77.755799999999979
10
125.68100000000004
20
76.755300000000005
10
124.88200000000005
20
76.755300000000005
10
124.88200000000005
20
73.656100000000023
10
125.68100000000004
20
73.656100000000023
10
125.68100000000004
20
67.856099999999998
10
124.88200000000005
20
67.856099999999998
10
124.88200000000005
20
64.755499999999998
10
125.68100000000004
20
64.755499999999998
10
125.68100000000004
20
63.755099999999999
10
139.68200000000007
20
63.755099999999999
0
LWPOLYLINE
5
117
100
AcDbEntity
8
0
100
AcDbPolyline
90
20
70
1
43
0.0
10
101.58200000000005
20
64.755499999999998
10
102.38100000000004
20
64.755499999999998
10
102.38100000000004
20
67.856099999999998
10
101.58200000000005
20
67.856099999999998
10
101.58200000000005
20
73.656100000000023
10
102.38100000000004
20
73.656100000000023
10
102.38100000000004
20
76.755300000000005
10
101.58200000000005
20
76.755300000000005
10
101.58200000000005
20
77.755799999999979
10
87.581300000000013
20
77.755799999999979
10
87.581300000000013
20
76.755300000000005
10
86.781900000000022
20
76.755300000000005
10
86.781900000000022
20
73.656100000000023
10
87.581300000000013
20
73.656100000000023
10
87.581300000000013
20
67.856099999999998
10
86.781900000000022
20
67.856099999999998
10
86.781900000000022
20
64.755499999999998
10
87.581300000000013
20
64.755499999999998
10
87.581300000000013
20
63.755099999999999
10
101.58200000000005
20
63.755099999999999
0
LWPOLYLINE
5
118
100
AcDbEntity
8
0
100
AcDbPolyline
90
20
70
1
43
0.0
10
239.1820000000001
20
73.656100000000023
10
239.98100000000008
20
73.656100000000023
10
239.98100000000008
20
67.856099999999998
10
239.1820000000001
20
67.856099999999998
10
239.1820000000001
20
64.755499999999998
10
239.98100000000008
20
64.755499999999998
10
239.98100000000008
20
63.755099999999999
10
253.98200000000008
20
63.755099999999999
10
253.98200000000008
20
64.755499999999998
10
254.78100000000001
20
64.755499999999998
10
254.78100000000001
20
67.856099999999998
10
253.98200000000008
20
67.856099999999998
10
253.98200000000008
20
73.656100000000023
10
254.78100000000001
20
73.656100000000023
10
254.78100000000001
20
76.755300000000005
10
253.98200000000008
20
76.755300000000005
10
253.98200000000008
20
77.755799999999979
10
239.98100000000008
20
77.755799999999979
10
239.98100000000008
20
76.755300000000005
10
239.1820000000001
20
76.755300000000005
0
LWPOLYLINE
5
119
100
AcDbEntity
8
0
100
AcDbPolyline
90
20
70
1
43
0.0
10
239.69500000000008
20
54.604700000000008
10
240.49500000000009
20
54.604700000000008
10
240.49500000000009
20
57.705300000000008
10
239.69500000000008
20
57.705300000000008
10
239.69500000000008
20
58.704300000000003
10
225.69500000000005
20
58.704300000000003
10
225.69500000000005
20
57.705300000000008
10
224.89400000000006
20
57.705300000000008
10
224.89400000000006
20
54.604700000000008
10
225.69500000000005
20
54.604700000000008
10
225.69500000000005
20
48.804699999999997
10
224.89400000000006
20
48.804699999999997
10
224.89400000000006
20
45.705500000000001
10
225.69500000000005
20
45.705500000000001
10
225.69500000000005
20
44.705100000000002
10
239.69500000000008
20
44.705100000000002
10
239.69500000000008
20
45.705500000000001
10
240.49500000000009
20
45.705500000000001
10
240.49500000000009
20
48.804699999999997
10
239.69500000000008
20
48.804699999999997
0
LWPOLYLINE
5
120
100
AcDbEntity
8
0
100
AcDbPolyline
90
20
70
1
43
0.0
10
48.681900000000049
20
67.856099999999998
10
48.681900000000049
20
64.755499999999998
10
49.481300000000026
20
64.755499999999998
10
49.481300000000026
20
63.755099999999999
10
63.482000000000042
20
63.755099999999999
10
63.482000000000042
20
64.755499999999998
10
64.281400000000048
20
64.755499999999998
10
64.281400000000048
20
67.856099999999998
10
63.482000000000042
20
67.856099999999998
10
63.482000000000042
20
73.656100000000023
10
64.281400000000048
20
73.656100000000023
10
64.281400000000048
20
76.755300000000005
10
63.482000000000042
20
76.755300000000005
10
63.482000000000042
20
77.755799999999979
10
49.481300000000026
20
77.755799999999979
10
49.481300000000026
20
76.755300000000005
10
48.681900000000049
20
76.755300000000005
10
48.681900000000049
20
73.656100000000023
10
49.481300000000026
20
73.656100000000023
10
49.481300000000026
20
67.856099999999998
0
LWPOLYLINE
5
121
100
AcDbEntity
8
0
100
AcDbPolyline
90
20
70
1
43
0.0
10
270.93800000000005
20
54.604700000000008
10
270.93800000000005
20
48.804699999999997
10
270.13800000000003
20
48.804699999999997
10
270.13800000000003
20
45.705500000000001
10
270.93800000000005
20
45.705500000000001
10
270.93800000000005
20
44.705100000000002
10
284.9380000000001
20
44.705100000000002
10
284.9380000000001
20
45.705500000000001
10
285.73800000000006
20
45.705500000000001
10
285.73800000000006
20
48.804699999999997
10
284.9380000000001
20
48.804699999999997
10
284.9380000000001
20
54.604700000000008
10
285.73800000000006
20
54.604700000000008
10
285.73800000000006
20
57.705300000000008
10
284.9380000000001
20
57.705300000000008
10
284.9380000000001
20
58.704300000000003
10
270.93800000000005
20
58.704300000000003
10
270.93800000000005
20
57.705300000000008
10
270.13800000000003
20
57.705300000000008
10
270.13800000000003
20
54.604700000000008
0
LWPOLYLINE
5
122
100
AcDbEntity
8
0
100
AcDbPolyline
90
20
70
1
43
0.0
10
250.0200000000001
20
26.6554
10
250.0200000000001
20
29.7546
10
249.22000000000003
20
29.7546
10
249.22000000000003
20
35.554699999999997
10
250.0200000000001
20
35.554699999999997
10
250.0200000000001
20
38.655299999999997
10
249.22000000000003
20
38.655299999999997
10
249.22000000000003
20
39.654299999999999
10
235.22000000000008
20
39.654299999999999
10
235.22000000000008
20
38.655299999999997
10
234.41900000000007
20
38.655299999999997
10
234.41900000000007
20
35.554699999999997
10
235.22000000000008
20
35.554699999999997
10
235.22000000000008
20
29.7546
10
234.41900000000007
20
29.7546
10
234.41900000000007
20
26.6554
10
235.22000000000008
20
26.6554
10
235.22000000000008
20
25.655000000000001
10
249.22000000000003
20
25.655000000000001
10
249.22000000000003
20
26.6554
0
LWPOLYLINE
5
123
100
AcDbEntity
8
0
100
AcDbPolyline
90
20
70
1
43
0.0
10
6.6187100000000321
20
39.654299999999999
10
6.6187100000000321
20
38.655299999999997
10
5.8180800000000321
20
38.655299999999997
10
5.8180800000000321
20
35.554699999999997
10
6.6187100000000321
20
35.554699999999997
10
6.6187100000000321
20
29.7546
10
5.8180800000000321
20
29.7546
10
5.8180800000000321
20
26.6554
10
6.6187100000000321
20
26.6554
10
6.6187100000000321
20
25.655000000000001
10
20.619600000000045
20
25.655000000000001
10
20.619600000000045
20
26.6554
10
21.42020000000004
20
26.6554
10
21.42020000000004
20
29.7546
10
20.619600000000045
20
29.7546
10
20.619600000000045
20
35.554699999999997
10
21.42020000000004
20
35.554699999999997
10
21.42020000000004
20
38.655299999999997
10
20.619600000000045
20
38.655299999999997
10
20.619600000000045
20
39.654299999999999
0
LWPOLYLINE
5
124
100
AcDbEntity
8
0
100
AcDbPolyline
90
20
70
1
43
0.0
10
145.24500000000006
20
45.705500000000001
10
145.24500000000006
20
48.804699999999997
10
144.44500000000005
20
48.804699999999997
10
144.44500000000005
20
54.604700000000008
10
145.24500000000006
20
54.604700000000008
10
145.24500000000006
20
57.705300000000008
10
144.44500000000005
20
57.705300000000008
10
144.44500000000005
20
58.704300000000003
10
130.44500000000002
20
58.704300000000003
10
130.44500000000002
20
57.705300000000008
10
129.64300000000006
20
57.705300000000008
10
129.64300000000006
20
54.604700000000008
10
130.44500000000002
20
54.604700000000008
10
130.44500000000002
20
48.804699999999997
10
129.64300000000006
20
48.804699999999997
10
129.64300000000006
20
45.705500000000001
10
130.44500000000002
20
45.705500000000001
10
130.44500000000002
20
44.705100000000002
10
144.44500000000005
20
44.705100000000002
10
144.44500000000005
20
45.705500000000001
0
LWPOLYLINE
5
125
100
AcDbEntity
8
0
100
AcDbPolyline
90
20
70
1
43
0.0
10
196.83199999999999
20
67.856099999999998
10
196.83199999999999
20
73.656100000000023
10
197.63100000000006
20
73.656100000000023
10
197.63100000000006
20
76.755300000000005
10
196.83199999999999
20
76.755300000000005
10
196.83199999999999
20
77.755799999999979
10
182.83100000000005
20
77.755799999999979
10
182.83100000000005
20
76.755300000000005
10
182.03200000000007
20
76.755300000000005
10
182.03200000000007
20
73.656100000000023
10
182.83100000000005
20
73.656100000000023
10
182.83100000000005
20
67.856099999999998
10
182.03200000000007
20
67.856099999999998
10
182.03200000000007
20
64.755499999999998
10
182.83100000000005
20
64.755499999999998
10
182.83100000000005
20
63.755099999999999
10
196.83199999999999
20
63.755099999999999
10
196.83199999999999
20
64.755499999999998
10
197.63100000000006
20
64.755499999999998
10
197.63100000000006
20
67.856099999999998
0
LWPOLYLINE
5
126
100
AcDbEntity
8
0
100
AcDbPolyline
90
20
70
1
43
0.0
10
120.92000000000006
20
29.7546
10
120.11900000000004
20
29.7546
10
120.11900000000004
20
26.6554
10
120.92000000000006
20
26.6554
10
120.92000000000006
20
25.655000000000001
10
134.92000000000002
20
25.655000000000001
10
134.92000000000002
20
26.6554
10
135.72000000000006
20
26.6554
10
135.72000000000006
20
29.7546
10
134.92000000000002
20
29.7546
10
134.92000000000002
20
35.554699999999997
10
135.72000000000006
20
35.554699999999997
10
135.72000000000006
20
38.655299999999997
10
134.92000000000002
20
38.655299999999997
10
134.92000000000002
20
39.654299999999999
10
120.92000000000006
20
39.654299999999999
10
120.92000000000006
20
38.655299999999997
10
120.11900000000004
20
38.655299999999997
10
120.11900000000004
20
35.554699999999997
10
120.92000000000006
20
35.554699999999997
0
LWPOLYLINE
5
127
100
AcDbEntity
8
0
100
AcDbPolyline
90
20
70
1
43
0.0
10
259.03100000000006
20
64.755499999999998
10
259.03100000000006
20
63.755099999999999
10
273.03200000000004
20
63.755099999999999
10
273.03200000000004
20
64.755499999999998
10
273.83100000000002
20
64.755499999999998
10
273.83100000000002
20
67.856099999999998
10
273.03200000000004
20
67.856099999999998
10
273.03200000000004
20
73.656100000000023
10
273.83100000000002
20
73.656100000000023
10
273.83100000000002
20
76.755300000000005
10
273.03200000000004
20
76.755300000000005
10
273.03200000000004
20
77.755799999999979
10
259.03100000000006
20
77.755799999999979
10
259.03100000000006
20
76.755300000000005
10
258.23200000000008
20
76.755300000000005
10
258.23200000000008
20
73.656100000000023
10
259.03100000000006
20
73.656100000000023
10
259.03100000000006
20
67.856099999999998
10
258.23200000000008
20
67.856099999999998
10
258.23200000000008
20
64.755499999999998
0
LWPOLYLINE
5
128
100
AcDbEntity
8
0
100
AcDbPolyline
90
20
70
1
43
0.0
10
53.444400000000051
20
54.604700000000008
10
54.245200000000047
20
54.604700000000008
10
54.245200000000047
20
48.804699999999997
10
53.444400000000051
20
48.804699999999997
10
53.444400000000051
20
45.705500000000001
10
54.245200000000047
20
45.705500000000001
10
54.245200000000047
20
44.705100000000002
10
68.244500000000045
20
44.705100000000002
10
68.244500000000045
20
45.705500000000001
10
69.045300000000054
20
45.705500000000001
10
69.045300000000054
20
48.804699999999997
10
68.244500000000045
20
48.804699999999997
10
68.244500000000045
20
54.604700000000008
10
69.045300000000054
20
54.604700000000008
10
69.045300000000054
20
57.705300000000008
10
68.244500000000045
20
57.705300000000008
10
68.244500000000045
20
58.704300000000003
10
54.245200000000047
20
58.704300000000003
10
54.245200000000047
20
57.705300000000008
10
53.444400000000051
20
57.705300000000008
0
LWPOLYLINE
5
129
100
AcDbEntity
8
0
100
AcDbPolyline
90
20
70
1
43
0.0
10
163.49500000000006
20
44.705100000000002
10
163.49500000000006
20
45.705500000000001
10
164.29500000000004
20
45.705500000000001
10
164.29500000000004
20
48.804699999999997
10
163.49500000000006
20
48.804699999999997
10
163.49500000000006
20
54.604700000000008
10
164.29500000000004
20
54.604700000000008
10
164.29500000000004
20
57.705300000000008
10
163.49500000000006
20
57.705300000000008
10
163.49500000000006
20
58.704300000000003
10
149.49500000000003
20
58.704300000000003
10
149.49500000000003
20
57.705300000000008
10
148.69400000000007
20
57.705300000000008
10
148.69400000000007
20
54.604700000000008
10
149.49500000000003
20
54.604700000000008
10
149.49500000000003
20
48.804699999999997
10
148.69400000000007
20
48.804699999999997
10
148.69400000000007
20
45.705500000000001
10
149.49500000000003
20
45.705500000000001
10
149.49500000000003
20
44.705100000000002
0
LWPOLYLINE
5
130
100
AcDbEntity
8
0
100
AcDbPolyline
90
20
70
1
43
0.0
10
75.676500000000033
20
7.6053900000000008
10
75.676500000000033
20
6.6049500000000005
10
89.675800000000038
20
6.6049500000000005
10
89.675800000000038
20
7.6053900000000008
10
90.475200000000044
20
7.6053900000000008
10
90.475200000000044
20
10.704599999999997
10
89.675800000000038
20
10.704599999999997
10
89.675800000000038
20
16.5062
10
90.475200000000044
20
16.5062
10
90.475200000000044
20
19.605300000000003
10
89.675800000000038
20
19.605300000000003
10
89.675800000000038
20
20.604399999999998
10
75.676500000000033
20
20.604399999999998
10
75.676500000000033
20
19.605300000000003
10
74.875700000000023
20
19.605300000000003
10
74.875700000000023
20
16.5062
10
75.676500000000033
20
16.5062
10
75.676500000000033
20
10.704599999999997
10
74.875700000000023
20
10.704599999999997
10
74.875700000000023
20
7.6053900000000008
0
LWPOLYLINE
5
131
100
AcDbEntity
8
0
100
AcDbPolyline
90
120
70
1
43
0.0
10
189.68799999999999
20
19.605300000000003
10
189.68799999999999
20
20.604399999999998
10
175.68799999999999
20
20.604399999999998
10
175.68799999999999
20
19.605300000000003
10
175.28800000000001
20
19.605300000000003
10
175.28800000000001
20
23.011121899999999
10
166.28800000000001
20
23.011121899999999
10
166.28800000000001
20
20.604399999999998
10
154.25600000000006
20
20.604399999999998
10
154.25600000000006
20
19.605300000000003
10
153.45700000000005
20
19.605300000000003
10
153.45700000000005
20
16.5062
10
154.25600000000006
20
16.5062
10
154.25600000000006
20
15.905300000000002
10
151.46275000000003
20
15.905300000000002
10
151.46275000000003
20
23.011121899999999
10
142.46275
20
23.011121899999999
10
142.46275
20
19.605300000000003
10
142.06299999999999
20
19.605300000000003
10
142.06299999999999
20
20.604399999999998
10
128.06299999999999
20
20.604399999999998
10
128.06299999999999
20
19.605300000000003
10
127.66249999999999
20
19.605300000000003
10
127.66249999999999
20
23.011121899999999
10
118.66250000000001
20
23.011121899999999
10
118.66250000000001
20
15.905300000000002
10
111.10700000000001
20
15.905300000000002
10
111.10700000000001
20
16.5062
10
111.90600000000003
20
16.5062
10
111.90600000000003
20
19.605300000000003
10
111.10700000000001
20
19.605300000000003
10
111.10700000000001
20
20.604399999999998
10
107.98200000000008
20
20.604399999999998
10
107.98200000000008
20
20.635400000000001
10
100.23200000000004
20
20.635400000000001
10
100.23200000000004
20
20.604399999999998
10
97.106300000000019
20
20.604399999999998
10
97.106300000000019
20
19.605300000000003
10
96.306900000000013
20
19.605300000000003
10
96.306900000000013
20
16.5062
10
97.106300000000019
20
16.5062
10
97.106300000000019
20
10.704599999999997
10
96.306900000000013
20
10.704599999999997
10
96.306900000000013
20
7.6053900000000008
10
97.106300000000019
20
7.6053900000000008
10
97.106300000000019
20
6.6049500000000005
10
100.23200000000004
20
6.6049500000000005
10
100.23200000000004
20
5.3350700000000018
10
107.98200000000008
20
5.3350700000000018
10
107.98200000000008
20
6.6049500000000005
10
111.10700000000001
20
6.6049500000000005
10
111.10700000000001
20
7.6053900000000008
10
111.90600000000003
20
7.6053900000000008
10
111.90600000000003
20
10.704599999999997
10
111.10700000000001
20
10.704599999999997
10
111.10700000000001
20
11.305399999999999
10
118.66250000000001
20
11.305399999999999
10
118.66250000000001
20
3.8785481000000033
10
127.66249999999999
20
3.8785481000000033
10
127.66249999999999
20
7.6053900000000008
10
128.06299999999999
20
7.6053900000000008
10
128.06299999999999
20
6.6049500000000005
10
142.06299999999999
20
6.6049500000000005
10
142.06299999999999
20
7.6053900000000008
10
142.46275
20
7.6053899999999963
10
142.46275
20
3.8785481000000033
10
151.46275000000003
20
3.8785481000000033
10
151.46275000000003
20
11.305399999999999
10
154.25600000000006
20
11.305399999999999
10
154.25600000000006
20
10.704599999999997
10
153.45700000000005
20
10.704599999999997
10
153.45700000000005
20
7.6053900000000008
10
154.25600000000006
20
7.6053900000000008
10
154.25600000000006
20
6.6049500000000005
10
166.28800000000001
20
6.6049500000000005
10
166.28800000000001
20
3.8785481000000033
10
175.28800000000001
20
3.8785481000000033
10
175.28800000000001
20
7.6053900000000008
10
175.68799999999999
20
7.6053900000000008
10
175.68799999999999
20
6.6049500000000005
10
189.68799999999999
20
6.6049500000000005
10
189.68799999999999
20
7.6053900000000008
10
190.08775000000003
20
7.6053899999999963
10
190.08775000000003
20
3.8785481000000033
10
199.08775000000006
20
3.8785481000000033
10
199.08775000000006
20
11.305399999999999
10
211.40600000000003
20
11.305399999999999
10
211.40600000000003
20
10.704599999999997
10
210.607
20
10.704599999999997
10
210.607
20
7.6053900000000008
10
211.40600000000003
20
7.6053900000000008
10
211.40600000000003
20
6.6049500000000005
10
214.53100000000006
20
6.6049500000000005
10
214.53100000000006
20
5.3350700000000018
10
222.28100000000001
20
5.3350700000000018
10
222.28100000000001
20
6.6049500000000005
10
225.40700000000001
20
6.6049500000000005
10
225.40700000000001
20
7.6053900000000008
10
226.20599999999999
20
7.6053900000000008
10
226.20599999999999
20
10.704599999999997
10
225.40700000000001
20
10.704599999999997
10
225.40700000000001
20
16.5062
10
226.20599999999999
20
16.5062
10
226.20599999999999
20
19.605300000000003
10
225.40700000000001
20
19.605300000000003
10
225.40700000000001
20
20.604399999999998
10
222.28100000000001
20
20.604399999999998
10
222.28100000000001
20
20.635400000000001
10
214.53100000000006
20
20.635400000000001
10
214.53100000000006
20
20.604399999999998
10
211.40600000000003
20
20.604399999999998
10
211.40600000000003
20
19.605300000000003
10
210.607
20
19.605300000000003
10
210.607
20
16.5062
10
211.40600000000003
20
16.5062
10
211.40600000000003
20
15.905300000000002
10
199.08775000000006
20
15.905300000000002
10
199.08775000000006
20
23.011121899999999
10
190.08775000000003
20
23.011121899999999
10
190.08775000000003
20
19.605300000000003
0
LWPOLYLINE
5
132
100
AcDbEntity
8
0
100
AcDbPolyline
90
20
70
1
43
0.0
10
230.16999999999999
20
38.655299999999997
10
230.16999999999999
20
39.654299999999999
10
216.17000000000004
20
39.654299999999999
10
216.17000000000004
20
38.655299999999997
10
215.36900000000009
20
38.655299999999997
10
215.36900000000009
20
35.554699999999997
10
216.17000000000004
20
35.554699999999997
10
216.17000000000004
20
29.7546
10
215.36900000000009
20
29.7546
10
215.36900000000009
20
26.6554
10
216.17000000000004
20
26.6554
10
216.17000000000004
20
25.655000000000001
10
230.16999999999999
20
25.655000000000001
10
230.16999999999999
20
26.6554
10
230.97000000000008
20
26.6554
10
230.97000000000008
20
29.7546
10
230.16999999999999
20
29.7546
10
230.16999999999999
20
35.554699999999997
10
230.97000000000008
20
35.554699999999997
10
230.97000000000008
20
38.655299999999997
0
LWPOLYLINE
5
133
100
AcDbEntity
8
0
100
AcDbPolyline
90
20
70
1
43
0.0
10
20.619600000000045
20
10.704599999999997
10
20.619600000000045
20
16.5062
10
21.42020000000004
20
16.5062
10
21.42020000000004
20
19.605300000000003
10
20.619600000000045
20
19.605300000000003
10
20.619600000000045
20
20.604399999999998
10
6.6187100000000321
20
20.604399999999998
10
6.6187100000000321
20
19.605300000000003
10
5.8180800000000321
20
19.605300000000003
10
5.8180800000000321
20
16.5062
10
6.6187100000000321
20
16.5062
10
6.6187100000000321
20
10.704599999999997
10
5.8180800000000321
20
10.704599999999997
10
5.8180800000000321
20
7.6053900000000008
10
6.6187100000000321
20
7.6053900000000008
10
6.6187100000000321
20
6.6049500000000005
10
20.619600000000045
20
6.6049500000000005
10
20.619600000000045
20
7.6053900000000008
10
21.42020000000004
20
7.6053900000000008
10
21.42020000000004
20
10.704599999999997
0
LWPOLYLINE
5
134
100
AcDbEntity
8
0
100
AcDbPolyline
90
20
70
1
43
0.0
10
259.54500000000007
20
54.604700000000008
10
259.54500000000007
20
57.705300000000008
10
258.74500000000006
20
57.705300000000008
10
258.74500000000006
20
58.704300000000003
10
244.74500000000009
20
58.704300000000003
10
244.74500000000009
20
57.705300000000008
10
243.94400000000007
20
57.705300000000008
10
243.94400000000007
20
54.604700000000008
10
244.74500000000009
20
54.604700000000008
10
244.74500000000009
20
48.804699999999997
10
243.94400000000007
20
48.804699999999997
10
243.94400000000007
20
45.705500000000001
10
244.74500000000009
20
45.705500000000001
10
244.74500000000009
20
44.705100000000002
10
258.74500000000006
20
44.705100000000002
10
258.74500000000006
20
45.705500000000001
10
259.54500000000007
20
45.705500000000001
10
259.54500000000007
20
48.804699999999997
10
258.74500000000006
20
48.804699999999997
10
258.74500000000006
20
54.604700000000008
0
LWPOLYLINE
5
135
100
AcDbEntity
8
0
100
AcDbPolyline
90
20
70
1
43
0.0
10
21.42020000000004
20
45.705500000000001
10
21.42020000000004
20
48.804699999999997
10
20.619600000000045
20
48.804699999999997
10
20.619600000000045
20
54.604700000000008
10
21.42020000000004
20
54.604700000000008
10
21.42020000000004
20
57.705300000000008
10
20.619600000000045
20
57.705300000000008
10
20.619600000000045
20
58.704300000000003
10
6.6187100000000321
20
58.704300000000003
10
6.6187100000000321
20
57.705300000000008
10
5.8180800000000321
20
57.705300000000008
10
5.8180800000000321
20
54.604700000000008
10
6.6187100000000321
20
54.604700000000008
10
6.6187100000000321
20
48.804699999999997
10
5.8180800000000321
20
48.804699999999997
10
5.8180800000000321
20
45.705500000000001
10
6.6187100000000321
20
45.705500000000001
10
6.6187100000000321
20
44.705100000000002
10
20.619600000000045
20
44.705100000000002
10
20.619600000000045
20
45.705500000000001
0
LWPOLYLINE
5
136
100
AcDbEntity
8
0
100
AcDbPolyline
90
20
70
1
43
0.0
10
82.019400000000047
20
35.554699999999997
10
82.820200000000028
20
35.554699999999997
10
82.820200000000028
20
29.7546
10
82.019400000000047
20
29.7546
10
82.019400000000047
20
26.6554
10
82.820200000000028
20
26.6554
10
82.820200000000028
20
25.655000000000001
10
96.819500000000033
20
25.655000000000001
10
96.819500000000033
20
26.6554
10
97.620300000000043
20
26.6554
10
97.620300000000043
20
29.7546
10
96.819500000000033
20
29.7546
10
96.819500000000033
20
35.554699999999997
10
97.620300000000043
20
35.554699999999997
10
97.620300000000043
20
38.655299999999997
10
96.819500000000033
20
38.655299999999997
10
96.819500000000033
20
39.654299999999999
10
82.820200000000028
20
39.654299999999999
10
82.820200000000028
20
38.655299999999997
10
82.019400000000047
20
38.655299999999997
0
LWPOLYLINE
5
137
100
AcDbEntity
8
0
100
AcDbPolyline
90
20
70
1
43
0.0
10
144.73100000000005
20
64.755499999999998
10
144.73100000000005
20
63.755099999999999
10
158.73200000000003
20
63.755099999999999
10
158.73200000000003
20
64.755499999999998
10
159.53100000000003
20
64.755499999999998
10
159.53100000000003
20
67.856099999999998
10
158.73200000000003
20
67.856099999999998
10
158.73200000000003
20
73.656100000000023
10
159.53100000000003
20
73.656100000000023
10
159.53100000000003
20
76.755300000000005
10
158.73200000000003
20
76.755300000000005
10
158.73200000000003
20
77.755799999999979
10
144.73100000000005
20
77.755799999999979
10
144.73100000000005
20
76.755300000000005
10
143.93200000000004
20
76.755300000000005
10
143.93200000000004
20
73.656100000000023
10
144.73100000000005
20
73.656100000000023
10
144.73100000000005
20
67.856099999999998
10
143.93200000000004
20
67.856099999999998
10
143.93200000000004
20
64.755499999999998
0
LWPOLYLINE
5
138
100
AcDbEntity
8
0
100
AcDbPolyline
90
20
70
1
43
0.0
10
62.969400000000036
20
35.554699999999997
10
63.770200000000052
20
35.554699999999997
10
63.770200000000052
20
29.7546
10
62.969400000000036
20
29.7546
10
62.969400000000036
20
26.6554
10
63.770200000000052
20
26.6554
10
63.770200000000052
20
25.655000000000001
10
77.769500000000022
20
25.655000000000001
10
77.769500000000022
20
26.6554
10
78.570300000000032
20
26.6554
10
78.570300000000032
20
29.7546
10
77.769500000000022
20
29.7546
10
77.769500000000022
20
35.554699999999997
10
78.570300000000032
20
35.554699999999997
10
78.570300000000032
20
38.655299999999997
10
77.769500000000022
20
38.655299999999997
10
77.769500000000022
20
39.654299999999999
10
63.770200000000052
20
39.654299999999999
10
63.770200000000052
20
38.655299999999997
10
62.969400000000036
20
38.655299999999997
0
LWPOLYLINE
5
139
100
AcDbEntity
8
0
100
AcDbPolyline
90
20
70
1
43
0.0
10
44.432000000000038
20
77.755799999999979
10
30.431200000000036
20
77.755799999999979
10
30.431200000000036
20
76.755300000000005
10
29.632000000000041
20
76.755300000000005
10
29.632000000000041
20
73.656100000000023
10
30.431200000000036
20
73.656100000000023
10
30.431200000000036
20
67.856099999999998
10
29.632000000000041
20
67.856099999999998
10
29.632000000000041
20
64.755499999999998
10
30.431200000000036
20
64.755499999999998
10
30.431200000000036
20
63.755099999999999
10
44.432000000000038
20
63.755099999999999
10
44.432000000000038
20
64.755499999999998
10
45.231400000000043
20
64.755499999999998
10
45.231400000000043
20
67.856099999999998
10
44.432000000000038
20
67.856099999999998
10
44.432000000000038
20
73.656100000000023
10
45.231400000000043
20
73.656100000000023
10
45.231400000000043
20
76.755300000000005
10
44.432000000000038
20
76.755300000000005
0
LWPOLYLINE
5
140
100
AcDbEntity
8
0
100
AcDbPolyline
90
20
70
1
43
0.0
10
292.08200000000005
20
73.656100000000023
10
292.88100000000009
20
73.656100000000023
10
292.88100000000009
20
76.755300000000005
10
292.08200000000005
20
76.755300000000005
10
292.08200000000005
20
77.755799999999979
10
278.08100000000002
20
77.755799999999979
10
278.08100000000002
20
76.755300000000005
10
277.28200000000004
20
76.755300000000005
10
277.28200000000004
20
73.656100000000023
10
278.08100000000002
20
73.656100000000023
10
278.08100000000002
20
67.856099999999998
10
277.28200000000004
20
67.856099999999998
10
277.28200000000004
20
64.755499999999998
10
278.08100000000002
20
64.755499999999998
10
278.08100000000002
20
63.755099999999999
10
292.08200000000005
20
63.755099999999999
10
292.08200000000005
20
64.755499999999998
10
292.88100000000009
20
64.755499999999998
10
292.88100000000009
20
67.856099999999998
10
292.08200000000005
20
67.856099999999998
0
LWPOLYLINE
5
141
100
AcDbEntity
8
0
100
AcDbPolyline
90
20
70
1
43
0.0
10
215.88200000000003
20
64.755499999999998
10
216.68100000000007
20
64.755499999999998
10
216.68100000000007
20
67.856099999999998
10
215.88200000000003
20
67.856099999999998
10
215.88200000000003
20
73.656100000000023
10
216.68100000000007
20
73.656100000000023
10
216.68100000000007
20
76.755300000000005
10
215.88200000000003
20
76.755300000000005
10
215.88200000000003
20
77.755799999999979
10
201.88100000000006
20
77.755799999999979
10
201.88100000000006
20
76.755300000000005
10
201.08200000000008
20
76.755300000000005
10
201.08200000000008
20
73.656100000000023
10
201.88100000000006
20
73.656100000000023
10
201.88100000000006
20
67.856099999999998
10
201.08200000000008
20
67.856099999999998
10
201.08200000000008
20
64.755499999999998
10
201.88100000000006
20
64.755499999999998
10
201.88100000000006
20
63.755099999999999
10
215.88200000000003
20
63.755099999999999
0
LWPOLYLINE
5
142
100
AcDbEntity
8
0
100
AcDbPolyline
90
20
70
1
43
0.0
10
201.59500000000008
20
54.604700000000008
10
202.39500000000007
20
54.604700000000008
10
202.39500000000007
20
57.705300000000008
10
201.59500000000008
20
57.705300000000008
10
201.59500000000008
20
58.704300000000003
10
187.59500000000003
20
58.704300000000003
10
187.59500000000003
20
57.705300000000008
10
186.79400000000004
20
57.705300000000008
10
186.79400000000004
20
54.604700000000008
10
187.59500000000003
20
54.604700000000008
10
187.59500000000003
20
48.804699999999997
10
186.79400000000004
20
48.804699999999997
10
186.79400000000004
20
45.705500000000001
10
187.59500000000003
20
45.705500000000001
10
187.59500000000003
20
44.705100000000002
10
201.59500000000008
20
44.705100000000002
10
201.59500000000008
20
45.705500000000001
10
202.39500000000007
20
45.705500000000001
10
202.39500000000007
20
48.804699999999997
10
201.59500000000008
20
48.804699999999997
0
LWPOLYLINE
5
143
100
AcDbEntity
8
0
100
AcDbPolyline
90
20
70
1
43
0.0
10
255.84900000000007
20
38.655299999999997
10
255.84900000000007
20
35.554699999999997
10
256.65000000000009
20
35.554699999999997
10
256.65000000000009
20
29.7546
10
255.84900000000007
20
29.7546
10
255.84900000000007
20
26.6554
10
256.65000000000009
20
26.6554
10
256.65000000000009
20
25.655000000000001
10
270.65100000000007
20
25.655000000000001
10
270.65100000000007
20
26.6554
10
271.45000000000005
20
26.6554
10
271.45000000000005
20
29.7546
10
270.65100000000007
20
29.7546
10
270.65100000000007
20
35.554699999999997
10
271.45000000000005
20
35.554699999999997
10
271.45000000000005
20
38.655299999999997
10
270.65100000000007
20
38.655299999999997
10
270.65100000000007
20
39.654299999999999
10
256.65000000000009
20
39.654299999999999
10
256.65000000000009
20
38.655299999999997
0
LWPOLYLINE
5
144
100
AcDbEntity
8
0
100
AcDbPolyline
90
20
70
1
43
0.0
10
162.98200000000006
20
76.755300000000005
10
162.98200000000006
20
73.656100000000023
10
163.78100000000003
20
73.656100000000023
10
163.78100000000003
20
67.856099999999998
10
162.98200000000006
20
67.856099999999998
10
162.98200000000006
20
64.755499999999998
10
163.78100000000003
20
64.755499999999998
10
163.78100000000003
20
63.755099999999999
10
177.78200000000004
20
63.755099999999999
10
177.78200000000004
20
64.755499999999998
10
178.58100000000005
20
64.755499999999998
10
178.58100000000005
20
67.856099999999998
10
177.78200000000004
20
67.856099999999998
10
177.78200000000004
20
73.656100000000023
10
178.58100000000005
20
73.656100000000023
10
178.58100000000005
20
76.755300000000005
10
177.78200000000004
20
76.755300000000005
10
177.78200000000004
20
77.755799999999979
10
163.78100000000003
20
77.755799999999979
10
163.78100000000003
20
76.755300000000005
0
LWPOLYLINE
5
145
100
AcDbEntity
8
0
100
AcDbPolyline
90
20
70
1
43
0.0
10
221.44500000000008
20
45.705500000000001
10
221.44500000000008
20
48.804699999999997
10
220.6450000000001
20
48.804699999999997
10
220.6450000000001
20
54.604700000000008
10
221.44500000000008
20
54.604700000000008
10
221.44500000000008
20
57.705300000000008
10
220.6450000000001
20
57.705300000000008
10
220.6450000000001
20
58.704300000000003
10
206.64500000000007
20
58.704300000000003
10
206.64500000000007
20
57.705300000000008
10
205.84400000000005
20
57.705300000000008
10
205.84400000000005
20
54.604700000000008
10
206.64500000000007
20
54.604700000000008
10
206.64500000000007
20
48.804699999999997
10
205.84400000000005
20
48.804699999999997
10
205.84400000000005
20
45.705500000000001
10
206.64500000000007
20
45.705500000000001
10
206.64500000000007
20
44.705100000000002
10
220.6450000000001
20
44.705100000000002
10
220.6450000000001
20
45.705500000000001
0
LWPOLYLINE
5
146
100
AcDbEntity
8
0
100
AcDbPolyline
90
20
70
1
43
0.0
10
68.531300000000044
20
67.856099999999998
10
67.731900000000024
20
67.856099999999998
10
67.731900000000024
20
64.755499999999998
10
68.531300000000044
20
64.755499999999998
10
68.531300000000044
20
63.755099999999999
10
82.532000000000053
20
63.755099999999999
10
82.532000000000053
20
64.755499999999998
10
83.331400000000031
20
64.755499999999998
10
83.331400000000031
20
67.856099999999998
10
82.532000000000053
20
67.856099999999998
10
82.532000000000053
20
73.656100000000023
10
83.331400000000031
20
73.656100000000023
10
83.331400000000031
20
76.755300000000005
10
82.532000000000053
20
76.755300000000005
10
82.532000000000053
20
77.755799999999979
10
68.531300000000044
20
77.755799999999979
10
68.531300000000044
20
76.755300000000005
10
67.731900000000024
20
76.755300000000005
10
67.731900000000024
20
73.656100000000023
10
68.531300000000044
20
73.656100000000023
0
LWPOLYLINE
5
147
100
AcDbEntity
8
0
100
AcDbPolyline
90
20
70
1
43
0.0
10
120.63200000000008
20
64.755499999999998
10
121.43100000000004
20
64.755499999999998
10
121.43100000000004
20
67.856099999999998
10
120.63200000000008
20
67.856099999999998
10
120.63200000000008
20
73.656100000000023
10
121.43100000000004
20
73.656100000000023
10
121.43100000000004
20
76.755300000000005
10
120.63200000000008
20
76.755300000000005
10
120.63200000000008
20
77.755799999999979
10
106.63100000000006
20
77.755799999999979
10
106.63100000000006
20
76.755300000000005
10
105.83200000000005
20
76.755300000000005
10
105.83200000000005
20
73.656100000000023
10
106.63100000000006
20
73.656100000000023
10
106.63100000000006
20
67.856099999999998
10
105.83200000000005
20
67.856099999999998
10
105.83200000000005
20
64.755499999999998
10
106.63100000000006
20
64.755499999999998
10
106.63100000000006
20
63.755099999999999
10
120.63200000000008
20
63.755099999999999
0
LWPOLYLINE
5
148
100
AcDbEntity
8
0
100
AcDbPolyline
90
20
70
1
43
0.0
10
235.73100000000008
20
76.755300000000005
10
234.93200000000004
20
76.755300000000005
10
234.93200000000004
20
77.755799999999979
10
220.93100000000007
20
77.755799999999979
10
220.93100000000007
20
76.755300000000005
10
220.13200000000012
20
76.755300000000005
10
220.13200000000012
20
73.656100000000023
10
220.93100000000007
20
73.656100000000023
10
220.93100000000007
20
67.856099999999998
10
220.13200000000012
20
67.856099999999998
10
220.13200000000012
20
64.755499999999998
10
220.93100000000007
20
64.755499999999998
10
220.93100000000007
20
63.755099999999999
10
234.93200000000004
20
63.755099999999999
10
234.93200000000004
20
64.755499999999998
10
235.73100000000008
20
64.755499999999998
10
235.73100000000008
20
67.856099999999998
10
234.93200000000004
20
67.856099999999998
10
234.93200000000004
20
73.656100000000023
10
235.73100000000008
20
73.656100000000023
0
LWPOLYLINE
5
149
100
AcDbEntity
8
0
100
AcDbPolyline
90
20
70
1
43
0.0
10
183.34500000000008
20
57.705300000000008
10
182.54500000000004
20
57.705300000000008
10
182.54500000000004
20
58.704300000000003
10
168.54500000000004
20
58.704300000000003
10
168.54500000000004
20
57.705300000000008
10
167.74400000000011
20
57.705300000000008
10
167.74400000000011
20
54.604700000000008
10
168.54500000000004
20
54.604700000000008
10
168.54500000000004
20
48.804699999999997
10
167.74400000000011
20
48.804699999999997
10
167.74400000000011
20
45.705500000000001
10
168.54500000000004
20
45.705500000000001
10
168.54500000000004
20
44.705100000000002
10
182.54500000000004
20
44.705100000000002
10
182.54500000000004
20
45.705500000000001
10
183.34500000000008
20
45.705500000000001
10
183.34500000000008
20
48.804699999999997
10
182.54500000000004
20
48.804699999999997
10
182.54500000000004
20
54.604700000000008
10
183.34500000000008
20
54.604700000000008
0
LWPOLYLINE
5
150
100
AcDbEntity
8
0
100
AcDbPolyline
90
20
70
1
43
0.0
10
139.97000000000003
20
39.654299999999999
10
139.97000000000003
20
38.655299999999997
10
139.16900000000001
20
38.655299999999997
10
139.16900000000001
20
35.554699999999997
10
139.97000000000003
20
35.554699999999997
10
139.97000000000003
20
29.7546
10
139.16900000000001
20
29.7546
10
139.16900000000001
20
26.6554
10
139.97000000000003
20
26.6554
10
139.97000000000003
20
25.655000000000001
10
153.97000000000003
20
25.655000000000001
10
153.97000000000003
20
26.6554
10
154.7700000000001
20
26.6554
10
154.7700000000001
20
29.7546
10
153.97000000000003
20
29.7546
10
153.97000000000003
20
35.554699999999997
10
154.7700000000001
20
35.554699999999997
10
154.7700000000001
20
38.655299999999997
10
153.97000000000003
20
38.655299999999997
10
153.97000000000003
20
39.654299999999999
0
LWPOLYLINE
5
151
100
AcDbEntity
8
0
100
AcDbPolyline
90
20
70
1
43
0.0
10
246.83800000000005
20
20.604399999999998
10
232.83799999999999
20
20.604399999999998
10
232.83799999999999
20
19.605300000000003
10
232.03800000000004
20
19.605300000000003
10
232.03800000000004
20
16.5062
10
232.83799999999999
20
16.5062
10
232.83799999999999
20
10.704599999999997
10
232.03800000000004
20
10.704599999999997
10
232.03800000000004
20
7.6053900000000008
10
232.83799999999999
20
7.6053900000000008
10
232.83799999999999
20
6.6049500000000005
10
246.83800000000005
20
6.6049500000000005
10
246.83800000000005
20
7.6053900000000008
10
247.63800000000009
20
7.6053900000000008
10
247.63800000000009
20
10.704599999999997
10
246.83800000000005
20
10.704599999999997
10
246.83800000000005
20
16.5062
10
247.63800000000009
20
16.5062
10
247.63800000000009
20
19.605300000000003
10
246.83800000000005
20
19.605300000000003
0
LWPOLYLINE
5
152
100
AcDbEntity
8
0
100
AcDbPolyline
90
20
70
1
43
0.0
10
5.8180800000000321
20
67.856099999999998
10
5.8180800000000321
20
64.755499999999998
10
6.6187100000000321
20
64.755499999999998
10
6.6187100000000321
20
63.755099999999999
10
20.619600000000045
20
63.755099999999999
10
20.619600000000045
20
64.755499999999998
10
21.42020000000004
20
64.755499999999998
10
21.42020000000004
20
67.856099999999998
10
20.619600000000045
20
67.856099999999998
10
20.619600000000045
20
73.656100000000023
10
21.42020000000004
20
73.656100000000023
10
21.42020000000004
20
76.755300000000005
10
20.619600000000045
20
76.755300000000005
10
20.619600000000045
20
77.755799999999979
10
6.6187100000000321
20
77.755799999999979
10
6.6187100000000321
20
76.755300000000005
10
5.8180800000000321
20
76.755300000000005
10
5.8180800000000321
20
73.656100000000023
10
6.6187100000000321
20
73.656100000000023
10
6.6187100000000321
20
67.856099999999998
0
LWPOLYLINE
5
153
100
AcDbEntity
8
0
100
AcDbPolyline
90
20
70
1
43
0.0
10
115.87000000000003
20
38.655299999999997
10
115.87000000000003
20
39.654299999999999
10
101.87000000000005
20
39.654299999999999
10
101.87000000000005
20
38.655299999999997
10
101.06900000000005
20
38.655299999999997
10
101.06900000000005
20
35.554699999999997
10
101.87000000000005
20
35.554699999999997
10
101.87000000000005
20
29.7546
10
101.06900000000005
20
29.7546
10
101.06900000000005
20
26.6554
10
101.87000000000005
20
26.6554
10
101.87000000000005
20
25.655000000000001
10
115.87000000000003
20
25.655000000000001
10
115.87000000000003
20
26.6554
10
116.67000000000004
20
26.6554
10
116.67000000000004
20
29.7546
10
115.87000000000003
20
29.7546
10
115.87000000000003
20
35.554699999999997
10
116.67000000000004
20
35.554699999999997
10
116.67000000000004
20
38.655299999999997
0
LWPOLYLINE
5
154
100
AcDbEntity
8
0
100
AcDbPolyline
90
20
70
1
43
0.0
10
268.27000000000004
20
6.6049500000000005
10
268.27000000000004
20
7.6053900000000008
10
269.07000000000005
20
7.6053900000000008
10
269.07000000000005
20
10.704599999999997
10
268.27000000000004
20
10.704599999999997
10
268.27000000000004
20
16.5062
10
269.07000000000005
20
16.5062
10
269.07000000000005
20
19.605300000000003
10
268.27000000000004
20
19.605300000000003
10
268.27000000000004
20
20.604399999999998
10
254.27000000000007
20
20.604399999999998
10
254.27000000000007
20
19.605300000000003
10
253.46900000000008
20
19.605300000000003
10
253.46900000000008
20
16.5062
10
254.27000000000007
20
16.5062
10
254.27000000000007
20
10.704599999999997
10
253.46900000000008
20
10.704599999999997
10
253.46900000000008
20
7.6053900000000008
10
254.27000000000007
20
7.6053900000000008
10
254.27000000000007
20
6.6049500000000005
0
LWPOLYLINE
5
155
100
AcDbEntity
8
0
100
AcDbPolyline
90
20
70
1
43
0.0
10
292.88100000000009
20
38.655299999999997
10
292.08200000000005
20
38.655299999999997
10
292.08200000000005
20
39.654299999999999
10
278.08100000000002
20
39.654299999999999
10
278.08100000000002
20
38.655299999999997
10
277.28200000000004
20
38.655299999999997
10
277.28200000000004
20
35.554699999999997
10
278.08100000000002
20
35.554699999999997
10
278.08100000000002
20
29.7546
10
277.28200000000004
20
29.7546
10
277.28200000000004
20
26.6554
10
278.08100000000002
20
26.6554
10
278.08100000000002
20
25.655000000000001
10
292.08200000000005
20
25.655000000000001
10
292.08200000000005
20
26.6554
10
292.88100000000009
20
26.6554
10
292.88100000000009
20
29.7546
10
292.08200000000005
20
29.7546
10
292.08200000000005
20
35.554699999999997
10
292.88100000000009
20
35.554699999999997
0
ENDSEC
0
SECTION
2
OBJECTS
0
DICTIONARY
5
C
100
AcDbDictionary
3
ACAD_GROUP
350
D
3
ACAD_MLINESTYLE
350
17
0
DICTIONARY
5
D
100
AcDbDictionary
0
DICTIONARY
5
1A
330
C
100
AcDbDictionary
0
DICTIONARY
5
17
100
AcDbDictionary
0
ENDSEC
0
EOF
