0
SECTION
2
HEADER
9
$INSUNITS
70
4
9
$ACADVER
1
AC1014
9
$HANDSEED
5
FFFF
0
ENDSEC
0
SECTION
2
TABLES
0
TABLE
2
VPORT
5
8
100
AcDbSymbolTable
0
ENDTAB
0
TABLE
2
LTYPE
5
5
100
AcDbSymbolTable
0
LTYPE
5
14
100
AcDbSymbolTableRecord
100
AcDbLinetypeTableRecord
2
BYBLOCK
70
0
0
LTYPE
5
15
100
AcDbSymbolTableRecord
100
AcDbLinetypeTableRecord
2
BYLAYER
70
0
0
ENDTAB
0
TABLE
2
LAYER
5
2
100
AcDbSymbolTable
70
2
0
LAYER
5
50
100
AcDbSymbolTableRecord
100
AcDbLayerTableRecord
2
0
70
0
6
CONTINUOUS
0
ENDTAB
0
TABLE
2
STYLE
5
3
100
AcDbSymbolTable
70
1
0
STYLE
5
11
100
AcDbSymbolTableRecord
100
AcDbTextStyleTableRecord
2
STANDARD
70
0
0
ENDTAB
0
TABLE
2
VIEW
5
6
100
AcDbSymbolTable
70
0
0
ENDTAB
0
TABLE
2
UCS
5
7
100
AcDbSymbolTable
70
0
0
ENDTAB
0
TABLE
2
APPID
5
9
100
AcDbSymbolTable
70
2
0
APPID
5
12
100
AcDbSymbolTableRecord
100
AcDbRegAppTableRecord
2
ACAD
70
0
0
ENDTAB
0
TABLE
2
DIMSTYLE
5
A
100
AcDbSymbolTable
70
1
0
ENDTAB
0
TABLE
2
BLOCK_RECORD
5
1
100
AcDbSymbolTable
70
1
0
BLOCK_RECORD
5
1F
100
AcDbSymbolTableRecord
100
AcDbBlockTableRecord
2
*MODEL_SPACE
0
BLOCK_RECORD
5
1B
100
AcDbSymbolTableRecord
100
AcDbBlockTableRecord
2
*PAPER_SPACE
0
ENDTAB
0
ENDSEC
0
SECTION
2
BLOCKS
0
BLOCK
5
20
100
AcDbEntity
100
AcDbBlockBegin
2
*MODEL_SPACE
0
ENDBLK
5
21
100
AcDbEntity
100
AcDbBlockEnd
0
BLOCK
5
1C
100
AcDbEntity
100
AcDbBlockBegin
2
*PAPER_SPACE
0
ENDBLK
5
1D
100
AcDbEntity
100
AcDbBlockEnd
0
ENDSEC
0
SECTION
2
ENTITIES
0
CIRCLE
5
100
100
AcDbEntity
8
0
100
AcDbCircle
10
229.35126479121868
20
-6.7669107198626319
30
0
40
1.6250000000000142
210
0
220
-0
230
1
0
CIRCLE
5
101
100
AcDbEntity
8
0
100
AcDbCircle
10
-9.1226599048629016
20
43.912681187331692
30
0
40
1.6250000000000009
210
0
220
-0
230
1
0
CIRCLE
5
102
100
AcDbEntity
8
0
100
AcDbCircle
10
69.353097722396427
20
94.589434811786475
30
0
40
1.6249999999999964
210
0
220
-0
230
1
0
CIRCLE
5
103
100
AcDbEntity
8
0
100
AcDbCircle
10
69.351264791218696
20
-6.7669107198626319
30
0
40
1.6249999999999964
210
0
220
-0
230
1
0
CIRCLE
5
104
100
AcDbEntity
8
0
100
AcDbCircle
10
307.79037055193669
20
43.912681187331692
30
0
40
1.6250000000000142
210
0
220
-0
230
1
0
CIRCLE
5
105
100
AcDbEntity
8
0
100
AcDbCircle
10
229.35309761774616
20
94.583647922237503
30
0
40
1.6250000000000142
210
0
220
-0
230
1
0
LWPOLYLINE
5
106
100
AcDbEntity
8
0
100
AcDbPolyline
90
70
70
1
43
0.0
10
304.85426969561593
20
-11.921451899999989
10
-6.1523510407199815
20
-11.921451899999997
10
-7.078960871786717
20
-11.302061607568206
10
-8.2624878397863419
20
-10.369811612208579
10
-9.3475387692873024
20
-9.3626987692875652
10
-10.337056779289062
20
-8.2966042953096242
10
-11.291029453763766
20
-7.0940407110073167
10
-12.119947638680467
20
-5.8440801712700718
10
-12.845862606438743
20
-4.5542806273516945
10
-13.469610007951553
20
-3.1951799552905591
10
-13.99544924758237
20
-1.7774339775160364
10
-14.392378533628126
20
-0.34587257315569886
10
-14.680143483434554
20
1.0801444731493604
10
-14.858856142407266
20
2.5827295003338335
10
-14.906298751982201
20
3.784554878989308
10
-14.90491062282562
20
80.544500995647056
10
-14.862631835917394
20
81.744478538513818
10
-14.680182167413927
20
83.279317311905956
10
-14.392163533330598
20
84.706127032449658
10
-13.998359136447537
20
86.126090305056067
10
-13.47005559515134
20
87.557177277372617
10
-12.839081900805114
20
88.925998778631651
10
-12.118263399802087
20
90.206135821037719
10
-11.292664699344977
20
91.450472643950405
10
-10.339068279416239
20
92.654170106235114
10
-9.3483728261533727
20
93.720930191677283
10
-8.2803680503014849
20
94.713149463728499
10
-7.0741037939287921
20
95.668693452439015
10
-5.8311300601300626
20
96.49284836874584
10
-4.5538440261363693
20
97.212439574448979
10
-3.1864152763789089
20
97.842997306309456
10
-1.7506618089265857
20
98.373675936191859
10
-0.32909587425219378
20
98.767083535621822
10
1.095735553681497
20
99.055017254055542
10
2.6015714968962884
20
99.233601512257351
10
3.799402581143454
20
99.280701420624169
10
294.86830806593036
20
99.279298745737279
10
296.06978847929872
20
99.237591304636211
10
297.60578332224264
20
99.054945764016878
10
299.03645112205504
20
98.766489691392408
10
300.45892996149701
20
98.371304344938153
10
301.87718299491229
20
97.847271868184606
10
303.26049572668359
20
97.211918757346581
10
304.54324555725049
20
96.485966930157559
10
305.77038485065862
20
95.672870054830696
10
306.98099752231923
20
94.715162702431741
10
308.05994762437615
20
93.712208216258944
10
309.05606156919782
20
92.636592219503257
10
309.98400043091243
20
91.461202994664802
10
310.82297822366007
20
90.20657163259601
10
311.54040657078309
20
88.9212964041878
10
312.1723007048447
20
87.561766600601217
10
312.69750763471512
20
86.127659900426906
10
313.09029171193049
20
84.727038090968279
10
313.38350071694049
20
83.274234762919065
10
313.56498205012161
20
81.739000782223343
10
313.60700000000008
20
80.54378109886612
10
313.60700000000008
20
3.8153246881244307
10
313.56495542293709
20
2.6197298058262497
10
313.38346224453625
20
1.0852295085511443
10
313.09050885416548
20
-0.36677979565697072
10
312.69458575201162
20
-1.7789210530688848
10
312.17184422028811
20
-3.1996163715084336
10
311.54717907613372
20
-4.5495082834025879
10
310.82466063413142
20
-5.8445163379798615
10
309.98235394378105
20
-7.1047515421764018
10
309.05405464027672
20
-8.2790263585631152
10
308.05911630308009
20
-9.3539801592159755
10
306.96312376932423
20
-10.37182366012992
10
305.77524903783575
20
-11.306248244962092
0
LWPOLYLINE
5
107
100
AcDbEntity
8
0
100
AcDbPolyline
90
44
70
1
43
0.0
10
3.9346775149535418
20
3.9629921801218471
10
3.9382554507532674
20
3.9584818881451067
10
3.9552895548861855
20
3.9401295548861803
10
3.9688395860792633
20
3.9275528084261735
10
3.9781724875193447
20
3.9202013939172753
10
3.9896464837557488
20
3.9125316265071386
10
4.0096611389315484
20
3.9013681869274164
10
4.0259832588831292
20
3.8937616431907962
10
4.0458486305013608
20
3.8882535025317559
10
4.0616234152516384
20
3.8850702094893386
10
4.0815325379238132
20
3.8827900189361708
10
4.1778218352949281
20
3.8785481000000033
10
23.344600000000032
20
3.8785481000000033
10
23.344600000000032
20
72.255873060460544
10
23.344639635384787
20
80.480607230979743
10
4.1688318794439638
20
80.480699640108512
10
4.0802272207862345
20
80.477215616894782
10
4.069625393067362
20
80.475958295639288
10
4.0454333548106556
20
80.471069504309156
10
4.0255903249280678
20
80.46557809616472
10
4.01970653668279
20
80.463403349068301
10
4.010338086621239
20
80.459083307806267
10
3.9902030818995016
20
80.447739746584318
10
3.9769420277952965
20
80.438946992048784
10
3.9733692394098341
20
80.436116802522193
10
3.9555008492922283
20
80.419516351441743
10
3.9387650307854827
20
80.401495573087089
10
3.9350917771674792
20
80.396858930199301
10
3.9266221679498514
20
80.384093592003708
10
3.9157900548707048
20
80.364856309413312
10
3.9115590974384062
20
80.35567775639899
10
3.9089506079000458
20
80.348611789385757
10
3.9033591884438223
20
80.328450485112768
10
3.8986022024115385
20
80.304884947650507
10
3.8981900117657631
20
80.301417436909844
10
3.8950833897825281
20
80.213243747769397
10
3.8937079558355241
20
4.1553098306560443
10
3.8972335027431986
20
4.0659999932487567
10
3.8985924024700935
20
4.0545746001354992
10
3.9034136551858367
20
4.0306829185327908
10
3.9082134360542402
20
4.0133720743040691
10
3.9114462153477803
20
4.0046559886736048
10
3.9175078336312201
20
3.9914481589290873
10
3.927048841799099
20
3.9744957767217626
0
LWPOLYLINE
5
108
100
AcDbEntity
8
0
100
AcDbPolyline
90
29
70
1
43
0.0
10
294.72678250449979
20
80.437888919442941
10
294.70928445882998
20
80.449483044360065
10
294.69208774924027
20
80.459215248138904
10
294.68532697462228
20
80.462320460059914
10
294.67488440975416
20
80.46617889928234
10
294.65673904907936
20
80.471219944847292
10
294.63314822503202
20
80.475976406449078
10
294.63122691857802
20
80.476204869492165
10
294.54205528996431
20
80.479300317746606
10
27.706239664476016
20
80.480586212221951
10
27.706200000029355
20
72.249821418673093
10
27.706200000029355
20
22.93
10
51.520200000000038
20
22.93
10
51.520200000000038
20
3.8785481000000033
10
270.995
20
3.8785481000000033
10
270.995
20
22.93
10
294.80700000000007
20
22.93
10
294.80700000000007
20
80.213426121620586
10
294.80385788063597
20
80.302805135169976
10
294.80345981837519
20
80.30617252672748
10
294.80003276631112
20
80.32315301695435
10
294.79300473253898
20
80.348214158558307
10
294.79069715477283
20
80.35451512784789
10
294.78533700206839
20
80.366047577605727
10
294.77532551667281
20
80.383983186409154
10
294.76853322416906
20
80.394140574684755
10
294.75921106913688
20
80.405948637725544
10
294.74459993515779
20
80.421725918547949
10
294.7296672943462
20
80.435606782050343
0
ENDSEC
0
SECTION
2
OBJECTS
0
DICTIONARY
5
C
100
AcDbDictionary
3
ACAD_GROUP
350
D
3
ACAD_MLINESTYLE
350
17
0
DICTIONARY
5
D
100
AcDbDictionary
0
DICTIONARY
5
1A
330
C
100
AcDbDictionary
0
DICTIONARY
5
17
100
AcDbDictionary
0
ENDSEC
0
EOF
