<?xml version="1.0" encoding="UTF-8" standalone="no"?>
<svg
   xmlns:dc="http://purl.org/dc/elements/1.1/"
   xmlns:cc="http://creativecommons.org/ns#"
   xmlns:rdf="http://www.w3.org/1999/02/22-rdf-syntax-ns#"
   xmlns:svg="http://www.w3.org/2000/svg"
   xmlns="http://www.w3.org/2000/svg"
   xmlns:sodipodi="http://sodipodi.sourceforge.net/DTD/sodipodi-0.dtd"
   xmlns:inkscape="http://www.inkscape.org/namespaces/inkscape"
   width="350mm"
   height="130mm"
   version="1.1"
   id="svg46"
   sodipodi:docname="L5.svg"
   inkscape:version="0.92.4 (5da689c313, 2019-01-14)">
  <metadata
     id="metadata50">
    <rdf:RDF>
      <cc:Work
         rdf:about="">
        <dc:format>image/svg+xml</dc:format>
        <dc:type
           rdf:resource="http://purl.org/dc/dcmitype/StillImage" />
        <dc:title></dc:title>
      </cc:Work>
    </rdf:RDF>
  </metadata>
  <sodipodi:namedview
     pagecolor="#ffffff"
     bordercolor="#666666"
     borderopacity="1"
     objecttolerance="10"
     gridtolerance="10"
     guidetolerance="10"
     inkscape:pageopacity="0"
     inkscape:pageshadow="2"
     inkscape:window-width="2560"
     inkscape:window-height="1377"
     id="namedview48"
     showgrid="false"
     units="mm"
     inkscape:zoom="0.38047663"
     inkscape:cx="478.90457"
     inkscape:cy="114.08926"
     inkscape:window-x="-8"
     inkscape:window-y="-8"
     inkscape:window-maximized="1"
     inkscape:current-layer="g44" />
  <desc
     id="desc10">C:\msys64\home\Cody Bender\keyboards\nightmare\case\acrylic\L0.dxf - scale = 1.000000, origin = (0.000000, 0.000000), method = manual</desc>
  <defs
     id="defs24">
    <marker
       id="DistanceX"
       orient="auto"
       refX="0"
       refY="0"
       style="overflow:visible">
      <path
         d="M 3,-3 -3,3 M 0,-5 V 5"
         style="stroke:#000000;stroke-width:0.5"
         id="path12"
         inkscape:connector-curvature="0" />
    </marker>
    <pattern
       height="8"
       id="Hatch"
       patternUnits="userSpaceOnUse"
       width="8"
       x="0"
       y="0">
      <path
         d="M8 4 l-4,4"
         linecap="square"
         stroke="#000000"
         stroke-width="0.25"
         id="path15" />
      <path
         d="M6 2 l-4,4"
         linecap="square"
         stroke="#000000"
         stroke-width="0.25"
         id="path17" />
      <path
         d="M4 0 l-4,4"
         linecap="square"
         stroke="#000000"
         stroke-width="0.25"
         id="path19" />
    </pattern>
    <symbol
       id="*MODEL_SPACE" />
    <symbol
       id="*PAPER_SPACE" />
    <marker
       style="overflow:visible"
       refY="0.0"
       refX="0.0"
       orient="auto"
       id="DistanceX-2">
      <path
         id="path3757"
         style="stroke:#000000; stroke-width:0.5"
         d="M 3,-3 L -3,3 M 0,-5 L  0,5" />
    </marker>
    <pattern
       y="0"
       x="0"
       width="8"
       patternUnits="userSpaceOnUse"
       id="Hatch-8"
       height="8">
      <path
         id="path3760"
         stroke-width="0.25"
         stroke="#000000"
         linecap="square"
         d="M8 4 l-4,4" />
      <path
         id="path3762"
         stroke-width="0.25"
         stroke="#000000"
         linecap="square"
         d="M6 2 l-4,4" />
      <path
         id="path3764"
         stroke-width="0.25"
         stroke="#000000"
         linecap="square"
         d="M4 0 l-4,4" />
    </pattern>
    <symbol
       id="*MODEL_SPACE-9" />
    <symbol
       id="*PAPER_SPACE-9" />
    <marker
       style="overflow:visible"
       refY="0.0"
       refX="0.0"
       orient="auto"
       id="DistanceX-3">
      <path
         id="path3811"
         style="stroke:#000000; stroke-width:0.5"
         d="M 3,-3 L -3,3 M 0,-5 L  0,5" />
    </marker>
    <pattern
       y="0"
       x="0"
       width="8"
       patternUnits="userSpaceOnUse"
       id="Hatch-3"
       height="8">
      <path
         id="path3814"
         stroke-width="0.25"
         stroke="#000000"
         linecap="square"
         d="M8 4 l-4,4" />
      <path
         id="path3816"
         stroke-width="0.25"
         stroke="#000000"
         linecap="square"
         d="M6 2 l-4,4" />
      <path
         id="path3818"
         stroke-width="0.25"
         stroke="#000000"
         linecap="square"
         d="M4 0 l-4,4" />
    </pattern>
    <symbol
       id="*MODEL_SPACE-6" />
    <symbol
       id="*PAPER_SPACE-0" />
    <marker
       style="overflow:visible"
       refY="0.0"
       refX="0.0"
       orient="auto"
       id="DistanceX-34">
      <path
         id="path3865"
         style="stroke:#000000; stroke-width:0.5"
         d="M 3,-3 L -3,3 M 0,-5 L  0,5" />
    </marker>
    <pattern
       y="0"
       x="0"
       width="8"
       patternUnits="userSpaceOnUse"
       id="Hatch-34"
       height="8">
      <path
         id="path3868"
         stroke-width="0.25"
         stroke="#000000"
         linecap="square"
         d="M8 4 l-4,4" />
      <path
         id="path3870"
         stroke-width="0.25"
         stroke="#000000"
         linecap="square"
         d="M6 2 l-4,4" />
      <path
         id="path3872"
         stroke-width="0.25"
         stroke="#000000"
         linecap="square"
         d="M4 0 l-4,4" />
    </pattern>
    <symbol
       id="*MODEL_SPACE-1" />
    <symbol
       id="*PAPER_SPACE-4" />
    <marker
       style="overflow:visible"
       refY="0.0"
       refX="0.0"
       orient="auto"
       id="DistanceX-6">
      <path
         id="path3919"
         style="stroke:#000000; stroke-width:0.5"
         d="M 3,-3 L -3,3 M 0,-5 L  0,5" />
    </marker>
    <pattern
       y="0"
       x="0"
       width="8"
       patternUnits="userSpaceOnUse"
       id="Hatch-7"
       height="8">
      <path
         id="path3922"
         stroke-width="0.25"
         stroke="#000000"
         linecap="square"
         d="M8 4 l-4,4" />
      <path
         id="path3924"
         stroke-width="0.25"
         stroke="#000000"
         linecap="square"
         d="M6 2 l-4,4" />
      <path
         id="path3926"
         stroke-width="0.25"
         stroke="#000000"
         linecap="square"
         d="M4 0 l-4,4" />
    </pattern>
    <symbol
       id="*MODEL_SPACE-8" />
    <symbol
       id="*PAPER_SPACE-3" />
    <marker
       style="overflow:visible"
       refY="0.0"
       refX="0.0"
       orient="auto"
       id="DistanceX-4">
      <path
         id="path4120"
         style="stroke:#000000; stroke-width:0.5"
         d="M 3,-3 L -3,3 M 0,-5 L  0,5" />
    </marker>
    <pattern
       y="0"
       x="0"
       width="8"
       patternUnits="userSpaceOnUse"
       id="Hatch-4"
       height="8">
      <path
         id="path4123"
         stroke-width="0.25"
         stroke="#000000"
         linecap="square"
         d="M8 4 l-4,4" />
      <path
         id="path4125"
         stroke-width="0.25"
         stroke="#000000"
         linecap="square"
         d="M6 2 l-4,4" />
      <path
         id="path4127"
         stroke-width="0.25"
         stroke="#000000"
         linecap="square"
         d="M4 0 l-4,4" />
    </pattern>
    <symbol
       id="*MODEL_SPACE-82" />
    <symbol
       id="*PAPER_SPACE-34" />
  </defs>
  <g
     inkscape:groupmode="layer"
     inkscape:label="0"
     id="g44"
     transform="translate(0,-631.18121)">
    <g
       id="g4152"
       inkscape:label="0"
       transform="translate(100.48168,-79.34178)">
      <path
         id="path4134"
         style="fill:none;stroke:#000000"
         d="m 872.98116,1148.0954 a 6.141735,6.141735 0 1 0 -12.28347,0 6.141735,6.141735 0 1 0 12.28347,0 z"
         inkscape:connector-curvature="0" />
      <path
         id="path4136"
         style="fill:none;stroke:#000000"
         d="m -28.337612,956.5505 a 6.1417325,6.1417325 0 1 0 -12.283465,0 6.1417325,6.1417325 0 1 0 12.283465,0 z"
         inkscape:connector-curvature="0" />
      <path
         id="path4138"
         style="fill:none;stroke:#000000"
         d="m 268.26368,765.01631 a 6.141735,6.141735 0 1 0 -12.28347,0 6.141735,6.141735 0 1 0 12.28347,0 z"
         inkscape:connector-curvature="0" />
      <path
         id="path4140"
         style="fill:none;stroke:#000000"
         d="m 268.25675,1148.0954 a 6.141735,6.141735 0 1 0 -12.28347,0 6.141735,6.141735 0 1 0 12.28347,0 z"
         inkscape:connector-curvature="0" />
      <path
         id="path4142"
         style="fill:none;stroke:#000000"
         d="m 1169.4439,956.5505 a 6.141732,6.141732 0 1 0 -12.2834,0 6.141732,6.141732 0 1 0 12.2834,0 z"
         inkscape:connector-curvature="0" />
      <path
         id="path4144"
         style="fill:none;stroke:#000000"
         d="m 872.98808,765.03818 a 6.141732,6.141732 0 1 0 -12.28346,0 6.141732,6.141732 0 1 0 12.28346,0 z"
         inkscape:connector-curvature="0" />
      <path
         id="path4146"
         style="fill:none;stroke:#000000"
         d="M 1152.2051,1167.5771 H -23.25298 l -3.502148,-2.341 -4.473172,-3.5234 -4.10098,-3.8064 -3.739911,-4.0294 -3.605566,-4.5451 -3.132919,-4.7243 -2.743616,-4.8748 -2.35747,-5.1367 -1.987424,-5.3585 -1.500205,-5.4106 -1.087616,-5.3897 -0.675449,-5.679 -0.179311,-4.5423 0.0052,-290.11638 0.159793,-4.53534 0.689574,-5.80097 1.088574,-5.39267 1.488395,-5.36679 1.996738,-5.40883 2.384782,-5.1735 2.724354,-4.83831 3.120373,-4.70301 3.604144,-4.5494 3.74436,-4.03185 4.036554,-3.75012 4.559109,-3.61151 4.697853,-3.11491 4.827538,-2.71972 5.168235,-2.38321 5.426469,-2.00571 5.372848,-1.4869 5.38519,-1.08825 5.691348,-0.67497 4.527236,-0.17801 1100.103,0.005 4.541,0.15763 5.8054,0.69032 5.4072,1.09022 5.3763,1.49362 5.3603,1.98059 5.2283,2.40134 4.8482,2.74375 4.638,3.07313 4.5755,3.61968 4.078,3.79069 3.7648,4.06532 3.5072,4.44242 3.1709,4.74191 2.7116,4.85774 2.3882,5.13838 1.985,5.42024 1.4846,5.29369 1.1082,5.49091 0.6859,5.80246 0.1588,4.51737 v 289.99735 l -0.1589,4.5187 -0.686,5.7997 -1.1072,5.4879 -1.4964,5.3373 -1.9757,5.3695 -2.361,5.102 -2.7307,4.8945 -3.1835,4.7631 -3.5086,4.4382 -3.7604,4.0628 -4.1423,3.847 -4.4896,3.5317 z"
         inkscape:connector-curvature="0" />
      <path
         id="path4148"
         style="fill:none;stroke:#000000"
         d="m 14.871222,1107.5414 0.01352,0.017 0.06438,0.069 0.05121,0.048 0.03527,0.028 0.04337,0.029 0.07565,0.042 0.06169,0.029 0.07508,0.021 0.05962,0.012 0.07525,0.01 0.363928,0.016 H 88.231559 V 849.42662 l 1.5e-4,-31.08561 -72.475494,-3.5e-4 -0.334884,0.0132 -0.04007,0.005 -0.09143,0.0185 -0.075,0.0208 -0.02224,0.008 -0.03541,0.0163 -0.0761,0.0429 -0.05012,0.0332 -0.0135,0.0107 -0.06754,0.0627 -0.06325,0.0681 -0.01388,0.0175 -0.03201,0.0482 -0.04094,0.0727 -0.01599,0.0347 -0.0099,0.0267 -0.02113,0.0762 -0.01798,0.0891 -0.0016,0.0131 -0.01174,0.33325 -0.0052,287.46309 0.01332,0.3375 0.0051,0.043 0.01822,0.09 0.01814,0.065 0.01222,0.033 0.02291,0.05 0.03606,0.064 z"
         inkscape:connector-curvature="0" />
      <path
         id="path4150"
         style="fill:none;stroke:#000000"
         d="m 1113.928,818.50247 -0.066,-0.0438 -0.065,-0.0368 -0.026,-0.0117 -0.04,-0.0146 -0.069,-0.019 -0.089,-0.018 -0.01,-8.6e-4 -0.337,-0.0117 -1008.5133,-0.005 -1.5e-4,31.1084 V 1035.855 h 90.00567 v 72.0055 h 829.51108 v -72.0055 h 89.9981 V 819.35083 l -0.012,-0.33781 v -0.0127 l -0.013,-0.0642 -0.026,-0.0947 -0.01,-0.0238 -0.02,-0.0436 -0.038,-0.0678 -0.026,-0.0384 -0.035,-0.0446 -0.055,-0.0596 -0.056,-0.0525 z"
         inkscape:connector-curvature="0" />
    </g>
  </g>
</svg>
