0
SECTION
2
HEADER
9
$INSUNITS
70
4
9
$ACADVER
1
AC1014
9
$HANDSEED
5
FFFF
0
ENDSEC
0
SECTION
2
TABLES
0
TABLE
2
VPORT
5
8
100
AcDbSymbolTable
0
ENDTAB
0
TABLE
2
LTYPE
5
5
100
AcDbSymbolTable
0
LTYPE
5
14
100
AcDbSymbolTableRecord
100
AcDbLinetypeTableRecord
2
BYBLOCK
70
0
0
LTYPE
5
15
100
AcDbSymbolTableRecord
100
AcDbLinetypeTableRecord
2
BYLAYER
70
0
0
ENDTAB
0
TABLE
2
LAYER
5
2
100
AcDbSymbolTable
70
2
0
LAYER
5
50
100
AcDbSymbolTableRecord
100
AcDbLayerTableRecord
2
0
70
0
6
CONTINUOUS
0
ENDTAB
0
TABLE
2
STYLE
5
3
100
AcDbSymbolTable
70
1
0
STYLE
5
11
100
AcDbSymbolTableRecord
100
AcDbTextStyleTableRecord
2
STANDARD
70
0
0
ENDTAB
0
TABLE
2
VIEW
5
6
100
AcDbSymbolTable
70
0
0
ENDTAB
0
TABLE
2
UCS
5
7
100
AcDbSymbolTable
70
0
0
ENDTAB
0
TABLE
2
APPID
5
9
100
AcDbSymbolTable
70
2
0
APPID
5
12
100
AcDbSymbolTableRecord
100
AcDbRegAppTableRecord
2
ACAD
70
0
0
ENDTAB
0
TABLE
2
DIMSTYLE
5
A
100
AcDbSymbolTable
70
1
0
ENDTAB
0
TABLE
2
BLOCK_RECORD
5
1
100
AcDbSymbolTable
70
1
0
BLOCK_RECORD
5
1F
100
AcDbSymbolTableRecord
100
AcDbBlockTableRecord
2
*MODEL_SPACE
0
BLOCK_RECORD
5
1B
100
AcDbSymbolTableRecord
100
AcDbBlockTableRecord
2
*PAPER_SPACE
0
ENDTAB
0
ENDSEC
0
SECTION
2
BLOCKS
0
BLOCK
5
20
100
AcDbEntity
100
AcDbBlockBegin
2
*MODEL_SPACE
0
ENDBLK
5
21
100
AcDbEntity
100
AcDbBlockEnd
0
BLOCK
5
1C
100
AcDbEntity
100
AcDbBlockBegin
2
*PAPER_SPACE
0
ENDBLK
5
1D
100
AcDbEntity
100
AcDbBlockEnd
0
ENDSEC
0
SECTION
2
ENTITIES
0
CIRCLE
5
100
100
AcDbEntity
8
0
100
AcDbCircle
10
229.35126479121868
20
-6.7669107198626319
30
0
40
1.6250000000000142
210
0
220
-0
230
1
0
CIRCLE
5
101
100
AcDbEntity
8
0
100
AcDbCircle
10
-9.1226599048629016
20
43.912681187331692
30
0
40
1.6250000000000009
210
0
220
-0
230
1
0
CIRCLE
5
102
100
AcDbEntity
8
0
100
AcDbCircle
10
69.353097722396427
20
94.589434811786475
30
0
40
1.6249999999999964
210
0
220
-0
230
1
0
CIRCLE
5
103
100
AcDbEntity
8
0
100
AcDbCircle
10
69.351264791218696
20
-6.7669107198626319
30
0
40
1.6249999999999964
210
0
220
-0
230
1
0
CIRCLE
5
104
100
AcDbEntity
8
0
100
AcDbCircle
10
307.79037055193669
20
43.912681187331692
30
0
40
1.6250000000000142
210
0
220
-0
230
1
0
CIRCLE
5
105
100
AcDbEntity
8
0
100
AcDbCircle
10
229.35309761774616
20
94.583647922237503
30
0
40
1.6250000000000142
210
0
220
-0
230
1
0
LWPOLYLINE
5
106
100
AcDbEntity
8
0
100
AcDbPolyline
90
66
70
1
43
0.0
10
307.44807463463275
20
-9.9214518999999886
10
-8.7455450521953324
20
-9.9214518999999868
10
-9.347538769287306
20
-9.3626987692875439
10
-10.337056779289034
20
-8.2966042953096668
10
-11.291029453763811
20
-7.0940407110072563
10
-12.119947638680465
20
-5.8440801712700416
10
-12.845862606438752
20
-4.5542806273516394
10
-13.469610007951523
20
-3.1951799552905835
10
-13.995449247582377
20
-1.7774339775160515
10
-14.392378533628122
20
-0.34587257315571884
10
-14.680143483434572
20
1.0801444731493799
10
-14.858856142407273
20
2.5827295003338939
10
-14.906298751982199
20
3.7845548789893435
10
-14.904910622825629
20
80.544500995647169
10
-14.862631835917384
20
81.744478538513818
10
-14.680182167413953
20
83.279317311905913
10
-14.392163533330598
20
84.706127032449743
10
-13.998359136447494
20
86.126090305056152
10
-13.470055595151344
20
87.557177277372617
10
-12.839081900805109
20
88.925998778631651
10
-12.11826339980211
20
90.206135821037719
10
-11.292664699344929
20
91.450472643950476
10
-10.339068279416272
20
92.654170106235085
10
-9.3483728261533763
20
93.720930191677283
10
-8.2803680503015684
20
94.713149463728428
10
-7.0741037939286358
20
95.668693452439143
10
-5.831130060130195
20
96.492848368745783
10
-4.5538440261362378
20
97.21243957444905
10
-3.1864152763791025
20
97.842997306309371
10
-1.7506618089264325
20
98.37367593619193
10
-0.32909587425219655
20
98.76708353562185
10
1.0957355536815339
20
99.055017254055571
10
2.6015714968962507
20
99.233601512257366
10
3.799402581143525
20
99.280701420624183
10
294.86830806593036
20
99.279298745737293
10
296.06978847929872
20
99.237591304636226
10
297.60578332224264
20
99.054945764016907
10
299.03645112205504
20
98.766489691392422
10
300.45892996149701
20
98.371304344938167
10
301.87718299491229
20
97.847271868184635
10
303.26049572668376
20
97.211918757346496
10
304.54324555725032
20
96.485966930157687
10
305.77038485065862
20
95.672870054830724
10
306.98099752231923
20
94.715162702431769
10
308.05994762437615
20
93.712208216258958
10
309.05606156919782
20
92.636592219503271
10
309.98400043091243
20
91.461202994664816
10
310.82297822366007
20
90.206571632596024
10
311.54040657078309
20
88.921296404187814
10
312.1723007048447
20
87.561766600601231
10
312.69750763471512
20
86.12765990042692
10
313.09029171193049
20
84.727038090968293
10
313.38350071694049
20
83.274234762919093
10
313.56498205012161
20
81.739000782223371
10
313.60700000000008
20
80.543781098866134
10
313.60700000000008
20
3.8153246881244538
10
313.56495542293709
20
2.6197298058262568
10
313.38346224453625
20
1.0852295085511425
10
313.09050885416548
20
-0.36677979565694296
10
312.69458575201168
20
-1.7789210530687782
10
312.17184422028816
20
-3.1996163715082466
10
311.54717907613372
20
-4.549508283402627
10
310.82466063413131
20
-5.8445163379799761
10
309.98235394378099
20
-7.1047515421764729
10
309.05405464027672
20
-8.2790263585631525
10
308.05911630308015
20
-9.3539801592159311
0
LWPOLYLINE
5
107
100
AcDbEntity
8
0
100
AcDbPolyline
90
29
70
1
43
0.0
10
294.72678250449979
20
80.437888919442955
10
294.70928445882998
20
80.449483044360079
10
294.69208774924027
20
80.459215248138918
10
294.68532697462228
20
80.462320460059942
10
294.67488440975416
20
80.466178899282355
10
294.65673904907936
20
80.47121994484732
10
294.63314822503202
20
80.475976406449092
10
294.63122691857802
20
80.476204869492193
10
294.54205528996431
20
80.47930031774662
10
27.706239664476016
20
80.480586212221965
10
27.706200000029355
20
72.249821418673122
10
27.706200000029355
20
22.930000000000021
10
51.520200000000038
20
22.930000000000021
10
51.520200000000038
20
3.8785481000000201
10
270.995
20
3.878548100000021
10
270.995
20
22.930000000000021
10
294.80700000000007
20
22.930000000000021
10
294.80700000000007
20
80.2134261216206
10
294.80385788063597
20
80.30280513516999
10
294.80345981837519
20
80.306172526727494
10
294.80003276631112
20
80.323153016954365
10
294.79300473253898
20
80.348214158558321
10
294.79069715477283
20
80.354515127847904
10
294.78533700206839
20
80.366047577605741
10
294.77532551667281
20
80.383983186409168
10
294.76853322416906
20
80.394140574684769
10
294.75921106913688
20
80.405948637725558
10
294.74459993515779
20
80.421725918547963
10
294.7296672943462
20
80.435606782050371
0
LWPOLYLINE
5
108
100
AcDbEntity
8
0
100
AcDbPolyline
90
44
70
1
43
0.0
10
3.9346775149535422
20
3.9629921801218684
10
3.9382554507532679
20
3.9584818881451236
10
3.9552895548861859
20
3.9401295548861972
10
3.9688395860792629
20
3.9275528084261948
10
3.9781724875193452
20
3.9202013939172877
10
3.9896464837557493
20
3.9125316265071577
10
4.0096611389315493
20
3.9013681869274377
10
4.025983258883131
20
3.8937616431908131
10
4.0458486305013617
20
3.8882535025317724
10
4.0616234152516393
20
3.8850702094893554
10
4.0815325379238141
20
3.8827900189361833
10
4.1778218352949281
20
3.8785481000000201
10
23.344600000000035
20
3.878548100000021
10
23.344600000000035
20
72.255873060460573
10
23.344639635384787
20
80.480607230979757
10
4.1688318794439647
20
80.480699640108526
10
4.0802272207862353
20
80.477215616894796
10
4.0696253930673629
20
80.475958295639302
10
4.0454333548106556
20
80.47106950430917
10
4.0255903249280687
20
80.465578096164734
10
4.0197065366827909
20
80.463403349068315
10
4.0103380866212399
20
80.459083307806281
10
3.990203081899502
20
80.447739746584332
10
3.9769420277952965
20
80.438946992048812
10
3.9733692394098346
20
80.436116802522207
10
3.9555008492922288
20
80.419516351441757
10
3.9387650307854831
20
80.401495573087104
10
3.9350917771674792
20
80.396858930199329
10
3.9266221679498519
20
80.384093592003723
10
3.9157900548707052
20
80.364856309413341
10
3.9115590974384067
20
80.355677756399018
10
3.9089506079000462
20
80.348611789385771
10
3.9033591884438228
20
80.328450485112782
10
3.898602202411539
20
80.304884947650521
10
3.8981900117657635
20
80.301417436909873
10
3.8950833897825281
20
80.213243747769411
10
3.8937079558355241
20
4.1553098306560612
10
3.8972335027431986
20
4.0659999932487692
10
3.898592402470094
20
4.0545746001355178
10
3.9034136551858372
20
4.0306829185328032
10
3.9082134360542402
20
4.0133720743040859
10
3.9114462153477807
20
4.0046559886736235
10
3.9175078336312201
20
3.991448158929102
10
3.9270488417990994
20
3.9744957767217839
0
ENDSEC
0
SECTION
2
OBJECTS
0
DICTIONARY
5
C
100
AcDbDictionary
3
ACAD_GROUP
350
D
3
ACAD_MLINESTYLE
350
17
0
DICTIONARY
5
D
100
AcDbDictionary
0
DICTIONARY
5
1A
330
C
100
AcDbDictionary
0
DICTIONARY
5
17
100
AcDbDictionary
0
ENDSEC
0
EOF
