<?xml version="1.0" encoding="UTF-8" standalone="no"?>
<!-- Created with Inkscape (http://www.inkscape.org/) -->

<svg
   xmlns:dc="http://purl.org/dc/elements/1.1/"
   xmlns:cc="http://creativecommons.org/ns#"
   xmlns:rdf="http://www.w3.org/1999/02/22-rdf-syntax-ns#"
   xmlns:svg="http://www.w3.org/2000/svg"
   xmlns="http://www.w3.org/2000/svg"
   xmlns:sodipodi="http://sodipodi.sourceforge.net/DTD/sodipodi-0.dtd"
   xmlns:inkscape="http://www.inkscape.org/namespaces/inkscape"
   width="420mm"
   height="210mm"
   viewBox="0 0 420 210"
   version="1.1"
   id="svg8"
   inkscape:version="0.92.4 (5da689c313, 2019-01-14)"
   sodipodi:docname="foam_spacing.svg">
  <defs
     id="defs2">
    <marker
       style="overflow:visible"
       refY="0"
       refX="0"
       orient="auto"
       id="DistanceX">
      <path
         id="path817"
         style="stroke:#000000;stroke-width:0.5"
         d="M 3,-3 -3,3 M 0,-5 V 5"
         inkscape:connector-curvature="0" />
    </marker>
    <pattern
       y="0"
       x="0"
       width="8"
       patternUnits="userSpaceOnUse"
       id="Hatch"
       height="8">
      <path
         id="path820"
         stroke-width="0.25"
         stroke="#000000"
         linecap="square"
         d="M8 4 l-4,4" />
      <path
         id="path822"
         stroke-width="0.25"
         stroke="#000000"
         linecap="square"
         d="M6 2 l-4,4" />
      <path
         id="path824"
         stroke-width="0.25"
         stroke="#000000"
         linecap="square"
         d="M4 0 l-4,4" />
    </pattern>
    <symbol
       id="*MODEL_SPACE" />
    <symbol
       id="*PAPER_SPACE" />
    <marker
       style="overflow:visible"
       refY="0.0"
       refX="0.0"
       orient="auto"
       id="DistanceX-7">
      <path
         id="path3118"
         style="stroke:#000000; stroke-width:0.5"
         d="M 3,-3 L -3,3 M 0,-5 L  0,5" />
    </marker>
    <pattern
       y="0"
       x="0"
       width="8"
       patternUnits="userSpaceOnUse"
       id="Hatch-3"
       height="8">
      <path
         id="path3121"
         stroke-width="0.25"
         stroke="#000000"
         linecap="square"
         d="M8 4 l-4,4" />
      <path
         id="path3123"
         stroke-width="0.25"
         stroke="#000000"
         linecap="square"
         d="M6 2 l-4,4" />
      <path
         id="path3125"
         stroke-width="0.25"
         stroke="#000000"
         linecap="square"
         d="M4 0 l-4,4" />
    </pattern>
    <symbol
       id="*MODEL_SPACE-3" />
    <symbol
       id="*PAPER_SPACE-7" />
  </defs>
  <sodipodi:namedview
     id="base"
     pagecolor="#ffffff"
     bordercolor="#666666"
     borderopacity="1.0"
     inkscape:pageopacity="0.0"
     inkscape:pageshadow="2"
     inkscape:zoom="0.98994949"
     inkscape:cx="404.15051"
     inkscape:cy="354.72279"
     inkscape:document-units="mm"
     inkscape:current-layer="layer1"
     showgrid="false"
     inkscape:window-width="2560"
     inkscape:window-height="1377"
     inkscape:window-x="-8"
     inkscape:window-y="-8"
     inkscape:window-maximized="1" />
  <metadata
     id="metadata5">
    <rdf:RDF>
      <cc:Work
         rdf:about="">
        <dc:format>image/svg+xml</dc:format>
        <dc:type
           rdf:resource="http://purl.org/dc/dcmitype/StillImage" />
        <dc:title></dc:title>
      </cc:Work>
    </rdf:RDF>
  </metadata>
  <g
     inkscape:label="Layer 1"
     inkscape:groupmode="layer"
     id="layer1"
     transform="translate(0,-87)">
    <g
       id="g3270"
       inkscape:label="0"
       transform="matrix(0.26458333,0,0,0.26458333,36.000002,-152.99999)">
      <path
         id="path3132"
         style="fill:none;stroke:#000000"
         d="m 746.45669,1253.1969 a 3.779528,3.779528 0 0 1 -3.77953,3.7795 h -45.35432 a 3.779528,3.779528 0 0 1 -3.77953,-3.7795 v -45.3544 a 3.779528,3.779528 0 0 1 3.77953,-3.7795 h 45.35432 a 3.779528,3.779528 0 0 1 3.77953,3.7795 z"
         inkscape:connector-curvature="0" />
      <path
         id="path3134"
         style="fill:none;stroke:#000000"
         d="m 224.45669,1397.1969 a 3.779528,3.779528 0 0 1 -3.77953,3.7795 h -45.35433 a 3.779528,3.779528 0 0 1 -3.77952,-3.7795 v -45.3544 a 3.779528,3.779528 0 0 1 3.77952,-3.7795 h 45.35433 a 3.779528,3.779528 0 0 1 3.77953,3.7795 z"
         inkscape:connector-curvature="0" />
      <path
         id="path3136"
         style="fill:none;stroke:#000000"
         d="m 728.45669,1397.1969 a 3.779528,3.779528 0 0 1 -3.77953,3.7795 h -45.35432 a 3.779528,3.779528 0 0 1 -3.77953,-3.7795 v -45.3544 a 3.779528,3.779528 0 0 1 3.77953,-3.7795 h 45.35432 a 3.779528,3.779528 0 0 1 3.77953,3.7795 z"
         inkscape:connector-curvature="0" />
      <path
         id="path3138"
         style="fill:none;stroke:#000000"
         d="m 800.45669,1397.1969 a 3.779528,3.779528 0 0 1 -3.77953,3.7795 h -45.35432 a 3.779528,3.779528 0 0 1 -3.77953,-3.7795 v -45.3544 a 3.779528,3.779528 0 0 1 3.77953,-3.7795 h 45.35432 a 3.779528,3.779528 0 0 1 3.77953,3.7795 z"
         inkscape:connector-curvature="0" />
      <path
         id="path3140"
         style="fill:none;stroke:#000000"
         d="m 26.039307,1415.6015 a 3.779528,3.779528 0 0 1 -0.528678,-0.037 h -1.973766 a 3.779528,3.779528 0 0 1 -3.773387,-3.7937 l 0.248846,-66.576 a 3.779528,3.779528 0 0 1 3.782871,-3.7654 l 25.455847,0.023 a 3.779528,3.779528 0 0 1 2.756845,1.1977 l 1.299547,1.3893 a 3.779528,3.779528 0 0 0 3.562011,1.1116 6.851031,6.851031 0 0 1 1.453392,-0.1559 h 45.354335 a 6.851031,6.851031 0 0 1 1.45339,0.1559 3.779528,3.779528 0 0 0 3.56201,-1.1116 l 1.29954,-1.3893 a 3.779528,3.779528 0 0 1 2.75685,-1.1977 l 25.45585,-0.023 a 3.779528,3.779528 0 0 1 3.78287,3.7654 l 0.24884,66.576 a 3.779528,3.779528 0 0 1 -3.77338,3.7937 l -24.94041,0.04 z"
         inkscape:connector-curvature="0" />
      <path
         id="path3142"
         style="fill:none;stroke:#000000"
         d="m 1052.4567,1253.1969 a 3.779528,3.779528 0 0 1 -3.7795,3.7795 h -45.3544 a 3.779528,3.779528 0 0 1 -3.77949,-3.7795 v -45.3544 a 3.779528,3.779528 0 0 1 3.77949,-3.7795 h 45.3544 a 3.779528,3.779528 0 0 1 3.7795,3.7795 z"
         inkscape:connector-curvature="0" />
      <path
         id="path3144"
         style="fill:none;stroke:#000000"
         d="m 350.45669,1181.1969 a 3.779528,3.779528 0 0 1 -3.77953,3.7795 h -45.35433 a 3.779528,3.779528 0 0 1 -3.77952,-3.7795 v -45.3544 a 3.779528,3.779528 0 0 1 3.77952,-3.7795 h 45.35433 a 3.779528,3.779528 0 0 1 3.77953,3.7795 z"
         inkscape:connector-curvature="0" />
      <path
         id="path3146"
         style="fill:none;stroke:#000000"
         d="m 818.45669,1253.1969 a 3.779528,3.779528 0 0 1 -3.77953,3.7795 h -45.35432 a 3.779528,3.779528 0 0 1 -3.77953,-3.7795 v -45.3544 a 3.779528,3.779528 0 0 1 3.77953,-3.7795 h 45.35432 a 3.779528,3.779528 0 0 1 3.77953,3.7795 z"
         inkscape:connector-curvature="0" />
      <path
         id="path3148"
         style="fill:none;stroke:#000000"
         d="m 945.87784,1134.2879 a 3.779528,3.779528 0 0 1 1.79737,-1.8469 l -2e-5,-0.1384 a 3.779528,3.779528 0 0 1 0.0358,-0.017 l 0.71954,-4.1118 3.7795,-3.7795 h 20.78739 l 3.77951,3.7795 v 1.8898 l 0.55351,1.3363 1.33629,0.5535 h 58.58277 l 1.8897,-1.8898 v -1.8898 l 1.107,-2.6725 2.6726,-1.107 h 20.7874 l 3.7795,3.7795 0.7192,4.1052 a 3.779528,3.779528 0 0 1 0.037,0.017 v 0.1057 a 3.779528,3.779528 0 0 1 1.942,2.0303 l 0.9872,0.9872 v 45.9805 l -0.8699,0.8699 a 3.779528,3.779528 0 0 1 -2.0592,2.3673 l -3e-4,9.9917 -4.2223,4.2223 H 951.89695 l -4.22232,-4.2224 6e-4,-10.0305 a 3.779528,3.779528 0 0 1 -1.93835,-2.2075 l -0.99074,-0.9908 v -45.9805 z"
         inkscape:connector-curvature="0" />
      <path
         id="path3150"
         style="fill:none;stroke:#000000"
         d="m 926.45669,1181.1969 a 3.779528,3.779528 0 0 1 -3.77953,3.7795 h -45.35432 a 3.779528,3.779528 0 0 1 -3.77953,-3.7795 v -45.3544 a 3.779528,3.779528 0 0 1 3.77953,-3.7795 h 45.35432 a 3.779528,3.779528 0 0 1 3.77953,3.7795 z"
         inkscape:connector-curvature="0" />
      <path
         id="path3152"
         style="fill:none;stroke:#000000"
         d="m 890.45669,1253.1969 a 3.779528,3.779528 0 0 1 -3.77953,3.7795 h -45.35432 a 3.779528,3.779528 0 0 1 -3.77953,-3.7795 v -45.3544 a 3.779528,3.779528 0 0 1 3.77953,-3.7795 h 45.35432 a 3.779528,3.779528 0 0 1 3.77953,3.7795 z"
         inkscape:connector-curvature="0" />
      <path
         id="path3154"
         style="fill:none;stroke:#000000"
         d="m 198.54256,1423.8437 a 3.779528,3.779528 0 0 1 3.77953,-3.7796 h 8.90798 a 3.779528,3.779528 0 0 1 0.0928,0 h 45.35433 a 3.779528,3.779528 0 0 1 3.77953,3.7795 v 45.3544 a 3.779528,3.779528 0 0 1 -3.77953,3.7795 h -8.90797 a 3.779528,3.779528 0 0 1 -0.0928,0 H 202.3221 a 3.779528,3.779528 0 0 1 -3.77953,-3.7795 z"
         inkscape:connector-curvature="0" />
      <path
         id="path3156"
         style="fill:none;stroke:#000000"
         d="m 193.32283,1256.9764 a 3.779528,3.779528 0 0 1 -3.77952,-3.7795 v -45.3544 a 3.779528,3.779528 0 0 1 3.77952,-3.7795 h 45.35433 a 3.779528,3.779528 0 0 1 3.77953,3.7795 v 45.3544 a 3.779528,3.779528 0 0 1 -3.77953,3.7795 z"
         inkscape:connector-curvature="0" />
      <path
         id="path3158"
         style="fill:none;stroke:#000000"
         d="m 1048.6772,1420.063 a 3.779528,3.779528 0 0 1 0.093,0 h 8.9065 a 3.779528,3.779528 0 0 1 3.7796,3.7796 v 45.3543 a 3.779528,3.779528 0 0 1 -3.7796,3.7795 h -45.3543 a 3.779528,3.779528 0 0 1 -0.093,0 h -8.9065 a 3.779528,3.779528 0 0 1 -3.77949,-3.7795 v -45.3544 a 3.779528,3.779528 0 0 1 3.77949,-3.7795 z"
         inkscape:connector-curvature="0" />
      <path
         id="path3160"
         style="fill:none;stroke:#000000"
         d="m 638.45669,1181.1969 a 3.779528,3.779528 0 0 1 -3.77953,3.7795 h -45.35432 a 3.779528,3.779528 0 0 1 -3.77953,-3.7795 v -45.3544 a 3.779528,3.779528 0 0 1 3.77953,-3.7795 h 45.35432 a 3.779528,3.779528 0 0 1 3.77953,3.7795 z"
         inkscape:connector-curvature="0" />
      <path
         id="path3162"
         style="fill:none;stroke:#000000"
         d="m 1183.3228,1256.9764 a 3.779528,3.779528 0 0 1 -3.7795,-3.7795 v -45.3544 a 3.779528,3.779528 0 0 1 3.7795,-3.7795 h 45.3544 a 3.779528,3.779528 0 0 1 3.7795,3.7795 v 45.3544 a 3.779528,3.779528 0 0 1 -3.7795,3.7795 z"
         inkscape:connector-curvature="0" />
      <path
         id="path3164"
         style="fill:none;stroke:#000000"
         d="m 445.32283,1184.9764 a 3.779528,3.779528 0 0 1 -3.77952,-3.7795 v -45.3544 a 3.779528,3.779528 0 0 1 3.77952,-3.7795 h 45.35433 a 3.779528,3.779528 0 0 1 3.77953,3.7795 v 45.3544 a 3.779528,3.779528 0 0 1 -3.77953,3.7795 z"
         inkscape:connector-curvature="0" />
      <path
         id="path3166"
         style="fill:none;stroke:#000000"
         d="m 80.456693,1253.1969 a 3.779528,3.779528 0 0 1 -3.779528,3.7795 h -45.35433 a 3.779528,3.779528 0 0 1 -3.779528,-3.7795 v -45.3544 a 3.779528,3.779528 0 0 1 3.779528,-3.7795 h 45.35433 a 3.779528,3.779528 0 0 1 3.779528,3.7795 z"
         inkscape:connector-curvature="0" />
      <path
         id="path3168"
         style="fill:none;stroke:#000000"
         d="m 404.45669,1325.1969 a 3.779528,3.779528 0 0 1 -3.77953,3.7795 h -45.35433 a 3.779528,3.779528 0 0 1 -3.77952,-3.7795 v -45.3544 a 3.779528,3.779528 0 0 1 3.77952,-3.7795 h 45.35433 a 3.779528,3.779528 0 0 1 3.77953,3.7795 z"
         inkscape:connector-curvature="0" />
      <path
         id="path3170"
         style="fill:none;stroke:#000000"
         d="m 153.54331,1135.8425 a 3.779528,3.779528 0 0 1 3.77952,-3.7795 h 45.35433 a 3.779528,3.779528 0 0 1 3.77953,3.7795 v 45.3544 a 3.779528,3.779528 0 0 1 -3.77953,3.7795 h -45.35433 a 3.779528,3.779528 0 0 1 -3.77952,-3.7795 z"
         inkscape:connector-curvature="0" />
      <path
         id="path3172"
         style="fill:none;stroke:#000000"
         d="m 1232.4567,1397.1969 a 3.779528,3.779528 0 0 1 -3.7795,3.7795 h -45.3544 a 3.779528,3.779528 0 0 1 -3.7795,-3.7795 v -45.3544 a 3.779528,3.779528 0 0 1 3.7795,-3.7795 h 45.3544 a 3.779528,3.779528 0 0 1 3.7795,3.7795 z"
         inkscape:connector-curvature="0" />
      <path
         id="path3174"
         style="fill:none;stroke:#000000"
         d="m 535.32284,1400.9764 a 3.779528,3.779528 0 0 1 -3.77953,-3.7795 v -45.3544 a 3.779528,3.779528 0 0 1 3.77953,-3.7795 h 45.35432 a 3.779528,3.779528 0 0 1 3.77953,3.7795 v 45.3544 a 3.779528,3.779528 0 0 1 -3.77953,3.7795 z"
         inkscape:connector-curvature="0" />
      <path
         id="path3176"
         style="fill:none;stroke:#000000"
         d="m 1304.4567,1181.1969 a 3.779528,3.779528 0 0 1 -3.7795,3.7795 h -45.3544 a 3.779528,3.779528 0 0 1 -3.7795,-3.7795 v -45.3544 a 3.779528,3.779528 0 0 1 3.7795,-3.7795 h 45.3544 a 3.779528,3.779528 0 0 1 3.7795,3.7795 z"
         inkscape:connector-curvature="0" />
      <path
         id="path3178"
         style="fill:none;stroke:#000000"
         d="m 1232.4567,1181.1969 a 3.779528,3.779528 0 0 1 -3.7795,3.7795 h -45.3544 a 3.779528,3.779528 0 0 1 -3.7795,-3.7795 v -45.3544 a 3.779528,3.779528 0 0 1 3.7795,-3.7795 h 45.3544 a 3.779528,3.779528 0 0 1 3.7795,3.7795 z"
         inkscape:connector-curvature="0" />
      <path
         id="path3180"
         style="fill:none;stroke:#000000"
         d="m 422.45669,1181.1969 a 3.779528,3.779528 0 0 1 -3.77953,3.7795 h -45.35433 a 3.779528,3.779528 0 0 1 -3.77952,-3.7795 v -45.3544 a 3.779528,3.779528 0 0 1 3.77952,-3.7795 h 45.35433 a 3.779528,3.779528 0 0 1 3.77953,3.7795 z"
         inkscape:connector-curvature="0" />
      <path
         id="path3182"
         style="fill:none;stroke:#000000"
         d="m 108.54256,1423.8437 a 3.779528,3.779528 0 0 1 3.77953,-3.7796 h 8.90798 a 3.779528,3.779528 0 0 1 0.0928,0 h 45.35433 a 3.779528,3.779528 0 0 1 3.77953,3.7795 v 45.3544 a 3.779528,3.779528 0 0 1 -3.77953,3.7795 h -8.90797 a 3.779528,3.779528 0 0 1 -0.0928,0 H 112.3221 a 3.779528,3.779528 0 0 1 -3.77953,-3.7795 z"
         inkscape:connector-curvature="0" />
      <path
         id="path3184"
         style="fill:none;stroke:#000000"
         d="m 937.81348,1340.3946 h -12.60815 l -3.7795,3.7795 -0.71953,4.1118 a 3.779528,3.779528 0 0 0 -0.0358,0.017 l 2e-5,0.1384 a 3.779528,3.779528 0 0 0 -1.79737,1.8469 l -1.13171,1.1317 v 45.9805 l 0.99074,0.9908 a 3.779528,3.779528 0 0 0 1.93835,2.2075 l -5.9e-4,10.0305 4.22231,4.2224 h 112.12225 l 4.2223,-4.2223 3e-4,-9.6526 h 25.4401 a 3.779528,3.779528 0 0 0 3.7795,-3.7795 v -45.3544 a 3.779528,3.779528 0 0 0 -3.7795,-3.7795 h -0.7615 a 5.669291,5.669291 0 0 1 -5.6693,-5.6481 l -0.2587,-69.2234 a 3.779528,3.779528 0 0 0 -3.7829,-3.7654 l -25.4558,0.023 a 3.779528,3.779528 0 0 0 -2.7569,1.1977 l -1.2995,1.3893 a 3.779528,3.779528 0 0 1 -3.562,1.1116 6.851031,6.851031 0 0 0 -1.4534,-0.1559 h -45.35433 a 6.851031,6.851031 0 0 0 -1.4534,0.1559 3.779528,3.779528 0 0 1 -3.56201,-1.1116 l -1.29955,-1.3893 a 3.779528,3.779528 0 0 0 -2.75684,-1.1977 l -25.45585,-0.023 a 3.779528,3.779528 0 0 0 -3.78287,3.7654 l -0.24884,66.576 a 3.779528,3.779528 0 0 0 0.05,0.6271 z"
         inkscape:connector-curvature="0" />
      <path
         id="path3186"
         style="fill:none;stroke:#000000"
         d="m 368.45669,1397.1969 a 3.779528,3.779528 0 0 1 -3.77953,3.7795 h -45.35433 a 3.779528,3.779528 0 0 1 -3.77952,-3.7795 v -45.3544 a 3.779528,3.779528 0 0 1 3.77952,-3.7795 h 45.35433 a 3.779528,3.779528 0 0 1 3.77953,3.7795 z"
         inkscape:connector-curvature="0" />
      <path
         id="path3188"
         style="fill:none;stroke:#000000"
         d="m 607.32284,1400.9764 a 3.779528,3.779528 0 0 1 -3.77953,-3.7795 v -45.3544 a 3.779528,3.779528 0 0 1 3.77953,-3.7795 h 45.35432 a 3.779528,3.779528 0 0 1 3.77953,3.7795 v 45.3544 a 3.779528,3.779528 0 0 1 -3.77953,3.7795 z"
         inkscape:connector-curvature="0" />
      <path
         id="path3190"
         style="fill:none;stroke:#000000"
         d="m 548.45669,1325.1969 a 3.779528,3.779528 0 0 1 -3.77953,3.7795 h -45.35433 a 3.779528,3.779528 0 0 1 -3.77952,-3.7795 v -45.3544 a 3.779528,3.779528 0 0 1 3.77952,-3.7795 h 45.35433 a 3.779528,3.779528 0 0 1 3.77953,3.7795 z"
         inkscape:connector-curvature="0" />
      <path
         id="path3192"
         style="fill:none;stroke:#000000"
         d="m 283.32283,1328.9764 a 3.779528,3.779528 0 0 1 -3.77952,-3.7795 v -45.3544 a 3.779528,3.779528 0 0 1 3.77952,-3.7795 h 45.35433 a 3.779528,3.779528 0 0 1 3.77953,3.7795 v 45.3544 a 3.779528,3.779528 0 0 1 -3.77953,3.7795 z"
         inkscape:connector-curvature="0" />
      <path
         id="path3194"
         style="fill:none;stroke:#000000"
         d="m 733.32284,1184.9764 a 3.779528,3.779528 0 0 1 -3.77953,-3.7795 v -45.3544 a 3.779528,3.779528 0 0 1 3.77953,-3.7795 h 45.35432 a 3.779528,3.779528 0 0 1 3.77953,3.7795 v 45.3544 a 3.779528,3.779528 0 0 1 -3.77953,3.7795 z"
         inkscape:connector-curvature="0" />
      <path
         id="path3196"
         style="fill:none;stroke:#000000"
         d="m 260.45669,1325.1969 a 3.779528,3.779528 0 0 1 -3.77953,3.7795 h -45.35433 a 3.779528,3.779528 0 0 1 -3.77952,-3.7795 v -45.3544 a 3.779528,3.779528 0 0 1 3.77952,-3.7795 h 45.35433 a 3.779528,3.779528 0 0 1 3.77953,3.7795 z"
         inkscape:connector-curvature="0" />
      <path
         id="path3198"
         style="fill:none;stroke:#000000"
         d="m 62.456693,1181.1969 a 3.779528,3.779528 0 0 1 -3.779528,3.7795 h -45.35433 a 3.779528,3.779528 0 0 1 -3.779528,-3.7795 v -45.3544 a 3.779528,3.779528 0 0 1 3.779528,-3.7795 h 45.35433 a 3.779528,3.779528 0 0 1 3.779528,3.7795 z"
         inkscape:connector-curvature="0" />
      <path
         id="path3200"
         style="fill:none;stroke:#000000"
         d="m 476.45669,1325.1969 a 3.779528,3.779528 0 0 1 -3.77953,3.7795 h -45.35433 a 3.779528,3.779528 0 0 1 -3.77952,-3.7795 v -45.3544 a 3.779528,3.779528 0 0 1 3.77952,-3.7795 h 45.35433 a 3.779528,3.779528 0 0 1 3.77953,3.7795 z"
         inkscape:connector-curvature="0" />
      <path
         id="path3202"
         style="fill:none;stroke:#000000"
         d="m 962.45669,1253.1969 a 3.779528,3.779528 0 0 1 -3.77953,3.7795 h -45.35432 a 3.779528,3.779528 0 0 1 -3.77953,-3.7795 v -45.3544 a 3.779528,3.779528 0 0 1 3.77953,-3.7795 h 45.35432 a 3.779528,3.779528 0 0 1 3.77953,3.7795 z"
         inkscape:connector-curvature="0" />
      <path
         id="path3204"
         style="fill:none;stroke:#000000"
         d="m 1304.4567,1253.1969 a 3.779528,3.779528 0 0 1 -3.7795,3.7795 h -45.3544 a 3.779528,3.779528 0 0 1 -3.7795,-3.7795 v -45.3544 a 3.779528,3.779528 0 0 1 3.7795,-3.7795 h 45.3544 a 3.779528,3.779528 0 0 1 3.7795,3.7795 z"
         inkscape:connector-curvature="0" />
      <path
         id="path3206"
         style="fill:none;stroke:#000000"
         d="m 1111.3228,1256.9764 a 3.779528,3.779528 0 0 1 -3.7795,-3.7795 v -45.3544 a 3.779528,3.779528 0 0 1 3.7795,-3.7795 h 45.3544 a 3.779528,3.779528 0 0 1 3.7795,3.7795 v 45.3544 a 3.779528,3.779528 0 0 1 -3.7795,3.7795 z"
         inkscape:connector-curvature="0" />
      <path
         id="path3208"
         style="fill:none;stroke:#000000"
         d="m 958.67716,1420.063 a 3.779528,3.779528 0 0 1 0.0928,0 h 8.90649 a 3.779528,3.779528 0 0 1 3.77953,3.7796 v 45.3543 a 3.779528,3.779528 0 0 1 -3.77953,3.7795 h -45.35433 a 3.779528,3.779528 0 0 1 -0.0928,0 h -8.90649 a 3.779528,3.779528 0 0 1 -3.77953,-3.7795 v -45.3544 a 3.779528,3.779528 0 0 1 3.77953,-3.7795 z"
         inkscape:connector-curvature="0" />
      <path
         id="path3210"
         style="fill:none;stroke:#000000"
         d="m 18.542565,1423.8437 a 3.779528,3.779528 0 0 1 3.779528,-3.7796 h 8.907976 a 3.779528,3.779528 0 0 1 0.09277,0 h 45.35433 a 3.779528,3.779528 0 0 1 3.779528,3.7795 v 45.3544 a 3.779528,3.779528 0 0 1 -3.779528,3.7795 h -8.907976 a 3.779528,3.779528 0 0 1 -0.09277,0 h -45.35433 a 3.779528,3.779528 0 0 1 -3.779528,-3.7795 z"
         inkscape:connector-curvature="0" />
      <path
         id="path3212"
         style="fill:none;stroke:#000000"
         d="m 1160.4567,1181.1969 a 3.779528,3.779528 0 0 1 -3.7795,3.7795 h -45.3544 a 3.779528,3.779528 0 0 1 -3.7795,-3.7795 v -45.3544 a 3.779528,3.779528 0 0 1 3.7795,-3.7795 h 45.3544 a 3.779528,3.779528 0 0 1 3.7795,3.7795 z"
         inkscape:connector-curvature="0" />
      <path
         id="path3214"
         style="fill:none;stroke:#000000"
         d="m 170.45669,1253.1969 a 3.779528,3.779528 0 0 1 -3.77953,3.7795 h -45.35433 a 3.779528,3.779528 0 0 1 -3.77952,-3.7795 v -45.3544 a 3.779528,3.779528 0 0 1 3.77952,-3.7795 h 45.35433 a 3.779528,3.779528 0 0 1 3.77953,3.7795 z"
         inkscape:connector-curvature="0" />
      <path
         id="path3216"
         style="fill:none;stroke:#000000"
         d="m 134.45669,1181.1969 a 3.779528,3.779528 0 0 1 -3.77953,3.7795 H 85.322835 a 3.779528,3.779528 0 0 1 -3.779528,-3.7795 v -45.3544 a 3.779528,3.779528 0 0 1 3.779528,-3.7795 h 45.354325 a 3.779528,3.779528 0 0 1 3.77953,3.7795 z"
         inkscape:connector-curvature="0" />
      <path
         id="path3218"
         style="fill:none;stroke:#000000"
         d="m 188.45669,1325.1969 a 3.779528,3.779528 0 0 1 -3.77953,3.7795 h -45.35433 a 3.779528,3.779528 0 0 1 -3.77952,-3.7795 v -45.3544 a 3.779528,3.779528 0 0 1 3.77952,-3.7795 h 45.35433 a 3.779528,3.779528 0 0 1 3.77953,3.7795 z"
         inkscape:connector-curvature="0" />
      <path
         id="path3220"
         style="fill:none;stroke:#000000"
         d="m 859.32284,1328.9764 a 3.779528,3.779528 0 0 1 -3.77953,-3.7795 v -45.3544 a 3.779528,3.779528 0 0 1 3.77953,-3.7795 h 45.35432 a 3.779528,3.779528 0 0 1 3.77953,3.7795 v 45.3544 a 3.779528,3.779528 0 0 1 -3.77953,3.7795 z"
         inkscape:connector-curvature="0" />
      <path
         id="path3222"
         style="fill:none;stroke:#000000"
         d="m 440.45669,1397.1969 a 3.779528,3.779528 0 0 1 -3.77953,3.7795 h -45.35433 a 3.779528,3.779528 0 0 1 -3.77952,-3.7795 v -45.3544 a 3.779528,3.779528 0 0 1 3.77952,-3.7795 h 45.35433 a 3.779528,3.779528 0 0 1 3.77953,3.7795 z"
         inkscape:connector-curvature="0" />
      <path
         id="path3224"
         style="fill:none;stroke:#000000"
         d="m 566.45669,1181.1969 a 3.779528,3.779528 0 0 1 -3.77953,3.7795 h -45.35432 a 3.779528,3.779528 0 0 1 -3.77953,-3.7795 v -45.3544 a 3.779528,3.779528 0 0 1 3.77953,-3.7795 h 45.35432 a 3.779528,3.779528 0 0 1 3.77953,3.7795 z"
         inkscape:connector-curvature="0" />
      <path
         id="path3226"
         style="fill:none;stroke:#000000"
         d="m 836.45669,1325.1969 a 3.779528,3.779528 0 0 1 -3.77953,3.7795 h -45.35432 a 3.779528,3.779528 0 0 1 -3.77953,-3.7795 v -45.3544 a 3.779528,3.779528 0 0 1 3.77953,-3.7795 h 45.35432 a 3.779528,3.779528 0 0 1 3.77953,3.7795 z"
         inkscape:connector-curvature="0" />
      <path
         id="path3228"
         style="fill:none;stroke:#000000"
         d="m 872.45669,1397.1969 a 3.779528,3.779528 0 0 1 -3.77953,3.7795 h -45.35432 a 3.779528,3.779528 0 0 1 -3.77953,-3.7795 v -45.3544 a 3.779528,3.779528 0 0 1 3.77953,-3.7795 h 45.35432 a 3.779528,3.779528 0 0 1 3.77953,3.7795 z"
         inkscape:connector-curvature="0" />
      <path
         id="path3230"
         style="fill:none;stroke:#000000"
         d="m 296.45669,1397.1969 a 3.779528,3.779528 0 0 1 -3.77953,3.7795 h -45.35433 a 3.779528,3.779528 0 0 1 -3.77952,-3.7795 v -45.3544 a 3.779528,3.779528 0 0 1 3.77952,-3.7795 h 45.35433 a 3.779528,3.779528 0 0 1 3.77953,3.7795 z"
         inkscape:connector-curvature="0" />
      <path
         id="path3232"
         style="fill:none;stroke:#000000"
         d="m 530.45669,1253.1969 a 3.779528,3.779528 0 0 1 -3.77953,3.7795 h -45.35433 a 3.779528,3.779528 0 0 1 -3.77952,-3.7795 v -45.3544 a 3.779528,3.779528 0 0 1 3.77952,-3.7795 h 45.35433 a 3.779528,3.779528 0 0 1 3.77953,3.7795 z"
         inkscape:connector-curvature="0" />
      <path
         id="path3234"
         style="fill:none;stroke:#000000"
         d="m 764.45669,1325.1969 a 3.779528,3.779528 0 0 1 -3.77953,3.7795 h -45.35432 a 3.779528,3.779528 0 0 1 -3.77953,-3.7795 v -45.3544 a 3.779528,3.779528 0 0 1 3.77953,-3.7795 h 45.35432 a 3.779528,3.779528 0 0 1 3.77953,3.7795 z"
         inkscape:connector-curvature="0" />
      <path
         id="path3236"
         style="fill:none;stroke:#000000"
         d="m 620.45669,1325.1969 a 3.779528,3.779528 0 0 1 -3.77953,3.7795 h -45.35432 a 3.779528,3.779528 0 0 1 -3.77953,-3.7795 v -45.3544 a 3.779528,3.779528 0 0 1 3.77953,-3.7795 h 45.35432 a 3.779528,3.779528 0 0 1 3.77953,3.7795 z"
         inkscape:connector-curvature="0" />
      <path
         id="path3238"
         style="fill:none;stroke:#000000"
         d="m 710.45669,1181.1969 a 3.779528,3.779528 0 0 1 -3.77953,3.7795 h -45.35432 a 3.779528,3.779528 0 0 1 -3.77953,-3.7795 v -45.3544 a 3.779528,3.779528 0 0 1 3.77953,-3.7795 h 45.35432 a 3.779528,3.779528 0 0 1 3.77953,3.7795 z"
         inkscape:connector-curvature="0" />
      <path
         id="path3240"
         style="fill:none;stroke:#000000"
         d="m 1232.4567,1469.1969 a 3.779528,3.779528 0 0 1 -3.7795,3.7795 h -45.3544 a 3.779528,3.779528 0 0 1 -3.7795,-3.7795 v -45.3544 a 3.779528,3.779528 0 0 1 3.7795,-3.7795 h 45.3544 a 3.779528,3.779528 0 0 1 3.7795,3.7795 z"
         inkscape:connector-curvature="0" />
      <path
         id="path3242"
         style="fill:none;stroke:#000000"
         d="m 1304.4567,1469.1969 a 3.779528,3.779528 0 0 1 -3.7795,3.7795 h -45.3544 a 3.779528,3.779528 0 0 1 -3.7795,-3.7795 v -45.3544 a 3.779528,3.779528 0 0 1 3.7795,-3.7795 h 45.3544 a 3.779528,3.779528 0 0 1 3.7795,3.7795 z"
         inkscape:connector-curvature="0" />
      <path
         id="path3244"
         style="fill:none;stroke:#000000"
         d="m 1160.4567,1469.1969 a 3.779528,3.779528 0 0 1 -3.7795,3.7795 h -45.3544 a 3.779528,3.779528 0 0 1 -3.7795,-3.7795 v -45.3544 a 3.779528,3.779528 0 0 1 3.7795,-3.7795 h 45.3544 a 3.779528,3.779528 0 0 1 3.7795,3.7795 z"
         inkscape:connector-curvature="0" />
      <path
         id="path3246"
         style="fill:none;stroke:#000000"
         d="m 409.32283,1256.9764 a 3.779528,3.779528 0 0 1 -3.77952,-3.7795 v -45.3544 a 3.779528,3.779528 0 0 1 3.77952,-3.7795 h 45.35433 a 3.779528,3.779528 0 0 1 3.77953,3.7795 v 45.3544 a 3.779528,3.779528 0 0 1 -3.77953,3.7795 z"
         inkscape:connector-curvature="0" />
      <path
         id="path3248"
         style="fill:none;stroke:#000000"
         d="m 692.45669,1325.1969 a 3.779528,3.779528 0 0 1 -3.77953,3.7795 h -45.35432 a 3.779528,3.779528 0 0 1 -3.77953,-3.7795 v -45.3544 a 3.779528,3.779528 0 0 1 3.77953,-3.7795 h 45.35432 a 3.779528,3.779528 0 0 1 3.77953,3.7795 z"
         inkscape:connector-curvature="0" />
      <path
         id="path3250"
         style="fill:none;stroke:#000000"
         d="m 89.456693,1325.1969 a 3.779528,3.779528 0 0 1 -3.779528,3.7795 h -45.35433 a 3.779528,3.779528 0 0 1 -3.779528,-3.7795 v -45.3544 a 3.779528,3.779528 0 0 1 3.779528,-3.7795 h 45.35433 a 3.779528,3.779528 0 0 1 3.779528,3.7795 z"
         inkscape:connector-curvature="0" />
      <path
         id="path3252"
         style="fill:none;stroke:#000000"
         d="m 553.32284,1256.9764 a 3.779528,3.779528 0 0 1 -3.77953,-3.7795 v -45.3544 a 3.779528,3.779528 0 0 1 3.77953,-3.7795 h 45.35432 a 3.779528,3.779528 0 0 1 3.77953,3.7795 v 45.3544 a 3.779528,3.779528 0 0 1 -3.77953,3.7795 z"
         inkscape:connector-curvature="0" />
      <path
         id="path3254"
         style="fill:none;stroke:#000000"
         d="m 314.45669,1253.1969 a 3.779528,3.779528 0 0 1 -3.77953,3.7795 h -45.35433 a 3.779528,3.779528 0 0 1 -3.77952,-3.7795 v -45.3544 a 3.779528,3.779528 0 0 1 3.77952,-3.7795 h 45.35433 a 3.779528,3.779528 0 0 1 3.77953,3.7795 z"
         inkscape:connector-curvature="0" />
      <path
         id="path3256"
         style="fill:none;stroke:#000000"
         d="m 278.45669,1181.1969 a 3.779528,3.779528 0 0 1 -3.77953,3.7795 h -45.35433 a 3.779528,3.779528 0 0 1 -3.77952,-3.7795 v -45.3544 a 3.779528,3.779528 0 0 1 3.77952,-3.7795 h 45.35433 a 3.779528,3.779528 0 0 1 3.77953,3.7795 z"
         inkscape:connector-curvature="0" />
      <path
         id="path3258"
         style="fill:none;stroke:#000000"
         d="m 854.45669,1181.1969 a 3.779528,3.779528 0 0 1 -3.77953,3.7795 h -45.35432 a 3.779528,3.779528 0 0 1 -3.77953,-3.7795 v -45.3544 a 3.779528,3.779528 0 0 1 3.77953,-3.7795 h 45.35432 a 3.779528,3.779528 0 0 1 3.77953,3.7795 z"
         inkscape:connector-curvature="0" />
      <path
         id="path3260"
         style="fill:none;stroke:#000000"
         d="m 463.32283,1400.9764 a 3.779528,3.779528 0 0 1 -3.77952,-3.7795 v -45.3544 a 3.779528,3.779528 0 0 1 3.77952,-3.7795 h 45.35433 a 3.779528,3.779528 0 0 1 3.77953,3.7795 v 45.3544 a 3.779528,3.779528 0 0 1 -3.77953,3.7795 z"
         inkscape:connector-curvature="0" />
      <path
         id="path3262"
         style="fill:none;stroke:#000000"
         d="m 832.32209,1472.9775 a 3.779528,3.779528 0 0 1 -0.0928,0 h -8.90649 a 3.779528,3.779528 0 0 1 -3.77953,-3.7795 v -45.3544 a 3.779528,3.779528 0 0 1 3.77953,-3.7795 h 45.35432 a 3.779528,3.779528 0 0 1 0.0928,0 h 8.90649 a 3.779528,3.779528 0 0 1 3.77953,3.7796 v 45.3543 a 3.779528,3.779528 0 0 1 -3.77953,3.7795 z"
         inkscape:connector-curvature="0" />
      <path
         id="path3264"
         style="fill:none;stroke:#000000"
         d="m 386.45669,1253.1969 a 3.779528,3.779528 0 0 1 -3.77953,3.7795 h -45.35433 a 3.779528,3.779528 0 0 1 -3.77952,-3.7795 v -45.3544 a 3.779528,3.779528 0 0 1 3.77952,-3.7795 h 45.35433 a 3.779528,3.779528 0 0 1 3.77953,3.7795 z"
         inkscape:connector-curvature="0" />
      <path
         id="path3266"
         style="fill:none;stroke:#000000"
         d="m 625.32284,1256.9764 a 3.779528,3.779528 0 0 1 -3.77953,-3.7795 v -45.3544 a 3.779528,3.779528 0 0 1 3.77953,-3.7795 h 45.35432 a 3.779528,3.779528 0 0 1 3.77953,3.7795 v 45.3544 a 3.779528,3.779528 0 0 1 -3.77953,3.7795 z"
         inkscape:connector-curvature="0" />
      <path
         id="path3268"
         style="fill:none;stroke:#000000"
         d="m 770.17323,1420.0641 v -12.2846 A 3.779528,3.779528 0 0 0 766.3937,1404 h -20.7874 a 3.779528,3.779528 0 0 0 -3.52443,2.4145 H 698.10711 A 3.779528,3.779528 0 0 0 694.58268,1404 h -20.7874 a 3.779528,3.779528 0 0 0 -3.52444,2.4145 H 337.91813 A 3.779528,3.779528 0 0 0 334.3937,1404 h -39.68504 a 3.779528,3.779528 0 0 0 -3.77953,3.7795 v 77.1175 H 28.837795 a 28.8,28.8 0 0 1 -28.8,-28.8 v -304.32 a 28.8,28.8 0 0 1 28.8,-28.8 H 1286.4378 a 28.8,28.8 0 0 1 28.8,28.8 v 304.32 a 28.8,28.8 0 0 1 -28.8,28.8 H 770.17323 v -11.9195 h 17.50319 a 3.779528,3.779528 0 0 0 3.77953,-3.7795 v -45.3543 a 3.779528,3.779528 0 0 0 -3.77953,-3.7796 z"
         inkscape:connector-curvature="0" />
    </g>
  </g>
</svg>
