0
SECTION
2
HEADER
9
$INSUNITS
70
4
9
$ACADVER
1
AC1014
9
$HANDSEED
5
FFFF
0
ENDSEC
0
SECTION
2
TABLES
0
TABLE
2
VPORT
5
8
100
AcDbSymbolTable
0
ENDTAB
0
TABLE
2
LTYPE
5
5
100
AcDbSymbolTable
0
LTYPE
5
14
100
AcDbSymbolTableRecord
100
AcDbLinetypeTableRecord
2
BYBLOCK
70
0
0
LTYPE
5
15
100
AcDbSymbolTableRecord
100
AcDbLinetypeTableRecord
2
BYLAYER
70
0
0
ENDTAB
0
TABLE
2
LAYER
5
2
100
AcDbSymbolTable
70
2
0
LAYER
5
50
100
AcDbSymbolTableRecord
100
AcDbLayerTableRecord
2
0
70
0
6
CONTINUOUS
0
ENDTAB
0
TABLE
2
STYLE
5
3
100
AcDbSymbolTable
70
1
0
STYLE
5
11
100
AcDbSymbolTableRecord
100
AcDbTextStyleTableRecord
2
STANDARD
70
0
0
ENDTAB
0
TABLE
2
VIEW
5
6
100
AcDbSymbolTable
70
0
0
ENDTAB
0
TABLE
2
UCS
5
7
100
AcDbSymbolTable
70
0
0
ENDTAB
0
TABLE
2
APPID
5
9
100
AcDbSymbolTable
70
2
0
APPID
5
12
100
AcDbSymbolTableRecord
100
AcDbRegAppTableRecord
2
ACAD
70
0
0
ENDTAB
0
TABLE
2
DIMSTYLE
5
A
100
AcDbSymbolTable
70
1
0
ENDTAB
0
TABLE
2
BLOCK_RECORD
5
1
100
AcDbSymbolTable
70
1
0
BLOCK_RECORD
5
1F
100
AcDbSymbolTableRecord
100
AcDbBlockTableRecord
2
*MODEL_SPACE
0
BLOCK_RECORD
5
1B
100
AcDbSymbolTableRecord
100
AcDbBlockTableRecord
2
*PAPER_SPACE
0
ENDTAB
0
ENDSEC
0
SECTION
2
BLOCKS
0
BLOCK
5
20
100
AcDbEntity
100
AcDbBlockBegin
2
*MODEL_SPACE
0
ENDBLK
5
21
100
AcDbEntity
100
AcDbBlockEnd
0
BLOCK
5
1C
100
AcDbEntity
100
AcDbBlockBegin
2
*PAPER_SPACE
0
ENDBLK
5
1D
100
AcDbEntity
100
AcDbBlockEnd
0
ENDSEC
0
SECTION
2
ENTITIES
0
LWPOLYLINE
5
100
100
AcDbEntity
8
0
100
AcDbPolyline
90
8
70
1
43
0.0
10
197.50000000000003
20
-34.575000000000003
42
-0.41421356237309503
10
196.50000000000003
20
-35.575000000000017
10
184.5
20
-35.575000000000017
42
-0.41421356237309503
10
183.49999999999997
20
-34.575000000000003
10
183.49999999999997
20
-22.574999999999999
42
-0.41421356237309503
10
184.5
20
-21.574999999999985
10
196.50000000000003
20
-21.574999999999985
42
-0.41421356237309503
10
197.50000000000003
20
-22.574999999999999
0
LWPOLYLINE
5
101
100
AcDbEntity
8
0
100
AcDbPolyline
90
8
70
1
43
0.0
10
59.387500000000003
20
-72.674999999999997
42
-0.41421356237309503
10
58.38750000000001
20
-73.674999999999997
10
46.38750000000001
20
-73.674999999999997
42
-0.41421356237309503
10
45.38750000000001
20
-72.674999999999997
10
45.38750000000001
20
-60.674999999999997
42
-0.41421356237309503
10
46.38750000000001
20
-59.675000000000004
10
58.38750000000001
20
-59.675000000000004
42
-0.41421356237309503
10
59.387500000000003
20
-60.674999999999997
0
LWPOLYLINE
5
102
100
AcDbEntity
8
0
100
AcDbPolyline
90
8
70
1
43
0.0
10
192.73750000000001
20
-72.674999999999997
42
-0.41421356237309503
10
191.73750000000001
20
-73.674999999999983
10
179.73750000000001
20
-73.675000000000011
42
-0.41421356237309503
10
178.73750000000001
20
-72.674999999999997
10
178.73750000000001
20
-60.674999999999997
42
-0.41421356237309503
10
179.73750000000001
20
-59.674999999999983
10
191.73750000000001
20
-59.674999999999983
42
-0.41421356237309503
10
192.73750000000004
20
-60.674999999999997
0
LWPOLYLINE
5
103
100
AcDbEntity
8
0
100
AcDbPolyline
90
8
70
1
43
0.0
10
211.78750000000002
20
-72.674999999999997
42
-0.41421356237309503
10
210.78749999999999
20
-73.675000000000011
10
198.78749999999999
20
-73.675000000000011
42
-0.41421356237309503
10
197.78749999999999
20
-72.674999999999997
10
197.78750000000002
20
-60.674999999999997
42
-0.41421356237309503
10
198.78749999999999
20
-59.675000000000018
10
210.78749999999999
20
-59.674999999999983
42
-0.41421356237309503
10
211.78750000000002
20
-60.674999999999997
0
LWPOLYLINE
5
104
100
AcDbEntity
8
0
100
AcDbPolyline
90
21
70
1
43
0.0
10
6.889566677714388
20
-77.544576637942569
42
-0.035099298395248481
10
6.7496873120395193
20
-77.534745190795263
10
6.2274615576892689
20
-77.533900270515034
42
-0.41483458089568509
10
5.2290864624383238
20
-76.530163843725489
10
5.2949267877471282
20
-58.915256838761493
42
-0.41338020564622407
10
6.2958114506743357
20
-57.918994971901903
10
13.031004382227618
20
-57.925000397518438
42
-0.20736777219121108
10
13.760419498292
20
-58.24188066200341
10
14.104257920316405
20
-58.609470205265666
42
0.26402482355646878
10
15.046706735958672
20
-58.903589707099648
42
-0.053492530337879859
10
15.431250000000002
20
-58.862331263657673
10
27.431249999999991
20
-58.862331263657673
42
-0.053492530337884314
10
27.815793264041325
20
-58.903589707099641
42
0.26402482355645512
10
28.758242079683587
20
-58.609470205265659
10
29.102080501707981
20
-58.24188066200341
42
-0.20736777219119801
10
29.831495617772369
20
-57.925000397518446
10
36.566688549325654
20
-57.918994971901903
42
-0.4133802056462319
10
37.567573212252874
20
-58.915256838761493
10
37.633413537561665
20
-76.530163843725489
42
-0.41483458089569619
10
36.635038442310723
20
-77.533900270515034
10
30.036221768080882
20
-77.544576637942569
0
LWPOLYLINE
5
105
100
AcDbEntity
8
0
100
AcDbPolyline
90
8
70
1
43
0.0
10
278.46250000000003
20
-34.575000000000003
42
-0.41421356237309503
10
277.46249999999998
20
-35.575000000000017
10
265.46249999999998
20
-35.575000000000017
42
-0.41421356237309503
10
264.46249999999998
20
-34.575000000000003
10
264.46249999999998
20
-22.574999999999999
42
-0.41421356237309503
10
265.46249999999998
20
-21.574999999999985
10
277.46249999999998
20
-21.574999999999985
42
-0.41421356237309503
10
278.46250000000003
20
-22.574999999999999
0
LWPOLYLINE
5
106
100
AcDbEntity
8
0
100
AcDbPolyline
90
8
70
1
43
0.0
10
92.724999999999994
20
-15.525000000000002
42
-0.41421356237309503
10
91.724999999999994
20
-16.524999999999999
10
79.724999999999994
20
-16.524999999999999
42
-0.41421356237309503
10
78.725000000000009
20
-15.525000000000002
10
78.725000000000009
20
-3.5250000000000004
42
-0.41421356237309503
10
79.724999999999994
20
-2.5250000000000039
10
91.724999999999994
20
-2.5250000000000039
42
-0.41421356237309503
10
92.724999999999994
20
-3.5250000000000004
0
LWPOLYLINE
5
107
100
AcDbEntity
8
0
100
AcDbPolyline
90
8
70
1
43
0.0
10
216.55000000000004
20
-34.575000000000003
42
-0.41421356237309503
10
215.55000000000004
20
-35.575000000000017
10
203.55000000000004
20
-35.575000000000017
42
-0.41421356237309503
10
202.55000000000001
20
-34.575000000000003
10
202.55000000000001
20
-22.574999999999999
42
-0.41421356237309503
10
203.55000000000004
20
-21.574999999999985
10
215.55000000000004
20
-21.574999999999985
42
-0.41421356237309503
10
216.55000000000004
20
-22.574999999999999
0
LWPOLYLINE
5
108
100
AcDbEntity
8
0
100
AcDbPolyline
90
34
70
1
43
0.0
10
250.2635122894705
20
-3.1136726929152401
42
-0.17572894172656439
10
250.73906664359657
20
-2.6250210509268603
10
250.7390618058688
20
-2.5883909694217961
42
-0.0026140985346599296
10
250.74854156633478
20
-2.5839786201948671
10
250.93891754541161
20
-1.4960731690089784
10
251.93891054541155
20
-0.49607216900895756
10
257.43890954541149
20
-0.49607216900897533
10
258.43890254541157
20
-1.4960731690089248
10
258.43890254541157
20
-1.9960721690089178
10
258.58535254541164
20
-2.349628169008942
10
258.93891254541148
20
-2.4960721690089223
10
274.43891854541147
20
-2.4960721690089041
10
274.9389015454114
20
-1.9960721690088998
10
274.93890154541134
20
-1.4960721690088952
10
275.23180154541143
20
-0.78895816900893001
10
275.93892054541141
20
-0.49607216900895701
10
281.43891954541141
20
-0.49607216900895673
10
282.43891254541131
20
-1.4960721690088594
10
282.62920424871049
20
-2.5822417440239134
42
-0.0026924364288792332
10
282.6389863032453
20
-2.586746979904567
10
282.63898819478123
20
-2.6147177500457386
42
-0.19273993606214593
10
283.15279227363601
20
-3.1519028317162681
10
283.41399237796549
20
-3.4131047644592494
10
283.41399237796543
20
-15.57878948646232
10
283.18384164359878
20
-15.808941371590679
42
-0.21734365946208306
10
282.63899038300184
20
-16.435281254767997
10
282.63891002736227
20
-19.078916989498428
10
281.52176266793833
20
-20.196072169008794
10
251.85606742288471
20
-20.196072169008794
10
250.73891262767512
20
-19.078909553660882
10
250.73907016992476
20
-16.424980657153569
42
-0.20226625478219865
10
250.22621549256755
20
-15.840923975753862
10
249.96408231395117
20
-15.578789486462355
10
249.96408231395105
20
-3.4131047644592161
0
LWPOLYLINE
5
109
100
AcDbEntity
8
0
100
AcDbPolyline
90
8
70
1
43
0.0
10
245.12500000000003
20
-15.525000000000002
42
-0.41421356237309503
10
244.125
20
-16.525000000000016
10
232.12500000000003
20
-16.525000000000016
42
-0.41421356237309503
10
231.125
20
-15.525000000000002
10
231.125
20
-3.5250000000000004
42
-0.41421356237309503
10
232.12500000000003
20
-2.5249999999999861
10
244.125
20
-2.5249999999999861
42
-0.41421356237309503
10
245.12500000000003
20
-3.5250000000000004
0
LWPOLYLINE
5
110
100
AcDbEntity
8
0
100
AcDbPolyline
90
8
70
1
43
0.0
10
235.60000000000002
20
-34.575000000000003
42
-0.41421356237309503
10
234.60000000000002
20
-35.575000000000017
10
222.60000000000002
20
-35.575000000000017
42
-0.41421356237309503
10
221.59999999999999
20
-34.575000000000003
10
221.59999999999999
20
-22.574999999999999
42
-0.41421356237309503
10
222.60000000000002
20
-21.574999999999985
10
234.60000000000002
20
-21.574999999999985
42
-0.41421356237309503
10
235.60000000000002
20
-22.574999999999999
0
LWPOLYLINE
5
111
100
AcDbEntity
8
0
100
AcDbPolyline
90
12
70
1
43
0.0
10
52.531053714758656
20
-79.725301254641636
42
-0.41421356237309503
10
53.531053714758656
20
-78.72530125464165
10
55.887955784206383
20
-78.72530125464165
42
-0.0061367472284528136
10
55.912500000000009
20
-78.725000000000009
10
67.912499999999994
20
-78.725000000000009
42
-0.41421356237309503
10
68.912499999999994
20
-79.724999999999994
10
68.912499999999994
20
-91.724999999999994
42
-0.41421356237309503
10
67.912499999999994
20
-92.724999999999994
10
65.555597930551542
20
-92.724999999999994
42
-0.0061367472275944673
10
65.531053714758642
20
-92.725301254641607
10
53.531053714758663
20
-92.725301254641607
42
-0.41421356237307944
10
52.53105371475867
20
-91.725301254641636
0
LWPOLYLINE
5
112
100
AcDbEntity
8
0
100
AcDbPolyline
90
8
70
1
43
0.0
10
51.150000000000006
20
-35.575000000000003
42
-0.41421356237309503
10
50.150000000000006
20
-34.575000000000003
10
50.150000000000006
20
-22.574999999999999
42
-0.41421356237309503
10
51.150000000000006
20
-21.575000000000003
10
63.150000000000006
20
-21.575000000000003
42
-0.41421356237309503
10
64.150000000000006
20
-22.574999999999999
10
64.150000000000006
20
-34.575000000000003
42
-0.41421356237309503
10
63.150000000000006
20
-35.57500000000001
0
LWPOLYLINE
5
113
100
AcDbEntity
8
0
100
AcDbPolyline
90
12
70
1
43
0.0
10
277.46249999999998
20
-78.724999999999994
42
-0.0061367472284539239
10
277.48704421579362
20
-78.725301254641636
10
279.84355371475834
20
-78.725301254641636
42
-0.41421356237309764
10
280.84355371475829
20
-79.725301254641622
10
280.84355371475829
20
-91.725301254641607
42
-0.41421356237310542
10
279.84355371475834
20
-92.725301254641607
10
267.84355371475829
20
-92.72530125464155
42
-0.0061367472268843426
10
267.81900949896828
20
-92.724999999999994
10
265.46249999999998
20
-92.725000000000009
42
-0.41421356237309503
10
264.46249999999998
20
-91.724999999999994
10
264.46249999999998
20
-79.724999999999994
42
-0.41421356237309503
10
265.46249999999998
20
-78.724999999999994
0
LWPOLYLINE
5
114
100
AcDbEntity
8
0
100
AcDbPolyline
90
8
70
1
43
0.0
10
168.92500000000001
20
-15.525000000000002
42
-0.41421356237309503
10
167.92500000000001
20
-16.525000000000016
10
155.92500000000001
20
-16.524999999999999
42
-0.41421356237309503
10
154.92500000000001
20
-15.525000000000002
10
154.92500000000001
20
-3.5250000000000004
42
-0.41421356237309503
10
155.92500000000001
20
-2.5250000000000039
10
167.92500000000001
20
-2.5249999999999861
42
-0.41421356237309503
10
168.92500000000001
20
-3.5250000000000004
0
LWPOLYLINE
5
115
100
AcDbEntity
8
0
100
AcDbPolyline
90
8
70
1
43
0.0
10
313.08749999999998
20
-35.575000000000017
42
-0.41421356237309503
10
312.08749999999998
20
-34.575000000000003
10
312.08749999999998
20
-22.574999999999999
42
-0.41421356237309503
10
313.08749999999998
20
-21.574999999999985
10
325.08749999999998
20
-21.574999999999985
42
-0.41421356237309503
10
326.08749999999998
20
-22.574999999999999
10
326.08749999999998
20
-34.575000000000003
42
-0.41421356237309503
10
325.08749999999998
20
-35.575000000000017
0
LWPOLYLINE
5
116
100
AcDbEntity
8
0
100
AcDbPolyline
90
8
70
1
43
0.0
10
117.825
20
-16.524999999999999
42
-0.41421356237309503
10
116.82500000000002
20
-15.525000000000002
10
116.82500000000002
20
-3.5250000000000004
42
-0.41421356237309503
10
117.825
20
-2.5250000000000039
10
129.82499999999999
20
-2.5250000000000039
42
-0.41421356237309503
10
130.82499999999999
20
-3.5250000000000004
10
130.82499999999999
20
-15.525000000000002
42
-0.41421356237309503
10
129.82499999999999
20
-16.524999999999999
0
LWPOLYLINE
5
117
100
AcDbEntity
8
0
100
AcDbPolyline
90
8
70
1
43
0.0
10
21.287500000000001
20
-34.575000000000003
42
-0.41421356237309503
10
20.287500000000001
20
-35.575000000000003
10
8.2874999999999979
20
-35.575000000000003
42
-0.4142135623730947
10
7.2874999999999988
20
-34.575000000000003
10
7.2874999999999988
20
-22.574999999999999
42
-0.4142135623730947
10
8.2874999999999979
20
-21.574999999999996
10
20.287500000000001
20
-21.574999999999996
42
-0.41421356237309503
10
21.287500000000001
20
-22.574999999999999
0
LWPOLYLINE
5
118
100
AcDbEntity
8
0
100
AcDbPolyline
90
8
70
1
43
0.0
10
107.0125
20
-53.625000000000007
42
-0.41421356237309503
10
106.0125
20
-54.625
10
94.012500000000017
20
-54.625
42
-0.41421356237309503
10
93.012500000000017
20
-53.625000000000007
10
93.012500000000017
20
-41.625000000000007
42
-0.41421356237309503
10
94.012500000000017
20
-40.625000000000007
10
106.0125
20
-40.625000000000007
42
-0.41421356237309503
10
107.0125
20
-41.625000000000007
0
LWPOLYLINE
5
119
100
AcDbEntity
8
0
100
AcDbPolyline
90
8
70
1
43
0.0
10
40.625000000000007
20
-3.5250000000000004
42
-0.41421356237309764
10
41.625000000000014
20
-2.5250000000000039
10
53.625000000000007
20
-2.5250000000000039
42
-0.41421356237309503
10
54.625
20
-3.5250000000000004
10
54.625
20
-15.525000000000002
42
-0.41421356237309503
10
53.625000000000007
20
-16.524999999999999
10
41.625000000000007
20
-16.524999999999999
42
-0.41421356237309503
10
40.625000000000007
20
-15.525000000000002
0
LWPOLYLINE
5
120
100
AcDbEntity
8
0
100
AcDbPolyline
90
8
70
1
43
0.0
10
326.08749999999998
20
-72.674999999999997
42
-0.41421356237309503
10
325.08749999999998
20
-73.675000000000011
10
313.08749999999998
20
-73.675000000000011
42
-0.41421356237309503
10
312.08749999999998
20
-72.674999999999997
10
312.08750000000003
20
-60.674999999999997
42
-0.41421356237309503
10
313.08749999999998
20
-59.675000000000018
10
325.08749999999998
20
-59.674999999999983
42
-0.41421356237309503
10
326.08749999999998
20
-60.674999999999997
0
LWPOLYLINE
5
121
100
AcDbEntity
8
0
100
AcDbPolyline
90
8
70
1
43
0.0
10
141.63749999999999
20
-73.674999999999997
42
-0.41421356237309503
10
140.63750000000002
20
-72.674999999999997
10
140.63750000000002
20
-60.674999999999997
42
-0.41421356237309503
10
141.63749999999999
20
-59.675000000000004
10
153.63749999999999
20
-59.675000000000004
42
-0.41421356237309503
10
154.63749999999999
20
-60.674999999999997
10
154.63749999999999
20
-72.674999999999997
42
-0.41421356237309503
10
153.63749999999999
20
-73.674999999999997
0
LWPOLYLINE
5
122
100
AcDbEntity
8
0
100
AcDbPolyline
90
8
70
1
43
0.0
10
345.13750000000005
20
-15.525000000000002
42
-0.41421356237309503
10
344.13749999999999
20
-16.525000000000016
10
332.13749999999999
20
-16.525000000000016
42
-0.41421356237309503
10
331.13749999999993
20
-15.525000000000002
10
331.13749999999993
20
-3.5250000000000004
42
-0.41421356237309503
10
332.13749999999999
20
-2.5249999999999861
10
344.13749999999999
20
-2.5249999999999861
42
-0.41421356237309503
10
345.13750000000005
20
-3.5250000000000004
0
LWPOLYLINE
5
123
100
AcDbEntity
8
0
100
AcDbPolyline
90
8
70
1
43
0.0
10
326.08749999999998
20
-15.525000000000002
42
-0.41421356237309503
10
325.08749999999998
20
-16.525000000000016
10
313.08749999999998
20
-16.525000000000016
42
-0.41421356237309503
10
312.08749999999998
20
-15.525000000000002
10
312.08749999999998
20
-3.5250000000000004
42
-0.41421356237309503
10
313.08749999999998
20
-2.5249999999999861
10
325.08749999999998
20
-2.5249999999999861
42
-0.41421356237309503
10
326.08749999999998
20
-3.5250000000000004
0
LWPOLYLINE
5
124
100
AcDbEntity
8
0
100
AcDbPolyline
90
8
70
1
43
0.0
10
111.77500000000001
20
-15.525000000000002
42
-0.41421356237309503
10
110.77500000000001
20
-16.524999999999999
10
98.775000000000006
20
-16.524999999999999
42
-0.41421356237309503
10
97.77500000000002
20
-15.525000000000002
10
97.77500000000002
20
-3.5250000000000004
42
-0.41421356237309503
10
98.775000000000006
20
-2.5250000000000039
10
110.77500000000001
20
-2.5250000000000039
42
-0.41421356237309503
10
111.77500000000001
20
-3.5250000000000004
0
LWPOLYLINE
5
125
100
AcDbEntity
8
0
100
AcDbPolyline
90
12
70
1
43
0.0
10
28.718553714758698
20
-79.725301254641636
42
-0.41421356237309243
10
29.718553714758713
20
-78.725301254641636
10
32.075455784207108
20
-78.725301254641636
42
-0.0061367472282741718
10
32.100000000000009
20
-78.725000000000009
10
44.100000000000001
20
-78.725000000000009
42
-0.41421356237309503
10
45.099999999999994
20
-79.724999999999994
10
45.099999999999994
20
-91.724999999999994
42
-0.41421356237309503
10
44.100000000000001
20
-92.724999999999994
10
41.743097930552295
20
-92.724999999999994
42
-0.0061367472281384974
10
41.718553714758684
20
-92.725301254641636
10
29.718553714758713
20
-92.725301254641636
42
-0.41421356237309764
10
28.718553714758706
20
-91.725301254641636
0
LWPOLYLINE
5
126
100
AcDbEntity
8
0
100
AcDbPolyline
90
37
70
1
43
0.0
10
248.1298167397168
20
-57.646072169008981
10
244.79391054541153
20
-57.64607216900896
10
243.7939175454116
20
-58.646073169008986
10
243.60354156633474
20
-59.73397862019489
42
0.0026140985337096
10
243.59406180586882
20
-59.7383909694218
10
243.59406664359656
20
-59.775021050926838
42
0.17572894172653461
10
243.11851228947049
20
-60.263672692915264
10
242.81908231395104
20
-60.563104764459226
10
242.81908231395113
20
-72.728789486462361
10
243.08121549256754
20
-72.990923975753873
42
0.20226625478219057
10
243.59407016992475
20
-73.574980657153588
10
243.59391262767508
20
-76.228909553660898
10
244.7110674228847
20
-77.346072169008806
10
274.37676266793829
20
-77.346072169008806
10
275.49391002736223
20
-76.22891698949843
10
275.49398765592144
20
-73.674999999999997
10
282.22500000000002
20
-73.675000000000011
42
0.41421356237309503
10
283.22500000000002
20
-72.674999999999997
10
283.22500000000002
20
-60.674999999999997
42
0.41421356237309503
10
282.22500000000002
20
-59.674999999999983
10
282.02352114766688
20
-59.674999999999947
42
-0.41311922565777492
10
280.52353162570415
20
-58.180606603432992
10
280.4550732122529
20
-39.865256838761482
42
0.41338020564624611
10
279.45418854932569
20
-38.868994971901905
10
272.71899561777241
20
-38.875000397518441
42
0.20736777219121019
10
271.98958050170802
20
-39.191880662003406
10
271.6457420796836
20
-39.559470205265676
42
-0.26402482355645857
10
270.70329326404135
20
-39.85358970709963
42
0.053492530337836679
10
270.31875000000002
20
-39.812331263657661
10
258.31875000000002
20
-39.812331263657669
42
0.053492530337826832
10
257.93420673595875
20
-39.853589707099644
42
-0.2640248235564614
10
256.99175792031645
20
-39.559470205265676
10
256.64791949829208
20
-39.191880662003413
42
0.20736777219121183
10
255.9185043822277
20
-38.875000397518448
10
249.18331145067441
20
-38.868994971901898
42
0.41338020564623967
10
248.18242678774715
20
-39.865256838761482
10
248.11658646243836
20
-57.480163843725485
42
0.041681039824971823
0
LWPOLYLINE
5
127
100
AcDbEntity
8
0
100
AcDbPolyline
90
8
70
1
43
0.0
10
97.487499999999997
20
-72.674999999999997
42
-0.41421356237309503
10
96.487499999999997
20
-73.674999999999997
10
84.487500000000011
20
-73.674999999999997
42
-0.41421356237309503
10
83.487500000000011
20
-72.674999999999997
10
83.487500000000011
20
-60.674999999999997
42
-0.41421356237309503
10
84.487500000000011
20
-59.675000000000004
10
96.487499999999997
20
-59.675000000000004
42
-0.41421356237309503
10
97.487499999999997
20
-60.674999999999997
0
LWPOLYLINE
5
128
100
AcDbEntity
8
0
100
AcDbPolyline
90
8
70
1
43
0.0
10
160.6875
20
-73.674999999999997
42
-0.41421356237309503
10
159.68750000000003
20
-72.674999999999997
10
159.68750000000003
20
-60.674999999999997
42
-0.41421356237309503
10
160.6875
20
-59.675000000000004
10
172.6875
20
-59.674999999999983
42
-0.41421356237309503
10
173.68750000000003
20
-60.674999999999997
10
173.6875
20
-72.674999999999997
42
-0.41421356237309503
10
172.6875
20
-73.674999999999983
0
LWPOLYLINE
5
129
100
AcDbEntity
8
0
100
AcDbPolyline
90
8
70
1
43
0.0
10
145.11250000000001
20
-53.625000000000007
42
-0.41421356237309503
10
144.11250000000001
20
-54.625
10
132.11250000000001
20
-54.625
42
-0.41421356237309503
10
131.11250000000001
20
-53.625000000000007
10
131.11250000000001
20
-41.625000000000007
42
-0.41421356237309503
10
132.11250000000001
20
-40.625000000000007
10
144.11250000000001
20
-40.625000000000007
42
-0.41421356237309503
10
145.11250000000001
20
-41.625000000000007
0
LWPOLYLINE
5
130
100
AcDbEntity
8
0
100
AcDbPolyline
90
8
70
1
43
0.0
10
74.962500000000006
20
-54.625
42
-0.41421356237309503
10
73.962500000000006
20
-53.625000000000007
10
73.962500000000006
20
-41.625000000000007
42
-0.41421356237309503
10
74.962500000000006
20
-40.625000000000007
10
86.962500000000006
20
-40.625000000000007
42
-0.41421356237309503
10
87.962500000000006
20
-41.625000000000007
10
87.962500000000006
20
-53.625000000000007
42
-0.41421356237309503
10
86.962500000000006
20
-54.625
0
LWPOLYLINE
5
131
100
AcDbEntity
8
0
100
AcDbPolyline
90
8
70
1
43
0.0
10
194.02500000000003
20
-16.525000000000016
42
-0.41421356237309503
10
193.02500000000003
20
-15.525000000000002
10
193.02500000000003
20
-3.5250000000000004
42
-0.41421356237309503
10
194.02500000000003
20
-2.5249999999999861
10
206.02500000000003
20
-2.5249999999999861
42
-0.41421356237309503
10
207.02500000000003
20
-3.5250000000000004
10
207.02500000000003
20
-15.525000000000002
42
-0.41421356237309503
10
206.02500000000003
20
-16.525000000000016
0
LWPOLYLINE
5
132
100
AcDbEntity
8
0
100
AcDbPolyline
90
8
70
1
43
0.0
10
68.912499999999994
20
-53.625000000000007
42
-0.41421356237309503
10
67.912499999999994
20
-54.625
10
55.912500000000009
20
-54.625
42
-0.41421356237309503
10
54.912500000000009
20
-53.625000000000007
10
54.912500000000009
20
-41.625000000000007
42
-0.41421356237309503
10
55.912500000000009
20
-40.625000000000007
10
67.912499999999994
20
-40.625000000000007
42
-0.41421356237309503
10
68.912499999999994
20
-41.625000000000007
0
LWPOLYLINE
5
133
100
AcDbEntity
8
0
100
AcDbPolyline
90
8
70
1
43
0.0
10
16.525000000000002
20
-15.525000000000002
42
-0.41421356237309503
10
15.525000000000002
20
-16.525000000000002
10
3.5250000000000004
20
-16.525000000000002
42
-0.41421356237309503
10
2.5249999999999995
20
-15.525000000000002
10
2.5250000000000004
20
-3.5250000000000004
42
-0.41421356237309503
10
3.5250000000000004
20
-2.5250000000000004
10
15.525000000000002
20
-2.5249999999999995
42
-0.41421356237309503
10
16.525000000000002
20
-3.5250000000000004
0
LWPOLYLINE
5
134
100
AcDbEntity
8
0
100
AcDbPolyline
90
8
70
1
43
0.0
10
126.06250000000001
20
-53.625000000000007
42
-0.41421356237309503
10
125.06250000000001
20
-54.625
10
113.0625
20
-54.625
42
-0.41421356237309503
10
112.0625
20
-53.625000000000007
10
112.0625
20
-41.625000000000007
42
-0.41421356237309503
10
113.0625
20
-40.625000000000007
10
125.06250000000001
20
-40.625000000000007
42
-0.41421356237309503
10
126.06250000000001
20
-41.625000000000007
0
LWPOLYLINE
5
135
100
AcDbEntity
8
0
100
AcDbPolyline
90
8
70
1
43
0.0
10
254.65000000000003
20
-34.575000000000003
42
-0.41421356237309503
10
253.65000000000003
20
-35.575000000000017
10
241.65000000000003
20
-35.575000000000017
42
-0.41421356237309503
10
240.65000000000001
20
-34.575000000000003
10
240.65000000000001
20
-22.574999999999999
42
-0.41421356237309503
10
241.65000000000003
20
-21.574999999999985
10
253.65000000000003
20
-21.574999999999985
42
-0.41421356237309503
10
254.65000000000003
20
-22.574999999999999
0
LWPOLYLINE
5
136
100
AcDbEntity
8
0
100
AcDbPolyline
90
8
70
1
43
0.0
10
345.13750000000005
20
-34.575000000000003
42
-0.41421356237309503
10
344.13749999999999
20
-35.575000000000017
10
332.13749999999999
20
-35.575000000000017
42
-0.41421356237309503
10
331.13749999999993
20
-34.575000000000003
10
331.13749999999993
20
-22.574999999999999
42
-0.41421356237309503
10
332.13749999999999
20
-21.574999999999985
10
344.13749999999999
20
-21.574999999999985
42
-0.41421356237309503
10
345.13750000000005
20
-22.574999999999999
0
LWPOLYLINE
5
137
100
AcDbEntity
8
0
100
AcDbPolyline
90
8
70
1
43
0.0
10
294.03750000000002
20
-35.575000000000017
42
-0.41421356237309503
10
293.03750000000002
20
-34.575000000000003
10
293.03750000000002
20
-22.574999999999999
42
-0.41421356237309503
10
294.03750000000002
20
-21.574999999999985
10
306.03750000000002
20
-21.574999999999985
42
-0.41421356237309503
10
307.03750000000008
20
-22.574999999999999
10
307.03750000000008
20
-34.575000000000003
42
-0.41421356237309503
10
306.03750000000002
20
-35.575000000000017
0
LWPOLYLINE
5
138
100
AcDbEntity
8
0
100
AcDbPolyline
90
12
70
1
43
0.0
10
253.64999999999998
20
-78.724999999999994
42
-0.0061367472282933795
10
253.67454421579299
20
-78.725301254641607
10
256.03105371475829
20
-78.725301254641622
42
-0.41421356237307161
10
257.03105371475834
20
-79.725301254641622
10
257.03105371475829
20
-91.725301254641622
42
-0.41421356237308982
10
256.03105371475834
20
-92.725301254641607
10
244.03105371475843
20
-92.725301254641636
42
-0.0061367472281509327
10
244.00650949896476
20
-92.724999999999994
10
241.65000000000003
20
-92.725000000000009
42
-0.41421356237309503
10
240.65000000000001
20
-91.724999999999994
10
240.65000000000003
20
-79.724999999999994
42
-0.41421356237309503
10
241.65000000000003
20
-78.725000000000023
0
LWPOLYLINE
5
139
100
AcDbEntity
8
0
100
AcDbPolyline
90
12
70
1
43
0.0
10
4.906053714758718
20
-79.725301254641664
42
-0.41421356237309598
10
5.906053714758718
20
-78.725301254641664
10
8.2629557842056514
20
-78.725301254641664
42
-0.0061367472286360074
10
8.2875000000000032
20
-78.725000000000009
10
20.287500000000001
20
-78.725000000000009
42
-0.41421356237309503
10
21.287499999999998
20
-79.724999999999994
10
21.287499999999998
20
-91.724999999999994
42
-0.41421356237309503
10
20.287500000000001
20
-92.724999999999994
10
17.930597930552349
20
-92.724999999999994
42
-0.0061367472281396076
10
17.906053714758727
20
-92.725301254641636
10
5.9060537147587366
20
-92.72530125464165
42
-0.41421356237310281
10
4.9060537147587313
20
-91.725301254641636
0
LWPOLYLINE
5
140
100
AcDbEntity
8
0
100
AcDbPolyline
90
8
70
1
43
0.0
10
307.03750000000008
20
-15.525000000000002
42
-0.41421356237309503
10
306.03750000000002
20
-16.525000000000016
10
294.03750000000002
20
-16.525000000000016
42
-0.41421356237309503
10
293.03750000000002
20
-15.525000000000002
10
293.03750000000002
20
-3.5250000000000004
42
-0.41421356237309503
10
294.03750000000002
20
-2.5249999999999861
10
306.03750000000002
20
-2.5249999999999861
42
-0.41421356237309503
10
307.03750000000008
20
-3.5250000000000004
0
LWPOLYLINE
5
141
100
AcDbEntity
8
0
100
AcDbPolyline
90
8
70
1
43
0.0
10
45.099999999999994
20
-34.575000000000003
42
-0.41421356237309503
10
44.100000000000001
20
-35.575000000000003
10
32.100000000000001
20
-35.575000000000003
42
-0.41421356237309503
10
31.100000000000001
20
-34.575000000000003
10
31.100000000000001
20
-22.574999999999999
42
-0.41421356237309503
10
32.100000000000001
20
-21.574999999999996
10
44.100000000000001
20
-21.575000000000003
42
-0.41421356237309503
10
45.099999999999994
20
-22.574999999999999
0
LWPOLYLINE
5
142
100
AcDbEntity
8
0
100
AcDbPolyline
90
8
70
1
43
0.0
10
35.575000000000003
20
-15.525000000000002
42
-0.41421356237309503
10
34.575000000000003
20
-16.525000000000002
10
22.574999999999999
20
-16.525000000000002
42
-0.41421356237309503
10
21.574999999999996
20
-15.525000000000002
10
21.574999999999996
20
-3.5250000000000004
42
-0.41421356237309503
10
22.574999999999999
20
-2.5249999999999995
10
34.575000000000003
20
-2.5249999999999995
42
-0.41421356237309503
10
35.575000000000003
20
-3.5250000000000004
0
LWPOLYLINE
5
143
100
AcDbEntity
8
0
100
AcDbPolyline
90
8
70
1
43
0.0
10
49.862499999999997
20
-53.625000000000007
42
-0.41421356237309503
10
48.862500000000004
20
-54.625
10
36.862499999999997
20
-54.625
42
-0.41421356237309503
10
35.862500000000004
20
-53.625000000000007
10
35.862500000000004
20
-41.625000000000007
42
-0.41421356237309503
10
36.862499999999997
20
-40.625000000000007
10
48.862500000000004
20
-40.625000000000007
42
-0.41421356237309503
10
49.862499999999997
20
-41.625000000000007
0
LWPOLYLINE
5
144
100
AcDbEntity
8
0
100
AcDbPolyline
90
8
70
1
43
0.0
10
227.36250000000001
20
-54.624999999999986
42
-0.41421356237309503
10
226.36250000000004
20
-53.625000000000007
10
226.36250000000004
20
-41.625000000000007
42
-0.41421356237309503
10
227.36250000000001
20
-40.625000000000028
10
239.36250000000001
20
-40.624999999999993
42
-0.41421356237309503
10
240.36250000000001
20
-41.625000000000007
10
240.36250000000001
20
-53.625000000000007
42
-0.41421356237309503
10
239.36250000000001
20
-54.625000000000021
0
LWPOLYLINE
5
145
100
AcDbEntity
8
0
100
AcDbPolyline
90
8
70
1
43
0.0
10
116.53750000000001
20
-72.674999999999997
42
-0.41421356237309503
10
115.53750000000001
20
-73.674999999999997
10
103.53749999999999
20
-73.674999999999997
42
-0.41421356237309503
10
102.53749999999999
20
-72.674999999999997
10
102.53749999999999
20
-60.674999999999997
42
-0.41421356237309503
10
103.53749999999999
20
-59.675000000000004
10
115.53750000000001
20
-59.675000000000004
42
-0.41421356237309503
10
116.53750000000001
20
-60.674999999999997
0
LWPOLYLINE
5
146
100
AcDbEntity
8
0
100
AcDbPolyline
90
8
70
1
43
0.0
10
149.875
20
-15.525000000000002
42
-0.41421356237309503
10
148.875
20
-16.524999999999999
10
136.875
20
-16.524999999999999
42
-0.41421356237309503
10
135.875
20
-15.525000000000002
10
135.875
20
-3.5250000000000004
42
-0.41421356237309503
10
136.875
20
-2.5250000000000039
10
148.875
20
-2.5250000000000039
42
-0.41421356237309503
10
149.875
20
-3.5250000000000004
0
LWPOLYLINE
5
147
100
AcDbEntity
8
0
100
AcDbPolyline
90
8
70
1
43
0.0
10
221.3125
20
-53.625000000000007
42
-0.41421356237309503
10
220.3125
20
-54.625000000000021
10
208.3125
20
-54.625000000000021
42
-0.41421356237309503
10
207.3125
20
-53.625000000000007
10
207.31250000000003
20
-41.625000000000007
42
-0.41421356237309503
10
208.3125
20
-40.625000000000028
10
220.3125
20
-40.624999999999993
42
-0.41421356237309503
10
221.3125
20
-41.625000000000007
0
LWPOLYLINE
5
148
100
AcDbEntity
8
0
100
AcDbPolyline
90
8
70
1
43
0.0
10
230.83750000000003
20
-72.674999999999997
42
-0.41421356237309503
10
229.83750000000001
20
-73.675000000000011
10
217.83750000000001
20
-73.675000000000011
42
-0.41421356237309503
10
216.83750000000001
20
-72.674999999999997
10
216.83750000000003
20
-60.674999999999997
42
-0.41421356237309503
10
217.83750000000001
20
-59.675000000000018
10
229.83750000000001
20
-59.674999999999983
42
-0.41421356237309503
10
230.83750000000003
20
-60.674999999999997
0
LWPOLYLINE
5
149
100
AcDbEntity
8
0
100
AcDbPolyline
90
8
70
1
43
0.0
10
78.4375
20
-72.674999999999997
42
-0.41421356237309503
10
77.4375
20
-73.674999999999997
10
65.4375
20
-73.674999999999997
42
-0.41421356237309503
10
64.4375
20
-72.674999999999997
10
64.4375
20
-60.674999999999997
42
-0.41421356237309503
10
65.4375
20
-59.675000000000004
10
77.4375
20
-59.675000000000004
42
-0.41421356237309503
10
78.4375
20
-60.674999999999997
0
LWPOLYLINE
5
150
100
AcDbEntity
8
0
100
AcDbPolyline
90
8
70
1
43
0.0
10
140.34999999999999
20
-34.575000000000003
42
-0.41421356237309503
10
139.34999999999999
20
-35.575000000000003
10
127.34999999999999
20
-35.575000000000003
42
-0.41421356237309503
10
126.34999999999999
20
-34.575000000000003
10
126.34999999999999
20
-22.574999999999999
42
-0.41421356237309503
10
127.34999999999999
20
-21.575000000000003
10
139.34999999999999
20
-21.575000000000003
42
-0.41421356237309503
10
140.34999999999999
20
-22.574999999999999
0
LWPOLYLINE
5
151
100
AcDbEntity
8
0
100
AcDbPolyline
90
8
70
1
43
0.0
10
202.26249999999999
20
-53.625000000000007
42
-0.41421356237309503
10
201.26249999999999
20
-54.625000000000021
10
189.26249999999999
20
-54.625000000000021
42
-0.41421356237309503
10
188.26249999999999
20
-53.625000000000007
10
188.26250000000002
20
-41.625000000000007
42
-0.41421356237309503
10
189.26249999999999
20
-40.625000000000028
10
201.26249999999999
20
-40.624999999999993
42
-0.41421356237309503
10
202.26249999999999
20
-41.625000000000007
0
LWPOLYLINE
5
152
100
AcDbEntity
8
0
100
AcDbPolyline
90
8
70
1
43
0.0
10
164.16249999999997
20
-53.625000000000007
42
-0.41421356237309503
10
163.16249999999999
20
-54.624999999999986
10
151.16250000000002
20
-54.625
42
-0.41421356237309503
10
150.16250000000002
20
-53.625000000000007
10
150.16250000000002
20
-41.625000000000007
42
-0.41421356237309503
10
151.16250000000002
20
-40.625000000000007
10
163.16249999999999
20
-40.624999999999993
42
-0.41421356237309503
10
164.16250000000002
20
-41.625000000000007
0
LWPOLYLINE
5
153
100
AcDbEntity
8
0
100
AcDbPolyline
90
8
70
1
43
0.0
10
187.97500000000002
20
-15.525000000000002
42
-0.41421356237309503
10
186.97500000000002
20
-16.525000000000016
10
174.97499999999999
20
-16.525000000000016
42
-0.41421356237309503
10
173.97499999999997
20
-15.525000000000002
10
173.97499999999997
20
-3.5250000000000004
42
-0.41421356237309503
10
174.97499999999999
20
-2.5249999999999861
10
186.97500000000002
20
-2.5249999999999861
42
-0.41421356237309503
10
187.97500000000002
20
-3.5250000000000004
0
LWPOLYLINE
5
154
100
AcDbEntity
8
0
100
AcDbPolyline
90
8
70
1
43
0.0
10
326.08749999999998
20
-91.724999999999994
42
-0.41421356237309503
10
325.08749999999998
20
-92.725000000000009
10
313.08749999999998
20
-92.725000000000009
42
-0.41421356237309503
10
312.08749999999998
20
-91.724999999999994
10
312.08750000000003
20
-79.724999999999994
42
-0.41421356237309503
10
313.08749999999998
20
-78.725000000000023
10
325.08749999999998
20
-78.724999999999994
42
-0.41421356237309503
10
326.08749999999998
20
-79.724999999999994
0
LWPOLYLINE
5
155
100
AcDbEntity
8
0
100
AcDbPolyline
90
8
70
1
43
0.0
10
345.13750000000005
20
-91.724999999999994
42
-0.41421356237309503
10
344.13749999999999
20
-92.725000000000009
10
332.13749999999999
20
-92.725000000000009
42
-0.41421356237309503
10
331.13749999999993
20
-91.724999999999994
10
331.13749999999993
20
-79.724999999999994
42
-0.41421356237309503
10
332.13749999999999
20
-78.724999999999994
10
344.13749999999999
20
-78.724999999999994
42
-0.41421356237309503
10
345.13750000000005
20
-79.724999999999994
0
LWPOLYLINE
5
156
100
AcDbEntity
8
0
100
AcDbPolyline
90
8
70
1
43
0.0
10
307.03750000000008
20
-91.724999999999994
42
-0.41421356237309503
10
306.03750000000002
20
-92.725000000000009
10
294.03750000000002
20
-92.725000000000009
42
-0.41421356237309503
10
293.03750000000002
20
-91.724999999999994
10
293.03750000000002
20
-79.724999999999994
42
-0.41421356237309503
10
294.03750000000002
20
-78.724999999999994
10
306.03750000000002
20
-78.724999999999994
42
-0.41421356237309503
10
307.03750000000008
20
-79.724999999999994
0
LWPOLYLINE
5
157
100
AcDbEntity
8
0
100
AcDbPolyline
90
8
70
1
43
0.0
10
108.3
20
-35.575000000000003
42
-0.41421356237309503
10
107.30000000000001
20
-34.575000000000003
10
107.30000000000001
20
-22.574999999999999
42
-0.41421356237309503
10
108.3
20
-21.575000000000003
10
120.30000000000001
20
-21.575000000000003
42
-0.41421356237309503
10
121.30000000000001
20
-22.574999999999999
10
121.30000000000001
20
-34.575000000000003
42
-0.41421356237309503
10
120.30000000000001
20
-35.575000000000003
0
LWPOLYLINE
5
158
100
AcDbEntity
8
0
100
AcDbPolyline
90
8
70
1
43
0.0
10
183.21249999999998
20
-53.625000000000007
42
-0.41421356237309503
10
182.21250000000001
20
-54.624999999999986
10
170.21250000000003
20
-54.625000000000021
42
-0.41421356237309503
10
169.21250000000001
20
-53.625000000000007
10
169.21250000000001
20
-41.625000000000007
42
-0.41421356237309503
10
170.21250000000003
20
-40.624999999999993
10
182.21250000000001
20
-40.624999999999993
42
-0.41421356237309503
10
183.21250000000003
20
-41.625000000000007
0
LWPOLYLINE
5
159
100
AcDbEntity
8
0
100
AcDbPolyline
90
8
70
1
43
0.0
10
23.668749999999999
20
-53.625000000000007
42
-0.41421356237309503
10
22.668750000000003
20
-54.625
10
10.668749999999999
20
-54.625
42
-0.41421356237309503
10
9.6687500000000028
20
-53.625000000000007
10
9.6687500000000028
20
-41.625000000000007
42
-0.41421356237309503
10
10.668749999999999
20
-40.625000000000007
10
22.668750000000003
20
-40.625
42
-0.41421356237309503
10
23.668750000000006
20
-41.625000000000007
0
LWPOLYLINE
5
160
100
AcDbEntity
8
0
100
AcDbPolyline
90
8
70
1
43
0.0
10
146.40000000000001
20
-35.575000000000003
42
-0.41421356237309503
10
145.40000000000001
20
-34.575000000000003
10
145.40000000000001
20
-22.574999999999999
42
-0.41421356237309503
10
146.40000000000001
20
-21.575000000000003
10
158.40000000000001
20
-21.575000000000003
42
-0.41421356237309503
10
159.40000000000001
20
-22.574999999999999
10
159.40000000000001
20
-34.575000000000003
42
-0.41421356237309503
10
158.40000000000001
20
-35.575000000000003
0
LWPOLYLINE
5
161
100
AcDbEntity
8
0
100
AcDbPolyline
90
8
70
1
43
0.0
10
83.200000000000003
20
-34.575000000000003
42
-0.41421356237309503
10
82.200000000000003
20
-35.575000000000003
10
70.200000000000003
20
-35.575000000000003
42
-0.41421356237309503
10
69.200000000000003
20
-34.575000000000003
10
69.200000000000003
20
-22.574999999999999
42
-0.41421356237309503
10
70.200000000000003
20
-21.574999999999992
10
82.200000000000003
20
-21.575000000000003
42
-0.41421356237309503
10
83.200000000000003
20
-22.574999999999999
0
LWPOLYLINE
5
162
100
AcDbEntity
8
0
100
AcDbPolyline
90
8
70
1
43
0.0
10
73.674999999999997
20
-15.525000000000002
42
-0.41421356237309503
10
72.674999999999997
20
-16.524999999999999
10
60.674999999999997
20
-16.524999999999999
42
-0.41421356237309503
10
59.675000000000004
20
-15.525000000000002
10
59.675000000000004
20
-3.5250000000000004
42
-0.41421356237309503
10
60.674999999999997
20
-2.5250000000000039
10
72.674999999999997
20
-2.5250000000000039
42
-0.41421356237309503
10
73.674999999999997
20
-3.5250000000000004
0
LWPOLYLINE
5
163
100
AcDbEntity
8
0
100
AcDbPolyline
90
8
70
1
43
0.0
10
226.07500000000002
20
-15.525000000000002
42
-0.41421356237309503
10
225.07499999999999
20
-16.525000000000016
10
213.07500000000002
20
-16.525000000000016
42
-0.41421356237309503
10
212.07499999999999
20
-15.525000000000002
10
212.07499999999999
20
-3.5250000000000004
42
-0.41421356237309503
10
213.07500000000002
20
-2.5249999999999861
10
225.07499999999999
20
-2.5249999999999861
42
-0.41421356237309503
10
226.07500000000002
20
-3.5250000000000004
0
LWPOLYLINE
5
164
100
AcDbEntity
8
0
100
AcDbPolyline
90
8
70
1
43
0.0
10
122.58750000000001
20
-73.674999999999997
42
-0.41421356237309503
10
121.58750000000001
20
-72.674999999999997
10
121.58750000000001
20
-60.674999999999997
42
-0.41421356237309503
10
122.58750000000001
20
-59.675000000000004
10
134.58750000000003
20
-59.675000000000004
42
-0.41421356237309503
10
135.58750000000001
20
-60.674999999999997
10
135.58750000000001
20
-72.674999999999997
42
-0.41421356237309503
10
134.58750000000003
20
-73.674999999999997
0
LWPOLYLINE
5
165
100
AcDbEntity
8
0
100
AcDbPolyline
90
12
70
1
43
0.0
10
220.2185537147584
20
-92.725301254641636
42
-0.0061367472281509327
10
220.19400949896476
20
-92.724999999999994
10
217.83750000000001
20
-92.724999999999966
42
-0.41421356237309503
10
216.83750000000003
20
-91.724999999999994
10
216.83750000000003
20
-79.724999999999994
42
-0.41421356237309503
10
217.83750000000001
20
-78.725000000000023
10
229.83749999999998
20
-78.724999999999994
42
-0.0061367472284539239
10
229.86204421579362
20
-78.725301254641636
10
232.21855371475834
20
-78.725301254641622
42
-0.41421356237309243
10
233.21855371475834
20
-79.725301254641622
10
233.21855371475834
20
-91.725301254641622
42
-0.41421356237308982
10
232.21855371475834
20
-92.725301254641607
0
LWPOLYLINE
5
166
100
AcDbEntity
8
0
100
AcDbPolyline
90
8
70
1
43
0.0
10
102.25
20
-34.575000000000003
42
-0.41421356237309503
10
101.25
20
-35.575000000000003
10
89.25
20
-35.575000000000003
42
-0.41421356237309503
10
88.250000000000014
20
-34.575000000000003
10
88.250000000000014
20
-22.574999999999999
42
-0.41421356237309503
10
89.25
20
-21.575000000000003
10
101.25
20
-21.575000000000003
42
-0.41421356237309503
10
102.25
20
-22.574999999999999
0
LWPOLYLINE
5
167
100
AcDbEntity
8
0
100
AcDbPolyline
90
8
70
1
43
0.0
10
165.44999999999999
20
-35.575000000000017
42
-0.41421356237309503
10
164.44999999999996
20
-34.575000000000003
10
164.44999999999996
20
-22.574999999999999
42
-0.41421356237309503
10
165.44999999999999
20
-21.574999999999985
10
177.45000000000002
20
-21.574999999999985
42
-0.41421356237309503
10
178.45000000000002
20
-22.574999999999999
10
178.45000000000002
20
-34.575000000000003
42
-0.41421356237309503
10
177.45000000000002
20
-35.575000000000017
0
LWPOLYLINE
5
168
100
AcDbEntity
8
0
100
AcDbPolyline
90
28
70
1
43
0.0
10
203.77499999999998
20
-78.725301254641593
10
203.77499999999998
20
-75.474999999999994
42
0.41421356237310281
10
202.77500000000001
20
-74.474999999999994
10
197.27499999999998
20
-74.474999999999994
42
0.30968975521957987
10
196.34249410228082
20
-75.113845253777583
10
184.70750589771913
20
-75.113845253777583
42
0.30968975521956454
10
183.77499999999998
20
-74.474999999999994
10
178.27500000000001
20
-74.475000000000009
42
0.30968975521957237
10
177.34249410228088
20
-75.113845253777583
10
89.407505897719219
20
-75.113845253777583
42
0.30968975521958159
10
88.475000000000037
20
-74.474999999999994
10
77.975000000000065
20
-74.474999999999994
42
0.41421356237309243
10
76.975000000000051
20
-75.475000000000009
10
76.975000000000051
20
-95.878999999999905
10
7.6300000000013686
20
-95.878999999999891
42
-0.41421356237309365
10
0.01000000000139778
20
-88.258999999999915
10
0.010000000001390008
20
-7.7410000000000796
42
-0.41421356237309442
10
7.6300000000013313
20
-0.12100000000009103
10
340.37000000000035
20
-0.12100000000007771
42
-0.41421356237309492
10
347.99000000000035
20
-7.7410000000000778
10
347.99000000000035
20
-88.258999999999915
42
-0.41421356237309503
10
340.37000000000035
20
-95.87899999999992
10
203.77499999999998
20
-95.878999999999905
10
203.77499999999998
20
-92.725301254641593
10
208.4060537147584
20
-92.725301254641579
42
0.41421356237310542
10
209.4060537147584
20
-91.725301254641607
10
209.4060537147584
20
-79.725301254641607
42
0.41421356237309243
10
208.4060537147584
20
-78.725301254641593
0
ENDSEC
0
SECTION
2
OBJECTS
0
DICTIONARY
5
C
100
AcDbDictionary
3
ACAD_GROUP
350
D
3
ACAD_MLINESTYLE
350
17
0
DICTIONARY
5
D
100
AcDbDictionary
0
DICTIONARY
5
1A
330
C
100
AcDbDictionary
0
DICTIONARY
5
17
100
AcDbDictionary
0
ENDSEC
0
EOF
