0
SECTION
2
HEADER
9
$INSUNITS
70
4
9
$ACADVER
1
AC1014
9
$HANDSEED
5
FFFF
0
ENDSEC
0
SECTION
2
TABLES
0
TABLE
2
VPORT
5
8
100
AcDbSymbolTable
0
ENDTAB
0
TABLE
2
LTYPE
5
5
100
AcDbSymbolTable
0
LTYPE
5
14
100
AcDbSymbolTableRecord
100
AcDbLinetypeTableRecord
2
BYBLOCK
70
0
0
LTYPE
5
15
100
AcDbSymbolTableRecord
100
AcDbLinetypeTableRecord
2
BYLAYER
70
0
0
ENDTAB
0
TABLE
2
LAYER
5
2
100
AcDbSymbolTable
70
2
0
LAYER
5
50
100
AcDbSymbolTableRecord
100
AcDbLayerTableRecord
2
0
70
0
6
CONTINUOUS
0
ENDTAB
0
TABLE
2
STYLE
5
3
100
AcDbSymbolTable
70
1
0
STYLE
5
11
100
AcDbSymbolTableRecord
100
AcDbTextStyleTableRecord
2
STANDARD
70
0
0
ENDTAB
0
TABLE
2
VIEW
5
6
100
AcDbSymbolTable
70
0
0
ENDTAB
0
TABLE
2
UCS
5
7
100
AcDbSymbolTable
70
0
0
ENDTAB
0
TABLE
2
APPID
5
9
100
AcDbSymbolTable
70
2
0
APPID
5
12
100
AcDbSymbolTableRecord
100
AcDbRegAppTableRecord
2
ACAD
70
0
0
ENDTAB
0
TABLE
2
DIMSTYLE
5
A
100
AcDbSymbolTable
70
1
0
ENDTAB
0
TABLE
2
BLOCK_RECORD
5
1
100
AcDbSymbolTable
70
1
0
BLOCK_RECORD
5
1F
100
AcDbSymbolTableRecord
100
AcDbBlockTableRecord
2
*MODEL_SPACE
0
BLOCK_RECORD
5
1B
100
AcDbSymbolTableRecord
100
AcDbBlockTableRecord
2
*PAPER_SPACE
0
ENDTAB
0
ENDSEC
0
SECTION
2
BLOCKS
0
BLOCK
5
20
100
AcDbEntity
100
AcDbBlockBegin
2
*MODEL_SPACE
0
ENDBLK
5
21
100
AcDbEntity
100
AcDbBlockEnd
0
BLOCK
5
1C
100
AcDbEntity
100
AcDbBlockBegin
2
*PAPER_SPACE
0
ENDBLK
5
1D
100
AcDbEntity
100
AcDbBlockEnd
0
ENDSEC
0
SECTION
2
ENTITIES
0
LWPOLYLINE
5
100
100
AcDbEntity
8
0
100
AcDbPolyline
90
12
70
1
43
0.0
10
292.23562027133852
20
14.999999999999996
10
292.23562027133852
20
-12.254923741193039
10
307.23562027133852
20
-12.254923741193037
10
307.23562027133852
20
14.999999999999998
10
350.66250000000002
20
15.000000000000027
42
-0.41421356237309531
10
362.66250000000008
20
2.9999999999999893
10
362.66250000000008
20
-98.25
42
-0.41421356237309076
10
350.66250000000002
20
-110.25
10
-2.9999999999999689
20
-110.25
42
-0.41421356237309537
10
-15.000000000000021
20
-98.25
10
-15
20
3.0000000000000031
42
-0.41421356237309559
10
-2.9999999999999716
20
14.999999999999993
0
CIRCLE
5
101
100
AcDbEntity
8
0
100
AcDbCircle
10
323.51203344718613
20
-14.254923741193068
30
0
40
2.0000000000000284
210
0
220
0
230
1
0
CIRCLE
5
102
100
AcDbEntity
8
0
100
AcDbCircle
10
174.01773186678358
20
-14.536215422812296
30
0
40
1.9999999999999929
210
0
220
0
230
1
0
CIRCLE
5
103
100
AcDbEntity
8
0
100
AcDbCircle
10
24.150466552813956
20
-14.254923741193126
30
0
40
2.0000000000000018
210
0
220
0
230
1
0
LWPOLYLINE
5
104
100
AcDbEntity
8
0
100
AcDbPolyline
90
6
70
1
43
0.0
10
-0.70992000240611142
20
2.7624278288219806
10
0.71507688724621676
20
2.7654051576726069
10
1.4249968896523282
20
4.0009773288506345
10
0.70992000240611086
20
5.2335721711780714
10
-0.7150768872462171
20
5.2305948423274451
10
-1.4249968896523288
20
3.9950226711494174
0
LWPOLYLINE
5
105
100
AcDbEntity
8
0
100
AcDbPolyline
90
6
70
1
43
0.0
10
344.29007999759392
20
-100.43757217117803
10
345.71507688724625
20
-100.43459484232741
10
346.42499688965233
20
-99.199022671149379
10
345.70992000240608
20
-97.966427828821949
10
344.28492311275375
20
-97.969405157672583
10
343.57500311034767
20
-99.204977328850603
0
LWPOLYLINE
5
106
100
AcDbEntity
8
0
100
AcDbPolyline
90
6
70
1
43
0.0
10
229.29007999759389
20
-100.43757217117803
10
230.71507688724623
20
-100.43459484232741
10
231.42499688965233
20
-99.199022671149379
10
230.70992000240611
20
-97.966427828821949
10
229.28492311275377
20
-97.969405157672583
10
228.57500311034767
20
-99.204977328850603
0
LWPOLYLINE
5
107
100
AcDbEntity
8
0
100
AcDbPolyline
90
6
70
1
43
0.0
10
114.29007999759389
20
-100.43757217117803
10
115.71507688724621
20
-100.43459484232741
10
116.42499688965232
20
-99.199022671149379
10
115.70992000240611
20
-97.966427828821949
10
114.28492311275379
20
-97.969405157672583
10
113.57500311034768
20
-99.204977328850603
0
LWPOLYLINE
5
108
100
AcDbEntity
8
0
100
AcDbPolyline
90
6
70
1
43
0.0
10
114.29007999759389
20
2.7624278288219806
10
115.71507688724621
20
2.7654051576726069
10
116.42499688965232
20
4.0009773288506345
10
115.70992000240611
20
5.2335721711780714
10
114.28492311275379
20
5.2305948423274451
10
113.57500311034768
20
3.9950226711494174
0
LWPOLYLINE
5
109
100
AcDbEntity
8
0
100
AcDbPolyline
90
6
70
1
43
0.0
10
344.29007999759392
20
2.7624278288219806
10
345.71507688724625
20
2.7654051576726069
10
346.42499688965233
20
4.0009773288506345
10
345.70992000240608
20
5.2335721711780714
10
344.28492311275375
20
5.2305948423274451
10
343.57500311034767
20
3.9950226711494174
0
LWPOLYLINE
5
110
100
AcDbEntity
8
0
100
AcDbPolyline
90
6
70
1
43
0.0
10
229.29007999759389
20
2.7624278288219806
10
230.71507688724623
20
2.7654051576726069
10
231.42499688965233
20
4.0009773288506345
10
230.70992000240611
20
5.2335721711780714
10
229.28492311275377
20
5.2305948423274451
10
228.57500311034767
20
3.9950226711494174
0
LWPOLYLINE
5
111
100
AcDbEntity
8
0
100
AcDbPolyline
90
6
70
1
43
0.0
10
0.71507688724621676
20
-100.43459484232741
10
1.4249968896523282
20
-99.199022671149379
10
0.70992000240611086
20
-97.966427828821949
10
-0.7150768872462171
20
-97.969405157672583
10
-1.4249968896523284
20
-99.204977328850603
10
-0.70992000240611142
20
-100.43757217117803
0
ENDSEC
0
SECTION
2
OBJECTS
0
DICTIONARY
5
C
100
AcDbDictionary
3
ACAD_GROUP
350
D
3
ACAD_MLINESTYLE
350
17
0
DICTIONARY
5
D
100
AcDbDictionary
0
DICTIONARY
5
1A
330
C
100
AcDbDictionary
0
DICTIONARY
5
17
100
AcDbDictionary
0
ENDSEC
0
EOF
