0
SECTION
2
HEADER
9
$INSUNITS
70
4
9
$ACADVER
1
AC1014
9
$HANDSEED
5
FFFF
0
ENDSEC
0
SECTION
2
TABLES
0
TABLE
2
VPORT
5
8
100
AcDbSymbolTable
0
ENDTAB
0
TABLE
2
LTYPE
5
5
100
AcDbSymbolTable
0
LTYPE
5
14
100
AcDbSymbolTableRecord
100
AcDbLinetypeTableRecord
2
BYBLOCK
70
0
0
LTYPE
5
15
100
AcDbSymbolTableRecord
100
AcDbLinetypeTableRecord
2
BYLAYER
70
0
0
ENDTAB
0
TABLE
2
LAYER
5
2
100
AcDbSymbolTable
70
2
0
LAYER
5
50
100
AcDbSymbolTableRecord
100
AcDbLayerTableRecord
2
0
70
0
6
CONTINUOUS
0
ENDTAB
0
TABLE
2
STYLE
5
3
100
AcDbSymbolTable
70
1
0
STYLE
5
11
100
AcDbSymbolTableRecord
100
AcDbTextStyleTableRecord
2
STANDARD
70
0
0
ENDTAB
0
TABLE
2
VIEW
5
6
100
AcDbSymbolTable
70
0
0
ENDTAB
0
TABLE
2
UCS
5
7
100
AcDbSymbolTable
70
0
0
ENDTAB
0
TABLE
2
APPID
5
9
100
AcDbSymbolTable
70
2
0
APPID
5
12
100
AcDbSymbolTableRecord
100
AcDbRegAppTableRecord
2
ACAD
70
0
0
ENDTAB
0
TABLE
2
DIMSTYLE
5
A
100
AcDbSymbolTable
70
1
0
ENDTAB
0
TABLE
2
BLOCK_RECORD
5
1
100
AcDbSymbolTable
70
1
0
BLOCK_RECORD
5
1F
100
AcDbSymbolTableRecord
100
AcDbBlockTableRecord
2
*MODEL_SPACE
0
BLOCK_RECORD
5
1B
100
AcDbSymbolTableRecord
100
AcDbBlockTableRecord
2
*PAPER_SPACE
0
ENDTAB
0
ENDSEC
0
SECTION
2
BLOCKS
0
BLOCK
5
20
100
AcDbEntity
100
AcDbBlockBegin
2
*MODEL_SPACE
0
ENDBLK
5
21
100
AcDbEntity
100
AcDbBlockEnd
0
BLOCK
5
1C
100
AcDbEntity
100
AcDbBlockBegin
2
*PAPER_SPACE
0
ENDBLK
5
1D
100
AcDbEntity
100
AcDbBlockEnd
0
ENDSEC
0
SECTION
2
ENTITIES
0
LWPOLYLINE
5
100
100
AcDbEntity
8
0
100
AcDbPolyline
90
12
70
1
43
0.0
10
292.23562027133852
20
14.999999999999996
10
292.23562027133852
20
-12.254923741193039
10
307.23562027133852
20
-12.254923741193037
10
307.23562027133852
20
14.999999999999998
10
350.66250000000002
20
15.000000000000027
42
-0.41421356237309531
10
362.66250000000008
20
2.9999999999999893
10
362.66250000000008
20
-98.25
42
-0.41421356237309076
10
350.66250000000002
20
-110.25
10
-2.9999999999999689
20
-110.25
42
-0.41421356237309537
10
-15.000000000000021
20
-98.25
10
-15
20
3.0000000000000031
42
-0.41421356237309559
10
-2.9999999999999716
20
14.999999999999993
0
CIRCLE
5
101
100
AcDbEntity
8
0
100
AcDbCircle
10
323.51203344718613
20
-14.254923741193068
30
0
40
2.0000000000000284
210
0
220
0
230
1
0
CIRCLE
5
102
100
AcDbEntity
8
0
100
AcDbCircle
10
174.01773186678358
20
-14.536215422812296
30
0
40
1.9999999999999929
210
0
220
0
230
1
0
CIRCLE
5
103
100
AcDbEntity
8
0
100
AcDbCircle
10
24.150466552813956
20
-14.254923741193126
30
0
40
2.0000000000000018
210
0
220
0
230
1
0
LWPOLYLINE
5
104
100
AcDbEntity
8
0
100
AcDbPolyline
90
6
70
1
43
0.0
10
344.53750000000002
20
-98.398926501499375
10
344.07499999999999
20
-99.200000000000003
10
344.53750000000002
20
-100.00107349850062
10
345.46249999999998
20
-100.00107349850062
10
345.92500000000001
20
-99.200000000000003
10
345.46249999999998
20
-98.398926501499375
0
LWPOLYLINE
5
105
100
AcDbEntity
8
0
100
AcDbPolyline
90
6
70
1
43
0.0
10
-0.46250000000000013
20
4.8010734985006085
10
-0.92500000000000016
20
4.0000000000000027
10
-0.46249999999999986
20
3.1989265014993973
10
0.46250000000000002
20
3.1989265014993973
10
0.92500000000000004
20
4.0000000000000027
10
0.46249999999999986
20
4.8010734985006085
0
LWPOLYLINE
5
106
100
AcDbEntity
8
0
100
AcDbPolyline
90
6
70
1
43
0.0
10
114.53749999999999
20
4.8010734985006032
10
114.075
20
4.0000000000000027
10
114.53750000000001
20
3.1989265014993977
10
115.46250000000001
20
3.1989265014994084
10
115.925
20
4.0000000000000142
10
115.46249999999999
20
4.8010734985006112
0
LWPOLYLINE
5
107
100
AcDbEntity
8
0
100
AcDbPolyline
90
6
70
1
43
0.0
10
229.53749999999999
20
-98.398926501499375
10
229.07499999999999
20
-99.200000000000003
10
229.53749999999999
20
-100.00107349850062
10
230.46250000000001
20
-100.00107349850062
10
230.92500000000001
20
-99.200000000000003
10
230.46250000000001
20
-98.398926501499375
0
LWPOLYLINE
5
108
100
AcDbEntity
8
0
100
AcDbPolyline
90
6
70
1
43
0.0
10
344.53750000000002
20
4.8010734985006192
10
344.07499999999999
20
4.0000000000000027
10
344.53750000000002
20
3.1989265014993871
10
345.46249999999998
20
3.1989265014993871
10
345.92500000000001
20
4.0000000000000027
10
345.46249999999998
20
4.8010734985006192
0
LWPOLYLINE
5
109
100
AcDbEntity
8
0
100
AcDbPolyline
90
6
70
1
43
0.0
10
-0.46250000000000013
20
-98.398926501499403
10
-0.92500000000000016
20
-99.200000000000003
10
-0.46249999999999658
20
-100.0010734985006
10
0.46249999999999603
20
-100.0010734985006
10
0.92499999999999194
20
-99.200000000000003
10
0.46249999999999458
20
-98.398926501499403
0
LWPOLYLINE
5
110
100
AcDbEntity
8
0
100
AcDbPolyline
90
6
70
1
43
0.0
10
229.53749999999999
20
4.8010734985006192
10
229.07499999999999
20
4.0000000000000027
10
229.53749999999999
20
3.1989265014993871
10
230.46250000000001
20
3.1989265014993871
10
230.92500000000001
20
4.0000000000000027
10
230.46250000000001
20
4.8010734985006192
0
LWPOLYLINE
5
111
100
AcDbEntity
8
0
100
AcDbPolyline
90
6
70
1
43
0.0
10
114.53749999999999
20
-98.398926501499403
10
114.075
20
-99.200000000000003
10
114.53750000000001
20
-100.0010734985006
10
115.46250000000001
20
-100.0010734985006
10
115.925
20
-99.200000000000003
10
115.46249999999999
20
-98.398926501499403
0
ENDSEC
0
SECTION
2
OBJECTS
0
DICTIONARY
5
C
100
AcDbDictionary
3
ACAD_GROUP
350
D
3
ACAD_MLINESTYLE
350
17
0
DICTIONARY
5
D
100
AcDbDictionary
0
DICTIONARY
5
1A
330
C
100
AcDbDictionary
0
DICTIONARY
5
17
100
AcDbDictionary
0
ENDSEC
0
EOF
