<?xml version="1.0" encoding="UTF-8" standalone="no"?>
<!-- Created with Inkscape (http://www.inkscape.org/) -->

<svg
   xmlns:dc="http://purl.org/dc/elements/1.1/"
   xmlns:cc="http://creativecommons.org/ns#"
   xmlns:rdf="http://www.w3.org/1999/02/22-rdf-syntax-ns#"
   xmlns:svg="http://www.w3.org/2000/svg"
   xmlns="http://www.w3.org/2000/svg"
   xmlns:sodipodi="http://sodipodi.sourceforge.net/DTD/sodipodi-0.dtd"
   xmlns:inkscape="http://www.inkscape.org/namespaces/inkscape"
   width="420mm"
   height="210mm"
   viewBox="0 0 420 210"
   version="1.1"
   id="svg8"
   inkscape:version="0.92.4 (5da689c313, 2019-01-14)"
   sodipodi:docname="L0_M3.svg">
  <defs
     id="defs2">
    <marker
       style="overflow:visible"
       refY="0.0"
       refX="0.0"
       orient="auto"
       id="DistanceX">
      <path
         id="path3715"
         style="stroke:#000000; stroke-width:0.5"
         d="M 3,-3 L -3,3 M 0,-5 L  0,5" />
    </marker>
    <pattern
       y="0"
       x="0"
       width="8"
       patternUnits="userSpaceOnUse"
       id="Hatch"
       height="8">
      <path
         id="path3718"
         stroke-width="0.25"
         stroke="#000000"
         linecap="square"
         d="M8 4 l-4,4" />
      <path
         id="path3720"
         stroke-width="0.25"
         stroke="#000000"
         linecap="square"
         d="M6 2 l-4,4" />
      <path
         id="path3722"
         stroke-width="0.25"
         stroke="#000000"
         linecap="square"
         d="M4 0 l-4,4" />
    </pattern>
    <symbol
       id="*MODEL_SPACE" />
    <symbol
       id="*PAPER_SPACE" />
    <marker
       style="overflow:visible"
       refY="0.0"
       refX="0.0"
       orient="auto"
       id="DistanceX-1">
      <path
         id="path3760"
         style="stroke:#000000; stroke-width:0.5"
         d="M 3,-3 L -3,3 M 0,-5 L  0,5" />
    </marker>
    <pattern
       y="0"
       x="0"
       width="8"
       patternUnits="userSpaceOnUse"
       id="Hatch-1"
       height="8">
      <path
         id="path3763"
         stroke-width="0.25"
         stroke="#000000"
         linecap="square"
         d="M8 4 l-4,4" />
      <path
         id="path3765"
         stroke-width="0.25"
         stroke="#000000"
         linecap="square"
         d="M6 2 l-4,4" />
      <path
         id="path3767"
         stroke-width="0.25"
         stroke="#000000"
         linecap="square"
         d="M4 0 l-4,4" />
    </pattern>
    <symbol
       id="*MODEL_SPACE-5" />
    <symbol
       id="*PAPER_SPACE-6" />
    <marker
       style="overflow:visible"
       refY="0.0"
       refX="0.0"
       orient="auto"
       id="DistanceX-4">
      <path
         id="path3805"
         style="stroke:#000000; stroke-width:0.5"
         d="M 3,-3 L -3,3 M 0,-5 L  0,5" />
    </marker>
    <pattern
       y="0"
       x="0"
       width="8"
       patternUnits="userSpaceOnUse"
       id="Hatch-7"
       height="8">
      <path
         id="path3808"
         stroke-width="0.25"
         stroke="#000000"
         linecap="square"
         d="M8 4 l-4,4" />
      <path
         id="path3810"
         stroke-width="0.25"
         stroke="#000000"
         linecap="square"
         d="M6 2 l-4,4" />
      <path
         id="path3812"
         stroke-width="0.25"
         stroke="#000000"
         linecap="square"
         d="M4 0 l-4,4" />
    </pattern>
    <symbol
       id="*MODEL_SPACE-59" />
    <symbol
       id="*PAPER_SPACE-5" />
    <marker
       style="overflow:visible"
       refY="0.0"
       refX="0.0"
       orient="auto"
       id="DistanceX-18">
      <path
         id="path3850"
         style="stroke:#000000; stroke-width:0.5"
         d="M 3,-3 L -3,3 M 0,-5 L  0,5" />
    </marker>
    <pattern
       y="0"
       x="0"
       width="8"
       patternUnits="userSpaceOnUse"
       id="Hatch-72"
       height="8">
      <path
         id="path3853"
         stroke-width="0.25"
         stroke="#000000"
         linecap="square"
         d="M8 4 l-4,4" />
      <path
         id="path3855"
         stroke-width="0.25"
         stroke="#000000"
         linecap="square"
         d="M6 2 l-4,4" />
      <path
         id="path3857"
         stroke-width="0.25"
         stroke="#000000"
         linecap="square"
         d="M4 0 l-4,4" />
    </pattern>
    <symbol
       id="*MODEL_SPACE-0" />
    <symbol
       id="*PAPER_SPACE-3" />
    <marker
       style="overflow:visible"
       refY="0.0"
       refX="0.0"
       orient="auto"
       id="DistanceX-6">
      <path
         id="path3919"
         style="stroke:#000000; stroke-width:0.5"
         d="M 3,-3 L -3,3 M 0,-5 L  0,5" />
    </marker>
    <pattern
       y="0"
       x="0"
       width="8"
       patternUnits="userSpaceOnUse"
       id="Hatch-0"
       height="8">
      <path
         id="path3922"
         stroke-width="0.25"
         stroke="#000000"
         linecap="square"
         d="M8 4 l-4,4" />
      <path
         id="path3924"
         stroke-width="0.25"
         stroke="#000000"
         linecap="square"
         d="M6 2 l-4,4" />
      <path
         id="path3926"
         stroke-width="0.25"
         stroke="#000000"
         linecap="square"
         d="M4 0 l-4,4" />
    </pattern>
    <symbol
       id="*MODEL_SPACE-1" />
    <symbol
       id="*PAPER_SPACE-4" />
  </defs>
  <sodipodi:namedview
     id="base"
     pagecolor="#ffffff"
     bordercolor="#666666"
     borderopacity="1.0"
     inkscape:pageopacity="0.0"
     inkscape:pageshadow="2"
     inkscape:zoom="0.35"
     inkscape:cx="47.142857"
     inkscape:cy="674.28571"
     inkscape:document-units="mm"
     inkscape:current-layer="layer1"
     showgrid="false"
     inkscape:window-width="2560"
     inkscape:window-height="1377"
     inkscape:window-x="-8"
     inkscape:window-y="-8"
     inkscape:window-maximized="1" />
  <metadata
     id="metadata5">
    <rdf:RDF>
      <cc:Work
         rdf:about="">
        <dc:format>image/svg+xml</dc:format>
        <dc:type
           rdf:resource="http://purl.org/dc/dcmitype/StillImage" />
        <dc:title></dc:title>
      </cc:Work>
    </rdf:RDF>
  </metadata>
  <g
     inkscape:label="Layer 1"
     inkscape:groupmode="layer"
     id="layer1"
     transform="translate(0,-87)">
    <g
       id="g3957"
       inkscape:label="0"
       transform="matrix(0.26458333,0,0,0.26458333,36.168754,-152.625)">
      <path
         id="path3933"
         style="fill:none;stroke:#000000"
         d="m 1104.5126,1065.8268 v 52.9134 h 56.6929 v -52.9134 h 164.1331 a 45.354331,45.354331 0 0 1 45.3543,45.3543 v 382.6772 a 45.354331,45.354331 0 0 1 -45.3543,45.3543 H -11.338583 a 45.354331,45.354331 0 0 1 -45.35433,-45.3543 v -382.6772 a 45.354331,45.354331 0 0 1 45.35433,-45.3543 z"
         inkscape:connector-curvature="0" />
      <path
         id="path3935"
         style="fill:none;stroke:#000000"
         d="m 1230.2817,1176.3966 a 7.559055,7.559055 0 1 0 -15.1181,0 7.559055,7.559055 0 1 0 15.1181,0 z"
         inkscape:connector-curvature="0" />
      <path
         id="path3937"
         style="fill:none;stroke:#000000"
         d="m 665.26387,1177.4597 a 7.559055,7.559055 0 1 0 -15.11811,0 7.559055,7.559055 0 1 0 15.11811,0 z"
         inkscape:connector-curvature="0" />
      <path
         id="path3939"
         style="fill:none;stroke:#000000"
         d="m 98.836409,1176.3966 a 7.559055,7.559055 0 1 0 -15.11811,0 7.559055,7.559055 0 1 0 15.11811,0 z"
         inkscape:connector-curvature="0" />
      <path
         id="path3941"
         style="fill:none;stroke:#000000"
         d="m -2.683162,1112.079 5.385815,-0.011 2.683162,-4.6699 -2.702653,-4.6586 -5.385815,0.011 -2.683162,4.6699 z"
         inkscape:connector-curvature="0" />
      <path
         id="path3943"
         style="fill:none;stroke:#000000"
         d="m 1301.2538,1502.1263 5.3859,-0.011 2.6831,-4.6699 -2.7026,-4.6586 -5.3858,0.011 -2.6832,4.6698 z"
         inkscape:connector-curvature="0" />
      <path
         id="path3945"
         style="fill:none;stroke:#000000"
         d="m 866.60818,1502.1263 5.38581,-0.011 2.68316,-4.6699 -2.70265,-4.6586 -5.38581,0.011 -2.68317,4.6698 z"
         inkscape:connector-curvature="0" />
      <path
         id="path3947"
         style="fill:none;stroke:#000000"
         d="m 431.96251,1502.1263 5.38581,-0.011 2.68316,-4.6699 -2.70265,-4.6586 -5.38581,0.011 -2.68317,4.6698 z"
         inkscape:connector-curvature="0" />
      <path
         id="path3949"
         style="fill:none;stroke:#000000"
         d="m 431.96251,1112.079 5.38581,-0.011 2.68316,-4.6699 -2.70265,-4.6586 -5.38581,0.011 -2.68317,4.6699 z"
         inkscape:connector-curvature="0" />
      <path
         id="path3951"
         style="fill:none;stroke:#000000"
         d="m 1301.2538,1112.079 5.3859,-0.011 2.6831,-4.6699 -2.7026,-4.6586 -5.3858,0.011 -2.6832,4.6699 z"
         inkscape:connector-curvature="0" />
      <path
         id="path3953"
         style="fill:none;stroke:#000000"
         d="m 866.60818,1112.079 5.38581,-0.011 2.68316,-4.6699 -2.70265,-4.6586 -5.38581,0.011 -2.68317,4.6699 z"
         inkscape:connector-curvature="0" />
      <path
         id="path3955"
         style="fill:none;stroke:#000000"
         d="m 2.702653,1502.115 2.683162,-4.6699 -2.702653,-4.6586 -5.385815,0.011 -2.683162,4.6698 2.702653,4.6587 z"
         inkscape:connector-curvature="0" />
    </g>
  </g>
</svg>
