<?xml version="1.0" encoding="UTF-8" standalone="no"?>
<!-- Created with Inkscape (http://www.inkscape.org/) -->

<svg
   xmlns:dc="http://purl.org/dc/elements/1.1/"
   xmlns:cc="http://creativecommons.org/ns#"
   xmlns:rdf="http://www.w3.org/1999/02/22-rdf-syntax-ns#"
   xmlns:svg="http://www.w3.org/2000/svg"
   xmlns="http://www.w3.org/2000/svg"
   xmlns:sodipodi="http://sodipodi.sourceforge.net/DTD/sodipodi-0.dtd"
   xmlns:inkscape="http://www.inkscape.org/namespaces/inkscape"
   width="420mm"
   height="210mm"
   viewBox="0 0 420 210"
   version="1.1"
   id="svg8"
   inkscape:version="0.92.4 (5da689c313, 2019-01-14)"
   sodipodi:docname="L4_full_plate_split_RSFT.svg">
  <defs
     id="defs2">
    <marker
       style="overflow:visible"
       refY="0.0"
       refX="0.0"
       orient="auto"
       id="DistanceX">
      <path
         id="path3715"
         style="stroke:#000000; stroke-width:0.5"
         d="M 3,-3 L -3,3 M 0,-5 L  0,5" />
    </marker>
    <pattern
       y="0"
       x="0"
       width="8"
       patternUnits="userSpaceOnUse"
       id="Hatch"
       height="8">
      <path
         id="path3718"
         stroke-width="0.25"
         stroke="#000000"
         linecap="square"
         d="M8 4 l-4,4" />
      <path
         id="path3720"
         stroke-width="0.25"
         stroke="#000000"
         linecap="square"
         d="M6 2 l-4,4" />
      <path
         id="path3722"
         stroke-width="0.25"
         stroke="#000000"
         linecap="square"
         d="M4 0 l-4,4" />
    </pattern>
    <symbol
       id="*MODEL_SPACE" />
    <symbol
       id="*PAPER_SPACE" />
    <marker
       style="overflow:visible"
       refY="0.0"
       refX="0.0"
       orient="auto"
       id="DistanceX-1">
      <path
         id="path3760"
         style="stroke:#000000; stroke-width:0.5"
         d="M 3,-3 L -3,3 M 0,-5 L  0,5" />
    </marker>
    <pattern
       y="0"
       x="0"
       width="8"
       patternUnits="userSpaceOnUse"
       id="Hatch-1"
       height="8">
      <path
         id="path3763"
         stroke-width="0.25"
         stroke="#000000"
         linecap="square"
         d="M8 4 l-4,4" />
      <path
         id="path3765"
         stroke-width="0.25"
         stroke="#000000"
         linecap="square"
         d="M6 2 l-4,4" />
      <path
         id="path3767"
         stroke-width="0.25"
         stroke="#000000"
         linecap="square"
         d="M4 0 l-4,4" />
    </pattern>
    <symbol
       id="*MODEL_SPACE-5" />
    <symbol
       id="*PAPER_SPACE-6" />
    <marker
       style="overflow:visible"
       refY="0.0"
       refX="0.0"
       orient="auto"
       id="DistanceX-4">
      <path
         id="path3805"
         style="stroke:#000000; stroke-width:0.5"
         d="M 3,-3 L -3,3 M 0,-5 L  0,5" />
    </marker>
    <pattern
       y="0"
       x="0"
       width="8"
       patternUnits="userSpaceOnUse"
       id="Hatch-7"
       height="8">
      <path
         id="path3808"
         stroke-width="0.25"
         stroke="#000000"
         linecap="square"
         d="M8 4 l-4,4" />
      <path
         id="path3810"
         stroke-width="0.25"
         stroke="#000000"
         linecap="square"
         d="M6 2 l-4,4" />
      <path
         id="path3812"
         stroke-width="0.25"
         stroke="#000000"
         linecap="square"
         d="M4 0 l-4,4" />
    </pattern>
    <symbol
       id="*MODEL_SPACE-59" />
    <symbol
       id="*PAPER_SPACE-5" />
    <marker
       style="overflow:visible"
       refY="0.0"
       refX="0.0"
       orient="auto"
       id="DistanceX-18">
      <path
         id="path3850"
         style="stroke:#000000; stroke-width:0.5"
         d="M 3,-3 L -3,3 M 0,-5 L  0,5" />
    </marker>
    <pattern
       y="0"
       x="0"
       width="8"
       patternUnits="userSpaceOnUse"
       id="Hatch-72"
       height="8">
      <path
         id="path3853"
         stroke-width="0.25"
         stroke="#000000"
         linecap="square"
         d="M8 4 l-4,4" />
      <path
         id="path3855"
         stroke-width="0.25"
         stroke="#000000"
         linecap="square"
         d="M6 2 l-4,4" />
      <path
         id="path3857"
         stroke-width="0.25"
         stroke="#000000"
         linecap="square"
         d="M4 0 l-4,4" />
    </pattern>
    <symbol
       id="*MODEL_SPACE-0" />
    <symbol
       id="*PAPER_SPACE-3" />
    <marker
       style="overflow:visible"
       refY="0.0"
       refX="0.0"
       orient="auto"
       id="DistanceX-6">
      <path
         id="path3919"
         style="stroke:#000000; stroke-width:0.5"
         d="M 3,-3 L -3,3 M 0,-5 L  0,5" />
    </marker>
    <pattern
       y="0"
       x="0"
       width="8"
       patternUnits="userSpaceOnUse"
       id="Hatch-0"
       height="8">
      <path
         id="path3922"
         stroke-width="0.25"
         stroke="#000000"
         linecap="square"
         d="M8 4 l-4,4" />
      <path
         id="path3924"
         stroke-width="0.25"
         stroke="#000000"
         linecap="square"
         d="M6 2 l-4,4" />
      <path
         id="path3926"
         stroke-width="0.25"
         stroke="#000000"
         linecap="square"
         d="M4 0 l-4,4" />
    </pattern>
    <symbol
       id="*MODEL_SPACE-1" />
    <symbol
       id="*PAPER_SPACE-4" />
    <marker
       style="overflow:visible"
       refY="0.0"
       refX="0.0"
       orient="auto"
       id="DistanceX-8">
      <path
         id="path3988"
         style="stroke:#000000; stroke-width:0.5"
         d="M 3,-3 L -3,3 M 0,-5 L  0,5" />
    </marker>
    <pattern
       y="0"
       x="0"
       width="8"
       patternUnits="userSpaceOnUse"
       id="Hatch-9"
       height="8">
      <path
         id="path3991"
         stroke-width="0.25"
         stroke="#000000"
         linecap="square"
         d="M8 4 l-4,4" />
      <path
         id="path3993"
         stroke-width="0.25"
         stroke="#000000"
         linecap="square"
         d="M6 2 l-4,4" />
      <path
         id="path3995"
         stroke-width="0.25"
         stroke="#000000"
         linecap="square"
         d="M4 0 l-4,4" />
    </pattern>
    <symbol
       id="*MODEL_SPACE-9" />
    <symbol
       id="*PAPER_SPACE-7" />
    <marker
       style="overflow:visible"
       refY="0.0"
       refX="0.0"
       orient="auto"
       id="DistanceX-2">
      <path
         id="path4048"
         style="stroke:#000000; stroke-width:0.5"
         d="M 3,-3 L -3,3 M 0,-5 L  0,5" />
    </marker>
    <pattern
       y="0"
       x="0"
       width="8"
       patternUnits="userSpaceOnUse"
       id="Hatch-2"
       height="8">
      <path
         id="path4051"
         stroke-width="0.25"
         stroke="#000000"
         linecap="square"
         d="M8 4 l-4,4" />
      <path
         id="path4053"
         stroke-width="0.25"
         stroke="#000000"
         linecap="square"
         d="M6 2 l-4,4" />
      <path
         id="path4055"
         stroke-width="0.25"
         stroke="#000000"
         linecap="square"
         d="M4 0 l-4,4" />
    </pattern>
    <symbol
       id="*MODEL_SPACE-01" />
    <symbol
       id="*PAPER_SPACE-64" />
    <marker
       style="overflow:visible"
       refY="0.0"
       refX="0.0"
       orient="auto"
       id="DistanceX-3">
      <path
         id="path4321"
         style="stroke:#000000; stroke-width:0.5"
         d="M 3,-3 L -3,3 M 0,-5 L  0,5" />
    </marker>
    <pattern
       y="0"
       x="0"
       width="8"
       patternUnits="userSpaceOnUse"
       id="Hatch-8"
       height="8">
      <path
         id="path4324"
         stroke-width="0.25"
         stroke="#000000"
         linecap="square"
         d="M8 4 l-4,4" />
      <path
         id="path4326"
         stroke-width="0.25"
         stroke="#000000"
         linecap="square"
         d="M6 2 l-4,4" />
      <path
         id="path4328"
         stroke-width="0.25"
         stroke="#000000"
         linecap="square"
         d="M4 0 l-4,4" />
    </pattern>
    <symbol
       id="*MODEL_SPACE-16" />
    <symbol
       id="*PAPER_SPACE-65" />
    <marker
       style="overflow:visible"
       refY="0.0"
       refX="0.0"
       orient="auto"
       id="DistanceX-49">
      <path
         id="path4471"
         style="stroke:#000000; stroke-width:0.5"
         d="M 3,-3 L -3,3 M 0,-5 L  0,5" />
    </marker>
    <pattern
       y="0"
       x="0"
       width="8"
       patternUnits="userSpaceOnUse"
       id="Hatch-18"
       height="8">
      <path
         id="path4474"
         stroke-width="0.25"
         stroke="#000000"
         linecap="square"
         d="M8 4 l-4,4" />
      <path
         id="path4476"
         stroke-width="0.25"
         stroke="#000000"
         linecap="square"
         d="M6 2 l-4,4" />
      <path
         id="path4478"
         stroke-width="0.25"
         stroke="#000000"
         linecap="square"
         d="M4 0 l-4,4" />
    </pattern>
    <symbol
       id="*MODEL_SPACE-55" />
    <symbol
       id="*PAPER_SPACE-2" />
    <marker
       style="overflow:visible"
       refY="0.0"
       refX="0.0"
       orient="auto"
       id="DistanceX-88">
      <path
         id="path4540"
         style="stroke:#000000; stroke-width:0.5"
         d="M 3,-3 L -3,3 M 0,-5 L  0,5" />
    </marker>
    <pattern
       y="0"
       x="0"
       width="8"
       patternUnits="userSpaceOnUse"
       id="Hatch-20"
       height="8">
      <path
         id="path4543"
         stroke-width="0.25"
         stroke="#000000"
         linecap="square"
         d="M8 4 l-4,4" />
      <path
         id="path4545"
         stroke-width="0.25"
         stroke="#000000"
         linecap="square"
         d="M6 2 l-4,4" />
      <path
         id="path4547"
         stroke-width="0.25"
         stroke="#000000"
         linecap="square"
         d="M4 0 l-4,4" />
    </pattern>
    <symbol
       id="*MODEL_SPACE-4" />
    <symbol
       id="*PAPER_SPACE-61" />
    <marker
       style="overflow:visible"
       refY="0.0"
       refX="0.0"
       orient="auto"
       id="DistanceX-38">
      <path
         id="path4609"
         style="stroke:#000000; stroke-width:0.5"
         d="M 3,-3 L -3,3 M 0,-5 L  0,5" />
    </marker>
    <pattern
       y="0"
       x="0"
       width="8"
       patternUnits="userSpaceOnUse"
       id="Hatch-16"
       height="8">
      <path
         id="path4612"
         stroke-width="0.25"
         stroke="#000000"
         linecap="square"
         d="M8 4 l-4,4" />
      <path
         id="path4614"
         stroke-width="0.25"
         stroke="#000000"
         linecap="square"
         d="M6 2 l-4,4" />
      <path
         id="path4616"
         stroke-width="0.25"
         stroke="#000000"
         linecap="square"
         d="M4 0 l-4,4" />
    </pattern>
    <symbol
       id="*MODEL_SPACE-014" />
    <symbol
       id="*PAPER_SPACE-71" />
    <marker
       style="overflow:visible"
       refY="0.0"
       refX="0.0"
       orient="auto"
       id="DistanceX-9">
      <path
         id="path118"
         style="stroke:#000000; stroke-width:0.5"
         d="M 3,-3 L -3,3 M 0,-5 L  0,5" />
    </marker>
    <pattern
       y="0"
       x="0"
       width="8"
       patternUnits="userSpaceOnUse"
       id="Hatch-82"
       height="8">
      <path
         id="path121"
         stroke-width="0.25"
         stroke="#000000"
         linecap="square"
         d="M8 4 l-4,4" />
      <path
         id="path123"
         stroke-width="0.25"
         stroke="#000000"
         linecap="square"
         d="M6 2 l-4,4" />
      <path
         id="path125"
         stroke-width="0.25"
         stroke="#000000"
         linecap="square"
         d="M4 0 l-4,4" />
    </pattern>
    <symbol
       id="*MODEL_SPACE-48" />
    <symbol
       id="*PAPER_SPACE-78" />
    <marker
       style="overflow:visible"
       refY="0.0"
       refX="0.0"
       orient="auto"
       id="DistanceX-0">
      <path
         id="path5923"
         style="stroke:#000000; stroke-width:0.5"
         d="M 3,-3 L -3,3 M 0,-5 L  0,5" />
    </marker>
    <pattern
       y="0"
       x="0"
       width="8"
       patternUnits="userSpaceOnUse"
       id="Hatch-5"
       height="8">
      <path
         id="path5926"
         stroke-width="0.25"
         stroke="#000000"
         linecap="square"
         d="M8 4 l-4,4" />
      <path
         id="path5928"
         stroke-width="0.25"
         stroke="#000000"
         linecap="square"
         d="M6 2 l-4,4" />
      <path
         id="path5930"
         stroke-width="0.25"
         stroke="#000000"
         linecap="square"
         d="M4 0 l-4,4" />
    </pattern>
    <symbol
       id="*MODEL_SPACE-3" />
    <symbol
       id="*PAPER_SPACE-21" />
    <marker
       style="overflow:visible"
       refY="0.0"
       refX="0.0"
       orient="auto"
       id="DistanceX-33">
      <path
         id="path6268"
         style="stroke:#000000; stroke-width:0.5"
         d="M 3,-3 L -3,3 M 0,-5 L  0,5" />
    </marker>
    <pattern
       y="0"
       x="0"
       width="8"
       patternUnits="userSpaceOnUse"
       id="Hatch-6"
       height="8">
      <path
         id="path6271"
         stroke-width="0.25"
         stroke="#000000"
         linecap="square"
         d="M8 4 l-4,4" />
      <path
         id="path6273"
         stroke-width="0.25"
         stroke="#000000"
         linecap="square"
         d="M6 2 l-4,4" />
      <path
         id="path6275"
         stroke-width="0.25"
         stroke="#000000"
         linecap="square"
         d="M4 0 l-4,4" />
    </pattern>
    <symbol
       id="*MODEL_SPACE-92" />
    <symbol
       id="*PAPER_SPACE-8" />
  </defs>
  <sodipodi:namedview
     id="base"
     pagecolor="#ffffff"
     bordercolor="#666666"
     borderopacity="1.0"
     inkscape:pageopacity="0.0"
     inkscape:pageshadow="2"
     inkscape:zoom="0.35"
     inkscape:cx="-422.85714"
     inkscape:cy="674.28571"
     inkscape:document-units="mm"
     inkscape:current-layer="layer1"
     showgrid="false"
     inkscape:window-width="2560"
     inkscape:window-height="1361"
     inkscape:window-x="1431"
     inkscape:window-y="-9"
     inkscape:window-maximized="1" />
  <metadata
     id="metadata5">
    <rdf:RDF>
      <cc:Work
         rdf:about="">
        <dc:format>image/svg+xml</dc:format>
        <dc:type
           rdf:resource="http://purl.org/dc/dcmitype/StillImage" />
        <dc:title></dc:title>
      </cc:Work>
    </rdf:RDF>
  </metadata>
  <g
     inkscape:label="Layer 1"
     inkscape:groupmode="layer"
     id="layer1"
     transform="translate(0,-87)">
    <g
       id="g6442"
       inkscape:label="0"
       transform="matrix(0.26458333,0,0,0.26458333,36.168754,-152.625)">
      <path
         id="path6282"
         style="fill:none;stroke:#000000"
         d="m 508.67716,1348.063 a 3.779528,3.779528 0 0 1 3.77953,3.7795 v 45.3544 a 3.779528,3.779528 0 0 1 -3.77953,3.7795 h -45.35433 a 3.779528,3.779528 0 0 1 -3.77952,-3.7795 v -45.3544 a 3.779528,3.779528 0 0 1 3.77952,-3.7795 z"
         inkscape:connector-curvature="0" />
      <path
         id="path6284"
         style="fill:none;stroke:#000000"
         d="m 621.54331,1207.8425 v 45.3544 a 3.779528,3.779528 0 0 0 3.77953,3.7795 h 45.35432 a 3.779528,3.779528 0 0 0 3.77953,-3.7795 v -45.3544 a 3.779528,3.779528 0 0 0 -3.77953,-3.7795 h -45.35432 a 3.779528,3.779528 0 0 0 -3.77953,3.7795 z"
         inkscape:connector-curvature="0" />
      <path
         id="path6286"
         style="fill:none;stroke:#000000"
         d="m 1251.5433,1207.8425 a 3.779528,3.779528 0 0 1 3.7795,-3.7795 h 45.3544 a 3.779528,3.779528 0 0 1 3.7795,3.7795 v 45.3544 a 3.779528,3.779528 0 0 1 -3.7795,3.7795 h -45.3544 a 3.779528,3.779528 0 0 1 -3.7795,-3.7795 z"
         inkscape:connector-curvature="0" />
      <path
         id="path6288"
         style="fill:none;stroke:#000000"
         d="m 333.54331,1207.8425 a 3.779528,3.779528 0 0 1 3.77952,-3.7795 h 45.35433 a 3.779528,3.779528 0 0 1 3.77953,3.7795 v 45.3544 a 3.779528,3.779528 0 0 1 -3.77953,3.7795 h -45.35433 a 3.779528,3.779528 0 0 1 -3.77952,-3.7795 z"
         inkscape:connector-curvature="0" />
      <path
         id="path6290"
         style="fill:none;stroke:#000000"
         d="m 1107.5433,1423.8425 a 3.779528,3.779528 0 0 1 3.7795,-3.7795 h 45.3544 a 3.779528,3.779528 0 0 1 3.7795,3.7795 v 45.3544 a 3.779528,3.779528 0 0 1 -3.7795,3.7795 h -45.3544 a 3.779528,3.779528 0 0 1 -3.7795,-3.7795 z"
         inkscape:connector-curvature="0" />
      <path
         id="path6292"
         style="fill:none;stroke:#000000"
         d="m 855.54331,1279.8425 v 45.3544 a 3.779528,3.779528 0 0 0 3.77953,3.7795 h 45.35432 a 3.779528,3.779528 0 0 0 3.77953,-3.7795 v -45.3544 a 3.779528,3.779528 0 0 0 -3.77953,-3.7795 h -45.35432 a 3.779528,3.779528 0 0 0 -3.77953,3.7795 z"
         inkscape:connector-curvature="0" />
      <path
         id="path6294"
         style="fill:none;stroke:#000000"
         d="m 9.543307,1135.8425 a 3.779528,3.779528 0 0 1 3.779528,-3.7795 h 45.35433 a 3.779528,3.779528 0 0 1 3.779528,3.7795 v 45.3544 a 3.779528,3.779528 0 0 1 -3.779528,3.7795 h -45.35433 a 3.779528,3.779528 0 0 1 -3.779528,-3.7795 z"
         inkscape:connector-curvature="0" />
      <path
         id="path6296"
         style="fill:none;stroke:#000000"
         d="m 387.54331,1351.8425 a 3.779528,3.779528 0 0 1 3.77952,-3.7795 h 45.35433 a 3.779528,3.779528 0 0 1 3.77953,3.7795 v 45.3544 a 3.779528,3.779528 0 0 1 -3.77953,3.7795 h -45.35433 a 3.779528,3.779528 0 0 1 -3.77952,-3.7795 z"
         inkscape:connector-curvature="0" />
      <path
         id="path6298"
         style="fill:none;stroke:#000000"
         d="m 247.76919,1472.9764 a 3.779528,3.779528 0 0 1 -0.0928,0 h -45.35433 a 3.779528,3.779528 0 0 1 -3.77953,-3.7795 v -45.3543 a 3.779528,3.779528 0 0 1 3.77953,-3.7796 h 8.90798 a 3.779528,3.779528 0 0 1 0.0928,0 h 45.35433 a 3.779528,3.779528 0 0 1 3.77953,3.7795 v 45.3544 a 3.779528,3.779528 0 0 1 -3.77953,3.7795 z"
         inkscape:connector-curvature="0" />
      <path
         id="path6300"
         style="fill:none;stroke:#000000"
         d="m 513.54331,1135.8425 a 3.779528,3.779528 0 0 1 3.77953,-3.7795 h 45.35432 a 3.779528,3.779528 0 0 1 3.77953,3.7795 v 45.3544 a 3.779528,3.779528 0 0 1 -3.77953,3.7795 h -45.35432 a 3.779528,3.779528 0 0 1 -3.77953,-3.7795 z"
         inkscape:connector-curvature="0" />
      <path
         id="path6302"
         style="fill:none;stroke:#000000"
         d="m 783.54331,1279.8425 a 3.779528,3.779528 0 0 1 3.77953,-3.7795 h 45.35432 a 3.779528,3.779528 0 0 1 3.77953,3.7795 v 45.3544 a 3.779528,3.779528 0 0 1 -3.77953,3.7795 h -45.35432 a 3.779528,3.779528 0 0 1 -3.77953,-3.7795 z"
         inkscape:connector-curvature="0" />
      <path
         id="path6304"
         style="fill:none;stroke:#000000"
         d="m 819.54331,1351.8425 a 3.779528,3.779528 0 0 1 3.77953,-3.7795 h 45.35432 a 3.779528,3.779528 0 0 1 3.77953,3.7795 v 45.3544 a 3.779528,3.779528 0 0 1 -3.77953,3.7795 h -45.35432 a 3.779528,3.779528 0 0 1 -3.77953,-3.7795 z"
         inkscape:connector-curvature="0" />
      <path
         id="path6306"
         style="fill:none;stroke:#000000"
         d="m 1057.6764,1420.0641 h -8.9065 a 3.779528,3.779528 0 0 0 -0.093,0 h -45.3544 a 3.779528,3.779528 0 0 0 -3.77949,3.7795 v 45.3544 a 3.779528,3.779528 0 0 0 3.77949,3.7795 h 8.9065 a 3.779528,3.779528 0 0 0 0.093,0 h 45.3543 a 3.779528,3.779528 0 0 0 3.7796,-3.7795 v -45.3543 a 3.779528,3.779528 0 0 0 -3.7796,-3.7796 z"
         inkscape:connector-curvature="0" />
      <path
         id="path6308"
         style="fill:none;stroke:#000000"
         d="m 243.54331,1351.8425 a 3.779528,3.779528 0 0 1 3.77952,-3.7795 h 45.35433 a 3.779528,3.779528 0 0 1 3.77953,3.7795 v 45.3544 a 3.779528,3.779528 0 0 1 -3.77953,3.7795 h -45.35433 a 3.779528,3.779528 0 0 1 -3.77952,-3.7795 z"
         inkscape:connector-curvature="0" />
      <path
         id="path6310"
         style="fill:none;stroke:#000000"
         d="m 81.543307,1135.8425 a 3.779528,3.779528 0 0 1 3.779528,-3.7795 h 45.354325 a 3.779528,3.779528 0 0 1 3.77953,3.7795 v 45.3544 a 3.779528,3.779528 0 0 1 -3.77953,3.7795 H 85.322835 a 3.779528,3.779528 0 0 1 -3.779528,-3.7795 z"
         inkscape:connector-curvature="0" />
      <path
         id="path6312"
         style="fill:none;stroke:#000000"
         d="m 27.543307,1207.8425 a 3.779528,3.779528 0 0 1 3.779528,-3.7795 h 45.35433 a 3.779528,3.779528 0 0 1 3.779528,3.7795 v 45.3544 a 3.779528,3.779528 0 0 1 -3.779528,3.7795 h -45.35433 a 3.779528,3.779528 0 0 1 -3.779528,-3.7795 z"
         inkscape:connector-curvature="0" />
      <path
         id="path6314"
         style="fill:none;stroke:#000000"
         d="m 477.54331,1207.8425 a 3.779528,3.779528 0 0 1 3.77952,-3.7795 h 45.35433 a 3.779528,3.779528 0 0 1 3.77953,3.7795 v 45.3544 a 3.779528,3.779528 0 0 1 -3.77953,3.7795 h -45.35433 a 3.779528,3.779528 0 0 1 -3.77952,-3.7795 z"
         inkscape:connector-curvature="0" />
      <path
         id="path6316"
         style="fill:none;stroke:#000000"
         d="m 711.54331,1279.8425 a 3.779528,3.779528 0 0 1 3.77953,-3.7795 h 45.35432 a 3.779528,3.779528 0 0 1 3.77953,3.7795 v 45.3544 a 3.779528,3.779528 0 0 1 -3.77953,3.7795 h -45.35432 a 3.779528,3.779528 0 0 1 -3.77953,-3.7795 z"
         inkscape:connector-curvature="0" />
      <path
         id="path6318"
         style="fill:none;stroke:#000000"
         d="m 567.54331,1279.8425 a 3.779528,3.779528 0 0 1 3.77953,-3.7795 h 45.35432 a 3.779528,3.779528 0 0 1 3.77953,3.7795 v 45.3544 a 3.779528,3.779528 0 0 1 -3.77953,3.7795 h -45.35432 a 3.779528,3.779528 0 0 1 -3.77953,-3.7795 z"
         inkscape:connector-curvature="0" />
      <path
         id="path6320"
         style="fill:none;stroke:#000000"
         d="m 1179.5433,1423.8425 a 3.779528,3.779528 0 0 1 3.7795,-3.7795 h 45.3544 a 3.779528,3.779528 0 0 1 3.7795,3.7795 v 45.3544 a 3.779528,3.779528 0 0 1 -3.7795,3.7795 h -45.3544 a 3.779528,3.779528 0 0 1 -3.7795,-3.7795 z"
         inkscape:connector-curvature="0" />
      <path
         id="path6322"
         style="fill:none;stroke:#000000"
         d="m 999.54331,1207.8425 a 3.779528,3.779528 0 0 1 3.77949,-3.7795 h 45.3544 a 3.779528,3.779528 0 0 1 3.7795,3.7795 v 45.3544 a 3.779528,3.779528 0 0 1 -3.7795,3.7795 h -45.3544 a 3.779528,3.779528 0 0 1 -3.77949,-3.7795 z"
         inkscape:connector-curvature="0" />
      <path
         id="path6324"
         style="fill:none;stroke:#000000"
         d="m 657.54331,1135.8425 a 3.779528,3.779528 0 0 1 3.77953,-3.7795 h 45.35432 a 3.779528,3.779528 0 0 1 3.77953,3.7795 v 45.3544 a 3.779528,3.779528 0 0 1 -3.77953,3.7795 h -45.35432 a 3.779528,3.779528 0 0 1 -3.77953,-3.7795 z"
         inkscape:connector-curvature="0" />
      <path
         id="path6326"
         style="fill:none;stroke:#000000"
         d="m 225.54331,1135.8425 a 3.779528,3.779528 0 0 1 3.77952,-3.7795 h 45.35433 a 3.779528,3.779528 0 0 1 3.77953,3.7795 v 45.3544 a 3.779528,3.779528 0 0 1 -3.77953,3.7795 h -45.35433 a 3.779528,3.779528 0 0 1 -3.77952,-3.7795 z"
         inkscape:connector-curvature="0" />
      <path
         id="path6328"
         style="fill:none;stroke:#000000"
         d="m 801.54331,1135.8425 a 3.779528,3.779528 0 0 1 3.77953,-3.7795 h 45.35432 a 3.779528,3.779528 0 0 1 3.77953,3.7795 v 45.3544 a 3.779528,3.779528 0 0 1 -3.77953,3.7795 h -45.35432 a 3.779528,3.779528 0 0 1 -3.77953,-3.7795 z"
         inkscape:connector-curvature="0" />
      <path
         id="path6330"
         style="fill:none;stroke:#000000"
         d="m 639.54331,1279.8425 a 3.779528,3.779528 0 0 1 3.77953,-3.7795 h 45.35432 a 3.779528,3.779528 0 0 1 3.77953,3.7795 v 45.3544 a 3.779528,3.779528 0 0 1 -3.77953,3.7795 h -45.35432 a 3.779528,3.779528 0 0 1 -3.77953,-3.7795 z"
         inkscape:connector-curvature="0" />
      <path
         id="path6332"
         style="fill:none;stroke:#000000"
         d="m 207.54331,1279.8425 a 3.779528,3.779528 0 0 1 3.77952,-3.7795 h 45.35433 a 3.779528,3.779528 0 0 1 3.77953,3.7795 v 45.3544 a 3.779528,3.779528 0 0 1 -3.77953,3.7795 h -45.35433 a 3.779528,3.779528 0 0 1 -3.77952,-3.7795 z"
         inkscape:connector-curvature="0" />
      <path
         id="path6334"
         style="fill:none;stroke:#000000"
         d="m 909.54331,1207.8425 a 3.779528,3.779528 0 0 1 3.77953,-3.7795 h 45.35432 a 3.779528,3.779528 0 0 1 3.77953,3.7795 v 45.3544 a 3.779528,3.779528 0 0 1 -3.77953,3.7795 h -45.35432 a 3.779528,3.779528 0 0 1 -3.77953,-3.7795 z"
         inkscape:connector-curvature="0" />
      <path
         id="path6336"
         style="fill:none;stroke:#000000"
         d="m 944.74614,1181.4001 0.99074,0.9908 a 3.779528,3.779528 0 0 0 1.93835,2.2075 l -6e-4,10.0305 4.22232,4.2224 h 112.12235 l 4.2223,-4.2223 3e-4,-9.9917 a 3.779528,3.779528 0 0 0 2.0592,-2.3673 l 0.8699,-0.8699 v -45.9805 l -0.9872,-0.9872 a 3.779528,3.779528 0 0 0 -1.942,-2.0303 v -0.1057 a 3.779528,3.779528 0 0 0 -0.037,-0.017 l -0.7192,-4.1052 -3.7795,-3.7795 h -20.7874 l -2.6726,1.107 -1.107,2.6725 v 1.8898 l -1.8897,1.8898 h -58.58274 l -1.33629,-0.5535 -0.55351,-1.3363 v -1.8898 l -3.77951,-3.7795 h -20.78739 l -3.7795,3.7795 -0.71954,4.1118 a 3.779528,3.779528 0 0 0 -0.0358,0.017 l 2e-5,0.1384 a 3.779528,3.779528 0 0 0 -1.79737,1.8469 l -1.1317,1.1317 z"
         inkscape:connector-curvature="0" />
      <path
         id="path6338"
         style="fill:none;stroke:#000000"
         d="m 1017.5433,1351.8425 a 3.779528,3.779528 0 0 1 3.7795,-3.7795 h 45.3544 a 3.779528,3.779528 0 0 1 3.7795,3.7795 v 45.3544 a 3.779528,3.779528 0 0 1 -3.7795,3.7795 h -45.3544 a 3.779528,3.779528 0 0 1 -3.7795,-3.7795 z"
         inkscape:connector-curvature="0" />
      <path
         id="path6340"
         style="fill:none;stroke:#000000"
         d="m 967.67642,1420.0641 h -8.90649 a 3.779528,3.779528 0 0 0 -0.0928,0 h -45.35432 a 3.779528,3.779528 0 0 0 -3.77953,3.7795 v 45.3544 a 3.779528,3.779528 0 0 0 3.77953,3.7795 h 8.90649 a 3.779528,3.779528 0 0 0 0.0928,0 h 45.35433 a 3.779528,3.779528 0 0 0 3.77953,-3.7795 v -45.3543 a 3.779528,3.779528 0 0 0 -3.77953,-3.7796 z"
         inkscape:connector-curvature="0" />
      <path
         id="path6342"
         style="fill:none;stroke:#000000"
         d="m 315.54331,1351.8425 a 3.779528,3.779528 0 0 1 3.77952,-3.7795 h 45.35433 a 3.779528,3.779528 0 0 1 3.77953,3.7795 v 45.3544 a 3.779528,3.779528 0 0 1 -3.77953,3.7795 h -45.35433 a 3.779528,3.779528 0 0 1 -3.77952,-3.7795 z"
         inkscape:connector-curvature="0" />
      <path
         id="path6344"
         style="fill:none;stroke:#000000"
         d="m 261.54331,1207.8425 a 3.779528,3.779528 0 0 1 3.77952,-3.7795 h 45.35433 a 3.779528,3.779528 0 0 1 3.77953,3.7795 v 45.3544 a 3.779528,3.779528 0 0 1 -3.77953,3.7795 h -45.35433 a 3.779528,3.779528 0 0 1 -3.77952,-3.7795 z"
         inkscape:connector-curvature="0" />
      <path
         id="path6346"
         style="fill:none;stroke:#000000"
         d="m 369.54331,1135.8425 a 3.779528,3.779528 0 0 1 3.77952,-3.7795 h 45.35433 a 3.779528,3.779528 0 0 1 3.77953,3.7795 v 45.3544 a 3.779528,3.779528 0 0 1 -3.77953,3.7795 h -45.35433 a 3.779528,3.779528 0 0 1 -3.77952,-3.7795 z"
         inkscape:connector-curvature="0" />
      <path
         id="path6348"
         style="fill:none;stroke:#000000"
         d="m 351.54331,1279.8425 a 3.779528,3.779528 0 0 1 3.77952,-3.7795 h 45.35433 a 3.779528,3.779528 0 0 1 3.77953,3.7795 v 45.3544 a 3.779528,3.779528 0 0 1 -3.77953,3.7795 h -45.35433 a 3.779528,3.779528 0 0 1 -3.77952,-3.7795 z"
         inkscape:connector-curvature="0" />
      <path
         id="path6350"
         style="fill:none;stroke:#000000"
         d="m 171.54331,1351.8425 a 3.779528,3.779528 0 0 1 3.77952,-3.7795 h 45.35433 a 3.779528,3.779528 0 0 1 3.77953,3.7795 v 45.3544 a 3.779528,3.779528 0 0 1 -3.77953,3.7795 h -45.35433 a 3.779528,3.779528 0 0 1 -3.77952,-3.7795 z"
         inkscape:connector-curvature="0" />
      <path
         id="path6352"
         style="fill:none;stroke:#000000"
         d="m 1179.5433,1351.8425 a 3.779528,3.779528 0 0 1 3.7795,-3.7795 h 45.3544 a 3.779528,3.779528 0 0 1 3.7795,3.7795 v 45.3544 a 3.779528,3.779528 0 0 1 -3.7795,3.7795 h -45.3544 a 3.779528,3.779528 0 0 1 -3.7795,-3.7795 z"
         inkscape:connector-curvature="0" />
      <path
         id="path6354"
         style="fill:none;stroke:#000000"
         d="m 423.54331,1279.8425 a 3.779528,3.779528 0 0 1 3.77952,-3.7795 h 45.35433 a 3.779528,3.779528 0 0 1 3.77953,3.7795 v 45.3544 a 3.779528,3.779528 0 0 1 -3.77953,3.7795 h -45.35433 a 3.779528,3.779528 0 0 1 -3.77952,-3.7795 z"
         inkscape:connector-curvature="0" />
      <path
         id="path6356"
         style="fill:none;stroke:#000000"
         d="m 675.54331,1351.8425 a 3.779528,3.779528 0 0 1 3.77953,-3.7795 h 45.35432 a 3.779528,3.779528 0 0 1 3.77953,3.7795 v 45.3544 a 3.779528,3.779528 0 0 1 -3.77953,3.7795 h -45.35432 a 3.779528,3.779528 0 0 1 -3.77953,-3.7795 z"
         inkscape:connector-curvature="0" />
      <path
         id="path6358"
         style="fill:none;stroke:#000000"
         d="m 189.54331,1207.8425 v 45.3544 a 3.779528,3.779528 0 0 0 3.77952,3.7795 h 45.35433 a 3.779528,3.779528 0 0 0 3.77953,-3.7795 v -45.3544 a 3.779528,3.779528 0 0 0 -3.77953,-3.7795 h -45.35433 a 3.779528,3.779528 0 0 0 -3.77952,3.7795 z"
         inkscape:connector-curvature="0" />
      <path
         id="path6360"
         style="fill:none;stroke:#000000"
         d="m 652.67716,1348.063 a 3.779528,3.779528 0 0 1 3.77953,3.7795 v 45.3544 a 3.779528,3.779528 0 0 1 -3.77953,3.7795 h -45.35432 a 3.779528,3.779528 0 0 1 -3.77953,-3.7795 v -45.3544 a 3.779528,3.779528 0 0 1 3.77953,-3.7795 z"
         inkscape:connector-curvature="0" />
      <path
         id="path6362"
         style="fill:none;stroke:#000000"
         d="m 729.54331,1135.8425 v 45.3544 a 3.779528,3.779528 0 0 0 3.77953,3.7795 h 45.35432 a 3.779528,3.779528 0 0 0 3.77953,-3.7795 v -45.3544 a 3.779528,3.779528 0 0 0 -3.77953,-3.7795 h -45.35432 a 3.779528,3.779528 0 0 0 -3.77953,3.7795 z"
         inkscape:connector-curvature="0" />
      <path
         id="path6364"
         style="fill:none;stroke:#000000"
         d="m 117.54331,1207.8425 a 3.779528,3.779528 0 0 1 3.77952,-3.7795 h 45.35433 a 3.779528,3.779528 0 0 1 3.77953,3.7795 v 45.3544 a 3.779528,3.779528 0 0 1 -3.77953,3.7795 h -45.35433 a 3.779528,3.779528 0 0 1 -3.77952,-3.7795 z"
         inkscape:connector-curvature="0" />
      <path
         id="path6366"
         style="fill:none;stroke:#000000"
         d="m 747.54331,1351.8425 a 3.779528,3.779528 0 0 1 3.77953,-3.7795 h 45.35432 a 3.779528,3.779528 0 0 1 3.77953,3.7795 v 45.3544 a 3.779528,3.779528 0 0 1 -3.77953,3.7795 h -45.35432 a 3.779528,3.779528 0 0 1 -3.77953,-3.7795 z"
         inkscape:connector-curvature="0" />
      <path
         id="path6368"
         style="fill:none;stroke:#000000"
         d="m 837.54331,1207.8425 a 3.779528,3.779528 0 0 1 3.77953,-3.7795 h 45.35432 a 3.779528,3.779528 0 0 1 3.77953,3.7795 v 45.3544 a 3.779528,3.779528 0 0 1 -3.77953,3.7795 h -45.35432 a 3.779528,3.779528 0 0 1 -3.77953,-3.7795 z"
         inkscape:connector-curvature="0" />
      <path
         id="path6370"
         style="fill:none;stroke:#000000"
         d="m 441.54331,1135.8425 v 45.3544 a 3.779528,3.779528 0 0 0 3.77952,3.7795 h 45.35433 a 3.779528,3.779528 0 0 0 3.77953,-3.7795 v -45.3544 a 3.779528,3.779528 0 0 0 -3.77953,-3.7795 h -45.35433 a 3.779528,3.779528 0 0 0 -3.77952,3.7795 z"
         inkscape:connector-curvature="0" />
      <path
         id="path6372"
         style="fill:none;stroke:#000000"
         d="m 598.67716,1204.063 a 3.779528,3.779528 0 0 1 3.77953,3.7795 v 45.3544 a 3.779528,3.779528 0 0 1 -3.77953,3.7795 h -45.35432 a 3.779528,3.779528 0 0 1 -3.77953,-3.7795 v -45.3544 a 3.779528,3.779528 0 0 1 3.77953,-3.7795 z"
         inkscape:connector-curvature="0" />
      <path
         id="path6374"
         style="fill:none;stroke:#000000"
         d="m 1179.5433,1135.8425 a 3.779528,3.779528 0 0 1 3.7795,-3.7795 h 45.3544 a 3.779528,3.779528 0 0 1 3.7795,3.7795 v 45.3544 a 3.779528,3.779528 0 0 1 -3.7795,3.7795 h -45.3544 a 3.779528,3.779528 0 0 1 -3.7795,-3.7795 z"
         inkscape:connector-curvature="0" />
      <path
         id="path6376"
         style="fill:none;stroke:#000000"
         d="m 918.54331,1351.8425 a 3.779528,3.779528 0 0 1 3.77953,-3.7795 h 45.35432 a 3.779528,3.779528 0 0 1 3.77953,3.7795 v 45.3544 a 3.779528,3.779528 0 0 1 -3.77953,3.7795 h -45.35432 a 3.779528,3.779528 0 0 1 -3.77953,-3.7795 z"
         inkscape:connector-curvature="0" />
      <path
         id="path6378"
         style="fill:none;stroke:#000000"
         d="m 693.54331,1207.8425 a 3.779528,3.779528 0 0 1 3.77953,-3.7795 h 45.35432 a 3.779528,3.779528 0 0 1 3.77953,3.7795 v 45.3544 a 3.779528,3.779528 0 0 1 -3.77953,3.7795 h -45.35432 a 3.779528,3.779528 0 0 1 -3.77953,-3.7795 z"
         inkscape:connector-curvature="0" />
      <path
         id="path6380"
         style="fill:none;stroke:#000000"
         d="m 585.54331,1135.8425 a 3.779528,3.779528 0 0 1 3.77953,-3.7795 h 45.35432 a 3.779528,3.779528 0 0 1 3.77953,3.7795 v 45.3544 a 3.779528,3.779528 0 0 1 -3.77953,3.7795 h -45.35432 a 3.779528,3.779528 0 0 1 -3.77953,-3.7795 z"
         inkscape:connector-curvature="0" />
      <path
         id="path6382"
         style="fill:none;stroke:#000000"
         d="m 1179.5433,1207.8425 v 45.3544 a 3.779528,3.779528 0 0 0 3.7795,3.7795 h 45.3544 a 3.779528,3.779528 0 0 0 3.7795,-3.7795 v -45.3544 a 3.779528,3.779528 0 0 0 -3.7795,-3.7795 h -45.3544 a 3.779528,3.779528 0 0 0 -3.7795,3.7795 z"
         inkscape:connector-curvature="0" />
      <path
         id="path6384"
         style="fill:none;stroke:#000000"
         d="m 1251.5433,1423.8425 a 3.779528,3.779528 0 0 1 3.7795,-3.7795 h 45.3544 a 3.779528,3.779528 0 0 1 3.7795,3.7795 v 45.3544 a 3.779528,3.779528 0 0 1 -3.7795,3.7795 h -45.3544 a 3.779528,3.779528 0 0 1 -3.7795,-3.7795 z"
         inkscape:connector-curvature="0" />
      <path
         id="path6386"
         style="fill:none;stroke:#000000"
         d="m 297.54331,1135.8425 a 3.779528,3.779528 0 0 1 3.77952,-3.7795 h 45.35433 a 3.779528,3.779528 0 0 1 3.77953,3.7795 v 45.3544 a 3.779528,3.779528 0 0 1 -3.77953,3.7795 h -45.35433 a 3.779528,3.779528 0 0 1 -3.77952,-3.7795 z"
         inkscape:connector-curvature="0" />
      <path
         id="path6388"
         style="fill:none;stroke:#000000"
         d="m 580.67716,1348.063 a 3.779528,3.779528 0 0 1 3.77953,3.7795 v 45.3544 a 3.779528,3.779528 0 0 1 -3.77953,3.7795 h -45.35432 a 3.779528,3.779528 0 0 1 -3.77953,-3.7795 v -45.3544 a 3.779528,3.779528 0 0 1 3.77953,-3.7795 z"
         inkscape:connector-curvature="0" />
      <path
         id="path6390"
         style="fill:none;stroke:#000000"
         d="m 765.54331,1207.8425 a 3.779528,3.779528 0 0 1 3.77953,-3.7795 h 45.35432 a 3.779528,3.779528 0 0 1 3.77953,3.7795 v 45.3544 a 3.779528,3.779528 0 0 1 -3.77953,3.7795 h -45.35432 a 3.779528,3.779528 0 0 1 -3.77953,-3.7795 z"
         inkscape:connector-curvature="0" />
      <path
         id="path6392"
         style="fill:none;stroke:#000000"
         d="m 877.67642,1420.0641 h -8.90649 a 3.779528,3.779528 0 0 0 -0.0928,0 h -45.35432 a 3.779528,3.779528 0 0 0 -3.77953,3.7795 v 45.3544 a 3.779528,3.779528 0 0 0 3.77953,3.7795 h 8.90649 a 3.779528,3.779528 0 0 0 0.0928,0 h 45.35433 a 3.779528,3.779528 0 0 0 3.77953,-3.7795 v -45.3543 a 3.779528,3.779528 0 0 0 -3.77953,-3.7796 z"
         inkscape:connector-curvature="0" />
      <path
         id="path6394"
         style="fill:none;stroke:#000000"
         d="m 454.67716,1204.063 a 3.779528,3.779528 0 0 1 3.77953,3.7795 v 45.3544 a 3.779528,3.779528 0 0 1 -3.77953,3.7795 h -45.35433 a 3.779528,3.779528 0 0 1 -3.77952,-3.7795 v -45.3544 a 3.779528,3.779528 0 0 1 3.77952,-3.7795 z"
         inkscape:connector-curvature="0" />
      <path
         id="path6396"
         style="fill:none;stroke:#000000"
         d="m 67.769189,1472.9764 a 3.779528,3.779528 0 0 1 -0.09277,0 h -45.35433 a 3.779528,3.779528 0 0 1 -3.779528,-3.7795 v -45.3543 a 3.779528,3.779528 0 0 1 3.779528,-3.7796 h 8.907976 a 3.779528,3.779528 0 0 1 0.09277,0 h 45.35433 a 3.779528,3.779528 0 0 1 3.779528,3.7795 v 45.3544 a 3.779528,3.779528 0 0 1 -3.779528,3.7795 z"
         inkscape:connector-curvature="0" />
      <path
         id="path6398"
         style="fill:none;stroke:#000000"
         d="m 1107.5433,1207.8425 v 45.3544 a 3.779528,3.779528 0 0 0 3.7795,3.7795 h 45.3544 a 3.779528,3.779528 0 0 0 3.7795,-3.7795 v -45.3544 a 3.779528,3.779528 0 0 0 -3.7795,-3.7795 h -45.3544 a 3.779528,3.779528 0 0 0 -3.7795,3.7795 z"
         inkscape:connector-curvature="0" />
      <path
         id="path6400"
         style="fill:none;stroke:#000000"
         d="m 36.543307,1279.8425 a 3.779528,3.779528 0 0 1 3.779528,-3.7795 h 45.35433 a 3.779528,3.779528 0 0 1 3.779528,3.7795 v 45.3544 a 3.779528,3.779528 0 0 1 -3.779528,3.7795 h -45.35433 a 3.779528,3.779528 0 0 1 -3.779528,-3.7795 z"
         inkscape:connector-curvature="0" />
      <path
         id="path6402"
         style="fill:none;stroke:#000000"
         d="m 157.76919,1472.9764 a 3.779528,3.779528 0 0 1 -0.0928,0 h -45.35433 a 3.779528,3.779528 0 0 1 -3.77953,-3.7795 v -45.3543 a 3.779528,3.779528 0 0 1 3.77953,-3.7796 h 8.90798 a 3.779528,3.779528 0 0 1 0.0928,0 h 45.35433 a 3.779528,3.779528 0 0 1 3.77953,3.7795 v 45.3544 a 3.779528,3.779528 0 0 1 -3.77953,3.7795 z"
         inkscape:connector-curvature="0" />
      <path
         id="path6404"
         style="fill:none;stroke:#000000"
         d="m 135.54331,1279.8425 a 3.779528,3.779528 0 0 1 3.77952,-3.7795 h 45.35433 a 3.779528,3.779528 0 0 1 3.77953,3.7795 v 45.3544 a 3.779528,3.779528 0 0 1 -3.77953,3.7795 h -45.35433 a 3.779528,3.779528 0 0 1 -3.77952,-3.7795 z"
         inkscape:connector-curvature="0" />
      <path
         id="path6406"
         style="fill:none;stroke:#000000"
         d="m 1107.5433,1135.8425 a 3.779528,3.779528 0 0 1 3.7795,-3.7795 h 45.3544 a 3.779528,3.779528 0 0 1 3.7795,3.7795 v 45.3544 a 3.779528,3.779528 0 0 1 -3.7795,3.7795 h -45.3544 a 3.779528,3.779528 0 0 1 -3.7795,-3.7795 z"
         inkscape:connector-curvature="0" />
      <path
         id="path6408"
         style="fill:none;stroke:#000000"
         d="m 873.54331,1135.8425 a 3.779528,3.779528 0 0 1 3.77953,-3.7795 h 45.35432 a 3.779528,3.779528 0 0 1 3.77953,3.7795 v 45.3544 a 3.779528,3.779528 0 0 1 -3.77953,3.7795 h -45.35432 a 3.779528,3.779528 0 0 1 -3.77953,-3.7795 z"
         inkscape:connector-curvature="0" />
      <path
         id="path6410"
         style="fill:none;stroke:#000000"
         d="m 495.54331,1279.8425 a 3.779528,3.779528 0 0 1 3.77952,-3.7795 h 45.35433 a 3.779528,3.779528 0 0 1 3.77953,3.7795 v 45.3544 a 3.779528,3.779528 0 0 1 -3.77953,3.7795 h -45.35433 a 3.779528,3.779528 0 0 1 -3.77952,-3.7795 z"
         inkscape:connector-curvature="0" />
      <path
         id="path6412"
         style="fill:none;stroke:#000000"
         d="m 153.54331,1135.8425 a 3.779528,3.779528 0 0 1 3.77952,-3.7795 h 45.35433 a 3.779528,3.779528 0 0 1 3.77953,3.7795 v 45.3544 a 3.779528,3.779528 0 0 1 -3.77953,3.7795 h -45.35433 a 3.779528,3.779528 0 0 1 -3.77952,-3.7795 z"
         inkscape:connector-curvature="0" />
      <path
         id="path6414"
         style="fill:none;stroke:#000000"
         d="m 1251.5433,1135.8425 a 3.779528,3.779528 0 0 1 3.7795,-3.7795 h 45.3544 a 3.779528,3.779528 0 0 1 3.7795,3.7795 v 45.3544 a 3.779528,3.779528 0 0 1 -3.7795,3.7795 h -45.3544 a 3.779528,3.779528 0 0 1 -3.7795,-3.7795 z"
         inkscape:connector-curvature="0" />
      <path
         id="path6416"
         style="fill:none;stroke:#000000"
         d="m 328.67716,1276.063 a 3.779528,3.779528 0 0 1 3.77953,3.7795 v 45.3544 a 3.779528,3.779528 0 0 1 -3.77953,3.7795 h -45.35433 a 3.779528,3.779528 0 0 1 -3.77952,-3.7795 v -45.3544 a 3.779528,3.779528 0 0 1 3.77952,-3.7795 z"
         inkscape:connector-curvature="0" />
      <path
         id="path6418"
         style="fill:none;stroke:#000000"
         d="m 941.53686,1343.5612 h 1.97377 a 3.779528,3.779528 0 0 0 0.52868,0.037 h 87.48339 l 24.9404,-0.04 a 3.779528,3.779528 0 0 0 3.7734,-3.7937 l -0.2488,-66.576 a 3.779528,3.779528 0 0 0 -3.7829,-3.7654 l -25.4558,0.023 a 3.779528,3.779528 0 0 0 -2.7569,1.1977 l -1.2995,1.3893 a 3.779528,3.779528 0 0 1 -3.562,1.1116 6.851031,6.851031 0 0 0 -1.4534,-0.1559 h -45.35436 a 6.851031,6.851031 0 0 0 -1.4534,0.1559 3.779528,3.779528 0 0 1 -3.56201,-1.1116 l -1.29955,-1.3893 a 3.779528,3.779528 0 0 0 -2.75684,-1.1977 l -25.45585,-0.023 a 3.779528,3.779528 0 0 0 -3.78287,3.7654 l -0.24884,66.576 a 3.779528,3.779528 0 0 0 3.77338,3.7937 z"
         inkscape:connector-curvature="0" />
      <path
         id="path6420"
         style="fill:none;stroke:#000000"
         d="m 23.536863,1415.5612 h 1.973766 a 3.779528,3.779528 0 0 0 0.528678,0.037 h 87.483423 l 24.94041,-0.04 a 3.779528,3.779528 0 0 0 3.77338,-3.7937 l -0.24884,-66.576 a 3.779528,3.779528 0 0 0 -3.78287,-3.7654 l -25.45585,0.023 a 3.779528,3.779528 0 0 0 -2.75685,1.1977 l -1.29954,1.3893 a 3.779528,3.779528 0 0 1 -3.56201,1.1116 6.851031,6.851031 0 0 0 -1.45339,-0.1559 H 58.322835 a 6.851031,6.851031 0 0 0 -1.453392,0.1559 3.779528,3.779528 0 0 1 -3.562011,-1.1116 l -1.299547,-1.3893 a 3.779528,3.779528 0 0 0 -2.756845,-1.1977 l -25.455847,-0.023 a 3.779528,3.779528 0 0 0 -3.782871,3.7654 l -0.248846,66.576 a 3.779528,3.779528 0 0 0 3.773387,3.7937 z"
         inkscape:connector-curvature="0" />
      <path
         id="path6422"
         style="fill:none;stroke:#000000"
         d="m 1325.3386,1065.8268 a 45.354331,45.354331 0 0 1 45.3543,45.3543 v 382.6772 a 45.354331,45.354331 0 0 1 -45.3543,45.3543 H -11.338583 a 45.354331,45.354331 0 0 1 -45.35433,-45.3543 v -382.6772 a 45.354331,45.354331 0 0 1 45.35433,-45.3543 z"
         inkscape:connector-curvature="0" />
      <path
         id="path6424"
         style="fill:none;stroke:#000000"
         d="m 1310.0787,1497.4488 a 6.141732,6.141732 0 1 0 -12.2834,0 6.141732,6.141732 0 1 0 12.2834,0 z"
         inkscape:connector-curvature="0" />
      <path
         id="path6426"
         style="fill:none;stroke:#000000"
         d="m 440.7874,1497.4488 a 6.1417325,6.1417325 0 1 0 -12.28346,0 6.1417325,6.1417325 0 1 0 12.28346,0 z"
         inkscape:connector-curvature="0" />
      <path
         id="path6428"
         style="fill:none;stroke:#000000"
         d="m 440.7874,1107.4016 a 6.1417325,6.1417325 0 1 0 -12.28346,0 6.1417325,6.1417325 0 1 0 12.28346,0 z"
         inkscape:connector-curvature="0" />
      <path
         id="path6430"
         style="fill:none;stroke:#000000"
         d="m 875.43307,1497.4488 a 6.1417325,6.1417325 0 1 0 -12.28346,0 6.1417325,6.1417325 0 1 0 12.28346,0 z"
         inkscape:connector-curvature="0" />
      <path
         id="path6432"
         style="fill:none;stroke:#000000"
         d="m 1310.0787,1107.4016 a 6.141732,6.141732 0 1 0 -12.2834,0 6.141732,6.141732 0 1 0 12.2834,0 z"
         inkscape:connector-curvature="0" />
      <path
         id="path6434"
         style="fill:none;stroke:#000000"
         d="m 6.141732,1497.4488 a 6.141732,6.141732 0 1 0 -12.283464,0 6.141732,6.141732 0 1 0 12.283464,0 z"
         inkscape:connector-curvature="0" />
      <path
         id="path6436"
         style="fill:none;stroke:#000000"
         d="m 6.141732,1107.4016 a 6.141732,6.141732 0 1 0 -12.283464,0 6.141732,6.141732 0 1 0 12.283464,0 z"
         inkscape:connector-curvature="0" />
      <path
         id="path6438"
         style="fill:none;stroke:#000000"
         d="m 875.43307,1107.4016 a 6.1417325,6.1417325 0 1 0 -12.28346,0 6.1417325,6.1417325 0 1 0 12.28346,0 z"
         inkscape:connector-curvature="0" />
      <path
         id="path6440"
         style="fill:none;stroke:#000000"
         d="m 787.67642,1420.0641 h -17.50319 v -12.2846 A 3.779528,3.779528 0 0 0 766.3937,1404 h -20.7874 a 3.779528,3.779528 0 0 0 -3.52443,2.4145 H 698.10711 A 3.779528,3.779528 0 0 0 694.58268,1404 h -20.7874 a 3.779528,3.779528 0 0 0 -3.52444,2.4145 H 337.91813 A 3.779528,3.779528 0 0 0 334.3937,1404 h -39.68504 a 3.779528,3.779528 0 0 0 -3.77953,3.7795 v 81.2599 h 47.2441 v -8.8096 l 3.1381,-3.1381 v -1.8898 l 0.55351,-1.3362 1.33629,-0.5535 h 321.78792 l 1.33629,0.5535 0.55352,1.3362 v 1.8898 l 3.13689,3.1369 v 8.8108 h 28.34646 v -15.7272 h 38.43787 l 1.33629,0.5535 0.55351,1.3362 v 1.8898 l 3.13689,3.1369 v 8.8108 h 28.34646 v -16.0619 h 17.50319 a 3.779528,3.779528 0 0 0 3.77953,-3.7795 v -45.3543 a 3.779528,3.779528 0 0 0 -3.77953,-3.7796 z"
         inkscape:connector-curvature="0" />
    </g>
  </g>
</svg>
