0
SECTION
2
HEADER
9
$INSUNITS
70
4
9
$ACADVER
1
AC1014
9
$HANDSEED
5
FFFF
0
ENDSEC
0
SECTION
2
TABLES
0
TABLE
2
VPORT
5
8
100
AcDbSymbolTable
0
ENDTAB
0
TABLE
2
LTYPE
5
5
100
AcDbSymbolTable
0
LTYPE
5
14
100
AcDbSymbolTableRecord
100
AcDbLinetypeTableRecord
2
BYBLOCK
70
0
0
LTYPE
5
15
100
AcDbSymbolTableRecord
100
AcDbLinetypeTableRecord
2
BYLAYER
70
0
0
ENDTAB
0
TABLE
2
LAYER
5
2
100
AcDbSymbolTable
70
2
0
LAYER
5
50
100
AcDbSymbolTableRecord
100
AcDbLayerTableRecord
2
0
70
0
6
CONTINUOUS
0
ENDTAB
0
TABLE
2
STYLE
5
3
100
AcDbSymbolTable
70
1
0
STYLE
5
11
100
AcDbSymbolTableRecord
100
AcDbTextStyleTableRecord
2
STANDARD
70
0
0
ENDTAB
0
TABLE
2
VIEW
5
6
100
AcDbSymbolTable
70
0
0
ENDTAB
0
TABLE
2
UCS
5
7
100
AcDbSymbolTable
70
0
0
ENDTAB
0
TABLE
2
APPID
5
9
100
AcDbSymbolTable
70
2
0
APPID
5
12
100
AcDbSymbolTableRecord
100
AcDbRegAppTableRecord
2
ACAD
70
0
0
ENDTAB
0
TABLE
2
DIMSTYLE
5
A
100
AcDbSymbolTable
70
1
0
ENDTAB
0
TABLE
2
BLOCK_RECORD
5
1
100
AcDbSymbolTable
70
1
0
BLOCK_RECORD
5
1F
100
AcDbSymbolTableRecord
100
AcDbBlockTableRecord
2
*MODEL_SPACE
0
BLOCK_RECORD
5
1B
100
AcDbSymbolTableRecord
100
AcDbBlockTableRecord
2
*PAPER_SPACE
0
ENDTAB
0
ENDSEC
0
SECTION
2
BLOCKS
0
BLOCK
5
20
100
AcDbEntity
100
AcDbBlockBegin
2
*MODEL_SPACE
0
ENDBLK
5
21
100
AcDbEntity
100
AcDbBlockEnd
0
BLOCK
5
1C
100
AcDbEntity
100
AcDbBlockBegin
2
*PAPER_SPACE
0
ENDBLK
5
1D
100
AcDbEntity
100
AcDbBlockEnd
0
ENDSEC
0
SECTION
2
ENTITIES
0
CIRCLE
5
100
100
AcDbEntity
8
0
100
AcDbCircle
10
230
20
4.0000000000000027
30
0
40
1.6250000000000142
210
0
220
-0
230
1
0
CIRCLE
5
101
100
AcDbEntity
8
0
100
AcDbCircle
10
0
20
4.0000000000000027
30
0
40
1.625
210
0
220
-0
230
1
0
CIRCLE
5
102
100
AcDbEntity
8
0
100
AcDbCircle
10
0
20
-99.200000000000003
30
0
40
1.625
210
0
220
-0
230
1
0
CIRCLE
5
103
100
AcDbEntity
8
0
100
AcDbCircle
10
345
20
4.0000000000000027
30
0
40
1.6250000000000142
210
0
220
-0
230
1
0
CIRCLE
5
104
100
AcDbEntity
8
0
100
AcDbCircle
10
230
20
-99.200000000000003
30
0
40
1.6250000000000142
210
0
220
-0
230
1
0
CIRCLE
5
105
100
AcDbEntity
8
0
100
AcDbCircle
10
115
20
4.0000000000000027
30
0
40
1.6249999999999964
210
0
220
-0
230
1
0
CIRCLE
5
106
100
AcDbEntity
8
0
100
AcDbCircle
10
115
20
-99.200000000000003
30
0
40
1.6249999999999964
210
0
220
-0
230
1
0
CIRCLE
5
107
100
AcDbEntity
8
0
100
AcDbCircle
10
345
20
-99.200000000000003
30
0
40
1.6250000000000142
210
0
220
-0
230
1
0
LWPOLYLINE
5
108
100
AcDbEntity
8
0
100
AcDbPolyline
90
8
70
1
43
0.0
10
350.66250000000002
20
14.999999999999968
42
-0.41421356237309365
10
362.66250000000008
20
2.9999999999999893
10
362.66250000000008
20
-98.25
42
-0.41421356237309115
10
350.66250000000002
20
-110.25
10
-2.9999999999999947
20
-110.24999999999999
42
-0.41421356237309465
10
-15
20
-98.25
10
-15.000000000000009
20
2.9999999999999956
42
-0.41421356237309442
10
-3.0000000000000426
20
15
0
LWPOLYLINE
5
109
100
AcDbEntity
8
0
100
AcDbPolyline
90
21
70
1
43
0.0
10
6.2274615576892689
20
-77.533900270515034
10
6.7496873120395211
20
-77.534745190795263
42
0.035099298395248064
10
6.8895666777143871
20
-77.544576637942569
10
30.036221768080882
20
-77.544576637942569
10
36.635038442310723
20
-77.533900270515034
42
0.41483458089568837
10
37.633413537561673
20
-76.530163843725489
10
37.567573212252874
20
-58.915256838761493
42
0.41338020564622929
10
36.566688549325654
20
-57.918994971901903
10
29.831495617772372
20
-57.925000397518446
42
0.20736777219120422
10
29.102080501707984
20
-58.24188066200341
10
28.758242079683587
20
-58.609470205265666
42
-0.2640248235564619
10
27.815793264041318
20
-58.903589707099641
42
0.053492530337836408
10
27.431249999999991
20
-58.862331263657666
10
15.431250000000002
20
-58.862331263657673
42
0.053492530337879714
10
15.04670673595867
20
-58.903589707099641
42
-0.2640248235564619
10
14.104257920316403
20
-58.609470205265666
10
13.760419498292006
20
-58.24188066200341
42
0.20736777219121189
10
13.031004382227618
20
-57.925000397518446
10
6.2958114506743357
20
-57.918994971901903
42
0.41338020564622407
10
5.2949267877471184
20
-58.915256838761493
10
5.2290864624383193
20
-76.530163843725489
42
0.41483458089569492
0
LWPOLYLINE
5
110
100
AcDbEntity
8
0
100
AcDbPolyline
90
21
70
1
43
0.0
10
249.11496155768933
20
-58.483900270515036
10
249.63718731203957
20
-58.484745190795266
42
0.035099298395250646
10
249.77706667771443
20
-58.494576637942572
10
272.92372176808095
20
-58.494576637942572
10
279.52253844231075
20
-58.483900270515036
42
0.41483458089567915
10
280.52091353756174
20
-57.480163843725485
10
280.4550732122529
20
-39.865256838761482
42
0.41338020564624611
10
279.45418854932569
20
-38.868994971901898
10
272.71899561777241
20
-38.875000397518441
42
0.20736777219120425
10
271.98958050170802
20
-39.191880662003399
10
271.64574207968366
20
-39.559470205265669
42
-0.26402482355646473
10
270.70329326404135
20
-39.85358970709963
42
0.053492530337836679
10
270.31875000000002
20
-39.812331263657661
10
258.31875000000002
20
-39.812331263657669
42
0.053492530337861478
10
257.93420673595875
20
-39.853589707099644
42
-0.26402482355646389
10
256.99175792031645
20
-39.559470205265676
10
256.64791949829208
20
-39.191880662003399
42
0.2073677721912093
10
255.9185043822277
20
-38.875000397518441
10
249.18331145067441
20
-38.868994971901898
42
0.41338020564624878
10
248.18242678774715
20
-39.865256838761482
10
248.11658646243836
20
-57.480163843725485
42
0.41483458089568437
0
LWPOLYLINE
5
111
100
AcDbEntity
8
0
100
AcDbPolyline
90
8
70
1
43
0.0
10
331.13749999999987
20
-3.5250000000000004
42
-0.41421356237307733
10
332.13749999999999
20
-2.5250000000000004
10
344.13749999999999
20
-2.524999999999999
42
-0.41421356237313295
10
345.13750000000005
20
-3.5250000000000004
10
345.1375000000001
20
-15.525000000000002
42
-0.41421356237307749
10
344.13749999999999
20
-16.525000000000002
10
332.13749999999999
20
-16.525000000000002
42
-0.41421356237313273
10
331.13749999999993
20
-15.525000000000002
0
LWPOLYLINE
5
112
100
AcDbEntity
8
0
100
AcDbPolyline
90
8
70
1
43
0.0
10
293.03749999999997
20
-3.5250000000000004
42
-0.41421356237310542
10
294.03750000000002
20
-2.5250000000000004
10
306.03750000000002
20
-2.5249999999999884
42
-0.41421356237309437
10
307.03750000000008
20
-3.5250000000000004
10
307.03750000000008
20
-15.525000000000002
42
-0.41421356237310542
10
306.03750000000002
20
-16.525000000000002
10
294.03750000000002
20
-16.525000000000013
42
-0.4142135623730937
10
293.03750000000002
20
-15.525000000000002
0
LWPOLYLINE
5
113
100
AcDbEntity
8
0
100
AcDbPolyline
90
8
70
1
43
0.0
10
35.862499999999997
20
-41.625
42
-0.4142135623730937
10
36.862499999999997
20
-40.625000000000007
10
48.862500000000004
20
-40.625000000000007
42
-0.41421356237309503
10
49.862499999999997
20
-41.625000000000007
10
49.862499999999997
20
-53.625000000000007
42
-0.41421356237309503
10
48.862500000000004
20
-54.625
10
36.862499999999997
20
-54.625
42
-0.41421356237309115
10
35.862499999999997
20
-53.625000000000007
0
LWPOLYLINE
5
114
100
AcDbEntity
8
0
100
AcDbPolyline
90
12
70
1
43
0.0
10
41.743097930552288
20
-92.724999999999994
42
-0.0061367472281384974
10
41.718553714758677
20
-92.725301254641636
10
29.718553714758713
20
-92.725301254641607
42
-0.41421356237309764
10
28.718553714758713
20
-91.725301254641636
10
28.718553714758688
20
-79.725301254641636
42
-0.41421356237309243
10
29.718553714758713
20
-78.725301254641636
10
32.075455784207108
20
-78.725301254641636
42
-0.0061367472283216911
10
32.100000000000001
20
-78.725000000000009
10
44.100000000000001
20
-78.725000000000009
42
-0.41421356237309503
10
45.099999999999994
20
-79.724999999999994
10
45.100000000000009
20
-91.724999999999994
42
-0.41421356237309764
10
44.100000000000001
20
-92.724999999999994
0
LWPOLYLINE
5
115
100
AcDbEntity
8
0
100
AcDbPolyline
90
8
70
1
43
0.0
10
9.6687500000000011
20
-41.625000000000007
42
-0.4142135623730957
10
10.668749999999999
20
-40.625000000000007
10
22.668750000000006
20
-40.625
42
-0.4142135623730937
10
23.668750000000003
20
-41.625000000000007
10
23.668750000000003
20
-53.625000000000007
42
-0.41421356237309631
10
22.668750000000003
20
-54.625
10
10.668749999999996
20
-54.625
42
-0.41421356237309437
10
9.6687500000000011
20
-53.625000000000007
0
LWPOLYLINE
5
116
100
AcDbEntity
8
0
100
AcDbPolyline
90
8
70
1
43
0.0
10
293.03750000000002
20
-22.574999999999999
10
293.03750000000002
20
-34.575000000000003
42
0.41421356237309631
10
294.03750000000002
20
-35.575000000000017
10
306.03750000000002
20
-35.575000000000003
42
0.41421356237310675
10
307.03750000000008
20
-34.575000000000003
10
307.03750000000008
20
-22.574999999999999
42
0.41421356237309503
10
306.03750000000002
20
-21.574999999999996
10
294.03750000000002
20
-21.574999999999996
42
0.41421356237310675
0
LWPOLYLINE
5
117
100
AcDbEntity
8
0
100
AcDbPolyline
90
12
70
1
43
0.0
10
17.930597930552345
20
-92.724999999999994
42
-0.0061367472281396076
10
17.906053714758727
20
-92.725301254641636
10
5.9060537147587366
20
-92.72530125464165
42
-0.41421356237310281
10
4.9060537147587233
20
-91.725301254641636
10
4.906053714758718
20
-79.725301254641664
42
-0.41421356237309598
10
5.906053714758718
20
-78.725301254641664
10
8.262955784205662
20
-78.725301254641664
42
-0.0061367472286789739
10
8.2874999999999979
20
-78.725000000000009
10
20.287500000000005
20
-78.725000000000009
42
-0.41421356237309115
10
21.287500000000001
20
-79.724999999999994
10
21.287500000000005
20
-91.724999999999994
42
-0.41421356237309764
10
20.287500000000001
20
-92.724999999999994
0
LWPOLYLINE
5
118
100
AcDbEntity
8
0
100
AcDbPolyline
90
8
70
1
43
0.0
10
331.13749999999987
20
-79.724999999999994
42
-0.41421356237307683
10
332.13749999999999
20
-78.725000000000009
10
344.13749999999999
20
-78.725000000000009
42
-0.41421356237313145
10
345.13750000000005
20
-79.724999999999994
10
345.1375000000001
20
-91.724999999999994
42
-0.41421356237307422
10
344.13749999999999
20
-92.724999999999994
10
332.13749999999999
20
-92.725000000000009
42
-0.41421356237313667
10
331.13749999999993
20
-91.724999999999994
0
LWPOLYLINE
5
119
100
AcDbEntity
8
0
100
AcDbPolyline
90
8
70
1
43
0.0
10
312.08749999999998
20
-22.574999999999999
10
312.08749999999998
20
-34.575000000000003
42
0.41421356237306511
10
313.08749999999998
20
-35.575000000000017
10
325.08749999999998
20
-35.575000000000003
42
0.4142135623730781
10
326.08749999999998
20
-34.575000000000003
10
326.08749999999998
20
-22.574999999999999
42
0.41421356237313273
10
325.08749999999998
20
-21.574999999999996
10
313.08749999999998
20
-21.574999999999996
42
0.41421356237307549
0
LWPOLYLINE
5
120
100
AcDbEntity
8
0
100
AcDbPolyline
90
8
70
1
43
0.0
10
243.03125
20
-60.674999999999997
42
-0.41421356237310802
10
244.03125000000003
20
-59.675000000000004
10
256.03125
20
-59.674999999999983
42
-0.4142135623730846
10
257.03125000000006
20
-60.674999999999997
10
257.03125
20
-72.674999999999997
42
-0.41421356237310025
10
256.03125
20
-73.674999999999997
10
244.03125000000003
20
-73.675000000000011
42
-0.41421356237309243
10
243.03125
20
-72.674999999999997
0
LWPOLYLINE
5
121
100
AcDbEntity
8
0
100
AcDbPolyline
90
8
70
1
43
0.0
10
312.08749999999998
20
-3.5250000000000004
42
-0.41421356237307422
10
313.08749999999998
20
-2.5250000000000004
10
325.08749999999998
20
-2.524999999999999
42
-0.41421356237313295
10
326.08749999999998
20
-3.5250000000000004
10
326.08750000000009
20
-15.525000000000002
42
-0.41421356237307749
10
325.08749999999998
20
-16.525000000000002
10
313.08749999999998
20
-16.525000000000013
42
-0.4142135623730625
10
312.08749999999998
20
-15.525000000000002
0
LWPOLYLINE
5
122
100
AcDbEntity
8
0
100
AcDbPolyline
90
8
70
1
43
0.0
10
31.100000000000001
20
-22.574999999999999
42
-0.41421356237308982
10
32.100000000000001
20
-21.574999999999996
10
44.100000000000001
20
-21.574999999999996
42
-0.41421356237309631
10
45.099999999999994
20
-22.574999999999999
10
45.099999999999994
20
-34.575000000000003
42
-0.41421356237309503
10
44.100000000000001
20
-35.575000000000003
10
32.100000000000009
20
-35.575000000000003
42
-0.41421356237309243
10
31.100000000000001
20
-34.575000000000003
0
LWPOLYLINE
5
123
100
AcDbEntity
8
0
100
AcDbPolyline
90
8
70
1
43
0.0
10
312.08750000000003
20
-60.674999999999997
42
-0.4142135623730846
10
313.08749999999998
20
-59.675000000000004
10
325.08749999999998
20
-59.674999999999997
42
-0.41421356237313406
10
326.08749999999998
20
-60.674999999999997
10
326.08750000000009
20
-72.674999999999997
42
-0.41421356237307683
10
325.08749999999998
20
-73.674999999999997
10
313.08749999999998
20
-73.675000000000011
42
-0.41421356237306123
10
312.08749999999998
20
-72.674999999999997
0
LWPOLYLINE
5
124
100
AcDbEntity
8
0
100
AcDbPolyline
90
8
70
1
43
0.0
10
45.38750000000001
20
-60.674999999999997
42
-0.41421356237309503
10
46.38750000000001
20
-59.675000000000004
10
58.38750000000001
20
-59.675000000000004
42
-0.41421356237309503
10
59.387500000000003
20
-60.674999999999997
10
59.387500000000003
20
-72.674999999999997
42
-0.41421356237309503
10
58.38750000000001
20
-73.674999999999997
10
46.38750000000001
20
-73.674999999999997
42
-0.41421356237309503
10
45.38750000000001
20
-72.674999999999997
0
LWPOLYLINE
5
125
100
AcDbEntity
8
0
100
AcDbPolyline
90
12
70
1
43
0.0
10
256.03105371475829
20
-78.725301254641607
10
253.67454421579299
20
-78.725301254641607
42
0.0061367472282198802
10
253.65000000000003
20
-78.724999999999994
10
241.65000000000003
20
-78.725000000000009
42
0.41421356237310025
10
240.65000000000001
20
-79.724999999999994
10
240.65000000000001
20
-91.724999999999994
42
0.41421356237307944
10
241.65000000000003
20
-92.724999999999994
10
244.00650949896476
20
-92.724999999999994
42
0.0061367472281520265
10
244.0310537147584
20
-92.725301254641607
10
256.03105371475829
20
-92.725301254641607
42
0.41421356237310025
10
257.03105371475834
20
-91.725301254641622
10
257.03105371475834
20
-79.725301254641622
42
0.41421356237307161
0
LWPOLYLINE
5
126
100
AcDbEntity
8
0
100
AcDbPolyline
90
8
70
1
43
0.0
10
269.22500000000008
20
-60.674999999999997
42
-0.4142135623730846
10
270.22500000000002
20
-59.675000000000004
10
282.22500000000002
20
-59.674999999999983
42
-0.41421356237309503
10
283.22500000000002
20
-60.674999999999997
10
283.22500000000002
20
-72.674999999999997
42
-0.41421356237310542
10
282.22500000000002
20
-73.674999999999997
10
270.22500000000002
20
-73.675000000000011
42
-0.41421356237306123
10
269.22500000000002
20
-72.674999999999997
0
LWPOLYLINE
5
127
100
AcDbEntity
8
0
100
AcDbPolyline
90
34
70
1
43
0.0
10
249.96408231395117
20
-15.578789486462357
10
250.22621549256755
20
-15.840923975753862
42
0.20226625478218974
10
250.73907016992476
20
-16.424980657153558
10
250.73891262767512
20
-19.078909553660882
10
251.85606742288471
20
-20.196072169008794
10
281.52176266793833
20
-20.196072169008794
10
282.63891002736227
20
-19.078916989498428
10
282.63899038300184
20
-16.435281254768007
42
0.21734365946211148
10
283.18384164359878
20
-15.80894137159067
10
283.41399237796543
20
-15.57878948646232
10
283.41399237796549
20
-3.4131047644592503
10
283.15279227363607
20
-3.1519028317162654
42
0.19273993606211459
10
282.63898819478123
20
-2.614717750045727
10
282.6389863032453
20
-2.5867469799045697
42
0.0026924364292528853
10
282.62920424871049
20
-2.5822417440239063
10
282.43891254541131
20
-1.4960721690088594
10
281.43891954541141
20
-0.49607216900895679
10
275.93892054541141
20
-0.49607216900895701
10
275.23180154541143
20
-0.78895816900893001
10
274.93890154541134
20
-1.4960721690088952
10
274.9389015454114
20
-1.9960721690088998
10
274.43891854541147
20
-2.4960721690089041
10
258.93891254541148
20
-2.4960721690089223
10
258.58535254541164
20
-2.349628169008942
10
258.43890254541157
20
-1.9960721690089178
10
258.43890254541157
20
-1.4960731690089248
10
257.43890954541149
20
-0.49607216900897527
10
251.93891054541155
20
-0.49607216900895745
10
250.93891754541161
20
-1.4960731690089784
10
250.74854156633475
20
-2.583978620194884
42
0.0026140985345590347
10
250.7390618058688
20
-2.588390969421797
10
250.73906664359657
20
-2.6250210509268408
42
0.17572894172656803
10
250.2635122894705
20
-3.1136726929152547
10
249.96408231395105
20
-3.4131047644592161
0
LWPOLYLINE
5
128
100
AcDbEntity
8
0
100
AcDbPolyline
90
8
70
1
43
0.0
10
240.65000000000003
20
-22.574999999999999
42
-0.41421356237307549
10
241.65000000000003
20
-21.574999999999996
10
253.65000000000003
20
-21.574999999999985
42
-0.41421356237309503
10
254.65000000000003
20
-22.574999999999999
10
254.65000000000003
20
-34.575000000000003
42
-0.41421356237310675
10
253.65000000000003
20
-35.575000000000003
10
241.65000000000003
20
-35.575000000000024
42
-0.41421356237307549
10
240.65000000000001
20
-34.575000000000003
0
LWPOLYLINE
5
129
100
AcDbEntity
8
0
100
AcDbPolyline
90
8
70
1
43
0.0
10
264.46249999999998
20
-22.574999999999999
42
-0.41421356237310675
10
265.46249999999998
20
-21.574999999999996
10
277.46249999999998
20
-21.574999999999985
42
-0.4142135623730846
10
278.46250000000003
20
-22.574999999999999
10
278.46249999999998
20
-34.575000000000003
42
-0.41421356237307549
10
277.46249999999998
20
-35.575000000000003
10
265.46249999999998
20
-35.575000000000024
42
-0.41421356237309631
10
264.46249999999998
20
-34.575000000000003
0
LWPOLYLINE
5
130
100
AcDbEntity
8
0
100
AcDbPolyline
90
8
70
1
43
0.0
10
312.08750000000003
20
-79.724999999999994
42
-0.41421356237310025
10
313.08749999999998
20
-78.725000000000009
10
325.08749999999998
20
-78.725000000000009
42
-0.41421356237313145
10
326.08749999999998
20
-79.724999999999994
10
326.08750000000009
20
-91.724999999999994
42
-0.41421356237307422
10
325.08749999999998
20
-92.724999999999994
10
313.08749999999998
20
-92.725000000000023
42
-0.414213562373069
10
312.08749999999998
20
-91.724999999999994
0
LWPOLYLINE
5
131
100
AcDbEntity
8
0
100
AcDbPolyline
90
8
70
1
43
0.0
10
7.2874999999999988
20
-22.574999999999999
42
-0.41421356237309243
10
8.2874999999999979
20
-21.574999999999996
10
20.287500000000005
20
-21.574999999999996
42
-0.41421356237308854
10
21.287500000000001
20
-22.574999999999999
10
21.287500000000005
20
-34.575000000000003
42
-0.41421356237309115
10
20.287500000000001
20
-35.575000000000003
10
8.2875000000000032
20
-35.575000000000003
42
-0.41421356237309404
10
7.2874999999999996
20
-34.575000000000003
0
LWPOLYLINE
5
132
100
AcDbEntity
8
0
100
AcDbPolyline
90
8
70
1
43
0.0
10
21.574999999999996
20
-3.5250000000000004
42
-0.41421356237309265
10
22.574999999999999
20
-2.5250000000000004
10
34.575000000000003
20
-2.5249999999999972
42
-0.41421356237309309
10
35.575000000000003
20
-3.5250000000000004
10
35.575000000000003
20
-15.525000000000002
42
-0.41421356237309243
10
34.575000000000003
20
-16.525000000000002
10
22.575000000000003
20
-16.525000000000002
42
-0.41421356237309309
10
21.574999999999996
20
-15.525000000000002
0
LWPOLYLINE
5
133
100
AcDbEntity
8
0
100
AcDbPolyline
90
12
70
1
43
0.0
10
279.84355371475834
20
-78.725301254641636
10
277.48704421579362
20
-78.725301254641636
42
0.006136747228142979
10
277.46249999999998
20
-78.724999999999994
10
265.46249999999998
20
-78.725000000000009
42
0.41421356237310542
10
264.46249999999998
20
-79.724999999999994
10
264.46249999999998
20
-91.724999999999994
42
0.41421356237310025
10
265.46249999999998
20
-92.724999999999994
10
267.81900949896828
20
-92.724999999999994
42
0.0061367472268843079
10
267.84355371475829
20
-92.725301254641593
10
279.84355371475834
20
-92.725301254641593
42
0.41421356237310542
10
280.84355371475829
20
-91.725301254641607
10
280.84355371475829
20
-79.725301254641622
42
0.41421356237309764
0
LWPOLYLINE
5
134
100
AcDbEntity
8
0
100
AcDbPolyline
90
12
70
1
43
0.0
10
65.555597930551542
20
-92.724999999999994
42
-0.0061367472275967987
10
65.531053714758642
20
-92.725301254641607
10
53.531053714758663
20
-92.725301254641607
42
-0.41421356237307944
10
52.53105371475867
20
-91.725301254641636
10
52.531053714758656
20
-79.725301254641636
42
-0.41421356237309503
10
53.531053714758656
20
-78.72530125464165
10
55.887955784206383
20
-78.72530125464165
42
-0.0061367472281407178
10
55.912500000000009
20
-78.725000000000009
10
67.912499999999994
20
-78.725000000000009
42
-0.41421356237309503
10
68.912499999999994
20
-79.724999999999994
10
68.912500000000009
20
-91.724999999999994
42
-0.41421356237309764
10
67.912499999999994
20
-92.724999999999994
0
LWPOLYLINE
5
135
100
AcDbEntity
8
0
100
AcDbPolyline
90
8
70
1
43
0.0
10
2.5249999999999999
20
-3.5250000000000004
42
-0.41421356237309492
10
3.5250000000000004
20
-2.5250000000000004
10
15.525000000000002
20
-2.5249999999999999
42
-0.41421356237309492
10
16.525000000000002
20
-3.5250000000000004
10
16.525000000000002
20
-15.525000000000002
42
-0.4142135623730937
10
15.525000000000002
20
-16.525000000000002
10
3.5250000000000092
20
-16.525000000000002
42
-0.4142135623730962
10
2.5250000000000004
20
-15.525000000000002
0
LWPOLYLINE
5
136
100
AcDbEntity
8
0
100
AcDbPolyline
90
8
70
1
43
0.0
10
293.03750000000002
20
-79.724999999999994
42
-0.41421356237310542
10
294.03750000000002
20
-78.725000000000009
10
306.03750000000002
20
-78.724999999999994
42
-0.41421356237309243
10
307.03750000000008
20
-79.724999999999994
10
307.03750000000008
20
-91.724999999999994
42
-0.41421356237310542
10
306.03750000000002
20
-92.724999999999994
10
294.03750000000002
20
-92.725000000000023
42
-0.41421356237310025
10
293.03750000000002
20
-91.724999999999994
0
LWPOLYLINE
5
137
100
AcDbEntity
8
0
100
AcDbPolyline
90
8
70
1
43
0.0
10
331.13749999999987
20
-22.574999999999999
42
-0.4142135623730781
10
332.13749999999999
20
-21.574999999999996
10
344.13749999999999
20
-21.574999999999996
42
-0.41421356237313273
10
345.13750000000005
20
-22.574999999999999
10
345.1375000000001
20
-34.575000000000003
42
-0.4142135623730781
10
344.13749999999999
20
-35.575000000000003
10
332.13749999999999
20
-35.57500000000001
42
-0.41421356237313406
10
331.13749999999993
20
-34.575000000000003
0
LWPOLYLINE
5
138
100
AcDbEntity
8
0
100
AcDbPolyline
90
67
70
1
43
0.0
10
49.150000000000006
20
-16.525000000000006
42
-0.41421356237309503
10
50.150000000000006
20
-17.525000000000006
10
50.150000000000006
20
-34.575000000000003
42
0.41421356237309631
10
51.150000000000006
20
-35.575000000000003
10
53.912500000000009
20
-35.57500000000001
42
-0.41421356237309503
10
54.912500000000009
20
-36.575000000000003
10
54.912500000000009
20
-53.625000000000007
42
0.41421356237309503
10
55.912500000000009
20
-54.625
10
63.437500000000007
20
-54.625
42
-0.41421356237309503
10
64.4375
20
-55.625
10
64.4375
20
-72.674999999999997
42
0.41421356237309503
10
65.4375
20
-73.674999999999997
10
75.975000000000051
20
-73.675000000000011
42
-0.41421356237309503
10
76.975000000000051
20
-74.674999999999997
10
76.975000000000051
20
-96.97499999999998
10
89.475000000000051
20
-96.97499999999998
10
89.475000000000051
20
-94.644140166874209
10
90.305289270736438
20
-93.813844253777305
10
90.305289270736438
20
-93.313845253777302
10
90.451739270736454
20
-92.960289253777276
10
90.805299270736242
20
-92.813845253777302
10
175.94502071852003
20
-92.813845253777302
10
176.29858071851982
20
-92.960289253777276
10
176.44503071851983
20
-93.313845253777302
10
176.44503071851983
20
-93.813844253777305
10
177.27499999999998
20
-94.643820175058067
10
177.27499999999998
20
-96.97499999999998
10
184.77499999999998
20
-96.97499999999998
10
184.77499999999998
20
-93.813845253777288
42
-0.41421356237310542
10
185.77500000000001
20
-92.813845253777302
10
194.94502071852
20
-92.813845253777302
10
195.29858071851979
20
-92.960289253777276
10
195.4450307185198
20
-93.313845253777302
10
195.4450307185198
20
-93.813844253777305
10
196.27499999999998
20
-94.643820175058067
10
196.27499999999998
20
-96.97499999999998
10
203.77499999999998
20
-96.97499999999998
10
203.77499999999998
20
-93.725301254641593
42
-0.41421356237310542
10
204.77499999999998
20
-92.725301254641593
10
208.4060537147584
20
-92.725301254641593
10
217.83750000000001
20
-92.724999999999994
10
220.19400949896476
20
-92.724999999999994
42
0.0061367472281520265
10
220.21855371475837
20
-92.725301254641607
10
232.21855371475834
20
-92.725301254641607
42
0.41421356237308982
10
233.21855371475834
20
-91.725301254641622
10
233.21855371475834
20
-79.725301254641622
42
0.41421356237309243
10
232.21855371475834
20
-78.725301254641636
10
231.83750000000003
20
-78.725301254641607
42
-0.41421356237310542
10
230.83750000000003
20
-77.725301254641636
10
230.83750000000003
20
-55.625
42
-0.41421356237310542
10
231.83750000000003
20
-54.625
10
239.36250000000001
20
-54.625
42
0.41421356237310542
10
240.36250000000001
20
-53.625000000000007
10
240.36250000000001
20
-41.625000000000007
42
0.41421356237309503
10
239.36250000000001
20
-40.625
10
236.60000000000002
20
-40.625000000000014
42
-0.41421356237309503
10
235.60000000000002
20
-39.625
10
235.59999999999999
20
-17.525000000000006
42
-0.41421356237310542
10
236.60000000000002
20
-16.525000000000002
10
244.125
20
-16.525000000000002
42
0.41421356237310542
10
245.12500000000003
20
-15.525000000000002
10
245.12500000000003
20
-3.5250000000000004
42
0.41421356237309437
10
244.125
20
-2.5249999999999861
10
41.625000000000007
20
-2.5250000000000004
42
0.41421356237309537
10
40.625000000000007
20
-3.5250000000000004
10
40.625000000000007
20
-15.525000000000002
42
0.41421356237309631
10
41.625000000000007
20
-16.524999999999999
0
ENDSEC
0
SECTION
2
OBJECTS
0
DICTIONARY
5
C
100
AcDbDictionary
3
ACAD_GROUP
350
D
3
ACAD_MLINESTYLE
350
17
0
DICTIONARY
5
D
100
AcDbDictionary
0
DICTIONARY
5
1A
330
C
100
AcDbDictionary
0
DICTIONARY
5
17
100
AcDbDictionary
0
ENDSEC
0
EOF
