<?xml version="1.0" encoding="UTF-8" standalone="no"?>
<!-- Created with Inkscape (http://www.inkscape.org/) -->

<svg
   xmlns:dc="http://purl.org/dc/elements/1.1/"
   xmlns:cc="http://creativecommons.org/ns#"
   xmlns:rdf="http://www.w3.org/1999/02/22-rdf-syntax-ns#"
   xmlns:svg="http://www.w3.org/2000/svg"
   xmlns="http://www.w3.org/2000/svg"
   xmlns:sodipodi="http://sodipodi.sourceforge.net/DTD/sodipodi-0.dtd"
   xmlns:inkscape="http://www.inkscape.org/namespaces/inkscape"
   width="420mm"
   height="210mm"
   viewBox="0 0 420 210"
   version="1.1"
   id="svg8"
   inkscape:version="0.92.4 (5da689c313, 2019-01-14)"
   sodipodi:docname="L4_half_plate.svg">
  <defs
     id="defs2">
    <marker
       style="overflow:visible"
       refY="0.0"
       refX="0.0"
       orient="auto"
       id="DistanceX">
      <path
         id="path3715"
         style="stroke:#000000; stroke-width:0.5"
         d="M 3,-3 L -3,3 M 0,-5 L  0,5" />
    </marker>
    <pattern
       y="0"
       x="0"
       width="8"
       patternUnits="userSpaceOnUse"
       id="Hatch"
       height="8">
      <path
         id="path3718"
         stroke-width="0.25"
         stroke="#000000"
         linecap="square"
         d="M8 4 l-4,4" />
      <path
         id="path3720"
         stroke-width="0.25"
         stroke="#000000"
         linecap="square"
         d="M6 2 l-4,4" />
      <path
         id="path3722"
         stroke-width="0.25"
         stroke="#000000"
         linecap="square"
         d="M4 0 l-4,4" />
    </pattern>
    <symbol
       id="*MODEL_SPACE" />
    <symbol
       id="*PAPER_SPACE" />
    <marker
       style="overflow:visible"
       refY="0.0"
       refX="0.0"
       orient="auto"
       id="DistanceX-1">
      <path
         id="path3760"
         style="stroke:#000000; stroke-width:0.5"
         d="M 3,-3 L -3,3 M 0,-5 L  0,5" />
    </marker>
    <pattern
       y="0"
       x="0"
       width="8"
       patternUnits="userSpaceOnUse"
       id="Hatch-1"
       height="8">
      <path
         id="path3763"
         stroke-width="0.25"
         stroke="#000000"
         linecap="square"
         d="M8 4 l-4,4" />
      <path
         id="path3765"
         stroke-width="0.25"
         stroke="#000000"
         linecap="square"
         d="M6 2 l-4,4" />
      <path
         id="path3767"
         stroke-width="0.25"
         stroke="#000000"
         linecap="square"
         d="M4 0 l-4,4" />
    </pattern>
    <symbol
       id="*MODEL_SPACE-5" />
    <symbol
       id="*PAPER_SPACE-6" />
    <marker
       style="overflow:visible"
       refY="0.0"
       refX="0.0"
       orient="auto"
       id="DistanceX-4">
      <path
         id="path3805"
         style="stroke:#000000; stroke-width:0.5"
         d="M 3,-3 L -3,3 M 0,-5 L  0,5" />
    </marker>
    <pattern
       y="0"
       x="0"
       width="8"
       patternUnits="userSpaceOnUse"
       id="Hatch-7"
       height="8">
      <path
         id="path3808"
         stroke-width="0.25"
         stroke="#000000"
         linecap="square"
         d="M8 4 l-4,4" />
      <path
         id="path3810"
         stroke-width="0.25"
         stroke="#000000"
         linecap="square"
         d="M6 2 l-4,4" />
      <path
         id="path3812"
         stroke-width="0.25"
         stroke="#000000"
         linecap="square"
         d="M4 0 l-4,4" />
    </pattern>
    <symbol
       id="*MODEL_SPACE-59" />
    <symbol
       id="*PAPER_SPACE-5" />
    <marker
       style="overflow:visible"
       refY="0.0"
       refX="0.0"
       orient="auto"
       id="DistanceX-18">
      <path
         id="path3850"
         style="stroke:#000000; stroke-width:0.5"
         d="M 3,-3 L -3,3 M 0,-5 L  0,5" />
    </marker>
    <pattern
       y="0"
       x="0"
       width="8"
       patternUnits="userSpaceOnUse"
       id="Hatch-72"
       height="8">
      <path
         id="path3853"
         stroke-width="0.25"
         stroke="#000000"
         linecap="square"
         d="M8 4 l-4,4" />
      <path
         id="path3855"
         stroke-width="0.25"
         stroke="#000000"
         linecap="square"
         d="M6 2 l-4,4" />
      <path
         id="path3857"
         stroke-width="0.25"
         stroke="#000000"
         linecap="square"
         d="M4 0 l-4,4" />
    </pattern>
    <symbol
       id="*MODEL_SPACE-0" />
    <symbol
       id="*PAPER_SPACE-3" />
    <marker
       style="overflow:visible"
       refY="0.0"
       refX="0.0"
       orient="auto"
       id="DistanceX-6">
      <path
         id="path3919"
         style="stroke:#000000; stroke-width:0.5"
         d="M 3,-3 L -3,3 M 0,-5 L  0,5" />
    </marker>
    <pattern
       y="0"
       x="0"
       width="8"
       patternUnits="userSpaceOnUse"
       id="Hatch-0"
       height="8">
      <path
         id="path3922"
         stroke-width="0.25"
         stroke="#000000"
         linecap="square"
         d="M8 4 l-4,4" />
      <path
         id="path3924"
         stroke-width="0.25"
         stroke="#000000"
         linecap="square"
         d="M6 2 l-4,4" />
      <path
         id="path3926"
         stroke-width="0.25"
         stroke="#000000"
         linecap="square"
         d="M4 0 l-4,4" />
    </pattern>
    <symbol
       id="*MODEL_SPACE-1" />
    <symbol
       id="*PAPER_SPACE-4" />
    <marker
       style="overflow:visible"
       refY="0.0"
       refX="0.0"
       orient="auto"
       id="DistanceX-8">
      <path
         id="path3988"
         style="stroke:#000000; stroke-width:0.5"
         d="M 3,-3 L -3,3 M 0,-5 L  0,5" />
    </marker>
    <pattern
       y="0"
       x="0"
       width="8"
       patternUnits="userSpaceOnUse"
       id="Hatch-9"
       height="8">
      <path
         id="path3991"
         stroke-width="0.25"
         stroke="#000000"
         linecap="square"
         d="M8 4 l-4,4" />
      <path
         id="path3993"
         stroke-width="0.25"
         stroke="#000000"
         linecap="square"
         d="M6 2 l-4,4" />
      <path
         id="path3995"
         stroke-width="0.25"
         stroke="#000000"
         linecap="square"
         d="M4 0 l-4,4" />
    </pattern>
    <symbol
       id="*MODEL_SPACE-9" />
    <symbol
       id="*PAPER_SPACE-7" />
    <marker
       style="overflow:visible"
       refY="0.0"
       refX="0.0"
       orient="auto"
       id="DistanceX-2">
      <path
         id="path4048"
         style="stroke:#000000; stroke-width:0.5"
         d="M 3,-3 L -3,3 M 0,-5 L  0,5" />
    </marker>
    <pattern
       y="0"
       x="0"
       width="8"
       patternUnits="userSpaceOnUse"
       id="Hatch-2"
       height="8">
      <path
         id="path4051"
         stroke-width="0.25"
         stroke="#000000"
         linecap="square"
         d="M8 4 l-4,4" />
      <path
         id="path4053"
         stroke-width="0.25"
         stroke="#000000"
         linecap="square"
         d="M6 2 l-4,4" />
      <path
         id="path4055"
         stroke-width="0.25"
         stroke="#000000"
         linecap="square"
         d="M4 0 l-4,4" />
    </pattern>
    <symbol
       id="*MODEL_SPACE-01" />
    <symbol
       id="*PAPER_SPACE-64" />
    <marker
       style="overflow:visible"
       refY="0.0"
       refX="0.0"
       orient="auto"
       id="DistanceX-3">
      <path
         id="path4321"
         style="stroke:#000000; stroke-width:0.5"
         d="M 3,-3 L -3,3 M 0,-5 L  0,5" />
    </marker>
    <pattern
       y="0"
       x="0"
       width="8"
       patternUnits="userSpaceOnUse"
       id="Hatch-8"
       height="8">
      <path
         id="path4324"
         stroke-width="0.25"
         stroke="#000000"
         linecap="square"
         d="M8 4 l-4,4" />
      <path
         id="path4326"
         stroke-width="0.25"
         stroke="#000000"
         linecap="square"
         d="M6 2 l-4,4" />
      <path
         id="path4328"
         stroke-width="0.25"
         stroke="#000000"
         linecap="square"
         d="M4 0 l-4,4" />
    </pattern>
    <symbol
       id="*MODEL_SPACE-16" />
    <symbol
       id="*PAPER_SPACE-65" />
  </defs>
  <sodipodi:namedview
     id="base"
     pagecolor="#ffffff"
     bordercolor="#666666"
     borderopacity="1.0"
     inkscape:pageopacity="0.0"
     inkscape:pageshadow="2"
     inkscape:zoom="0.35"
     inkscape:cx="47.142857"
     inkscape:cy="674.28571"
     inkscape:document-units="mm"
     inkscape:current-layer="layer1"
     showgrid="false"
     inkscape:window-width="2560"
     inkscape:window-height="1377"
     inkscape:window-x="-8"
     inkscape:window-y="-8"
     inkscape:window-maximized="1" />
  <metadata
     id="metadata5">
    <rdf:RDF>
      <cc:Work
         rdf:about="">
        <dc:format>image/svg+xml</dc:format>
        <dc:type
           rdf:resource="http://purl.org/dc/dcmitype/StillImage" />
        <dc:title></dc:title>
      </cc:Work>
    </rdf:RDF>
  </metadata>
  <g
     inkscape:label="Layer 1"
     inkscape:groupmode="layer"
     id="layer1"
     transform="translate(0,-87)">
    <g
       id="g4413"
       inkscape:label="0"
       transform="matrix(0.26458333,0,0,0.26458333,36.168754,-152.625)">
      <path
         id="path4335"
         style="fill:none;stroke:#000000"
         d="m 875.43307,1107.4016 a 6.1417325,6.1417325 0 1 0 -12.28346,0 6.1417325,6.1417325 0 1 0 12.28346,0 z"
         inkscape:connector-curvature="0" />
      <path
         id="path4337"
         style="fill:none;stroke:#000000"
         d="m 6.141732,1107.4016 a 6.141732,6.141732 0 1 0 -12.283464,0 6.141732,6.141732 0 1 0 12.283464,0 z"
         inkscape:connector-curvature="0" />
      <path
         id="path4339"
         style="fill:none;stroke:#000000"
         d="m 6.141732,1497.4488 a 6.141732,6.141732 0 1 0 -12.283464,0 6.141732,6.141732 0 1 0 12.283464,0 z"
         inkscape:connector-curvature="0" />
      <path
         id="path4341"
         style="fill:none;stroke:#000000"
         d="m 1310.0787,1107.4016 a 6.141732,6.141732 0 1 0 -12.2834,0 6.141732,6.141732 0 1 0 12.2834,0 z"
         inkscape:connector-curvature="0" />
      <path
         id="path4343"
         style="fill:none;stroke:#000000"
         d="m 875.43307,1497.4488 a 6.1417325,6.1417325 0 1 0 -12.28346,0 6.1417325,6.1417325 0 1 0 12.28346,0 z"
         inkscape:connector-curvature="0" />
      <path
         id="path4345"
         style="fill:none;stroke:#000000"
         d="m 440.7874,1107.4016 a 6.1417325,6.1417325 0 1 0 -12.28346,0 6.1417325,6.1417325 0 1 0 12.28346,0 z"
         inkscape:connector-curvature="0" />
      <path
         id="path4347"
         style="fill:none;stroke:#000000"
         d="m 440.7874,1497.4488 a 6.1417325,6.1417325 0 1 0 -12.28346,0 6.1417325,6.1417325 0 1 0 12.28346,0 z"
         inkscape:connector-curvature="0" />
      <path
         id="path4349"
         style="fill:none;stroke:#000000"
         d="m 1310.0787,1497.4488 a 6.141732,6.141732 0 1 0 -12.2834,0 6.141732,6.141732 0 1 0 12.2834,0 z"
         inkscape:connector-curvature="0" />
      <path
         id="path4351"
         style="fill:none;stroke:#000000"
         d="m 1325.3386,1065.8268 a 45.354331,45.354331 0 0 1 45.3543,45.3543 v 382.6772 a 45.354331,45.354331 0 0 1 -45.3543,45.3543 H -11.338583 a 45.354331,45.354331 0 0 1 -45.35433,-45.3543 v -382.6772 a 45.354331,45.354331 0 0 1 45.35433,-45.3543 z"
         inkscape:connector-curvature="0" />
      <path
         id="path4353"
         style="fill:none;stroke:#000000"
         d="m 23.536863,1415.5612 h 1.973766 a 3.779528,3.779528 0 0 0 0.528678,0.037 h 87.483423 l 24.94041,-0.04 a 3.779528,3.779528 0 0 0 3.77338,-3.7937 l -0.24884,-66.576 a 3.779528,3.779528 0 0 0 -3.78287,-3.7654 l -25.45585,0.023 a 3.779528,3.779528 0 0 0 -2.75685,1.1977 l -1.29954,1.3893 a 3.779528,3.779528 0 0 1 -3.56201,1.1116 6.851031,6.851031 0 0 0 -1.45339,-0.1559 H 58.322835 a 6.851031,6.851031 0 0 0 -1.453392,0.1559 3.779528,3.779528 0 0 1 -3.562011,-1.1116 l -1.299547,-1.3893 a 3.779528,3.779528 0 0 0 -2.756845,-1.1977 l -25.455847,-0.023 a 3.779528,3.779528 0 0 0 -3.782871,3.7654 l -0.248846,66.576 a 3.779528,3.779528 0 0 0 3.773387,3.7937 z"
         inkscape:connector-curvature="0" />
      <path
         id="path4355"
         style="fill:none;stroke:#000000"
         d="m 941.53686,1343.5612 h 1.97377 a 3.779528,3.779528 0 0 0 0.52868,0.037 h 87.48339 l 24.9404,-0.04 a 3.779528,3.779528 0 0 0 3.7734,-3.7937 l -0.2488,-66.576 a 3.779528,3.779528 0 0 0 -3.7829,-3.7654 l -25.4558,0.023 a 3.779528,3.779528 0 0 0 -2.7569,1.1977 l -1.2995,1.3893 a 3.779528,3.779528 0 0 1 -3.562,1.1116 6.851031,6.851031 0 0 0 -1.4534,-0.1559 h -45.35436 a 6.851031,6.851031 0 0 0 -1.4534,0.1559 3.779528,3.779528 0 0 1 -3.56201,-1.1116 l -1.29955,-1.3893 a 3.779528,3.779528 0 0 0 -2.75684,-1.1977 l -25.45585,-0.023 a 3.779528,3.779528 0 0 0 -3.78287,3.7654 l -0.24884,66.576 a 3.779528,3.779528 0 0 0 3.77338,3.7937 z"
         inkscape:connector-curvature="0" />
      <path
         id="path4357"
         style="fill:none;stroke:#000000"
         d="m 1251.5433,1135.8425 a 3.779528,3.779528 0 0 1 3.7795,-3.7795 h 45.3544 a 3.779528,3.779528 0 0 1 3.7795,3.7795 v 45.3544 a 3.779528,3.779528 0 0 1 -3.7795,3.7795 h -45.3544 a 3.779528,3.779528 0 0 1 -3.7795,-3.7795 z"
         inkscape:connector-curvature="0" />
      <path
         id="path4359"
         style="fill:none;stroke:#000000"
         d="m 1107.5433,1135.8425 a 3.779528,3.779528 0 0 1 3.7795,-3.7795 h 45.3544 a 3.779528,3.779528 0 0 1 3.7795,3.7795 v 45.3544 a 3.779528,3.779528 0 0 1 -3.7795,3.7795 h -45.3544 a 3.779528,3.779528 0 0 1 -3.7795,-3.7795 z"
         inkscape:connector-curvature="0" />
      <path
         id="path4361"
         style="fill:none;stroke:#000000"
         d="m 135.54331,1279.8425 a 3.779528,3.779528 0 0 1 3.77952,-3.7795 h 45.35433 a 3.779528,3.779528 0 0 1 3.77953,3.7795 v 45.3544 a 3.779528,3.779528 0 0 1 -3.77953,3.7795 h -45.35433 a 3.779528,3.779528 0 0 1 -3.77952,-3.7795 z"
         inkscape:connector-curvature="0" />
      <path
         id="path4363"
         style="fill:none;stroke:#000000"
         d="m 157.76919,1472.9764 a 3.779528,3.779528 0 0 1 -0.0928,0 h -45.35433 a 3.779528,3.779528 0 0 1 -3.77953,-3.7795 v -45.3543 a 3.779528,3.779528 0 0 1 3.77953,-3.7796 h 8.90798 a 3.779528,3.779528 0 0 1 0.0928,0 h 45.35433 a 3.779528,3.779528 0 0 1 3.77953,3.7795 v 45.3544 a 3.779528,3.779528 0 0 1 -3.77953,3.7795 z"
         inkscape:connector-curvature="0" />
      <path
         id="path4365"
         style="fill:none;stroke:#000000"
         d="m 36.543307,1279.8425 a 3.779528,3.779528 0 0 1 3.779528,-3.7795 h 45.35433 a 3.779528,3.779528 0 0 1 3.779528,3.7795 v 45.3544 a 3.779528,3.779528 0 0 1 -3.779528,3.7795 h -45.35433 a 3.779528,3.779528 0 0 1 -3.779528,-3.7795 z"
         inkscape:connector-curvature="0" />
      <path
         id="path4367"
         style="fill:none;stroke:#000000"
         d="m 1107.5433,1207.8425 v 45.3544 a 3.779528,3.779528 0 0 0 3.7795,3.7795 h 45.3544 a 3.779528,3.779528 0 0 0 3.7795,-3.7795 v -45.3544 a 3.779528,3.779528 0 0 0 -3.7795,-3.7795 h -45.3544 a 3.779528,3.779528 0 0 0 -3.7795,3.7795 z"
         inkscape:connector-curvature="0" />
      <path
         id="path4369"
         style="fill:none;stroke:#000000"
         d="m 67.769189,1472.9764 a 3.779528,3.779528 0 0 1 -0.09277,0 h -45.35433 a 3.779528,3.779528 0 0 1 -3.779528,-3.7795 v -45.3543 a 3.779528,3.779528 0 0 1 3.779528,-3.7796 h 8.907976 a 3.779528,3.779528 0 0 1 0.09277,0 h 45.35433 a 3.779528,3.779528 0 0 1 3.779528,3.7795 v 45.3544 a 3.779528,3.779528 0 0 1 -3.779528,3.7795 z"
         inkscape:connector-curvature="0" />
      <path
         id="path4371"
         style="fill:none;stroke:#000000"
         d="m 1251.5433,1423.8425 a 3.779528,3.779528 0 0 1 3.7795,-3.7795 h 45.3544 a 3.779528,3.779528 0 0 1 3.7795,3.7795 v 45.3544 a 3.779528,3.779528 0 0 1 -3.7795,3.7795 h -45.3544 a 3.779528,3.779528 0 0 1 -3.7795,-3.7795 z"
         inkscape:connector-curvature="0" />
      <path
         id="path4373"
         style="fill:none;stroke:#000000"
         d="m 1179.5433,1207.8425 v 45.3544 a 3.779528,3.779528 0 0 0 3.7795,3.7795 h 45.3544 a 3.779528,3.779528 0 0 0 3.7795,-3.7795 v -45.3544 a 3.779528,3.779528 0 0 0 -3.7795,-3.7795 h -45.3544 a 3.779528,3.779528 0 0 0 -3.7795,3.7795 z"
         inkscape:connector-curvature="0" />
      <path
         id="path4375"
         style="fill:none;stroke:#000000"
         d="m 918.54331,1351.8425 a 3.779528,3.779528 0 0 1 3.77953,-3.7795 h 45.35432 a 3.779528,3.779528 0 0 1 3.77953,3.7795 v 45.3544 a 3.779528,3.779528 0 0 1 -3.77953,3.7795 h -45.35432 a 3.779528,3.779528 0 0 1 -3.77953,-3.7795 z"
         inkscape:connector-curvature="0" />
      <path
         id="path4377"
         style="fill:none;stroke:#000000"
         d="m 1179.5433,1135.8425 a 3.779528,3.779528 0 0 1 3.7795,-3.7795 h 45.3544 a 3.779528,3.779528 0 0 1 3.7795,3.7795 v 45.3544 a 3.779528,3.779528 0 0 1 -3.7795,3.7795 h -45.3544 a 3.779528,3.779528 0 0 1 -3.7795,-3.7795 z"
         inkscape:connector-curvature="0" />
      <path
         id="path4379"
         style="fill:none;stroke:#000000"
         d="m 117.54331,1207.8425 a 3.779528,3.779528 0 0 1 3.77952,-3.7795 h 45.35433 a 3.779528,3.779528 0 0 1 3.77953,3.7795 v 45.3544 a 3.779528,3.779528 0 0 1 -3.77953,3.7795 h -45.35433 a 3.779528,3.779528 0 0 1 -3.77952,-3.7795 z"
         inkscape:connector-curvature="0" />
      <path
         id="path4381"
         style="fill:none;stroke:#000000"
         d="m 1179.5433,1351.8425 a 3.779528,3.779528 0 0 1 3.7795,-3.7795 h 45.3544 a 3.779528,3.779528 0 0 1 3.7795,3.7795 v 45.3544 a 3.779528,3.779528 0 0 1 -3.7795,3.7795 h -45.3544 a 3.779528,3.779528 0 0 1 -3.7795,-3.7795 z"
         inkscape:connector-curvature="0" />
      <path
         id="path4383"
         style="fill:none;stroke:#000000"
         d="m 171.54331,1351.8425 a 3.779528,3.779528 0 0 1 3.77952,-3.7795 h 45.35433 a 3.779528,3.779528 0 0 1 3.77953,3.7795 v 45.3544 a 3.779528,3.779528 0 0 1 -3.77953,3.7795 h -45.35433 a 3.779528,3.779528 0 0 1 -3.77952,-3.7795 z"
         inkscape:connector-curvature="0" />
      <path
         id="path4385"
         style="fill:none;stroke:#000000"
         d="m 967.67642,1420.0641 h -8.90649 a 3.779528,3.779528 0 0 0 -0.0928,0 h -45.35432 a 3.779528,3.779528 0 0 0 -3.77953,3.7795 v 45.3544 a 3.779528,3.779528 0 0 0 3.77953,3.7795 h 8.90649 a 3.779528,3.779528 0 0 0 0.0928,0 h 45.35433 a 3.779528,3.779528 0 0 0 3.77953,-3.7795 v -45.3543 a 3.779528,3.779528 0 0 0 -3.77953,-3.7796 z"
         inkscape:connector-curvature="0" />
      <path
         id="path4387"
         style="fill:none;stroke:#000000"
         d="m 1017.5433,1351.8425 a 3.779528,3.779528 0 0 1 3.7795,-3.7795 h 45.3544 a 3.779528,3.779528 0 0 1 3.7795,3.7795 v 45.3544 a 3.779528,3.779528 0 0 1 -3.7795,3.7795 h -45.3544 a 3.779528,3.779528 0 0 1 -3.7795,-3.7795 z"
         inkscape:connector-curvature="0" />
      <path
         id="path4389"
         style="fill:none;stroke:#000000"
         d="m 944.74614,1181.4001 0.99074,0.9908 a 3.779528,3.779528 0 0 0 1.93835,2.2075 l -6e-4,10.0305 4.22232,4.2224 h 112.12235 l 4.2223,-4.2223 3e-4,-9.9917 a 3.779528,3.779528 0 0 0 2.0592,-2.3673 l 0.8699,-0.8699 v -45.9805 l -0.9872,-0.9872 a 3.779528,3.779528 0 0 0 -1.942,-2.0303 v -0.1057 a 3.779528,3.779528 0 0 0 -0.037,-0.017 l -0.7192,-4.1052 -3.7795,-3.7795 h -20.7874 l -2.6726,1.107 -1.107,2.6725 v 1.8898 l -1.8897,1.8898 h -58.58274 l -1.33629,-0.5535 -0.55351,-1.3363 v -1.8898 l -3.77951,-3.7795 h -20.78739 l -3.7795,3.7795 -0.71954,4.1118 a 3.779528,3.779528 0 0 0 -0.0358,0.017 l 2e-5,0.1384 a 3.779528,3.779528 0 0 0 -1.79737,1.8469 l -1.1317,1.1317 z"
         inkscape:connector-curvature="0" />
      <path
         id="path4391"
         style="fill:none;stroke:#000000"
         d="m 909.54331,1207.8425 a 3.779528,3.779528 0 0 1 3.77953,-3.7795 h 45.35432 a 3.779528,3.779528 0 0 1 3.77953,3.7795 v 45.3544 a 3.779528,3.779528 0 0 1 -3.77953,3.7795 h -45.35432 a 3.779528,3.779528 0 0 1 -3.77953,-3.7795 z"
         inkscape:connector-curvature="0" />
      <path
         id="path4393"
         style="fill:none;stroke:#000000"
         d="m 999.54331,1207.8425 a 3.779528,3.779528 0 0 1 3.77949,-3.7795 h 45.3544 a 3.779528,3.779528 0 0 1 3.7795,3.7795 v 45.3544 a 3.779528,3.779528 0 0 1 -3.7795,3.7795 h -45.3544 a 3.779528,3.779528 0 0 1 -3.77949,-3.7795 z"
         inkscape:connector-curvature="0" />
      <path
         id="path4395"
         style="fill:none;stroke:#000000"
         d="m 1179.5433,1423.8425 a 3.779528,3.779528 0 0 1 3.7795,-3.7795 h 45.3544 a 3.779528,3.779528 0 0 1 3.7795,3.7795 v 45.3544 a 3.779528,3.779528 0 0 1 -3.7795,3.7795 h -45.3544 a 3.779528,3.779528 0 0 1 -3.7795,-3.7795 z"
         inkscape:connector-curvature="0" />
      <path
         id="path4397"
         style="fill:none;stroke:#000000"
         d="m 27.543307,1207.8425 a 3.779528,3.779528 0 0 1 3.779528,-3.7795 h 45.35433 a 3.779528,3.779528 0 0 1 3.779528,3.7795 v 45.3544 a 3.779528,3.779528 0 0 1 -3.779528,3.7795 h -45.35433 a 3.779528,3.779528 0 0 1 -3.779528,-3.7795 z"
         inkscape:connector-curvature="0" />
      <path
         id="path4399"
         style="fill:none;stroke:#000000"
         d="m 81.543307,1135.8425 a 3.779528,3.779528 0 0 1 3.779528,-3.7795 h 45.354325 a 3.779528,3.779528 0 0 1 3.77953,3.7795 v 45.3544 a 3.779528,3.779528 0 0 1 -3.77953,3.7795 H 85.322835 a 3.779528,3.779528 0 0 1 -3.779528,-3.7795 z"
         inkscape:connector-curvature="0" />
      <path
         id="path4401"
         style="fill:none;stroke:#000000"
         d="m 1057.6764,1420.0641 h -8.9065 a 3.779528,3.779528 0 0 0 -0.093,0 h -45.3544 a 3.779528,3.779528 0 0 0 -3.77949,3.7795 v 45.3544 a 3.779528,3.779528 0 0 0 3.77949,3.7795 h 8.9065 a 3.779528,3.779528 0 0 0 0.093,0 h 45.3543 a 3.779528,3.779528 0 0 0 3.7796,-3.7795 v -45.3543 a 3.779528,3.779528 0 0 0 -3.7796,-3.7796 z"
         inkscape:connector-curvature="0" />
      <path
         id="path4403"
         style="fill:none;stroke:#000000"
         d="m 247.76919,1472.9764 a 3.779528,3.779528 0 0 1 -0.0928,0 h -45.35433 a 3.779528,3.779528 0 0 1 -3.77953,-3.7795 v -45.3543 a 3.779528,3.779528 0 0 1 3.77953,-3.7796 h 8.90798 a 3.779528,3.779528 0 0 1 0.0928,0 h 45.35433 a 3.779528,3.779528 0 0 1 3.77953,3.7795 v 45.3544 a 3.779528,3.779528 0 0 1 -3.77953,3.7795 z"
         inkscape:connector-curvature="0" />
      <path
         id="path4405"
         style="fill:none;stroke:#000000"
         d="m 9.543307,1135.8425 a 3.779528,3.779528 0 0 1 3.779528,-3.7795 h 45.35433 a 3.779528,3.779528 0 0 1 3.779528,3.7795 v 45.3544 a 3.779528,3.779528 0 0 1 -3.779528,3.7795 h -45.35433 a 3.779528,3.779528 0 0 1 -3.779528,-3.7795 z"
         inkscape:connector-curvature="0" />
      <path
         id="path4407"
         style="fill:none;stroke:#000000"
         d="m 1107.5433,1423.8425 a 3.779528,3.779528 0 0 1 3.7795,-3.7795 h 45.3544 a 3.779528,3.779528 0 0 1 3.7795,3.7795 v 45.3544 a 3.779528,3.779528 0 0 1 -3.7795,3.7795 h -45.3544 a 3.779528,3.779528 0 0 1 -3.7795,-3.7795 z"
         inkscape:connector-curvature="0" />
      <path
         id="path4409"
         style="fill:none;stroke:#000000"
         d="m 1251.5433,1207.8425 a 3.779528,3.779528 0 0 1 3.7795,-3.7795 h 45.3544 a 3.779528,3.779528 0 0 1 3.7795,3.7795 v 45.3544 a 3.779528,3.779528 0 0 1 -3.7795,3.7795 h -45.3544 a 3.779528,3.779528 0 0 1 -3.7795,-3.7795 z"
         inkscape:connector-curvature="0" />
      <path
         id="path4411"
         style="fill:none;stroke:#000000"
         d="m 185.76378,1184.9764 a 3.779528,3.779528 0 0 1 3.77953,3.7795 v 64.441 a 3.779528,3.779528 0 0 0 3.77952,3.7795 h 10.44095 a 3.779528,3.779528 0 0 1 3.77953,3.7795 v 64.441 a 3.779528,3.779528 0 0 0 3.77952,3.7795 h 28.44095 a 3.779528,3.779528 0 0 1 3.77953,3.7795 v 64.441 a 3.779528,3.779528 0 0 0 3.77952,3.7795 h 39.82678 a 3.779528,3.779528 0 0 1 3.77952,3.7795 v 76.7244 h 47.2441 v -1.2505 l 3.1381,-3.1381 v -1.8898 l 0.55351,-1.3362 1.33629,-0.5535 h 321.78792 l 1.33629,0.5535 0.55352,1.3362 v 1.8898 l 3.13689,3.1369 v 1.2517 h 28.34646 v -4.3886 a 3.779528,3.779528 0 0 1 3.77952,-3.7795 h 34.65835 l 1.33629,0.5535 0.55351,1.3362 v 1.8898 l 3.13689,3.1369 v 1.2517 h 28.34646 v -4.7233 a 3.779528,3.779528 0 0 1 3.77953,-3.7795 h 13.72366 35.64642 8.90649 a 3.779528,3.779528 0 0 0 0.0928,0 h 45.35433 a 3.779528,3.779528 0 0 0 3.77953,-3.7795 v -45.3543 a 3.779528,3.779528 0 0 0 -3.77953,-3.7796 h -1.4402 a 3.779528,3.779528 0 0 1 -3.77953,-3.7795 v -83.5287 a 3.779528,3.779528 0 0 1 3.77953,-3.7795 h 28.44094 a 3.779528,3.779528 0 0 0 3.77953,-3.7795 v -45.3544 a 3.779528,3.779528 0 0 0 -3.77953,-3.7795 h -10.44094 a 3.779528,3.779528 0 0 1 -3.77953,-3.7795 v -83.5276 a 3.779528,3.779528 0 0 1 3.77953,-3.7795 h 28.44094 a 3.779528,3.779528 0 0 0 3.77953,-3.7795 v -45.3544 a 3.779528,3.779528 0 0 0 -3.77953,-3.7795 H 157.32283 a 3.779528,3.779528 0 0 0 -3.77952,3.7795 v 45.3544 a 3.779528,3.779528 0 0 0 3.77952,3.7795 z"
         inkscape:connector-curvature="0" />
    </g>
  </g>
</svg>
