<?xml version="1.0" encoding="UTF-8" standalone="no"?>
<!-- Created with Inkscape (http://www.inkscape.org/) -->

<svg
   xmlns:dc="http://purl.org/dc/elements/1.1/"
   xmlns:cc="http://creativecommons.org/ns#"
   xmlns:rdf="http://www.w3.org/1999/02/22-rdf-syntax-ns#"
   xmlns:svg="http://www.w3.org/2000/svg"
   xmlns="http://www.w3.org/2000/svg"
   xmlns:sodipodi="http://sodipodi.sourceforge.net/DTD/sodipodi-0.dtd"
   xmlns:inkscape="http://www.inkscape.org/namespaces/inkscape"
   width="420mm"
   height="210mm"
   viewBox="0 0 420 210"
   version="1.1"
   id="svg8"
   inkscape:version="0.92.4 (5da689c313, 2019-01-14)"
   sodipodi:docname="L6_M2.svg">
  <defs
     id="defs2">
    <marker
       style="overflow:visible"
       refY="0.0"
       refX="0.0"
       orient="auto"
       id="DistanceX">
      <path
         id="path3715"
         style="stroke:#000000; stroke-width:0.5"
         d="M 3,-3 L -3,3 M 0,-5 L  0,5" />
    </marker>
    <pattern
       y="0"
       x="0"
       width="8"
       patternUnits="userSpaceOnUse"
       id="Hatch"
       height="8">
      <path
         id="path3718"
         stroke-width="0.25"
         stroke="#000000"
         linecap="square"
         d="M8 4 l-4,4" />
      <path
         id="path3720"
         stroke-width="0.25"
         stroke="#000000"
         linecap="square"
         d="M6 2 l-4,4" />
      <path
         id="path3722"
         stroke-width="0.25"
         stroke="#000000"
         linecap="square"
         d="M4 0 l-4,4" />
    </pattern>
    <symbol
       id="*MODEL_SPACE" />
    <symbol
       id="*PAPER_SPACE" />
    <marker
       style="overflow:visible"
       refY="0.0"
       refX="0.0"
       orient="auto"
       id="DistanceX-1">
      <path
         id="path3760"
         style="stroke:#000000; stroke-width:0.5"
         d="M 3,-3 L -3,3 M 0,-5 L  0,5" />
    </marker>
    <pattern
       y="0"
       x="0"
       width="8"
       patternUnits="userSpaceOnUse"
       id="Hatch-1"
       height="8">
      <path
         id="path3763"
         stroke-width="0.25"
         stroke="#000000"
         linecap="square"
         d="M8 4 l-4,4" />
      <path
         id="path3765"
         stroke-width="0.25"
         stroke="#000000"
         linecap="square"
         d="M6 2 l-4,4" />
      <path
         id="path3767"
         stroke-width="0.25"
         stroke="#000000"
         linecap="square"
         d="M4 0 l-4,4" />
    </pattern>
    <symbol
       id="*MODEL_SPACE-5" />
    <symbol
       id="*PAPER_SPACE-6" />
    <marker
       style="overflow:visible"
       refY="0.0"
       refX="0.0"
       orient="auto"
       id="DistanceX-4">
      <path
         id="path3805"
         style="stroke:#000000; stroke-width:0.5"
         d="M 3,-3 L -3,3 M 0,-5 L  0,5" />
    </marker>
    <pattern
       y="0"
       x="0"
       width="8"
       patternUnits="userSpaceOnUse"
       id="Hatch-7"
       height="8">
      <path
         id="path3808"
         stroke-width="0.25"
         stroke="#000000"
         linecap="square"
         d="M8 4 l-4,4" />
      <path
         id="path3810"
         stroke-width="0.25"
         stroke="#000000"
         linecap="square"
         d="M6 2 l-4,4" />
      <path
         id="path3812"
         stroke-width="0.25"
         stroke="#000000"
         linecap="square"
         d="M4 0 l-4,4" />
    </pattern>
    <symbol
       id="*MODEL_SPACE-59" />
    <symbol
       id="*PAPER_SPACE-5" />
    <marker
       style="overflow:visible"
       refY="0.0"
       refX="0.0"
       orient="auto"
       id="DistanceX-18">
      <path
         id="path3850"
         style="stroke:#000000; stroke-width:0.5"
         d="M 3,-3 L -3,3 M 0,-5 L  0,5" />
    </marker>
    <pattern
       y="0"
       x="0"
       width="8"
       patternUnits="userSpaceOnUse"
       id="Hatch-72"
       height="8">
      <path
         id="path3853"
         stroke-width="0.25"
         stroke="#000000"
         linecap="square"
         d="M8 4 l-4,4" />
      <path
         id="path3855"
         stroke-width="0.25"
         stroke="#000000"
         linecap="square"
         d="M6 2 l-4,4" />
      <path
         id="path3857"
         stroke-width="0.25"
         stroke="#000000"
         linecap="square"
         d="M4 0 l-4,4" />
    </pattern>
    <symbol
       id="*MODEL_SPACE-0" />
    <symbol
       id="*PAPER_SPACE-3" />
    <marker
       style="overflow:visible"
       refY="0.0"
       refX="0.0"
       orient="auto"
       id="DistanceX-6">
      <path
         id="path3919"
         style="stroke:#000000; stroke-width:0.5"
         d="M 3,-3 L -3,3 M 0,-5 L  0,5" />
    </marker>
    <pattern
       y="0"
       x="0"
       width="8"
       patternUnits="userSpaceOnUse"
       id="Hatch-0"
       height="8">
      <path
         id="path3922"
         stroke-width="0.25"
         stroke="#000000"
         linecap="square"
         d="M8 4 l-4,4" />
      <path
         id="path3924"
         stroke-width="0.25"
         stroke="#000000"
         linecap="square"
         d="M6 2 l-4,4" />
      <path
         id="path3926"
         stroke-width="0.25"
         stroke="#000000"
         linecap="square"
         d="M4 0 l-4,4" />
    </pattern>
    <symbol
       id="*MODEL_SPACE-1" />
    <symbol
       id="*PAPER_SPACE-4" />
    <marker
       style="overflow:visible"
       refY="0.0"
       refX="0.0"
       orient="auto"
       id="DistanceX-8">
      <path
         id="path3988"
         style="stroke:#000000; stroke-width:0.5"
         d="M 3,-3 L -3,3 M 0,-5 L  0,5" />
    </marker>
    <pattern
       y="0"
       x="0"
       width="8"
       patternUnits="userSpaceOnUse"
       id="Hatch-9"
       height="8">
      <path
         id="path3991"
         stroke-width="0.25"
         stroke="#000000"
         linecap="square"
         d="M8 4 l-4,4" />
      <path
         id="path3993"
         stroke-width="0.25"
         stroke="#000000"
         linecap="square"
         d="M6 2 l-4,4" />
      <path
         id="path3995"
         stroke-width="0.25"
         stroke="#000000"
         linecap="square"
         d="M4 0 l-4,4" />
    </pattern>
    <symbol
       id="*MODEL_SPACE-9" />
    <symbol
       id="*PAPER_SPACE-7" />
    <marker
       style="overflow:visible"
       refY="0.0"
       refX="0.0"
       orient="auto"
       id="DistanceX-2">
      <path
         id="path4048"
         style="stroke:#000000; stroke-width:0.5"
         d="M 3,-3 L -3,3 M 0,-5 L  0,5" />
    </marker>
    <pattern
       y="0"
       x="0"
       width="8"
       patternUnits="userSpaceOnUse"
       id="Hatch-2"
       height="8">
      <path
         id="path4051"
         stroke-width="0.25"
         stroke="#000000"
         linecap="square"
         d="M8 4 l-4,4" />
      <path
         id="path4053"
         stroke-width="0.25"
         stroke="#000000"
         linecap="square"
         d="M6 2 l-4,4" />
      <path
         id="path4055"
         stroke-width="0.25"
         stroke="#000000"
         linecap="square"
         d="M4 0 l-4,4" />
    </pattern>
    <symbol
       id="*MODEL_SPACE-01" />
    <symbol
       id="*PAPER_SPACE-64" />
    <marker
       style="overflow:visible"
       refY="0.0"
       refX="0.0"
       orient="auto"
       id="DistanceX-3">
      <path
         id="path4321"
         style="stroke:#000000; stroke-width:0.5"
         d="M 3,-3 L -3,3 M 0,-5 L  0,5" />
    </marker>
    <pattern
       y="0"
       x="0"
       width="8"
       patternUnits="userSpaceOnUse"
       id="Hatch-8"
       height="8">
      <path
         id="path4324"
         stroke-width="0.25"
         stroke="#000000"
         linecap="square"
         d="M8 4 l-4,4" />
      <path
         id="path4326"
         stroke-width="0.25"
         stroke="#000000"
         linecap="square"
         d="M6 2 l-4,4" />
      <path
         id="path4328"
         stroke-width="0.25"
         stroke="#000000"
         linecap="square"
         d="M4 0 l-4,4" />
    </pattern>
    <symbol
       id="*MODEL_SPACE-16" />
    <symbol
       id="*PAPER_SPACE-65" />
    <marker
       style="overflow:visible"
       refY="0.0"
       refX="0.0"
       orient="auto"
       id="DistanceX-49">
      <path
         id="path4471"
         style="stroke:#000000; stroke-width:0.5"
         d="M 3,-3 L -3,3 M 0,-5 L  0,5" />
    </marker>
    <pattern
       y="0"
       x="0"
       width="8"
       patternUnits="userSpaceOnUse"
       id="Hatch-18"
       height="8">
      <path
         id="path4474"
         stroke-width="0.25"
         stroke="#000000"
         linecap="square"
         d="M8 4 l-4,4" />
      <path
         id="path4476"
         stroke-width="0.25"
         stroke="#000000"
         linecap="square"
         d="M6 2 l-4,4" />
      <path
         id="path4478"
         stroke-width="0.25"
         stroke="#000000"
         linecap="square"
         d="M4 0 l-4,4" />
    </pattern>
    <symbol
       id="*MODEL_SPACE-55" />
    <symbol
       id="*PAPER_SPACE-2" />
    <marker
       style="overflow:visible"
       refY="0.0"
       refX="0.0"
       orient="auto"
       id="DistanceX-88">
      <path
         id="path4540"
         style="stroke:#000000; stroke-width:0.5"
         d="M 3,-3 L -3,3 M 0,-5 L  0,5" />
    </marker>
    <pattern
       y="0"
       x="0"
       width="8"
       patternUnits="userSpaceOnUse"
       id="Hatch-20"
       height="8">
      <path
         id="path4543"
         stroke-width="0.25"
         stroke="#000000"
         linecap="square"
         d="M8 4 l-4,4" />
      <path
         id="path4545"
         stroke-width="0.25"
         stroke="#000000"
         linecap="square"
         d="M6 2 l-4,4" />
      <path
         id="path4547"
         stroke-width="0.25"
         stroke="#000000"
         linecap="square"
         d="M4 0 l-4,4" />
    </pattern>
    <symbol
       id="*MODEL_SPACE-4" />
    <symbol
       id="*PAPER_SPACE-61" />
  </defs>
  <sodipodi:namedview
     id="base"
     pagecolor="#ffffff"
     bordercolor="#666666"
     borderopacity="1.0"
     inkscape:pageopacity="0.0"
     inkscape:pageshadow="2"
     inkscape:zoom="0.35"
     inkscape:cx="47.142857"
     inkscape:cy="674.28571"
     inkscape:document-units="mm"
     inkscape:current-layer="layer1"
     showgrid="false"
     inkscape:window-width="2560"
     inkscape:window-height="1377"
     inkscape:window-x="-8"
     inkscape:window-y="-8"
     inkscape:window-maximized="1" />
  <metadata
     id="metadata5">
    <rdf:RDF>
      <cc:Work
         rdf:about="">
        <dc:format>image/svg+xml</dc:format>
        <dc:type
           rdf:resource="http://purl.org/dc/dcmitype/StillImage" />
        <dc:title></dc:title>
      </cc:Work>
    </rdf:RDF>
  </metadata>
  <g
     inkscape:label="Layer 1"
     inkscape:groupmode="layer"
     id="layer1"
     transform="translate(0,-87)">
    <g
       id="g4578"
       inkscape:label="0"
       transform="matrix(0.26458333,0,0,0.26458333,36.168753,-152.625)">
      <path
         id="path4554"
         style="fill:none;stroke:#000000"
         d="m 1308.6614,1497.4488 a 4.7244095,4.7244095 0 1 0 -9.4488,0 4.7244095,4.7244095 0 1 0 9.4488,0 z"
         inkscape:connector-curvature="0" />
      <path
         id="path4556"
         style="fill:none;stroke:#000000"
         d="m 439.37008,1107.4016 a 4.72441,4.72441 0 1 0 -9.44882,0 4.72441,4.72441 0 1 0 9.44882,0 z"
         inkscape:connector-curvature="0" />
      <path
         id="path4558"
         style="fill:none;stroke:#000000"
         d="m 4.724409,1497.4488 a 4.724409,4.724409 0 1 0 -9.448818,0 4.724409,4.724409 0 1 0 9.448818,0 z"
         inkscape:connector-curvature="0" />
      <path
         id="path4560"
         style="fill:none;stroke:#000000"
         d="m 1308.6614,1107.4016 a 4.7244095,4.7244095 0 1 0 -9.4488,0 4.7244095,4.7244095 0 1 0 9.4488,0 z"
         inkscape:connector-curvature="0" />
      <path
         id="path4562"
         style="fill:none;stroke:#000000"
         d="m 874.01575,1497.4488 a 4.72441,4.72441 0 1 0 -9.44882,0 4.72441,4.72441 0 1 0 9.44882,0 z"
         inkscape:connector-curvature="0" />
      <path
         id="path4564"
         style="fill:none;stroke:#000000"
         d="m 4.724409,1107.4016 a 4.724409,4.724409 0 1 0 -9.448818,0 4.724409,4.724409 0 1 0 9.448818,0 z"
         inkscape:connector-curvature="0" />
      <path
         id="path4566"
         style="fill:none;stroke:#000000"
         d="m 439.37008,1497.4488 a 4.72441,4.72441 0 1 0 -9.44882,0 4.72441,4.72441 0 1 0 9.44882,0 z"
         inkscape:connector-curvature="0" />
      <path
         id="path4568"
         style="fill:none;stroke:#000000"
         d="m 874.01575,1107.4016 a 4.72441,4.72441 0 1 0 -9.44882,0 4.72441,4.72441 0 1 0 9.44882,0 z"
         inkscape:connector-curvature="0" />
      <path
         id="path4570"
         style="fill:none;stroke:#000000"
         d="m 1312.0399,1122.1417 a 1.889764,1.889764 0 0 1 1.8898,1.8898 v 140.9764 a 1.889764,1.889764 0 0 1 -1.8898,1.8897 h -210.6383 a 1.889764,1.889764 0 0 1 -1.8898,-1.8897 v -140.9764 a 1.889764,1.889764 0 0 1 1.8898,-1.8898 z"
         inkscape:connector-curvature="0" />
      <path
         id="path4572"
         style="fill:none;stroke:#000000"
         d="m -0.377954,1123.0866 a 0.944882,0.944882 0 0 1 0.944882,-0.9449 H 1080.378 v 360.764 H 0.566928 a 0.944882,0.944882 0 0 1 -0.944882,-0.9448 z"
         inkscape:connector-curvature="0" />
      <path
         id="path4574"
         style="fill:none;stroke:#000000"
         d="m 1167.7323,1410.1417 h -66.3307 a 1.889764,1.889764 0 0 0 -1.8898,1.8898 v 70.8742 h 213.473 a 0.944882,0.944882 0 0 0 0.9449,-0.9448 v -69.9294 a 1.889764,1.889764 0 0 0 -1.8898,-1.8898 h -67.7722 a 1.889764,1.889764 0 0 1 -1.8897,-1.8897 v -68.2205 a 1.889764,1.889764 0 0 0 -1.8898,-1.8898 h -68.9764 a 1.889764,1.889764 0 0 0 -1.8898,1.8898 v 68.2205 a 1.889764,1.889764 0 0 1 -1.8897,1.8897 z"
         inkscape:connector-curvature="0" />
      <path
         id="path4576"
         style="fill:none;stroke:#000000"
         d="m -41.574803,1111.1811 a 30.23622,30.23622 0 0 1 30.23622,-30.2362 H 1325.3386 a 30.23622,30.23622 0 0 1 30.2362,30.2362 v 382.6772 a 30.23622,30.23622 0 0 1 -30.2362,30.2362 H -11.338583 a 30.23622,30.23622 0 0 1 -30.23622,-30.2362 z"
         inkscape:connector-curvature="0" />
    </g>
  </g>
</svg>
