0
SECTION
2
HEADER
9
$INSUNITS
70
4
9
$ACADVER
1
AC1014
9
$HANDSEED
5
FFFF
0
ENDSEC
0
SECTION
2
TABLES
0
TABLE
2
VPORT
5
8
100
AcDbSymbolTable
0
ENDTAB
0
TABLE
2
LTYPE
5
5
100
AcDbSymbolTable
0
LTYPE
5
14
100
AcDbSymbolTableRecord
100
AcDbLinetypeTableRecord
2
BYBLOCK
70
0
0
LTYPE
5
15
100
AcDbSymbolTableRecord
100
AcDbLinetypeTableRecord
2
BYLAYER
70
0
0
ENDTAB
0
TABLE
2
LAYER
5
2
100
AcDbSymbolTable
70
2
0
LAYER
5
50
100
AcDbSymbolTableRecord
100
AcDbLayerTableRecord
2
0
70
0
6
CONTINUOUS
0
ENDTAB
0
TABLE
2
STYLE
5
3
100
AcDbSymbolTable
70
1
0
STYLE
5
11
100
AcDbSymbolTableRecord
100
AcDbTextStyleTableRecord
2
STANDARD
70
0
0
ENDTAB
0
TABLE
2
VIEW
5
6
100
AcDbSymbolTable
70
0
0
ENDTAB
0
TABLE
2
UCS
5
7
100
AcDbSymbolTable
70
0
0
ENDTAB
0
TABLE
2
APPID
5
9
100
AcDbSymbolTable
70
2
0
APPID
5
12
100
AcDbSymbolTableRecord
100
AcDbRegAppTableRecord
2
ACAD
70
0
0
ENDTAB
0
TABLE
2
DIMSTYLE
5
A
100
AcDbSymbolTable
70
1
0
ENDTAB
0
TABLE
2
BLOCK_RECORD
5
1
100
AcDbSymbolTable
70
1
0
BLOCK_RECORD
5
1F
100
AcDbSymbolTableRecord
100
AcDbBlockTableRecord
2
*MODEL_SPACE
0
BLOCK_RECORD
5
1B
100
AcDbSymbolTableRecord
100
AcDbBlockTableRecord
2
*PAPER_SPACE
0
ENDTAB
0
ENDSEC
0
SECTION
2
BLOCKS
0
BLOCK
5
20
100
AcDbEntity
100
AcDbBlockBegin
2
*MODEL_SPACE
0
ENDBLK
5
21
100
AcDbEntity
100
AcDbBlockEnd
0
BLOCK
5
1C
100
AcDbEntity
100
AcDbBlockBegin
2
*PAPER_SPACE
0
ENDBLK
5
1D
100
AcDbEntity
100
AcDbBlockEnd
0
ENDSEC
0
SECTION
2
ENTITIES
0
LWPOLYLINE
5
100
100
AcDbEntity
8
0
100
AcDbPolyline
90
6
70
1
43
0.0
10
-0.60000027861358229
20
-0.15000365380592129
10
-0.60000027861358241
20
-95.102144521600309
42
0.41421356237306517
10
0.1499997213863935
20
-95.852144521600295
10
286.35000000000002
20
-95.852144521600309
10
286.35000000000002
20
0.59999634619408226
10
0.14999972138642442
20
0.59999634619409614
42
0.41421356237309387
0
LWPOLYLINE
5
101
100
AcDbEntity
8
0
100
AcDbPolyline
90
8
70
1
43
0.0
10
348.14388751796145
20
-37.699999999997786
10
348.14388751796145
20
-0.40000365380590719
42
0.41421356237308132
10
347.1438875179615
20
0.59999634619411213
10
291.41249999999809
20
0.59999634619408582
42
0.41421356237318807
10
290.41249999999815
20
-0.40000365380607139
10
290.41250000000213
20
-37.70000000000006
42
0.41421356237310153
10
291.41250000000213
20
-38.700000000000031
10
347.1438875179615
20
-38.699999999997836
42
0.41421356237316526
0
LWPOLYLINE
5
102
100
AcDbEntity
8
0
100
AcDbPolyline
90
13
70
1
43
0.0
10
348.1438875179615
20
-95.102144521600309
10
348.14388751796145
20
-76.599999999999923
42
0.41421356237301959
10
347.1438875179615
20
-75.600000000000065
10
329.21249999999998
20
-75.600000000000009
10
329.21249999999998
20
-57.549999999999891
42
0.41421356237301959
10
328.21250000000009
20
-56.55000000000004
10
309.96250000000009
20
-56.549999999999976
42
0.41421356237313406
10
308.96250000000003
20
-57.549999999999969
10
308.96250000000003
20
-75.599999999999994
10
291.41250000000207
20
-75.599999999999994
42
0.41421356237313406
10
290.41250000000218
20
-76.600000000000151
10
290.41250000000804
20
-95.852144521600309
10
347.3938875179615
20
-95.852144521600309
42
0.41421356237308815
0
CIRCLE
5
103
100
AcDbEntity
8
0
100
AcDbCircle
10
230
20
4.0000000000000027
30
0
40
1.6250000000000142
210
0
220
-0
230
1
0
CIRCLE
5
104
100
AcDbEntity
8
0
100
AcDbCircle
10
0
20
4.0000000000000027
30
0
40
1.625
210
0
220
-0
230
1
0
CIRCLE
5
105
100
AcDbEntity
8
0
100
AcDbCircle
10
0
20
-99.200000000000003
30
0
40
1.625
210
0
220
-0
230
1
0
CIRCLE
5
106
100
AcDbEntity
8
0
100
AcDbCircle
10
345
20
4.0000000000000027
30
0
40
1.6250000000000142
210
0
220
-0
230
1
0
CIRCLE
5
107
100
AcDbEntity
8
0
100
AcDbCircle
10
230
20
-99.200000000000003
30
0
40
1.6250000000000142
210
0
220
-0
230
1
0
CIRCLE
5
108
100
AcDbEntity
8
0
100
AcDbCircle
10
115
20
4.0000000000000027
30
0
40
1.6249999999999964
210
0
220
-0
230
1
0
CIRCLE
5
109
100
AcDbEntity
8
0
100
AcDbCircle
10
115
20
-99.200000000000003
30
0
40
1.6249999999999964
210
0
220
-0
230
1
0
CIRCLE
5
110
100
AcDbEntity
8
0
100
AcDbCircle
10
345
20
-99.200000000000003
30
0
40
1.6250000000000142
210
0
220
-0
230
1
0
LWPOLYLINE
5
111
100
AcDbEntity
8
0
100
AcDbPolyline
90
8
70
1
43
0.0
10
-11.000000000000011
20
3.0000000000000031
42
-0.4142135623730962
10
-2.9999999999999716
20
11
10
350.66250000000002
20
10.99999999999997
42
-0.4142135623730947
10
358.66250000000002
20
3.0000000000000071
10
358.66250000000008
20
-98.25
42
-0.41421356237309503
10
350.66250000000002
20
-106.25000000000001
10
-2.9999999999999765
20
-106.25
42
-0.41421356237309581
10
-11.000000000000014
20
-98.25
0
ENDSEC
0
SECTION
2
OBJECTS
0
DICTIONARY
5
C
100
AcDbDictionary
3
ACAD_GROUP
350
D
3
ACAD_MLINESTYLE
350
17
0
DICTIONARY
5
D
100
AcDbDictionary
0
DICTIONARY
5
1A
330
C
100
AcDbDictionary
0
DICTIONARY
5
17
100
AcDbDictionary
0
ENDSEC
0
EOF
