<?xml version="1.0" encoding="UTF-8" standalone="no"?>
<!-- Created with Inkscape (http://www.inkscape.org/) -->

<svg
   xmlns:dc="http://purl.org/dc/elements/1.1/"
   xmlns:cc="http://creativecommons.org/ns#"
   xmlns:rdf="http://www.w3.org/1999/02/22-rdf-syntax-ns#"
   xmlns:svg="http://www.w3.org/2000/svg"
   xmlns="http://www.w3.org/2000/svg"
   xmlns:sodipodi="http://sodipodi.sourceforge.net/DTD/sodipodi-0.dtd"
   xmlns:inkscape="http://www.inkscape.org/namespaces/inkscape"
   width="450mm"
   height="210mm"
   viewBox="0 0 450 210"
   version="1.1"
   id="svg8"
   inkscape:version="0.92.4 (5da689c313, 2019-01-14)"
   sodipodi:docname="L1_L2_L3.svg">
  <defs
     id="defs2">
    <marker
       style="overflow:visible"
       refY="0"
       refX="0"
       orient="auto"
       id="DistanceX">
      <path
         id="path817"
         style="stroke:#000000;stroke-width:0.5"
         d="M 3,-3 -3,3 M 0,-5 V 5"
         inkscape:connector-curvature="0" />
    </marker>
    <pattern
       y="0"
       x="0"
       width="8"
       patternUnits="userSpaceOnUse"
       id="Hatch"
       height="8">
      <path
         id="path820"
         stroke-width="0.25"
         stroke="#000000"
         linecap="square"
         d="M8 4 l-4,4" />
      <path
         id="path822"
         stroke-width="0.25"
         stroke="#000000"
         linecap="square"
         d="M6 2 l-4,4" />
      <path
         id="path824"
         stroke-width="0.25"
         stroke="#000000"
         linecap="square"
         d="M4 0 l-4,4" />
    </pattern>
    <symbol
       id="*MODEL_SPACE" />
    <symbol
       id="*PAPER_SPACE" />
    <marker
       style="overflow:visible"
       refY="0"
       refX="0"
       orient="auto"
       id="DistanceX-0">
      <path
         id="path901"
         style="stroke:#000000;stroke-width:0.5"
         d="M 3,-3 -3,3 M 0,-5 V 5"
         inkscape:connector-curvature="0" />
    </marker>
    <pattern
       y="0"
       x="0"
       width="8"
       patternUnits="userSpaceOnUse"
       id="Hatch-2"
       height="8">
      <path
         id="path904"
         stroke-width="0.25"
         stroke="#000000"
         linecap="square"
         d="M8 4 l-4,4" />
      <path
         id="path906"
         stroke-width="0.25"
         stroke="#000000"
         linecap="square"
         d="M6 2 l-4,4" />
      <path
         id="path908"
         stroke-width="0.25"
         stroke="#000000"
         linecap="square"
         d="M4 0 l-4,4" />
    </pattern>
    <symbol
       id="*MODEL_SPACE-2" />
    <symbol
       id="*PAPER_SPACE-0" />
    <marker
       style="overflow:visible"
       refY="0"
       refX="0"
       orient="auto"
       id="DistanceX-00">
      <path
         id="path991"
         style="stroke:#000000;stroke-width:0.5"
         d="M 3,-3 -3,3 M 0,-5 V 5"
         inkscape:connector-curvature="0" />
    </marker>
    <pattern
       y="0"
       x="0"
       width="8"
       patternUnits="userSpaceOnUse"
       id="Hatch-23"
       height="8">
      <path
         id="path994"
         stroke-width="0.25"
         stroke="#000000"
         linecap="square"
         d="M8 4 l-4,4" />
      <path
         id="path996"
         stroke-width="0.25"
         stroke="#000000"
         linecap="square"
         d="M6 2 l-4,4" />
      <path
         id="path998"
         stroke-width="0.25"
         stroke="#000000"
         linecap="square"
         d="M4 0 l-4,4" />
    </pattern>
    <symbol
       id="*MODEL_SPACE-9" />
    <symbol
       id="*PAPER_SPACE-3" />
    <marker
       style="overflow:visible"
       refY="0"
       refX="0"
       orient="auto"
       id="DistanceX-1">
      <path
         id="path1087"
         style="stroke:#000000;stroke-width:0.5"
         d="M 3,-3 -3,3 M 0,-5 V 5"
         inkscape:connector-curvature="0" />
    </marker>
    <pattern
       y="0"
       x="0"
       width="8"
       patternUnits="userSpaceOnUse"
       id="Hatch-1"
       height="8">
      <path
         id="path1090"
         stroke-width="0.25"
         stroke="#000000"
         linecap="square"
         d="M8 4 l-4,4" />
      <path
         id="path1092"
         stroke-width="0.25"
         stroke="#000000"
         linecap="square"
         d="M6 2 l-4,4" />
      <path
         id="path1094"
         stroke-width="0.25"
         stroke="#000000"
         linecap="square"
         d="M4 0 l-4,4" />
    </pattern>
    <symbol
       id="*MODEL_SPACE-6" />
    <symbol
       id="*PAPER_SPACE-4" />
    <marker
       style="overflow:visible"
       refY="0.0"
       refX="0.0"
       orient="auto"
       id="DistanceX-4">
      <path
         id="path1729"
         style="stroke:#000000; stroke-width:0.5"
         d="M 3,-3 L -3,3 M 0,-5 L  0,5" />
    </marker>
    <pattern
       y="0"
       x="0"
       width="8"
       patternUnits="userSpaceOnUse"
       id="Hatch-26"
       height="8">
      <path
         id="path1732"
         stroke-width="0.25"
         stroke="#000000"
         linecap="square"
         d="M8 4 l-4,4" />
      <path
         id="path1734"
         stroke-width="0.25"
         stroke="#000000"
         linecap="square"
         d="M6 2 l-4,4" />
      <path
         id="path1736"
         stroke-width="0.25"
         stroke="#000000"
         linecap="square"
         d="M4 0 l-4,4" />
    </pattern>
    <symbol
       id="*MODEL_SPACE-25" />
    <symbol
       id="*PAPER_SPACE-42" />
    <marker
       style="overflow:visible"
       refY="0.0"
       refX="0.0"
       orient="auto"
       id="DistanceX-05">
      <path
         id="path2134"
         style="stroke:#000000; stroke-width:0.5"
         d="M 3,-3 L -3,3 M 0,-5 L  0,5" />
    </marker>
    <pattern
       y="0"
       x="0"
       width="8"
       patternUnits="userSpaceOnUse"
       id="Hatch-9"
       height="8">
      <path
         id="path2137"
         stroke-width="0.25"
         stroke="#000000"
         linecap="square"
         d="M8 4 l-4,4" />
      <path
         id="path2139"
         stroke-width="0.25"
         stroke="#000000"
         linecap="square"
         d="M6 2 l-4,4" />
      <path
         id="path2141"
         stroke-width="0.25"
         stroke="#000000"
         linecap="square"
         d="M4 0 l-4,4" />
    </pattern>
    <symbol
       id="*MODEL_SPACE-90" />
    <symbol
       id="*PAPER_SPACE-1" />
  </defs>
  <sodipodi:namedview
     id="base"
     pagecolor="#ffffff"
     bordercolor="#666666"
     borderopacity="1.0"
     inkscape:pageopacity="0.0"
     inkscape:pageshadow="2"
     inkscape:zoom="0.49497475"
     inkscape:cx="1258.6643"
     inkscape:cy="834.73596"
     inkscape:document-units="mm"
     inkscape:current-layer="layer1"
     showgrid="false"
     inkscape:window-width="2560"
     inkscape:window-height="1377"
     inkscape:window-x="-8"
     inkscape:window-y="-8"
     inkscape:window-maximized="1" />
  <metadata
     id="metadata5">
    <rdf:RDF>
      <cc:Work
         rdf:about="">
        <dc:format>image/svg+xml</dc:format>
        <dc:type
           rdf:resource="http://purl.org/dc/dcmitype/StillImage" />
        <dc:title></dc:title>
      </cc:Work>
    </rdf:RDF>
  </metadata>
  <g
     inkscape:label="Layer 1"
     inkscape:groupmode="layer"
     id="layer1"
     transform="translate(0,-87)">
    <g
       id="g2170"
       inkscape:label="0"
       transform="matrix(0.26458333,0,0,0.26458333,29.737504,-155.00625)">
      <path
         id="path2148"
         style="fill:none;stroke:#000000"
         d="m 1252.3465,1113.0709 v -47.2441 h 242.5511 a 37.795276,37.795276 0 0 1 37.7953,37.7952 v 415.7953 a 37.795276,37.795276 0 0 1 -37.7953,37.7953 H -18.897638 a 37.795276,37.795276 0 0 1 -37.795275,-37.7953 V 1103.622 a 37.795276,37.795276 0 0 1 37.795275,-37.7952 H 1195.6535 v 47.2441 H 9.448819 a 18.897638,18.897638 0 0 0 -18.897638,18.8976 v 359.1024 a 18.897638,18.897638 0 0 0 18.897638,18.8976 H 1466.5512 a 18.897638,18.897638 0 0 0 18.8976,-18.8976 v -359.1024 a 18.897638,18.897638 0 0 0 -18.8976,-18.8976 z"
         inkscape:connector-curvature="0" />
      <path
         id="path2150"
         style="fill:none;stroke:#000000"
         d="m 492.96063,1523.1969 a 8.503937,8.503937 0 1 0 -17.00787,0 8.503937,8.503937 0 1 0 17.00787,0 z"
         inkscape:connector-curvature="0" />
      <path
         id="path2152"
         style="fill:none;stroke:#000000"
         d="m 1507.1339,1099.8898 a 8.50395,8.50395 0 1 0 -17.0079,0 8.50395,8.50395 0 1 0 17.0079,0 z"
         inkscape:connector-curvature="0" />
      <path
         id="path2154"
         style="fill:none;stroke:#000000"
         d="m -14.125984,1311.5433 a 8.503937,8.503937 0 1 0 -17.007874,0 8.503937,8.503937 0 1 0 17.007874,0 z"
         inkscape:connector-curvature="0" />
      <path
         id="path2156"
         style="fill:none;stroke:#000000"
         d="m -14.125984,1099.8898 a 8.503937,8.503937 0 1 0 -17.007874,0 8.503937,8.503937 0 1 0 17.007874,0 z"
         inkscape:connector-curvature="0" />
      <path
         id="path2158"
         style="fill:none;stroke:#000000"
         d="m 1507.1339,1311.5433 a 8.50395,8.50395 0 1 0 -17.0079,0 8.50395,8.50395 0 1 0 17.0079,0 z"
         inkscape:connector-curvature="0" />
      <path
         id="path2160"
         style="fill:none;stroke:#000000"
         d="m 1000.0472,1523.1969 a 8.503937,8.503937 0 1 0 -17.00783,0 8.503937,8.503937 0 1 0 17.00783,0 z"
         inkscape:connector-curvature="0" />
      <path
         id="path2162"
         style="fill:none;stroke:#000000"
         d="m 1000.0472,1099.8898 a 8.503937,8.503937 0 1 0 -17.00783,0 8.503937,8.503937 0 1 0 17.00783,0 z"
         inkscape:connector-curvature="0" />
      <path
         id="path2164"
         style="fill:none;stroke:#000000"
         d="m -14.125984,1523.1969 a 8.503937,8.503937 0 1 0 -17.007874,0 8.503937,8.503937 0 1 0 17.007874,0 z"
         inkscape:connector-curvature="0" />
      <path
         id="path2166"
         style="fill:none;stroke:#000000"
         d="m 492.96063,1099.8898 a 8.503937,8.503937 0 1 0 -17.00787,0 8.503937,8.503937 0 1 0 17.00787,0 z"
         inkscape:connector-curvature="0" />
      <path
         id="path2168"
         style="fill:none;stroke:#000000"
         d="m 1507.1339,1523.1969 a 8.50395,8.50395 0 1 0 -17.0079,0 8.50395,8.50395 0 1 0 17.0079,0 z"
         inkscape:connector-curvature="0" />
    </g>
  </g>
</svg>
