<?xml version="1.0" encoding="UTF-8" standalone="no"?>
<!-- Created with Inkscape (http://www.inkscape.org/) -->

<svg
   xmlns:dc="http://purl.org/dc/elements/1.1/"
   xmlns:cc="http://creativecommons.org/ns#"
   xmlns:rdf="http://www.w3.org/1999/02/22-rdf-syntax-ns#"
   xmlns:svg="http://www.w3.org/2000/svg"
   xmlns="http://www.w3.org/2000/svg"
   xmlns:sodipodi="http://sodipodi.sourceforge.net/DTD/sodipodi-0.dtd"
   xmlns:inkscape="http://www.inkscape.org/namespaces/inkscape"
   width="450mm"
   height="210mm"
   viewBox="0 0 450 210"
   version="1.1"
   id="svg8"
   inkscape:version="0.92.4 (5da689c313, 2019-01-14)"
   sodipodi:docname="L4_half_plate.svg">
  <defs
     id="defs2">
    <marker
       style="overflow:visible"
       refY="0"
       refX="0"
       orient="auto"
       id="DistanceX">
      <path
         id="path817"
         style="stroke:#000000;stroke-width:0.5"
         d="M 3,-3 -3,3 M 0,-5 V 5"
         inkscape:connector-curvature="0" />
    </marker>
    <pattern
       y="0"
       x="0"
       width="8"
       patternUnits="userSpaceOnUse"
       id="Hatch"
       height="8">
      <path
         id="path820"
         stroke-width="0.25"
         stroke="#000000"
         linecap="square"
         d="M8 4 l-4,4" />
      <path
         id="path822"
         stroke-width="0.25"
         stroke="#000000"
         linecap="square"
         d="M6 2 l-4,4" />
      <path
         id="path824"
         stroke-width="0.25"
         stroke="#000000"
         linecap="square"
         d="M4 0 l-4,4" />
    </pattern>
    <symbol
       id="*MODEL_SPACE" />
    <symbol
       id="*PAPER_SPACE" />
    <marker
       style="overflow:visible"
       refY="0"
       refX="0"
       orient="auto"
       id="DistanceX-0">
      <path
         id="path901"
         style="stroke:#000000;stroke-width:0.5"
         d="M 3,-3 -3,3 M 0,-5 V 5"
         inkscape:connector-curvature="0" />
    </marker>
    <pattern
       y="0"
       x="0"
       width="8"
       patternUnits="userSpaceOnUse"
       id="Hatch-2"
       height="8">
      <path
         id="path904"
         stroke-width="0.25"
         stroke="#000000"
         linecap="square"
         d="M8 4 l-4,4" />
      <path
         id="path906"
         stroke-width="0.25"
         stroke="#000000"
         linecap="square"
         d="M6 2 l-4,4" />
      <path
         id="path908"
         stroke-width="0.25"
         stroke="#000000"
         linecap="square"
         d="M4 0 l-4,4" />
    </pattern>
    <symbol
       id="*MODEL_SPACE-2" />
    <symbol
       id="*PAPER_SPACE-0" />
    <marker
       style="overflow:visible"
       refY="0"
       refX="0"
       orient="auto"
       id="DistanceX-00">
      <path
         id="path991"
         style="stroke:#000000;stroke-width:0.5"
         d="M 3,-3 -3,3 M 0,-5 V 5"
         inkscape:connector-curvature="0" />
    </marker>
    <pattern
       y="0"
       x="0"
       width="8"
       patternUnits="userSpaceOnUse"
       id="Hatch-23"
       height="8">
      <path
         id="path994"
         stroke-width="0.25"
         stroke="#000000"
         linecap="square"
         d="M8 4 l-4,4" />
      <path
         id="path996"
         stroke-width="0.25"
         stroke="#000000"
         linecap="square"
         d="M6 2 l-4,4" />
      <path
         id="path998"
         stroke-width="0.25"
         stroke="#000000"
         linecap="square"
         d="M4 0 l-4,4" />
    </pattern>
    <symbol
       id="*MODEL_SPACE-9" />
    <symbol
       id="*PAPER_SPACE-3" />
    <marker
       style="overflow:visible"
       refY="0"
       refX="0"
       orient="auto"
       id="DistanceX-1">
      <path
         id="path1087"
         style="stroke:#000000;stroke-width:0.5"
         d="M 3,-3 -3,3 M 0,-5 V 5"
         inkscape:connector-curvature="0" />
    </marker>
    <pattern
       y="0"
       x="0"
       width="8"
       patternUnits="userSpaceOnUse"
       id="Hatch-1"
       height="8">
      <path
         id="path1090"
         stroke-width="0.25"
         stroke="#000000"
         linecap="square"
         d="M8 4 l-4,4" />
      <path
         id="path1092"
         stroke-width="0.25"
         stroke="#000000"
         linecap="square"
         d="M6 2 l-4,4" />
      <path
         id="path1094"
         stroke-width="0.25"
         stroke="#000000"
         linecap="square"
         d="M4 0 l-4,4" />
    </pattern>
    <symbol
       id="*MODEL_SPACE-6" />
    <symbol
       id="*PAPER_SPACE-4" />
    <marker
       style="overflow:visible"
       refY="0.0"
       refX="0.0"
       orient="auto"
       id="DistanceX-4">
      <path
         id="path1729"
         style="stroke:#000000; stroke-width:0.5"
         d="M 3,-3 L -3,3 M 0,-5 L  0,5" />
    </marker>
    <pattern
       y="0"
       x="0"
       width="8"
       patternUnits="userSpaceOnUse"
       id="Hatch-26"
       height="8">
      <path
         id="path1732"
         stroke-width="0.25"
         stroke="#000000"
         linecap="square"
         d="M8 4 l-4,4" />
      <path
         id="path1734"
         stroke-width="0.25"
         stroke="#000000"
         linecap="square"
         d="M6 2 l-4,4" />
      <path
         id="path1736"
         stroke-width="0.25"
         stroke="#000000"
         linecap="square"
         d="M4 0 l-4,4" />
    </pattern>
    <symbol
       id="*MODEL_SPACE-25" />
    <symbol
       id="*PAPER_SPACE-42" />
    <marker
       style="overflow:visible"
       refY="0.0"
       refX="0.0"
       orient="auto"
       id="DistanceX-9">
      <path
         id="path4579"
         style="stroke:#000000; stroke-width:0.5"
         d="M 3,-3 L -3,3 M 0,-5 L  0,5" />
    </marker>
    <pattern
       y="0"
       x="0"
       width="8"
       patternUnits="userSpaceOnUse"
       id="Hatch-5"
       height="8">
      <path
         id="path4582"
         stroke-width="0.25"
         stroke="#000000"
         linecap="square"
         d="M8 4 l-4,4" />
      <path
         id="path4584"
         stroke-width="0.25"
         stroke="#000000"
         linecap="square"
         d="M6 2 l-4,4" />
      <path
         id="path4586"
         stroke-width="0.25"
         stroke="#000000"
         linecap="square"
         d="M4 0 l-4,4" />
    </pattern>
    <symbol
       id="*MODEL_SPACE-94" />
    <symbol
       id="*PAPER_SPACE-48" />
  </defs>
  <sodipodi:namedview
     id="base"
     pagecolor="#ffffff"
     bordercolor="#666666"
     borderopacity="1.0"
     inkscape:pageopacity="0.0"
     inkscape:pageshadow="2"
     inkscape:zoom="0.49497475"
     inkscape:cx="930.36473"
     inkscape:cy="834.73596"
     inkscape:document-units="mm"
     inkscape:current-layer="layer1"
     showgrid="false"
     inkscape:window-width="2560"
     inkscape:window-height="1377"
     inkscape:window-x="-8"
     inkscape:window-y="-8"
     inkscape:window-maximized="1" />
  <metadata
     id="metadata5">
    <rdf:RDF>
      <cc:Work
         rdf:about="">
        <dc:format>image/svg+xml</dc:format>
        <dc:type
           rdf:resource="http://purl.org/dc/dcmitype/StillImage" />
        <dc:title />
      </cc:Work>
    </rdf:RDF>
  </metadata>
  <g
     inkscape:label="Layer 1"
     inkscape:groupmode="layer"
     id="layer1"
     transform="translate(0,-87)">
    <g
       id="g4821"
       inkscape:label="0"
       transform="matrix(0.26458333,0,0,0.26458333,29.737504,-155.00625)">
      <path
         id="path4593"
         style="fill:none;stroke:#000000"
         d="m 1103.7638,1256.9764 h 60.4724 v -45.3544 h -3.7795 v -3.7795 a 3.779528,3.779528 0 0 0 -3.7795,-3.7795 h -45.3544 a 3.779528,3.779528 0 0 0 -3.7795,3.7795 v 3.7795 h -3.7795 z"
         inkscape:connector-curvature="0" />
      <path
         id="path4595"
         style="fill:none;stroke:#000000"
         d="m 1386.8976,1400.9764 a 3.779528,3.779528 0 0 1 3.7796,3.7795 v 11.5276 a 3.779528,3.779528 0 0 1 -3.7796,3.7795 h -41.5748 a 3.779528,3.779528 0 0 0 -3.7795,3.7795 v 45.3544 a 3.779528,3.779528 0 0 0 3.7795,3.7795 h 45.3544 a 3.779528,3.779528 0 0 0 2.6725,-1.107 l 6.3309,-0.1132 14.8112,-0.055 a 3.779528,3.779528 0 0 0 2.831,1.2756 h 45.3544 a 3.779528,3.779528 0 0 0 2.9893,-1.4668 h 0.5902 l 5.8544,-0.01 a 3.779528,3.779528 0 0 0 3.7761,-3.7795 v -27.2694 a 3.779528,3.779528 0 0 0 -3.7795,-3.7795 h -3.8003 a 1.889764,1.889764 0 0 1 -1.8507,-1.5074 v -49.2932 a 1.889764,1.889764 0 0 1 1.8507,-1.5074 h 3.8003 a 3.779528,3.779528 0 0 0 3.7795,-3.7795 v -27.2694 a 3.779528,3.779528 0 0 0 -3.7761,-3.7796 l -5.8544,-0.01 h -0.5902 a 3.779528,3.779528 0 0 0 -2.9893,-1.4668 h -45.3544 a 3.779528,3.779528 0 0 0 -2.831,1.2755 l -14.8112,-0.055 -6.3309,-0.1132 a 3.779528,3.779528 0 0 0 -2.6725,-1.107 h -45.3544 a 3.779528,3.779528 0 0 0 -3.7795,3.7795 v 45.3544 a 3.779528,3.779528 0 0 0 3.7795,3.7795 z"
         inkscape:connector-curvature="0" />
      <path
         id="path4597"
         style="fill:none;stroke:#000000"
         d="m 84.23622,1423.8425 a 3.779528,3.779528 0 0 0 -3.779527,3.7795"
         inkscape:connector-curvature="0" />
      <path
         id="path4599"
         style="fill:none;stroke:#000000"
         d="m 80.456693,1427.622 v 41.5749"
         inkscape:connector-curvature="0" />
      <path
         id="path4601"
         style="fill:none;stroke:#000000"
         d="m 76.677165,1472.9764 a 3.779528,3.779528 0 0 0 3.779528,-3.7795"
         inkscape:connector-curvature="0" />
      <path
         id="path4603"
         style="fill:none;stroke:#000000"
         d="M 76.677165,1472.9764 H 22.322835"
         inkscape:connector-curvature="0" />
      <path
         id="path4605"
         style="fill:none;stroke:#000000"
         d="m 18.543307,1469.1969 a 3.779528,3.779528 0 0 0 3.779528,3.7795"
         inkscape:connector-curvature="0" />
      <path
         id="path4607"
         style="fill:none;stroke:#000000"
         d="m 18.543307,1469.1969 v -45.3544"
         inkscape:connector-curvature="0" />
      <path
         id="path4609"
         style="fill:none;stroke:#000000"
         d="m 19.763476,1421.0614 a 3.779528,3.779528 0 0 0 -1.220169,2.7811"
         inkscape:connector-curvature="0" />
      <path
         id="path4611"
         style="fill:none;stroke:#000000"
         d="m 19.763476,1421.0614 v -6.2001"
         inkscape:connector-curvature="0" />
      <path
         id="path4613"
         style="fill:none;stroke:#000000"
         d="m 19.763476,1414.8391 0.248846,-66.5761"
         inkscape:connector-curvature="0" />
      <path
         id="path4615"
         style="fill:none;stroke:#000000"
         d="m 20.012322,1348.263 0.0052,-5.8544"
         inkscape:connector-curvature="0" />
      <path
         id="path4617"
         style="fill:none;stroke:#000000"
         d="m 23.797068,1338.6324 a 3.779528,3.779528 0 0 0 -3.779526,3.7762"
         inkscape:connector-curvature="0" />
      <path
         id="path4619"
         style="fill:none;stroke:#000000"
         d="M 23.797068,1338.6324 H 51.066507"
         inkscape:connector-curvature="0" />
      <path
         id="path4621"
         style="fill:none;stroke:#000000"
         d="m 54.846035,1342.412 a 3.779528,3.779528 0 0 0 -3.779528,-3.7796"
         inkscape:connector-curvature="0" />
      <path
         id="path4623"
         style="fill:none;stroke:#000000"
         d="m 54.846035,1342.412 v 3.8003"
         inkscape:connector-curvature="0" />
      <path
         id="path4625"
         style="fill:none;stroke:#000000"
         d="m 54.846035,1346.2123 a 1.889764,1.889764 0 0 0 1.889763,1.8898"
         inkscape:connector-curvature="0" />
      <path
         id="path4627"
         style="fill:none;stroke:#000000"
         d="m 56.735798,1348.1021 h 0.85617"
         inkscape:connector-curvature="0" />
      <path
         id="path4629"
         style="fill:none;stroke:#000000"
         d="m 58.322835,1348.063 a 6.851031,6.851031 0 0 0 -0.730867,0.039"
         inkscape:connector-curvature="0" />
      <path
         id="path4631"
         style="fill:none;stroke:#000000"
         d="M 58.322835,1348.063 H 103.67717"
         inkscape:connector-curvature="0" />
      <path
         id="path4633"
         style="fill:none;stroke:#000000"
         d="m 104.40803,1348.1021 a 6.851031,6.851031 0 0 0 -0.73086,-0.039"
         inkscape:connector-curvature="0" />
      <path
         id="path4635"
         style="fill:none;stroke:#000000"
         d="m 104.40803,1348.1021 h 0.85617"
         inkscape:connector-curvature="0" />
      <path
         id="path4637"
         style="fill:none;stroke:#000000"
         d="m 105.2642,1348.1021 a 1.889764,1.889764 0 0 0 1.88977,-1.8898"
         inkscape:connector-curvature="0" />
      <path
         id="path4639"
         style="fill:none;stroke:#000000"
         d="m 107.15397,1346.2123 v -3.8003"
         inkscape:connector-curvature="0" />
      <path
         id="path4641"
         style="fill:none;stroke:#000000"
         d="m 110.93349,1338.6324 a 3.779528,3.779528 0 0 0 -3.77952,3.7796"
         inkscape:connector-curvature="0" />
      <path
         id="path4643"
         style="fill:none;stroke:#000000"
         d="m 110.93349,1338.6324 h 27.26944"
         inkscape:connector-curvature="0" />
      <path
         id="path4645"
         style="fill:none;stroke:#000000"
         d="m 141.98246,1342.4086 a 3.779528,3.779528 0 0 0 -3.77953,-3.7762"
         inkscape:connector-curvature="0" />
      <path
         id="path4647"
         style="fill:none;stroke:#000000"
         d="m 141.98246,1342.4086 0.005,5.8544"
         inkscape:connector-curvature="0" />
      <path
         id="path4649"
         style="fill:none;stroke:#000000"
         d="m 141.98768,1348.263 0.24884,66.5761"
         inkscape:connector-curvature="0" />
      <path
         id="path4651"
         style="fill:none;stroke:#000000"
         d="m 142.1121,1415.8151 a 3.779528,3.779528 0 0 0 0.12442,-0.976"
         inkscape:connector-curvature="0" />
      <path
         id="path4653"
         style="fill:none;stroke:#000000"
         d="m 142.1121,1415.8151 v 4.2479"
         inkscape:connector-curvature="0" />
      <path
         id="path4655"
         style="fill:none;stroke:#000000"
         d="m 142.1121,1420.063 h 24.56506"
         inkscape:connector-curvature="0" />
      <path
         id="path4657"
         style="fill:none;stroke:#000000"
         d="m 170.45669,1423.8425 a 3.779528,3.779528 0 0 0 -3.77953,-3.7795"
         inkscape:connector-curvature="0" />
      <path
         id="path4659"
         style="fill:none;stroke:#000000"
         d="m 170.45669,1423.8425 v 45.3544"
         inkscape:connector-curvature="0" />
      <path
         id="path4661"
         style="fill:none;stroke:#000000"
         d="m 166.67716,1472.9764 a 3.779528,3.779528 0 0 0 3.77953,-3.7795"
         inkscape:connector-curvature="0" />
      <path
         id="path4663"
         style="fill:none;stroke:#000000"
         d="M 166.67716,1472.9764 H 103.32283"
         inkscape:connector-curvature="0" />
      <path
         id="path4665"
         style="fill:none;stroke:#000000"
         d="m 99.543307,1469.1969 a 3.779528,3.779528 0 0 0 3.779523,3.7795"
         inkscape:connector-curvature="0" />
      <path
         id="path4667"
         style="fill:none;stroke:#000000"
         d="M 99.543307,1469.1969 V 1427.622"
         inkscape:connector-curvature="0" />
      <path
         id="path4669"
         style="fill:none;stroke:#000000"
         d="m 99.543307,1427.622 a 3.779528,3.779528 0 0 0 -3.779527,-3.7795"
         inkscape:connector-curvature="0" />
      <path
         id="path4671"
         style="fill:none;stroke:#000000"
         d="M 95.76378,1423.8425 H 84.23622"
         inkscape:connector-curvature="0" />
      <path
         id="path4673"
         style="fill:none;stroke:#000000"
         d="m 886.67716,1420.063 h -63.35432 a 3.779528,3.779528 0 0 0 -3.77953,3.7795 v 45.3544 a 3.779528,3.779528 0 0 0 3.77953,3.7795 h 63.35432 a 3.779528,3.779528 0 0 0 3.77953,-3.7795 v -45.3544 a 3.779528,3.779528 0 0 0 -3.77953,-3.7795 z"
         inkscape:connector-curvature="0" />
      <path
         id="path4675"
         style="fill:none;stroke:#000000"
         d="m 1269.5433,1423.8425 a 3.779528,3.779528 0 0 1 3.7795,-3.7795 h 45.3544 a 3.779528,3.779528 0 0 1 3.7795,3.7795 v 45.3544 a 3.779528,3.779528 0 0 1 -3.7795,3.7795 h -45.3544 a 3.779528,3.779528 0 0 1 -3.7795,-3.7795 z"
         inkscape:connector-curvature="0" />
      <path
         id="path4677"
         style="fill:none;stroke:#000000"
         d="m 1269.5433,1279.8425 a 3.779528,3.779528 0 0 1 3.7795,-3.7795 h 45.3544 a 3.779528,3.779528 0 0 1 3.7795,3.7795 v 45.3544 a 3.779528,3.779528 0 0 1 -3.7795,3.7795 h -45.3544 a 3.779528,3.779528 0 0 1 -3.7795,-3.7795 z"
         inkscape:connector-curvature="0" />
      <path
         id="path4679"
         style="fill:none;stroke:#000000"
         d="m 1197.5433,1279.8425 a 3.779528,3.779528 0 0 1 3.7795,-3.7795 h 45.3544 a 3.779528,3.779528 0 0 1 3.7795,3.7795 v 45.3544 a 3.779528,3.779528 0 0 1 -3.7795,3.7795 h -45.3544 a 3.779528,3.779528 0 0 1 -3.7795,-3.7795 z"
         inkscape:connector-curvature="0" />
      <path
         id="path4681"
         style="fill:none;stroke:#000000"
         d="m 1413.5433,1135.8425 a 3.779528,3.779528 0 0 1 3.7795,-3.7795 h 45.3544 a 3.779528,3.779528 0 0 1 3.7795,3.7795 v 45.3544 a 3.779528,3.779528 0 0 1 -3.7795,3.7795 h -45.3544 a 3.779528,3.779528 0 0 1 -3.7795,-3.7795 z"
         inkscape:connector-curvature="0" />
      <path
         id="path4683"
         style="fill:none;stroke:#000000"
         d="m 9.543307,1135.8425 a 3.779528,3.779528 0 0 1 3.779528,-3.7795 h 45.35433 a 3.779528,3.779528 0 0 1 3.779528,3.7795 v 45.3544 a 3.779528,3.779528 0 0 1 -3.779528,3.7795 h -45.35433 a 3.779528,3.779528 0 0 1 -3.779528,-3.7795 z"
         inkscape:connector-curvature="0" />
      <path
         id="path4685"
         style="fill:none;stroke:#000000"
         d="m 1341.5433,1135.8425 a 3.779528,3.779528 0 0 1 3.7795,-3.7795 h 45.3544 a 3.779528,3.779528 0 0 1 3.7795,3.7795 v 45.3544 a 3.779528,3.779528 0 0 1 -3.7795,3.7795 h -45.3544 a 3.779528,3.779528 0 0 1 -3.7795,-3.7795 z"
         inkscape:connector-curvature="0" />
      <path
         id="path4687"
         style="fill:none;stroke:#000000"
         d="m 1269.5433,1135.8425 a 3.779528,3.779528 0 0 1 3.7795,-3.7795 h 45.3544 a 3.779528,3.779528 0 0 1 3.7795,3.7795 v 45.3544 a 3.779528,3.779528 0 0 1 -3.7795,3.7795 h -45.3544 a 3.779528,3.779528 0 0 1 -3.7795,-3.7795 z"
         inkscape:connector-curvature="0" />
      <path
         id="path4689"
         style="fill:none;stroke:#000000"
         d="m 1107.5433,1441.8425 a 3.779528,3.779528 0 0 1 3.7795,-3.7795 h 45.3544 a 3.779528,3.779528 0 0 1 3.7795,3.7795 v 45.3544 a 3.779528,3.779528 0 0 1 -3.7795,3.7795 h -45.3544 a 3.779528,3.779528 0 0 1 -3.7795,-3.7795 z"
         inkscape:connector-curvature="0" />
      <path
         id="path4691"
         style="fill:none;stroke:#000000"
         d="m 1179.5433,1441.8425 a 3.779528,3.779528 0 0 1 3.7795,-3.7795 h 45.3544 a 3.779528,3.779528 0 0 1 3.7795,3.7795 v 45.3544 a 3.779528,3.779528 0 0 1 -3.7795,3.7795 h -45.3544 a 3.779528,3.779528 0 0 1 -3.7795,-3.7795 z"
         inkscape:connector-curvature="0" />
      <path
         id="path4693"
         style="fill:none;stroke:#000000"
         d="m 1197.5433,1351.8425 a 3.779528,3.779528 0 0 1 3.7795,-3.7795 h 45.3544 a 3.779528,3.779528 0 0 1 3.7795,3.7795 v 45.3544 a 3.779528,3.779528 0 0 1 -3.7795,3.7795 h -45.3544 a 3.779528,3.779528 0 0 1 -3.7795,-3.7795 z"
         inkscape:connector-curvature="0" />
      <path
         id="path4695"
         style="fill:none;stroke:#000000"
         d="m 775.27196,1486.8391 -0.0518,-13.8627 h 21.45702 a 3.779528,3.779528 0 0 0 3.77953,-3.7795 v -45.3544 a 3.779528,3.779528 0 0 0 -3.77953,-3.7795 h -21.65423 l -0.005,-5.6544 a 3.779528,3.779528 0 0 0 -3.77952,-3.7762 h -27.26944 a 3.779528,3.779528 0 0 0 -3.77953,3.7796 v 3.8003 a 1.889764,1.889764 0 0 1 -1.88977,1.8898 h -0.85617 a 6.851031,6.851031 0 0 0 -0.73086,-0.039 l -35.39028,0.2 -0.005,-5.8544 a 3.779528,3.779528 0 0 0 -3.77952,-3.7762 h -27.26944 a 3.779528,3.779528 0 0 0 -3.77953,3.7796 v 3.8003 a 1.889764,1.889764 0 0 1 -1.88976,1.8898 h -0.85617 a 6.851031,6.851031 0 0 0 -0.73087,-0.039 H 400.33465 a 6.851031,6.851031 0 0 0 -0.73087,0.039 h -53.76956 a 1.889764,1.889764 0 0 1 -1.88976,-1.8898 v -3.8003 a 3.779528,3.779528 0 0 0 -3.77953,-3.7796 h -48.05684 a 3.779528,3.779528 0 0 0 -3.77952,3.7762 l -0.005,5.8544 -0.24885,66.5761 a 3.779528,3.779528 0 0 0 3.77339,3.7936 l 24.94041,0.04 48.76037,-0.04 24.94041,0.04 h 282.36829 l 24.94041,-0.04 48.76038,0.04 24.94041,-0.04 a 3.779528,3.779528 0 0 0 3.77339,-3.7936 z"
         inkscape:connector-curvature="0" />
      <path
         id="path4697"
         style="fill:none;stroke:#000000"
         d="m 130.67716,1132.063 a 3.779528,3.779528 0 0 1 3.77953,3.7795 v 45.3544 a 3.779528,3.779528 0 0 1 -3.77953,3.7795 H 85.322835 a 3.779528,3.779528 0 0 1 -3.779528,-3.7795 v -45.3544 a 3.779528,3.779528 0 0 1 3.779528,-3.7795 z"
         inkscape:connector-curvature="0" />
      <path
         id="path4699"
         style="fill:none;stroke:#000000"
         d="m 171.54331,1351.8425 a 3.779528,3.779528 0 0 1 3.77952,-3.7795 h 45.35433 a 3.779528,3.779528 0 0 1 3.77953,3.7795 v 45.3544 a 3.779528,3.779528 0 0 1 -3.77953,3.7795 h -45.35433 a 3.779528,3.779528 0 0 1 -3.77952,-3.7795 z"
         inkscape:connector-curvature="0" />
      <path
         id="path4701"
         style="fill:none;stroke:#000000"
         d="m 1035.5433,1441.8425 a 3.779528,3.779528 0 0 1 3.7795,-3.7795 h 45.3544 a 3.779528,3.779528 0 0 1 3.7795,3.7795 v 45.3544 a 3.779528,3.779528 0 0 1 -3.7795,3.7795 h -45.3544 a 3.779528,3.779528 0 0 1 -3.7795,-3.7795 z"
         inkscape:connector-curvature="0" />
      <path
         id="path4703"
         style="fill:none;stroke:#000000"
         d="m 1197.5433,1135.8425 a 3.779528,3.779528 0 0 1 3.7795,-3.7795 h 45.3544 a 3.779528,3.779528 0 0 1 3.7795,3.7795 v 45.3544 a 3.779528,3.779528 0 0 1 -3.7795,3.7795 h -45.3544 a 3.779528,3.779528 0 0 1 -3.7795,-3.7795 z"
         inkscape:connector-curvature="0" />
      <path
         id="path4705"
         style="fill:none;stroke:#000000"
         d="m 117.54331,1207.8425 a 3.779528,3.779528 0 0 1 3.77952,-3.7795 h 45.35433 a 3.779528,3.779528 0 0 1 3.77953,3.7795 v 45.3544 a 3.779528,3.779528 0 0 1 -3.77953,3.7795 h -45.35433 a 3.779528,3.779528 0 0 1 -3.77952,-3.7795 z"
         inkscape:connector-curvature="0" />
      <path
         id="path4707"
         style="fill:none;stroke:#000000"
         d="m 1269.5433,1207.8425 a 3.779528,3.779528 0 0 1 3.7795,-3.7795 h 45.3544 a 3.779528,3.779528 0 0 1 3.7795,3.7795 v 45.3544 a 3.779528,3.779528 0 0 1 -3.7795,3.7795 h -45.3544 a 3.779528,3.779528 0 0 1 -3.7795,-3.7795 z"
         inkscape:connector-curvature="0" />
      <path
         id="path4709"
         style="fill:none;stroke:#000000"
         d="m 27.543307,1207.8425 v 45.3544 a 3.779528,3.779528 0 0 0 3.779528,3.7795 h 45.35433 a 3.779528,3.779528 0 0 0 3.779528,-3.7795 v -45.3544 a 3.779528,3.779528 0 0 0 -3.779528,-3.7795 h -45.35433 a 3.779528,3.779528 0 0 0 -3.779528,3.7795 z"
         inkscape:connector-curvature="0" />
      <path
         id="path4711"
         style="fill:none;stroke:#000000"
         d="m 1197.5433,1207.8425 a 3.779528,3.779528 0 0 1 3.7795,-3.7795 h 45.3544 a 3.779528,3.779528 0 0 1 3.7795,3.7795 v 45.3544 a 3.779528,3.779528 0 0 1 -3.7795,3.7795 h -45.3544 a 3.779528,3.779528 0 0 1 -3.7795,-3.7795 z"
         inkscape:connector-curvature="0" />
      <path
         id="path4713"
         style="fill:none;stroke:#000000"
         d="m 135.54331,1279.8425 v 45.3544 a 3.779528,3.779528 0 0 0 3.77952,3.7795 h 45.35433 a 3.779528,3.779528 0 0 0 3.77953,-3.7795 v -45.3544 a 3.779528,3.779528 0 0 0 -3.77953,-3.7795 h -45.35433 a 3.779528,3.779528 0 0 0 -3.77952,3.7795 z"
         inkscape:connector-curvature="0" />
      <path
         id="path4715"
         style="fill:none;stroke:#000000"
         d="m 36.543307,1279.8425 a 3.779528,3.779528 0 0 1 3.779528,-3.7795 h 45.35433 a 3.779528,3.779528 0 0 1 3.779528,3.7795 v 45.3544 a 3.779528,3.779528 0 0 1 -3.779528,3.7795 h -45.35433 a 3.779528,3.779528 0 0 1 -3.779528,-3.7795 z"
         inkscape:connector-curvature="0" />
      <path
         id="path4717"
         style="fill:none;stroke:#000000"
         d="m 1269.5433,1351.8425 v 45.3544 a 3.779528,3.779528 0 0 0 3.7795,3.7795 h 45.3544 a 3.779528,3.779528 0 0 0 3.7795,-3.7795 v -45.3544 a 3.779528,3.779528 0 0 0 -3.7795,-3.7795 h -45.3544 a 3.779528,3.779528 0 0 0 -3.7795,3.7795 z"
         inkscape:connector-curvature="0" />
      <path
         id="path4719"
         style="fill:none;stroke:#000000"
         d="m 256.67716,1420.063 h -63.35433 a 3.779528,3.779528 0 0 0 -3.77952,3.7795 v 45.3544 a 3.779528,3.779528 0 0 0 3.77952,3.7795 h 63.35433 a 3.779528,3.779528 0 0 0 3.77953,-3.7795 v -45.3544 a 3.779528,3.779528 0 0 0 -3.77953,-3.7795 z"
         inkscape:connector-curvature="0" />
      <path
         id="path4721"
         style="fill:none;stroke:#000000"
         d="m 1107.5433,1369.8425 a 3.779528,3.779528 0 0 1 3.7795,-3.7795 h 45.3544 a 3.779528,3.779528 0 0 1 3.7795,3.7795 v 45.3544 a 3.779528,3.779528 0 0 1 -3.7795,3.7795 h -45.3544 a 3.779528,3.779528 0 0 1 -3.7795,-3.7795 z"
         inkscape:connector-curvature="0" />
      <path
         id="path4723"
         style="fill:none;stroke:#000000"
         d="m 1103.7638,1184.9764 h 60.4724 v -45.3544 h -3.7795 v -3.7795 a 3.779528,3.779528 0 0 0 -3.7795,-3.7795 h -45.3544 a 3.779528,3.779528 0 0 0 -3.7795,3.7795 v 3.7795 h -3.7795 z"
         inkscape:connector-curvature="0" />
      <path
         id="path4725"
         style="fill:none;stroke:#000000"
         d="m -18.897638,1557.2126 a 37.795276,37.795276 0 0 1 -37.795275,-37.7953 V 1103.622 a 37.795276,37.795276 0 0 1 37.795275,-37.7952 H 1494.8976 a 37.795276,37.795276 0 0 1 37.7953,37.7952 v 415.7953 a 37.795276,37.795276 0 0 1 -37.7953,37.7953 z"
         inkscape:connector-curvature="0" />
      <path
         id="path4727"
         style="fill:none;stroke:#000000"
         d="m 1064.0215,1348.063 a 3.779528,3.779528 0 0 1 -3.7795,-3.7654 l -0.2543,-68.0346 -0.01,-5.8544 a 3.779528,3.779528 0 0 0 -3.7796,-3.7762 h -27.2694 a 3.779528,3.779528 0 0 0 -3.7795,3.7796 v 3.8003 a 1.889764,1.889764 0 0 1 -1.8898,1.8898 h -0.8562 a 6.851031,6.851031 0 0 0 -0.7308,-0.039 h -45.35436 a 6.851031,6.851031 0 0 0 -0.73087,0.039 H 974.731 a 1.889764,1.889764 0 0 1 -1.88976,-1.8898 v -3.8003 a 3.779528,3.779528 0 0 0 -3.77953,-3.7796 h -27.26944 a 3.779528,3.779528 0 0 0 -3.77953,3.7762 l -0.005,5.8544 -0.21905,58.604 a 3.779528,3.779528 0 0 1 -3.7795,3.7654 h -10.2167 a 3.779528,3.779528 0 0 0 -3.77953,3.7762 l -0.005,5.8544 -0.002,0.5902 a 3.779528,3.779528 0 0 0 -1.46681,2.9893 v 45.3544 a 3.779528,3.779528 0 0 0 1.27553,2.831 l -0.0554,14.8112 a 3.779528,3.779528 0 0 0 3.77338,3.7936 h 1.97377 a 3.779528,3.779528 0 0 1 2.03268,3.3516 v 47.2094 a 3.779528,3.779528 0 0 0 3.77953,3.7795 h 45.35432 a 3.779528,3.779528 0 0 0 3.77953,-3.7795 v -46.7443 a 3.779528,3.779528 0 0 1 3.77953,-3.7795 h 29.28648 l 24.9404,-0.04 a 3.779528,3.779528 0 0 0 3.7734,-3.7936 l -0.038,-10.0691 a 3.779528,3.779528 0 0 1 3.7795,-3.7936 h 20.6988 a 3.779528,3.779528 0 0 0 3.7795,-3.7795 v -45.3544 a 3.779528,3.779528 0 0 0 -3.7795,-3.7795 z"
         inkscape:connector-curvature="0" />
      <path
         id="path4729"
         style="fill:none;stroke:#000000"
         d="m 1386.8976,1276.063 a 3.779528,3.779528 0 0 0 3.7796,-3.7795"
         inkscape:connector-curvature="0" />
      <path
         id="path4731"
         style="fill:none;stroke:#000000"
         d="m 1390.6772,1272.2835 v -11.5276"
         inkscape:connector-curvature="0" />
      <path
         id="path4733"
         style="fill:none;stroke:#000000"
         d="m 1390.6772,1260.7559 a 3.779528,3.779528 0 0 0 -3.7796,-3.7795"
         inkscape:connector-curvature="0" />
      <path
         id="path4735"
         style="fill:none;stroke:#000000"
         d="m 1386.8976,1256.9764 h -41.5748"
         inkscape:connector-curvature="0" />
      <path
         id="path4737"
         style="fill:none;stroke:#000000"
         d="m 1341.5433,1253.1969 a 3.779528,3.779528 0 0 0 3.7795,3.7795"
         inkscape:connector-curvature="0" />
      <path
         id="path4739"
         style="fill:none;stroke:#000000"
         d="m 1341.5433,1253.1969 v -45.3544"
         inkscape:connector-curvature="0" />
      <path
         id="path4741"
         style="fill:none;stroke:#000000"
         d="m 1345.3228,1204.063 a 3.779528,3.779528 0 0 0 -3.7795,3.7795"
         inkscape:connector-curvature="0" />
      <path
         id="path4743"
         style="fill:none;stroke:#000000"
         d="m 1345.3228,1204.063 h 45.3544"
         inkscape:connector-curvature="0" />
      <path
         id="path4745"
         style="fill:none;stroke:#000000"
         d="m 1393.4583,1205.2832 a 3.779528,3.779528 0 0 0 -2.7811,-1.2202"
         inkscape:connector-curvature="0" />
      <path
         id="path4747"
         style="fill:none;stroke:#000000"
         d="m 1393.4583,1205.2832 h 6.2001"
         inkscape:connector-curvature="0" />
      <path
         id="path4749"
         style="fill:none;stroke:#000000"
         d="m 1399.6806,1205.2832 14.8112,0.055"
         inkscape:connector-curvature="0" />
      <path
         id="path4751"
         style="fill:none;stroke:#000000"
         d="m 1417.3228,1204.063 a 3.779528,3.779528 0 0 0 -2.831,1.2755"
         inkscape:connector-curvature="0" />
      <path
         id="path4753"
         style="fill:none;stroke:#000000"
         d="m 1417.3228,1204.063 h 45.3544"
         inkscape:connector-curvature="0" />
      <path
         id="path4755"
         style="fill:none;stroke:#000000"
         d="m 1465.6665,1205.5298 a 3.779528,3.779528 0 0 0 -2.9893,-1.4668"
         inkscape:connector-curvature="0" />
      <path
         id="path4757"
         style="fill:none;stroke:#000000"
         d="m 1465.6665,1205.5298 h 0.5902"
         inkscape:connector-curvature="0" />
      <path
         id="path4759"
         style="fill:none;stroke:#000000"
         d="m 1466.2567,1205.532 5.8544,0.01"
         inkscape:connector-curvature="0" />
      <path
         id="path4761"
         style="fill:none;stroke:#000000"
         d="m 1475.8872,1209.3168 a 3.779528,3.779528 0 0 0 -3.7761,-3.7796"
         inkscape:connector-curvature="0" />
      <path
         id="path4763"
         style="fill:none;stroke:#000000"
         d="m 1475.8872,1209.3168 v 27.2694"
         inkscape:connector-curvature="0" />
      <path
         id="path4765"
         style="fill:none;stroke:#000000"
         d="m 1472.1077,1240.3657 a 3.779528,3.779528 0 0 0 3.7795,-3.7795"
         inkscape:connector-curvature="0" />
      <path
         id="path4767"
         style="fill:none;stroke:#000000"
         d="m 1472.1077,1240.3657 h -3.8003"
         inkscape:connector-curvature="0" />
      <path
         id="path4769"
         style="fill:none;stroke:#000000"
         d="m 1468.3074,1240.3657 a 1.889764,1.889764 0 0 0 -1.8507,1.5074"
         inkscape:connector-curvature="0" />
      <path
         id="path4771"
         style="fill:none;stroke:#000000"
         d="m 1466.4567,1241.8731 v 49.2932"
         inkscape:connector-curvature="0" />
      <path
         id="path4773"
         style="fill:none;stroke:#000000"
         d="m 1466.4567,1291.1663 a 1.889764,1.889764 0 0 0 1.8507,1.5074"
         inkscape:connector-curvature="0" />
      <path
         id="path4775"
         style="fill:none;stroke:#000000"
         d="m 1468.3074,1292.6737 h 3.8003"
         inkscape:connector-curvature="0" />
      <path
         id="path4777"
         style="fill:none;stroke:#000000"
         d="m 1475.8872,1296.4532 a 3.779528,3.779528 0 0 0 -3.7795,-3.7795"
         inkscape:connector-curvature="0" />
      <path
         id="path4779"
         style="fill:none;stroke:#000000"
         d="m 1475.8872,1296.4532 v 27.2694"
         inkscape:connector-curvature="0" />
      <path
         id="path4781"
         style="fill:none;stroke:#000000"
         d="m 1472.1111,1327.5021 a 3.779528,3.779528 0 0 0 3.7761,-3.7795"
         inkscape:connector-curvature="0" />
      <path
         id="path4783"
         style="fill:none;stroke:#000000"
         d="m 1472.1111,1327.5021 -5.8544,0.01"
         inkscape:connector-curvature="0" />
      <path
         id="path4785"
         style="fill:none;stroke:#000000"
         d="m 1466.2567,1327.5074 h -0.5902"
         inkscape:connector-curvature="0" />
      <path
         id="path4787"
         style="fill:none;stroke:#000000"
         d="m 1462.6772,1328.9764 a 3.779528,3.779528 0 0 0 2.9893,-1.4668"
         inkscape:connector-curvature="0" />
      <path
         id="path4789"
         style="fill:none;stroke:#000000"
         d="M 1462.6772,1328.9764 H 1345.3228"
         inkscape:connector-curvature="0" />
      <path
         id="path4791"
         style="fill:none;stroke:#000000"
         d="m 1341.5433,1325.1969 a 3.779528,3.779528 0 0 0 3.7795,3.7795"
         inkscape:connector-curvature="0" />
      <path
         id="path4793"
         style="fill:none;stroke:#000000"
         d="m 1341.5433,1325.1969 v -45.3544"
         inkscape:connector-curvature="0" />
      <path
         id="path4795"
         style="fill:none;stroke:#000000"
         d="m 1345.3228,1276.063 a 3.779528,3.779528 0 0 0 -3.7795,3.7795"
         inkscape:connector-curvature="0" />
      <path
         id="path4797"
         style="fill:none;stroke:#000000"
         d="m 1345.3228,1276.063 h 41.5748"
         inkscape:connector-curvature="0" />
      <path
         id="path4799"
         style="fill:none;stroke:#000000"
         d="m 492.96063,1523.1969 a 8.503937,8.503937 0 1 0 -17.00787,0 8.503937,8.503937 0 1 0 17.00787,0 z"
         inkscape:connector-curvature="0" />
      <path
         id="path4801"
         style="fill:none;stroke:#000000"
         d="m 1507.1339,1099.8898 a 8.50395,8.50395 0 1 0 -17.0079,0 8.50395,8.50395 0 1 0 17.0079,0 z"
         inkscape:connector-curvature="0" />
      <path
         id="path4803"
         style="fill:none;stroke:#000000"
         d="m -14.125984,1311.5433 a 8.503937,8.503937 0 1 0 -17.007874,0 8.503937,8.503937 0 1 0 17.007874,0 z"
         inkscape:connector-curvature="0" />
      <path
         id="path4805"
         style="fill:none;stroke:#000000"
         d="m -14.125984,1099.8898 a 8.503937,8.503937 0 1 0 -17.007874,0 8.503937,8.503937 0 1 0 17.007874,0 z"
         inkscape:connector-curvature="0" />
      <path
         id="path4807"
         style="fill:none;stroke:#000000"
         d="m 1507.1339,1311.5433 a 8.50395,8.50395 0 1 0 -17.0079,0 8.50395,8.50395 0 1 0 17.0079,0 z"
         inkscape:connector-curvature="0" />
      <path
         id="path4809"
         style="fill:none;stroke:#000000"
         d="m 1000.0472,1523.1969 a 8.503937,8.503937 0 1 0 -17.00783,0 8.503937,8.503937 0 1 0 17.00783,0 z"
         inkscape:connector-curvature="0" />
      <path
         id="path4811"
         style="fill:none;stroke:#000000"
         d="m 1000.0472,1099.8898 a 8.503937,8.503937 0 1 0 -17.00783,0 8.503937,8.503937 0 1 0 17.00783,0 z"
         inkscape:connector-curvature="0" />
      <path
         id="path4813"
         style="fill:none;stroke:#000000"
         d="m -14.125984,1523.1969 a 8.503937,8.503937 0 1 0 -17.007874,0 8.503937,8.503937 0 1 0 17.007874,0 z"
         inkscape:connector-curvature="0" />
      <path
         id="path4815"
         style="fill:none;stroke:#000000"
         d="m 492.96063,1099.8898 a 8.503937,8.503937 0 1 0 -17.00787,0 8.503937,8.503937 0 1 0 17.00787,0 z"
         inkscape:connector-curvature="0" />
      <path
         id="path4817"
         style="fill:none;stroke:#000000"
         d="m 1507.1339,1523.1969 a 8.50395,8.50395 0 1 0 -17.0079,0 8.50395,8.50395 0 1 0 17.0079,0 z"
         inkscape:connector-curvature="0" />
      <path
         id="path4819"
         style="fill:none;stroke:#000000"
         d="m 870.56693,1348.5694 a 3.779528,3.779528 0 0 1 -1.88977,-3.2732 v -12.5403 a 3.779528,3.779528 0 0 1 3.77953,-3.7795 h 32.22047 a 3.779528,3.779528 0 0 0 3.77953,-3.7795 v -45.3544 a 3.779528,3.779528 0 0 0 -3.77953,-3.7795 h -14.22047 a 3.779528,3.779528 0 0 1 -3.77953,-3.7795 v -11.5276 a 3.779528,3.779528 0 0 1 3.77953,-3.7795 h 68.22047 a 3.779528,3.779528 0 0 0 3.77953,-3.7795 v -41.5749 a 3.779528,3.779528 0 0 1 3.77953,-3.7795 h 29.52756 a 3.779528,3.779528 0 0 1 3.77953,3.7795 v 41.5749 a 3.779528,3.779528 0 0 0 3.77949,3.7795 h 45.3544 a 3.779528,3.779528 0 0 0 3.7795,-3.7795 v -46.7697 a 3.779528,3.779528 0 0 1 3.7734,-3.7796 l 9.233,-0.015 a 3.779528,3.779528 0 0 0 3.7734,-3.7936 l -0.055,-14.8112 a 3.779528,3.779528 0 0 0 1.2755,-2.831 v -45.3544 a 3.779528,3.779528 0 0 0 -1.4668,-2.9893 v -0.5902 l -0.01,-5.8544 a 3.779528,3.779528 0 0 0 -3.7796,-3.7762 h -27.2694 a 3.779528,3.779528 0 0 0 -3.7795,3.7796 v 3.8003 a 1.889764,1.889764 0 0 1 -1.5074,1.8507 h -49.29321 a 1.889764,1.889764 0 0 1 -1.50735,-1.8507 v -3.8003 a 3.779528,3.779528 0 0 0 -3.77953,-3.7796 h -27.26944 a 3.779528,3.779528 0 0 0 -3.77953,3.7762 l -0.005,5.8544 -0.002,0.5902 a 3.779528,3.779528 0 0 0 -1.46681,2.9893 v 41.5748 a 3.779528,3.779528 0 0 1 -3.77953,3.7796 h -11.52756 a 3.779528,3.779528 0 0 1 -3.77953,-3.7796 v -41.5748 a 3.779528,3.779528 0 0 0 -3.77953,-3.7795 H 157.32283 a 3.779528,3.779528 0 0 0 -3.77952,3.7795 v 45.3544 a 3.779528,3.779528 0 0 0 3.77952,3.7795 h 41.57481 a 3.779528,3.779528 0 0 1 3.77952,3.7795 v 11.5276 a 3.779528,3.779528 0 0 1 -3.77952,3.7795 h -5.57481 a 3.779528,3.779528 0 0 0 -3.77952,3.7795 v 45.3544 a 3.779528,3.779528 0 0 0 3.77952,3.7795 h 36.89764 A 3.779528,3.779528 0 0 1 234,1260.7559 v 11.5276 a 3.779528,3.779528 0 0 1 -3.77953,3.7795 h -18.89764 a 3.779528,3.779528 0 0 0 -3.77952,3.7795 v 45.3544 a 3.779528,3.779528 0 0 0 3.77952,3.7795 h 18.89764 A 3.779528,3.779528 0 0 1 234,1332.7559 v 15.3071 h 5.76378 a 3.779528,3.779528 0 0 1 3.77953,3.7795 v 45.3544 a 3.779528,3.779528 0 0 0 3.77952,3.7795 h 621.35433 a 3.779528,3.779528 0 0 0 3.77953,-3.7795 v -45.3544 a 3.779528,3.779528 0 0 0 -1.88976,-3.2731 z"
         inkscape:connector-curvature="0" />
    </g>
  </g>
</svg>
