0
SECTION
2
HEADER
9
$INSUNITS
70
4
9
$ACADVER
1
AC1014
9
$HANDSEED
5
FFFF
0
ENDSEC
0
SECTION
2
TABLES
0
TABLE
2
VPORT
5
8
100
AcDbSymbolTable
0
ENDTAB
0
TABLE
2
LTYPE
5
5
100
AcDbSymbolTable
0
LTYPE
5
14
100
AcDbSymbolTableRecord
100
AcDbLinetypeTableRecord
2
BYBLOCK
70
0
0
LTYPE
5
15
100
AcDbSymbolTableRecord
100
AcDbLinetypeTableRecord
2
BYLAYER
70
0
0
ENDTAB
0
TABLE
2
LAYER
5
2
100
AcDbSymbolTable
70
2
0
LAYER
5
50
100
AcDbSymbolTableRecord
100
AcDbLayerTableRecord
2
0
70
0
6
CONTINUOUS
0
ENDTAB
0
TABLE
2
STYLE
5
3
100
AcDbSymbolTable
70
1
0
STYLE
5
11
100
AcDbSymbolTableRecord
100
AcDbTextStyleTableRecord
2
STANDARD
70
0
0
ENDTAB
0
TABLE
2
VIEW
5
6
100
AcDbSymbolTable
70
0
0
ENDTAB
0
TABLE
2
UCS
5
7
100
AcDbSymbolTable
70
0
0
ENDTAB
0
TABLE
2
APPID
5
9
100
AcDbSymbolTable
70
2
0
APPID
5
12
100
AcDbSymbolTableRecord
100
AcDbRegAppTableRecord
2
ACAD
70
0
0
ENDTAB
0
TABLE
2
DIMSTYLE
5
A
100
AcDbSymbolTable
70
1
0
ENDTAB
0
TABLE
2
BLOCK_RECORD
5
1
100
AcDbSymbolTable
70
1
0
BLOCK_RECORD
5
1F
100
AcDbSymbolTableRecord
100
AcDbBlockTableRecord
2
*MODEL_SPACE
0
BLOCK_RECORD
5
1B
100
AcDbSymbolTableRecord
100
AcDbBlockTableRecord
2
*PAPER_SPACE
0
ENDTAB
0
ENDSEC
0
SECTION
2
BLOCKS
0
BLOCK
5
20
100
AcDbEntity
100
AcDbBlockBegin
2
*MODEL_SPACE
0
ENDBLK
5
21
100
AcDbEntity
100
AcDbBlockEnd
0
BLOCK
5
1C
100
AcDbEntity
100
AcDbBlockBegin
2
*PAPER_SPACE
0
ENDBLK
5
1D
100
AcDbEntity
100
AcDbBlockEnd
0
ENDSEC
0
SECTION
2
ENTITIES
0
LWPOLYLINE
5
100
100
AcDbEntity
8
0
100
AcDbPolyline
90
10
70
1
43
0.0
10
292.03750000000002
20
-35.575000000000003
10
308.03750000000008
20
-35.575000000000003
10
308.03750000000008
20
-23.575000000000003
10
307.03750000000008
20
-23.575000000000003
10
307.03750000000008
20
-22.574999999999999
42
0.41421356237309503
10
306.03750000000002
20
-21.574999999999996
10
294.03750000000002
20
-21.574999999999996
42
0.41421356237310675
10
293.03750000000002
20
-22.574999999999999
10
293.03750000000002
20
-23.575000000000003
10
292.03750000000002
20
-23.575000000000003
0
LWPOLYLINE
5
101
100
AcDbEntity
8
0
100
AcDbPolyline
90
40
70
1
43
0.0
10
366.95000000000005
20
-73.675000000000011
42
-0.41421356237304563
10
367.9500000000001
20
-74.674999999999997
10
367.9500000000001
20
-77.725000000000009
42
-0.41421356237307683
10
366.94999999999999
20
-78.725000000000009
10
355.94999999999999
20
-78.725000000000009
42
0.41421356237304563
10
354.94999999999999
20
-79.724999999999994
10
354.94999999999999
20
-91.724999999999994
42
0.41421356237312623
10
355.94999999999999
20
-92.724999999999994
10
367.95000000000005
20
-92.724999999999994
42
0.19891236737965476
10
368.65710678118649
20
-92.432106781186491
10
370.3321674199322
20
-92.402163537561677
10
374.25095228529079
20
-92.387516053457546
42
0.21487416635038972
10
375
20
-92.724999999999994
10
387
20
-92.724999999999994
42
0.2321208774007737
10
387.79092984194443
20
-92.336906843499605
10
387.94707442489624
20
-92.33632321225285
10
389.49605843775919
20
-92.334942062764625
42
0.41395242870915389
10
390.49516678947384
20
-91.334942460283074
10
390.49516678947379
20
-84.119903351743076
42
0.41421356237312101
10
389.49516678947373
20
-83.119903351743062
10
388.48965587438795
20
-83.119903351743062
42
-0.35571604630434861
10
388.00000000000006
20
-82.721082028732695
10
388.00000000000006
20
-69.678917971267325
42
-0.35571604630438863
10
388.48965587438806
20
-69.280096648256958
10
389.49516678947373
20
-69.280096648256958
42
0.41421356237310025
10
390.49516678947379
20
-68.280096648256944
10
390.49516678947384
20
-61.065057539716904
42
0.4139524287091409
10
389.49605843775919
20
-60.065057937235352
10
387.94707442489624
20
-60.06367678774717
10
387.79092984194455
20
-60.063093156500422
42
0.23212087740081322
10
387
20
-59.674999999999983
10
375.00000000000006
20
-59.675000000000004
42
0.21487416635041684
10
374.25095228529085
20
-60.012483946542467
10
370.33216741993226
20
-59.997836462438357
10
368.6571067811866
20
-59.967893218813451
42
0.19891236737965803
10
367.95000000000005
20
-59.674999999999983
10
355.94999999999999
20
-59.675000000000004
42
0.41421356237305079
10
354.94999999999999
20
-60.674999999999997
10
354.94999999999999
20
-72.674999999999997
42
0.41421356237310025
10
355.94999999999999
20
-73.675000000000011
0
ARC
5
102
100
AcDbEntity
8
0
100
AcDbCircle
10
22.287500000000001
20
-80.72499999999998
30
0
40
0.99999999999999645
210
0
220
-0
230
1
100
AcDbArc
50
90
51
180
0
LINE
5
103
100
AcDbEntity
8
0
100
AcDbLine
10
21.287500000000005
20
-80.72499999999998
30
0
11
21.287499999999998
21
-91.724999999999994
31
0
0
ARC
5
104
100
AcDbEntity
8
0
100
AcDbCircle
10
20.287500000000009
20
-91.724999999999994
30
0
40
0.99999999999999645
210
0
220
0
230
1
100
AcDbArc
50
-90.000000000000398
51
0
0
LINE
5
105
100
AcDbEntity
8
0
100
AcDbLine
10
20.287500000000001
20
-92.724999999999994
30
0
11
5.9062499999999929
21
-92.724999999999994
31
0
0
ARC
5
106
100
AcDbEntity
8
0
100
AcDbCircle
10
5.9062499999999947
20
-91.724999999999994
30
0
40
0.99999999999999423
210
0
220
0
230
1
100
AcDbArc
50
180
51
269.99999999999989
0
LINE
5
107
100
AcDbEntity
8
0
100
AcDbLine
10
4.9062500000000009
20
-91.724999999999994
30
0
11
4.9062500000000142
21
-79.724999999999994
31
0
0
ARC
5
108
100
AcDbEntity
8
0
100
AcDbCircle
10
5.9062500000000027
20
-79.724999999999994
30
0
40
0.99999999999999767
210
0
220
0
230
1
100
AcDbArc
50
132.6223875179243
51
180
0
LINE
5
109
100
AcDbEntity
8
0
100
AcDbLine
10
5.229086462438346
20
-78.989167448805787
30
0
11
5.229086462438346
21
-77.348728300032178
31
0
0
LINE
5
110
100
AcDbEntity
8
0
100
AcDbLine
10
5.2290864624383566
20
-77.342832580067778
30
0
11
5.2949267877471584
21
-59.727925575103825
31
0
0
LINE
5
111
100
AcDbEntity
8
0
100
AcDbLine
10
5.2949267877471584
20
-59.727925575103825
30
0
11
5.2963079372353405
21
-58.178941562240837
31
0
0
ARC
5
112
100
AcDbEntity
8
0
100
AcDbCircle
10
6.2963075397168904
20
-58.179833210526162
30
0
40
0.99999999999993427
210
0
220
-0
230
1
100
AcDbArc
50
89.999999999999901
51
179.94891230967607
0
LINE
5
113
100
AcDbEntity
8
0
100
AcDbLine
10
6.2963075397168922
20
-57.179833210526226
30
0
11
13.511346648256932
21
-57.179833210526269
31
0
0
ARC
5
114
100
AcDbEntity
8
0
100
AcDbCircle
10
13.511346648256939
20
-58.179833210526269
30
0
40
1.0000000000000075
210
0
220
-0
230
1
100
AcDbArc
50
0
51
90.000000000000398
0
LINE
5
115
100
AcDbEntity
8
0
100
AcDbLine
10
14.511346648256946
20
-58.17983321052624
30
0
11
14.511346648256946
21
-59.185344125612005
31
0
0
ARC
5
116
100
AcDbEntity
8
0
100
AcDbCircle
10
15.011346648256918
20
-59.185344125612019
30
0
40
0.49999999999997158
210
0
220
0
230
1
100
AcDbArc
50
180
51
270
0
LINE
5
117
100
AcDbEntity
8
0
100
AcDbLine
10
15.011346648256918
20
-59.685344125611991
30
0
11
15.237874858710612
21
-59.685344125612012
31
0
0
ARC
5
118
100
AcDbEntity
8
0
100
AcDbCircle
10
15.431249999999832
20
-61.487668736338819
30
0
40
1.812668736338825
210
0
220
-0
230
1
100
AcDbArc
50
89.999999999994785
51
96.123955765391429
0
LINE
5
119
100
AcDbEntity
8
0
100
AcDbLine
10
15.431249999999997
20
-59.674999999999997
30
0
11
27.431249999999991
21
-59.675000000000004
31
0
0
ARC
5
120
100
AcDbEntity
8
0
100
AcDbCircle
10
27.431249999999785
20
-61.487668736345796
30
0
40
1.8126687363457972
210
0
220
-0
230
1
100
AcDbArc
50
83.876044234620394
51
89.999999999993491
0
LINE
5
121
100
AcDbEntity
8
0
100
AcDbLine
10
27.624625141289378
20
-59.685344125612012
30
0
11
27.851153351743037
21
-59.685344125611991
31
0
0
ARC
5
122
100
AcDbEntity
8
0
100
AcDbCircle
10
27.851153351743072
20
-59.185344125612019
30
0
40
0.49999999999997158
210
0
220
0
230
1
100
AcDbArc
50
-90.000000000004079
51
0
0
LINE
5
123
100
AcDbEntity
8
0
100
AcDbLine
10
28.351153351743044
20
-59.185344125612005
30
0
11
28.351153351743051
21
-58.17983321052624
31
0
0
ARC
5
124
100
AcDbEntity
8
0
100
AcDbCircle
10
29.351153351743058
20
-58.179833210526262
30
0
40
1.0000000000000053
210
0
220
-0
230
1
100
AcDbArc
50
90
51
180
0
LINE
5
125
100
AcDbEntity
8
0
100
AcDbLine
10
29.351153351743058
20
-57.179833210526255
30
0
11
36.566192460283062
21
-57.17983321052624
31
0
0
ARC
5
126
100
AcDbEntity
8
0
100
AcDbCircle
10
36.566192460283098
20
-58.179833210526169
30
0
40
0.9999999999999275
210
0
220
-0
230
1
100
AcDbArc
50
0.051087690323957172
51
90.000000000002032
0
LINE
5
127
100
AcDbEntity
8
0
100
AcDbLine
10
37.566192062764614
20
-58.178941562240851
30
0
11
37.567573212252832
21
-59.727925575103825
31
0
0
LINE
5
128
100
AcDbEntity
8
0
100
AcDbLine
10
37.567573212252832
20
-59.727925575103825
30
0
11
37.63341353756168
21
-77.342832580067807
31
0
0
ARC
5
129
100
AcDbEntity
8
0
100
AcDbCircle
10
36.633420522919685
20
-77.346570315689746
30
0
40
1.0000000000001852
210
0
220
0
230
1
100
AcDbArc
50
-14.743942248994342
51
0.21415697472508441
0
LINE
5
130
100
AcDbEntity
8
0
100
AcDbLine
10
37.600493374907252
20
-77.601070018929278
30
0
11
37.600493374907259
21
-78.725000000000009
31
0
0
LINE
5
131
100
AcDbEntity
8
0
100
AcDbLine
10
37.600493374907259
20
-78.725000000000009
30
0
11
44.100000000000001
21
-78.725000000000009
31
0
0
ARC
5
132
100
AcDbEntity
8
0
100
AcDbCircle
10
44.100000000000001
20
-79.724999999999994
30
0
40
0.99999999999999645
210
0
220
0
230
1
100
AcDbArc
50
0
51
90
0
LINE
5
133
100
AcDbEntity
8
0
100
AcDbLine
10
45.099999999999994
20
-79.724999999999994
30
0
11
45.099999999999994
21
-91.724999999999994
31
0
0
ARC
5
134
100
AcDbEntity
8
0
100
AcDbCircle
10
44.100000000000009
20
-91.724999999999994
30
0
40
0.99999999999999645
210
0
220
0
230
1
100
AcDbArc
50
-90.000000000000398
51
0
0
LINE
5
135
100
AcDbEntity
8
0
100
AcDbLine
10
44.100000000000001
20
-92.724999999999994
30
0
11
27.337500000000006
21
-92.724999999999994
31
0
0
ARC
5
136
100
AcDbEntity
8
0
100
AcDbCircle
10
27.337499999999999
20
-91.724999999999994
30
0
40
0.99999999999999645
210
0
220
0
230
1
100
AcDbArc
50
180
51
270.0000000000004
0
LINE
5
137
100
AcDbEntity
8
0
100
AcDbLine
10
26.337499999999999
20
-91.724999999999994
30
0
11
26.337499999999999
21
-80.724999999999994
31
0
0
ARC
5
138
100
AcDbEntity
8
0
100
AcDbCircle
10
25.337499999999995
20
-80.724999999999994
30
0
40
1.0000000000000053
210
0
220
0
230
1
100
AcDbArc
50
0
51
90
0
LINE
5
139
100
AcDbEntity
8
0
100
AcDbLine
10
25.337499999999995
20
-79.724999999999994
30
0
11
22.287500000000001
21
-79.72499999999998
31
0
0
LWPOLYLINE
5
140
100
AcDbEntity
8
0
100
AcDbPolyline
90
8
70
1
43
0.0
10
234.60000000000002
20
-78.725000000000009
10
217.83750000000001
20
-78.725000000000009
42
0.41421356237310025
10
216.83750000000003
20
-79.724999999999994
10
216.83750000000001
20
-91.724999999999994
42
0.41421356237307944
10
217.83750000000001
20
-92.724999999999994
10
234.60000000000002
20
-92.724999999999994
42
0.41421356237310542
10
235.60000000000002
20
-91.724999999999994
10
235.60000000000002
20
-79.724999999999994
42
0.41421356237309243
0
LWPOLYLINE
5
141
100
AcDbEntity
8
0
100
AcDbPolyline
90
8
70
1
43
0.0
10
335.89999999999998
20
-79.724999999999994
42
-0.41421356237304563
10
336.89999999999998
20
-78.725000000000009
10
348.89999999999998
20
-78.724999999999966
42
-0.41421356237310025
10
349.90000000000003
20
-79.724999999999994
10
349.89999999999998
20
-91.724999999999994
42
-0.4142135623730222
10
348.89999999999998
20
-92.724999999999994
10
336.89999999999998
20
-92.724999999999966
42
-0.41421356237312623
10
335.89999999999998
20
-91.724999999999994
0
LWPOLYLINE
5
142
100
AcDbEntity
8
0
100
AcDbPolyline
90
8
70
1
43
0.0
10
335.89999999999998
20
-41.625000000000007
42
-0.41421356237305079
10
336.89999999999998
20
-40.625000000000007
10
348.89999999999998
20
-40.624999999999964
42
-0.41421356237310281
10
349.90000000000003
20
-41.625000000000007
10
349.90000000000003
20
-53.625000000000007
42
-0.41421356237304563
10
348.89999999999998
20
-54.625
10
336.89999999999998
20
-54.625000000000043
42
-0.41421356237310025
10
335.89999999999998
20
-53.625000000000007
0
LWPOLYLINE
5
143
100
AcDbEntity
8
0
100
AcDbPolyline
90
8
70
1
43
0.0
10
316.85000000000002
20
-41.625000000000007
42
-0.41421356237310802
10
317.85000000000002
20
-40.625000000000007
10
329.85000000000008
20
-40.625
42
-0.41421356237313406
10
330.85000000000008
20
-41.625000000000007
10
330.85000000000014
20
-53.625000000000007
42
-0.41421356237307683
10
329.85000000000008
20
-54.625
10
317.85000000000002
20
-54.625000000000014
42
-0.41421356237309243
10
316.85000000000002
20
-53.625000000000007
0
LWPOLYLINE
5
144
100
AcDbEntity
8
0
100
AcDbPolyline
90
8
70
1
43
0.0
10
374.00000000000006
20
-3.5250000000000004
42
-0.41421356237302531
10
375
20
-2.5250000000000004
10
387
20
-2.5249999999999635
42
-0.41421356237310175
10
388.00000000000006
20
-3.5250000000000004
10
388
20
-15.525000000000002
42
-0.41421356237302542
10
387
20
-16.525000000000002
10
375
20
-16.525000000000038
42
-0.41421356237310153
10
374
20
-15.525000000000002
0
LWPOLYLINE
5
145
100
AcDbEntity
8
0
100
AcDbPolyline
90
8
70
1
43
0.0
10
2.5249999999999999
20
-3.5250000000000004
42
-0.41421356237309492
10
3.5250000000000004
20
-2.5250000000000004
10
15.52500000000002
20
-2.5249999999999999
42
-0.41421356237308971
10
16.525000000000002
20
-3.5250000000000004
10
16.525000000000002
20
-15.525000000000002
42
-0.4142135623730937
10
15.525000000000002
20
-16.525000000000002
10
3.5249999999999915
20
-16.525000000000002
42
-0.41421356237309098
10
2.5250000000000004
20
-15.525000000000002
0
LWPOLYLINE
5
146
100
AcDbEntity
8
0
100
AcDbPolyline
90
8
70
1
43
0.0
10
354.95000000000005
20
-3.5250000000000004
42
-0.41421356237302531
10
355.94999999999999
20
-2.5250000000000004
10
367.95000000000005
20
-2.5249999999999635
42
-0.41421356237310175
10
368.95000000000005
20
-3.5250000000000004
10
368.94999999999993
20
-15.525000000000002
42
-0.41421356237302542
10
367.95000000000005
20
-16.525000000000002
10
355.94999999999999
20
-16.525000000000038
42
-0.41421356237310153
10
354.94999999999999
20
-15.525000000000002
0
LWPOLYLINE
5
147
100
AcDbEntity
8
0
100
AcDbPolyline
90
8
70
1
43
0.0
10
335.90000000000003
20
-3.5250000000000004
42
-0.41421356237302531
10
336.89999999999998
20
-2.5250000000000004
10
348.89999999999998
20
-2.5249999999999635
42
-0.41421356237310175
10
349.90000000000003
20
-3.5250000000000004
10
349.89999999999998
20
-15.525000000000002
42
-0.41421356237302542
10
348.89999999999998
20
-16.525000000000002
10
336.89999999999998
20
-16.525000000000038
42
-0.41421356237310153
10
335.89999999999998
20
-15.525000000000002
0
LWPOLYLINE
5
148
100
AcDbEntity
8
0
100
AcDbPolyline
90
8
70
1
43
0.0
10
293.03750000000002
20
-84.487500000000011
42
-0.41421356237310542
10
294.03750000000002
20
-83.487500000000011
10
306.03750000000002
20
-83.487499999999969
42
-0.41421356237310025
10
307.03750000000008
20
-84.487500000000011
10
307.03750000000008
20
-96.487499999999997
42
-0.41421356237310542
10
306.03750000000002
20
-97.487499999999997
10
294.03750000000002
20
-97.487500000000026
42
-0.41421356237310025
10
293.03750000000002
20
-96.487499999999997
0
LWPOLYLINE
5
149
100
AcDbEntity
8
0
100
AcDbPolyline
90
8
70
1
43
0.0
10
312.08750000000003
20
-84.487500000000011
42
-0.41421356237310542
10
313.08749999999998
20
-83.487500000000011
10
325.08749999999998
20
-83.487499999999983
42
-0.41421356237313667
10
326.08749999999998
20
-84.487500000000011
10
326.08750000000009
20
-96.487499999999997
42
-0.41421356237307422
10
325.08749999999998
20
-97.487499999999997
10
313.08750000000003
20
-97.487500000000026
42
-0.41421356237307944
10
312.08749999999998
20
-96.487499999999997
0
LWPOLYLINE
5
150
100
AcDbEntity
8
0
100
AcDbPolyline
90
8
70
1
43
0.0
10
316.85000000000002
20
-60.674999999999997
42
-0.41421356237310802
10
317.85000000000002
20
-59.675000000000004
10
329.85000000000008
20
-59.674999999999997
42
-0.41421356237313406
10
330.85000000000008
20
-60.674999999999997
10
330.85000000000014
20
-72.674999999999997
42
-0.41421356237307683
10
329.85000000000008
20
-73.674999999999997
10
317.85000000000002
20
-73.675000000000011
42
-0.41421356237309243
10
316.85000000000002
20
-72.674999999999997
0
LWPOLYLINE
5
151
100
AcDbEntity
8
0
100
AcDbPolyline
90
42
70
1
43
0.0
10
205.12403853756177
20
-96.39283258006779
10
205.11032905330603
20
-92.724999999999994
10
210.78749999999999
20
-92.724999999999994
42
0.41421356237310542
10
211.78750000000002
20
-91.724999999999994
10
211.78750000000002
20
-79.724999999999994
42
0.41421356237309243
10
210.78749999999999
20
-78.725000000000009
10
205.0581510212358
20
-78.725000000000009
10
205.05681706276465
20
-77.228941562240848
42
0.41395242870914872
10
204.0568174602831
20
-76.229833210526238
10
196.8417783517431
20
-76.229833210526266
42
0.41421356237309243
10
195.84177835174307
20
-77.229833210526252
10
195.84177835174307
20
-78.235344125612002
42
-0.41421356237313667
10
195.34177835174307
20
-78.735344125612002
10
195.11525014128944
20
-78.735344125612016
42
0.026727159214104523
10
194.921875
20
-78.725000000000009
10
185.55819821225288
20
-78.777925575103836
10
185.55681706276465
20
-77.228941562240848
42
0.41395242870914872
10
184.55681746028313
20
-76.229833210526238
10
177.3417783517431
20
-76.229833210526266
42
0.41421356237307161
10
176.3417783517431
20
-77.229833210526252
10
176.3417783517431
20
-78.235344125612002
42
-0.41421356237313667
10
175.84177835174307
20
-78.735344125612002
10
175.61525014128944
20
-78.735344125612016
42
0.026727159214085257
10
175.421875
20
-78.725000000000009
10
105.92187500000003
20
-78.72500000000008
42
0.026727159214091505
10
105.72849985871061
20
-78.735344125612073
10
91.501971648256955
20
-78.735344125612059
42
-0.41421356237313667
10
91.001971648256941
20
-78.235344125612045
10
91.001971648256941
20
-77.229833210526309
42
0.41421356237308721
10
90.001971648256927
20
-76.229833210526309
10
77.286932539716972
20
-76.22983321052628
42
0.4139524287091409
10
76.28693293723542
20
-77.228941562240891
10
76.285551787747195
20
-78.777925575103893
10
76.219711462438354
20
-96.392832580067832
42
0.41483458089569741
10
77.218086557689332
20
-97.396569006857391
10
83.816903231919156
20
-97.407245374284926
10
96.718086557689304
20
-97.396569006857391
10
103.31690323191913
20
-97.407245374284926
10
178.02684676808093
20
-97.407245374284898
10
184.62566344231075
20
-97.396569006857362
10
197.5268467680809
20
-97.407245374284898
10
204.12566344231072
20
-97.396569006857362
42
0.41483458089571307
0
LWPOLYLINE
5
152
100
AcDbEntity
8
0
100
AcDbPolyline
90
8
70
1
43
0.0
10
34.575000000000003
20
-2.5249999999999972
42
-0.41421356237309309
10
35.575000000000003
20
-3.5250000000000004
10
35.575000000000003
20
-15.525000000000002
42
-0.41421356237309243
10
34.575000000000003
20
-16.525000000000002
10
22.575000000000003
20
-16.525000000000002
42
-0.41421356237309309
10
21.574999999999996
20
-15.525000000000002
10
21.574999999999996
20
-3.5250000000000004
42
-0.41421356237309265
10
22.574999999999999
20
-2.5250000000000004
0
LWPOLYLINE
5
153
100
AcDbEntity
8
0
100
AcDbPolyline
90
8
70
1
43
0.0
10
45.38750000000001
20
-60.674999999999997
42
-0.41421356237309503
10
46.38750000000001
20
-59.675000000000004
10
58.38750000000001
20
-59.675000000000004
42
-0.41421356237309503
10
59.387500000000003
20
-60.674999999999997
10
59.387500000000003
20
-72.674999999999997
42
-0.41421356237309503
10
58.38750000000001
20
-73.674999999999997
10
46.387500000000017
20
-73.674999999999997
42
-0.41421356237309764
10
45.38750000000001
20
-72.674999999999997
0
LWPOLYLINE
5
154
100
AcDbEntity
8
0
100
AcDbPolyline
90
8
70
1
43
0.0
10
273.98750000000001
20
-84.487500000000011
42
-0.41421356237310542
10
274.98750000000001
20
-83.487500000000011
10
286.98750000000007
20
-83.487499999999969
42
-0.41421356237310025
10
287.98750000000007
20
-84.487500000000011
10
287.98750000000007
20
-96.487499999999997
42
-0.41421356237310542
10
286.98750000000007
20
-97.487499999999997
10
274.98750000000001
20
-97.487500000000026
42
-0.41421356237310025
10
273.98750000000001
20
-96.487499999999997
0
LWPOLYLINE
5
155
100
AcDbEntity
8
0
100
AcDbPolyline
90
8
70
1
43
0.0
10
316.84999999999997
20
-3.5250000000000004
42
-0.41421356237310542
10
317.85000000000002
20
-2.5250000000000004
10
329.85000000000008
20
-2.524999999999999
42
-0.41421356237313295
10
330.85000000000008
20
-3.5250000000000004
10
330.85000000000014
20
-15.525000000000002
42
-0.41421356237307749
10
329.85000000000008
20
-16.525000000000002
10
317.85000000000002
20
-16.525000000000013
42
-0.4142135623730937
10
316.85000000000002
20
-15.525000000000002
0
LWPOLYLINE
5
156
100
AcDbEntity
8
0
100
AcDbPolyline
90
8
70
1
43
0.0
10
31.100000000000001
20
-22.574999999999999
42
-0.41421356237308982
10
32.100000000000001
20
-21.574999999999996
10
44.100000000000001
20
-21.574999999999996
42
-0.41421356237309631
10
45.099999999999994
20
-22.574999999999999
10
45.099999999999994
20
-34.575000000000003
42
-0.41421356237309503
10
44.100000000000001
20
-35.575000000000003
10
32.100000000000009
20
-35.575000000000003
42
-0.41421356237309243
10
31.100000000000001
20
-34.575000000000003
0
LWPOLYLINE
5
157
100
AcDbEntity
8
0
100
AcDbPolyline
90
8
70
1
43
0.0
10
335.89999999999998
20
-22.574999999999999
42
-0.41421356237304691
10
336.89999999999998
20
-21.574999999999996
10
348.89999999999998
20
-21.575000000000031
42
-0.41421356237312235
10
349.90000000000003
20
-22.574999999999999
10
349.90000000000003
20
-34.575000000000003
42
-0.41421356237304691
10
348.89999999999998
20
-35.575000000000003
10
336.89999999999998
20
-35.574999999999974
42
-0.41421356237312362
10
335.89999999999998
20
-34.575000000000003
0
LWPOLYLINE
5
158
100
AcDbEntity
8
0
100
AcDbPolyline
90
8
70
1
43
0.0
10
7.2875000000000156
20
-22.574999999999999
10
7.2875000000000156
20
-34.575000000000003
42
0.41421356237309148
10
8.2874999999999943
20
-35.575000000000003
10
20.287500000000001
20
-35.575000000000003
42
0.41421356237309115
10
21.287500000000001
20
-34.575000000000003
10
21.287500000000001
20
-22.574999999999999
42
0.4142135623730937
10
20.287499999999987
20
-21.574999999999996
10
8.2874999999999996
20
-21.574999999999996
42
0.41421356237309243
0
LWPOLYLINE
5
159
100
AcDbEntity
8
0
100
AcDbPolyline
90
8
70
1
43
0.0
10
316.85000000000002
20
-22.574999999999999
42
-0.41421356237310675
10
317.85000000000002
20
-21.574999999999996
10
329.85000000000008
20
-21.574999999999996
42
-0.41421356237313273
10
330.85000000000008
20
-22.574999999999999
10
330.85000000000014
20
-34.575000000000003
42
-0.4142135623730781
10
329.85000000000008
20
-35.575000000000003
10
317.85000000000002
20
-35.575000000000024
42
-0.41421356237309631
10
316.85000000000002
20
-34.575000000000003
0
LWPOLYLINE
5
160
100
AcDbEntity
8
0
100
AcDbPolyline
90
8
70
1
43
0.0
10
35.862499999999997
20
-41.625000000000007
10
35.862499999999997
20
-53.625000000000007
42
0.41421356237309631
10
36.862500000000011
20
-54.625
10
48.862500000000004
20
-54.625
42
0.41421356237309503
10
49.862499999999983
20
-53.625000000000007
10
49.862499999999997
20
-41.625000000000007
42
0.41421356237309503
10
48.862500000000004
20
-40.625000000000007
10
36.862499999999997
20
-40.625000000000007
42
0.41421356237309631
0
LWPOLYLINE
5
161
100
AcDbEntity
8
0
100
AcDbPolyline
90
8
70
1
43
0.0
10
9.6687500000000011
20
-41.625000000000007
42
-0.4142135623730957
10
10.668749999999999
20
-40.625000000000007
10
22.668749999999989
20
-40.625
42
-0.41421356237309892
10
23.668750000000003
20
-41.625000000000007
10
23.668750000000003
20
-53.625000000000007
42
-0.41421356237309631
10
22.668750000000003
20
-54.625
10
10.668749999999996
20
-54.625
42
-0.41421356237309437
10
9.6687500000000011
20
-53.625000000000007
0
LWPOLYLINE
5
162
100
AcDbEntity
8
0
100
AcDbPolyline
90
8
70
1
43
0.0
10
335.89999999999998
20
-60.674999999999997
10
335.89999999999998
20
-72.674999999999997
42
0.41421356237310025
10
336.89999999999998
20
-73.675000000000011
10
348.89999999999998
20
-73.674999999999997
42
0.41421356237304563
10
349.90000000000003
20
-72.674999999999997
10
349.90000000000003
20
-60.674999999999997
42
0.41421356237310281
10
348.89999999999998
20
-59.675000000000004
10
336.89999999999998
20
-59.675000000000004
42
0.41421356237305079
0
LWPOLYLINE
5
163
100
AcDbEntity
8
0
100
AcDbPolyline
90
8
70
1
43
0.0
10
67.912499999999994
20
-78.725000000000009
10
51.15000000000002
20
-78.725000000000009
42
0.41421356237310025
10
50.150000000000006
20
-79.724999999999994
10
50.150000000000006
20
-91.724999999999994
42
0.41421356237310281
10
51.15000000000002
20
-92.724999999999994
10
67.912499999999994
20
-92.724999999999994
42
0.41421356237309764
10
68.912499999999994
20
-91.724999999999994
10
68.912499999999994
20
-79.724999999999994
42
0.41421356237309503
0
LWPOLYLINE
5
164
100
AcDbEntity
8
0
100
AcDbPolyline
90
8
70
1
43
0.0
10
293.03750000000002
20
-65.4375
42
-0.41421356237310802
10
294.03750000000002
20
-64.4375
10
306.03750000000002
20
-64.437499999999986
42
-0.41421356237309503
10
307.03750000000008
20
-65.4375
10
307.03750000000008
20
-77.4375
42
-0.41421356237310542
10
306.03750000000002
20
-78.4375
10
294.03750000000002
20
-78.437500000000014
42
-0.41421356237309243
10
293.03750000000002
20
-77.4375
0
LWPOLYLINE
5
165
100
AcDbEntity
8
0
100
AcDbPolyline
90
10
70
1
43
0.0
10
292.03750000000002
20
-16.525000000000002
10
308.03750000000008
20
-16.525000000000002
10
308.03750000000008
20
-4.5250000000000021
10
307.03750000000008
20
-4.5250000000000021
10
307.03750000000008
20
-3.5250000000000004
42
0.41421356237309437
10
306.03750000000002
20
-2.5250000000000039
10
294.03750000000002
20
-2.5250000000000004
42
0.41421356237310542
10
293.03750000000002
20
-3.5250000000000004
10
293.03749999999997
20
-4.5250000000000021
10
292.03750000000002
20
-4.5250000000000012
0
LWPOLYLINE
5
166
100
AcDbEntity
8
0
100
AcDbPolyline
90
8
70
1
43
0.0
10
-5.0000000000000044
20
-115.0125
42
-0.4142135623730957
10
-14.999999999999991
20
-105.0125
10
-15
20
5.0000000000000018
42
-0.41421356237309576
10
-5
20
15
10
395.52500000000003
20
14.999999999999979
42
-0.41421356237309237
10
405.52499999999998
20
5
10
405.52500000000003
20
-105.0125
42
-0.41421356237309293
10
395.52500000000003
20
-115.01250000000007
0
LWPOLYLINE
5
167
100
AcDbEntity
8
0
100
AcDbPolyline
90
48
70
1
43
0.0
10
281.52234897372603
20
-59.675000000000018
42
-0.41311922565778614
10
280.52235595908422
20
-58.678737735622008
10
280.4550732122529
20
-40.677925575103835
10
280.45369206276467
20
-39.128941562240847
42
0.41395242870914872
10
279.45369246028315
20
-38.129833210526236
10
272.23865335174315
20
-38.129833210526257
42
0.41421356237307294
10
271.2386533517431
20
-39.129833210526243
10
271.2386533517431
20
-40.135344125611994
42
-0.41421356237313667
10
270.7386533517431
20
-40.635344125612001
10
270.51212514128946
20
-40.635344125612022
42
0.026727159214084736
10
270.31875000000002
20
-40.624999999999993
10
258.31875000000002
20
-40.625
42
0.026727159214105303
10
258.1253748587107
20
-40.635344125612001
10
257.89884664825701
20
-40.635344125612001
42
-0.41421356237311585
10
257.39884664825701
20
-40.135344125611994
10
257.39884664825701
20
-39.129833210526243
42
0.41421356237310153
10
256.39884664825701
20
-38.129833210526265
10
249.18380753971695
20
-38.129833210526222
42
0.41395242870916171
10
248.18380793723543
20
-39.128941562240833
10
248.18242678774723
20
-40.677925575103814
10
248.12447037985561
20
-56.18357094614823
42
-0.41311922565778103
10
247.12447736521381
20
-57.17983321052624
10
244.42130753971693
20
-57.179833210526226
42
0.41395242870915389
10
243.42130793723538
20
-58.178941562240837
10
243.41992678774719
20
-59.727925575103825
10
243.41934315650042
20
-59.884070158055493
42
0.23212087740079418
10
243.03125
20
-60.674999999999997
10
243.03125
20
-72.674999999999997
42
0.21487416635038231
10
243.36873394654248
20
-73.424047714709189
10
243.35408646243837
20
-77.342832580067778
42
0.41483458089570008
10
244.35246155768934
20
-78.346569006857308
10
244.87468731203958
20
-78.347413927137566
42
-0.27954209173071531
10
245.41249999999997
20
-79.234196250252779
10
245.41249999999997
20
-91.724999999999994
42
0.41421356237310025
10
246.41249999999999
20
-92.725000000000009
10
258.41250000000002
20
-92.724999999999994
42
0.41421356237310542
10
259.41250000000002
20
-91.724999999999994
10
259.41250000000002
20
-79.357245374284886
42
-0.41421356237310802
10
260.41250000000002
20
-78.357245374284886
10
268.16122176808091
20
-78.357245374284901
10
274.7600384423107
20
-78.346569006857365
42
0.41483458089570785
10
275.75841353756175
20
-77.342832580067807
10
275.74845578580278
20
-74.678737735621993
42
-0.41530874655607908
10
276.74844880044458
20
-73.674999999999997
10
282.22500000000002
20
-73.674999999999997
42
0.41421356237310542
10
283.22500000000002
20
-72.674999999999997
10
283.22500000000002
20
-60.674999999999997
42
0.41421356237309503
10
282.22500000000002
20
-59.674999999999983
0
ARC
5
168
100
AcDbEntity
8
0
100
AcDbCircle
10
366.94999999999999
20
-39.624999999999957
30
0
40
1.0000000000000497
210
0
220
0
230
1
100
AcDbArc
50
270
51
360
0
LINE
5
169
100
AcDbEntity
8
0
100
AcDbLine
10
367.95000000000005
20
-39.625000000000014
30
0
11
367.95000000000005
21
-36.575000000000003
31
0
0
ARC
5
170
100
AcDbEntity
8
0
100
AcDbCircle
10
366.94999999999993
20
-36.575000000000109
30
0
40
1.0000000000000853
210
0
220
-0
230
1
100
AcDbArc
50
0
51
89.999999999993491
0
LINE
5
171
100
AcDbEntity
8
0
100
AcDbLine
10
366.95000000000005
20
-35.574999999999953
30
0
11
355.94999999999999
21
-35.575000000000017
31
0
0
ARC
5
172
100
AcDbEntity
8
0
100
AcDbCircle
10
355.94999999999993
20
-34.575000000000031
30
0
40
0.99999999999994316
210
0
220
0
230
1
100
AcDbArc
50
180
51
270.00000000000324
0
LINE
5
173
100
AcDbEntity
8
0
100
AcDbLine
10
354.94999999999999
20
-34.575000000000003
30
0
11
354.94999999999999
21
-22.574999999999999
31
0
0
ARC
5
174
100
AcDbEntity
8
0
100
AcDbCircle
10
355.95000000000005
20
-22.575000000000092
30
0
40
1.0000000000000941
210
0
220
0
230
1
100
AcDbArc
50
90.000000000003254
51
180
0
LINE
5
175
100
AcDbEntity
8
0
100
AcDbLine
10
355.94999999999999
20
-21.574999999999996
30
0
11
367.95000000000005
21
-21.574999999999996
31
0
0
ARC
5
176
100
AcDbEntity
8
0
100
AcDbCircle
10
367.95000000000005
20
-22.574999999999875
30
0
40
0.99999999999992328
210
0
220
-0
230
1
100
AcDbArc
50
42.622387517917922
51
90
0
LINE
5
177
100
AcDbEntity
8
0
100
AcDbLine
10
368.68583255119427
20
-21.897836462438356
30
0
11
370.32627169996806
21
-21.897836462438374
31
0
0
LINE
5
178
100
AcDbEntity
8
0
100
AcDbLine
10
370.33216741993226
20
-21.897836462438374
30
0
11
374.25095228529079
21
-21.91248394654248
31
0
0
ARC
5
179
100
AcDbEntity
8
0
100
AcDbCircle
10
375
20
-22.574999999999953
30
0
40
0.99999999999995648
210
0
220
-0
230
1
100
AcDbArc
50
90
51
138.50795520302333
0
LINE
5
180
100
AcDbEntity
8
0
100
AcDbLine
10
375
20
-21.574999999999996
30
0
11
387
21
-21.574999999999996
31
0
0
ARC
5
181
100
AcDbEntity
8
0
100
AcDbCircle
10
387
20
-22.574999999999982
30
0
40
0.99999999999999956
210
0
220
-0
230
1
100
AcDbArc
50
37.727508238895787
51
90
0
LINE
5
182
100
AcDbEntity
8
0
100
AcDbLine
10
387.79092984194455
20
-21.96309315650042
30
0
11
387.94707442489624
21
-21.963676787747186
31
0
0
LINE
5
183
100
AcDbEntity
8
0
100
AcDbLine
10
387.94707442489624
20
-21.963676787747186
30
0
11
389.49605843775919
21
-21.965057937235368
31
0
0
ARC
5
184
100
AcDbEntity
8
0
100
AcDbCircle
10
389.4951667894739
20
-22.96505753971692
30
0
40
0.99999999999994316
210
0
220
0
230
1
100
AcDbArc
50
0
51
89.948912309673403
0
LINE
5
185
100
AcDbEntity
8
0
100
AcDbLine
10
390.49516678947384
20
-22.96505753971692
30
0
11
390.49516678947379
21
-30.18009664825696
31
0
0
ARC
5
186
100
AcDbEntity
8
0
100
AcDbCircle
10
389.49516678947384
20
-30.180096648256985
30
0
40
0.99999999999998757
210
0
220
0
230
1
100
AcDbArc
50
-90.000000000006523
51
0
0
LINE
5
187
100
AcDbEntity
8
0
100
AcDbLine
10
389.49516678947373
20
-31.180096648256974
30
0
11
388.48965587438806
21
-31.180096648256974
31
0
0
ARC
5
188
100
AcDbEntity
8
0
100
AcDbCircle
10
388.48965587438795
20
-31.680096648256946
30
0
40
0.49999999999997158
210
0
220
-0
230
1
100
AcDbArc
50
89.999999999986969
51
168.32515536510851
0
LINE
5
189
100
AcDbEntity
8
0
100
AcDbLine
10
388.00000000000006
20
-31.578917971267334
30
0
11
388.00000000000006
21
-44.621082028732708
31
0
0
ARC
5
190
100
AcDbEntity
8
0
100
AcDbCircle
10
388.48965587438795
20
-44.519903351743096
30
0
40
0.49999999999998107
210
0
220
0
230
1
100
AcDbArc
50
191.67484463489149
51
270
0
LINE
5
191
100
AcDbEntity
8
0
100
AcDbLine
10
388.48965587438795
20
-45.019903351743068
30
0
11
389.49516678947373
21
-45.019903351742997
31
0
0
ARC
5
192
100
AcDbEntity
8
0
100
AcDbCircle
10
389.49516678947367
20
-46.019903351743125
30
0
40
1.0000000000001563
210
0
220
-0
230
1
100
AcDbArc
50
0
51
89.999999999996746
0
LINE
5
193
100
AcDbEntity
8
0
100
AcDbLine
10
390.49516678947384
20
-46.019903351743082
30
0
11
390.49516678947384
21
-53.234942460283094
31
0
0
ARC
5
194
100
AcDbEntity
8
0
100
AcDbCircle
10
389.4951667894739
20
-53.234942460283094
30
0
40
0.99999999999996303
210
0
220
0
230
1
100
AcDbArc
50
-89.948912309673389
51
0
0
LINE
5
195
100
AcDbEntity
8
0
100
AcDbLine
10
389.49605843775919
20
-54.234942062764645
30
0
11
387.94707442489624
21
-54.236323212252856
31
0
0
LINE
5
196
100
AcDbEntity
8
0
100
AcDbLine
10
387.94707442489624
20
-54.236323212252856
30
0
11
387.79092984194449
21
-54.236906843499611
31
0
0
ARC
5
197
100
AcDbEntity
8
0
100
AcDbCircle
10
387.00000000000017
20
-53.625000000000199
30
0
40
0.99999999999980105
210
0
220
0
230
1
100
AcDbArc
50
269.99999999998698
51
322.27249176110303
0
LINE
5
198
100
AcDbEntity
8
0
100
AcDbLine
10
386.99999999999994
20
-54.625
30
0
11
355.94999999999999
21
-54.625
31
0
0
ARC
5
199
100
AcDbEntity
8
0
100
AcDbCircle
10
355.94999999999999
20
-53.625000000000028
30
0
40
1.0000000000000142
210
0
220
0
230
1
100
AcDbArc
50
180
51
270
0
LINE
5
200
100
AcDbEntity
8
0
100
AcDbLine
10
354.94999999999999
20
-53.625000000000007
30
0
11
354.94999999999999
21
-41.625000000000007
31
0
0
ARC
5
201
100
AcDbEntity
8
0
100
AcDbCircle
10
355.95000000000005
20
-41.625000000000085
30
0
40
1.0000000000000764
210
0
220
0
230
1
100
AcDbArc
50
90.000000000003254
51
180
0
LINE
5
202
100
AcDbEntity
8
0
100
AcDbLine
10
355.94999999999999
20
-40.625000000000007
30
0
11
366.94999999999999
21
-40.625000000000007
31
0
0
CIRCLE
5
203
100
AcDbEntity
8
0
100
AcDbCircle
10
128.17916666666667
20
-106.0125
30
0
40
2.2499999999999964
210
0
220
0
230
1
0
CIRCLE
5
204
100
AcDbEntity
8
0
100
AcDbCircle
10
396.51250000000005
20
5.9875000000000007
30
0
40
2.2500000000000142
210
0
220
0
230
1
0
CIRCLE
5
205
100
AcDbEntity
8
0
100
AcDbCircle
10
-5.9874999999999821
20
-50.012500000000003
30
0
40
2.25
210
0
220
0
230
1
0
CIRCLE
5
206
100
AcDbEntity
8
0
100
AcDbCircle
10
-5.9874999999999821
20
5.9875000000000007
30
0
40
2.25
210
0
220
0
230
1
0
CIRCLE
5
207
100
AcDbEntity
8
0
100
AcDbCircle
10
396.51250000000005
20
-50.012500000000003
30
0
40
2.2500000000000142
210
0
220
0
230
1
0
CIRCLE
5
208
100
AcDbEntity
8
0
100
AcDbCircle
10
262.3458333333333
20
-106.0125
30
0
40
2.2500000000000142
210
0
220
0
230
1
0
CIRCLE
5
209
100
AcDbEntity
8
0
100
AcDbCircle
10
262.3458333333333
20
5.9875000000000007
30
0
40
2.2500000000000142
210
0
220
0
230
1
0
CIRCLE
5
210
100
AcDbEntity
8
0
100
AcDbCircle
10
-5.9874999999999821
20
-106.0125
30
0
40
2.25
210
0
220
0
230
1
0
CIRCLE
5
211
100
AcDbEntity
8
0
100
AcDbCircle
10
128.17916666666667
20
5.9875000000000007
30
0
40
2.2499999999999964
210
0
220
0
230
1
0
CIRCLE
5
212
100
AcDbEntity
8
0
100
AcDbCircle
10
396.51250000000005
20
-106.0125
30
0
40
2.2500000000000142
210
0
220
0
230
1
0
LWPOLYLINE
5
213
100
AcDbEntity
8
0
100
AcDbPolyline
90
82
70
1
43
0.0
10
230.33750000000001
20
-59.808974596215528
42
-0.26794919243111331
10
229.83750000000001
20
-58.942949192431115
10
229.83750000000001
20
-55.625
42
-0.41421356237310542
10
230.83750000000003
20
-54.625
10
239.36250000000001
20
-54.625
42
0.41421356237310542
10
240.36250000000001
20
-53.625000000000007
10
240.36250000000001
20
-41.625000000000007
42
0.41421356237309503
10
239.36250000000001
20
-40.625000000000007
10
235.60000000000002
20
-40.625000000000014
42
-0.41421356237309503
10
234.60000000000002
20
-39.625000000000007
10
234.60000000000002
20
-36.575000000000003
42
-0.41421356237309243
10
235.60000000000002
20
-35.575000000000003
10
253.65000000000003
20
-35.575000000000003
42
0.41421356237310675
10
254.65000000000003
20
-34.575000000000003
10
254.65000000000003
20
-23.574999999999999
42
-0.41421356237309243
10
255.65000000000003
20
-22.574999999999999
10
263.46249999999998
20
-22.574999999999996
42
-0.41421356237309243
10
264.46249999999998
20
-23.574999999999999
10
264.46249999999998
20
-34.575000000000003
42
0.41421356237309631
10
265.46249999999998
20
-35.575000000000017
10
277.46249999999998
20
-35.575000000000003
42
0.41421356237307555
10
278.46250000000003
20
-34.575000000000003
10
278.46249999999998
20
-22.200520128770641
42
-0.41373976390306921
10
279.46088208060917
20
-21.200521437603079
10
281.90378844231071
20
-21.196569006857352
42
0.41483458089570913
10
282.90216353756176
20
-20.192832580067787
10
282.8875160534576
20
-16.27404771470917
42
0.21487416635031126
10
283.22500000000002
20
-15.525000000000002
10
283.22500000000002
20
-3.5249999999999981
42
0.23212087740077711
10
282.83690684349961
20
-2.7340701580554869
10
282.83632321225286
20
-2.5779255751038255
10
282.83494206276464
20
-1.0289415622408395
42
0.41395242870914767
10
281.83494246028312
20
-0.029833210526231113
10
274.61990335174312
20
-0.029833210526248877
42
0.41421356237307183
10
273.61990335174306
20
-1.0298332105262409
10
273.61990335174306
20
-2.035344125611994
42
-0.35571604630449455
10
273.2210820287325
20
-2.5249999999999906
10
260.17891797126759
20
-2.5249999999999932
42
-0.35571604630449527
10
259.78009664825697
20
-2.0353441256119931
10
259.78009664825697
20
-1.0298332105262409
42
0.41421356237310142
10
258.78009664825697
20
-0.029833210526257758
10
251.56505753971692
20
-0.02983321052621779
42
0.41395242870916071
10
250.56505793723539
20
-1.0289415622408304
10
250.5636767877472
20
-2.5779255751038166
10
250.56309315650043
20
-2.7340701580554958
42
0.2321208774007856
10
250.17500000000001
20
-3.5250000000000004
10
250.17500000000001
20
-14.525000000000002
42
-0.41421356237307422
10
249.17500000000001
20
-15.525000000000002
10
246.12500000000006
20
-15.524999999999981
42
-0.41421356237310542
10
245.12500000000003
20
-14.525000000000002
10
245.12500000000003
20
-3.5250000000000004
42
0.41421356237309437
10
244.125
20
-2.5249999999999861
10
41.625000000000007
20
-2.5250000000000004
42
0.41421356237309537
10
40.625
20
-3.5250000000000004
10
40.625000000000007
20
-15.525000000000002
42
0.41421356237309892
10
41.625000000000014
20
-16.524999999999999
10
52.625000000000014
20
-16.525000000000006
42
-0.41421356237309503
10
53.625000000000007
20
-17.525000000000006
10
53.625000000000007
20
-20.575000000000003
42
-0.41421356237309503
10
52.625000000000014
20
-21.575000000000003
10
51.150000000000006
20
-21.574999999999996
42
0.41421356237309243
10
50.150000000000006
20
-22.574999999999999
10
50.150000000000006
20
-34.575000000000003
42
0.41421356237310153
10
51.15000000000002
20
-35.575000000000003
10
60.912499999999994
20
-35.575000000000003
42
-0.41421356237309503
10
61.912500000000001
20
-36.575000000000003
10
61.91249999999998
20
-39.625000000000007
42
-0.41421356237308721
10
60.912499999999994
20
-40.625000000000007
10
55.912500000000009
20
-40.625000000000007
42
0.41421356237309503
10
54.912500000000009
20
-41.625000000000007
10
54.912500000000009
20
-53.625000000000007
42
0.41421356237310025
10
55.912500000000023
20
-54.625
10
60.912500000000016
20
-54.625000000000014
42
-0.41421356237309503
10
61.912500000000001
20
-55.625
10
61.912500000000009
20
-59.675000000000004
10
63.437500000000007
20
-59.675000000000011
42
-0.41421356237309503
10
64.4375
20
-60.675000000000011
10
64.4375
20
-72.674999999999997
42
0.41421356237309243
10
65.4375
20
-73.674999999999997
10
229.83750000000001
20
-73.674999999999997
42
0.41421356237310542
10
230.83750000000003
20
-72.674999999999997
10
230.83750000000003
20
-60.675000000000011
42
0.26794919243116055
0
ENDSEC
0
SECTION
2
OBJECTS
0
DICTIONARY
5
C
100
AcDbDictionary
3
ACAD_GROUP
350
D
3
ACAD_MLINESTYLE
350
17
0
DICTIONARY
5
D
100
AcDbDictionary
0
DICTIONARY
5
1A
330
C
100
AcDbDictionary
0
DICTIONARY
5
17
100
AcDbDictionary
0
ENDSEC
0
EOF
