<?xml version="1.0" encoding="UTF-8" standalone="no"?>
<!-- Created with Inkscape (http://www.inkscape.org/) -->

<svg
   xmlns:dc="http://purl.org/dc/elements/1.1/"
   xmlns:cc="http://creativecommons.org/ns#"
   xmlns:rdf="http://www.w3.org/1999/02/22-rdf-syntax-ns#"
   xmlns:svg="http://www.w3.org/2000/svg"
   xmlns="http://www.w3.org/2000/svg"
   xmlns:sodipodi="http://sodipodi.sourceforge.net/DTD/sodipodi-0.dtd"
   xmlns:inkscape="http://www.inkscape.org/namespaces/inkscape"
   width="450mm"
   height="210mm"
   viewBox="0 0 450 210"
   version="1.1"
   id="svg8"
   inkscape:version="0.92.4 (5da689c313, 2019-01-14)"
   sodipodi:docname="L4_plate.svg">
  <defs
     id="defs2">
    <marker
       style="overflow:visible"
       refY="0"
       refX="0"
       orient="auto"
       id="DistanceX">
      <path
         id="path817"
         style="stroke:#000000;stroke-width:0.5"
         d="M 3,-3 -3,3 M 0,-5 V 5"
         inkscape:connector-curvature="0" />
    </marker>
    <pattern
       y="0"
       x="0"
       width="8"
       patternUnits="userSpaceOnUse"
       id="Hatch"
       height="8">
      <path
         id="path820"
         stroke-width="0.25"
         stroke="#000000"
         linecap="square"
         d="M8 4 l-4,4" />
      <path
         id="path822"
         stroke-width="0.25"
         stroke="#000000"
         linecap="square"
         d="M6 2 l-4,4" />
      <path
         id="path824"
         stroke-width="0.25"
         stroke="#000000"
         linecap="square"
         d="M4 0 l-4,4" />
    </pattern>
    <symbol
       id="*MODEL_SPACE" />
    <symbol
       id="*PAPER_SPACE" />
    <marker
       style="overflow:visible"
       refY="0"
       refX="0"
       orient="auto"
       id="DistanceX-0">
      <path
         id="path901"
         style="stroke:#000000;stroke-width:0.5"
         d="M 3,-3 -3,3 M 0,-5 V 5"
         inkscape:connector-curvature="0" />
    </marker>
    <pattern
       y="0"
       x="0"
       width="8"
       patternUnits="userSpaceOnUse"
       id="Hatch-2"
       height="8">
      <path
         id="path904"
         stroke-width="0.25"
         stroke="#000000"
         linecap="square"
         d="M8 4 l-4,4" />
      <path
         id="path906"
         stroke-width="0.25"
         stroke="#000000"
         linecap="square"
         d="M6 2 l-4,4" />
      <path
         id="path908"
         stroke-width="0.25"
         stroke="#000000"
         linecap="square"
         d="M4 0 l-4,4" />
    </pattern>
    <symbol
       id="*MODEL_SPACE-2" />
    <symbol
       id="*PAPER_SPACE-0" />
    <marker
       style="overflow:visible"
       refY="0"
       refX="0"
       orient="auto"
       id="DistanceX-00">
      <path
         id="path991"
         style="stroke:#000000;stroke-width:0.5"
         d="M 3,-3 -3,3 M 0,-5 V 5"
         inkscape:connector-curvature="0" />
    </marker>
    <pattern
       y="0"
       x="0"
       width="8"
       patternUnits="userSpaceOnUse"
       id="Hatch-23"
       height="8">
      <path
         id="path994"
         stroke-width="0.25"
         stroke="#000000"
         linecap="square"
         d="M8 4 l-4,4" />
      <path
         id="path996"
         stroke-width="0.25"
         stroke="#000000"
         linecap="square"
         d="M6 2 l-4,4" />
      <path
         id="path998"
         stroke-width="0.25"
         stroke="#000000"
         linecap="square"
         d="M4 0 l-4,4" />
    </pattern>
    <symbol
       id="*MODEL_SPACE-9" />
    <symbol
       id="*PAPER_SPACE-3" />
    <marker
       style="overflow:visible"
       refY="0"
       refX="0"
       orient="auto"
       id="DistanceX-1">
      <path
         id="path1087"
         style="stroke:#000000;stroke-width:0.5"
         d="M 3,-3 -3,3 M 0,-5 V 5"
         inkscape:connector-curvature="0" />
    </marker>
    <pattern
       y="0"
       x="0"
       width="8"
       patternUnits="userSpaceOnUse"
       id="Hatch-1"
       height="8">
      <path
         id="path1090"
         stroke-width="0.25"
         stroke="#000000"
         linecap="square"
         d="M8 4 l-4,4" />
      <path
         id="path1092"
         stroke-width="0.25"
         stroke="#000000"
         linecap="square"
         d="M6 2 l-4,4" />
      <path
         id="path1094"
         stroke-width="0.25"
         stroke="#000000"
         linecap="square"
         d="M4 0 l-4,4" />
    </pattern>
    <symbol
       id="*MODEL_SPACE-6" />
    <symbol
       id="*PAPER_SPACE-4" />
  </defs>
  <sodipodi:namedview
     id="base"
     pagecolor="#ffffff"
     bordercolor="#666666"
     borderopacity="1.0"
     inkscape:pageopacity="0.0"
     inkscape:pageshadow="2"
     inkscape:zoom="0.49497475"
     inkscape:cx="1258.6643"
     inkscape:cy="834.73596"
     inkscape:document-units="mm"
     inkscape:current-layer="layer1"
     showgrid="false"
     inkscape:window-width="2560"
     inkscape:window-height="1377"
     inkscape:window-x="-8"
     inkscape:window-y="-8"
     inkscape:window-maximized="1" />
  <metadata
     id="metadata5">
    <rdf:RDF>
      <cc:Work
         rdf:about="">
        <dc:format>image/svg+xml</dc:format>
        <dc:type
           rdf:resource="http://purl.org/dc/dcmitype/StillImage" />
        <dc:title></dc:title>
      </cc:Work>
    </rdf:RDF>
  </metadata>
  <g
     inkscape:label="Layer 1"
     inkscape:groupmode="layer"
     id="layer1"
     transform="translate(0,-87)">
    <g
       id="g1491"
       inkscape:label="0"
       transform="matrix(0.26458333,0,0,0.26458333,29.737504,-155.00625)">
      <path
         id="path1101"
         style="fill:none;stroke:#000000"
         d="m 1507.1339,1523.1969 a 8.50395,8.50395 0 1 0 -17.0079,0 8.50395,8.50395 0 1 0 17.0079,0 z"
         inkscape:connector-curvature="0" />
      <path
         id="path1103"
         style="fill:none;stroke:#000000"
         d="m 492.96063,1099.8898 a 8.503937,8.503937 0 1 0 -17.00787,0 8.503937,8.503937 0 1 0 17.00787,0 z"
         inkscape:connector-curvature="0" />
      <path
         id="path1105"
         style="fill:none;stroke:#000000"
         d="m -14.125984,1523.1969 a 8.503937,8.503937 0 1 0 -17.007874,0 8.503937,8.503937 0 1 0 17.007874,0 z"
         inkscape:connector-curvature="0" />
      <path
         id="path1107"
         style="fill:none;stroke:#000000"
         d="m 1000.0472,1099.8898 a 8.503937,8.503937 0 1 0 -17.00783,0 8.503937,8.503937 0 1 0 17.00783,0 z"
         inkscape:connector-curvature="0" />
      <path
         id="path1109"
         style="fill:none;stroke:#000000"
         d="m 1000.0472,1523.1969 a 8.503937,8.503937 0 1 0 -17.00783,0 8.503937,8.503937 0 1 0 17.00783,0 z"
         inkscape:connector-curvature="0" />
      <path
         id="path1111"
         style="fill:none;stroke:#000000"
         d="m 1507.1339,1311.5433 a 8.50395,8.50395 0 1 0 -17.0079,0 8.50395,8.50395 0 1 0 17.0079,0 z"
         inkscape:connector-curvature="0" />
      <path
         id="path1113"
         style="fill:none;stroke:#000000"
         d="m -14.125984,1099.8898 a 8.503937,8.503937 0 1 0 -17.007874,0 8.503937,8.503937 0 1 0 17.007874,0 z"
         inkscape:connector-curvature="0" />
      <path
         id="path1115"
         style="fill:none;stroke:#000000"
         d="m -14.125984,1311.5433 a 8.503937,8.503937 0 1 0 -17.007874,0 8.503937,8.503937 0 1 0 17.007874,0 z"
         inkscape:connector-curvature="0" />
      <path
         id="path1117"
         style="fill:none;stroke:#000000"
         d="m 1507.1339,1099.8898 a 8.50395,8.50395 0 1 0 -17.0079,0 8.50395,8.50395 0 1 0 17.0079,0 z"
         inkscape:connector-curvature="0" />
      <path
         id="path1119"
         style="fill:none;stroke:#000000"
         d="m 492.96063,1523.1969 a 8.503937,8.503937 0 1 0 -17.00787,0 8.503937,8.503937 0 1 0 17.00787,0 z"
         inkscape:connector-curvature="0" />
      <path
         id="path1121"
         style="fill:none;stroke:#000000"
         d="m 1386.8976,1276.063 a 3.779528,3.779528 0 0 0 3.7796,-3.7795"
         inkscape:connector-curvature="0" />
      <path
         id="path1123"
         style="fill:none;stroke:#000000"
         d="m 1390.6772,1272.2835 v -11.5276"
         inkscape:connector-curvature="0" />
      <path
         id="path1125"
         style="fill:none;stroke:#000000"
         d="m 1390.6772,1260.7559 a 3.779528,3.779528 0 0 0 -3.7796,-3.7795"
         inkscape:connector-curvature="0" />
      <path
         id="path1127"
         style="fill:none;stroke:#000000"
         d="m 1386.8976,1256.9764 h -41.5748"
         inkscape:connector-curvature="0" />
      <path
         id="path1129"
         style="fill:none;stroke:#000000"
         d="m 1341.5433,1253.1969 a 3.779528,3.779528 0 0 0 3.7795,3.7795"
         inkscape:connector-curvature="0" />
      <path
         id="path1131"
         style="fill:none;stroke:#000000"
         d="m 1341.5433,1253.1969 v -45.3544"
         inkscape:connector-curvature="0" />
      <path
         id="path1133"
         style="fill:none;stroke:#000000"
         d="m 1345.3228,1204.063 a 3.779528,3.779528 0 0 0 -3.7795,3.7795"
         inkscape:connector-curvature="0" />
      <path
         id="path1135"
         style="fill:none;stroke:#000000"
         d="m 1345.3228,1204.063 h 45.3544"
         inkscape:connector-curvature="0" />
      <path
         id="path1137"
         style="fill:none;stroke:#000000"
         d="m 1393.4583,1205.2832 a 3.779528,3.779528 0 0 0 -2.7811,-1.2202"
         inkscape:connector-curvature="0" />
      <path
         id="path1139"
         style="fill:none;stroke:#000000"
         d="m 1393.4583,1205.2832 h 6.2001"
         inkscape:connector-curvature="0" />
      <path
         id="path1141"
         style="fill:none;stroke:#000000"
         d="m 1399.6806,1205.2832 14.8112,0.055"
         inkscape:connector-curvature="0" />
      <path
         id="path1143"
         style="fill:none;stroke:#000000"
         d="m 1417.3228,1204.063 a 3.779528,3.779528 0 0 0 -2.831,1.2755"
         inkscape:connector-curvature="0" />
      <path
         id="path1145"
         style="fill:none;stroke:#000000"
         d="m 1417.3228,1204.063 h 45.3544"
         inkscape:connector-curvature="0" />
      <path
         id="path1147"
         style="fill:none;stroke:#000000"
         d="m 1465.6665,1205.5298 a 3.779528,3.779528 0 0 0 -2.9893,-1.4668"
         inkscape:connector-curvature="0" />
      <path
         id="path1149"
         style="fill:none;stroke:#000000"
         d="m 1465.6665,1205.5298 h 0.5902"
         inkscape:connector-curvature="0" />
      <path
         id="path1151"
         style="fill:none;stroke:#000000"
         d="m 1466.2567,1205.532 5.8544,0.01"
         inkscape:connector-curvature="0" />
      <path
         id="path1153"
         style="fill:none;stroke:#000000"
         d="m 1475.8872,1209.3168 a 3.779528,3.779528 0 0 0 -3.7761,-3.7796"
         inkscape:connector-curvature="0" />
      <path
         id="path1155"
         style="fill:none;stroke:#000000"
         d="m 1475.8872,1209.3168 v 27.2694"
         inkscape:connector-curvature="0" />
      <path
         id="path1157"
         style="fill:none;stroke:#000000"
         d="m 1472.1077,1240.3657 a 3.779528,3.779528 0 0 0 3.7795,-3.7795"
         inkscape:connector-curvature="0" />
      <path
         id="path1159"
         style="fill:none;stroke:#000000"
         d="m 1472.1077,1240.3657 h -3.8003"
         inkscape:connector-curvature="0" />
      <path
         id="path1161"
         style="fill:none;stroke:#000000"
         d="m 1468.3074,1240.3657 a 1.889764,1.889764 0 0 0 -1.8507,1.5074"
         inkscape:connector-curvature="0" />
      <path
         id="path1163"
         style="fill:none;stroke:#000000"
         d="m 1466.4567,1241.8731 v 49.2932"
         inkscape:connector-curvature="0" />
      <path
         id="path1165"
         style="fill:none;stroke:#000000"
         d="m 1466.4567,1291.1663 a 1.889764,1.889764 0 0 0 1.8507,1.5074"
         inkscape:connector-curvature="0" />
      <path
         id="path1167"
         style="fill:none;stroke:#000000"
         d="m 1468.3074,1292.6737 h 3.8003"
         inkscape:connector-curvature="0" />
      <path
         id="path1169"
         style="fill:none;stroke:#000000"
         d="m 1475.8872,1296.4532 a 3.779528,3.779528 0 0 0 -3.7795,-3.7795"
         inkscape:connector-curvature="0" />
      <path
         id="path1171"
         style="fill:none;stroke:#000000"
         d="m 1475.8872,1296.4532 v 27.2694"
         inkscape:connector-curvature="0" />
      <path
         id="path1173"
         style="fill:none;stroke:#000000"
         d="m 1472.1111,1327.5021 a 3.779528,3.779528 0 0 0 3.7761,-3.7795"
         inkscape:connector-curvature="0" />
      <path
         id="path1175"
         style="fill:none;stroke:#000000"
         d="m 1472.1111,1327.5021 -5.8544,0.01"
         inkscape:connector-curvature="0" />
      <path
         id="path1177"
         style="fill:none;stroke:#000000"
         d="m 1466.2567,1327.5074 h -0.5902"
         inkscape:connector-curvature="0" />
      <path
         id="path1179"
         style="fill:none;stroke:#000000"
         d="m 1462.6772,1328.9764 a 3.779528,3.779528 0 0 0 2.9893,-1.4668"
         inkscape:connector-curvature="0" />
      <path
         id="path1181"
         style="fill:none;stroke:#000000"
         d="M 1462.6772,1328.9764 H 1345.3228"
         inkscape:connector-curvature="0" />
      <path
         id="path1183"
         style="fill:none;stroke:#000000"
         d="m 1341.5433,1325.1969 a 3.779528,3.779528 0 0 0 3.7795,3.7795"
         inkscape:connector-curvature="0" />
      <path
         id="path1185"
         style="fill:none;stroke:#000000"
         d="m 1341.5433,1325.1969 v -45.3544"
         inkscape:connector-curvature="0" />
      <path
         id="path1187"
         style="fill:none;stroke:#000000"
         d="m 1345.3228,1276.063 a 3.779528,3.779528 0 0 0 -3.7795,3.7795"
         inkscape:connector-curvature="0" />
      <path
         id="path1189"
         style="fill:none;stroke:#000000"
         d="m 1345.3228,1276.063 h 41.5748"
         inkscape:connector-curvature="0" />
      <path
         id="path1191"
         style="fill:none;stroke:#000000"
         d="m 1064.0215,1348.063 a 3.779528,3.779528 0 0 1 -3.7795,-3.7654 l -0.2543,-68.0346 -0.01,-5.8544 a 3.779528,3.779528 0 0 0 -3.7796,-3.7762 h -27.2694 a 3.779528,3.779528 0 0 0 -3.7795,3.7796 v 3.8003 a 1.889764,1.889764 0 0 1 -1.8898,1.8898 h -0.8562 a 6.851031,6.851031 0 0 0 -0.7308,-0.039 h -45.35436 a 6.851031,6.851031 0 0 0 -0.73087,0.039 H 974.731 a 1.889764,1.889764 0 0 1 -1.88976,-1.8898 v -3.8003 a 3.779528,3.779528 0 0 0 -3.77953,-3.7796 h -27.26944 a 3.779528,3.779528 0 0 0 -3.77953,3.7762 l -0.005,5.8544 -0.21905,58.604 a 3.779528,3.779528 0 0 1 -3.7795,3.7654 h -10.2167 a 3.779528,3.779528 0 0 0 -3.77953,3.7762 l -0.005,5.8544 -0.002,0.5902 a 3.779528,3.779528 0 0 0 -1.46681,2.9893 v 45.3544 a 3.779528,3.779528 0 0 0 1.27553,2.831 l -0.0554,14.8112 a 3.779528,3.779528 0 0 0 3.77338,3.7936 h 1.97377 a 3.779528,3.779528 0 0 1 2.03268,3.3516 v 47.2094 a 3.779528,3.779528 0 0 0 3.77953,3.7795 h 45.35432 a 3.779528,3.779528 0 0 0 3.77953,-3.7795 v -46.7443 a 3.779528,3.779528 0 0 1 3.77953,-3.7795 h 29.28648 l 24.9404,-0.04 a 3.779528,3.779528 0 0 0 3.7734,-3.7936 l -0.038,-10.0691 a 3.779528,3.779528 0 0 1 3.7795,-3.7936 h 20.6988 a 3.779528,3.779528 0 0 0 3.7795,-3.7795 v -45.3544 a 3.779528,3.779528 0 0 0 -3.7795,-3.7795 z"
         inkscape:connector-curvature="0" />
      <path
         id="path1193"
         style="fill:none;stroke:#000000"
         d="m -18.897638,1557.2126 a 37.795276,37.795276 0 0 1 -37.795275,-37.7953 V 1103.622 a 37.795276,37.795276 0 0 1 37.795275,-37.7952 H 1494.8976 a 37.795276,37.795276 0 0 1 37.7953,37.7952 v 415.7953 a 37.795276,37.795276 0 0 1 -37.7953,37.7953 z"
         inkscape:connector-curvature="0" />
      <path
         id="path1195"
         style="fill:none;stroke:#000000"
         d="m 783.54331,1279.8425 v 45.3544 a 3.779528,3.779528 0 0 0 3.77953,3.7795 h 45.35432 a 3.779528,3.779528 0 0 0 3.77953,-3.7795 v -45.3544 a 3.779528,3.779528 0 0 0 -3.77953,-3.7795 h -45.35432 a 3.779528,3.779528 0 0 0 -3.77953,3.7795 z"
         inkscape:connector-curvature="0" />
      <path
         id="path1197"
         style="fill:none;stroke:#000000"
         d="m 603.54331,1351.8425 a 3.779528,3.779528 0 0 1 3.77953,-3.7795 h 45.35432 a 3.779528,3.779528 0 0 1 3.77953,3.7795 v 45.3544 a 3.779528,3.779528 0 0 1 -3.77953,3.7795 h -45.35432 a 3.779528,3.779528 0 0 1 -3.77953,-3.7795 z"
         inkscape:connector-curvature="0" />
      <path
         id="path1199"
         style="fill:none;stroke:#000000"
         d="m 1107.5433,1135.8425 a 3.779528,3.779528 0 0 1 3.7795,-3.7795 h 45.3544 a 3.779528,3.779528 0 0 1 3.7795,3.7795 v 45.3544 a 3.779528,3.779528 0 0 1 -3.7795,3.7795 h -45.3544 a 3.779528,3.779528 0 0 1 -3.7795,-3.7795 z"
         inkscape:connector-curvature="0" />
      <path
         id="path1201"
         style="fill:none;stroke:#000000"
         d="m 315.54331,1351.8425 a 3.779528,3.779528 0 0 1 3.77952,-3.7795 h 45.35433 a 3.779528,3.779528 0 0 1 3.77953,3.7795 v 45.3544 a 3.779528,3.779528 0 0 1 -3.77953,3.7795 h -45.35433 a 3.779528,3.779528 0 0 1 -3.77952,-3.7795 z"
         inkscape:connector-curvature="0" />
      <path
         id="path1203"
         style="fill:none;stroke:#000000"
         d="m 1107.5433,1369.8425 a 3.779528,3.779528 0 0 1 3.7795,-3.7795 h 45.3544 a 3.779528,3.779528 0 0 1 3.7795,3.7795 v 45.3544 a 3.779528,3.779528 0 0 1 -3.7795,3.7795 h -45.3544 a 3.779528,3.779528 0 0 1 -3.7795,-3.7795 z"
         inkscape:connector-curvature="0" />
      <path
         id="path1205"
         style="fill:none;stroke:#000000"
         d="m 256.67716,1420.063 h -63.35433 a 3.779528,3.779528 0 0 0 -3.77952,3.7795 v 45.3544 a 3.779528,3.779528 0 0 0 3.77952,3.7795 h 63.35433 a 3.779528,3.779528 0 0 0 3.77953,-3.7795 v -45.3544 a 3.779528,3.779528 0 0 0 -3.77953,-3.7795 z"
         inkscape:connector-curvature="0" />
      <path
         id="path1207"
         style="fill:none;stroke:#000000"
         d="m 369.54331,1135.8425 a 3.779528,3.779528 0 0 1 3.77952,-3.7795 h 45.35433 a 3.779528,3.779528 0 0 1 3.77953,3.7795 v 45.3544 a 3.779528,3.779528 0 0 1 -3.77953,3.7795 h -45.35433 a 3.779528,3.779528 0 0 1 -3.77952,-3.7795 z"
         inkscape:connector-curvature="0" />
      <path
         id="path1209"
         style="fill:none;stroke:#000000"
         d="m 1269.5433,1351.8425 v 45.3544 a 3.779528,3.779528 0 0 0 3.7795,3.7795 h 45.3544 a 3.779528,3.779528 0 0 0 3.7795,-3.7795 v -45.3544 a 3.779528,3.779528 0 0 0 -3.7795,-3.7795 h -45.3544 a 3.779528,3.779528 0 0 0 -3.7795,3.7795 z"
         inkscape:connector-curvature="0" />
      <path
         id="path1211"
         style="fill:none;stroke:#000000"
         d="m 585.54331,1135.8425 a 3.779528,3.779528 0 0 1 3.77953,-3.7795 h 45.35432 a 3.779528,3.779528 0 0 1 3.77953,3.7795 v 45.3544 a 3.779528,3.779528 0 0 1 -3.77953,3.7795 h -45.35432 a 3.779528,3.779528 0 0 1 -3.77953,-3.7795 z"
         inkscape:connector-curvature="0" />
      <path
         id="path1213"
         style="fill:none;stroke:#000000"
         d="m 657.54331,1135.8425 a 3.779528,3.779528 0 0 1 3.77953,-3.7795 h 45.35432 a 3.779528,3.779528 0 0 1 3.77953,3.7795 v 45.3544 a 3.779528,3.779528 0 0 1 -3.77953,3.7795 h -45.35432 a 3.779528,3.779528 0 0 1 -3.77953,-3.7795 z"
         inkscape:connector-curvature="0" />
      <path
         id="path1215"
         style="fill:none;stroke:#000000"
         d="m 153.54331,1135.8425 a 3.779528,3.779528 0 0 1 3.77952,-3.7795 h 45.35433 a 3.779528,3.779528 0 0 1 3.77953,3.7795 v 45.3544 a 3.779528,3.779528 0 0 1 -3.77953,3.7795 h -45.35433 a 3.779528,3.779528 0 0 1 -3.77952,-3.7795 z"
         inkscape:connector-curvature="0" />
      <path
         id="path1217"
         style="fill:none;stroke:#000000"
         d="m 297.54331,1135.8425 a 3.779528,3.779528 0 0 1 3.77952,-3.7795 h 45.35433 a 3.779528,3.779528 0 0 1 3.77953,3.7795 v 45.3544 a 3.779528,3.779528 0 0 1 -3.77953,3.7795 h -45.35433 a 3.779528,3.779528 0 0 1 -3.77952,-3.7795 z"
         inkscape:connector-curvature="0" />
      <path
         id="path1219"
         style="fill:none;stroke:#000000"
         d="m 405.54331,1207.8425 a 3.779528,3.779528 0 0 1 3.77952,-3.7795 h 45.35433 a 3.779528,3.779528 0 0 1 3.77953,3.7795 v 45.3544 a 3.779528,3.779528 0 0 1 -3.77953,3.7795 h -45.35433 a 3.779528,3.779528 0 0 1 -3.77952,-3.7795 z"
         inkscape:connector-curvature="0" />
      <path
         id="path1221"
         style="fill:none;stroke:#000000"
         d="m 351.54331,1279.8425 a 3.779528,3.779528 0 0 1 3.77952,-3.7795 h 45.35433 a 3.779528,3.779528 0 0 1 3.77953,3.7795 v 45.3544 a 3.779528,3.779528 0 0 1 -3.77953,3.7795 h -45.35433 a 3.779528,3.779528 0 0 1 -3.77952,-3.7795 z"
         inkscape:connector-curvature="0" />
      <path
         id="path1223"
         style="fill:none;stroke:#000000"
         d="m 36.543307,1279.8425 a 3.779528,3.779528 0 0 1 3.779528,-3.7795 h 45.35433 a 3.779528,3.779528 0 0 1 3.779528,3.7795 v 45.3544 a 3.779528,3.779528 0 0 1 -3.779528,3.7795 h -45.35433 a 3.779528,3.779528 0 0 1 -3.779528,-3.7795 z"
         inkscape:connector-curvature="0" />
      <path
         id="path1225"
         style="fill:none;stroke:#000000"
         d="m 135.54331,1279.8425 v 45.3544 a 3.779528,3.779528 0 0 0 3.77952,3.7795 h 45.35433 a 3.779528,3.779528 0 0 0 3.77953,-3.7795 v -45.3544 a 3.779528,3.779528 0 0 0 -3.77953,-3.7795 h -45.35433 a 3.779528,3.779528 0 0 0 -3.77952,3.7795 z"
         inkscape:connector-curvature="0" />
      <path
         id="path1227"
         style="fill:none;stroke:#000000"
         d="m 693.54331,1207.8425 a 3.779528,3.779528 0 0 1 3.77953,-3.7795 h 45.35432 a 3.779528,3.779528 0 0 1 3.77953,3.7795 v 45.3544 a 3.779528,3.779528 0 0 1 -3.77953,3.7795 h -45.35432 a 3.779528,3.779528 0 0 1 -3.77953,-3.7795 z"
         inkscape:connector-curvature="0" />
      <path
         id="path1229"
         style="fill:none;stroke:#000000"
         d="m 868.67716,1348.063 a 3.779528,3.779528 0 0 1 3.77953,3.7795 v 45.3544 a 3.779528,3.779528 0 0 1 -3.77953,3.7795 h -45.35432 a 3.779528,3.779528 0 0 1 -3.77953,-3.7795 v -45.3544 a 3.779528,3.779528 0 0 1 3.77953,-3.7795 z"
         inkscape:connector-curvature="0" />
      <path
         id="path1231"
         style="fill:none;stroke:#000000"
         d="m 513.54331,1135.8425 a 3.779528,3.779528 0 0 1 3.77953,-3.7795 h 45.35432 a 3.779528,3.779528 0 0 1 3.77953,3.7795 v 45.3544 a 3.779528,3.779528 0 0 1 -3.77953,3.7795 h -45.35432 a 3.779528,3.779528 0 0 1 -3.77953,-3.7795 z"
         inkscape:connector-curvature="0" />
      <path
         id="path1233"
         style="fill:none;stroke:#000000"
         d="m 279.54331,1279.8425 a 3.779528,3.779528 0 0 1 3.77952,-3.7795 h 45.35433 a 3.779528,3.779528 0 0 1 3.77953,3.7795 v 45.3544 a 3.779528,3.779528 0 0 1 -3.77953,3.7795 h -45.35433 a 3.779528,3.779528 0 0 1 -3.77952,-3.7795 z"
         inkscape:connector-curvature="0" />
      <path
         id="path1235"
         style="fill:none;stroke:#000000"
         d="m 189.54331,1207.8425 a 3.779528,3.779528 0 0 1 3.77952,-3.7795 h 45.35433 a 3.779528,3.779528 0 0 1 3.77953,3.7795 v 45.3544 a 3.779528,3.779528 0 0 1 -3.77953,3.7795 h -45.35433 a 3.779528,3.779528 0 0 1 -3.77952,-3.7795 z"
         inkscape:connector-curvature="0" />
      <path
         id="path1237"
         style="fill:none;stroke:#000000"
         d="m 1197.5433,1207.8425 a 3.779528,3.779528 0 0 1 3.7795,-3.7795 h 45.3544 a 3.779528,3.779528 0 0 1 3.7795,3.7795 v 45.3544 a 3.779528,3.779528 0 0 1 -3.7795,3.7795 h -45.3544 a 3.779528,3.779528 0 0 1 -3.7795,-3.7795 z"
         inkscape:connector-curvature="0" />
      <path
         id="path1239"
         style="fill:none;stroke:#000000"
         d="m 27.543307,1207.8425 v 45.3544 a 3.779528,3.779528 0 0 0 3.779528,3.7795 h 45.35433 a 3.779528,3.779528 0 0 0 3.779528,-3.7795 v -45.3544 a 3.779528,3.779528 0 0 0 -3.779528,-3.7795 h -45.35433 a 3.779528,3.779528 0 0 0 -3.779528,3.7795 z"
         inkscape:connector-curvature="0" />
      <path
         id="path1241"
         style="fill:none;stroke:#000000"
         d="m 225.54331,1135.8425 a 3.779528,3.779528 0 0 1 3.77952,-3.7795 h 45.35433 a 3.779528,3.779528 0 0 1 3.77953,3.7795 v 45.3544 a 3.779528,3.779528 0 0 1 -3.77953,3.7795 h -45.35433 a 3.779528,3.779528 0 0 1 -3.77952,-3.7795 z"
         inkscape:connector-curvature="0" />
      <path
         id="path1243"
         style="fill:none;stroke:#000000"
         d="m 765.54331,1207.8425 a 3.779528,3.779528 0 0 1 3.77953,-3.7795 h 45.35432 a 3.779528,3.779528 0 0 1 3.77953,3.7795 v 45.3544 a 3.779528,3.779528 0 0 1 -3.77953,3.7795 h -45.35432 a 3.779528,3.779528 0 0 1 -3.77953,-3.7795 z"
         inkscape:connector-curvature="0" />
      <path
         id="path1245"
         style="fill:none;stroke:#000000"
         d="m 1269.5433,1207.8425 a 3.779528,3.779528 0 0 1 3.7795,-3.7795 h 45.3544 a 3.779528,3.779528 0 0 1 3.7795,3.7795 v 45.3544 a 3.779528,3.779528 0 0 1 -3.7795,3.7795 h -45.3544 a 3.779528,3.779528 0 0 1 -3.7795,-3.7795 z"
         inkscape:connector-curvature="0" />
      <path
         id="path1247"
         style="fill:none;stroke:#000000"
         d="m 621.54331,1207.8425 v 45.3544 a 3.779528,3.779528 0 0 0 3.77953,3.7795 h 45.35432 a 3.779528,3.779528 0 0 0 3.77953,-3.7795 v -45.3544 a 3.779528,3.779528 0 0 0 -3.77953,-3.7795 h -45.35432 a 3.779528,3.779528 0 0 0 -3.77953,3.7795 z"
         inkscape:connector-curvature="0" />
      <path
         id="path1249"
         style="fill:none;stroke:#000000"
         d="m 333.54331,1207.8425 a 3.779528,3.779528 0 0 1 3.77952,-3.7795 h 45.35433 a 3.779528,3.779528 0 0 1 3.77953,3.7795 v 45.3544 a 3.779528,3.779528 0 0 1 -3.77953,3.7795 h -45.35433 a 3.779528,3.779528 0 0 1 -3.77952,-3.7795 z"
         inkscape:connector-curvature="0" />
      <path
         id="path1251"
         style="fill:none;stroke:#000000"
         d="m 243.54331,1351.8425 a 3.779528,3.779528 0 0 1 3.77952,-3.7795 h 45.35433 a 3.779528,3.779528 0 0 1 3.77953,3.7795 v 45.3544 a 3.779528,3.779528 0 0 1 -3.77953,3.7795 h -45.35433 a 3.779528,3.779528 0 0 1 -3.77952,-3.7795 z"
         inkscape:connector-curvature="0" />
      <path
         id="path1253"
         style="fill:none;stroke:#000000"
         d="m 207.54331,1279.8425 a 3.779528,3.779528 0 0 1 3.77952,-3.7795 h 45.35433 a 3.779528,3.779528 0 0 1 3.77953,3.7795 v 45.3544 a 3.779528,3.779528 0 0 1 -3.77953,3.7795 h -45.35433 a 3.779528,3.779528 0 0 1 -3.77952,-3.7795 z"
         inkscape:connector-curvature="0" />
      <path
         id="path1255"
         style="fill:none;stroke:#000000"
         d="m 117.54331,1207.8425 a 3.779528,3.779528 0 0 1 3.77952,-3.7795 h 45.35433 a 3.779528,3.779528 0 0 1 3.77953,3.7795 v 45.3544 a 3.779528,3.779528 0 0 1 -3.77953,3.7795 h -45.35433 a 3.779528,3.779528 0 0 1 -3.77952,-3.7795 z"
         inkscape:connector-curvature="0" />
      <path
         id="path1257"
         style="fill:none;stroke:#000000"
         d="m 1197.5433,1135.8425 a 3.779528,3.779528 0 0 1 3.7795,-3.7795 h 45.3544 a 3.779528,3.779528 0 0 1 3.7795,3.7795 v 45.3544 a 3.779528,3.779528 0 0 1 -3.7795,3.7795 h -45.3544 a 3.779528,3.779528 0 0 1 -3.7795,-3.7795 z"
         inkscape:connector-curvature="0" />
      <path
         id="path1259"
         style="fill:none;stroke:#000000"
         d="m 261.54331,1207.8425 a 3.779528,3.779528 0 0 1 3.77952,-3.7795 h 45.35433 a 3.779528,3.779528 0 0 1 3.77953,3.7795 v 45.3544 a 3.779528,3.779528 0 0 1 -3.77953,3.7795 h -45.35433 a 3.779528,3.779528 0 0 1 -3.77952,-3.7795 z"
         inkscape:connector-curvature="0" />
      <path
         id="path1261"
         style="fill:none;stroke:#000000"
         d="m 526.67716,1204.063 a 3.779528,3.779528 0 0 1 3.77953,3.7795 v 45.3544 a 3.779528,3.779528 0 0 1 -3.77953,3.7795 h -45.35433 a 3.779528,3.779528 0 0 1 -3.77952,-3.7795 v -45.3544 a 3.779528,3.779528 0 0 1 3.77952,-3.7795 z"
         inkscape:connector-curvature="0" />
      <path
         id="path1263"
         style="fill:none;stroke:#000000"
         d="m 1035.5433,1441.8425 a 3.779528,3.779528 0 0 1 3.7795,-3.7795 h 45.3544 a 3.779528,3.779528 0 0 1 3.7795,3.7795 v 45.3544 a 3.779528,3.779528 0 0 1 -3.7795,3.7795 h -45.3544 a 3.779528,3.779528 0 0 1 -3.7795,-3.7795 z"
         inkscape:connector-curvature="0" />
      <path
         id="path1265"
         style="fill:none;stroke:#000000"
         d="m 171.54331,1351.8425 a 3.779528,3.779528 0 0 1 3.77952,-3.7795 h 45.35433 a 3.779528,3.779528 0 0 1 3.77953,3.7795 v 45.3544 a 3.779528,3.779528 0 0 1 -3.77953,3.7795 h -45.35433 a 3.779528,3.779528 0 0 1 -3.77952,-3.7795 z"
         inkscape:connector-curvature="0" />
      <path
         id="path1267"
         style="fill:none;stroke:#000000"
         d="m 675.54331,1351.8425 a 3.779528,3.779528 0 0 1 3.77953,-3.7795 h 45.35432 a 3.779528,3.779528 0 0 1 3.77953,3.7795 v 45.3544 a 3.779528,3.779528 0 0 1 -3.77953,3.7795 h -45.35432 a 3.779528,3.779528 0 0 1 -3.77953,-3.7795 z"
         inkscape:connector-curvature="0" />
      <path
         id="path1269"
         style="fill:none;stroke:#000000"
         d="m 837.54331,1207.8425 v 45.3544 a 3.779528,3.779528 0 0 0 3.77953,3.7795 h 45.35432 a 3.779528,3.779528 0 0 0 3.77953,-3.7795 v -45.3544 a 3.779528,3.779528 0 0 0 -3.77953,-3.7795 h -45.35432 a 3.779528,3.779528 0 0 0 -3.77953,3.7795 z"
         inkscape:connector-curvature="0" />
      <path
         id="path1271"
         style="fill:none;stroke:#000000"
         d="m 549.54331,1207.8425 a 3.779528,3.779528 0 0 1 3.77953,-3.7795 h 45.35432 a 3.779528,3.779528 0 0 1 3.77953,3.7795 v 45.3544 a 3.779528,3.779528 0 0 1 -3.77953,3.7795 h -45.35432 a 3.779528,3.779528 0 0 1 -3.77953,-3.7795 z"
         inkscape:connector-curvature="0" />
      <path
         id="path1273"
         style="fill:none;stroke:#000000"
         d="m 1107.5433,1207.8425 v 45.3544 a 3.779528,3.779528 0 0 0 3.7795,3.7795 h 45.3544 a 3.779528,3.779528 0 0 0 3.7795,-3.7795 v -45.3544 a 3.779528,3.779528 0 0 0 -3.7795,-3.7795 h -45.3544 a 3.779528,3.779528 0 0 0 -3.7795,3.7795 z"
         inkscape:connector-curvature="0" />
      <path
         id="path1275"
         style="fill:none;stroke:#000000"
         d="m 747.54331,1351.8425 v 45.3544 a 3.779528,3.779528 0 0 0 3.77953,3.7795 h 45.35432 a 3.779528,3.779528 0 0 0 3.77953,-3.7795 v -45.3544 a 3.779528,3.779528 0 0 0 -3.77953,-3.7795 h -45.35432 a 3.779528,3.779528 0 0 0 -3.77953,3.7795 z"
         inkscape:connector-curvature="0" />
      <path
         id="path1277"
         style="fill:none;stroke:#000000"
         d="m 580.67716,1348.063 a 3.779528,3.779528 0 0 1 3.77953,3.7795 v 45.3544 a 3.779528,3.779528 0 0 1 -3.77953,3.7795 h -45.35432 a 3.779528,3.779528 0 0 1 -3.77953,-3.7795 v -45.3544 a 3.779528,3.779528 0 0 1 3.77953,-3.7795 z"
         inkscape:connector-curvature="0" />
      <path
         id="path1279"
         style="fill:none;stroke:#000000"
         d="m 130.67716,1132.063 a 3.779528,3.779528 0 0 1 3.77953,3.7795 v 45.3544 a 3.779528,3.779528 0 0 1 -3.77953,3.7795 H 85.322835 a 3.779528,3.779528 0 0 1 -3.779528,-3.7795 v -45.3544 a 3.779528,3.779528 0 0 1 3.779528,-3.7795 z"
         inkscape:connector-curvature="0" />
      <path
         id="path1281"
         style="fill:none;stroke:#000000"
         d="m 855.54331,1279.8425 a 3.779528,3.779528 0 0 1 3.77953,-3.7795 h 45.35432 a 3.779528,3.779528 0 0 1 3.77953,3.7795 v 45.3544 a 3.779528,3.779528 0 0 1 -3.77953,3.7795 h -45.35432 a 3.779528,3.779528 0 0 1 -3.77953,-3.7795 z"
         inkscape:connector-curvature="0" />
      <path
         id="path1283"
         style="fill:none;stroke:#000000"
         d="m 775.27196,1486.8391 -0.0518,-13.8627 h 21.45702 a 3.779528,3.779528 0 0 0 3.77953,-3.7795 v -45.3544 a 3.779528,3.779528 0 0 0 -3.77953,-3.7795 h -21.65423 l -0.005,-5.6544 a 3.779528,3.779528 0 0 0 -3.77952,-3.7762 h -27.26944 a 3.779528,3.779528 0 0 0 -3.77953,3.7796 v 3.8003 a 1.889764,1.889764 0 0 1 -1.88977,1.8898 h -0.85617 a 6.851031,6.851031 0 0 0 -0.73086,-0.039 l -35.39028,0.2 -0.005,-5.8544 a 3.779528,3.779528 0 0 0 -3.77952,-3.7762 h -27.26944 a 3.779528,3.779528 0 0 0 -3.77953,3.7796 v 3.8003 a 1.889764,1.889764 0 0 1 -1.88976,1.8898 h -0.85617 a 6.851031,6.851031 0 0 0 -0.73087,-0.039 H 400.33465 a 6.851031,6.851031 0 0 0 -0.73087,0.039 h -53.76956 a 1.889764,1.889764 0 0 1 -1.88976,-1.8898 v -3.8003 a 3.779528,3.779528 0 0 0 -3.77953,-3.7796 h -48.05684 a 3.779528,3.779528 0 0 0 -3.77952,3.7762 l -0.005,5.8544 -0.24885,66.5761 a 3.779528,3.779528 0 0 0 3.77339,3.7936 l 24.94041,0.04 48.76037,-0.04 24.94041,0.04 h 282.36829 l 24.94041,-0.04 48.76038,0.04 24.94041,-0.04 a 3.779528,3.779528 0 0 0 3.77339,-3.7936 z"
         inkscape:connector-curvature="0" />
      <path
         id="path1285"
         style="fill:none;stroke:#000000"
         d="m 1197.5433,1351.8425 a 3.779528,3.779528 0 0 1 3.7795,-3.7795 h 45.3544 a 3.779528,3.779528 0 0 1 3.7795,3.7795 v 45.3544 a 3.779528,3.779528 0 0 1 -3.7795,3.7795 h -45.3544 a 3.779528,3.779528 0 0 1 -3.7795,-3.7795 z"
         inkscape:connector-curvature="0" />
      <path
         id="path1287"
         style="fill:none;stroke:#000000"
         d="m 1179.5433,1441.8425 a 3.779528,3.779528 0 0 1 3.7795,-3.7795 h 45.3544 a 3.779528,3.779528 0 0 1 3.7795,3.7795 v 45.3544 a 3.779528,3.779528 0 0 1 -3.7795,3.7795 h -45.3544 a 3.779528,3.779528 0 0 1 -3.7795,-3.7795 z"
         inkscape:connector-curvature="0" />
      <path
         id="path1289"
         style="fill:none;stroke:#000000"
         d="m 441.54331,1135.8425 a 3.779528,3.779528 0 0 1 3.77952,-3.7795 h 45.35433 a 3.779528,3.779528 0 0 1 3.77953,3.7795 v 45.3544 a 3.779528,3.779528 0 0 1 -3.77953,3.7795 h -45.35433 a 3.779528,3.779528 0 0 1 -3.77952,-3.7795 z"
         inkscape:connector-curvature="0" />
      <path
         id="path1291"
         style="fill:none;stroke:#000000"
         d="m 387.54331,1351.8425 a 3.779528,3.779528 0 0 1 3.77952,-3.7795 h 45.35433 a 3.779528,3.779528 0 0 1 3.77953,3.7795 v 45.3544 a 3.779528,3.779528 0 0 1 -3.77953,3.7795 h -45.35433 a 3.779528,3.779528 0 0 1 -3.77952,-3.7795 z"
         inkscape:connector-curvature="0" />
      <path
         id="path1293"
         style="fill:none;stroke:#000000"
         d="m 1107.5433,1441.8425 a 3.779528,3.779528 0 0 1 3.7795,-3.7795 h 45.3544 a 3.779528,3.779528 0 0 1 3.7795,3.7795 v 45.3544 a 3.779528,3.779528 0 0 1 -3.7795,3.7795 h -45.3544 a 3.779528,3.779528 0 0 1 -3.7795,-3.7795 z"
         inkscape:connector-curvature="0" />
      <path
         id="path1295"
         style="fill:none;stroke:#000000"
         d="m 1269.5433,1135.8425 a 3.779528,3.779528 0 0 1 3.7795,-3.7795 h 45.3544 a 3.779528,3.779528 0 0 1 3.7795,3.7795 v 45.3544 a 3.779528,3.779528 0 0 1 -3.7795,3.7795 h -45.3544 a 3.779528,3.779528 0 0 1 -3.7795,-3.7795 z"
         inkscape:connector-curvature="0" />
      <path
         id="path1297"
         style="fill:none;stroke:#000000"
         d="m 711.54331,1279.8425 v 45.3544 a 3.779528,3.779528 0 0 0 3.77953,3.7795 h 45.35432 a 3.779528,3.779528 0 0 0 3.77953,-3.7795 v -45.3544 a 3.779528,3.779528 0 0 0 -3.77953,-3.7795 h -45.35432 a 3.779528,3.779528 0 0 0 -3.77953,3.7795 z"
         inkscape:connector-curvature="0" />
      <path
         id="path1299"
         style="fill:none;stroke:#000000"
         d="m 423.54331,1279.8425 a 3.779528,3.779528 0 0 1 3.77952,-3.7795 h 45.35433 a 3.779528,3.779528 0 0 1 3.77953,3.7795 v 45.3544 a 3.779528,3.779528 0 0 1 -3.77953,3.7795 h -45.35433 a 3.779528,3.779528 0 0 1 -3.77952,-3.7795 z"
         inkscape:connector-curvature="0" />
      <path
         id="path1301"
         style="fill:none;stroke:#000000"
         d="m 801.54331,1135.8425 a 3.779528,3.779528 0 0 1 3.77953,-3.7795 h 45.35432 a 3.779528,3.779528 0 0 1 3.77953,3.7795 v 45.3544 a 3.779528,3.779528 0 0 1 -3.77953,3.7795 h -45.35432 a 3.779528,3.779528 0 0 1 -3.77953,-3.7795 z"
         inkscape:connector-curvature="0" />
      <path
         id="path1303"
         style="fill:none;stroke:#000000"
         d="m 459.54331,1351.8425 a 3.779528,3.779528 0 0 1 3.77952,-3.7795 h 45.35433 a 3.779528,3.779528 0 0 1 3.77953,3.7795 v 45.3544 a 3.779528,3.779528 0 0 1 -3.77953,3.7795 h -45.35433 a 3.779528,3.779528 0 0 1 -3.77952,-3.7795 z"
         inkscape:connector-curvature="0" />
      <path
         id="path1305"
         style="fill:none;stroke:#000000"
         d="m 1341.5433,1135.8425 a 3.779528,3.779528 0 0 1 3.7795,-3.7795 h 45.3544 a 3.779528,3.779528 0 0 1 3.7795,3.7795 v 45.3544 a 3.779528,3.779528 0 0 1 -3.7795,3.7795 h -45.3544 a 3.779528,3.779528 0 0 1 -3.7795,-3.7795 z"
         inkscape:connector-curvature="0" />
      <path
         id="path1307"
         style="fill:none;stroke:#000000"
         d="m 495.54331,1279.8425 a 3.779528,3.779528 0 0 1 3.77952,-3.7795 h 45.35433 a 3.779528,3.779528 0 0 1 3.77953,3.7795 v 45.3544 a 3.779528,3.779528 0 0 1 -3.77953,3.7795 h -45.35433 a 3.779528,3.779528 0 0 1 -3.77952,-3.7795 z"
         inkscape:connector-curvature="0" />
      <path
         id="path1309"
         style="fill:none;stroke:#000000"
         d="m 567.54331,1279.8425 a 3.779528,3.779528 0 0 1 3.77953,-3.7795 h 45.35432 a 3.779528,3.779528 0 0 1 3.77953,3.7795 v 45.3544 a 3.779528,3.779528 0 0 1 -3.77953,3.7795 h -45.35432 a 3.779528,3.779528 0 0 1 -3.77953,-3.7795 z"
         inkscape:connector-curvature="0" />
      <path
         id="path1311"
         style="fill:none;stroke:#000000"
         d="m 9.543307,1135.8425 a 3.779528,3.779528 0 0 1 3.779528,-3.7795 h 45.35433 a 3.779528,3.779528 0 0 1 3.779528,3.7795 v 45.3544 a 3.779528,3.779528 0 0 1 -3.779528,3.7795 h -45.35433 a 3.779528,3.779528 0 0 1 -3.779528,-3.7795 z"
         inkscape:connector-curvature="0" />
      <path
         id="path1313"
         style="fill:none;stroke:#000000"
         d="m 639.54331,1279.8425 v 45.3544 a 3.779528,3.779528 0 0 0 3.77953,3.7795 h 45.35432 a 3.779528,3.779528 0 0 0 3.77953,-3.7795 v -45.3544 a 3.779528,3.779528 0 0 0 -3.77953,-3.7795 h -45.35432 a 3.779528,3.779528 0 0 0 -3.77953,3.7795 z"
         inkscape:connector-curvature="0" />
      <path
         id="path1315"
         style="fill:none;stroke:#000000"
         d="m 1413.5433,1135.8425 a 3.779528,3.779528 0 0 1 3.7795,-3.7795 h 45.3544 a 3.779528,3.779528 0 0 1 3.7795,3.7795 v 45.3544 a 3.779528,3.779528 0 0 1 -3.7795,3.7795 h -45.3544 a 3.779528,3.779528 0 0 1 -3.7795,-3.7795 z"
         inkscape:connector-curvature="0" />
      <path
         id="path1317"
         style="fill:none;stroke:#000000"
         d="m 1197.5433,1279.8425 a 3.779528,3.779528 0 0 1 3.7795,-3.7795 h 45.3544 a 3.779528,3.779528 0 0 1 3.7795,3.7795 v 45.3544 a 3.779528,3.779528 0 0 1 -3.7795,3.7795 h -45.3544 a 3.779528,3.779528 0 0 1 -3.7795,-3.7795 z"
         inkscape:connector-curvature="0" />
      <path
         id="path1319"
         style="fill:none;stroke:#000000"
         d="m 1269.5433,1279.8425 a 3.779528,3.779528 0 0 1 3.7795,-3.7795 h 45.3544 a 3.779528,3.779528 0 0 1 3.7795,3.7795 v 45.3544 a 3.779528,3.779528 0 0 1 -3.7795,3.7795 h -45.3544 a 3.779528,3.779528 0 0 1 -3.7795,-3.7795 z"
         inkscape:connector-curvature="0" />
      <path
         id="path1321"
         style="fill:none;stroke:#000000"
         d="m 873.54331,1135.8425 a 3.779528,3.779528 0 0 1 3.77953,-3.7795 h 45.35432 a 3.779528,3.779528 0 0 1 3.77953,3.7795 v 45.3544 a 3.779528,3.779528 0 0 1 -3.77953,3.7795 h -45.35432 a 3.779528,3.779528 0 0 1 -3.77953,-3.7795 z"
         inkscape:connector-curvature="0" />
      <path
         id="path1323"
         style="fill:none;stroke:#000000"
         d="m 729.54331,1135.8425 a 3.779528,3.779528 0 0 1 3.77953,-3.7795 h 45.35432 a 3.779528,3.779528 0 0 1 3.77953,3.7795 v 45.3544 a 3.779528,3.779528 0 0 1 -3.77953,3.7795 h -45.35432 a 3.779528,3.779528 0 0 1 -3.77953,-3.7795 z"
         inkscape:connector-curvature="0" />
      <path
         id="path1325"
         style="fill:none;stroke:#000000"
         d="m 1269.5433,1423.8425 a 3.779528,3.779528 0 0 1 3.7795,-3.7795 h 45.3544 a 3.779528,3.779528 0 0 1 3.7795,3.7795 v 45.3544 a 3.779528,3.779528 0 0 1 -3.7795,3.7795 h -45.3544 a 3.779528,3.779528 0 0 1 -3.7795,-3.7795 z"
         inkscape:connector-curvature="0" />
      <path
         id="path1327"
         style="fill:none;stroke:#000000"
         d="m 886.67716,1420.063 h -63.35432 a 3.779528,3.779528 0 0 0 -3.77953,3.7795 v 45.3544 a 3.779528,3.779528 0 0 0 3.77953,3.7795 h 63.35432 a 3.779528,3.779528 0 0 0 3.77953,-3.7795 v -45.3544 a 3.779528,3.779528 0 0 0 -3.77953,-3.7795 z"
         inkscape:connector-curvature="0" />
      <path
         id="path1329"
         style="fill:none;stroke:#000000"
         d="m 84.23622,1423.8425 a 3.779528,3.779528 0 0 0 -3.779527,3.7795"
         inkscape:connector-curvature="0" />
      <path
         id="path1331"
         style="fill:none;stroke:#000000"
         d="m 80.456693,1427.622 v 41.5749"
         inkscape:connector-curvature="0" />
      <path
         id="path1333"
         style="fill:none;stroke:#000000"
         d="m 76.677165,1472.9764 a 3.779528,3.779528 0 0 0 3.779528,-3.7795"
         inkscape:connector-curvature="0" />
      <path
         id="path1335"
         style="fill:none;stroke:#000000"
         d="M 76.677165,1472.9764 H 22.322835"
         inkscape:connector-curvature="0" />
      <path
         id="path1337"
         style="fill:none;stroke:#000000"
         d="m 18.543307,1469.1969 a 3.779528,3.779528 0 0 0 3.779528,3.7795"
         inkscape:connector-curvature="0" />
      <path
         id="path1339"
         style="fill:none;stroke:#000000"
         d="m 18.543307,1469.1969 v -45.3544"
         inkscape:connector-curvature="0" />
      <path
         id="path1341"
         style="fill:none;stroke:#000000"
         d="m 19.763476,1421.0614 a 3.779528,3.779528 0 0 0 -1.220169,2.7811"
         inkscape:connector-curvature="0" />
      <path
         id="path1343"
         style="fill:none;stroke:#000000"
         d="m 19.763476,1421.0614 v -6.2001"
         inkscape:connector-curvature="0" />
      <path
         id="path1345"
         style="fill:none;stroke:#000000"
         d="m 19.763476,1414.8391 0.248846,-66.5761"
         inkscape:connector-curvature="0" />
      <path
         id="path1347"
         style="fill:none;stroke:#000000"
         d="m 20.012322,1348.263 0.0052,-5.8544"
         inkscape:connector-curvature="0" />
      <path
         id="path1349"
         style="fill:none;stroke:#000000"
         d="m 23.797068,1338.6324 a 3.779528,3.779528 0 0 0 -3.779526,3.7762"
         inkscape:connector-curvature="0" />
      <path
         id="path1351"
         style="fill:none;stroke:#000000"
         d="M 23.797068,1338.6324 H 51.066507"
         inkscape:connector-curvature="0" />
      <path
         id="path1353"
         style="fill:none;stroke:#000000"
         d="m 54.846035,1342.412 a 3.779528,3.779528 0 0 0 -3.779528,-3.7796"
         inkscape:connector-curvature="0" />
      <path
         id="path1355"
         style="fill:none;stroke:#000000"
         d="m 54.846035,1342.412 v 3.8003"
         inkscape:connector-curvature="0" />
      <path
         id="path1357"
         style="fill:none;stroke:#000000"
         d="m 54.846035,1346.2123 a 1.889764,1.889764 0 0 0 1.889763,1.8898"
         inkscape:connector-curvature="0" />
      <path
         id="path1359"
         style="fill:none;stroke:#000000"
         d="m 56.735798,1348.1021 h 0.85617"
         inkscape:connector-curvature="0" />
      <path
         id="path1361"
         style="fill:none;stroke:#000000"
         d="m 58.322835,1348.063 a 6.851031,6.851031 0 0 0 -0.730867,0.039"
         inkscape:connector-curvature="0" />
      <path
         id="path1363"
         style="fill:none;stroke:#000000"
         d="M 58.322835,1348.063 H 103.67717"
         inkscape:connector-curvature="0" />
      <path
         id="path1365"
         style="fill:none;stroke:#000000"
         d="m 104.40803,1348.1021 a 6.851031,6.851031 0 0 0 -0.73086,-0.039"
         inkscape:connector-curvature="0" />
      <path
         id="path1367"
         style="fill:none;stroke:#000000"
         d="m 104.40803,1348.1021 h 0.85617"
         inkscape:connector-curvature="0" />
      <path
         id="path1369"
         style="fill:none;stroke:#000000"
         d="m 105.2642,1348.1021 a 1.889764,1.889764 0 0 0 1.88977,-1.8898"
         inkscape:connector-curvature="0" />
      <path
         id="path1371"
         style="fill:none;stroke:#000000"
         d="m 107.15397,1346.2123 v -3.8003"
         inkscape:connector-curvature="0" />
      <path
         id="path1373"
         style="fill:none;stroke:#000000"
         d="m 110.93349,1338.6324 a 3.779528,3.779528 0 0 0 -3.77952,3.7796"
         inkscape:connector-curvature="0" />
      <path
         id="path1375"
         style="fill:none;stroke:#000000"
         d="m 110.93349,1338.6324 h 27.26944"
         inkscape:connector-curvature="0" />
      <path
         id="path1377"
         style="fill:none;stroke:#000000"
         d="m 141.98246,1342.4086 a 3.779528,3.779528 0 0 0 -3.77953,-3.7762"
         inkscape:connector-curvature="0" />
      <path
         id="path1379"
         style="fill:none;stroke:#000000"
         d="m 141.98246,1342.4086 0.005,5.8544"
         inkscape:connector-curvature="0" />
      <path
         id="path1381"
         style="fill:none;stroke:#000000"
         d="m 141.98768,1348.263 0.24884,66.5761"
         inkscape:connector-curvature="0" />
      <path
         id="path1383"
         style="fill:none;stroke:#000000"
         d="m 142.1121,1415.8151 a 3.779528,3.779528 0 0 0 0.12442,-0.976"
         inkscape:connector-curvature="0" />
      <path
         id="path1385"
         style="fill:none;stroke:#000000"
         d="m 142.1121,1415.8151 v 4.2479"
         inkscape:connector-curvature="0" />
      <path
         id="path1387"
         style="fill:none;stroke:#000000"
         d="m 142.1121,1420.063 h 24.56506"
         inkscape:connector-curvature="0" />
      <path
         id="path1389"
         style="fill:none;stroke:#000000"
         d="m 170.45669,1423.8425 a 3.779528,3.779528 0 0 0 -3.77953,-3.7795"
         inkscape:connector-curvature="0" />
      <path
         id="path1391"
         style="fill:none;stroke:#000000"
         d="m 170.45669,1423.8425 v 45.3544"
         inkscape:connector-curvature="0" />
      <path
         id="path1393"
         style="fill:none;stroke:#000000"
         d="m 166.67716,1472.9764 a 3.779528,3.779528 0 0 0 3.77953,-3.7795"
         inkscape:connector-curvature="0" />
      <path
         id="path1395"
         style="fill:none;stroke:#000000"
         d="M 166.67716,1472.9764 H 103.32283"
         inkscape:connector-curvature="0" />
      <path
         id="path1397"
         style="fill:none;stroke:#000000"
         d="m 99.543307,1469.1969 a 3.779528,3.779528 0 0 0 3.779523,3.7795"
         inkscape:connector-curvature="0" />
      <path
         id="path1399"
         style="fill:none;stroke:#000000"
         d="M 99.543307,1469.1969 V 1427.622"
         inkscape:connector-curvature="0" />
      <path
         id="path1401"
         style="fill:none;stroke:#000000"
         d="m 99.543307,1427.622 a 3.779528,3.779528 0 0 0 -3.779527,-3.7795"
         inkscape:connector-curvature="0" />
      <path
         id="path1403"
         style="fill:none;stroke:#000000"
         d="M 95.76378,1423.8425 H 84.23622"
         inkscape:connector-curvature="0" />
      <path
         id="path1405"
         style="fill:none;stroke:#000000"
         d="m 1056.2301,1202.6476 a 3.779528,3.779528 0 0 0 -3.7734,3.7796"
         inkscape:connector-curvature="0" />
      <path
         id="path1407"
         style="fill:none;stroke:#000000"
         d="m 1052.4567,1206.4272 v 46.7697"
         inkscape:connector-curvature="0" />
      <path
         id="path1409"
         style="fill:none;stroke:#000000"
         d="m 1048.6772,1256.9764 a 3.779528,3.779528 0 0 0 3.7795,-3.7795"
         inkscape:connector-curvature="0" />
      <path
         id="path1411"
         style="fill:none;stroke:#000000"
         d="m 1048.6772,1256.9764 h -45.3544"
         inkscape:connector-curvature="0" />
      <path
         id="path1413"
         style="fill:none;stroke:#000000"
         d="m 999.54331,1253.1969 a 3.779528,3.779528 0 0 0 3.77949,3.7795"
         inkscape:connector-curvature="0" />
      <path
         id="path1415"
         style="fill:none;stroke:#000000"
         d="M 999.54331,1253.1969 V 1211.622"
         inkscape:connector-curvature="0" />
      <path
         id="path1417"
         style="fill:none;stroke:#000000"
         d="m 999.54331,1211.622 a 3.779528,3.779528 0 0 0 -3.77953,-3.7795"
         inkscape:connector-curvature="0" />
      <path
         id="path1419"
         style="fill:none;stroke:#000000"
         d="M 995.76378,1207.8425 H 966.23622"
         inkscape:connector-curvature="0" />
      <path
         id="path1421"
         style="fill:none;stroke:#000000"
         d="m 966.23622,1207.8425 a 3.779528,3.779528 0 0 0 -3.77953,3.7795"
         inkscape:connector-curvature="0" />
      <path
         id="path1423"
         style="fill:none;stroke:#000000"
         d="m 962.45669,1211.622 v 41.5749"
         inkscape:connector-curvature="0" />
      <path
         id="path1425"
         style="fill:none;stroke:#000000"
         d="m 958.67716,1256.9764 a 3.779528,3.779528 0 0 0 3.77953,-3.7795"
         inkscape:connector-curvature="0" />
      <path
         id="path1427"
         style="fill:none;stroke:#000000"
         d="M 958.67716,1256.9764 H 913.32284"
         inkscape:connector-curvature="0" />
      <path
         id="path1429"
         style="fill:none;stroke:#000000"
         d="m 909.54331,1253.1969 a 3.779528,3.779528 0 0 0 3.77953,3.7795"
         inkscape:connector-curvature="0" />
      <path
         id="path1431"
         style="fill:none;stroke:#000000"
         d="m 909.54331,1253.1969 v -45.3544"
         inkscape:connector-curvature="0" />
      <path
         id="path1433"
         style="fill:none;stroke:#000000"
         d="m 913.32284,1204.063 a 3.779528,3.779528 0 0 0 -3.77953,3.7795"
         inkscape:connector-curvature="0" />
      <path
         id="path1435"
         style="fill:none;stroke:#000000"
         d="m 913.32284,1204.063 h 33.44061"
         inkscape:connector-curvature="0" />
      <path
         id="path1437"
         style="fill:none;stroke:#000000"
         d="m 946.76345,1204.063 v -5.2098"
         inkscape:connector-curvature="0" />
      <path
         id="path1439"
         style="fill:none;stroke:#000000"
         d="m 946.76348,1198.8391 0.0554,-14.8112"
         inkscape:connector-curvature="0" />
      <path
         id="path1441"
         style="fill:none;stroke:#000000"
         d="m 945.54331,1181.1969 a 3.779528,3.779528 0 0 0 1.27553,2.831"
         inkscape:connector-curvature="0" />
      <path
         id="path1443"
         style="fill:none;stroke:#000000"
         d="m 945.54331,1181.1969 v -45.3544"
         inkscape:connector-curvature="0" />
      <path
         id="path1445"
         style="fill:none;stroke:#000000"
         d="m 947.01012,1132.8532 a 3.779528,3.779528 0 0 0 -1.46681,2.9893"
         inkscape:connector-curvature="0" />
      <path
         id="path1447"
         style="fill:none;stroke:#000000"
         d="m 947.01012,1132.8532 0.002,-0.5902"
         inkscape:connector-curvature="0" />
      <path
         id="path1449"
         style="fill:none;stroke:#000000"
         d="m 947.01232,1132.263 0.005,-5.8544"
         inkscape:connector-curvature="0" />
      <path
         id="path1451"
         style="fill:none;stroke:#000000"
         d="m 950.79707,1122.6324 a 3.779528,3.779528 0 0 0 -3.77953,3.7762"
         inkscape:connector-curvature="0" />
      <path
         id="path1453"
         style="fill:none;stroke:#000000"
         d="m 950.79707,1122.6324 h 27.26944"
         inkscape:connector-curvature="0" />
      <path
         id="path1455"
         style="fill:none;stroke:#000000"
         d="m 981.84604,1126.412 a 3.779528,3.779528 0 0 0 -3.77953,-3.7796"
         inkscape:connector-curvature="0" />
      <path
         id="path1457"
         style="fill:none;stroke:#000000"
         d="m 981.84604,1126.412 v 3.8003"
         inkscape:connector-curvature="0" />
      <path
         id="path1459"
         style="fill:none;stroke:#000000"
         d="m 981.84604,1130.2123 a 1.889764,1.889764 0 0 0 1.50735,1.8507"
         inkscape:connector-curvature="0" />
      <path
         id="path1461"
         style="fill:none;stroke:#000000"
         d="m 983.35339,1132.063 h 49.29321"
         inkscape:connector-curvature="0" />
      <path
         id="path1463"
         style="fill:none;stroke:#000000"
         d="m 1032.6466,1132.063 a 1.889764,1.889764 0 0 0 1.5074,-1.8507"
         inkscape:connector-curvature="0" />
      <path
         id="path1465"
         style="fill:none;stroke:#000000"
         d="m 1034.154,1130.2123 v -3.8003"
         inkscape:connector-curvature="0" />
      <path
         id="path1467"
         style="fill:none;stroke:#000000"
         d="m 1037.9335,1122.6324 a 3.779528,3.779528 0 0 0 -3.7795,3.7796"
         inkscape:connector-curvature="0" />
      <path
         id="path1469"
         style="fill:none;stroke:#000000"
         d="m 1037.9335,1122.6324 h 27.2694"
         inkscape:connector-curvature="0" />
      <path
         id="path1471"
         style="fill:none;stroke:#000000"
         d="m 1068.9825,1126.4086 a 3.779528,3.779528 0 0 0 -3.7796,-3.7762"
         inkscape:connector-curvature="0" />
      <path
         id="path1473"
         style="fill:none;stroke:#000000"
         d="m 1068.9825,1126.4086 0.01,5.8544"
         inkscape:connector-curvature="0" />
      <path
         id="path1475"
         style="fill:none;stroke:#000000"
         d="m 1068.9877,1132.263 v 0.5902"
         inkscape:connector-curvature="0" />
      <path
         id="path1477"
         style="fill:none;stroke:#000000"
         d="m 1070.4567,1135.8425 a 3.779528,3.779528 0 0 0 -1.4668,-2.9893"
         inkscape:connector-curvature="0" />
      <path
         id="path1479"
         style="fill:none;stroke:#000000"
         d="m 1070.4567,1135.8425 v 45.3544"
         inkscape:connector-curvature="0" />
      <path
         id="path1481"
         style="fill:none;stroke:#000000"
         d="m 1069.1812,1184.0279 a 3.779528,3.779528 0 0 0 1.2755,-2.831"
         inkscape:connector-curvature="0" />
      <path
         id="path1483"
         style="fill:none;stroke:#000000"
         d="m 1069.1812,1184.0279 0.055,14.8112"
         inkscape:connector-curvature="0" />
      <path
         id="path1485"
         style="fill:none;stroke:#000000"
         d="m 1065.4631,1202.6327 a 3.779528,3.779528 0 0 0 3.7734,-3.7936"
         inkscape:connector-curvature="0" />
      <path
         id="path1487"
         style="fill:none;stroke:#000000"
         d="m 1065.4631,1202.6327 -9.233,0.015"
         inkscape:connector-curvature="0" />
      <path
         id="path1489"
         style="fill:none;stroke:#000000"
         d="m 1386.8976,1400.9764 a 3.779528,3.779528 0 0 1 3.7796,3.7795 v 11.5276 a 3.779528,3.779528 0 0 1 -3.7796,3.7795 h -41.5748 a 3.779528,3.779528 0 0 0 -3.7795,3.7795 v 45.3544 a 3.779528,3.779528 0 0 0 3.7795,3.7795 h 45.3544 a 3.779528,3.779528 0 0 0 2.6725,-1.107 l 6.3309,-0.1132 14.8112,-0.055 a 3.779528,3.779528 0 0 0 2.831,1.2756 h 45.3544 a 3.779528,3.779528 0 0 0 2.9893,-1.4668 h 0.5902 l 5.8544,-0.01 a 3.779528,3.779528 0 0 0 3.7761,-3.7795 v -27.2694 a 3.779528,3.779528 0 0 0 -3.7795,-3.7795 h -3.8003 a 1.889764,1.889764 0 0 1 -1.8507,-1.5074 v -49.2932 a 1.889764,1.889764 0 0 1 1.8507,-1.5074 h 3.8003 a 3.779528,3.779528 0 0 0 3.7795,-3.7795 v -27.2694 a 3.779528,3.779528 0 0 0 -3.7761,-3.7796 l -5.8544,-0.01 h -0.5902 a 3.779528,3.779528 0 0 0 -2.9893,-1.4668 h -45.3544 a 3.779528,3.779528 0 0 0 -2.831,1.2755 l -14.8112,-0.055 -6.3309,-0.1132 a 3.779528,3.779528 0 0 0 -2.6725,-1.107 h -45.3544 a 3.779528,3.779528 0 0 0 -3.7795,3.7795 v 45.3544 a 3.779528,3.779528 0 0 0 3.7795,3.7795 z"
         inkscape:connector-curvature="0" />
    </g>
  </g>
</svg>
