<?xml version="1.0" encoding="UTF-8" standalone="no"?>
<!-- Created with Inkscape (http://www.inkscape.org/) -->

<svg
   xmlns:dc="http://purl.org/dc/elements/1.1/"
   xmlns:cc="http://creativecommons.org/ns#"
   xmlns:rdf="http://www.w3.org/1999/02/22-rdf-syntax-ns#"
   xmlns:svg="http://www.w3.org/2000/svg"
   xmlns="http://www.w3.org/2000/svg"
   xmlns:sodipodi="http://sodipodi.sourceforge.net/DTD/sodipodi-0.dtd"
   xmlns:inkscape="http://www.inkscape.org/namespaces/inkscape"
   width="450mm"
   height="210mm"
   viewBox="0 0 450 210"
   version="1.1"
   id="svg8"
   inkscape:version="0.92.4 (5da689c313, 2019-01-14)"
   sodipodi:docname="L4_plate.svg">
  <defs
     id="defs2">
    <marker
       style="overflow:visible"
       refY="0"
       refX="0"
       orient="auto"
       id="DistanceX">
      <path
         id="path817"
         style="stroke:#000000;stroke-width:0.5"
         d="M 3,-3 -3,3 M 0,-5 V 5"
         inkscape:connector-curvature="0" />
    </marker>
    <pattern
       y="0"
       x="0"
       width="8"
       patternUnits="userSpaceOnUse"
       id="Hatch"
       height="8">
      <path
         id="path820"
         stroke-width="0.25"
         stroke="#000000"
         linecap="square"
         d="M8 4 l-4,4" />
      <path
         id="path822"
         stroke-width="0.25"
         stroke="#000000"
         linecap="square"
         d="M6 2 l-4,4" />
      <path
         id="path824"
         stroke-width="0.25"
         stroke="#000000"
         linecap="square"
         d="M4 0 l-4,4" />
    </pattern>
    <symbol
       id="*MODEL_SPACE" />
    <symbol
       id="*PAPER_SPACE" />
    <marker
       style="overflow:visible"
       refY="0"
       refX="0"
       orient="auto"
       id="DistanceX-0">
      <path
         id="path901"
         style="stroke:#000000;stroke-width:0.5"
         d="M 3,-3 -3,3 M 0,-5 V 5"
         inkscape:connector-curvature="0" />
    </marker>
    <pattern
       y="0"
       x="0"
       width="8"
       patternUnits="userSpaceOnUse"
       id="Hatch-2"
       height="8">
      <path
         id="path904"
         stroke-width="0.25"
         stroke="#000000"
         linecap="square"
         d="M8 4 l-4,4" />
      <path
         id="path906"
         stroke-width="0.25"
         stroke="#000000"
         linecap="square"
         d="M6 2 l-4,4" />
      <path
         id="path908"
         stroke-width="0.25"
         stroke="#000000"
         linecap="square"
         d="M4 0 l-4,4" />
    </pattern>
    <symbol
       id="*MODEL_SPACE-2" />
    <symbol
       id="*PAPER_SPACE-0" />
    <marker
       style="overflow:visible"
       refY="0"
       refX="0"
       orient="auto"
       id="DistanceX-00">
      <path
         id="path991"
         style="stroke:#000000;stroke-width:0.5"
         d="M 3,-3 -3,3 M 0,-5 V 5"
         inkscape:connector-curvature="0" />
    </marker>
    <pattern
       y="0"
       x="0"
       width="8"
       patternUnits="userSpaceOnUse"
       id="Hatch-23"
       height="8">
      <path
         id="path994"
         stroke-width="0.25"
         stroke="#000000"
         linecap="square"
         d="M8 4 l-4,4" />
      <path
         id="path996"
         stroke-width="0.25"
         stroke="#000000"
         linecap="square"
         d="M6 2 l-4,4" />
      <path
         id="path998"
         stroke-width="0.25"
         stroke="#000000"
         linecap="square"
         d="M4 0 l-4,4" />
    </pattern>
    <symbol
       id="*MODEL_SPACE-9" />
    <symbol
       id="*PAPER_SPACE-3" />
    <marker
       style="overflow:visible"
       refY="0"
       refX="0"
       orient="auto"
       id="DistanceX-1">
      <path
         id="path1087"
         style="stroke:#000000;stroke-width:0.5"
         d="M 3,-3 -3,3 M 0,-5 V 5"
         inkscape:connector-curvature="0" />
    </marker>
    <pattern
       y="0"
       x="0"
       width="8"
       patternUnits="userSpaceOnUse"
       id="Hatch-1"
       height="8">
      <path
         id="path1090"
         stroke-width="0.25"
         stroke="#000000"
         linecap="square"
         d="M8 4 l-4,4" />
      <path
         id="path1092"
         stroke-width="0.25"
         stroke="#000000"
         linecap="square"
         d="M6 2 l-4,4" />
      <path
         id="path1094"
         stroke-width="0.25"
         stroke="#000000"
         linecap="square"
         d="M4 0 l-4,4" />
    </pattern>
    <symbol
       id="*MODEL_SPACE-6" />
    <symbol
       id="*PAPER_SPACE-4" />
    <marker
       style="overflow:visible"
       refY="0.0"
       refX="0.0"
       orient="auto"
       id="DistanceX-7">
      <path
         id="path3038"
         style="stroke:#000000; stroke-width:0.5"
         d="M 3,-3 L -3,3 M 0,-5 L  0,5" />
    </marker>
    <pattern
       y="0"
       x="0"
       width="8"
       patternUnits="userSpaceOnUse"
       id="Hatch-9"
       height="8">
      <path
         id="path3041"
         stroke-width="0.25"
         stroke="#000000"
         linecap="square"
         d="M8 4 l-4,4" />
      <path
         id="path3043"
         stroke-width="0.25"
         stroke="#000000"
         linecap="square"
         d="M6 2 l-4,4" />
      <path
         id="path3045"
         stroke-width="0.25"
         stroke="#000000"
         linecap="square"
         d="M4 0 l-4,4" />
    </pattern>
    <symbol
       id="*MODEL_SPACE-4" />
    <symbol
       id="*PAPER_SPACE-31" />
  </defs>
  <sodipodi:namedview
     id="base"
     pagecolor="#ffffff"
     bordercolor="#666666"
     borderopacity="1.0"
     inkscape:pageopacity="0.0"
     inkscape:pageshadow="2"
     inkscape:zoom="0.49497475"
     inkscape:cx="930.36473"
     inkscape:cy="834.73596"
     inkscape:document-units="mm"
     inkscape:current-layer="layer1"
     showgrid="false"
     inkscape:window-width="2560"
     inkscape:window-height="1377"
     inkscape:window-x="-8"
     inkscape:window-y="-8"
     inkscape:window-maximized="1" />
  <metadata
     id="metadata5">
    <rdf:RDF>
      <cc:Work
         rdf:about="">
        <dc:format>image/svg+xml</dc:format>
        <dc:type
           rdf:resource="http://purl.org/dc/dcmitype/StillImage" />
        <dc:title />
      </cc:Work>
    </rdf:RDF>
  </metadata>
  <g
     inkscape:label="Layer 1"
     inkscape:groupmode="layer"
     id="layer1"
     transform="translate(0,-87)">
    <g
       id="g3442"
       inkscape:label="0"
       transform="matrix(0.26458333,0,0,0.26458333,29.737504,-155.00625)">
      <path
         id="path3052"
         style="fill:none;stroke:#000000"
         d="m 1103.7638,1256.9764 h 60.4724 v -45.3544 h -3.7795 v -3.7795 a 3.779528,3.779528 0 0 0 -3.7795,-3.7795 h -45.3544 a 3.779528,3.779528 0 0 0 -3.7795,3.7795 v 3.7795 h -3.7795 z"
         inkscape:connector-curvature="0" />
      <path
         id="path3054"
         style="fill:none;stroke:#000000"
         d="m 1507.1339,1523.1969 a 8.50395,8.50395 0 1 0 -17.0079,0 8.50395,8.50395 0 1 0 17.0079,0 z"
         inkscape:connector-curvature="0" />
      <path
         id="path3056"
         style="fill:none;stroke:#000000"
         d="m 492.96063,1099.8898 a 8.503937,8.503937 0 1 0 -17.00787,0 8.503937,8.503937 0 1 0 17.00787,0 z"
         inkscape:connector-curvature="0" />
      <path
         id="path3058"
         style="fill:none;stroke:#000000"
         d="m -14.125984,1523.1969 a 8.503937,8.503937 0 1 0 -17.007874,0 8.503937,8.503937 0 1 0 17.007874,0 z"
         inkscape:connector-curvature="0" />
      <path
         id="path3060"
         style="fill:none;stroke:#000000"
         d="m 1000.0472,1099.8898 a 8.503937,8.503937 0 1 0 -17.00783,0 8.503937,8.503937 0 1 0 17.00783,0 z"
         inkscape:connector-curvature="0" />
      <path
         id="path3062"
         style="fill:none;stroke:#000000"
         d="m 1000.0472,1523.1969 a 8.503937,8.503937 0 1 0 -17.00783,0 8.503937,8.503937 0 1 0 17.00783,0 z"
         inkscape:connector-curvature="0" />
      <path
         id="path3064"
         style="fill:none;stroke:#000000"
         d="m 1507.1339,1311.5433 a 8.50395,8.50395 0 1 0 -17.0079,0 8.50395,8.50395 0 1 0 17.0079,0 z"
         inkscape:connector-curvature="0" />
      <path
         id="path3066"
         style="fill:none;stroke:#000000"
         d="m -14.125984,1099.8898 a 8.503937,8.503937 0 1 0 -17.007874,0 8.503937,8.503937 0 1 0 17.007874,0 z"
         inkscape:connector-curvature="0" />
      <path
         id="path3068"
         style="fill:none;stroke:#000000"
         d="m -14.125984,1311.5433 a 8.503937,8.503937 0 1 0 -17.007874,0 8.503937,8.503937 0 1 0 17.007874,0 z"
         inkscape:connector-curvature="0" />
      <path
         id="path3070"
         style="fill:none;stroke:#000000"
         d="m 1507.1339,1099.8898 a 8.50395,8.50395 0 1 0 -17.0079,0 8.50395,8.50395 0 1 0 17.0079,0 z"
         inkscape:connector-curvature="0" />
      <path
         id="path3072"
         style="fill:none;stroke:#000000"
         d="m 492.96063,1523.1969 a 8.503937,8.503937 0 1 0 -17.00787,0 8.503937,8.503937 0 1 0 17.00787,0 z"
         inkscape:connector-curvature="0" />
      <path
         id="path3074"
         style="fill:none;stroke:#000000"
         d="m 1386.8976,1276.063 a 3.779528,3.779528 0 0 0 3.7796,-3.7795"
         inkscape:connector-curvature="0" />
      <path
         id="path3076"
         style="fill:none;stroke:#000000"
         d="m 1390.6772,1272.2835 v -11.5276"
         inkscape:connector-curvature="0" />
      <path
         id="path3078"
         style="fill:none;stroke:#000000"
         d="m 1390.6772,1260.7559 a 3.779528,3.779528 0 0 0 -3.7796,-3.7795"
         inkscape:connector-curvature="0" />
      <path
         id="path3080"
         style="fill:none;stroke:#000000"
         d="m 1386.8976,1256.9764 h -41.5748"
         inkscape:connector-curvature="0" />
      <path
         id="path3082"
         style="fill:none;stroke:#000000"
         d="m 1341.5433,1253.1969 a 3.779528,3.779528 0 0 0 3.7795,3.7795"
         inkscape:connector-curvature="0" />
      <path
         id="path3084"
         style="fill:none;stroke:#000000"
         d="m 1341.5433,1253.1969 v -45.3544"
         inkscape:connector-curvature="0" />
      <path
         id="path3086"
         style="fill:none;stroke:#000000"
         d="m 1345.3228,1204.063 a 3.779528,3.779528 0 0 0 -3.7795,3.7795"
         inkscape:connector-curvature="0" />
      <path
         id="path3088"
         style="fill:none;stroke:#000000"
         d="m 1345.3228,1204.063 h 45.3544"
         inkscape:connector-curvature="0" />
      <path
         id="path3090"
         style="fill:none;stroke:#000000"
         d="m 1393.4583,1205.2832 a 3.779528,3.779528 0 0 0 -2.7811,-1.2202"
         inkscape:connector-curvature="0" />
      <path
         id="path3092"
         style="fill:none;stroke:#000000"
         d="m 1393.4583,1205.2832 h 6.2001"
         inkscape:connector-curvature="0" />
      <path
         id="path3094"
         style="fill:none;stroke:#000000"
         d="m 1399.6806,1205.2832 14.8112,0.055"
         inkscape:connector-curvature="0" />
      <path
         id="path3096"
         style="fill:none;stroke:#000000"
         d="m 1417.3228,1204.063 a 3.779528,3.779528 0 0 0 -2.831,1.2755"
         inkscape:connector-curvature="0" />
      <path
         id="path3098"
         style="fill:none;stroke:#000000"
         d="m 1417.3228,1204.063 h 45.3544"
         inkscape:connector-curvature="0" />
      <path
         id="path3100"
         style="fill:none;stroke:#000000"
         d="m 1465.6665,1205.5298 a 3.779528,3.779528 0 0 0 -2.9893,-1.4668"
         inkscape:connector-curvature="0" />
      <path
         id="path3102"
         style="fill:none;stroke:#000000"
         d="m 1465.6665,1205.5298 h 0.5902"
         inkscape:connector-curvature="0" />
      <path
         id="path3104"
         style="fill:none;stroke:#000000"
         d="m 1466.2567,1205.532 5.8544,0.01"
         inkscape:connector-curvature="0" />
      <path
         id="path3106"
         style="fill:none;stroke:#000000"
         d="m 1475.8872,1209.3168 a 3.779528,3.779528 0 0 0 -3.7761,-3.7796"
         inkscape:connector-curvature="0" />
      <path
         id="path3108"
         style="fill:none;stroke:#000000"
         d="m 1475.8872,1209.3168 v 27.2694"
         inkscape:connector-curvature="0" />
      <path
         id="path3110"
         style="fill:none;stroke:#000000"
         d="m 1472.1077,1240.3657 a 3.779528,3.779528 0 0 0 3.7795,-3.7795"
         inkscape:connector-curvature="0" />
      <path
         id="path3112"
         style="fill:none;stroke:#000000"
         d="m 1472.1077,1240.3657 h -3.8003"
         inkscape:connector-curvature="0" />
      <path
         id="path3114"
         style="fill:none;stroke:#000000"
         d="m 1468.3074,1240.3657 a 1.889764,1.889764 0 0 0 -1.8507,1.5074"
         inkscape:connector-curvature="0" />
      <path
         id="path3116"
         style="fill:none;stroke:#000000"
         d="m 1466.4567,1241.8731 v 49.2932"
         inkscape:connector-curvature="0" />
      <path
         id="path3118"
         style="fill:none;stroke:#000000"
         d="m 1466.4567,1291.1663 a 1.889764,1.889764 0 0 0 1.8507,1.5074"
         inkscape:connector-curvature="0" />
      <path
         id="path3120"
         style="fill:none;stroke:#000000"
         d="m 1468.3074,1292.6737 h 3.8003"
         inkscape:connector-curvature="0" />
      <path
         id="path3122"
         style="fill:none;stroke:#000000"
         d="m 1475.8872,1296.4532 a 3.779528,3.779528 0 0 0 -3.7795,-3.7795"
         inkscape:connector-curvature="0" />
      <path
         id="path3124"
         style="fill:none;stroke:#000000"
         d="m 1475.8872,1296.4532 v 27.2694"
         inkscape:connector-curvature="0" />
      <path
         id="path3126"
         style="fill:none;stroke:#000000"
         d="m 1472.1111,1327.5021 a 3.779528,3.779528 0 0 0 3.7761,-3.7795"
         inkscape:connector-curvature="0" />
      <path
         id="path3128"
         style="fill:none;stroke:#000000"
         d="m 1472.1111,1327.5021 -5.8544,0.01"
         inkscape:connector-curvature="0" />
      <path
         id="path3130"
         style="fill:none;stroke:#000000"
         d="m 1466.2567,1327.5074 h -0.5902"
         inkscape:connector-curvature="0" />
      <path
         id="path3132"
         style="fill:none;stroke:#000000"
         d="m 1462.6772,1328.9764 a 3.779528,3.779528 0 0 0 2.9893,-1.4668"
         inkscape:connector-curvature="0" />
      <path
         id="path3134"
         style="fill:none;stroke:#000000"
         d="M 1462.6772,1328.9764 H 1345.3228"
         inkscape:connector-curvature="0" />
      <path
         id="path3136"
         style="fill:none;stroke:#000000"
         d="m 1341.5433,1325.1969 a 3.779528,3.779528 0 0 0 3.7795,3.7795"
         inkscape:connector-curvature="0" />
      <path
         id="path3138"
         style="fill:none;stroke:#000000"
         d="m 1341.5433,1325.1969 v -45.3544"
         inkscape:connector-curvature="0" />
      <path
         id="path3140"
         style="fill:none;stroke:#000000"
         d="m 1345.3228,1276.063 a 3.779528,3.779528 0 0 0 -3.7795,3.7795"
         inkscape:connector-curvature="0" />
      <path
         id="path3142"
         style="fill:none;stroke:#000000"
         d="m 1345.3228,1276.063 h 41.5748"
         inkscape:connector-curvature="0" />
      <path
         id="path3144"
         style="fill:none;stroke:#000000"
         d="m 1064.0215,1348.063 a 3.779528,3.779528 0 0 1 -3.7795,-3.7654 l -0.2543,-68.0346 -0.01,-5.8544 a 3.779528,3.779528 0 0 0 -3.7796,-3.7762 h -27.2694 a 3.779528,3.779528 0 0 0 -3.7795,3.7796 v 3.8003 a 1.889764,1.889764 0 0 1 -1.8898,1.8898 h -0.8562 a 6.851031,6.851031 0 0 0 -0.7308,-0.039 h -45.35436 a 6.851031,6.851031 0 0 0 -0.73087,0.039 H 974.731 a 1.889764,1.889764 0 0 1 -1.88976,-1.8898 v -3.8003 a 3.779528,3.779528 0 0 0 -3.77953,-3.7796 h -27.26944 a 3.779528,3.779528 0 0 0 -3.77953,3.7762 l -0.005,5.8544 -0.21905,58.604 a 3.779528,3.779528 0 0 1 -3.7795,3.7654 h -10.2167 a 3.779528,3.779528 0 0 0 -3.77953,3.7762 l -0.005,5.8544 -0.002,0.5902 a 3.779528,3.779528 0 0 0 -1.46681,2.9893 v 45.3544 a 3.779528,3.779528 0 0 0 1.27553,2.831 l -0.0554,14.8112 a 3.779528,3.779528 0 0 0 3.77338,3.7936 h 1.97377 a 3.779528,3.779528 0 0 1 2.03268,3.3516 v 47.2094 a 3.779528,3.779528 0 0 0 3.77953,3.7795 h 45.35432 a 3.779528,3.779528 0 0 0 3.77953,-3.7795 v -46.7443 a 3.779528,3.779528 0 0 1 3.77953,-3.7795 h 29.28648 l 24.9404,-0.04 a 3.779528,3.779528 0 0 0 3.7734,-3.7936 l -0.038,-10.0691 a 3.779528,3.779528 0 0 1 3.7795,-3.7936 h 20.6988 a 3.779528,3.779528 0 0 0 3.7795,-3.7795 v -45.3544 a 3.779528,3.779528 0 0 0 -3.7795,-3.7795 z"
         inkscape:connector-curvature="0" />
      <path
         id="path3146"
         style="fill:none;stroke:#000000"
         d="m -18.897638,1557.2126 a 37.795276,37.795276 0 0 1 -37.795275,-37.7953 V 1103.622 a 37.795276,37.795276 0 0 1 37.795275,-37.7952 H 1494.8976 a 37.795276,37.795276 0 0 1 37.7953,37.7952 v 415.7953 a 37.795276,37.795276 0 0 1 -37.7953,37.7953 z"
         inkscape:connector-curvature="0" />
      <path
         id="path3148"
         style="fill:none;stroke:#000000"
         d="m 783.54331,1279.8425 v 45.3544 a 3.779528,3.779528 0 0 0 3.77953,3.7795 h 45.35432 a 3.779528,3.779528 0 0 0 3.77953,-3.7795 v -45.3544 a 3.779528,3.779528 0 0 0 -3.77953,-3.7795 h -45.35432 a 3.779528,3.779528 0 0 0 -3.77953,3.7795 z"
         inkscape:connector-curvature="0" />
      <path
         id="path3150"
         style="fill:none;stroke:#000000"
         d="m 603.54331,1351.8425 a 3.779528,3.779528 0 0 1 3.77953,-3.7795 h 45.35432 a 3.779528,3.779528 0 0 1 3.77953,3.7795 v 45.3544 a 3.779528,3.779528 0 0 1 -3.77953,3.7795 h -45.35432 a 3.779528,3.779528 0 0 1 -3.77953,-3.7795 z"
         inkscape:connector-curvature="0" />
      <path
         id="path3152"
         style="fill:none;stroke:#000000"
         d="m 1103.7638,1184.9764 h 60.4724 v -45.3544 h -3.7795 v -3.7795 a 3.779528,3.779528 0 0 0 -3.7795,-3.7795 h -45.3544 a 3.779528,3.779528 0 0 0 -3.7795,3.7795 v 3.7795 h -3.7795 z"
         inkscape:connector-curvature="0" />
      <path
         id="path3154"
         style="fill:none;stroke:#000000"
         d="m 315.54331,1351.8425 a 3.779528,3.779528 0 0 1 3.77952,-3.7795 h 45.35433 a 3.779528,3.779528 0 0 1 3.77953,3.7795 v 45.3544 a 3.779528,3.779528 0 0 1 -3.77953,3.7795 h -45.35433 a 3.779528,3.779528 0 0 1 -3.77952,-3.7795 z"
         inkscape:connector-curvature="0" />
      <path
         id="path3156"
         style="fill:none;stroke:#000000"
         d="m 1107.5433,1369.8425 a 3.779528,3.779528 0 0 1 3.7795,-3.7795 h 45.3544 a 3.779528,3.779528 0 0 1 3.7795,3.7795 v 45.3544 a 3.779528,3.779528 0 0 1 -3.7795,3.7795 h -45.3544 a 3.779528,3.779528 0 0 1 -3.7795,-3.7795 z"
         inkscape:connector-curvature="0" />
      <path
         id="path3158"
         style="fill:none;stroke:#000000"
         d="m 256.67716,1420.063 h -63.35433 a 3.779528,3.779528 0 0 0 -3.77952,3.7795 v 45.3544 a 3.779528,3.779528 0 0 0 3.77952,3.7795 h 63.35433 a 3.779528,3.779528 0 0 0 3.77953,-3.7795 v -45.3544 a 3.779528,3.779528 0 0 0 -3.77953,-3.7795 z"
         inkscape:connector-curvature="0" />
      <path
         id="path3160"
         style="fill:none;stroke:#000000"
         d="m 369.54331,1135.8425 a 3.779528,3.779528 0 0 1 3.77952,-3.7795 h 45.35433 a 3.779528,3.779528 0 0 1 3.77953,3.7795 v 45.3544 a 3.779528,3.779528 0 0 1 -3.77953,3.7795 h -45.35433 a 3.779528,3.779528 0 0 1 -3.77952,-3.7795 z"
         inkscape:connector-curvature="0" />
      <path
         id="path3162"
         style="fill:none;stroke:#000000"
         d="m 1269.5433,1351.8425 v 45.3544 a 3.779528,3.779528 0 0 0 3.7795,3.7795 h 45.3544 a 3.779528,3.779528 0 0 0 3.7795,-3.7795 v -45.3544 a 3.779528,3.779528 0 0 0 -3.7795,-3.7795 h -45.3544 a 3.779528,3.779528 0 0 0 -3.7795,3.7795 z"
         inkscape:connector-curvature="0" />
      <path
         id="path3164"
         style="fill:none;stroke:#000000"
         d="m 585.54331,1135.8425 a 3.779528,3.779528 0 0 1 3.77953,-3.7795 h 45.35432 a 3.779528,3.779528 0 0 1 3.77953,3.7795 v 45.3544 a 3.779528,3.779528 0 0 1 -3.77953,3.7795 h -45.35432 a 3.779528,3.779528 0 0 1 -3.77953,-3.7795 z"
         inkscape:connector-curvature="0" />
      <path
         id="path3166"
         style="fill:none;stroke:#000000"
         d="m 657.54331,1135.8425 a 3.779528,3.779528 0 0 1 3.77953,-3.7795 h 45.35432 a 3.779528,3.779528 0 0 1 3.77953,3.7795 v 45.3544 a 3.779528,3.779528 0 0 1 -3.77953,3.7795 h -45.35432 a 3.779528,3.779528 0 0 1 -3.77953,-3.7795 z"
         inkscape:connector-curvature="0" />
      <path
         id="path3168"
         style="fill:none;stroke:#000000"
         d="m 153.54331,1135.8425 a 3.779528,3.779528 0 0 1 3.77952,-3.7795 h 45.35433 a 3.779528,3.779528 0 0 1 3.77953,3.7795 v 45.3544 a 3.779528,3.779528 0 0 1 -3.77953,3.7795 h -45.35433 a 3.779528,3.779528 0 0 1 -3.77952,-3.7795 z"
         inkscape:connector-curvature="0" />
      <path
         id="path3170"
         style="fill:none;stroke:#000000"
         d="m 297.54331,1135.8425 a 3.779528,3.779528 0 0 1 3.77952,-3.7795 h 45.35433 a 3.779528,3.779528 0 0 1 3.77953,3.7795 v 45.3544 a 3.779528,3.779528 0 0 1 -3.77953,3.7795 h -45.35433 a 3.779528,3.779528 0 0 1 -3.77952,-3.7795 z"
         inkscape:connector-curvature="0" />
      <path
         id="path3172"
         style="fill:none;stroke:#000000"
         d="m 405.54331,1207.8425 a 3.779528,3.779528 0 0 1 3.77952,-3.7795 h 45.35433 a 3.779528,3.779528 0 0 1 3.77953,3.7795 v 45.3544 a 3.779528,3.779528 0 0 1 -3.77953,3.7795 h -45.35433 a 3.779528,3.779528 0 0 1 -3.77952,-3.7795 z"
         inkscape:connector-curvature="0" />
      <path
         id="path3174"
         style="fill:none;stroke:#000000"
         d="m 351.54331,1279.8425 a 3.779528,3.779528 0 0 1 3.77952,-3.7795 h 45.35433 a 3.779528,3.779528 0 0 1 3.77953,3.7795 v 45.3544 a 3.779528,3.779528 0 0 1 -3.77953,3.7795 h -45.35433 a 3.779528,3.779528 0 0 1 -3.77952,-3.7795 z"
         inkscape:connector-curvature="0" />
      <path
         id="path3176"
         style="fill:none;stroke:#000000"
         d="m 36.543307,1279.8425 a 3.779528,3.779528 0 0 1 3.779528,-3.7795 h 45.35433 a 3.779528,3.779528 0 0 1 3.779528,3.7795 v 45.3544 a 3.779528,3.779528 0 0 1 -3.779528,3.7795 h -45.35433 a 3.779528,3.779528 0 0 1 -3.779528,-3.7795 z"
         inkscape:connector-curvature="0" />
      <path
         id="path3178"
         style="fill:none;stroke:#000000"
         d="m 135.54331,1279.8425 v 45.3544 a 3.779528,3.779528 0 0 0 3.77952,3.7795 h 45.35433 a 3.779528,3.779528 0 0 0 3.77953,-3.7795 v -45.3544 a 3.779528,3.779528 0 0 0 -3.77953,-3.7795 h -45.35433 a 3.779528,3.779528 0 0 0 -3.77952,3.7795 z"
         inkscape:connector-curvature="0" />
      <path
         id="path3180"
         style="fill:none;stroke:#000000"
         d="m 693.54331,1207.8425 a 3.779528,3.779528 0 0 1 3.77953,-3.7795 h 45.35432 a 3.779528,3.779528 0 0 1 3.77953,3.7795 v 45.3544 a 3.779528,3.779528 0 0 1 -3.77953,3.7795 h -45.35432 a 3.779528,3.779528 0 0 1 -3.77953,-3.7795 z"
         inkscape:connector-curvature="0" />
      <path
         id="path3182"
         style="fill:none;stroke:#000000"
         d="m 868.67716,1348.063 a 3.779528,3.779528 0 0 1 3.77953,3.7795 v 45.3544 a 3.779528,3.779528 0 0 1 -3.77953,3.7795 h -45.35432 a 3.779528,3.779528 0 0 1 -3.77953,-3.7795 v -45.3544 a 3.779528,3.779528 0 0 1 3.77953,-3.7795 z"
         inkscape:connector-curvature="0" />
      <path
         id="path3184"
         style="fill:none;stroke:#000000"
         d="m 513.54331,1135.8425 a 3.779528,3.779528 0 0 1 3.77953,-3.7795 h 45.35432 a 3.779528,3.779528 0 0 1 3.77953,3.7795 v 45.3544 a 3.779528,3.779528 0 0 1 -3.77953,3.7795 h -45.35432 a 3.779528,3.779528 0 0 1 -3.77953,-3.7795 z"
         inkscape:connector-curvature="0" />
      <path
         id="path3186"
         style="fill:none;stroke:#000000"
         d="m 279.54331,1279.8425 a 3.779528,3.779528 0 0 1 3.77952,-3.7795 h 45.35433 a 3.779528,3.779528 0 0 1 3.77953,3.7795 v 45.3544 a 3.779528,3.779528 0 0 1 -3.77953,3.7795 h -45.35433 a 3.779528,3.779528 0 0 1 -3.77952,-3.7795 z"
         inkscape:connector-curvature="0" />
      <path
         id="path3188"
         style="fill:none;stroke:#000000"
         d="m 189.54331,1207.8425 a 3.779528,3.779528 0 0 1 3.77952,-3.7795 h 45.35433 a 3.779528,3.779528 0 0 1 3.77953,3.7795 v 45.3544 a 3.779528,3.779528 0 0 1 -3.77953,3.7795 h -45.35433 a 3.779528,3.779528 0 0 1 -3.77952,-3.7795 z"
         inkscape:connector-curvature="0" />
      <path
         id="path3190"
         style="fill:none;stroke:#000000"
         d="m 1197.5433,1207.8425 a 3.779528,3.779528 0 0 1 3.7795,-3.7795 h 45.3544 a 3.779528,3.779528 0 0 1 3.7795,3.7795 v 45.3544 a 3.779528,3.779528 0 0 1 -3.7795,3.7795 h -45.3544 a 3.779528,3.779528 0 0 1 -3.7795,-3.7795 z"
         inkscape:connector-curvature="0" />
      <path
         id="path3192"
         style="fill:none;stroke:#000000"
         d="m 27.543307,1207.8425 v 45.3544 a 3.779528,3.779528 0 0 0 3.779528,3.7795 h 45.35433 a 3.779528,3.779528 0 0 0 3.779528,-3.7795 v -45.3544 a 3.779528,3.779528 0 0 0 -3.779528,-3.7795 h -45.35433 a 3.779528,3.779528 0 0 0 -3.779528,3.7795 z"
         inkscape:connector-curvature="0" />
      <path
         id="path3194"
         style="fill:none;stroke:#000000"
         d="m 225.54331,1135.8425 a 3.779528,3.779528 0 0 1 3.77952,-3.7795 h 45.35433 a 3.779528,3.779528 0 0 1 3.77953,3.7795 v 45.3544 a 3.779528,3.779528 0 0 1 -3.77953,3.7795 h -45.35433 a 3.779528,3.779528 0 0 1 -3.77952,-3.7795 z"
         inkscape:connector-curvature="0" />
      <path
         id="path3196"
         style="fill:none;stroke:#000000"
         d="m 765.54331,1207.8425 a 3.779528,3.779528 0 0 1 3.77953,-3.7795 h 45.35432 a 3.779528,3.779528 0 0 1 3.77953,3.7795 v 45.3544 a 3.779528,3.779528 0 0 1 -3.77953,3.7795 h -45.35432 a 3.779528,3.779528 0 0 1 -3.77953,-3.7795 z"
         inkscape:connector-curvature="0" />
      <path
         id="path3198"
         style="fill:none;stroke:#000000"
         d="m 1269.5433,1207.8425 a 3.779528,3.779528 0 0 1 3.7795,-3.7795 h 45.3544 a 3.779528,3.779528 0 0 1 3.7795,3.7795 v 45.3544 a 3.779528,3.779528 0 0 1 -3.7795,3.7795 h -45.3544 a 3.779528,3.779528 0 0 1 -3.7795,-3.7795 z"
         inkscape:connector-curvature="0" />
      <path
         id="path3200"
         style="fill:none;stroke:#000000"
         d="m 621.54331,1207.8425 v 45.3544 a 3.779528,3.779528 0 0 0 3.77953,3.7795 h 45.35432 a 3.779528,3.779528 0 0 0 3.77953,-3.7795 v -45.3544 a 3.779528,3.779528 0 0 0 -3.77953,-3.7795 h -45.35432 a 3.779528,3.779528 0 0 0 -3.77953,3.7795 z"
         inkscape:connector-curvature="0" />
      <path
         id="path3202"
         style="fill:none;stroke:#000000"
         d="m 333.54331,1207.8425 a 3.779528,3.779528 0 0 1 3.77952,-3.7795 h 45.35433 a 3.779528,3.779528 0 0 1 3.77953,3.7795 v 45.3544 a 3.779528,3.779528 0 0 1 -3.77953,3.7795 h -45.35433 a 3.779528,3.779528 0 0 1 -3.77952,-3.7795 z"
         inkscape:connector-curvature="0" />
      <path
         id="path3204"
         style="fill:none;stroke:#000000"
         d="m 243.54331,1351.8425 a 3.779528,3.779528 0 0 1 3.77952,-3.7795 h 45.35433 a 3.779528,3.779528 0 0 1 3.77953,3.7795 v 45.3544 a 3.779528,3.779528 0 0 1 -3.77953,3.7795 h -45.35433 a 3.779528,3.779528 0 0 1 -3.77952,-3.7795 z"
         inkscape:connector-curvature="0" />
      <path
         id="path3206"
         style="fill:none;stroke:#000000"
         d="m 207.54331,1279.8425 a 3.779528,3.779528 0 0 1 3.77952,-3.7795 h 45.35433 a 3.779528,3.779528 0 0 1 3.77953,3.7795 v 45.3544 a 3.779528,3.779528 0 0 1 -3.77953,3.7795 h -45.35433 a 3.779528,3.779528 0 0 1 -3.77952,-3.7795 z"
         inkscape:connector-curvature="0" />
      <path
         id="path3208"
         style="fill:none;stroke:#000000"
         d="m 117.54331,1207.8425 a 3.779528,3.779528 0 0 1 3.77952,-3.7795 h 45.35433 a 3.779528,3.779528 0 0 1 3.77953,3.7795 v 45.3544 a 3.779528,3.779528 0 0 1 -3.77953,3.7795 h -45.35433 a 3.779528,3.779528 0 0 1 -3.77952,-3.7795 z"
         inkscape:connector-curvature="0" />
      <path
         id="path3210"
         style="fill:none;stroke:#000000"
         d="m 1197.5433,1135.8425 a 3.779528,3.779528 0 0 1 3.7795,-3.7795 h 45.3544 a 3.779528,3.779528 0 0 1 3.7795,3.7795 v 45.3544 a 3.779528,3.779528 0 0 1 -3.7795,3.7795 h -45.3544 a 3.779528,3.779528 0 0 1 -3.7795,-3.7795 z"
         inkscape:connector-curvature="0" />
      <path
         id="path3212"
         style="fill:none;stroke:#000000"
         d="m 261.54331,1207.8425 a 3.779528,3.779528 0 0 1 3.77952,-3.7795 h 45.35433 a 3.779528,3.779528 0 0 1 3.77953,3.7795 v 45.3544 a 3.779528,3.779528 0 0 1 -3.77953,3.7795 h -45.35433 a 3.779528,3.779528 0 0 1 -3.77952,-3.7795 z"
         inkscape:connector-curvature="0" />
      <path
         id="path3214"
         style="fill:none;stroke:#000000"
         d="m 526.67716,1204.063 a 3.779528,3.779528 0 0 1 3.77953,3.7795 v 45.3544 a 3.779528,3.779528 0 0 1 -3.77953,3.7795 h -45.35433 a 3.779528,3.779528 0 0 1 -3.77952,-3.7795 v -45.3544 a 3.779528,3.779528 0 0 1 3.77952,-3.7795 z"
         inkscape:connector-curvature="0" />
      <path
         id="path3216"
         style="fill:none;stroke:#000000"
         d="m 1035.5433,1441.8425 a 3.779528,3.779528 0 0 1 3.7795,-3.7795 h 45.3544 a 3.779528,3.779528 0 0 1 3.7795,3.7795 v 45.3544 a 3.779528,3.779528 0 0 1 -3.7795,3.7795 h -45.3544 a 3.779528,3.779528 0 0 1 -3.7795,-3.7795 z"
         inkscape:connector-curvature="0" />
      <path
         id="path3218"
         style="fill:none;stroke:#000000"
         d="m 171.54331,1351.8425 a 3.779528,3.779528 0 0 1 3.77952,-3.7795 h 45.35433 a 3.779528,3.779528 0 0 1 3.77953,3.7795 v 45.3544 a 3.779528,3.779528 0 0 1 -3.77953,3.7795 h -45.35433 a 3.779528,3.779528 0 0 1 -3.77952,-3.7795 z"
         inkscape:connector-curvature="0" />
      <path
         id="path3220"
         style="fill:none;stroke:#000000"
         d="m 675.54331,1351.8425 a 3.779528,3.779528 0 0 1 3.77953,-3.7795 h 45.35432 a 3.779528,3.779528 0 0 1 3.77953,3.7795 v 45.3544 a 3.779528,3.779528 0 0 1 -3.77953,3.7795 h -45.35432 a 3.779528,3.779528 0 0 1 -3.77953,-3.7795 z"
         inkscape:connector-curvature="0" />
      <path
         id="path3222"
         style="fill:none;stroke:#000000"
         d="m 837.54331,1207.8425 v 45.3544 a 3.779528,3.779528 0 0 0 3.77953,3.7795 h 45.35432 a 3.779528,3.779528 0 0 0 3.77953,-3.7795 v -45.3544 a 3.779528,3.779528 0 0 0 -3.77953,-3.7795 h -45.35432 a 3.779528,3.779528 0 0 0 -3.77953,3.7795 z"
         inkscape:connector-curvature="0" />
      <path
         id="path3224"
         style="fill:none;stroke:#000000"
         d="m 549.54331,1207.8425 a 3.779528,3.779528 0 0 1 3.77953,-3.7795 h 45.35432 a 3.779528,3.779528 0 0 1 3.77953,3.7795 v 45.3544 a 3.779528,3.779528 0 0 1 -3.77953,3.7795 h -45.35432 a 3.779528,3.779528 0 0 1 -3.77953,-3.7795 z"
         inkscape:connector-curvature="0" />
      <path
         id="path3226"
         style="fill:none;stroke:#000000"
         d="m 747.54331,1351.8425 v 45.3544 a 3.779528,3.779528 0 0 0 3.77953,3.7795 h 45.35432 a 3.779528,3.779528 0 0 0 3.77953,-3.7795 v -45.3544 a 3.779528,3.779528 0 0 0 -3.77953,-3.7795 h -45.35432 a 3.779528,3.779528 0 0 0 -3.77953,3.7795 z"
         inkscape:connector-curvature="0" />
      <path
         id="path3228"
         style="fill:none;stroke:#000000"
         d="m 580.67716,1348.063 a 3.779528,3.779528 0 0 1 3.77953,3.7795 v 45.3544 a 3.779528,3.779528 0 0 1 -3.77953,3.7795 h -45.35432 a 3.779528,3.779528 0 0 1 -3.77953,-3.7795 v -45.3544 a 3.779528,3.779528 0 0 1 3.77953,-3.7795 z"
         inkscape:connector-curvature="0" />
      <path
         id="path3230"
         style="fill:none;stroke:#000000"
         d="m 130.67716,1132.063 a 3.779528,3.779528 0 0 1 3.77953,3.7795 v 45.3544 a 3.779528,3.779528 0 0 1 -3.77953,3.7795 H 85.322835 a 3.779528,3.779528 0 0 1 -3.779528,-3.7795 v -45.3544 a 3.779528,3.779528 0 0 1 3.779528,-3.7795 z"
         inkscape:connector-curvature="0" />
      <path
         id="path3232"
         style="fill:none;stroke:#000000"
         d="m 855.54331,1279.8425 a 3.779528,3.779528 0 0 1 3.77953,-3.7795 h 45.35432 a 3.779528,3.779528 0 0 1 3.77953,3.7795 v 45.3544 a 3.779528,3.779528 0 0 1 -3.77953,3.7795 h -45.35432 a 3.779528,3.779528 0 0 1 -3.77953,-3.7795 z"
         inkscape:connector-curvature="0" />
      <path
         id="path3234"
         style="fill:none;stroke:#000000"
         d="m 775.27196,1486.8391 -0.0518,-13.8627 h 21.45702 a 3.779528,3.779528 0 0 0 3.77953,-3.7795 v -45.3544 a 3.779528,3.779528 0 0 0 -3.77953,-3.7795 h -21.65423 l -0.005,-5.6544 a 3.779528,3.779528 0 0 0 -3.77952,-3.7762 h -27.26944 a 3.779528,3.779528 0 0 0 -3.77953,3.7796 v 3.8003 a 1.889764,1.889764 0 0 1 -1.88977,1.8898 h -0.85617 a 6.851031,6.851031 0 0 0 -0.73086,-0.039 l -35.39028,0.2 -0.005,-5.8544 a 3.779528,3.779528 0 0 0 -3.77952,-3.7762 h -27.26944 a 3.779528,3.779528 0 0 0 -3.77953,3.7796 v 3.8003 a 1.889764,1.889764 0 0 1 -1.88976,1.8898 h -0.85617 a 6.851031,6.851031 0 0 0 -0.73087,-0.039 H 400.33465 a 6.851031,6.851031 0 0 0 -0.73087,0.039 h -53.76956 a 1.889764,1.889764 0 0 1 -1.88976,-1.8898 v -3.8003 a 3.779528,3.779528 0 0 0 -3.77953,-3.7796 h -48.05684 a 3.779528,3.779528 0 0 0 -3.77952,3.7762 l -0.005,5.8544 -0.24885,66.5761 a 3.779528,3.779528 0 0 0 3.77339,3.7936 l 24.94041,0.04 48.76037,-0.04 24.94041,0.04 h 282.36829 l 24.94041,-0.04 48.76038,0.04 24.94041,-0.04 a 3.779528,3.779528 0 0 0 3.77339,-3.7936 z"
         inkscape:connector-curvature="0" />
      <path
         id="path3236"
         style="fill:none;stroke:#000000"
         d="m 1197.5433,1351.8425 a 3.779528,3.779528 0 0 1 3.7795,-3.7795 h 45.3544 a 3.779528,3.779528 0 0 1 3.7795,3.7795 v 45.3544 a 3.779528,3.779528 0 0 1 -3.7795,3.7795 h -45.3544 a 3.779528,3.779528 0 0 1 -3.7795,-3.7795 z"
         inkscape:connector-curvature="0" />
      <path
         id="path3238"
         style="fill:none;stroke:#000000"
         d="m 1179.5433,1441.8425 a 3.779528,3.779528 0 0 1 3.7795,-3.7795 h 45.3544 a 3.779528,3.779528 0 0 1 3.7795,3.7795 v 45.3544 a 3.779528,3.779528 0 0 1 -3.7795,3.7795 h -45.3544 a 3.779528,3.779528 0 0 1 -3.7795,-3.7795 z"
         inkscape:connector-curvature="0" />
      <path
         id="path3240"
         style="fill:none;stroke:#000000"
         d="m 441.54331,1135.8425 a 3.779528,3.779528 0 0 1 3.77952,-3.7795 h 45.35433 a 3.779528,3.779528 0 0 1 3.77953,3.7795 v 45.3544 a 3.779528,3.779528 0 0 1 -3.77953,3.7795 h -45.35433 a 3.779528,3.779528 0 0 1 -3.77952,-3.7795 z"
         inkscape:connector-curvature="0" />
      <path
         id="path3242"
         style="fill:none;stroke:#000000"
         d="m 387.54331,1351.8425 a 3.779528,3.779528 0 0 1 3.77952,-3.7795 h 45.35433 a 3.779528,3.779528 0 0 1 3.77953,3.7795 v 45.3544 a 3.779528,3.779528 0 0 1 -3.77953,3.7795 h -45.35433 a 3.779528,3.779528 0 0 1 -3.77952,-3.7795 z"
         inkscape:connector-curvature="0" />
      <path
         id="path3244"
         style="fill:none;stroke:#000000"
         d="m 1107.5433,1441.8425 a 3.779528,3.779528 0 0 1 3.7795,-3.7795 h 45.3544 a 3.779528,3.779528 0 0 1 3.7795,3.7795 v 45.3544 a 3.779528,3.779528 0 0 1 -3.7795,3.7795 h -45.3544 a 3.779528,3.779528 0 0 1 -3.7795,-3.7795 z"
         inkscape:connector-curvature="0" />
      <path
         id="path3246"
         style="fill:none;stroke:#000000"
         d="m 1269.5433,1135.8425 a 3.779528,3.779528 0 0 1 3.7795,-3.7795 h 45.3544 a 3.779528,3.779528 0 0 1 3.7795,3.7795 v 45.3544 a 3.779528,3.779528 0 0 1 -3.7795,3.7795 h -45.3544 a 3.779528,3.779528 0 0 1 -3.7795,-3.7795 z"
         inkscape:connector-curvature="0" />
      <path
         id="path3248"
         style="fill:none;stroke:#000000"
         d="m 711.54331,1279.8425 v 45.3544 a 3.779528,3.779528 0 0 0 3.77953,3.7795 h 45.35432 a 3.779528,3.779528 0 0 0 3.77953,-3.7795 v -45.3544 a 3.779528,3.779528 0 0 0 -3.77953,-3.7795 h -45.35432 a 3.779528,3.779528 0 0 0 -3.77953,3.7795 z"
         inkscape:connector-curvature="0" />
      <path
         id="path3250"
         style="fill:none;stroke:#000000"
         d="m 423.54331,1279.8425 a 3.779528,3.779528 0 0 1 3.77952,-3.7795 h 45.35433 a 3.779528,3.779528 0 0 1 3.77953,3.7795 v 45.3544 a 3.779528,3.779528 0 0 1 -3.77953,3.7795 h -45.35433 a 3.779528,3.779528 0 0 1 -3.77952,-3.7795 z"
         inkscape:connector-curvature="0" />
      <path
         id="path3252"
         style="fill:none;stroke:#000000"
         d="m 801.54331,1135.8425 a 3.779528,3.779528 0 0 1 3.77953,-3.7795 h 45.35432 a 3.779528,3.779528 0 0 1 3.77953,3.7795 v 45.3544 a 3.779528,3.779528 0 0 1 -3.77953,3.7795 h -45.35432 a 3.779528,3.779528 0 0 1 -3.77953,-3.7795 z"
         inkscape:connector-curvature="0" />
      <path
         id="path3254"
         style="fill:none;stroke:#000000"
         d="m 459.54331,1351.8425 a 3.779528,3.779528 0 0 1 3.77952,-3.7795 h 45.35433 a 3.779528,3.779528 0 0 1 3.77953,3.7795 v 45.3544 a 3.779528,3.779528 0 0 1 -3.77953,3.7795 h -45.35433 a 3.779528,3.779528 0 0 1 -3.77952,-3.7795 z"
         inkscape:connector-curvature="0" />
      <path
         id="path3256"
         style="fill:none;stroke:#000000"
         d="m 1341.5433,1135.8425 a 3.779528,3.779528 0 0 1 3.7795,-3.7795 h 45.3544 a 3.779528,3.779528 0 0 1 3.7795,3.7795 v 45.3544 a 3.779528,3.779528 0 0 1 -3.7795,3.7795 h -45.3544 a 3.779528,3.779528 0 0 1 -3.7795,-3.7795 z"
         inkscape:connector-curvature="0" />
      <path
         id="path3258"
         style="fill:none;stroke:#000000"
         d="m 495.54331,1279.8425 a 3.779528,3.779528 0 0 1 3.77952,-3.7795 h 45.35433 a 3.779528,3.779528 0 0 1 3.77953,3.7795 v 45.3544 a 3.779528,3.779528 0 0 1 -3.77953,3.7795 h -45.35433 a 3.779528,3.779528 0 0 1 -3.77952,-3.7795 z"
         inkscape:connector-curvature="0" />
      <path
         id="path3260"
         style="fill:none;stroke:#000000"
         d="m 567.54331,1279.8425 a 3.779528,3.779528 0 0 1 3.77953,-3.7795 h 45.35432 a 3.779528,3.779528 0 0 1 3.77953,3.7795 v 45.3544 a 3.779528,3.779528 0 0 1 -3.77953,3.7795 h -45.35432 a 3.779528,3.779528 0 0 1 -3.77953,-3.7795 z"
         inkscape:connector-curvature="0" />
      <path
         id="path3262"
         style="fill:none;stroke:#000000"
         d="m 9.543307,1135.8425 a 3.779528,3.779528 0 0 1 3.779528,-3.7795 h 45.35433 a 3.779528,3.779528 0 0 1 3.779528,3.7795 v 45.3544 a 3.779528,3.779528 0 0 1 -3.779528,3.7795 h -45.35433 a 3.779528,3.779528 0 0 1 -3.779528,-3.7795 z"
         inkscape:connector-curvature="0" />
      <path
         id="path3264"
         style="fill:none;stroke:#000000"
         d="m 639.54331,1279.8425 v 45.3544 a 3.779528,3.779528 0 0 0 3.77953,3.7795 h 45.35432 a 3.779528,3.779528 0 0 0 3.77953,-3.7795 v -45.3544 a 3.779528,3.779528 0 0 0 -3.77953,-3.7795 h -45.35432 a 3.779528,3.779528 0 0 0 -3.77953,3.7795 z"
         inkscape:connector-curvature="0" />
      <path
         id="path3266"
         style="fill:none;stroke:#000000"
         d="m 1413.5433,1135.8425 a 3.779528,3.779528 0 0 1 3.7795,-3.7795 h 45.3544 a 3.779528,3.779528 0 0 1 3.7795,3.7795 v 45.3544 a 3.779528,3.779528 0 0 1 -3.7795,3.7795 h -45.3544 a 3.779528,3.779528 0 0 1 -3.7795,-3.7795 z"
         inkscape:connector-curvature="0" />
      <path
         id="path3268"
         style="fill:none;stroke:#000000"
         d="m 1197.5433,1279.8425 a 3.779528,3.779528 0 0 1 3.7795,-3.7795 h 45.3544 a 3.779528,3.779528 0 0 1 3.7795,3.7795 v 45.3544 a 3.779528,3.779528 0 0 1 -3.7795,3.7795 h -45.3544 a 3.779528,3.779528 0 0 1 -3.7795,-3.7795 z"
         inkscape:connector-curvature="0" />
      <path
         id="path3270"
         style="fill:none;stroke:#000000"
         d="m 1269.5433,1279.8425 a 3.779528,3.779528 0 0 1 3.7795,-3.7795 h 45.3544 a 3.779528,3.779528 0 0 1 3.7795,3.7795 v 45.3544 a 3.779528,3.779528 0 0 1 -3.7795,3.7795 h -45.3544 a 3.779528,3.779528 0 0 1 -3.7795,-3.7795 z"
         inkscape:connector-curvature="0" />
      <path
         id="path3272"
         style="fill:none;stroke:#000000"
         d="m 873.54331,1135.8425 a 3.779528,3.779528 0 0 1 3.77953,-3.7795 h 45.35432 a 3.779528,3.779528 0 0 1 3.77953,3.7795 v 45.3544 a 3.779528,3.779528 0 0 1 -3.77953,3.7795 h -45.35432 a 3.779528,3.779528 0 0 1 -3.77953,-3.7795 z"
         inkscape:connector-curvature="0" />
      <path
         id="path3274"
         style="fill:none;stroke:#000000"
         d="m 729.54331,1135.8425 a 3.779528,3.779528 0 0 1 3.77953,-3.7795 h 45.35432 a 3.779528,3.779528 0 0 1 3.77953,3.7795 v 45.3544 a 3.779528,3.779528 0 0 1 -3.77953,3.7795 h -45.35432 a 3.779528,3.779528 0 0 1 -3.77953,-3.7795 z"
         inkscape:connector-curvature="0" />
      <path
         id="path3276"
         style="fill:none;stroke:#000000"
         d="m 1269.5433,1423.8425 a 3.779528,3.779528 0 0 1 3.7795,-3.7795 h 45.3544 a 3.779528,3.779528 0 0 1 3.7795,3.7795 v 45.3544 a 3.779528,3.779528 0 0 1 -3.7795,3.7795 h -45.3544 a 3.779528,3.779528 0 0 1 -3.7795,-3.7795 z"
         inkscape:connector-curvature="0" />
      <path
         id="path3278"
         style="fill:none;stroke:#000000"
         d="m 886.67716,1420.063 h -63.35432 a 3.779528,3.779528 0 0 0 -3.77953,3.7795 v 45.3544 a 3.779528,3.779528 0 0 0 3.77953,3.7795 h 63.35432 a 3.779528,3.779528 0 0 0 3.77953,-3.7795 v -45.3544 a 3.779528,3.779528 0 0 0 -3.77953,-3.7795 z"
         inkscape:connector-curvature="0" />
      <path
         id="path3280"
         style="fill:none;stroke:#000000"
         d="m 84.23622,1423.8425 a 3.779528,3.779528 0 0 0 -3.779527,3.7795"
         inkscape:connector-curvature="0" />
      <path
         id="path3282"
         style="fill:none;stroke:#000000"
         d="m 80.456693,1427.622 v 41.5749"
         inkscape:connector-curvature="0" />
      <path
         id="path3284"
         style="fill:none;stroke:#000000"
         d="m 76.677165,1472.9764 a 3.779528,3.779528 0 0 0 3.779528,-3.7795"
         inkscape:connector-curvature="0" />
      <path
         id="path3286"
         style="fill:none;stroke:#000000"
         d="M 76.677165,1472.9764 H 22.322835"
         inkscape:connector-curvature="0" />
      <path
         id="path3288"
         style="fill:none;stroke:#000000"
         d="m 18.543307,1469.1969 a 3.779528,3.779528 0 0 0 3.779528,3.7795"
         inkscape:connector-curvature="0" />
      <path
         id="path3290"
         style="fill:none;stroke:#000000"
         d="m 18.543307,1469.1969 v -45.3544"
         inkscape:connector-curvature="0" />
      <path
         id="path3292"
         style="fill:none;stroke:#000000"
         d="m 19.763476,1421.0614 a 3.779528,3.779528 0 0 0 -1.220169,2.7811"
         inkscape:connector-curvature="0" />
      <path
         id="path3294"
         style="fill:none;stroke:#000000"
         d="m 19.763476,1421.0614 v -6.2001"
         inkscape:connector-curvature="0" />
      <path
         id="path3296"
         style="fill:none;stroke:#000000"
         d="m 19.763476,1414.8391 0.248846,-66.5761"
         inkscape:connector-curvature="0" />
      <path
         id="path3298"
         style="fill:none;stroke:#000000"
         d="m 20.012322,1348.263 0.0052,-5.8544"
         inkscape:connector-curvature="0" />
      <path
         id="path3300"
         style="fill:none;stroke:#000000"
         d="m 23.797068,1338.6324 a 3.779528,3.779528 0 0 0 -3.779526,3.7762"
         inkscape:connector-curvature="0" />
      <path
         id="path3302"
         style="fill:none;stroke:#000000"
         d="M 23.797068,1338.6324 H 51.066507"
         inkscape:connector-curvature="0" />
      <path
         id="path3304"
         style="fill:none;stroke:#000000"
         d="m 54.846035,1342.412 a 3.779528,3.779528 0 0 0 -3.779528,-3.7796"
         inkscape:connector-curvature="0" />
      <path
         id="path3306"
         style="fill:none;stroke:#000000"
         d="m 54.846035,1342.412 v 3.8003"
         inkscape:connector-curvature="0" />
      <path
         id="path3308"
         style="fill:none;stroke:#000000"
         d="m 54.846035,1346.2123 a 1.889764,1.889764 0 0 0 1.889763,1.8898"
         inkscape:connector-curvature="0" />
      <path
         id="path3310"
         style="fill:none;stroke:#000000"
         d="m 56.735798,1348.1021 h 0.85617"
         inkscape:connector-curvature="0" />
      <path
         id="path3312"
         style="fill:none;stroke:#000000"
         d="m 58.322835,1348.063 a 6.851031,6.851031 0 0 0 -0.730867,0.039"
         inkscape:connector-curvature="0" />
      <path
         id="path3314"
         style="fill:none;stroke:#000000"
         d="M 58.322835,1348.063 H 103.67717"
         inkscape:connector-curvature="0" />
      <path
         id="path3316"
         style="fill:none;stroke:#000000"
         d="m 104.40803,1348.1021 a 6.851031,6.851031 0 0 0 -0.73086,-0.039"
         inkscape:connector-curvature="0" />
      <path
         id="path3318"
         style="fill:none;stroke:#000000"
         d="m 104.40803,1348.1021 h 0.85617"
         inkscape:connector-curvature="0" />
      <path
         id="path3320"
         style="fill:none;stroke:#000000"
         d="m 105.2642,1348.1021 a 1.889764,1.889764 0 0 0 1.88977,-1.8898"
         inkscape:connector-curvature="0" />
      <path
         id="path3322"
         style="fill:none;stroke:#000000"
         d="m 107.15397,1346.2123 v -3.8003"
         inkscape:connector-curvature="0" />
      <path
         id="path3324"
         style="fill:none;stroke:#000000"
         d="m 110.93349,1338.6324 a 3.779528,3.779528 0 0 0 -3.77952,3.7796"
         inkscape:connector-curvature="0" />
      <path
         id="path3326"
         style="fill:none;stroke:#000000"
         d="m 110.93349,1338.6324 h 27.26944"
         inkscape:connector-curvature="0" />
      <path
         id="path3328"
         style="fill:none;stroke:#000000"
         d="m 141.98246,1342.4086 a 3.779528,3.779528 0 0 0 -3.77953,-3.7762"
         inkscape:connector-curvature="0" />
      <path
         id="path3330"
         style="fill:none;stroke:#000000"
         d="m 141.98246,1342.4086 0.005,5.8544"
         inkscape:connector-curvature="0" />
      <path
         id="path3332"
         style="fill:none;stroke:#000000"
         d="m 141.98768,1348.263 0.24884,66.5761"
         inkscape:connector-curvature="0" />
      <path
         id="path3334"
         style="fill:none;stroke:#000000"
         d="m 142.1121,1415.8151 a 3.779528,3.779528 0 0 0 0.12442,-0.976"
         inkscape:connector-curvature="0" />
      <path
         id="path3336"
         style="fill:none;stroke:#000000"
         d="m 142.1121,1415.8151 v 4.2479"
         inkscape:connector-curvature="0" />
      <path
         id="path3338"
         style="fill:none;stroke:#000000"
         d="m 142.1121,1420.063 h 24.56506"
         inkscape:connector-curvature="0" />
      <path
         id="path3340"
         style="fill:none;stroke:#000000"
         d="m 170.45669,1423.8425 a 3.779528,3.779528 0 0 0 -3.77953,-3.7795"
         inkscape:connector-curvature="0" />
      <path
         id="path3342"
         style="fill:none;stroke:#000000"
         d="m 170.45669,1423.8425 v 45.3544"
         inkscape:connector-curvature="0" />
      <path
         id="path3344"
         style="fill:none;stroke:#000000"
         d="m 166.67716,1472.9764 a 3.779528,3.779528 0 0 0 3.77953,-3.7795"
         inkscape:connector-curvature="0" />
      <path
         id="path3346"
         style="fill:none;stroke:#000000"
         d="M 166.67716,1472.9764 H 103.32283"
         inkscape:connector-curvature="0" />
      <path
         id="path3348"
         style="fill:none;stroke:#000000"
         d="m 99.543307,1469.1969 a 3.779528,3.779528 0 0 0 3.779523,3.7795"
         inkscape:connector-curvature="0" />
      <path
         id="path3350"
         style="fill:none;stroke:#000000"
         d="M 99.543307,1469.1969 V 1427.622"
         inkscape:connector-curvature="0" />
      <path
         id="path3352"
         style="fill:none;stroke:#000000"
         d="m 99.543307,1427.622 a 3.779528,3.779528 0 0 0 -3.779527,-3.7795"
         inkscape:connector-curvature="0" />
      <path
         id="path3354"
         style="fill:none;stroke:#000000"
         d="M 95.76378,1423.8425 H 84.23622"
         inkscape:connector-curvature="0" />
      <path
         id="path3356"
         style="fill:none;stroke:#000000"
         d="m 1056.2301,1202.6476 a 3.779528,3.779528 0 0 0 -3.7734,3.7796"
         inkscape:connector-curvature="0" />
      <path
         id="path3358"
         style="fill:none;stroke:#000000"
         d="m 1052.4567,1206.4272 v 46.7697"
         inkscape:connector-curvature="0" />
      <path
         id="path3360"
         style="fill:none;stroke:#000000"
         d="m 1048.6772,1256.9764 a 3.779528,3.779528 0 0 0 3.7795,-3.7795"
         inkscape:connector-curvature="0" />
      <path
         id="path3362"
         style="fill:none;stroke:#000000"
         d="m 1048.6772,1256.9764 h -45.3544"
         inkscape:connector-curvature="0" />
      <path
         id="path3364"
         style="fill:none;stroke:#000000"
         d="m 999.54331,1253.1969 a 3.779528,3.779528 0 0 0 3.77949,3.7795"
         inkscape:connector-curvature="0" />
      <path
         id="path3366"
         style="fill:none;stroke:#000000"
         d="M 999.54331,1253.1969 V 1211.622"
         inkscape:connector-curvature="0" />
      <path
         id="path3368"
         style="fill:none;stroke:#000000"
         d="m 999.54331,1211.622 a 3.779528,3.779528 0 0 0 -3.77953,-3.7795"
         inkscape:connector-curvature="0" />
      <path
         id="path3370"
         style="fill:none;stroke:#000000"
         d="M 995.76378,1207.8425 H 966.23622"
         inkscape:connector-curvature="0" />
      <path
         id="path3372"
         style="fill:none;stroke:#000000"
         d="m 966.23622,1207.8425 a 3.779528,3.779528 0 0 0 -3.77953,3.7795"
         inkscape:connector-curvature="0" />
      <path
         id="path3374"
         style="fill:none;stroke:#000000"
         d="m 962.45669,1211.622 v 41.5749"
         inkscape:connector-curvature="0" />
      <path
         id="path3376"
         style="fill:none;stroke:#000000"
         d="m 958.67716,1256.9764 a 3.779528,3.779528 0 0 0 3.77953,-3.7795"
         inkscape:connector-curvature="0" />
      <path
         id="path3378"
         style="fill:none;stroke:#000000"
         d="M 958.67716,1256.9764 H 913.32284"
         inkscape:connector-curvature="0" />
      <path
         id="path3380"
         style="fill:none;stroke:#000000"
         d="m 909.54331,1253.1969 a 3.779528,3.779528 0 0 0 3.77953,3.7795"
         inkscape:connector-curvature="0" />
      <path
         id="path3382"
         style="fill:none;stroke:#000000"
         d="m 909.54331,1253.1969 v -45.3544"
         inkscape:connector-curvature="0" />
      <path
         id="path3384"
         style="fill:none;stroke:#000000"
         d="m 913.32284,1204.063 a 3.779528,3.779528 0 0 0 -3.77953,3.7795"
         inkscape:connector-curvature="0" />
      <path
         id="path3386"
         style="fill:none;stroke:#000000"
         d="m 913.32284,1204.063 h 33.44061"
         inkscape:connector-curvature="0" />
      <path
         id="path3388"
         style="fill:none;stroke:#000000"
         d="m 946.76345,1204.063 v -5.2098"
         inkscape:connector-curvature="0" />
      <path
         id="path3390"
         style="fill:none;stroke:#000000"
         d="m 946.76348,1198.8391 0.0554,-14.8112"
         inkscape:connector-curvature="0" />
      <path
         id="path3392"
         style="fill:none;stroke:#000000"
         d="m 945.54331,1181.1969 a 3.779528,3.779528 0 0 0 1.27553,2.831"
         inkscape:connector-curvature="0" />
      <path
         id="path3394"
         style="fill:none;stroke:#000000"
         d="m 945.54331,1181.1969 v -45.3544"
         inkscape:connector-curvature="0" />
      <path
         id="path3396"
         style="fill:none;stroke:#000000"
         d="m 947.01012,1132.8532 a 3.779528,3.779528 0 0 0 -1.46681,2.9893"
         inkscape:connector-curvature="0" />
      <path
         id="path3398"
         style="fill:none;stroke:#000000"
         d="m 947.01012,1132.8532 0.002,-0.5902"
         inkscape:connector-curvature="0" />
      <path
         id="path3400"
         style="fill:none;stroke:#000000"
         d="m 947.01232,1132.263 0.005,-5.8544"
         inkscape:connector-curvature="0" />
      <path
         id="path3402"
         style="fill:none;stroke:#000000"
         d="m 950.79707,1122.6324 a 3.779528,3.779528 0 0 0 -3.77953,3.7762"
         inkscape:connector-curvature="0" />
      <path
         id="path3404"
         style="fill:none;stroke:#000000"
         d="m 950.79707,1122.6324 h 27.26944"
         inkscape:connector-curvature="0" />
      <path
         id="path3406"
         style="fill:none;stroke:#000000"
         d="m 981.84604,1126.412 a 3.779528,3.779528 0 0 0 -3.77953,-3.7796"
         inkscape:connector-curvature="0" />
      <path
         id="path3408"
         style="fill:none;stroke:#000000"
         d="m 981.84604,1126.412 v 3.8003"
         inkscape:connector-curvature="0" />
      <path
         id="path3410"
         style="fill:none;stroke:#000000"
         d="m 981.84604,1130.2123 a 1.889764,1.889764 0 0 0 1.50735,1.8507"
         inkscape:connector-curvature="0" />
      <path
         id="path3412"
         style="fill:none;stroke:#000000"
         d="m 983.35339,1132.063 h 49.29321"
         inkscape:connector-curvature="0" />
      <path
         id="path3414"
         style="fill:none;stroke:#000000"
         d="m 1032.6466,1132.063 a 1.889764,1.889764 0 0 0 1.5074,-1.8507"
         inkscape:connector-curvature="0" />
      <path
         id="path3416"
         style="fill:none;stroke:#000000"
         d="m 1034.154,1130.2123 v -3.8003"
         inkscape:connector-curvature="0" />
      <path
         id="path3418"
         style="fill:none;stroke:#000000"
         d="m 1037.9335,1122.6324 a 3.779528,3.779528 0 0 0 -3.7795,3.7796"
         inkscape:connector-curvature="0" />
      <path
         id="path3420"
         style="fill:none;stroke:#000000"
         d="m 1037.9335,1122.6324 h 27.2694"
         inkscape:connector-curvature="0" />
      <path
         id="path3422"
         style="fill:none;stroke:#000000"
         d="m 1068.9825,1126.4086 a 3.779528,3.779528 0 0 0 -3.7796,-3.7762"
         inkscape:connector-curvature="0" />
      <path
         id="path3424"
         style="fill:none;stroke:#000000"
         d="m 1068.9825,1126.4086 0.01,5.8544"
         inkscape:connector-curvature="0" />
      <path
         id="path3426"
         style="fill:none;stroke:#000000"
         d="m 1068.9877,1132.263 v 0.5902"
         inkscape:connector-curvature="0" />
      <path
         id="path3428"
         style="fill:none;stroke:#000000"
         d="m 1070.4567,1135.8425 a 3.779528,3.779528 0 0 0 -1.4668,-2.9893"
         inkscape:connector-curvature="0" />
      <path
         id="path3430"
         style="fill:none;stroke:#000000"
         d="m 1070.4567,1135.8425 v 45.3544"
         inkscape:connector-curvature="0" />
      <path
         id="path3432"
         style="fill:none;stroke:#000000"
         d="m 1069.1812,1184.0279 a 3.779528,3.779528 0 0 0 1.2755,-2.831"
         inkscape:connector-curvature="0" />
      <path
         id="path3434"
         style="fill:none;stroke:#000000"
         d="m 1069.1812,1184.0279 0.055,14.8112"
         inkscape:connector-curvature="0" />
      <path
         id="path3436"
         style="fill:none;stroke:#000000"
         d="m 1065.4631,1202.6327 a 3.779528,3.779528 0 0 0 3.7734,-3.7936"
         inkscape:connector-curvature="0" />
      <path
         id="path3438"
         style="fill:none;stroke:#000000"
         d="m 1065.4631,1202.6327 -9.233,0.015"
         inkscape:connector-curvature="0" />
      <path
         id="path3440"
         style="fill:none;stroke:#000000"
         d="m 1386.8976,1400.9764 a 3.779528,3.779528 0 0 1 3.7796,3.7795 v 11.5276 a 3.779528,3.779528 0 0 1 -3.7796,3.7795 h -41.5748 a 3.779528,3.779528 0 0 0 -3.7795,3.7795 v 45.3544 a 3.779528,3.779528 0 0 0 3.7795,3.7795 h 45.3544 a 3.779528,3.779528 0 0 0 2.6725,-1.107 l 6.3309,-0.1132 14.8112,-0.055 a 3.779528,3.779528 0 0 0 2.831,1.2756 h 45.3544 a 3.779528,3.779528 0 0 0 2.9893,-1.4668 h 0.5902 l 5.8544,-0.01 a 3.779528,3.779528 0 0 0 3.7761,-3.7795 v -27.2694 a 3.779528,3.779528 0 0 0 -3.7795,-3.7795 h -3.8003 a 1.889764,1.889764 0 0 1 -1.8507,-1.5074 v -49.2932 a 1.889764,1.889764 0 0 1 1.8507,-1.5074 h 3.8003 a 3.779528,3.779528 0 0 0 3.7795,-3.7795 v -27.2694 a 3.779528,3.779528 0 0 0 -3.7761,-3.7796 l -5.8544,-0.01 h -0.5902 a 3.779528,3.779528 0 0 0 -2.9893,-1.4668 h -45.3544 a 3.779528,3.779528 0 0 0 -2.831,1.2755 l -14.8112,-0.055 -6.3309,-0.1132 a 3.779528,3.779528 0 0 0 -2.6725,-1.107 h -45.3544 a 3.779528,3.779528 0 0 0 -3.7795,3.7795 v 45.3544 a 3.779528,3.779528 0 0 0 3.7795,3.7795 z"
         inkscape:connector-curvature="0" />
    </g>
  </g>
</svg>
