<?xml version="1.0" encoding="UTF-8" standalone="no"?>
<!-- Created with Inkscape (http://www.inkscape.org/) -->

<svg
   xmlns:dc="http://purl.org/dc/elements/1.1/"
   xmlns:cc="http://creativecommons.org/ns#"
   xmlns:rdf="http://www.w3.org/1999/02/22-rdf-syntax-ns#"
   xmlns:svg="http://www.w3.org/2000/svg"
   xmlns="http://www.w3.org/2000/svg"
   xmlns:sodipodi="http://sodipodi.sourceforge.net/DTD/sodipodi-0.dtd"
   xmlns:inkscape="http://www.inkscape.org/namespaces/inkscape"
   width="420mm"
   height="210mm"
   viewBox="0 0 420 210"
   version="1.1"
   id="svg8"
   inkscape:version="0.92.4 (5da689c313, 2019-01-14)"
   sodipodi:docname="L5.svg">
  <defs
     id="defs2">
    <marker
       style="overflow:visible"
       refY="0.0"
       refX="0.0"
       orient="auto"
       id="DistanceX">
      <path
         id="path817"
         style="stroke:#000000; stroke-width:0.5"
         d="M 3,-3 L -3,3 M 0,-5 L  0,5" />
    </marker>
    <pattern
       y="0"
       x="0"
       width="8"
       patternUnits="userSpaceOnUse"
       id="Hatch"
       height="8">
      <path
         id="path820"
         stroke-width="0.25"
         stroke="#000000"
         linecap="square"
         d="M8 4 l-4,4" />
      <path
         id="path822"
         stroke-width="0.25"
         stroke="#000000"
         linecap="square"
         d="M6 2 l-4,4" />
      <path
         id="path824"
         stroke-width="0.25"
         stroke="#000000"
         linecap="square"
         d="M4 0 l-4,4" />
    </pattern>
    <symbol
       id="*MODEL_SPACE" />
    <symbol
       id="*PAPER_SPACE" />
    <marker
       style="overflow:visible"
       refY="0.0"
       refX="0.0"
       orient="auto"
       id="DistanceX-0">
      <path
         id="path901"
         style="stroke:#000000; stroke-width:0.5"
         d="M 3,-3 L -3,3 M 0,-5 L  0,5" />
    </marker>
    <pattern
       y="0"
       x="0"
       width="8"
       patternUnits="userSpaceOnUse"
       id="Hatch-2"
       height="8">
      <path
         id="path904"
         stroke-width="0.25"
         stroke="#000000"
         linecap="square"
         d="M8 4 l-4,4" />
      <path
         id="path906"
         stroke-width="0.25"
         stroke="#000000"
         linecap="square"
         d="M6 2 l-4,4" />
      <path
         id="path908"
         stroke-width="0.25"
         stroke="#000000"
         linecap="square"
         d="M4 0 l-4,4" />
    </pattern>
    <symbol
       id="*MODEL_SPACE-2" />
    <symbol
       id="*PAPER_SPACE-0" />
    <marker
       style="overflow:visible"
       refY="0.0"
       refX="0.0"
       orient="auto"
       id="DistanceX-00">
      <path
         id="path991"
         style="stroke:#000000; stroke-width:0.5"
         d="M 3,-3 L -3,3 M 0,-5 L  0,5" />
    </marker>
    <pattern
       y="0"
       x="0"
       width="8"
       patternUnits="userSpaceOnUse"
       id="Hatch-23"
       height="8">
      <path
         id="path994"
         stroke-width="0.25"
         stroke="#000000"
         linecap="square"
         d="M8 4 l-4,4" />
      <path
         id="path996"
         stroke-width="0.25"
         stroke="#000000"
         linecap="square"
         d="M6 2 l-4,4" />
      <path
         id="path998"
         stroke-width="0.25"
         stroke="#000000"
         linecap="square"
         d="M4 0 l-4,4" />
    </pattern>
    <symbol
       id="*MODEL_SPACE-9" />
    <symbol
       id="*PAPER_SPACE-3" />
  </defs>
  <sodipodi:namedview
     id="base"
     pagecolor="#ffffff"
     bordercolor="#666666"
     borderopacity="1.0"
     inkscape:pageopacity="0.0"
     inkscape:pageshadow="2"
     inkscape:zoom="0.7"
     inkscape:cx="771.01391"
     inkscape:cy="618.72696"
     inkscape:document-units="mm"
     inkscape:current-layer="layer1"
     showgrid="false"
     inkscape:window-width="2560"
     inkscape:window-height="1377"
     inkscape:window-x="-8"
     inkscape:window-y="-8"
     inkscape:window-maximized="1" />
  <metadata
     id="metadata5">
    <rdf:RDF>
      <cc:Work
         rdf:about="">
        <dc:format>image/svg+xml</dc:format>
        <dc:type
           rdf:resource="http://purl.org/dc/dcmitype/StillImage" />
        <dc:title></dc:title>
      </cc:Work>
    </rdf:RDF>
  </metadata>
  <g
     inkscape:label="Layer 1"
     inkscape:groupmode="layer"
     id="layer1"
     transform="translate(0,-87)">
    <g
       id="g1035"
       inkscape:label="0"
       transform="matrix(0.26458333,0,0,0.26458333,14.737497,-155.00624)">
      <path
         id="path1005"
         style="fill:none;stroke:#000000"
         d="m 1507.1339,1523.1969 a 8.50395,8.50395 0 1 0 -17.0079,0 8.50395,8.50395 0 1 0 17.0079,0 z"
         inkscape:connector-curvature="0" />
      <path
         id="path1007"
         style="fill:none;stroke:#000000"
         d="m 492.96063,1099.8898 a 8.503937,8.503937 0 1 0 -17.00787,0 8.503937,8.503937 0 1 0 17.00787,0 z"
         inkscape:connector-curvature="0" />
      <path
         id="path1009"
         style="fill:none;stroke:#000000"
         d="m -14.125984,1523.1969 a 8.503937,8.503937 0 1 0 -17.007874,0 8.503937,8.503937 0 1 0 17.007874,0 z"
         inkscape:connector-curvature="0" />
      <path
         id="path1011"
         style="fill:none;stroke:#000000"
         d="m 1000.0472,1099.8898 a 8.503937,8.503937 0 1 0 -17.00783,0 8.503937,8.503937 0 1 0 17.00783,0 z"
         inkscape:connector-curvature="0" />
      <path
         id="path1013"
         style="fill:none;stroke:#000000"
         d="m 1000.0472,1523.1969 a 8.503937,8.503937 0 1 0 -17.00783,0 8.503937,8.503937 0 1 0 17.00783,0 z"
         inkscape:connector-curvature="0" />
      <path
         id="path1015"
         style="fill:none;stroke:#000000"
         d="m 1507.1339,1311.5433 a 8.50395,8.50395 0 1 0 -17.0079,0 8.50395,8.50395 0 1 0 17.0079,0 z"
         inkscape:connector-curvature="0" />
      <path
         id="path1017"
         style="fill:none;stroke:#000000"
         d="m -14.125984,1099.8898 a 8.503937,8.503937 0 1 0 -17.007874,0 8.503937,8.503937 0 1 0 17.007874,0 z"
         inkscape:connector-curvature="0" />
      <path
         id="path1019"
         style="fill:none;stroke:#000000"
         d="m -14.125984,1311.5433 a 8.503937,8.503937 0 1 0 -17.007874,0 8.503937,8.503937 0 1 0 17.007874,0 z"
         inkscape:connector-curvature="0" />
      <path
         id="path1021"
         style="fill:none;stroke:#000000"
         d="m 1507.1339,1099.8898 a 8.50395,8.50395 0 1 0 -17.0079,0 8.50395,8.50395 0 1 0 17.0079,0 z"
         inkscape:connector-curvature="0" />
      <path
         id="path1023"
         style="fill:none;stroke:#000000"
         d="m 492.96063,1523.1969 a 8.503937,8.503937 0 1 0 -17.00787,0 8.503937,8.503937 0 1 0 17.00787,0 z"
         inkscape:connector-curvature="0" />
      <path
         id="path1025"
         style="fill:none;stroke:#000000"
         d="m 1252.5354,1414.2047 a 3.779528,3.779528 0 0 1 3.7796,3.7796 v 64.4409 a 3.779528,3.779528 0 0 0 3.7795,3.7795 h 215.811 a 3.779528,3.779528 0 0 0 3.7795,-3.7795 v -359.811 a 3.779528,3.779528 0 0 0 -3.7795,-3.7796 h -287.811 a 3.779528,3.779528 0 0 0 -3.7795,3.7796 v 287.811 a 3.779528,3.779528 0 0 0 3.7795,3.7795 z"
         inkscape:connector-curvature="0" />
      <path
         id="path1027"
         style="fill:none;stroke:#000000"
         d="m 1177.4646,1424.8346 a 3.779528,3.779528 0 0 1 -3.7796,-3.7795 v -64.4409 a 3.779528,3.779528 0 0 0 -3.7795,-3.7796 h -71.811 a 3.779528,3.779528 0 0 0 -3.7795,3.7796 v 64.4409 a 3.779528,3.779528 0 0 1 -3.7796,3.7795 h -64.4409 a 3.779528,3.779528 0 0 0 -3.7795,3.7796 v 71.811 a 3.779528,3.779528 0 0 0 3.7795,3.7795 h 215.811 a 3.779528,3.779528 0 0 0 3.7795,-3.7795 v -71.811 a 3.779528,3.779528 0 0 0 -3.7795,-3.7796 z"
         inkscape:connector-curvature="0" />
      <path
         id="path1029"
         style="fill:none;stroke:#000000"
         d="m 1011.7988,1417.9214 a 3.779528,3.779528 0 0 1 3.7856,-3.7795 l 38.8465,0.063 h 25.4746 a 3.779528,3.779528 0 0 0 3.7795,-3.7795 v -287.811 a 3.779528,3.779528 0 0 0 -3.7795,-3.7796 H 0.094488 a 3.779528,3.779528 0 0 0 -3.779527,3.7796 v 359.811 a 3.779528,3.779528 0 0 0 3.779527,3.7795 H 1007.9612 a 3.779528,3.779528 0 0 0 3.7795,-3.7734 l 0.058,-35.8695 z"
         inkscape:connector-curvature="0" />
      <path
         id="path1031"
         style="fill:none;stroke:#000000"
         d="m 1098.0945,1270.2047 h 71.811 a 3.779528,3.779528 0 0 0 3.7795,-3.7795 v -143.811 a 3.779528,3.779528 0 0 0 -3.7795,-3.7796 h -71.811 a 3.779528,3.779528 0 0 0 -3.7795,3.7796 v 143.811 a 3.779528,3.779528 0 0 0 3.7795,3.7795 z"
         inkscape:connector-curvature="0" />
      <path
         id="path1033"
         style="fill:none;stroke:#000000"
         d="m -49.133858,1103.622 a 30.23622,30.23622 0 0 1 30.23622,-30.2362 H 1494.8976 a 30.23622,30.23622 0 0 1 30.2363,30.2362 v 415.7953 a 30.23622,30.23622 0 0 1 -30.2363,30.2362 H -18.897638 a 30.23622,30.23622 0 0 1 -30.23622,-30.2362 z"
         inkscape:connector-curvature="0" />
    </g>
  </g>
</svg>
