0
SECTION
2
HEADER
9
$INSUNITS
70
4
9
$ACADVER
1
AC1014
9
$HANDSEED
5
FFFF
0
ENDSEC
0
SECTION
2
TABLES
0
TABLE
2
VPORT
5
8
100
AcDbSymbolTable
0
ENDTAB
0
TABLE
2
LTYPE
5
5
100
AcDbSymbolTable
0
LTYPE
5
14
100
AcDbSymbolTableRecord
100
AcDbLinetypeTableRecord
2
BYBLOCK
70
0
0
LTYPE
5
15
100
AcDbSymbolTableRecord
100
AcDbLinetypeTableRecord
2
BYLAYER
70
0
0
ENDTAB
0
TABLE
2
LAYER
5
2
100
AcDbSymbolTable
70
2
0
LAYER
5
50
100
AcDbSymbolTableRecord
100
AcDbLayerTableRecord
2
0
70
0
6
CONTINUOUS
0
ENDTAB
0
TABLE
2
STYLE
5
3
100
AcDbSymbolTable
70
1
0
STYLE
5
11
100
AcDbSymbolTableRecord
100
AcDbTextStyleTableRecord
2
STANDARD
70
0
0
ENDTAB
0
TABLE
2
VIEW
5
6
100
AcDbSymbolTable
70
0
0
ENDTAB
0
TABLE
2
UCS
5
7
100
AcDbSymbolTable
70
0
0
ENDTAB
0
TABLE
2
APPID
5
9
100
AcDbSymbolTable
70
2
0
APPID
5
12
100
AcDbSymbolTableRecord
100
AcDbRegAppTableRecord
2
ACAD
70
0
0
ENDTAB
0
TABLE
2
DIMSTYLE
5
A
100
AcDbSymbolTable
70
1
0
ENDTAB
0
TABLE
2
BLOCK_RECORD
5
1
100
AcDbSymbolTable
70
1
0
BLOCK_RECORD
5
1F
100
AcDbSymbolTableRecord
100
AcDbBlockTableRecord
2
*MODEL_SPACE
0
BLOCK_RECORD
5
1B
100
AcDbSymbolTableRecord
100
AcDbBlockTableRecord
2
*PAPER_SPACE
0
ENDTAB
0
ENDSEC
0
SECTION
2
BLOCKS
0
BLOCK
5
20
100
AcDbEntity
100
AcDbBlockBegin
2
*MODEL_SPACE
0
ENDBLK
5
21
100
AcDbEntity
100
AcDbBlockEnd
0
BLOCK
5
1C
100
AcDbEntity
100
AcDbBlockBegin
2
*PAPER_SPACE
0
ENDBLK
5
1D
100
AcDbEntity
100
AcDbBlockEnd
0
ENDSEC
0
SECTION
2
ENTITIES
0
CIRCLE
5
100
100
AcDbEntity
8
0
100
AcDbCircle
10
128.17916666666667
20
-106.0125
30
0
40
1.0999999999999943
210
0
220
0
230
1
0
CIRCLE
5
101
100
AcDbEntity
8
0
100
AcDbCircle
10
396.51250000000005
20
5.9875000000000007
30
0
40
1.0999999999999943
210
0
220
0
230
1
0
CIRCLE
5
102
100
AcDbEntity
8
0
100
AcDbCircle
10
-5.9874999999999821
20
5.9875000000000007
30
0
40
1.0999999999999999
210
0
220
0
230
1
0
CIRCLE
5
103
100
AcDbEntity
8
0
100
AcDbCircle
10
396.51250000000005
20
-50.012500000000003
30
0
40
1.0999999999999943
210
0
220
0
230
1
0
CIRCLE
5
104
100
AcDbEntity
8
0
100
AcDbCircle
10
-5.9874999999999821
20
-106.0125
30
0
40
1.0999999999999999
210
0
220
0
230
1
0
CIRCLE
5
105
100
AcDbEntity
8
0
100
AcDbCircle
10
262.3458333333333
20
-106.0125
30
0
40
1.0999999999999943
210
0
220
0
230
1
0
CIRCLE
5
106
100
AcDbEntity
8
0
100
AcDbCircle
10
262.3458333333333
20
5.9875000000000007
30
0
40
1.0999999999999943
210
0
220
0
230
1
0
CIRCLE
5
107
100
AcDbEntity
8
0
100
AcDbCircle
10
128.17916666666667
20
5.9875000000000007
30
0
40
1.0999999999999943
210
0
220
0
230
1
0
CIRCLE
5
108
100
AcDbEntity
8
0
100
AcDbCircle
10
396.51250000000005
20
-106.0125
30
0
40
1.0999999999999943
210
0
220
0
230
1
0
CIRCLE
5
109
100
AcDbEntity
8
0
100
AcDbCircle
10
-5.9874999999999821
20
-50.012500000000003
30
0
40
1.0999999999999999
210
0
220
0
230
1
0
LWPOLYLINE
5
110
100
AcDbEntity
8
0
100
AcDbPolyline
90
16
70
1
43
0.0
10
310.53750000000008
20
-78.987500000000011
10
310.53750000000008
20
-61.937500000000007
42
0.41421356237309503
10
309.53750000000008
20
-60.937499999999993
10
290.53750000000002
20
-60.937500000000007
42
0.41421356237310802
10
289.53750000000002
20
-61.937500000000007
10
289.53750000000002
20
-78.987500000000011
42
-0.41421356237310542
10
288.53749999999997
20
-79.987500000000011
10
271.48750000000001
20
-79.987500000000011
42
0.41421356237308982
10
270.48749999999995
20
-80.987500000000011
10
270.48749999999995
20
-99.987499999999983
42
0.41421356237310025
10
271.48750000000001
20
-100.98749999999998
10
328.58750000000015
20
-100.98749999999998
42
0.4142135623730222
10
329.58750000000015
20
-99.987499999999997
10
329.58750000000009
20
-80.987500000000026
42
0.41421356237313667
10
328.58750000000009
20
-79.987500000000011
10
311.53750000000008
20
-79.987499999999997
42
-0.41421356237310542
0
LWPOLYLINE
5
111
100
AcDbEntity
8
0
100
AcDbPolyline
90
14
70
1
43
0.0
10
278.98485202665302
20
-77.174999999999997
10
285.72500000000002
20
-77.174999999999997
42
0.41421356237310542
10
286.72500000000008
20
-76.174999999999997
10
286.72500000000008
20
-0.02500000000000397
42
0.41421356237309476
10
285.72500000000002
20
0.9750000000000103
10
0.025000000000027008
20
0.97499999999999742
42
0.41421356237309231
10
-0.97499999999996589
20
-0.024999999999995026
10
-0.97499999999999942
20
-95.224999999999966
42
0.41421356237307816
10
0.024999999999977263
20
-96.224999999999966
10
266.68974063430881
20
-96.224999999999994
42
0.41373976390308481
10
267.68973932547635
20
-95.226617919390847
10
267.70509417930344
20
-85.736136615510901
10
267.70509417930339
20
-78.158369467511278
42
-0.41468751963119094
10
268.70671209869431
20
-77.158370776343702
0
LWPOLYLINE
5
112
100
AcDbEntity
8
0
100
AcDbPolyline
90
12
70
1
43
0.0
10
332.39999999999998
20
-78.174999999999983
10
332.39999999999998
20
-95.224999999999966
42
0.41421356237313667
10
333.39999999999998
20
-96.224999999999994
10
390.50000000000011
20
-96.224999999999426
42
0.41421356237312623
10
391.50000000000011
20
-95.224999999999397
10
391.50000000000006
20
-0.024999999999995089
42
0.41421356237313223
10
390.50000000000006
20
0.9750000000000103
10
314.35000000000002
20
0.97499999999999809
42
0.41421356237310525
10
313.35000000000002
20
-0.025000000000003908
10
313.35000000000002
20
-76.174999999999997
42
0.41421356237309243
10
314.35000000000002
20
-77.175000000000011
10
331.39999999999998
20
-77.175000000000068
42
-0.41421356237304563
0
LWPOLYLINE
5
113
100
AcDbEntity
8
0
100
AcDbPolyline
90
8
70
1
43
0.0
10
290.53750000000014
20
-39.075000000000095
42
-0.41421356237307294
10
289.53750000000008
20
-38.075000000000088
10
289.53749999999997
20
-0.02499999999999513
42
-0.41421356237307311
10
290.53749999999997
20
0.97500000000000142
10
309.53750000000008
20
0.97500000000007681
42
-0.41421356237309442
10
310.53750000000008
20
-0.024999999999937295
10
310.53750000000008
20
-38.075000000000017
42
-0.41421356237310675
10
309.53750000000008
20
-39.075000000000017
0
LWPOLYLINE
5
114
100
AcDbEntity
8
0
100
AcDbPolyline
90
8
70
1
43
0.0
10
-11
20
5.0000000000000071
42
-0.41421356237309609
10
-5
20
11
10
395.52500000000003
20
10.999999999999922
42
-0.41421356237309054
10
401.52499999999986
20
5
10
401.52500000000003
20
-105.0125
42
-0.41421356237309159
10
395.52500000000003
20
-111.01250000000009
10
-5.0000000000000053
20
-111.01250000000005
42
-0.41421356237309515
10
-11.000000000000014
20
-105.01250000000002
0
ENDSEC
0
SECTION
2
OBJECTS
0
DICTIONARY
5
C
100
AcDbDictionary
3
ACAD_GROUP
350
D
3
ACAD_MLINESTYLE
350
17
0
DICTIONARY
5
D
100
AcDbDictionary
0
DICTIONARY
5
1A
330
C
100
AcDbDictionary
0
DICTIONARY
5
17
100
AcDbDictionary
0
ENDSEC
0
EOF
