<?xml version="1.0" encoding="UTF-8" standalone="no"?>
<!-- Created with Inkscape (http://www.inkscape.org/) -->

<svg
   xmlns:dc="http://purl.org/dc/elements/1.1/"
   xmlns:cc="http://creativecommons.org/ns#"
   xmlns:rdf="http://www.w3.org/1999/02/22-rdf-syntax-ns#"
   xmlns:svg="http://www.w3.org/2000/svg"
   xmlns="http://www.w3.org/2000/svg"
   xmlns:sodipodi="http://sodipodi.sourceforge.net/DTD/sodipodi-0.dtd"
   xmlns:inkscape="http://www.inkscape.org/namespaces/inkscape"
   width="420mm"
   height="210mm"
   viewBox="0 0 420 210"
   version="1.1"
   id="svg8"
   inkscape:version="0.92.4 (5da689c313, 2019-01-14)"
   sodipodi:docname="L6.svg">
  <defs
     id="defs2">
    <marker
       style="overflow:visible"
       refY="0.0"
       refX="0.0"
       orient="auto"
       id="DistanceX">
      <path
         id="path817"
         style="stroke:#000000; stroke-width:0.5"
         d="M 3,-3 L -3,3 M 0,-5 L  0,5" />
    </marker>
    <pattern
       y="0"
       x="0"
       width="8"
       patternUnits="userSpaceOnUse"
       id="Hatch"
       height="8">
      <path
         id="path820"
         stroke-width="0.25"
         stroke="#000000"
         linecap="square"
         d="M8 4 l-4,4" />
      <path
         id="path822"
         stroke-width="0.25"
         stroke="#000000"
         linecap="square"
         d="M6 2 l-4,4" />
      <path
         id="path824"
         stroke-width="0.25"
         stroke="#000000"
         linecap="square"
         d="M4 0 l-4,4" />
    </pattern>
    <symbol
       id="*MODEL_SPACE" />
    <symbol
       id="*PAPER_SPACE" />
    <marker
       style="overflow:visible"
       refY="0.0"
       refX="0.0"
       orient="auto"
       id="DistanceX-0">
      <path
         id="path901"
         style="stroke:#000000; stroke-width:0.5"
         d="M 3,-3 L -3,3 M 0,-5 L  0,5" />
    </marker>
    <pattern
       y="0"
       x="0"
       width="8"
       patternUnits="userSpaceOnUse"
       id="Hatch-2"
       height="8">
      <path
         id="path904"
         stroke-width="0.25"
         stroke="#000000"
         linecap="square"
         d="M8 4 l-4,4" />
      <path
         id="path906"
         stroke-width="0.25"
         stroke="#000000"
         linecap="square"
         d="M6 2 l-4,4" />
      <path
         id="path908"
         stroke-width="0.25"
         stroke="#000000"
         linecap="square"
         d="M4 0 l-4,4" />
    </pattern>
    <symbol
       id="*MODEL_SPACE-2" />
    <symbol
       id="*PAPER_SPACE-0" />
  </defs>
  <sodipodi:namedview
     id="base"
     pagecolor="#ffffff"
     bordercolor="#666666"
     borderopacity="1.0"
     inkscape:pageopacity="0.0"
     inkscape:pageshadow="2"
     inkscape:zoom="0.7"
     inkscape:cx="771.01391"
     inkscape:cy="618.72696"
     inkscape:document-units="mm"
     inkscape:current-layer="layer1"
     showgrid="false"
     inkscape:window-width="2560"
     inkscape:window-height="1377"
     inkscape:window-x="-8"
     inkscape:window-y="-8"
     inkscape:window-maximized="1" />
  <metadata
     id="metadata5">
    <rdf:RDF>
      <cc:Work
         rdf:about="">
        <dc:format>image/svg+xml</dc:format>
        <dc:type
           rdf:resource="http://purl.org/dc/dcmitype/StillImage" />
        <dc:title></dc:title>
      </cc:Work>
    </rdf:RDF>
  </metadata>
  <g
     inkscape:label="Layer 1"
     inkscape:groupmode="layer"
     id="layer1"
     transform="translate(0,-87)">
    <g
       id="g945"
       inkscape:label="0"
       transform="matrix(0.26458333,0,0,0.26458333,14.737503,-155.00625)">
      <path
         id="path915"
         style="fill:none;stroke:#000000"
         d="m 488.61417,1523.1969 a 4.15748,4.15748 0 1 0 -8.31496,0 4.15748,4.15748 0 1 0 8.31496,0 z"
         inkscape:connector-curvature="0" />
      <path
         id="path917"
         style="fill:none;stroke:#000000"
         d="m 1502.7874,1099.8898 a 4.1575,4.1575 0 1 0 -8.315,0 4.1575,4.1575 0 1 0 8.315,0 z"
         inkscape:connector-curvature="0" />
      <path
         id="path919"
         style="fill:none;stroke:#000000"
         d="m -18.472441,1099.8898 a 4.1574805,4.1574805 0 1 0 -8.314961,0 4.1574805,4.1574805 0 1 0 8.314961,0 z"
         inkscape:connector-curvature="0" />
      <path
         id="path921"
         style="fill:none;stroke:#000000"
         d="m 1502.7874,1311.5433 a 4.1575,4.1575 0 1 0 -8.315,0 4.1575,4.1575 0 1 0 8.315,0 z"
         inkscape:connector-curvature="0" />
      <path
         id="path923"
         style="fill:none;stroke:#000000"
         d="m -18.472441,1523.1969 a 4.1574805,4.1574805 0 1 0 -8.314961,0 4.1574805,4.1574805 0 1 0 8.314961,0 z"
         inkscape:connector-curvature="0" />
      <path
         id="path925"
         style="fill:none;stroke:#000000"
         d="m 995.70079,1523.1969 a 4.15748,4.15748 0 1 0 -8.31496,0 4.15748,4.15748 0 1 0 8.31496,0 z"
         inkscape:connector-curvature="0" />
      <path
         id="path927"
         style="fill:none;stroke:#000000"
         d="m 995.70079,1099.8898 a 4.15748,4.15748 0 1 0 -8.31496,0 4.15748,4.15748 0 1 0 8.31496,0 z"
         inkscape:connector-curvature="0" />
      <path
         id="path929"
         style="fill:none;stroke:#000000"
         d="m 488.61417,1099.8898 a 4.15748,4.15748 0 1 0 -8.31496,0 4.15748,4.15748 0 1 0 8.31496,0 z"
         inkscape:connector-curvature="0" />
      <path
         id="path931"
         style="fill:none;stroke:#000000"
         d="m 1502.7874,1523.1969 a 4.1575,4.1575 0 1 0 -8.315,0 4.1575,4.1575 0 1 0 8.315,0 z"
         inkscape:connector-curvature="0" />
      <path
         id="path933"
         style="fill:none;stroke:#000000"
         d="m -18.472441,1311.5433 a 4.1574805,4.1574805 0 1 0 -8.314961,0 4.1574805,4.1574805 0 1 0 8.314961,0 z"
         inkscape:connector-curvature="0" />
      <path
         id="path935"
         style="fill:none;stroke:#000000"
         d="m 1173.685,1421.0551 v -64.4409 a 3.779528,3.779528 0 0 0 -3.7795,-3.7796 h -71.811 a 3.779528,3.779528 0 0 0 -3.7795,3.7796 v 64.4409 a 3.779528,3.779528 0 0 1 -3.7796,3.7795 h -64.4409 a 3.779528,3.779528 0 0 0 -3.7795,3.7796 v 71.811 a 3.779528,3.779528 0 0 0 3.7795,3.7795 h 215.811 a 3.779528,3.779528 0 0 0 3.7795,-3.7795 v -71.811 a 3.779528,3.779528 0 0 0 -3.7795,-3.7796 h -64.4409 a 3.779528,3.779528 0 0 1 -3.7796,-3.7795 z"
         inkscape:connector-curvature="0" />
      <path
         id="path937"
         style="fill:none;stroke:#000000"
         d="m 1054.4309,1414.2047 h 25.4746 a 3.779528,3.779528 0 0 0 3.7795,-3.7795 v -287.811 a 3.779528,3.779528 0 0 0 -3.7795,-3.7796 H 0.094488 a 3.779528,3.779528 0 0 0 -3.779527,3.7796 v 359.811 a 3.779528,3.779528 0 0 0 3.779527,3.7795 H 1007.9612 a 3.779528,3.779528 0 0 0 3.7795,-3.7734 l 0.058,-35.8695 v -28.6404 a 3.779528,3.779528 0 0 1 3.7856,-3.7795 z"
         inkscape:connector-curvature="0" />
      <path
         id="path939"
         style="fill:none;stroke:#000000"
         d="m 1256.315,1417.9843 v 64.4409 a 3.779528,3.779528 0 0 0 3.7795,3.7795 h 215.811 a 3.779528,3.779528 0 0 0 3.7795,-3.7795 v -359.811 a 3.779528,3.779528 0 0 0 -3.7795,-3.7796 h -287.811 a 3.779528,3.779528 0 0 0 -3.7795,3.7796 v 287.811 a 3.779528,3.779528 0 0 0 3.7795,3.7795 h 64.4409 a 3.779528,3.779528 0 0 1 3.7796,3.7796 z"
         inkscape:connector-curvature="0" />
      <path
         id="path941"
         style="fill:none;stroke:#000000"
         d="m 1098.0945,1270.2047 a 3.779528,3.779528 0 0 1 -3.7795,-3.7795 v -143.811 a 3.779528,3.779528 0 0 1 3.7795,-3.7796 h 71.811 a 3.779528,3.779528 0 0 1 3.7795,3.7796 v 143.811 a 3.779528,3.779528 0 0 1 -3.7795,3.7795 z"
         inkscape:connector-curvature="0" />
      <path
         id="path943"
         style="fill:none;stroke:#000000"
         d="m -41.574803,1103.622 a 22.677165,22.677165 0 0 1 22.677165,-22.6771 H 1494.8976 a 22.677165,22.677165 0 0 1 22.6772,22.6771 v 415.7953 a 22.677165,22.677165 0 0 1 -22.6772,22.6772 H -18.897638 a 22.677165,22.677165 0 0 1 -22.677165,-22.6772 z"
         inkscape:connector-curvature="0" />
    </g>
  </g>
</svg>
