0
SECTION
2
HEADER
9
$INSUNITS
70
4
9
$ACADVER
1
AC1014
9
$HANDSEED
5
FFFF
0
ENDSEC
0
SECTION
2
TABLES
0
TABLE
2
VPORT
5
8
100
AcDbSymbolTable
0
ENDTAB
0
TABLE
2
LTYPE
5
5
100
AcDbSymbolTable
0
LTYPE
5
14
100
AcDbSymbolTableRecord
100
AcDbLinetypeTableRecord
2
BYBLOCK
70
0
0
LTYPE
5
15
100
AcDbSymbolTableRecord
100
AcDbLinetypeTableRecord
2
BYLAYER
70
0
0
ENDTAB
0
TABLE
2
LAYER
5
2
100
AcDbSymbolTable
70
2
0
LAYER
5
50
100
AcDbSymbolTableRecord
100
AcDbLayerTableRecord
2
0
70
0
6
CONTINUOUS
0
ENDTAB
0
TABLE
2
STYLE
5
3
100
AcDbSymbolTable
70
1
0
STYLE
5
11
100
AcDbSymbolTableRecord
100
AcDbTextStyleTableRecord
2
STANDARD
70
0
0
ENDTAB
0
TABLE
2
VIEW
5
6
100
AcDbSymbolTable
70
0
0
ENDTAB
0
TABLE
2
UCS
5
7
100
AcDbSymbolTable
70
0
0
ENDTAB
0
TABLE
2
APPID
5
9
100
AcDbSymbolTable
70
2
0
APPID
5
12
100
AcDbSymbolTableRecord
100
AcDbRegAppTableRecord
2
ACAD
70
0
0
ENDTAB
0
TABLE
2
DIMSTYLE
5
A
100
AcDbSymbolTable
70
1
0
ENDTAB
0
TABLE
2
BLOCK_RECORD
5
1
100
AcDbSymbolTable
70
1
0
BLOCK_RECORD
5
1F
100
AcDbSymbolTableRecord
100
AcDbBlockTableRecord
2
*MODEL_SPACE
0
BLOCK_RECORD
5
1B
100
AcDbSymbolTableRecord
100
AcDbBlockTableRecord
2
*PAPER_SPACE
0
ENDTAB
0
ENDSEC
0
SECTION
2
BLOCKS
0
BLOCK
5
20
100
AcDbEntity
100
AcDbBlockBegin
2
*MODEL_SPACE
0
ENDBLK
5
21
100
AcDbEntity
100
AcDbBlockEnd
0
BLOCK
5
1C
100
AcDbEntity
100
AcDbBlockBegin
2
*PAPER_SPACE
0
ENDBLK
5
1D
100
AcDbEntity
100
AcDbBlockEnd
0
ENDSEC
0
SECTION
2
ENTITIES
0
CIRCLE
5
100
100
AcDbEntity
8
0
100
AcDbCircle
10
163.03023769493021
20
29.475234878374085
30
0
40
1.9999999999999929
210
0
220
-0
230
1
0
CIRCLE
5
101
100
AcDbEntity
8
0
100
AcDbCircle
10
41.342737694930193
20
29.475234878374085
30
0
40
2.0000000000000018
210
0
220
-0
230
1
0
CIRCLE
5
102
100
AcDbEntity
8
0
100
AcDbCircle
10
-80.344762305069821
20
29.475234878374085
30
0
40
1.9999999999999929
210
0
220
-0
230
1
0
LWPOLYLINE
5
103
100
AcDbEntity
8
0
100
AcDbPolyline
90
6
70
1
43
0.0
10
-11.836428971736508
20
-55.044720406126132
10
-12.548928971736506
20
-56.278806606518962
10
-11.836428971736508
20
-57.512892806911786
10
-10.411428971736507
20
-57.512892806911786
10
-9.6989289717365068
20
-56.278806606518962
10
-10.411428971736507
20
-55.044720406126132
0
LWPOLYLINE
5
104
100
AcDbEntity
8
0
100
AcDbPolyline
90
6
70
1
43
0.0
10
83.096904361596827
20
51.959279593873887
10
82.384404361596836
20
50.725193393481057
10
83.096904361596842
20
49.491107193088226
10
84.521904361596839
20
49.491107193088233
10
85.23440436159683
20
50.725193393481064
10
84.521904361596825
20
51.959279593873894
0
LWPOLYLINE
5
105
100
AcDbEntity
8
0
100
AcDbPolyline
90
6
70
1
43
0.0
10
-11.836428971736508
20
51.959279593873887
10
-12.548928971736508
20
50.725193393481057
10
-11.836428971736508
20
49.491107193088233
10
-10.411428971736507
20
49.491107193088233
10
-9.6989289717365068
20
50.725193393481057
10
-10.411428971736507
20
51.959279593873887
0
LWPOLYLINE
5
106
100
AcDbEntity
8
0
100
AcDbPolyline
90
6
70
1
43
0.0
10
83.096904361596827
20
-55.044720406126132
10
82.384404361596836
20
-56.278806606518962
10
83.096904361596842
20
-57.512892806911793
10
84.521904361596839
20
-57.512892806911786
10
85.23440436159683
20
-56.278806606518955
10
84.521904361596825
20
-55.044720406126125
0
LWPOLYLINE
5
107
100
AcDbEntity
8
0
100
AcDbPolyline
90
6
70
1
43
0.0
10
-106.76976230506986
20
-55.044720406126132
10
-107.48226230506985
20
-56.278806606518962
10
-106.76976230506983
20
-57.512892806911793
10
-105.34476230506984
20
-57.512892806911786
10
-104.63226230506984
20
-56.278806606518955
10
-105.34476230506985
20
-55.044720406126125
0
LWPOLYLINE
5
108
100
AcDbEntity
8
0
100
AcDbPolyline
90
6
70
1
43
0.0
10
178.03023769493021
20
51.959279593873866
10
177.3177376949302
20
50.725193393481057
10
178.03023769493021
20
49.491107193088254
10
179.45523769493019
20
49.491107193088254
10
180.16773769493017
20
50.725193393481057
10
179.45523769493019
20
51.959279593873866
0
LWPOLYLINE
5
109
100
AcDbEntity
8
0
100
AcDbPolyline
90
6
70
1
43
0.0
10
-106.76976230506986
20
51.959279593873887
10
-107.48226230506985
20
50.725193393481057
10
-106.76976230506983
20
49.491107193088226
10
-105.34476230506984
20
49.491107193088233
10
-104.63226230506984
20
50.725193393481064
10
-105.34476230506985
20
51.959279593873894
0
LWPOLYLINE
5
110
100
AcDbEntity
8
0
100
AcDbPolyline
90
6
70
1
43
0.0
10
178.03023769493021
20
-55.044720406126153
10
177.3177376949302
20
-56.278806606518962
10
178.03023769493021
20
-57.512892806911765
10
179.45523769493019
20
-57.512892806911765
10
180.16773769493017
20
-56.278806606518962
10
179.45523769493019
20
-55.044720406126153
0
LWPOLYLINE
5
111
100
AcDbEntity
8
0
100
AcDbPolyline
90
12
70
1
43
0.0
10
19.305656211887374
20
59.475234878374089
10
19.305656211887374
20
45.475234878374089
10
34.305656211887374
20
45.475234878374089
10
34.305656211887374
20
59.475234878374081
10
185.93665621188734
20
59.475234878374081
42
-0.41421356237309503
10
208.05665621188734
20
37.355234878374084
10
208.05665621188729
20
-43.162765121625917
42
-0.41421356237309387
10
185.93665621188731
20
-65.2827651216259
10
-110.55754378811261
20
-65.282765121625971
42
-0.41421356237309431
10
-132.67754378811264
20
-43.162765121625938
10
-132.67754378811262
20
37.355234878374063
42
-0.41421356237309515
10
-110.55754378811261
20
59.475234878374074
0
ENDSEC
0
SECTION
2
OBJECTS
0
DICTIONARY
5
C
100
AcDbDictionary
3
ACAD_GROUP
350
D
3
ACAD_MLINESTYLE
350
17
0
DICTIONARY
5
D
100
AcDbDictionary
0
DICTIONARY
5
1A
330
C
100
AcDbDictionary
0
DICTIONARY
5
17
100
AcDbDictionary
0
ENDSEC
0
EOF
