<?xml version="1.0" encoding="UTF-8" standalone="no"?>
<!-- Created with Inkscape (http://www.inkscape.org/) -->

<svg
   xmlns:dc="http://purl.org/dc/elements/1.1/"
   xmlns:cc="http://creativecommons.org/ns#"
   xmlns:rdf="http://www.w3.org/1999/02/22-rdf-syntax-ns#"
   xmlns:svg="http://www.w3.org/2000/svg"
   xmlns="http://www.w3.org/2000/svg"
   xmlns:sodipodi="http://sodipodi.sourceforge.net/DTD/sodipodi-0.dtd"
   xmlns:inkscape="http://www.inkscape.org/namespaces/inkscape"
   width="420mm"
   height="210mm"
   viewBox="0 0 420 210"
   version="1.1"
   id="svg8"
   inkscape:version="0.92.4 (5da689c313, 2019-01-14)"
   sodipodi:docname="L0.svg">
  <defs
     id="defs2">
    <marker
       style="overflow:visible"
       refY="0.0"
       refX="0.0"
       orient="auto"
       id="DistanceX">
      <path
         id="path12"
         style="stroke:#000000; stroke-width:0.5"
         d="M 3,-3 L -3,3 M 0,-5 L  0,5" />
    </marker>
    <pattern
       y="0"
       x="0"
       width="8"
       patternUnits="userSpaceOnUse"
       id="Hatch"
       height="8">
      <path
         id="path15"
         stroke-width="0.25"
         stroke="#000000"
         linecap="square"
         d="M8 4 l-4,4" />
      <path
         id="path17"
         stroke-width="0.25"
         stroke="#000000"
         linecap="square"
         d="M6 2 l-4,4" />
      <path
         id="path19"
         stroke-width="0.25"
         stroke="#000000"
         linecap="square"
         d="M4 0 l-4,4" />
    </pattern>
    <symbol
       id="*MODEL_SPACE" />
    <symbol
       id="*PAPER_SPACE" />
  </defs>
  <sodipodi:namedview
     id="base"
     pagecolor="#ffffff"
     bordercolor="#666666"
     borderopacity="1.0"
     inkscape:pageopacity="0.0"
     inkscape:pageshadow="2"
     inkscape:zoom="0.35"
     inkscape:cx="47.142857"
     inkscape:cy="560"
     inkscape:document-units="mm"
     inkscape:current-layer="layer1"
     showgrid="false"
     inkscape:window-width="2560"
     inkscape:window-height="1377"
     inkscape:window-x="-8"
     inkscape:window-y="-8"
     inkscape:window-maximized="1" />
  <metadata
     id="metadata5">
    <rdf:RDF>
      <cc:Work
         rdf:about="">
        <dc:format>image/svg+xml</dc:format>
        <dc:type
           rdf:resource="http://purl.org/dc/dcmitype/StillImage" />
        <dc:title></dc:title>
      </cc:Work>
    </rdf:RDF>
  </metadata>
  <g
     inkscape:label="Layer 1"
     inkscape:groupmode="layer"
     id="layer1"
     transform="translate(0,-87)">
    <g
       id="g50"
       inkscape:label="0"
       transform="matrix(0.26458333,0,0,0.26458333,172.31044,-107.90376)">
      <path
         id="path26"
         style="fill:none;stroke:#000000"
         d="m 623.73633,1011.1172 a 7.559055,7.559055 0 1 0 -15.11811,0 7.559055,7.559055 0 1 0 15.11811,0 z"
         inkscape:connector-curvature="0" />
      <path
         id="path28"
         style="fill:none;stroke:#000000"
         d="m 163.81507,1011.1172 a 7.5590555,7.5590555 0 1 0 -15.11811,0 7.5590555,7.5590555 0 1 0 15.11811,0 z"
         inkscape:connector-curvature="0" />
      <path
         id="path30"
         style="fill:none;stroke:#000000"
         d="m -296.10619,1011.1172 a 7.559055,7.559055 0 1 0 -15.11811,0 7.559055,7.559055 0 1 0 15.11811,0 z"
         inkscape:connector-curvature="0" />
      <path
         id="path32"
         style="fill:none;stroke:#000000"
         d="m -44.736109,1330.5627 -2.692914,4.6643 2.692914,4.6642 h 5.385826 l 2.692914,-4.6642 -2.692914,-4.6643 z"
         inkscape:connector-curvature="0" />
      <path
         id="path34"
         style="fill:none;stroke:#000000"
         d="m 314.06704,926.13816 -2.69291,4.66426 2.69291,4.66426 h 5.38583 l 2.69291,-4.66426 -2.69291,-4.66426 z"
         inkscape:connector-curvature="0" />
      <path
         id="path36"
         style="fill:none;stroke:#000000"
         d="m -44.736109,926.13816 -2.692914,4.66426 2.692914,4.66426 h 5.385826 l 2.692914,-4.66426 -2.692914,-4.66426 z"
         inkscape:connector-curvature="0" />
      <path
         id="path38"
         style="fill:none;stroke:#000000"
         d="m 314.06704,1330.5627 -2.69291,4.6643 2.69291,4.6642 h 5.38583 l 2.69291,-4.6642 -2.69291,-4.6643 z"
         inkscape:connector-curvature="0" />
      <path
         id="path40"
         style="fill:none;stroke:#000000"
         d="m -403.53926,1330.5627 -2.69291,4.6643 2.69291,4.6642 h 5.38583 l 2.69291,-4.6642 -2.69291,-4.6643 z"
         inkscape:connector-curvature="0" />
      <path
         id="path42"
         style="fill:none;stroke:#000000"
         d="m 672.87019,926.13816 -2.69291,4.66426 2.69291,4.66426 h 5.38583 l 2.69291,-4.66426 -2.69291,-4.66426 z"
         inkscape:connector-curvature="0" />
      <path
         id="path44"
         style="fill:none;stroke:#000000"
         d="m -403.53926,926.13816 -2.69291,4.66426 2.69291,4.66426 h 5.38583 l 2.69291,-4.66426 -2.69291,-4.66426 z"
         inkscape:connector-curvature="0" />
      <path
         id="path46"
         style="fill:none;stroke:#000000"
         d="m 672.87019,1330.5627 -2.69291,4.6643 2.69291,4.6642 h 5.38583 l 2.69291,-4.6642 -2.69291,-4.6643 z"
         inkscape:connector-curvature="0" />
      <path
         id="path48"
         style="fill:none;stroke:#000000"
         d="m 72.96626,897.7314 v 52.91338 h 56.69291 V 897.7314 h 573.09355 a 83.60315,83.60315 0 0 1 83.60315,83.60315 v 304.31995 a 83.60315,83.60315 0 0 1 -83.60315,83.6032 h -1120.608 a 83.60315,83.60315 0 0 1 -83.60315,-83.6032 V 981.33455 a 83.60315,83.60315 0 0 1 83.60315,-83.60315 z"
         inkscape:connector-curvature="0" />
    </g>
  </g>
</svg>
