<?xml version="1.0" encoding="UTF-8" standalone="no"?>
<!-- Created with Inkscape (http://www.inkscape.org/) -->

<svg
   xmlns:dc="http://purl.org/dc/elements/1.1/"
   xmlns:cc="http://creativecommons.org/ns#"
   xmlns:rdf="http://www.w3.org/1999/02/22-rdf-syntax-ns#"
   xmlns:svg="http://www.w3.org/2000/svg"
   xmlns="http://www.w3.org/2000/svg"
   xmlns:sodipodi="http://sodipodi.sourceforge.net/DTD/sodipodi-0.dtd"
   xmlns:inkscape="http://www.inkscape.org/namespaces/inkscape"
   width="420mm"
   height="210mm"
   viewBox="0 0 420 210"
   version="1.1"
   id="svg8"
   inkscape:version="0.92.4 (5da689c313, 2019-01-14)"
   sodipodi:docname="L4_plate.svg">
  <defs
     id="defs2">
    <marker
       style="overflow:visible"
       refY="0.0"
       refX="0.0"
       orient="auto"
       id="DistanceX">
      <path
         id="path12"
         style="stroke:#000000; stroke-width:0.5"
         d="M 3,-3 L -3,3 M 0,-5 L  0,5" />
    </marker>
    <pattern
       y="0"
       x="0"
       width="8"
       patternUnits="userSpaceOnUse"
       id="Hatch"
       height="8">
      <path
         id="path15"
         stroke-width="0.25"
         stroke="#000000"
         linecap="square"
         d="M8 4 l-4,4" />
      <path
         id="path17"
         stroke-width="0.25"
         stroke="#000000"
         linecap="square"
         d="M6 2 l-4,4" />
      <path
         id="path19"
         stroke-width="0.25"
         stroke="#000000"
         linecap="square"
         d="M4 0 l-4,4" />
    </pattern>
    <symbol
       id="*MODEL_SPACE" />
    <symbol
       id="*PAPER_SPACE" />
    <marker
       style="overflow:visible"
       refY="0.0"
       refX="0.0"
       orient="auto"
       id="DistanceX-9">
      <path
         id="path81"
         style="stroke:#000000; stroke-width:0.5"
         d="M 3,-3 L -3,3 M 0,-5 L  0,5" />
    </marker>
    <pattern
       y="0"
       x="0"
       width="8"
       patternUnits="userSpaceOnUse"
       id="Hatch-1"
       height="8">
      <path
         id="path84"
         stroke-width="0.25"
         stroke="#000000"
         linecap="square"
         d="M8 4 l-4,4" />
      <path
         id="path86"
         stroke-width="0.25"
         stroke="#000000"
         linecap="square"
         d="M6 2 l-4,4" />
      <path
         id="path88"
         stroke-width="0.25"
         stroke="#000000"
         linecap="square"
         d="M4 0 l-4,4" />
    </pattern>
    <symbol
       id="*MODEL_SPACE-4" />
    <symbol
       id="*PAPER_SPACE-8" />
    <marker
       style="overflow:visible"
       refY="0.0"
       refX="0.0"
       orient="auto"
       id="DistanceX-8">
      <path
         id="path141"
         style="stroke:#000000; stroke-width:0.5"
         d="M 3,-3 L -3,3 M 0,-5 L  0,5" />
    </marker>
    <pattern
       y="0"
       x="0"
       width="8"
       patternUnits="userSpaceOnUse"
       id="Hatch-5"
       height="8">
      <path
         id="path144"
         stroke-width="0.25"
         stroke="#000000"
         linecap="square"
         d="M8 4 l-4,4" />
      <path
         id="path146"
         stroke-width="0.25"
         stroke="#000000"
         linecap="square"
         d="M6 2 l-4,4" />
      <path
         id="path148"
         stroke-width="0.25"
         stroke="#000000"
         linecap="square"
         d="M4 0 l-4,4" />
    </pattern>
    <symbol
       id="*MODEL_SPACE-3" />
    <symbol
       id="*PAPER_SPACE-9" />
  </defs>
  <sodipodi:namedview
     id="base"
     pagecolor="#ffffff"
     bordercolor="#666666"
     borderopacity="1.0"
     inkscape:pageopacity="0.0"
     inkscape:pageshadow="2"
     inkscape:zoom="0.35"
     inkscape:cx="47.142857"
     inkscape:cy="560"
     inkscape:document-units="mm"
     inkscape:current-layer="layer1"
     showgrid="false"
     inkscape:window-width="2560"
     inkscape:window-height="1377"
     inkscape:window-x="-8"
     inkscape:window-y="-8"
     inkscape:window-maximized="1" />
  <metadata
     id="metadata5">
    <rdf:RDF>
      <cc:Work
         rdf:about="">
        <dc:format>image/svg+xml</dc:format>
        <dc:type
           rdf:resource="http://purl.org/dc/dcmitype/StillImage" />
        <dc:title></dc:title>
      </cc:Work>
    </rdf:RDF>
  </metadata>
  <g
     inkscape:label="Layer 1"
     inkscape:groupmode="layer"
     id="layer1"
     transform="translate(0,-87)">
    <g
       id="g243"
       inkscape:label="0"
       transform="matrix(0.26458333,0,0,0.26458333,172.31044,-107.90376)">
      <path
         id="path155"
         style="fill:none;stroke:#000000"
         d="m -306.87794,1158.9916 a 3.779528,3.779528 0 0 1 3.77953,3.7795 v 64.4409 a 3.779528,3.779528 0 0 0 3.77953,3.7796 h 189.35433 l 7.79529,9.6378 v 66.1417 l 1.48179,1.4818 a 3.779528,3.779528 0 0 0 3.476936,2.2977 h 18.897638 a 3.779528,3.779528 0 0 0 1.758956,-0.4342 l 1.624152,-0.6728 1.107023,-2.6725 v -1.8898 l 1.8897,-1.8897 h 58.5827 l 1.336289,0.5534 0.553512,1.3363 v 1.8898 l 0.795079,0.7951 a 3.779528,3.779528 0 0 0 3.694951,2.9844 h 18.897638 a 3.779528,3.779528 0 0 0 3.47693,-2.2977 l 1.481802,-1.4818 33.956155,-0.01 1.456884,1.4569 a 3.779528,3.779528 0 0 0 3.490591,2.3302 h 18.897638 a 3.779528,3.779528 0 0 0 1.783818,-0.4474 l 1.610544,-0.6671 1.107024,-2.6726 v -1.8897 l 1.889699,-1.8898 h 6.364083 a 3.779528,3.779528 0 0 0 0.238847,0.01 h 45.354331 a 3.779528,3.779528 0 0 0 0.23885,-0.01 h 6.38659 l 1.33629,0.5535 0.55351,1.3363 v 1.8897 l 0.77877,0.7788 a 3.779528,3.779528 0 0 0 3.70001,3.0083 h 18.89763 a 3.779528,3.779528 0 0 0 3.47417,-2.2912 l 1.49582,-1.4959 v -66.1417 l 8.13836,-9.6302 h 450 a 3.779528,3.779528 0 0 0 3.77953,-3.7796 v -189.3543 a 3.779528,3.779528 0 0 0 -3.77953,-3.7795 h -981.35433 a 3.779528,3.779528 0 0 0 -3.77953,3.7795 v 45.3543 a 3.779528,3.779528 0 0 0 3.77953,3.7796 h 10.44094 a 3.779528,3.779528 0 0 1 3.77953,3.7795 v 64.4409 a 3.779528,3.779528 0 0 0 3.77953,3.7796 z"
         inkscape:connector-curvature="0" />
      <path
         id="path157"
         style="fill:none;stroke:#000000"
         d="m 322.90169,1335.227 a 6.141735,6.141735 0 1 0 -12.28347,0 6.141735,6.141735 0 1 0 12.28347,0 z"
         inkscape:connector-curvature="0" />
      <path
         id="path159"
         style="fill:none;stroke:#000000"
         d="m -35.901464,930.80242 a 6.141732,6.141732 0 1 0 -12.283464,0 6.141732,6.141732 0 1 0 12.283464,0 z"
         inkscape:connector-curvature="0" />
      <path
         id="path161"
         style="fill:none;stroke:#000000"
         d="m 322.90169,930.80242 a 6.141735,6.141735 0 1 0 -12.28347,0 6.141735,6.141735 0 1 0 12.28347,0 z"
         inkscape:connector-curvature="0" />
      <path
         id="path163"
         style="fill:none;stroke:#000000"
         d="m -35.901464,1335.227 a 6.141732,6.141732 0 1 0 -12.283464,0 6.141732,6.141732 0 1 0 12.283464,0 z"
         inkscape:connector-curvature="0" />
      <path
         id="path165"
         style="fill:none;stroke:#000000"
         d="m 681.70483,1335.227 a 6.141732,6.141732 0 1 0 -12.28346,0 6.141732,6.141732 0 1 0 12.28346,0 z"
         inkscape:connector-curvature="0" />
      <path
         id="path167"
         style="fill:none;stroke:#000000"
         d="m -394.70461,930.80242 a 6.141735,6.141735 0 1 0 -12.28347,0 6.141735,6.141735 0 1 0 12.28347,0 z"
         inkscape:connector-curvature="0" />
      <path
         id="path169"
         style="fill:none;stroke:#000000"
         d="m 681.70483,930.80242 a 6.141732,6.141732 0 1 0 -12.28346,0 6.141732,6.141732 0 1 0 12.28346,0 z"
         inkscape:connector-curvature="0" />
      <path
         id="path171"
         style="fill:none;stroke:#000000"
         d="m -394.70461,1335.227 a 6.141735,6.141735 0 1 0 -12.28347,0 6.141735,6.141735 0 1 0 12.28347,0 z"
         inkscape:connector-curvature="0" />
      <path
         id="path173"
         style="fill:none;stroke:#000000"
         d="m 200.90159,1253.8577 a 3.779528,3.779528 0 0 1 3.77953,-3.7795 h 45.35433 a 3.779528,3.779528 0 0 1 3.77953,3.7795 v 45.3543 a 3.779528,3.779528 0 0 1 -3.77953,3.7796 h -45.35433 a 3.779528,3.779528 0 0 1 -3.77953,-3.7796 z"
         inkscape:connector-curvature="0" />
      <path
         id="path175"
         style="fill:none;stroke:#000000"
         d="m 650.90159,1109.8577 a 3.779528,3.779528 0 0 1 3.77953,-3.7795 h 45.35433 a 3.779528,3.779528 0 0 1 3.77953,3.7795 v 45.3543 a 3.779528,3.779528 0 0 1 -3.77953,3.7796 h -45.35433 a 3.779528,3.779528 0 0 1 -3.77953,-3.7796 z"
         inkscape:connector-curvature="0" />
      <path
         id="path177"
         style="fill:none;stroke:#000000"
         d="m -213.09841,965.85769 a 3.779528,3.779528 0 0 1 3.77953,-3.77952 h 45.35433 a 3.779528,3.779528 0 0 1 3.77953,3.77952 v 45.35431 a 3.779528,3.779528 0 0 1 -3.77953,3.7796 h -45.35433 a 3.779528,3.779528 0 0 1 -3.77953,-3.7796 z"
         inkscape:connector-curvature="0" />
      <path
         id="path179"
         style="fill:none;stroke:#000000"
         d="m -285.09841,965.85769 v 45.35431 a 3.779528,3.779528 0 0 0 3.77953,3.7796 h 45.35433 a 3.779528,3.779528 0 0 0 3.77953,-3.7796 v -45.35431 a 3.779528,3.779528 0 0 0 -3.77953,-3.77952 h -45.35433 a 3.779528,3.779528 0 0 0 -3.77953,3.77952 z"
         inkscape:connector-curvature="0" />
      <path
         id="path181"
         style="fill:none;stroke:#000000"
         d="m 290.90159,965.85769 a 3.779528,3.779528 0 0 1 3.77953,-3.77952 h 45.35433 a 3.779528,3.779528 0 0 1 3.77953,3.77952 v 45.35431 a 3.779528,3.779528 0 0 1 -3.77953,3.7796 h -45.35433 a 3.779528,3.779528 0 0 1 -3.77953,-3.7796 z"
         inkscape:connector-curvature="0" />
      <path
         id="path183"
         style="fill:none;stroke:#000000"
         d="m -199.96455,1250.0782 a 3.779528,3.779528 0 0 1 3.77953,3.7795 v 45.3543 a 3.779528,3.779528 0 0 1 -3.77953,3.7796 h -45.35433 a 3.779528,3.779528 0 0 1 -3.77953,-3.7796 v -45.3543 a 3.779528,3.779528 0 0 1 3.77953,-3.7795 z"
         inkscape:connector-curvature="0" />
      <path
         id="path185"
         style="fill:none;stroke:#000000"
         d="m 650.90159,1181.8577 a 3.779528,3.779528 0 0 1 3.77953,-3.7795 h 45.35433 a 3.779528,3.779528 0 0 1 3.77953,3.7795 v 45.3543 a 3.779528,3.779528 0 0 1 -3.77953,3.7796 h -45.35433 a 3.779528,3.779528 0 0 1 -3.77953,-3.7796 z"
         inkscape:connector-curvature="0" />
      <path
         id="path187"
         style="fill:none;stroke:#000000"
         d="m -357.09841,965.85769 a 3.779528,3.779528 0 0 1 3.77953,-3.77952 h 45.35433 a 3.779528,3.779528 0 0 1 3.77953,3.77952 v 45.35431 a 3.779528,3.779528 0 0 1 -3.77953,3.7796 h -45.35433 a 3.779528,3.779528 0 0 1 -3.77953,-3.7796 z"
         inkscape:connector-curvature="0" />
      <path
         id="path189"
         style="fill:none;stroke:#000000"
         d="m 218.90159,965.85769 v 45.35431 a 3.779528,3.779528 0 0 0 3.77953,3.7796 h 45.35433 a 3.779528,3.779528 0 0 0 3.77953,-3.7796 v -45.35431 a 3.779528,3.779528 0 0 0 -3.77953,-3.77952 h -45.35433 a 3.779528,3.779528 0 0 0 -3.77953,3.77952 z"
         inkscape:connector-curvature="0" />
      <path
         id="path191"
         style="fill:none;stroke:#000000"
         d="m 146.90159,965.85769 a 3.779528,3.779528 0 0 1 3.77953,-3.77952 h 45.35433 a 3.779528,3.779528 0 0 1 3.77953,3.77952 v 45.35431 a 3.779528,3.779528 0 0 1 -3.77953,3.7796 h -45.35433 a 3.779528,3.779528 0 0 1 -3.77953,-3.7796 z"
         inkscape:connector-curvature="0" />
      <path
         id="path193"
         style="fill:none;stroke:#000000"
         d="m -141.09841,965.85769 a 3.779528,3.779528 0 0 1 3.77953,-3.77952 h 45.35433 a 3.779528,3.779528 0 0 1 3.779528,3.77952 v 45.35431 a 3.779528,3.779528 0 0 1 -3.779528,3.7796 h -45.35433 a 3.779528,3.779528 0 0 1 -3.77953,-3.7796 z"
         inkscape:connector-curvature="0" />
      <path
         id="path195"
         style="fill:none;stroke:#000000"
         d="m 74.901592,965.85769 a 3.779528,3.779528 0 0 1 3.779527,-3.77952 h 45.354331 a 3.779528,3.779528 0 0 1 3.77953,3.77952 v 45.35431 a 3.779528,3.779528 0 0 1 -3.77953,3.7796 H 78.681119 a 3.779528,3.779528 0 0 1 -3.779527,-3.7796 z"
         inkscape:connector-curvature="0" />
      <path
         id="path197"
         style="fill:none;stroke:#000000"
         d="m -69.098408,965.85769 v 45.35431 a 3.779528,3.779528 0 0 0 3.779527,3.7796 h 45.354331 a 3.779528,3.779528 0 0 0 3.779528,-3.7796 v -45.35431 a 3.779528,3.779528 0 0 0 -3.779528,-3.77952 h -45.354331 a 3.779528,3.779528 0 0 0 -3.779527,3.77952 z"
         inkscape:connector-curvature="0" />
      <path
         id="path199"
         style="fill:none;stroke:#000000"
         d="m -420.09841,1253.8577 a 3.779528,3.779528 0 0 1 3.77953,-3.7795 h 45.35433 a 3.779528,3.779528 0 0 1 3.77953,3.7795 v 45.3543 a 3.779528,3.779528 0 0 1 -3.77953,3.7796 h -45.35433 a 3.779528,3.779528 0 0 1 -3.77953,-3.7796 z"
         inkscape:connector-curvature="0" />
      <path
         id="path201"
         style="fill:none;stroke:#000000"
         d="m 578.90159,965.85769 a 3.779528,3.779528 0 0 1 3.77953,-3.77952 h 45.35433 a 3.779528,3.779528 0 0 1 3.77953,3.77952 v 45.35431 a 3.779528,3.779528 0 0 1 -3.77953,3.7796 h -45.35433 a 3.779528,3.779528 0 0 1 -3.77953,-3.7796 z"
         inkscape:connector-curvature="0" />
      <path
         id="path203"
         style="fill:none;stroke:#000000"
         d="m 506.90159,965.85769 a 3.779528,3.779528 0 0 1 3.77953,-3.77952 h 45.35433 a 3.779528,3.779528 0 0 1 3.77953,3.77952 v 45.35431 a 3.779528,3.779528 0 0 1 -3.77953,3.7796 h -45.35433 a 3.779528,3.779528 0 0 1 -3.77953,-3.7796 z"
         inkscape:connector-curvature="0" />
      <path
         id="path205"
         style="fill:none;stroke:#000000"
         d="m -280.96455,1250.0782 a 3.779528,3.779528 0 0 1 3.77953,3.7795 v 45.3543 a 3.779528,3.779528 0 0 1 -3.77953,3.7796 h -45.35433 a 3.779528,3.779528 0 0 1 -3.77953,-3.7796 v -45.3543 a 3.779528,3.779528 0 0 1 3.77953,-3.7795 z"
         inkscape:connector-curvature="0" />
      <path
         id="path207"
         style="fill:none;stroke:#000000"
         d="m -127.96455,1250.0782 a 3.779528,3.779528 0 0 1 3.77953,3.7795 v 45.3543 a 3.779528,3.779528 0 0 1 -3.77953,3.7796 h -45.35433 a 3.779528,3.779528 0 0 1 -3.77953,-3.7796 v -45.3543 a 3.779528,3.779528 0 0 1 3.77953,-3.7795 z"
         inkscape:connector-curvature="0" />
      <path
         id="path209"
         style="fill:none;stroke:#000000"
         d="m -379.96455,1034.0782 a 3.779528,3.779528 0 0 1 3.77953,3.7795 v 45.3543 a 3.779528,3.779528 0 0 1 -3.77953,3.7796 h -45.35433 a 3.779528,3.779528 0 0 1 -3.77953,-3.7796 v -45.3543 a 3.779528,3.779528 0 0 1 3.77953,-3.7795 z"
         inkscape:connector-curvature="0" />
      <path
         id="path211"
         style="fill:none;stroke:#000000"
         d="m 434.90159,965.85769 a 3.779528,3.779528 0 0 1 3.77953,-3.77952 h 45.35433 a 3.779528,3.779528 0 0 1 3.77953,3.77952 v 45.35431 a 3.779528,3.779528 0 0 1 -3.77953,3.7796 h -45.35433 a 3.779528,3.779528 0 0 1 -3.77953,-3.7796 z"
         inkscape:connector-curvature="0" />
      <path
         id="path213"
         style="fill:none;stroke:#000000"
         d="m 362.90159,965.85769 a 3.779528,3.779528 0 0 1 3.77953,-3.77952 h 45.35433 a 3.779528,3.779528 0 0 1 3.77953,3.77952 v 45.35431 a 3.779528,3.779528 0 0 1 -3.77953,3.7796 h -45.35433 a 3.779528,3.779528 0 0 1 -3.77953,-3.7796 z"
         inkscape:connector-curvature="0" />
      <path
         id="path215"
         style="fill:none;stroke:#000000"
         d="m 506.90159,1253.8577 a 3.779528,3.779528 0 0 1 3.77953,-3.7795 h 45.35433 a 3.779528,3.779528 0 0 1 3.77953,3.7795 v 45.3543 a 3.779528,3.779528 0 0 1 -3.77953,3.7796 h -45.35433 a 3.779528,3.779528 0 0 1 -3.77953,-3.7796 z"
         inkscape:connector-curvature="0" />
      <path
         id="path217"
         style="fill:none;stroke:#000000"
         d="m 2.901592,965.85769 a 3.779528,3.779528 0 0 1 3.779527,-3.77952 H 52.03545 a 3.779528,3.779528 0 0 1 3.779528,3.77952 v 45.35431 a 3.779528,3.779528 0 0 1 -3.779528,3.7796 H 6.681119 a 3.779528,3.779528 0 0 1 -3.779527,-3.7796 z"
         inkscape:connector-curvature="0" />
      <path
         id="path219"
         style="fill:none;stroke:#000000"
         d="m -402.09841,1181.8577 a 3.779528,3.779528 0 0 1 3.77953,-3.7795 h 45.35433 a 3.779528,3.779528 0 0 1 3.77953,3.7795 v 45.3543 a 3.779528,3.779528 0 0 1 -3.77953,3.7796 h -45.35433 a 3.779528,3.779528 0 0 1 -3.77953,-3.7796 z"
         inkscape:connector-curvature="0" />
      <path
         id="path221"
         style="fill:none;stroke:#000000"
         d="m 650.90159,965.85769 a 3.779528,3.779528 0 0 1 3.77953,-3.77952 h 45.35433 a 3.779528,3.779528 0 0 1 3.77953,3.77952 v 45.35431 a 3.779528,3.779528 0 0 1 -3.77953,3.7796 h -45.35433 a 3.779528,3.779528 0 0 1 -3.77953,-3.7796 z"
         inkscape:connector-curvature="0" />
      <path
         id="path223"
         style="fill:none;stroke:#000000"
         d="m 650.90159,1253.8577 a 3.779528,3.779528 0 0 1 3.77953,-3.7795 h 45.35433 a 3.779528,3.779528 0 0 1 3.77953,3.7795 v 45.3543 a 3.779528,3.779528 0 0 1 -3.77953,3.7796 h -45.35433 a 3.779528,3.779528 0 0 1 -3.77953,-3.7796 z"
         inkscape:connector-curvature="0" />
      <path
         id="path225"
         style="fill:none;stroke:#000000"
         d="m -429.09841,965.85769 a 3.779528,3.779528 0 0 1 3.77953,-3.77952 h 45.35433 a 3.779528,3.779528 0 0 1 3.77953,3.77952 v 45.35431 a 3.779528,3.779528 0 0 1 -3.77953,3.7796 h -45.35433 a 3.779528,3.779528 0 0 1 -3.77953,-3.7796 z"
         inkscape:connector-curvature="0" />
      <path
         id="path227"
         style="fill:none;stroke:#000000"
         d="m 713.35829,952.53553 v -6.7e-4 h -0.002 a 30.689764,30.689764 0 0 1 0.002,6.7e-4 z"
         inkscape:connector-curvature="0" />
      <path
         id="path229"
         style="fill:none;stroke:#000000"
         d="m 650.90159,1037.8577 a 3.779528,3.779528 0 0 1 3.77953,-3.7795 h 45.35433 a 3.779528,3.779528 0 0 1 3.77953,3.7795 v 45.3543 a 3.779528,3.779528 0 0 1 -3.77953,3.7796 h -45.35433 a 3.779528,3.779528 0 0 1 -3.77953,-3.7796 z"
         inkscape:connector-curvature="0" />
      <path
         id="path231"
         style="fill:none;stroke:#000000"
         d="m 578.90159,1253.8577 a 3.779528,3.779528 0 0 1 3.77953,-3.7795 h 45.35433 a 3.779528,3.779528 0 0 1 3.77953,3.7795 v 45.3543 a 3.779528,3.779528 0 0 1 -3.77953,3.7796 h -45.35433 a 3.779528,3.779528 0 0 1 -3.77953,-3.7796 z"
         inkscape:connector-curvature="0" />
      <path
         id="path233"
         style="fill:none;stroke:#000000"
         d="m 425.90159,1253.8577 a 3.779528,3.779528 0 0 1 3.77953,-3.7795 h 45.35433 a 3.779528,3.779528 0 0 1 3.77953,3.7795 v 45.3543 a 3.779528,3.779528 0 0 1 -3.77953,3.7796 h -45.35433 a 3.779528,3.779528 0 0 1 -3.77953,-3.7796 z"
         inkscape:connector-curvature="0" />
      <path
         id="path235"
         style="fill:none;stroke:#000000"
         d="m 272.90159,1253.8577 a 3.779528,3.779528 0 0 1 3.77953,-3.7795 h 45.35433 a 3.779528,3.779528 0 0 1 3.77953,3.7795 v 45.3543 a 3.779528,3.779528 0 0 1 -3.77953,3.7796 h -45.35433 a 3.779528,3.779528 0 0 1 -3.77953,-3.7796 z"
         inkscape:connector-curvature="0" />
      <path
         id="path237"
         style="fill:none;stroke:#000000"
         d="m -420.09841,1109.8577 a 3.779528,3.779528 0 0 1 3.77953,-3.7795 h 45.35433 a 3.779528,3.779528 0 0 1 3.77953,3.7795 v 45.3543 a 3.779528,3.779528 0 0 1 -3.77953,3.7796 h -45.35433 a 3.779528,3.779528 0 0 1 -3.77953,-3.7796 z"
         inkscape:connector-curvature="0" />
      <path
         id="path239"
         style="fill:none;stroke:#000000"
         d="m 344.90159,1253.8577 v 45.3543 a 3.779528,3.779528 0 0 0 3.77953,3.7796 h 45.35433 a 3.779528,3.779528 0 0 0 3.77953,-3.7796 v -45.3543 a 3.779528,3.779528 0 0 0 -3.77953,-3.7795 h -45.35433 a 3.779528,3.779528 0 0 0 -3.77953,3.7795 z"
         inkscape:connector-curvature="0" />
      <path
         id="path241"
         style="fill:none;stroke:#000000"
         d="m -501.45843,981.33455 a 83.60315,83.60315 0 0 1 83.60315,-83.60315 h 1120.608 a 83.60315,83.60315 0 0 1 83.60315,83.60315 v 304.31995 a 83.60315,83.60315 0 0 1 -83.60315,83.6032 h -1120.608 a 83.60315,83.60315 0 0 1 -83.60315,-83.6032 z"
         inkscape:connector-curvature="0" />
    </g>
  </g>
</svg>
