0
SECTION
2
HEADER
9
$INSUNITS
70
4
9
$ACADVER
1
AC1014
9
$HANDSEED
5
FFFF
0
ENDSEC
0
SECTION
2
TABLES
0
TABLE
2
VPORT
5
8
100
AcDbSymbolTable
0
ENDTAB
0
TABLE
2
LTYPE
5
5
100
AcDbSymbolTable
0
LTYPE
5
14
100
AcDbSymbolTableRecord
100
AcDbLinetypeTableRecord
2
BYBLOCK
70
0
0
LTYPE
5
15
100
AcDbSymbolTableRecord
100
AcDbLinetypeTableRecord
2
BYLAYER
70
0
0
ENDTAB
0
TABLE
2
LAYER
5
2
100
AcDbSymbolTable
70
2
0
LAYER
5
50
100
AcDbSymbolTableRecord
100
AcDbLayerTableRecord
2
0
70
0
6
CONTINUOUS
0
ENDTAB
0
TABLE
2
STYLE
5
3
100
AcDbSymbolTable
70
1
0
STYLE
5
11
100
AcDbSymbolTableRecord
100
AcDbTextStyleTableRecord
2
STANDARD
70
0
0
ENDTAB
0
TABLE
2
VIEW
5
6
100
AcDbSymbolTable
70
0
0
ENDTAB
0
TABLE
2
UCS
5
7
100
AcDbSymbolTable
70
0
0
ENDTAB
0
TABLE
2
APPID
5
9
100
AcDbSymbolTable
70
2
0
APPID
5
12
100
AcDbSymbolTableRecord
100
AcDbRegAppTableRecord
2
ACAD
70
0
0
ENDTAB
0
TABLE
2
DIMSTYLE
5
A
100
AcDbSymbolTable
70
1
0
ENDTAB
0
TABLE
2
BLOCK_RECORD
5
1
100
AcDbSymbolTable
70
1
0
BLOCK_RECORD
5
1F
100
AcDbSymbolTableRecord
100
AcDbBlockTableRecord
2
*MODEL_SPACE
0
BLOCK_RECORD
5
1B
100
AcDbSymbolTableRecord
100
AcDbBlockTableRecord
2
*PAPER_SPACE
0
ENDTAB
0
ENDSEC
0
SECTION
2
BLOCKS
0
BLOCK
5
20
100
AcDbEntity
100
AcDbBlockBegin
2
*MODEL_SPACE
0
ENDBLK
5
21
100
AcDbEntity
100
AcDbBlockEnd
0
BLOCK
5
1C
100
AcDbEntity
100
AcDbBlockBegin
2
*PAPER_SPACE
0
ENDBLK
5
1D
100
AcDbEntity
100
AcDbBlockEnd
0
ENDSEC
0
SECTION
2
ENTITIES
0
LWPOLYLINE
5
100
100
AcDbEntity
8
0
100
AcDbPolyline
90
60
70
1
43
0.0
10
-81.194787164503751
20
-9.6498480914119806
42
-0.41421356237309437
10
-80.194787164503765
20
-10.649848091411975
10
-80.194787164503765
20
-27.699848091411965
42
0.41421356237309503
10
-79.194787164503765
20
-28.699848091411969
10
-29.094787164503749
20
-28.699848091411969
10
-27.032284164503682
20
-31.249850091412156
10
-27.032284164503682
20
-48.749849091412081
10
-26.640225416203105
20
-49.141911368269568
42
0.30057119054849951
10
-25.720287164503745
20
-49.74984809141197
10
-20.720287164503741
20
-49.74984809141197
42
0.12161326127253932
10
-20.25489650976651
20
-49.634953474111263
10
-19.82517316450372
20
-49.456963091411943
10
-19.532273164503692
20
-48.74984909141201
10
-19.532273164503692
20
-48.249850091411943
10
-19.032290164503706
20
-47.749848091412019
10
-3.5322841645038183
20
-47.749848091412019
10
-3.1787241645038176
20
-47.896292091412107
10
-3.0322741645038742
20
-48.249850091412014
10
-3.0322741645038742
20
-48.749849091412081
10
-2.8219095389465259
20
-48.960215610266161
42
0.35341215679911486
10
-1.8442871645037506
20
-49.74984809141197
10
3.1557128354962494
20
-49.74984809141197
42
0.30057087661472909
10
4.0756506356603559
20
-49.141912427751322
10
4.4677108354961028
20
-48.74984909141201
10
13.451943537832719
20
-48.747850282645153
10
13.837410656189054
20
-49.133320870233234
42
0.30311340689354171
10
14.760962835496265
20
-49.74984809141197
10
19.760962835496265
20
-49.74984809141197
42
0.12350283345361446
10
20.23293140856973
20
-49.631463464480618
10
20.659054537832638
20
-49.454964282645015
10
20.95195453783267
20
-48.747850282645082
10
20.95195453783267
20
-48.247851282645001
10
21.451937537832645
20
-47.747849282645106
10
23.135767722574151
20
-47.747849282645099
42
0.015810630127794933
10
23.198962835496246
20
-47.749848091411955
10
35.198962835496239
20
-47.749848091411955
42
0.015810630127852485
10
35.262157948418064
20
-47.747849282645106
10
36.951943537832392
20
-47.747849282645106
10
37.305503537832394
20
-47.894293282645194
10
37.451953537832338
20
-48.247851282645087
10
37.451953537832338
20
-48.747850282645153
10
37.658003124909065
20
-48.95390172418297
42
0.35522821279966166
10
38.636962835496256
20
-49.74984809141197
10
43.636962835496256
20
-49.74984809141197
42
0.30006427581545325
10
44.556170293241266
20
-49.143621693404221
10
44.951938537832277
20
-48.747850282645075
10
44.95193853783227
20
-31.2478512826453
10
47.105212835496246
20
-28.699848091411969
10
166.16771283549627
20
-28.699848091411969
42
0.41421356237307683
10
167.1677128354963
20
-27.699848091411962
10
167.1677128354963
20
22.400151908588036
42
0.41421356237307422
10
166.16771283549627
20
23.40015190858805
10
-93.482287164503759
20
23.400151908588036
42
0.41421356237309631
10
-94.482287164503745
20
22.400151908588036
10
-94.482287164503745
20
10.400151908588029
42
0.41421356237309698
10
-93.482287164503759
20
9.4001519085880325
10
-90.719787164503757
20
9.4001519085880219
42
-0.41421356237309404
10
-89.719787164503771
20
8.400151908588029
10
-89.719787164503742
20
-8.6498480914119735
42
0.41421356237309698
10
-88.719787164503742
20
-9.6498480914119753
0
CIRCLE
5
101
100
AcDbEntity
8
0
100
AcDbCircle
10
83.809404361596833
20
-56.278806606518962
30
0
40
1.6249999999999964
210
0
220
0
230
1
0
CIRCLE
5
102
100
AcDbEntity
8
0
100
AcDbCircle
10
-11.123928971736508
20
50.725193393481057
30
0
40
1.6250000000000031
210
0
220
0
230
1
0
CIRCLE
5
103
100
AcDbEntity
8
0
100
AcDbCircle
10
83.809404361596833
20
50.725193393481057
30
0
40
1.6249999999999964
210
0
220
0
230
1
0
CIRCLE
5
104
100
AcDbEntity
8
0
100
AcDbCircle
10
-11.123928971736508
20
-56.278806606518962
30
0
40
1.6250000000000031
210
0
220
0
230
1
0
CIRCLE
5
105
100
AcDbEntity
8
0
100
AcDbCircle
10
178.74273769493018
20
-56.278806606518962
30
0
40
1.6250000000000142
210
0
220
0
230
1
0
CIRCLE
5
106
100
AcDbEntity
8
0
100
AcDbCircle
10
-106.05726230506986
20
50.725193393481057
30
0
40
1.6249999999999964
210
0
220
0
230
1
0
CIRCLE
5
107
100
AcDbEntity
8
0
100
AcDbCircle
10
178.74273769493018
20
50.725193393481057
30
0
40
1.6250000000000142
210
0
220
0
230
1
0
CIRCLE
5
108
100
AcDbEntity
8
0
100
AcDbCircle
10
-106.05726230506986
20
-56.278806606518962
30
0
40
1.6249999999999964
210
0
220
0
230
1
0
LWPOLYLINE
5
109
100
AcDbEntity
8
0
100
AcDbPolyline
90
8
70
1
43
0.0
10
53.155212835496272
20
-34.74984809141197
42
-0.41421356237309503
10
54.155212835496265
20
-33.74984809141197
10
66.155212835496258
20
-33.74984809141197
42
-0.41421356237309631
10
67.155212835496258
20
-34.74984809141197
10
67.155212835496258
20
-46.749848091411963
42
-0.41421356237309503
10
66.155212835496258
20
-47.749848091411955
10
54.155212835496265
20
-47.749848091411955
42
-0.41421356237309503
10
53.155212835496272
20
-46.749848091411963
0
LWPOLYLINE
5
110
100
AcDbEntity
8
0
100
AcDbPolyline
90
8
70
1
43
0.0
10
172.21771283549617
20
3.3501519085880282
42
-0.41421356237310542
10
173.21771283549623
20
4.3501519085880282
10
185.21771283549623
20
4.3501519085880407
42
-0.41421356237307355
10
186.21771283549623
20
3.3501519085880282
10
186.21771283549623
20
-8.6498480914119735
42
-0.41421356237307422
10
185.21771283549623
20
-9.6498480914119735
10
173.21771283549623
20
-9.649848091411986
42
-0.41421356237309437
10
172.21771283549623
20
-8.6498480914119735
0
LWPOLYLINE
5
111
100
AcDbEntity
8
0
100
AcDbPolyline
90
8
70
1
43
0.0
10
-56.382287164503751
20
41.450151908588033
42
-0.41421356237309503
10
-55.382287164503758
20
42.450151908588026
10
-43.382287164503751
20
42.450151908588026
42
-0.41421356237309503
10
-42.382287164503758
20
41.450151908588033
10
-42.382287164503758
20
29.450151908588033
42
-0.41421356237309503
10
-43.382287164503751
20
28.45015190858803
10
-55.382287164503751
20
28.45015190858803
42
-0.41421356237309892
10
-56.382287164503751
20
29.450151908588033
0
LWPOLYLINE
5
112
100
AcDbEntity
8
0
100
AcDbPolyline
90
8
70
1
43
0.0
10
-75.432287164503734
20
41.450151908588033
10
-75.432287164503734
20
29.450151908588033
42
0.41421356237309892
10
-74.432287164503748
20
28.450151908588033
10
-62.432287164503748
20
28.45015190858803
42
0.41421356237309503
10
-61.432287164503748
20
29.450151908588033
10
-61.432287164503748
20
41.450151908588033
42
0.41421356237309503
10
-62.432287164503748
20
42.450151908588026
10
-74.432287164503748
20
42.450151908588026
42
0.41421356237309503
0
LWPOLYLINE
5
113
100
AcDbEntity
8
0
100
AcDbPolyline
90
8
70
1
43
0.0
10
76.967712835496286
20
41.450151908588033
42
-0.41421356237309503
10
77.967712835496286
20
42.450151908588026
10
89.967712835496272
20
42.45015190858804
42
-0.41421356237309764
10
90.967712835496272
20
41.450151908588033
10
90.967712835496272
20
29.450151908588033
42
-0.41421356237309631
10
89.967712835496272
20
28.45015190858803
10
77.967712835496286
20
28.45015190858803
42
-0.41421356237309631
10
76.967712835496286
20
29.450151908588033
0
LWPOLYLINE
5
114
100
AcDbEntity
8
0
100
AcDbPolyline
90
8
70
1
43
0.0
10
-52.907287164503742
20
-33.74984809141197
42
-0.4142135623730937
10
-51.907287164503757
20
-34.74984809141197
10
-51.907287164503757
20
-46.749848091411963
42
-0.41421356237309503
10
-52.907287164503749
20
-47.749848091411955
10
-64.907287164503757
20
-47.749848091411955
42
-0.41421356237309503
10
-65.907287164503742
20
-46.749848091411963
10
-65.907287164503742
20
-34.74984809141197
42
-0.41421356237309503
10
-64.907287164503757
20
-33.74984809141197
0
LWPOLYLINE
5
115
100
AcDbEntity
8
0
100
AcDbPolyline
90
8
70
1
43
0.0
10
172.21771283549617
20
-15.699848091411965
42
-0.41421356237310542
10
173.21771283549623
20
-14.699848091411965
10
185.21771283549623
20
-14.699848091411955
42
-0.41421356237307294
10
186.21771283549623
20
-15.699848091411965
10
186.2177128354962
20
-27.699848091411965
42
-0.41421356237307555
10
185.21771283549623
20
-28.699848091411969
10
173.21771283549623
20
-28.699848091411987
42
-0.41421356237309631
10
172.21771283549623
20
-27.699848091411965
0
LWPOLYLINE
5
116
100
AcDbEntity
8
0
100
AcDbPolyline
90
8
70
1
43
0.0
10
-94.482287164503731
20
41.450151908588033
42
-0.41421356237309764
10
-93.482287164503759
20
42.450151908588026
10
-81.482287164503759
20
42.45015190858804
42
-0.41421356237309764
10
-80.482287164503759
20
41.450151908588033
10
-80.482287164503759
20
29.450151908588033
42
-0.41421356237309631
10
-81.482287164503759
20
28.45015190858803
10
-93.482287164503759
20
28.450151908588026
42
-0.41421356237309764
10
-94.482287164503745
20
29.450151908588033
0
LWPOLYLINE
5
117
100
AcDbEntity
8
0
100
AcDbPolyline
90
8
70
1
43
0.0
10
57.917712835496232
20
41.450151908588033
10
57.917712835496232
20
29.450151908588033
42
0.41421356237309631
10
58.917712835496232
20
28.450151908588033
10
70.91771283549626
20
28.45015190858803
42
0.41421356237309503
10
71.91771283549626
20
29.450151908588033
10
71.91771283549626
20
41.450151908588033
42
0.41421356237309503
10
70.91771283549626
20
42.450151908588026
10
58.917712835496232
20
42.450151908588026
42
0.41421356237309503
0
LWPOLYLINE
5
118
100
AcDbEntity
8
0
100
AcDbPolyline
90
8
70
1
43
0.0
10
38.867712835496256
20
41.450151908588033
42
-0.41421356237309631
10
39.867712835496256
20
42.450151908588026
10
51.867712835496249
20
42.450151908588026
42
-0.41421356237309503
10
52.867712835496249
20
41.450151908588033
10
52.867712835496249
20
29.450151908588033
42
-0.41421356237309503
10
51.867712835496249
20
28.45015190858803
10
39.867712835496256
20
28.45015190858803
42
-0.41421356237309243
10
38.867712835496256
20
29.450151908588033
0
LWPOLYLINE
5
119
100
AcDbEntity
8
0
100
AcDbPolyline
90
8
70
1
43
0.0
10
-37.332287164503754
20
41.450151908588033
42
-0.41421356237309631
10
-36.332287164503754
20
42.450151908588026
10
-24.332287164503764
20
42.450151908588026
42
-0.41421356237309631
10
-23.332287164503761
20
41.450151908588033
10
-23.332287164503761
20
29.450151908588033
42
-0.41421356237309243
10
-24.332287164503761
20
28.45015190858803
10
-36.332287164503761
20
28.45015190858803
42
-0.41421356237309115
10
-37.332287164503754
20
29.450151908588033
0
LWPOLYLINE
5
120
100
AcDbEntity
8
0
100
AcDbPolyline
90
8
70
1
43
0.0
10
19.817712835496245
20
41.450151908588033
42
-0.41421356237309631
10
20.817712835496245
20
42.450151908588026
10
32.817712835496252
20
42.450151908588026
42
-0.41421356237309503
10
33.817712835496259
20
41.450151908588033
10
33.817712835496259
20
29.450151908588033
42
-0.41421356237309243
10
32.817712835496252
20
28.45015190858803
10
20.817712835496245
20
28.45015190858803
42
-0.41421356237309243
10
19.817712835496245
20
29.450151908588033
0
LWPOLYLINE
5
121
100
AcDbEntity
8
0
100
AcDbPolyline
90
8
70
1
43
0.0
10
-18.282287164503742
20
41.450151908588033
10
-18.282287164503742
20
29.450151908588033
42
0.41421356237309115
10
-17.282287164503746
20
28.45015190858803
10
-5.2822871645037495
20
28.45015190858803
42
0.41421356237309309
10
-4.2822871645037486
20
29.450151908588033
10
-4.2822871645037495
20
41.450151908588033
42
0.41421356237309537
10
-5.2822871645037495
20
42.450151908588026
10
-17.282287164503742
20
42.450151908588026
42
0.41421356237309631
0
LWPOLYLINE
5
122
100
AcDbEntity
8
0
100
AcDbPolyline
90
8
70
1
43
0.0
10
-111.15103716450376
20
-34.74984809141197
42
-0.41421356237309631
10
-110.15103716450376
20
-33.74984809141197
10
-98.151037164503776
20
-33.749848091411977
42
-0.41421356237310802
10
-97.151037164503748
20
-34.74984809141197
10
-97.151037164503748
20
-46.749848091411963
42
-0.41421356237311846
10
-98.151037164503776
20
-47.749848091411955
10
-110.15103716450376
20
-47.749848091411963
42
-0.41421356237309764
10
-111.15103716450376
20
-46.749848091411963
0
LWPOLYLINE
5
123
100
AcDbEntity
8
0
100
AcDbPolyline
90
8
70
1
43
0.0
10
153.1677128354963
20
41.450151908588033
42
-0.41421356237309764
10
154.16771283549627
20
42.450151908588026
10
166.16771283549627
20
42.45015190858804
42
-0.41421356237307161
10
167.1677128354963
20
41.450151908588033
10
167.16771283549627
20
29.450151908588033
42
-0.41421356237307555
10
166.16771283549627
20
28.45015190858803
10
154.16771283549627
20
28.450151908588026
42
-0.41421356237309764
10
153.1677128354963
20
29.450151908588033
0
LWPOLYLINE
5
124
100
AcDbEntity
8
0
100
AcDbPolyline
90
8
70
1
43
0.0
10
134.11771283549629
20
41.450151908588033
42
-0.41421356237309764
10
135.11771283549626
20
42.450151908588026
10
147.11771283549626
20
42.45015190858804
42
-0.41421356237309764
10
148.11771283549626
20
41.450151908588033
10
148.11771283549626
20
29.450151908588033
42
-0.41421356237309631
10
147.11771283549626
20
28.45015190858803
10
135.11771283549626
20
28.450151908588026
42
-0.41421356237309764
10
134.11771283549629
20
29.450151908588033
0
LWPOLYLINE
5
125
100
AcDbEntity
8
0
100
AcDbPolyline
90
8
70
1
43
0.0
10
-74.338537164503748
20
-33.74984809141197
42
-0.41421356237309631
10
-73.338537164503762
20
-34.74984809141197
10
-73.338537164503762
20
-46.749848091411963
42
-0.41421356237309503
10
-74.338537164503748
20
-47.749848091411955
10
-86.338537164503748
20
-47.749848091411963
42
-0.41421356237309764
10
-87.338537164503748
20
-46.749848091411963
10
-87.338537164503748
20
-34.74984809141197
42
-0.41421356237309631
10
-86.338537164503748
20
-33.74984809141197
0
LWPOLYLINE
5
126
100
AcDbEntity
8
0
100
AcDbPolyline
90
8
70
1
43
0.0
10
-33.857287164503745
20
-33.74984809141197
42
-0.41421356237309243
10
-32.857287164503745
20
-34.74984809141197
10
-32.857287164503745
20
-46.749848091411948
42
-0.41421356237309631
10
-33.857287164503745
20
-47.749848091411955
10
-45.857287164503745
20
-47.749848091411955
42
-0.41421356237309764
10
-46.857287164503745
20
-46.749848091411963
10
-46.857287164503759
20
-34.74984809141197
42
-0.41421356237309243
10
-45.857287164503752
20
-33.74984809141197
0
LWPOLYLINE
5
127
100
AcDbEntity
8
0
100
AcDbPolyline
90
8
70
1
43
0.0
10
-100.53228716450377
20
23.400151908588029
42
-0.41421356237310936
10
-99.532287164503757
20
22.400151908588036
10
-99.532287164503757
20
10.400151908588029
42
-0.41421356237309437
10
-100.53228716450376
20
9.400151908588029
10
-112.53228716450377
20
9.4001519085880254
42
-0.41421356237309698
10
-113.53228716450376
20
10.400151908588029
10
-113.53228716450376
20
22.400151908588036
42
-0.41421356237309631
10
-112.53228716450377
20
23.400151908588036
0
LWPOLYLINE
5
128
100
AcDbEntity
8
0
100
AcDbPolyline
90
8
70
1
43
0.0
10
115.06771283549628
20
41.450151908588033
42
-0.41421356237309764
10
116.06771283549627
20
42.450151908588026
10
128.06771283549625
20
42.45015190858804
42
-0.41421356237309764
10
129.06771283549625
20
41.450151908588033
10
129.06771283549625
20
29.450151908588033
42
-0.41421356237309631
10
128.06771283549625
20
28.45015190858803
10
116.06771283549627
20
28.450151908588026
42
-0.41421356237309764
10
115.06771283549627
20
29.450151908588033
0
LWPOLYLINE
5
129
100
AcDbEntity
8
0
100
AcDbPolyline
90
8
70
1
43
0.0
10
96.017712835496269
20
41.450151908588033
42
-0.41421356237309764
10
97.017712835496255
20
42.450151908588026
10
109.01771283549624
20
42.45015190858804
42
-0.41421356237309764
10
110.01771283549624
20
41.450151908588033
10
110.01771283549624
20
29.450151908588033
42
-0.41421356237309631
10
109.01771283549624
20
28.45015190858803
10
97.017712835496255
20
28.450151908588026
42
-0.41421356237309764
10
96.017712835496255
20
29.450151908588033
0
LWPOLYLINE
5
130
100
AcDbEntity
8
0
100
AcDbPolyline
90
8
70
1
43
0.0
10
134.11771283549629
20
-34.74984809141197
42
-0.41421356237309631
10
135.11771283549626
20
-33.74984809141197
10
147.11771283549626
20
-33.749848091411963
42
-0.41421356237309764
10
148.11771283549626
20
-34.74984809141197
10
148.11771283549626
20
-46.749848091411963
42
-0.41421356237309764
10
147.11771283549626
20
-47.749848091411955
10
135.11771283549626
20
-47.749848091411963
42
-0.41421356237309764
10
134.11771283549629
20
-46.749848091411963
0
LWPOLYLINE
5
131
100
AcDbEntity
8
0
100
AcDbPolyline
90
8
70
1
43
0.0
10
0.76771283549625313
20
41.450151908588033
42
-0.41421356237309553
10
1.7677128354962512
20
42.450151908588026
10
13.767712835496244
20
42.450151908588026
42
-0.41421356237309503
10
14.767712835496244
20
41.450151908588033
10
14.767712835496244
20
29.450151908588033
42
-0.41421356237309243
10
13.767712835496244
20
28.45015190858803
10
1.7677128354962515
20
28.450151908588033
42
-0.41421356237309293
10
0.76771283549625124
20
29.450151908588033
0
LWPOLYLINE
5
132
100
AcDbEntity
8
0
100
AcDbPolyline
90
8
70
1
43
0.0
10
-106.38853716450376
20
-15.699848091411965
42
-0.41421356237309631
10
-105.38853716450376
20
-14.699848091411965
10
-93.388537164503759
20
-14.699848091411976
42
-0.41421356237310869
10
-92.388537164503759
20
-15.699848091411965
10
-92.388537164503759
20
-27.699848091411965
42
-0.4142135623730937
10
-93.388537164503745
20
-28.699848091411969
10
-105.38853716450376
20
-28.699848091411972
42
-0.41421356237309764
10
-106.38853716450376
20
-27.699848091411965
0
LWPOLYLINE
5
133
100
AcDbEntity
8
0
100
AcDbPolyline
90
8
70
1
43
0.0
10
172.21771283549623
20
41.450151908588033
42
-0.41421356237310542
10
173.21771283549623
20
42.450151908588026
10
185.21771283549623
20
42.45015190858804
42
-0.41421356237307161
10
186.21771283549623
20
41.450151908588033
10
186.2177128354962
20
29.450151908588033
42
-0.41421356237307555
10
185.21771283549623
20
28.45015190858803
10
173.21771283549623
20
28.450151908588012
42
-0.41421356237309631
10
172.21771283549623
20
29.450151908588033
0
LWPOLYLINE
5
134
100
AcDbEntity
8
0
100
AcDbPolyline
90
8
70
1
43
0.0
10
172.21771283549623
20
-34.74984809141197
42
-0.41421356237310675
10
173.21771283549623
20
-33.74984809141197
10
185.21771283549623
20
-33.749848091411948
42
-0.41421356237307555
10
186.21771283549623
20
-34.74984809141197
10
186.2177128354962
20
-46.749848091411963
42
-0.4142135623730846
10
185.21771283549623
20
-47.749848091411955
10
173.21771283549623
20
-47.749848091411977
42
-0.41421356237309503
10
172.21771283549623
20
-46.749848091411963
0
LWPOLYLINE
5
135
100
AcDbEntity
8
0
100
AcDbPolyline
90
8
70
1
43
0.0
10
-113.53228716450374
20
41.450151908588033
42
-0.41421356237309764
10
-112.53228716450377
20
42.450151908588026
10
-100.53228716450377
20
42.450151908588019
42
-0.41421356237310802
10
-99.532287164503757
20
41.450151908588033
10
-99.532287164503757
20
29.450151908588033
42
-0.4142135623730937
10
-100.53228716450376
20
28.45015190858803
10
-112.53228716450377
20
28.450151908588026
42
-0.41421356237309764
10
-113.53228716450376
20
29.450151908588033
0
LWPOLYLINE
5
136
100
AcDbEntity
8
0
100
AcDbPolyline
90
3
70
1
43
0.0
10
188.74271283549629
20
44.974975439909024
10
188.74271283549629
20
44.975151908588032
10
188.74223359501204
20
44.975151908585083
42
-1.5723466267289059e-05
0
LWPOLYLINE
5
137
100
AcDbEntity
8
0
100
AcDbPolyline
90
8
70
1
43
0.0
10
172.21771283549623
20
22.400151908588036
42
-0.41421356237310675
10
173.21771283549623
20
23.400151908588036
10
185.21771283549623
20
23.40015190858805
42
-0.41421356237307422
10
186.21771283549623
20
22.400151908588036
10
186.21771283549623
20
10.400151908588029
42
-0.41421356237307488
10
185.21771283549623
20
9.400151908588029
10
173.21771283549623
20
9.4001519085880183
42
-0.4142135623730937
10
172.21771283549623
20
10.400151908588029
0
LWPOLYLINE
5
138
100
AcDbEntity
8
0
100
AcDbPolyline
90
8
70
1
43
0.0
10
153.1677128354963
20
-34.74984809141197
42
-0.41421356237309631
10
154.16771283549627
20
-33.74984809141197
10
166.16771283549627
20
-33.749848091411948
42
-0.41421356237307555
10
167.1677128354963
20
-34.74984809141197
10
167.16771283549627
20
-46.749848091411963
42
-0.4142135623730846
10
166.16771283549627
20
-47.749848091411955
10
154.16771283549627
20
-47.749848091411963
42
-0.41421356237309764
10
153.1677128354963
20
-46.749848091411963
0
LWPOLYLINE
5
139
100
AcDbEntity
8
0
100
AcDbPolyline
90
8
70
1
43
0.0
10
112.68646283549627
20
-34.74984809141197
42
-0.41421356237309631
10
113.68646283549626
20
-33.74984809141197
10
125.68646283549626
20
-33.749848091411963
42
-0.41421356237309764
10
126.68646283549626
20
-34.74984809141197
10
126.68646283549623
20
-46.749848091411963
42
-0.41421356237309764
10
125.68646283549626
20
-47.749848091411955
10
113.68646283549626
20
-47.749848091411963
42
-0.41421356237309764
10
112.68646283549627
20
-46.749848091411963
0
LWPOLYLINE
5
140
100
AcDbEntity
8
0
100
AcDbPolyline
90
8
70
1
43
0.0
10
72.205212835496241
20
-34.74984809141197
42
-0.41421356237309503
10
73.205212835496241
20
-33.74984809141197
10
85.205212835496241
20
-33.749848091411963
42
-0.41421356237309764
10
86.205212835496226
20
-34.74984809141197
10
86.205212835496212
20
-46.749848091411963
42
-0.41421356237309764
10
85.205212835496241
20
-47.749848091411955
10
73.205212835496241
20
-47.749848091411955
42
-0.41421356237309503
10
72.205212835496241
20
-46.749848091411963
0
LWPOLYLINE
5
141
100
AcDbEntity
8
0
100
AcDbPolyline
90
8
70
1
43
0.0
10
-111.15103716450376
20
3.3501519085880282
42
-0.41421356237309687
10
-110.15103716450376
20
4.3501519085880282
10
-98.151037164503776
20
4.3501519085880203
42
-0.41421356237310936
10
-97.151037164503748
20
3.3501519085880282
10
-97.151037164503748
20
-8.6498480914119735
42
-0.41421356237309404
10
-98.151037164503748
20
-9.6498480914119735
10
-110.15103716450376
20
-9.6498480914119771
42
-0.41421356237309698
10
-111.15103716450376
20
-8.6498480914119735
0
LWPOLYLINE
5
142
100
AcDbEntity
8
0
100
AcDbPolyline
90
8
70
1
43
0.0
10
91.255212835496252
20
-34.74984809141197
10
91.255212835496252
20
-46.749848091411963
42
0.41421356237309764
10
92.255212835496252
20
-47.749848091411955
10
104.25521283549625
20
-47.749848091411955
42
0.41421356237309764
10
105.25521283549624
20
-46.749848091411963
10
105.25521283549624
20
-34.74984809141197
42
0.41421356237309764
10
104.25521283549625
20
-33.74984809141197
10
92.255212835496252
20
-33.74984809141197
42
0.41421356237309631
0
LWPOLYLINE
5
143
100
AcDbEntity
8
0
100
AcDbPolyline
90
8
70
1
43
0.0
10
-132.67754378811264
20
37.355234878374084
42
-0.41421356237309492
10
-110.55754378811261
20
59.475234878374089
10
185.93665621188728
20
59.475234878374096
42
-0.41421356237309576
10
208.05665621188734
20
37.355234878374084
10
208.05665621188734
20
-43.162765121625917
42
-0.41421356237309342
10
185.93665621188734
20
-65.282765121625928
10
-110.55754378811261
20
-65.282765121625943
42
-0.4142135623730947
10
-132.67754378811264
20
-43.162765121625917
0
ENDSEC
0
SECTION
2
OBJECTS
0
DICTIONARY
5
C
100
AcDbDictionary
3
ACAD_GROUP
350
D
3
ACAD_MLINESTYLE
350
17
0
DICTIONARY
5
D
100
AcDbDictionary
0
DICTIONARY
5
1A
330
C
100
AcDbDictionary
0
DICTIONARY
5
17
100
AcDbDictionary
0
ENDSEC
0
EOF
