0
SECTION
2
HEADER
9
$INSUNITS
70
4
9
$ACADVER
1
AC1014
9
$HANDSEED
5
FFFF
0
ENDSEC
0
SECTION
2
TABLES
0
TABLE
2
VPORT
5
8
100
AcDbSymbolTable
0
ENDTAB
0
TABLE
2
LTYPE
5
5
100
AcDbSymbolTable
0
LTYPE
5
14
100
AcDbSymbolTableRecord
100
AcDbLinetypeTableRecord
2
BYBLOCK
70
0
0
LTYPE
5
15
100
AcDbSymbolTableRecord
100
AcDbLinetypeTableRecord
2
BYLAYER
70
0
0
ENDTAB
0
TABLE
2
LAYER
5
2
100
AcDbSymbolTable
70
2
0
LAYER
5
50
100
AcDbSymbolTableRecord
100
AcDbLayerTableRecord
2
0
70
0
6
CONTINUOUS
0
ENDTAB
0
TABLE
2
STYLE
5
3
100
AcDbSymbolTable
70
1
0
STYLE
5
11
100
AcDbSymbolTableRecord
100
AcDbTextStyleTableRecord
2
STANDARD
70
0
0
ENDTAB
0
TABLE
2
VIEW
5
6
100
AcDbSymbolTable
70
0
0
ENDTAB
0
TABLE
2
UCS
5
7
100
AcDbSymbolTable
70
0
0
ENDTAB
0
TABLE
2
APPID
5
9
100
AcDbSymbolTable
70
2
0
APPID
5
12
100
AcDbSymbolTableRecord
100
AcDbRegAppTableRecord
2
ACAD
70
0
0
ENDTAB
0
TABLE
2
DIMSTYLE
5
A
100
AcDbSymbolTable
70
1
0
ENDTAB
0
TABLE
2
BLOCK_RECORD
5
1
100
AcDbSymbolTable
70
1
0
BLOCK_RECORD
5
1F
100
AcDbSymbolTableRecord
100
AcDbBlockTableRecord
2
*MODEL_SPACE
0
BLOCK_RECORD
5
1B
100
AcDbSymbolTableRecord
100
AcDbBlockTableRecord
2
*PAPER_SPACE
0
ENDTAB
0
ENDSEC
0
SECTION
2
BLOCKS
0
BLOCK
5
20
100
AcDbEntity
100
AcDbBlockBegin
2
*MODEL_SPACE
0
ENDBLK
5
21
100
AcDbEntity
100
AcDbBlockEnd
0
BLOCK
5
1C
100
AcDbEntity
100
AcDbBlockBegin
2
*PAPER_SPACE
0
ENDBLK
5
1D
100
AcDbEntity
100
AcDbBlockEnd
0
ENDSEC
0
SECTION
2
ENTITIES
0
LWPOLYLINE
5
100
100
AcDbEntity
8
0
100
AcDbPolyline
90
42
70
1
43
0.0
10
250.50132880594009
20
-16.264031205223365
10
250.48147767002123
20
-21.574999999999996
10
241.65000000000003
20
-21.574999999999996
42
0.41421356237307555
10
240.65000000000001
20
-22.574999999999999
10
240.65000000000001
20
-34.575000000000003
42
0.41421356237307555
10
241.65000000000003
20
-35.575000000000017
10
253.65000000000003
20
-35.575000000000003
42
0.41421356237310675
10
254.65000000000003
20
-34.575000000000003
10
254.65000000000003
20
-22.574999999999999
10
264.46249999999998
20
-22.574999999999999
10
264.46249999999998
20
-34.575000000000003
42
0.41421356237309631
10
265.46249999999998
20
-35.575000000000017
10
277.46249999999998
20
-35.575000000000003
42
0.41421356237307555
10
278.46249999999998
20
-34.575000000000003
10
278.46249999999998
20
-21.173190976676366
10
281.8927039877222
20
-21.167641175866269
42
0.41483458089566488
10
282.89107908297319
20
-20.163904749076703
10
282.87657536821246
20
-16.283583904086356
42
0.14429789848462296
10
283.18384164359878
20
-15.80894137159067
10
283.41399237796543
20
-15.57878948646232
10
283.41399237796549
20
-3.4131047644592503
10
283.15279227363601
20
-3.1519028317162636
42
0.13680037584190993
10
282.82589913568069
20
-2.7256751419239893
10
282.82523875766435
20
-2.5489977441127376
10
282.82385760817613
20
-1.0000137312497606
42
0.41395242870914828
10
281.82385800569455
20
-0.00090537953513880609
10
274.60881889715455
20
-0.00090537953515656966
42
0.41421356237307161
10
273.60881889715455
20
-1.000905379535153
10
273.60881889715455
20
-2.0064162946209141
42
-0.35571604630449033
10
273.20999757414393
20
-2.4960721690089054
10
260.16783351667908
20
-2.49607216900892
42
-0.35571604630453618
10
259.7690121936684
20
-2.0064162946209052
10
259.7690121936684
20
-1.000905379535153
42
0.41421356237306955
10
258.7690121936684
20
-0.00090537953516545144
10
251.5539730851284
20
-0.00090537953513825098
42
0.41395242870914661
10
250.55397348264682
20
-1.0000137312497515
10
250.55259233315863
20
-2.5489977441127376
10
250.55186763400542
20
-2.7428836055611954
42
0.11909462001430929
10
250.2635122894705
20
-3.1136726929152547
10
249.96408231395105
20
-3.4131047644592161
10
249.96408231395117
20
-15.578789486462357
10
250.22621549256755
20
-15.840923975753862
42
0.12824643586021353
0
LWPOLYLINE
5
101
100
AcDbEntity
8
0
100
AcDbPolyline
90
25
70
1
43
0.0
10
15.237874858710594
20
-58.872675389269659
10
15.011346648256936
20
-58.872675389269645
42
-0.41421356237313145
10
14.511346648256929
20
-58.372675389269652
10
14.511346648256929
20
-57.367164474183895
42
0.41421356237308854
10
13.511346648256914
20
-56.367164474183923
10
6.2963075397169099
20
-56.36716447418388
42
0.41395242870914967
10
5.2963079372353477
20
-57.366272825898513
10
5.2949267877471184
20
-58.915256838761493
10
5.2290864624383193
20
-76.530163843725489
42
0.41483458089569492
10
6.2274615576892689
20
-77.533900270515034
10
6.7496873120395211
20
-77.534745190795263
42
0.035099298395248064
10
6.8895666777143871
20
-77.544576637942569
10
30.036221768080882
20
-77.544576637942569
10
36.635038442310723
20
-77.533900270515034
42
0.41483458089568837
10
37.633413537561673
20
-76.530163843725489
10
37.567573212252874
20
-58.915256838761493
10
37.566192062764628
20
-57.366272825898506
42
0.41395242870914872
10
36.566192460283077
20
-56.36716447418388
10
29.351153351743076
20
-56.367164474183902
42
0.41421356237308854
10
28.351153351743061
20
-57.367164474183895
10
28.351153351743061
20
-58.372675389269659
42
-0.41421356237312623
10
27.851153351743054
20
-58.872675389269645
10
27.624625141289396
20
-58.872675389269673
42
0.026727159214005328
10
27.431249999999991
20
-58.862331263657666
10
15.431250000000002
20
-58.862331263657673
42
0.026727159214095152
0
LWPOLYLINE
5
102
100
AcDbEntity
8
0
100
AcDbPolyline
90
41
70
1
43
0.0
10
280.4550732122529
20
-39.865256838761482
10
280.45369206276467
20
-38.316272825898508
42
0.41395242870914872
10
279.45369246028315
20
-37.31716447418389
10
272.23865335174315
20
-37.317164474183912
42
0.41421356237307161
10
271.2386533517431
20
-38.317164474183905
10
271.2386533517431
20
-39.322675389269662
42
-0.41421356237312623
10
270.7386533517431
20
-39.822675389269655
10
270.51212514128946
20
-39.822675389269676
42
0.026727159214045421
10
270.31875000000002
20
-39.812331263657661
10
258.31875000000002
20
-39.812331263657669
42
0.02672715921406521
10
258.12537485871064
20
-39.822675389269662
10
257.89884664825701
20
-39.822675389269655
42
-0.41421356237313145
10
257.39884664825701
20
-39.322675389269655
10
257.39884664825701
20
-38.317164474183905
42
0.41421356237306772
10
256.39884664825695
20
-37.317164474183919
10
249.18380753971695
20
-37.31716447418389
42
0.41395242870914611
10
248.18380793723543
20
-38.316272825898501
10
248.18242678774715
20
-39.865256838761482
10
248.11658646243836
20
-57.480163843725485
42
0.041681039824971823
10
248.1298167397168
20
-57.646072169008981
10
244.79391054541153
20
-57.64607216900896
10
243.7939175454116
20
-58.646073169008986
10
243.60354156633474
20
-59.73397862019489
42
0.0026140985337149087
10
243.59406180586882
20
-59.7383909694218
10
243.59406664359656
20
-59.775021050926853
42
0.17572894172653364
10
243.11851228947049
20
-60.263672692915264
10
242.81908231395104
20
-60.563104764459226
10
242.81908231395113
20
-72.728789486462361
10
243.08121549256754
20
-72.990923975753873
42
0.20226625478219057
10
243.59407016992475
20
-73.574980657153588
10
243.59391262767508
20
-76.228909553660898
10
244.7110674228847
20
-77.346072169008806
10
274.37676266793829
20
-77.346072169008806
10
275.49391002736223
20
-76.22891698949843
10
275.49398765592144
20
-73.674999999999997
10
282.22500000000002
20
-73.674999999999997
42
0.41421356237310542
10
283.22500000000002
20
-72.674999999999997
10
283.22500000000002
20
-60.674999999999997
42
0.41421356237309503
10
282.22500000000002
20
-59.674999999999983
10
282.02352114766688
20
-59.674999999999955
42
-0.41311922565777665
10
280.52353162570415
20
-58.180606603432992
0
LWPOLYLINE
5
103
100
AcDbEntity
8
0
100
AcDbPolyline
90
8
70
1
43
0.0
10
134.58750000000003
20
-59.674999999999997
42
-0.41421356237309764
10
135.58750000000001
20
-60.674999999999997
10
135.58750000000001
20
-72.674999999999997
42
-0.41421356237309764
10
134.58750000000003
20
-73.674999999999997
10
122.58750000000001
20
-73.674999999999997
42
-0.41421356237309503
10
121.58750000000001
20
-72.674999999999997
10
121.58750000000001
20
-60.674999999999997
42
-0.41421356237309503
10
122.58750000000001
20
-59.675000000000004
0
LWPOLYLINE
5
104
100
AcDbEntity
8
0
100
AcDbPolyline
90
8
70
1
43
0.0
10
164.44999999999996
20
-22.574999999999999
10
164.44999999999996
20
-34.575000000000003
42
0.41421356237307555
10
165.44999999999999
20
-35.575000000000003
10
177.45000000000002
20
-35.575000000000003
42
0.41421356237307555
10
178.45000000000002
20
-34.575000000000003
10
178.45000000000002
20
-22.574999999999999
42
0.41421356237307422
10
177.45000000000002
20
-21.574999999999996
10
165.44999999999999
20
-21.574999999999996
42
0.41421356237307555
0
LWPOLYLINE
5
105
100
AcDbEntity
8
0
100
AcDbPolyline
90
8
70
1
43
0.0
10
331.13749999999987
20
-22.574999999999999
42
-0.4142135623730781
10
332.13749999999999
20
-21.574999999999996
10
344.13749999999999
20
-21.574999999999996
42
-0.41421356237313273
10
345.13750000000005
20
-22.574999999999999
10
345.1375000000001
20
-34.575000000000003
42
-0.4142135623730781
10
344.13749999999999
20
-35.575000000000003
10
332.13749999999999
20
-35.57500000000001
42
-0.41421356237313406
10
331.13749999999993
20
-34.575000000000003
0
LWPOLYLINE
5
106
100
AcDbEntity
8
0
100
AcDbPolyline
90
8
70
1
43
0.0
10
88.250000000000014
20
-22.574999999999999
42
-0.41421356237309631
10
89.25
20
-21.574999999999996
10
101.25
20
-21.574999999999992
42
-0.41421356237309764
10
102.25
20
-22.574999999999999
10
102.25
20
-34.575000000000003
42
-0.41421356237309631
10
101.25
20
-35.575000000000003
10
89.25
20
-35.57500000000001
42
-0.41421356237309764
10
88.250000000000014
20
-34.575000000000003
0
LWPOLYLINE
5
107
100
AcDbEntity
8
0
100
AcDbPolyline
90
8
70
1
43
0.0
10
293.03750000000002
20
-79.724999999999994
42
-0.41421356237310542
10
294.03750000000002
20
-78.725000000000009
10
306.03750000000002
20
-78.724999999999994
42
-0.41421356237309243
10
307.03750000000008
20
-79.724999999999994
10
307.03750000000008
20
-91.724999999999994
42
-0.41421356237310542
10
306.03750000000002
20
-92.724999999999994
10
294.03750000000002
20
-92.725000000000023
42
-0.41421356237310025
10
293.03750000000002
20
-91.724999999999994
0
LWPOLYLINE
5
108
100
AcDbEntity
8
0
100
AcDbPolyline
90
8
70
1
43
0.0
10
226.36250000000004
20
-41.625000000000007
10
226.36250000000004
20
-53.625000000000007
42
0.41421356237307161
10
227.36250000000001
20
-54.625
10
239.36250000000001
20
-54.625
42
0.41421356237310542
10
240.36250000000001
20
-53.625000000000007
10
240.36250000000001
20
-41.625000000000007
42
0.41421356237309503
10
239.36250000000001
20
-40.625
10
227.36250000000001
20
-40.625000000000007
42
0.4142135623730846
0
LWPOLYLINE
5
109
100
AcDbEntity
8
0
100
AcDbPolyline
90
8
70
1
43
0.0
10
2.5249999999999999
20
-3.5250000000000004
42
-0.41421356237309492
10
3.5250000000000004
20
-2.5250000000000004
10
15.525000000000002
20
-2.5249999999999999
42
-0.41421356237309492
10
16.525000000000002
20
-3.5250000000000004
10
16.525000000000002
20
-15.525000000000002
42
-0.4142135623730937
10
15.525000000000002
20
-16.525000000000002
10
3.5250000000000092
20
-16.525000000000002
42
-0.4142135623730962
10
2.5250000000000004
20
-15.525000000000002
0
LWPOLYLINE
5
110
100
AcDbEntity
8
0
100
AcDbPolyline
90
8
70
1
43
0.0
10
102.53749999999999
20
-60.674999999999997
42
-0.41421356237309503
10
103.53749999999999
20
-59.675000000000004
10
115.53750000000001
20
-59.674999999999997
42
-0.41421356237309764
10
116.53750000000001
20
-60.674999999999997
10
116.53749999999999
20
-72.674999999999997
42
-0.41421356237309764
10
115.53750000000001
20
-73.674999999999997
10
103.53749999999999
20
-73.674999999999997
42
-0.41421356237309503
10
102.53749999999999
20
-72.674999999999997
0
LWPOLYLINE
5
111
100
AcDbEntity
8
0
100
AcDbPolyline
90
12
70
1
43
0.0
10
65.555597930551542
20
-92.724999999999994
42
-0.0061367472275967987
10
65.531053714758642
20
-92.725301254641607
10
53.531053714758663
20
-92.725301254641607
42
-0.41421356237307944
10
52.53105371475867
20
-91.725301254641636
10
52.531053714758656
20
-79.725301254641636
42
-0.41421356237309503
10
53.531053714758656
20
-78.72530125464165
10
55.887955784206383
20
-78.72530125464165
42
-0.0061367472281407178
10
55.912500000000009
20
-78.725000000000009
10
67.912499999999994
20
-78.725000000000009
42
-0.41421356237309503
10
68.912499999999994
20
-79.724999999999994
10
68.912500000000009
20
-91.724999999999994
42
-0.41421356237309764
10
67.912499999999994
20
-92.724999999999994
0
LWPOLYLINE
5
112
100
AcDbEntity
8
0
100
AcDbPolyline
90
8
70
1
43
0.0
10
135.875
20
-3.5250000000000004
42
-0.41421356237309687
10
136.875
20
-2.5250000000000004
10
148.875
20
-2.5250000000000061
42
-0.41421356237309437
10
149.875
20
-3.5250000000000004
10
149.875
20
-15.525000000000002
42
-0.4142135623730937
10
148.875
20
-16.525000000000002
10
136.875
20
-16.525000000000006
42
-0.41421356237309764
10
135.875
20
-15.525000000000002
0
LWPOLYLINE
5
113
100
AcDbEntity
8
0
100
AcDbPolyline
90
8
70
1
43
0.0
10
207.31250000000003
20
-41.625000000000007
42
-0.4142135623730846
10
208.3125
20
-40.625000000000007
10
220.3125
20
-40.624999999999993
42
-0.41421356237309503
10
221.3125
20
-41.625000000000007
10
221.3125
20
-53.625000000000007
42
-0.41421356237310542
10
220.3125
20
-54.625
10
208.3125
20
-54.625000000000014
42
-0.41421356237307161
10
207.3125
20
-53.625000000000007
0
LWPOLYLINE
5
114
100
AcDbEntity
8
0
100
AcDbPolyline
90
8
70
1
43
0.0
10
216.83750000000003
20
-60.674999999999997
42
-0.4142135623730846
10
217.83750000000001
20
-59.675000000000004
10
229.83750000000001
20
-59.674999999999983
42
-0.41421356237309503
10
230.83750000000003
20
-60.674999999999997
10
230.83750000000003
20
-72.674999999999997
42
-0.41421356237310542
10
229.83750000000001
20
-73.674999999999997
10
217.83750000000001
20
-73.675000000000011
42
-0.41421356237307161
10
216.83750000000001
20
-72.674999999999997
0
LWPOLYLINE
5
115
100
AcDbEntity
8
0
100
AcDbPolyline
90
12
70
1
43
0.0
10
279.84355371475834
20
-78.725301254641636
10
277.48704421579362
20
-78.725301254641636
42
0.006136747228142979
10
277.46249999999998
20
-78.724999999999994
10
265.46249999999998
20
-78.725000000000009
42
0.41421356237310542
10
264.46249999999998
20
-79.724999999999994
10
264.46249999999998
20
-91.724999999999994
42
0.41421356237310025
10
265.46249999999998
20
-92.724999999999994
10
267.81900949896828
20
-92.724999999999994
42
0.0061367472268843079
10
267.84355371475829
20
-92.725301254641593
10
279.84355371475834
20
-92.725301254641593
42
0.41421356237310542
10
280.84355371475829
20
-91.725301254641607
10
280.84355371475829
20
-79.725301254641622
42
0.41421356237309764
0
LWPOLYLINE
5
116
100
AcDbEntity
8
0
100
AcDbPolyline
90
8
70
1
43
0.0
10
64.4375
20
-60.674999999999997
42
-0.41421356237309503
10
65.4375
20
-59.675000000000004
10
77.4375
20
-59.675000000000004
42
-0.41421356237309503
10
78.4375
20
-60.674999999999997
10
78.4375
20
-72.674999999999997
42
-0.41421356237309503
10
77.4375
20
-73.674999999999997
10
65.4375
20
-73.674999999999997
42
-0.41421356237309503
10
64.4375
20
-72.674999999999997
0
LWPOLYLINE
5
117
100
AcDbEntity
8
0
100
AcDbPolyline
90
8
70
1
43
0.0
10
21.574999999999996
20
-3.5250000000000004
42
-0.41421356237309265
10
22.574999999999999
20
-2.5250000000000004
10
34.575000000000003
20
-2.5249999999999972
42
-0.41421356237309309
10
35.575000000000003
20
-3.5250000000000004
10
35.575000000000003
20
-15.525000000000002
42
-0.41421356237309243
10
34.575000000000003
20
-16.525000000000002
10
22.575000000000003
20
-16.525000000000002
42
-0.41421356237309309
10
21.574999999999996
20
-15.525000000000002
0
LWPOLYLINE
5
118
100
AcDbEntity
8
0
100
AcDbPolyline
90
8
70
1
43
0.0
10
7.2874999999999988
20
-22.574999999999999
42
-0.41421356237309243
10
8.2874999999999979
20
-21.574999999999996
10
20.287500000000005
20
-21.574999999999996
42
-0.41421356237308854
10
21.287500000000001
20
-22.574999999999999
10
21.287500000000005
20
-34.575000000000003
42
-0.41421356237309115
10
20.287500000000001
20
-35.575000000000003
10
8.2875000000000032
20
-35.575000000000003
42
-0.41421356237309404
10
7.2874999999999996
20
-34.575000000000003
0
LWPOLYLINE
5
119
100
AcDbEntity
8
0
100
AcDbPolyline
90
8
70
1
43
0.0
10
126.34999999999999
20
-22.574999999999999
42
-0.41421356237309631
10
127.34999999999999
20
-21.574999999999996
10
139.34999999999999
20
-21.575000000000003
42
-0.41421356237309503
10
140.34999999999999
20
-22.574999999999999
10
140.34999999999999
20
-34.575000000000003
42
-0.4142135623730937
10
139.34999999999999
20
-35.575000000000003
10
127.34999999999999
20
-35.57500000000001
42
-0.41421356237309764
10
126.34999999999999
20
-34.575000000000003
0
LWPOLYLINE
5
120
100
AcDbEntity
8
0
100
AcDbPolyline
90
8
70
1
43
0.0
10
188.26250000000002
20
-41.625000000000007
42
-0.4142135623730846
10
189.26249999999999
20
-40.625000000000007
10
201.26249999999999
20
-40.624999999999993
42
-0.41421356237309503
10
202.26249999999999
20
-41.625000000000007
10
202.26249999999999
20
-53.625000000000007
42
-0.41421356237310542
10
201.26249999999999
20
-54.625
10
189.26249999999999
20
-54.625000000000014
42
-0.41421356237307161
10
188.26249999999999
20
-53.625000000000007
0
LWPOLYLINE
5
121
100
AcDbEntity
8
0
100
AcDbPolyline
90
8
70
1
43
0.0
10
150.16250000000002
20
-41.625000000000007
42
-0.41421356237309764
10
151.16250000000002
20
-40.625000000000007
10
163.16249999999999
20
-40.624999999999993
42
-0.41421356237307422
10
164.16250000000002
20
-41.625000000000007
10
164.16249999999997
20
-53.625000000000007
42
-0.41421356237310025
10
163.16249999999999
20
-54.625
10
151.16250000000002
20
-54.625000000000014
42
-0.41421356237309764
10
150.16250000000002
20
-53.625000000000007
0
LWPOLYLINE
5
122
100
AcDbEntity
8
0
100
AcDbPolyline
90
8
70
1
43
0.0
10
312.08750000000003
20
-79.724999999999994
42
-0.41421356237310025
10
313.08749999999998
20
-78.725000000000009
10
325.08749999999998
20
-78.725000000000009
42
-0.41421356237313145
10
326.08749999999998
20
-79.724999999999994
10
326.08750000000009
20
-91.724999999999994
42
-0.41421356237307422
10
325.08749999999998
20
-92.724999999999994
10
313.08749999999998
20
-92.725000000000023
42
-0.414213562373069
10
312.08749999999998
20
-91.724999999999994
0
LWPOLYLINE
5
123
100
AcDbEntity
8
0
100
AcDbPolyline
90
8
70
1
43
0.0
10
173.97499999999997
20
-3.5250000000000004
42
-0.41421356237307422
10
174.97499999999999
20
-2.5250000000000004
10
186.97500000000002
20
-2.5249999999999884
42
-0.41421356237307355
10
187.97500000000002
20
-3.5250000000000004
10
187.97500000000002
20
-15.525000000000002
42
-0.41421356237307422
10
186.97500000000002
20
-16.525000000000002
10
174.97499999999999
20
-16.525000000000013
42
-0.41421356237307294
10
173.97499999999997
20
-15.525000000000002
0
LWPOLYLINE
5
124
100
AcDbEntity
8
0
100
AcDbPolyline
90
8
70
1
43
0.0
10
59.675000000000004
20
-3.5250000000000004
42
-0.41421356237309537
10
60.674999999999997
20
-2.5250000000000004
10
72.674999999999997
20
-2.5250000000000021
42
-0.41421356237309553
10
73.674999999999997
20
-3.5250000000000004
10
73.674999999999997
20
-15.525000000000002
42
-0.41421356237309503
10
72.674999999999997
20
-16.525000000000002
10
60.675000000000011
20
-16.525000000000002
42
-0.41421356237309631
10
59.675000000000004
20
-15.525000000000002
0
LWPOLYLINE
5
125
100
AcDbEntity
8
0
100
AcDbPolyline
90
8
70
1
43
0.0
10
212.07499999999999
20
-3.5250000000000004
42
-0.41421356237307422
10
213.07500000000002
20
-2.5250000000000004
10
225.07499999999999
20
-2.5249999999999884
42
-0.41421356237309437
10
226.07500000000002
20
-3.5250000000000004
10
226.07500000000005
20
-15.525000000000002
42
-0.41421356237310542
10
225.07499999999999
20
-16.525000000000002
10
213.07500000000002
20
-16.525000000000013
42
-0.41421356237307294
10
212.07499999999999
20
-15.525000000000002
0
LWPOLYLINE
5
126
100
AcDbEntity
8
0
100
AcDbPolyline
90
8
70
1
43
0.0
10
169.21250000000001
20
-41.625000000000007
42
-0.41421356237310802
10
170.21250000000003
20
-40.625000000000007
10
182.21250000000001
20
-40.624999999999993
42
-0.41421356237307422
10
183.21250000000003
20
-41.625000000000007
10
183.21249999999998
20
-53.625000000000007
42
-0.41421356237310025
10
182.21250000000001
20
-54.625
10
170.21250000000003
20
-54.625000000000014
42
-0.41421356237309243
10
169.21250000000001
20
-53.625000000000007
0
LWPOLYLINE
5
127
100
AcDbEntity
8
0
100
AcDbPolyline
90
8
70
1
43
0.0
10
54.912500000000009
20
-41.625000000000007
42
-0.41421356237309503
10
55.912500000000009
20
-40.625000000000007
10
67.912499999999994
20
-40.625000000000007
42
-0.41421356237309503
10
68.912499999999994
20
-41.625000000000007
10
68.912499999999994
20
-53.625000000000007
42
-0.41421356237309503
10
67.912499999999994
20
-54.625
10
55.912500000000009
20
-54.625
42
-0.41421356237309503
10
54.912500000000009
20
-53.625000000000007
0
LWPOLYLINE
5
128
100
AcDbEntity
8
0
100
AcDbPolyline
90
8
70
1
43
0.0
10
83.487500000000026
20
-60.674999999999997
42
-0.41421356237309764
10
84.487500000000011
20
-59.675000000000004
10
96.487499999999997
20
-59.674999999999997
42
-0.41421356237309764
10
97.487499999999997
20
-60.674999999999997
10
97.487499999999983
20
-72.674999999999997
42
-0.41421356237309764
10
96.487499999999997
20
-73.674999999999997
10
84.487500000000011
20
-73.675000000000011
42
-0.41421356237309764
10
83.487500000000011
20
-72.674999999999997
0
LWPOLYLINE
5
129
100
AcDbEntity
8
0
100
AcDbPolyline
90
8
70
1
43
0.0
10
69.200000000000003
20
-22.574999999999999
42
-0.41421356237309503
10
70.200000000000003
20
-21.574999999999996
10
82.200000000000003
20
-21.575000000000003
42
-0.41421356237309503
10
83.200000000000003
20
-22.574999999999999
10
83.200000000000003
20
-34.575000000000003
42
-0.4142135623730937
10
82.200000000000003
20
-35.575000000000003
10
70.200000000000017
20
-35.575000000000003
42
-0.41421356237309631
10
69.200000000000003
20
-34.575000000000003
0
LWPOLYLINE
5
130
100
AcDbEntity
8
0
100
AcDbPolyline
90
8
70
1
43
0.0
10
97.77500000000002
20
-3.5250000000000004
42
-0.41421356237309687
10
98.775000000000006
20
-2.5250000000000004
10
110.77500000000001
20
-2.5249999999999977
42
-0.41421356237309687
10
111.77500000000001
20
-3.5250000000000004
10
111.77500000000001
20
-15.525000000000002
42
-0.41421356237309631
10
110.77500000000001
20
-16.525000000000002
10
98.775000000000006
20
-16.525000000000006
42
-0.41421356237309764
10
97.77500000000002
20
-15.525000000000002
0
LWPOLYLINE
5
131
100
AcDbEntity
8
0
100
AcDbPolyline
90
8
70
1
43
0.0
10
93.012500000000031
20
-41.625000000000007
42
-0.41421356237309764
10
94.012500000000017
20
-40.625000000000007
10
106.0125
20
-40.625
42
-0.41421356237309764
10
107.0125
20
-41.625000000000007
10
107.01249999999999
20
-53.625000000000007
42
-0.41421356237309764
10
106.0125
20
-54.625
10
94.012500000000017
20
-54.625000000000014
42
-0.41421356237309764
10
93.012500000000017
20
-53.625000000000007
0
LWPOLYLINE
5
132
100
AcDbEntity
8
0
100
AcDbPolyline
90
8
70
1
43
0.0
10
45.38750000000001
20
-60.674999999999997
42
-0.41421356237309503
10
46.38750000000001
20
-59.675000000000004
10
58.38750000000001
20
-59.675000000000004
42
-0.41421356237309503
10
59.387500000000003
20
-60.674999999999997
10
59.387500000000003
20
-72.674999999999997
42
-0.41421356237309503
10
58.38750000000001
20
-73.674999999999997
10
46.38750000000001
20
-73.674999999999997
42
-0.41421356237309503
10
45.38750000000001
20
-72.674999999999997
0
LWPOLYLINE
5
133
100
AcDbEntity
8
0
100
AcDbPolyline
90
8
70
1
43
0.0
10
312.08750000000003
20
-60.674999999999997
42
-0.4142135623730846
10
313.08749999999998
20
-59.675000000000004
10
325.08749999999998
20
-59.674999999999997
42
-0.41421356237313406
10
326.08749999999998
20
-60.674999999999997
10
326.08750000000009
20
-72.674999999999997
42
-0.41421356237307683
10
325.08749999999998
20
-73.674999999999997
10
313.08749999999998
20
-73.675000000000011
42
-0.41421356237306123
10
312.08749999999998
20
-72.674999999999997
0
LWPOLYLINE
5
134
100
AcDbEntity
8
0
100
AcDbPolyline
90
8
70
1
43
0.0
10
112.0625
20
-41.625000000000007
42
-0.41421356237309503
10
113.0625
20
-40.625000000000007
10
125.06250000000001
20
-40.625
42
-0.41421356237309764
10
126.06250000000001
20
-41.625000000000007
10
126.0625
20
-53.625000000000007
42
-0.41421356237309764
10
125.06250000000001
20
-54.625
10
113.0625
20
-54.625
42
-0.41421356237309503
10
112.0625
20
-53.625000000000007
0
LWPOLYLINE
5
135
100
AcDbEntity
8
0
100
AcDbPolyline
90
8
70
1
43
0.0
10
178.73750000000001
20
-60.674999999999997
42
-0.41421356237310802
10
179.73750000000001
20
-59.675000000000004
10
191.73750000000001
20
-59.674999999999983
42
-0.41421356237307422
10
192.73750000000004
20
-60.674999999999997
10
192.73750000000001
20
-72.674999999999997
42
-0.41421356237310025
10
191.73750000000001
20
-73.674999999999997
10
179.73750000000001
20
-73.675000000000011
42
-0.41421356237309243
10
178.73750000000001
20
-72.674999999999997
0
LWPOLYLINE
5
136
100
AcDbEntity
8
0
100
AcDbPolyline
90
8
70
1
43
0.0
10
50.150000000000006
20
-22.574999999999999
10
50.150000000000006
20
-34.575000000000003
42
0.41421356237309631
10
51.150000000000006
20
-35.575000000000003
10
63.150000000000006
20
-35.575000000000003
42
0.41421356237309243
10
64.150000000000006
20
-34.575000000000003
10
64.150000000000006
20
-22.574999999999999
42
0.41421356237309631
10
63.150000000000006
20
-21.574999999999996
10
51.150000000000006
20
-21.574999999999996
42
0.41421356237309243
0
LWPOLYLINE
5
137
100
AcDbEntity
8
0
100
AcDbPolyline
90
8
70
1
43
0.0
10
172.6875
20
-59.674999999999983
42
-0.41421356237307422
10
173.68750000000003
20
-60.674999999999997
10
173.6875
20
-72.674999999999997
42
-0.41421356237310025
10
172.6875
20
-73.674999999999997
10
160.6875
20
-73.674999999999983
42
-0.41421356237311063
10
159.68750000000003
20
-72.674999999999997
10
159.6875
20
-60.674999999999997
42
-0.41421356237311063
10
160.6875
20
-59.675000000000004
0
LWPOLYLINE
5
138
100
AcDbEntity
8
0
100
AcDbPolyline
90
8
70
1
43
0.0
10
193.02500000000003
20
-3.5250000000000004
10
193.02500000000003
20
-15.525000000000002
42
0.4142135623730937
10
194.02500000000003
20
-16.525000000000016
10
206.02500000000003
20
-16.525000000000002
42
0.41421356237307422
10
207.02500000000003
20
-15.525000000000002
10
207.02500000000003
20
-3.5250000000000004
42
0.41421356237307355
10
206.02500000000003
20
-2.5249999999999995
10
194.02500000000003
20
-2.5250000000000004
42
0.41421356237310542
0
LWPOLYLINE
5
139
100
AcDbEntity
8
0
100
AcDbPolyline
90
8
70
1
43
0.0
10
31.100000000000001
20
-22.574999999999999
42
-0.41421356237308982
10
32.100000000000001
20
-21.574999999999996
10
44.100000000000001
20
-21.574999999999996
42
-0.41421356237309631
10
45.099999999999994
20
-22.574999999999999
10
45.099999999999994
20
-34.575000000000003
42
-0.41421356237309503
10
44.100000000000001
20
-35.575000000000003
10
32.100000000000009
20
-35.575000000000003
42
-0.41421356237309243
10
31.100000000000001
20
-34.575000000000003
0
LWPOLYLINE
5
140
100
AcDbEntity
8
0
100
AcDbPolyline
90
8
70
1
43
0.0
10
197.78750000000002
20
-60.674999999999997
42
-0.4142135623730846
10
198.78749999999999
20
-59.675000000000004
10
210.78749999999999
20
-59.674999999999983
42
-0.41421356237309503
10
211.78750000000002
20
-60.674999999999997
10
211.78750000000002
20
-72.674999999999997
42
-0.41421356237310542
10
210.78749999999999
20
-73.674999999999997
10
198.78749999999999
20
-73.675000000000011
42
-0.41421356237307161
10
197.78749999999999
20
-72.674999999999997
0
LWPOLYLINE
5
141
100
AcDbEntity
8
0
100
AcDbPolyline
90
8
70
1
43
0.0
10
221.60000000000002
20
-22.574999999999999
42
-0.41421356237307555
10
222.60000000000002
20
-21.574999999999996
10
234.60000000000002
20
-21.574999999999985
42
-0.41421356237309503
10
235.60000000000002
20
-22.574999999999999
10
235.60000000000002
20
-34.575000000000003
42
-0.41421356237310675
10
234.60000000000002
20
-35.575000000000003
10
222.60000000000002
20
-35.575000000000024
42
-0.41421356237307555
10
221.59999999999999
20
-34.575000000000003
0
LWPOLYLINE
5
142
100
AcDbEntity
8
0
100
AcDbPolyline
90
8
70
1
43
0.0
10
116.82500000000002
20
-3.5250000000000004
10
116.82500000000002
20
-15.525000000000002
42
0.41421356237309503
10
117.825
20
-16.524999999999999
10
129.82499999999999
20
-16.525000000000002
42
0.4142135623730937
10
130.82499999999999
20
-15.525000000000002
10
130.82499999999999
20
-3.5250000000000004
42
0.41421356237309437
10
129.82499999999999
20
-2.5249999999999995
10
117.825
20
-2.5250000000000004
42
0.41421356237309426
0
LWPOLYLINE
5
143
100
AcDbEntity
8
0
100
AcDbPolyline
90
8
70
1
43
0.0
10
158.40000000000001
20
-21.575000000000003
42
-0.41421356237309503
10
159.40000000000001
20
-22.574999999999999
10
159.40000000000001
20
-34.575000000000003
42
-0.4142135623730937
10
158.40000000000001
20
-35.575000000000003
10
146.40000000000001
20
-35.57500000000001
42
-0.41421356237309764
10
145.40000000000001
20
-34.575000000000003
10
145.40000000000001
20
-22.574999999999999
42
-0.41421356237309631
10
146.40000000000001
20
-21.574999999999996
0
LWPOLYLINE
5
144
100
AcDbEntity
8
0
100
AcDbPolyline
90
8
70
1
43
0.0
10
312.08749999999998
20
-3.5250000000000004
42
-0.41421356237307422
10
313.08749999999998
20
-2.5250000000000004
10
325.08749999999998
20
-2.524999999999999
42
-0.41421356237313295
10
326.08749999999998
20
-3.5250000000000004
10
326.08750000000009
20
-15.525000000000002
42
-0.41421356237307749
10
325.08749999999998
20
-16.525000000000002
10
313.08749999999998
20
-16.525000000000013
42
-0.4142135623730625
10
312.08749999999998
20
-15.525000000000002
0
LWPOLYLINE
5
145
100
AcDbEntity
8
0
100
AcDbPolyline
90
8
70
1
43
0.0
10
183.5
20
-22.574999999999999
42
-0.41421356237307555
10
184.5
20
-21.574999999999996
10
196.50000000000003
20
-21.574999999999985
42
-0.41421356237307422
10
197.50000000000003
20
-22.574999999999999
10
197.5
20
-34.575000000000003
42
-0.41421356237307555
10
196.50000000000003
20
-35.575000000000003
10
184.5
20
-35.575000000000024
42
-0.41421356237307555
10
183.49999999999997
20
-34.575000000000003
0
LWPOLYLINE
5
146
100
AcDbEntity
8
0
100
AcDbPolyline
90
8
70
1
43
0.0
10
154.92500000000001
20
-3.5250000000000004
42
-0.41421356237309687
10
155.92500000000001
20
-2.5250000000000004
10
167.92500000000001
20
-2.5249999999999884
42
-0.41421356237307355
10
168.92500000000001
20
-3.5250000000000004
10
168.92500000000001
20
-15.525000000000002
42
-0.41421356237307422
10
167.92500000000001
20
-16.525000000000002
10
155.92500000000001
20
-16.525000000000006
42
-0.41421356237309764
10
154.92500000000001
20
-15.525000000000002
0
LWPOLYLINE
5
147
100
AcDbEntity
8
0
100
AcDbPolyline
90
8
70
1
43
0.0
10
312.08749999999998
20
-22.574999999999999
10
312.08749999999998
20
-34.575000000000003
42
0.41421356237306511
10
313.08749999999998
20
-35.575000000000017
10
325.08749999999998
20
-35.575000000000003
42
0.4142135623730781
10
326.08749999999998
20
-34.575000000000003
10
326.08749999999998
20
-22.574999999999999
42
0.41421356237313273
10
325.08749999999998
20
-21.574999999999996
10
313.08749999999998
20
-21.574999999999996
42
0.41421356237307555
0
LWPOLYLINE
5
148
100
AcDbEntity
8
0
100
AcDbPolyline
90
8
70
1
43
0.0
10
331.13749999999987
20
-79.724999999999994
42
-0.41421356237307683
10
332.13749999999999
20
-78.725000000000009
10
344.13749999999999
20
-78.725000000000009
42
-0.41421356237313145
10
345.13750000000005
20
-79.724999999999994
10
345.1375000000001
20
-91.724999999999994
42
-0.41421356237307422
10
344.13749999999999
20
-92.724999999999994
10
332.13749999999999
20
-92.725000000000009
42
-0.41421356237313667
10
331.13749999999993
20
-91.724999999999994
0
LWPOLYLINE
5
149
100
AcDbEntity
8
0
100
AcDbPolyline
90
8
70
1
43
0.0
10
78.725000000000009
20
-3.5250000000000004
42
-0.41421356237309537
10
79.724999999999994
20
-2.5250000000000004
10
91.724999999999994
20
-2.5249999999999977
42
-0.41421356237309687
10
92.724999999999994
20
-3.5250000000000004
10
92.724999999999994
20
-15.525000000000002
42
-0.41421356237309631
10
91.724999999999994
20
-16.525000000000002
10
79.724999999999994
20
-16.525000000000002
42
-0.41421356237309631
10
78.725000000000009
20
-15.525000000000002
0
LWPOLYLINE
5
150
100
AcDbEntity
8
0
100
AcDbPolyline
90
8
70
1
43
0.0
10
153.63749999999999
20
-59.674999999999997
42
-0.41421356237309764
10
154.63749999999999
20
-60.674999999999997
10
154.63749999999999
20
-72.674999999999997
42
-0.41421356237309764
10
153.63749999999999
20
-73.674999999999997
10
141.63749999999999
20
-73.675000000000011
42
-0.41421356237309764
10
140.63750000000002
20
-72.674999999999997
10
140.63750000000002
20
-60.674999999999997
42
-0.41421356237309764
10
141.63749999999999
20
-59.675000000000004
0
LWPOLYLINE
5
151
100
AcDbEntity
8
0
100
AcDbPolyline
90
8
70
1
43
0.0
10
202.55000000000001
20
-22.574999999999999
42
-0.41421356237310675
10
203.55000000000004
20
-21.574999999999996
10
215.55000000000004
20
-21.574999999999985
42
-0.41421356237307422
10
216.55000000000004
20
-22.574999999999999
10
216.55000000000001
20
-34.575000000000003
42
-0.41421356237307555
10
215.55000000000004
20
-35.575000000000003
10
203.55000000000004
20
-35.575000000000024
42
-0.41421356237309631
10
202.55000000000001
20
-34.575000000000003
0
LWPOLYLINE
5
152
100
AcDbEntity
8
0
100
AcDbPolyline
90
12
70
1
43
0.0
10
232.21855371475834
20
-78.725301254641636
10
229.86204421579362
20
-78.725301254641636
42
0.0061367472281508963
10
229.83750000000001
20
-78.724999999999994
10
217.83750000000001
20
-78.725000000000009
42
0.41421356237310025
10
216.83750000000001
20
-79.724999999999994
10
216.83750000000001
20
-91.724999999999994
42
0.41421356237307944
10
217.83750000000001
20
-92.724999999999994
10
220.19400949896476
20
-92.724999999999994
42
0.0061367472281520265
10
220.21855371475837
20
-92.725301254641607
10
232.21855371475834
20
-92.725301254641607
42
0.41421356237308982
10
233.21855371475834
20
-91.725301254641622
10
233.21855371475834
20
-79.725301254641622
42
0.41421356237309243
0
LWPOLYLINE
5
153
100
AcDbEntity
8
0
100
AcDbPolyline
90
8
70
1
43
0.0
10
120.30000000000001
20
-21.574999999999992
42
-0.41421356237309764
10
121.30000000000001
20
-22.574999999999999
10
121.30000000000001
20
-34.575000000000003
42
-0.41421356237309631
10
120.30000000000001
20
-35.575000000000003
10
108.3
20
-35.575000000000003
42
-0.41421356237309503
10
107.30000000000001
20
-34.575000000000003
10
107.30000000000001
20
-22.574999999999999
42
-0.4142135623730937
10
108.3
20
-21.574999999999996
0
LWPOLYLINE
5
154
100
AcDbEntity
8
0
100
AcDbPolyline
90
12
70
1
43
0.0
10
17.930597930552345
20
-92.724999999999994
42
-0.0061367472281396076
10
17.906053714758727
20
-92.725301254641636
10
5.9060537147587366
20
-92.72530125464165
42
-0.41421356237310281
10
4.9060537147587233
20
-91.725301254641636
10
4.906053714758718
20
-79.725301254641664
42
-0.41421356237309598
10
5.906053714758718
20
-78.725301254641664
10
8.262955784205662
20
-78.725301254641664
42
-0.0061367472286789739
10
8.2874999999999979
20
-78.725000000000009
10
20.287500000000005
20
-78.725000000000009
42
-0.41421356237309115
10
21.287500000000001
20
-79.724999999999994
10
21.287500000000005
20
-91.724999999999994
42
-0.41421356237309764
10
20.287500000000001
20
-92.724999999999994
0
LWPOLYLINE
5
155
100
AcDbEntity
8
0
100
AcDbPolyline
90
8
70
1
43
0.0
10
293.03750000000002
20
-22.574999999999999
10
293.03750000000002
20
-34.575000000000003
42
0.41421356237309631
10
294.03750000000002
20
-35.575000000000017
10
306.03750000000002
20
-35.575000000000003
42
0.41421356237310675
10
307.03750000000008
20
-34.575000000000003
10
307.03750000000008
20
-22.574999999999999
42
0.41421356237309503
10
306.03750000000002
20
-21.574999999999996
10
294.03750000000002
20
-21.574999999999996
42
0.41421356237310675
0
LWPOLYLINE
5
156
100
AcDbEntity
8
0
100
AcDbPolyline
90
8
70
1
43
0.0
10
9.6687500000000011
20
-41.625000000000007
42
-0.4142135623730957
10
10.668749999999999
20
-40.625000000000007
10
22.668750000000006
20
-40.625
42
-0.4142135623730937
10
23.668750000000003
20
-41.625000000000007
10
23.668750000000003
20
-53.625000000000007
42
-0.41421356237309631
10
22.668750000000003
20
-54.625
10
10.668749999999996
20
-54.625
42
-0.41421356237309437
10
9.6687500000000011
20
-53.625000000000007
0
LWPOLYLINE
5
157
100
AcDbEntity
8
0
100
AcDbPolyline
90
8
70
1
43
0.0
10
35.862499999999997
20
-41.625
42
-0.4142135623730937
10
36.862499999999997
20
-40.625000000000007
10
48.862500000000004
20
-40.625000000000007
42
-0.41421356237309503
10
49.862499999999997
20
-41.625000000000007
10
49.862499999999997
20
-53.625000000000007
42
-0.41421356237309503
10
48.862500000000004
20
-54.625
10
36.862499999999997
20
-54.625
42
-0.41421356237309115
10
35.862499999999997
20
-53.625000000000007
0
LWPOLYLINE
5
158
100
AcDbEntity
8
0
100
AcDbPolyline
90
8
70
1
43
0.0
10
293.03749999999997
20
-3.5250000000000004
42
-0.41421356237310542
10
294.03750000000002
20
-2.5250000000000004
10
306.03750000000002
20
-2.5249999999999884
42
-0.41421356237309437
10
307.03750000000008
20
-3.5250000000000004
10
307.03750000000008
20
-15.525000000000002
42
-0.41421356237310542
10
306.03750000000002
20
-16.525000000000002
10
294.03750000000002
20
-16.525000000000013
42
-0.4142135623730937
10
293.03750000000002
20
-15.525000000000002
0
LWPOLYLINE
5
159
100
AcDbEntity
8
0
100
AcDbPolyline
90
8
70
1
43
0.0
10
231.125
20
-3.5250000000000004
42
-0.41421356237307422
10
232.12500000000003
20
-2.5250000000000004
10
244.125
20
-2.5249999999999884
42
-0.41421356237309437
10
245.12500000000003
20
-3.5250000000000004
10
245.12500000000006
20
-15.525000000000002
42
-0.41421356237310542
10
244.125
20
-16.525000000000002
10
232.12500000000003
20
-16.525000000000013
42
-0.41421356237307294
10
231.125
20
-15.525000000000002
0
LWPOLYLINE
5
160
100
AcDbEntity
8
0
100
AcDbPolyline
90
8
70
1
43
0.0
10
131.11250000000001
20
-41.625000000000007
42
-0.41421356237309503
10
132.11250000000001
20
-40.625000000000007
10
144.11250000000001
20
-40.625
42
-0.41421356237309764
10
145.11250000000001
20
-41.625000000000007
10
145.11250000000001
20
-53.625000000000007
42
-0.41421356237309764
10
144.11250000000001
20
-54.625
10
132.11250000000001
20
-54.625
42
-0.41421356237309503
10
131.11250000000001
20
-53.625000000000007
0
LWPOLYLINE
5
161
100
AcDbEntity
8
0
100
AcDbPolyline
90
8
70
1
43
0.0
10
40.625000000000007
20
-3.5250000000000004
42
-0.41421356237309537
10
41.625000000000007
20
-2.5250000000000004
10
53.625000000000007
20
-2.5250000000000021
42
-0.41421356237309553
10
54.625
20
-3.5250000000000004
10
54.625
20
-15.525000000000002
42
-0.41421356237309503
10
53.625000000000007
20
-16.525000000000002
10
41.625000000000014
20
-16.525000000000002
42
-0.41421356237309631
10
40.625000000000007
20
-15.525000000000002
0
LWPOLYLINE
5
162
100
AcDbEntity
8
0
100
AcDbPolyline
90
8
70
1
43
0.0
10
331.13749999999987
20
-3.5250000000000004
42
-0.41421356237307733
10
332.13749999999999
20
-2.5250000000000004
10
344.13749999999999
20
-2.524999999999999
42
-0.41421356237313295
10
345.13750000000005
20
-3.5250000000000004
10
345.1375000000001
20
-15.525000000000002
42
-0.41421356237307749
10
344.13749999999999
20
-16.525000000000002
10
332.13749999999999
20
-16.525000000000002
42
-0.41421356237313273
10
331.13749999999993
20
-15.525000000000002
0
LWPOLYLINE
5
163
100
AcDbEntity
8
0
100
AcDbPolyline
90
8
70
1
43
0.0
10
86.962500000000006
20
-40.625000000000007
42
-0.41421356237309503
10
87.962500000000006
20
-41.625000000000007
10
87.962500000000006
20
-53.625000000000007
42
-0.41421356237309503
10
86.962500000000006
20
-54.625
10
74.962500000000006
20
-54.625
42
-0.41421356237309503
10
73.962500000000006
20
-53.625000000000007
10
73.962500000000006
20
-41.625000000000007
42
-0.41421356237309503
10
74.962500000000006
20
-40.625000000000007
0
LWPOLYLINE
5
164
100
AcDbEntity
8
0
100
AcDbPolyline
90
8
70
1
43
0.0
10
350.66250000000002
20
14.999999999999968
42
-0.41421356237309365
10
362.66250000000008
20
2.9999999999999893
10
362.66250000000008
20
-98.25
42
-0.41421356237309115
10
350.66250000000002
20
-110.25
10
-2.9999999999999947
20
-110.24999999999999
42
-0.41421356237309465
10
-15
20
-98.25
10
-15.000000000000009
20
2.9999999999999956
42
-0.41421356237309442
10
-3.0000000000000426
20
15
0
CIRCLE
5
165
100
AcDbEntity
8
0
100
AcDbCircle
10
345
20
-99.200000000000003
30
0
40
1.6250000000000142
210
0
220
-0
230
1
0
CIRCLE
5
166
100
AcDbEntity
8
0
100
AcDbCircle
10
115
20
-99.200000000000003
30
0
40
1.6249999999999964
210
0
220
-0
230
1
0
CIRCLE
5
167
100
AcDbEntity
8
0
100
AcDbCircle
10
115
20
4.0000000000000027
30
0
40
1.6249999999999964
210
0
220
-0
230
1
0
CIRCLE
5
168
100
AcDbEntity
8
0
100
AcDbCircle
10
230
20
-99.200000000000003
30
0
40
1.6250000000000142
210
0
220
-0
230
1
0
CIRCLE
5
169
100
AcDbEntity
8
0
100
AcDbCircle
10
345
20
4.0000000000000027
30
0
40
1.6250000000000142
210
0
220
-0
230
1
0
CIRCLE
5
170
100
AcDbEntity
8
0
100
AcDbCircle
10
0
20
-99.200000000000003
30
0
40
1.625
210
0
220
-0
230
1
0
CIRCLE
5
171
100
AcDbEntity
8
0
100
AcDbCircle
10
0
20
4.0000000000000027
30
0
40
1.625
210
0
220
-0
230
1
0
CIRCLE
5
172
100
AcDbEntity
8
0
100
AcDbCircle
10
230
20
4.0000000000000027
30
0
40
1.6250000000000142
210
0
220
-0
230
1
0
LWPOLYLINE
5
173
100
AcDbEntity
8
0
100
AcDbPolyline
90
40
70
1
43
0.0
10
208.4060537147584
20
-78.725301254641593
10
203.77499999999998
20
-78.725301254641593
10
203.77499999999998
20
-75.474999999999994
42
0.41421356237309243
10
202.77499999999998
20
-74.474999999999994
10
197.27499999999998
20
-74.474999999999994
42
0.30968975521957137
10
196.34249410228082
20
-75.113845253777583
10
184.70750589771916
20
-75.113845253777598
42
0.30968975521956349
10
183.77499999999998
20
-74.474999999999994
10
178.27500000000001
20
-74.474999999999994
42
0.30968975521953046
10
177.34249410228088
20
-75.113845253777583
10
89.407505897719219
20
-75.113845253777583
42
0.30968975521957931
10
88.475000000000037
20
-74.474999999999994
10
77.975000000000065
20
-74.474999999999994
42
0.41421356237309503
10
76.975000000000051
20
-75.475000000000009
10
76.975000000000051
20
-96.97499999999998
10
89.475000000000051
20
-96.97499999999998
10
89.475000000000051
20
-94.644140166874209
10
90.305289270736438
20
-93.813844253777305
10
90.305289270736438
20
-93.313845253777302
10
90.451739270736454
20
-92.960289253777276
10
90.805299270736242
20
-92.813845253777302
10
175.94502071852003
20
-92.813845253777302
10
176.29858071851982
20
-92.960289253777276
10
176.44503071851983
20
-93.313845253777302
10
176.44503071851983
20
-93.813844253777305
10
177.27499999999998
20
-94.643820175058067
10
177.27499999999998
20
-96.97499999999998
10
184.77499999999998
20
-96.97499999999998
10
184.77499999999998
20
-92.813845253777302
10
194.94502071852
20
-92.813845253777302
10
195.29858071851979
20
-92.960289253777276
10
195.4450307185198
20
-93.313845253777302
10
195.4450307185198
20
-93.813844253777305
10
196.27499999999998
20
-94.643820175058067
10
196.27499999999998
20
-96.97499999999998
10
203.77499999999998
20
-96.97499999999998
10
203.77499999999998
20
-92.725301254641593
10
208.4060537147584
20
-92.725301254641593
42
0.41421356237310542
10
209.4060537147584
20
-91.725301254641607
10
209.4060537147584
20
-79.725301254641607
42
0.41421356237309243
0
ENDSEC
0
SECTION
2
OBJECTS
0
DICTIONARY
5
C
100
AcDbDictionary
3
ACAD_GROUP
350
D
3
ACAD_MLINESTYLE
350
17
0
DICTIONARY
5
D
100
AcDbDictionary
0
DICTIONARY
5
1A
330
C
100
AcDbDictionary
0
DICTIONARY
5
17
100
AcDbDictionary
0
ENDSEC
0
EOF
