<?xml version="1.0" encoding="UTF-8" standalone="no"?>
<!-- Created with Inkscape (http://www.inkscape.org/) -->

<svg
   xmlns:dc="http://purl.org/dc/elements/1.1/"
   xmlns:cc="http://creativecommons.org/ns#"
   xmlns:rdf="http://www.w3.org/1999/02/22-rdf-syntax-ns#"
   xmlns:svg="http://www.w3.org/2000/svg"
   xmlns="http://www.w3.org/2000/svg"
   xmlns:sodipodi="http://sodipodi.sourceforge.net/DTD/sodipodi-0.dtd"
   xmlns:inkscape="http://www.inkscape.org/namespaces/inkscape"
   width="420mm"
   height="210mm"
   viewBox="0 0 420 210"
   version="1.1"
   id="svg8"
   inkscape:version="0.92.4 (5da689c313, 2019-01-14)"
   sodipodi:docname="L5_blocker.svg">
  <defs
     id="defs2">
    <marker
       style="overflow:visible"
       refY="0.0"
       refX="0.0"
       orient="auto"
       id="DistanceX">
      <path
         id="path3715"
         style="stroke:#000000; stroke-width:0.5"
         d="M 3,-3 L -3,3 M 0,-5 L  0,5" />
    </marker>
    <pattern
       y="0"
       x="0"
       width="8"
       patternUnits="userSpaceOnUse"
       id="Hatch"
       height="8">
      <path
         id="path3718"
         stroke-width="0.25"
         stroke="#000000"
         linecap="square"
         d="M8 4 l-4,4" />
      <path
         id="path3720"
         stroke-width="0.25"
         stroke="#000000"
         linecap="square"
         d="M6 2 l-4,4" />
      <path
         id="path3722"
         stroke-width="0.25"
         stroke="#000000"
         linecap="square"
         d="M4 0 l-4,4" />
    </pattern>
    <symbol
       id="*MODEL_SPACE" />
    <symbol
       id="*PAPER_SPACE" />
    <marker
       style="overflow:visible"
       refY="0.0"
       refX="0.0"
       orient="auto"
       id="DistanceX-1">
      <path
         id="path3760"
         style="stroke:#000000; stroke-width:0.5"
         d="M 3,-3 L -3,3 M 0,-5 L  0,5" />
    </marker>
    <pattern
       y="0"
       x="0"
       width="8"
       patternUnits="userSpaceOnUse"
       id="Hatch-1"
       height="8">
      <path
         id="path3763"
         stroke-width="0.25"
         stroke="#000000"
         linecap="square"
         d="M8 4 l-4,4" />
      <path
         id="path3765"
         stroke-width="0.25"
         stroke="#000000"
         linecap="square"
         d="M6 2 l-4,4" />
      <path
         id="path3767"
         stroke-width="0.25"
         stroke="#000000"
         linecap="square"
         d="M4 0 l-4,4" />
    </pattern>
    <symbol
       id="*MODEL_SPACE-5" />
    <symbol
       id="*PAPER_SPACE-6" />
    <marker
       style="overflow:visible"
       refY="0.0"
       refX="0.0"
       orient="auto"
       id="DistanceX-4">
      <path
         id="path3805"
         style="stroke:#000000; stroke-width:0.5"
         d="M 3,-3 L -3,3 M 0,-5 L  0,5" />
    </marker>
    <pattern
       y="0"
       x="0"
       width="8"
       patternUnits="userSpaceOnUse"
       id="Hatch-7"
       height="8">
      <path
         id="path3808"
         stroke-width="0.25"
         stroke="#000000"
         linecap="square"
         d="M8 4 l-4,4" />
      <path
         id="path3810"
         stroke-width="0.25"
         stroke="#000000"
         linecap="square"
         d="M6 2 l-4,4" />
      <path
         id="path3812"
         stroke-width="0.25"
         stroke="#000000"
         linecap="square"
         d="M4 0 l-4,4" />
    </pattern>
    <symbol
       id="*MODEL_SPACE-59" />
    <symbol
       id="*PAPER_SPACE-5" />
    <marker
       style="overflow:visible"
       refY="0.0"
       refX="0.0"
       orient="auto"
       id="DistanceX-18">
      <path
         id="path3850"
         style="stroke:#000000; stroke-width:0.5"
         d="M 3,-3 L -3,3 M 0,-5 L  0,5" />
    </marker>
    <pattern
       y="0"
       x="0"
       width="8"
       patternUnits="userSpaceOnUse"
       id="Hatch-72"
       height="8">
      <path
         id="path3853"
         stroke-width="0.25"
         stroke="#000000"
         linecap="square"
         d="M8 4 l-4,4" />
      <path
         id="path3855"
         stroke-width="0.25"
         stroke="#000000"
         linecap="square"
         d="M6 2 l-4,4" />
      <path
         id="path3857"
         stroke-width="0.25"
         stroke="#000000"
         linecap="square"
         d="M4 0 l-4,4" />
    </pattern>
    <symbol
       id="*MODEL_SPACE-0" />
    <symbol
       id="*PAPER_SPACE-3" />
    <marker
       style="overflow:visible"
       refY="0.0"
       refX="0.0"
       orient="auto"
       id="DistanceX-6">
      <path
         id="path3919"
         style="stroke:#000000; stroke-width:0.5"
         d="M 3,-3 L -3,3 M 0,-5 L  0,5" />
    </marker>
    <pattern
       y="0"
       x="0"
       width="8"
       patternUnits="userSpaceOnUse"
       id="Hatch-0"
       height="8">
      <path
         id="path3922"
         stroke-width="0.25"
         stroke="#000000"
         linecap="square"
         d="M8 4 l-4,4" />
      <path
         id="path3924"
         stroke-width="0.25"
         stroke="#000000"
         linecap="square"
         d="M6 2 l-4,4" />
      <path
         id="path3926"
         stroke-width="0.25"
         stroke="#000000"
         linecap="square"
         d="M4 0 l-4,4" />
    </pattern>
    <symbol
       id="*MODEL_SPACE-1" />
    <symbol
       id="*PAPER_SPACE-4" />
    <marker
       style="overflow:visible"
       refY="0.0"
       refX="0.0"
       orient="auto"
       id="DistanceX-8">
      <path
         id="path3988"
         style="stroke:#000000; stroke-width:0.5"
         d="M 3,-3 L -3,3 M 0,-5 L  0,5" />
    </marker>
    <pattern
       y="0"
       x="0"
       width="8"
       patternUnits="userSpaceOnUse"
       id="Hatch-9"
       height="8">
      <path
         id="path3991"
         stroke-width="0.25"
         stroke="#000000"
         linecap="square"
         d="M8 4 l-4,4" />
      <path
         id="path3993"
         stroke-width="0.25"
         stroke="#000000"
         linecap="square"
         d="M6 2 l-4,4" />
      <path
         id="path3995"
         stroke-width="0.25"
         stroke="#000000"
         linecap="square"
         d="M4 0 l-4,4" />
    </pattern>
    <symbol
       id="*MODEL_SPACE-9" />
    <symbol
       id="*PAPER_SPACE-7" />
    <marker
       style="overflow:visible"
       refY="0.0"
       refX="0.0"
       orient="auto"
       id="DistanceX-2">
      <path
         id="path4048"
         style="stroke:#000000; stroke-width:0.5"
         d="M 3,-3 L -3,3 M 0,-5 L  0,5" />
    </marker>
    <pattern
       y="0"
       x="0"
       width="8"
       patternUnits="userSpaceOnUse"
       id="Hatch-2"
       height="8">
      <path
         id="path4051"
         stroke-width="0.25"
         stroke="#000000"
         linecap="square"
         d="M8 4 l-4,4" />
      <path
         id="path4053"
         stroke-width="0.25"
         stroke="#000000"
         linecap="square"
         d="M6 2 l-4,4" />
      <path
         id="path4055"
         stroke-width="0.25"
         stroke="#000000"
         linecap="square"
         d="M4 0 l-4,4" />
    </pattern>
    <symbol
       id="*MODEL_SPACE-01" />
    <symbol
       id="*PAPER_SPACE-64" />
    <marker
       style="overflow:visible"
       refY="0.0"
       refX="0.0"
       orient="auto"
       id="DistanceX-3">
      <path
         id="path4321"
         style="stroke:#000000; stroke-width:0.5"
         d="M 3,-3 L -3,3 M 0,-5 L  0,5" />
    </marker>
    <pattern
       y="0"
       x="0"
       width="8"
       patternUnits="userSpaceOnUse"
       id="Hatch-8"
       height="8">
      <path
         id="path4324"
         stroke-width="0.25"
         stroke="#000000"
         linecap="square"
         d="M8 4 l-4,4" />
      <path
         id="path4326"
         stroke-width="0.25"
         stroke="#000000"
         linecap="square"
         d="M6 2 l-4,4" />
      <path
         id="path4328"
         stroke-width="0.25"
         stroke="#000000"
         linecap="square"
         d="M4 0 l-4,4" />
    </pattern>
    <symbol
       id="*MODEL_SPACE-16" />
    <symbol
       id="*PAPER_SPACE-65" />
    <marker
       style="overflow:visible"
       refY="0.0"
       refX="0.0"
       orient="auto"
       id="DistanceX-49">
      <path
         id="path4471"
         style="stroke:#000000; stroke-width:0.5"
         d="M 3,-3 L -3,3 M 0,-5 L  0,5" />
    </marker>
    <pattern
       y="0"
       x="0"
       width="8"
       patternUnits="userSpaceOnUse"
       id="Hatch-18"
       height="8">
      <path
         id="path4474"
         stroke-width="0.25"
         stroke="#000000"
         linecap="square"
         d="M8 4 l-4,4" />
      <path
         id="path4476"
         stroke-width="0.25"
         stroke="#000000"
         linecap="square"
         d="M6 2 l-4,4" />
      <path
         id="path4478"
         stroke-width="0.25"
         stroke="#000000"
         linecap="square"
         d="M4 0 l-4,4" />
    </pattern>
    <symbol
       id="*MODEL_SPACE-55" />
    <symbol
       id="*PAPER_SPACE-2" />
    <marker
       style="overflow:visible"
       refY="0.0"
       refX="0.0"
       orient="auto"
       id="DistanceX-7">
      <path
         id="path5437"
         style="stroke:#000000; stroke-width:0.5"
         d="M 3,-3 L -3,3 M 0,-5 L  0,5" />
    </marker>
    <pattern
       y="0"
       x="0"
       width="8"
       patternUnits="userSpaceOnUse"
       id="Hatch-6"
       height="8">
      <path
         id="path5440"
         stroke-width="0.25"
         stroke="#000000"
         linecap="square"
         d="M8 4 l-4,4" />
      <path
         id="path5442"
         stroke-width="0.25"
         stroke="#000000"
         linecap="square"
         d="M6 2 l-4,4" />
      <path
         id="path5444"
         stroke-width="0.25"
         stroke="#000000"
         linecap="square"
         d="M4 0 l-4,4" />
    </pattern>
    <symbol
       id="*Model_Space" />
    <symbol
       id="*Paper_Space" />
  </defs>
  <sodipodi:namedview
     id="base"
     pagecolor="#ffffff"
     bordercolor="#666666"
     borderopacity="1.0"
     inkscape:pageopacity="0.0"
     inkscape:pageshadow="2"
     inkscape:zoom="0.35"
     inkscape:cx="-417.14286"
     inkscape:cy="674.28571"
     inkscape:document-units="mm"
     inkscape:current-layer="layer1"
     showgrid="false"
     inkscape:window-width="2560"
     inkscape:window-height="1377"
     inkscape:window-x="1432"
     inkscape:window-y="637"
     inkscape:window-maximized="1" />
  <metadata
     id="metadata5">
    <rdf:RDF>
      <cc:Work
         rdf:about="">
        <dc:format>image/svg+xml</dc:format>
        <dc:type
           rdf:resource="http://purl.org/dc/dcmitype/StillImage" />
        <dc:title></dc:title>
      </cc:Work>
    </rdf:RDF>
  </metadata>
  <g
     inkscape:label="Layer 1"
     inkscape:groupmode="layer"
     id="layer1"
     transform="translate(0,-87)">
    <g
       id="g5642"
       transform="matrix(0.26458333,0,0,0.26458333,36.168747,-152.62499)">
      <g
         id="g5565"
         inkscape:label="0">
        <path
           id="path5451"
           style="fill:none;stroke:#000000"
           d="m 875.43307,1107.4016 a 6.1417325,6.1417325 0 0 0 -12.28346,0 6.1417325,6.1417325 0 0 0 12.28346,0 z"
           inkscape:connector-curvature="0" />
        <path
           id="path5453"
           style="fill:none;stroke:#000000"
           d="m 6.141732,1107.4016 a 6.141732,6.141732 0 0 0 -12.283464,0 6.141732,6.141732 0 0 0 12.283464,0 z"
           inkscape:connector-curvature="0" />
        <path
           id="path5455"
           style="fill:none;stroke:#000000"
           d="m 6.141732,1497.4488 a 6.141732,6.141732 0 0 0 -12.283464,0"
           inkscape:connector-curvature="0" />
        <path
           id="path5457"
           style="fill:none;stroke:#000000"
           d="m -6.141732,1497.4488 a 6.141732,6.141732 0 0 0 12.283464,0"
           inkscape:connector-curvature="0" />
        <path
           id="path5459"
           style="fill:none;stroke:#000000"
           d="m 1310.0787,1107.4016 a 6.141732,6.141732 0 0 0 -12.2834,0 6.141732,6.141732 0 0 0 12.2834,0 z"
           inkscape:connector-curvature="0" />
        <path
           id="path5461"
           style="fill:none;stroke:#000000"
           d="m 875.43307,1497.4488 a 6.1417325,6.1417325 0 0 0 -12.28346,0 6.1417325,6.1417325 0 0 0 12.28346,0 z"
           inkscape:connector-curvature="0" />
        <path
           id="path5463"
           style="fill:none;stroke:#000000"
           d="m 440.7874,1107.4016 a 6.1417325,6.1417325 0 0 0 -12.28346,0 6.1417325,6.1417325 0 0 0 12.28346,0 z"
           inkscape:connector-curvature="0" />
        <path
           id="path5465"
           style="fill:none;stroke:#000000"
           d="m 440.7874,1497.4488 a 6.1417325,6.1417325 0 0 0 -12.28346,0 6.1417325,6.1417325 0 0 0 12.28346,0 z"
           inkscape:connector-curvature="0" />
        <path
           id="path5467"
           style="fill:none;stroke:#000000"
           d="m 1310.0787,1497.4488 a 6.141732,6.141732 0 0 0 -12.2834,0 6.141732,6.141732 0 0 0 12.2834,0 z"
           inkscape:connector-curvature="0" />
        <path
           id="path5469"
           style="fill:none;stroke:#000000"
           d="m 1167.7323,1410.1417 h -66.3307"
           inkscape:connector-curvature="0" />
        <path
           id="path5471"
           style="fill:none;stroke:#000000"
           d="m 1101.4016,1410.1417 a 1.889764,1.889764 0 0 0 -1.8898,1.8898"
           inkscape:connector-curvature="0" />
        <path
           id="path5473"
           style="fill:none;stroke:#000000"
           d="m 1099.5118,1412.0315 v 70.8742"
           inkscape:connector-curvature="0" />
        <path
           id="path5475"
           style="fill:none;stroke:#000000"
           d="m 1099.5118,1482.9057 h 213.473"
           inkscape:connector-curvature="0" />
        <path
           id="path5477"
           style="fill:none;stroke:#000000"
           d="m 1312.9848,1482.9057 a 0.944882,0.944882 0 0 0 0.9449,-0.9448"
           inkscape:connector-curvature="0" />
        <path
           id="path5479"
           style="fill:none;stroke:#000000"
           d="m 1313.9297,1481.9609 v -69.9294"
           inkscape:connector-curvature="0" />
        <path
           id="path5481"
           style="fill:none;stroke:#000000"
           d="m 1313.9297,1412.0315 a 1.889764,1.889764 0 0 0 -1.8898,-1.8898"
           inkscape:connector-curvature="0" />
        <path
           id="path5483"
           style="fill:none;stroke:#000000"
           d="m 1312.0399,1410.1417 h -67.7722"
           inkscape:connector-curvature="0" />
        <path
           id="path5485"
           style="fill:none;stroke:#000000"
           d="m 1242.378,1408.252 a 1.889764,1.889764 0 0 0 1.8897,1.8897"
           inkscape:connector-curvature="0" />
        <path
           id="path5487"
           style="fill:none;stroke:#000000"
           d="m 1242.378,1408.252 v -68.2205"
           inkscape:connector-curvature="0" />
        <path
           id="path5489"
           style="fill:none;stroke:#000000"
           d="m 1242.378,1340.0315 a 1.889764,1.889764 0 0 0 -1.8898,-1.8898"
           inkscape:connector-curvature="0" />
        <path
           id="path5491"
           style="fill:none;stroke:#000000"
           d="m 1240.4882,1338.1417 h -68.9764"
           inkscape:connector-curvature="0" />
        <path
           id="path5493"
           style="fill:none;stroke:#000000"
           d="m 1171.5118,1338.1417 a 1.889764,1.889764 0 0 0 -1.8898,1.8898"
           inkscape:connector-curvature="0" />
        <path
           id="path5495"
           style="fill:none;stroke:#000000"
           d="m 1169.622,1340.0315 v 68.2205"
           inkscape:connector-curvature="0" />
        <path
           id="path5497"
           style="fill:none;stroke:#000000"
           d="m 1167.7323,1410.1417 a 1.889764,1.889764 0 0 0 1.8897,-1.8897"
           inkscape:connector-curvature="0" />
        <path
           id="path5499"
           style="fill:none;stroke:#000000"
           d="m 0.566928,1122.1417 a 0.944882,0.944882 0 0 0 -0.944882,0.9449"
           inkscape:connector-curvature="0" />
        <path
           id="path5501"
           style="fill:none;stroke:#000000"
           d="M 0.566928,1122.1417 H 1080.378"
           inkscape:connector-curvature="0" />
        <path
           id="path5503"
           style="fill:none;stroke:#000000"
           d="m 1080.378,1122.1417 v 360.764"
           inkscape:connector-curvature="0" />
        <path
           id="path5505"
           style="fill:none;stroke:#000000"
           d="M 899.52756,1482.9057 H 177.63779"
           inkscape:connector-curvature="0" />
        <path
           id="path5507"
           style="fill:none;stroke:#000000"
           d="m -0.377954,1481.9609 a 0.944882,0.944882 0 0 0 0.944882,0.9448"
           inkscape:connector-curvature="0" />
        <path
           id="path5509"
           style="fill:none;stroke:#000000"
           d="M -0.377954,1481.9609 V 1123.0866"
           inkscape:connector-curvature="0" />
        <path
           id="path5511"
           style="fill:none;stroke:#000000"
           d="m 1099.5118,1265.0079 a 1.889764,1.889764 0 0 0 1.8898,1.8897"
           inkscape:connector-curvature="0" />
        <path
           id="path5513"
           style="fill:none;stroke:#000000"
           d="M 1099.5118,1265.0079 V 1124.0315"
           inkscape:connector-curvature="0" />
        <path
           id="path5515"
           style="fill:none;stroke:#000000"
           d="m 1101.4016,1122.1417 a 1.889764,1.889764 0 0 0 -1.8898,1.8898"
           inkscape:connector-curvature="0" />
        <path
           id="path5517"
           style="fill:none;stroke:#000000"
           d="m 1101.4016,1122.1417 h 210.6383"
           inkscape:connector-curvature="0" />
        <path
           id="path5519"
           style="fill:none;stroke:#000000"
           d="m 1313.9297,1124.0315 a 1.889764,1.889764 0 0 0 -1.8898,-1.8898"
           inkscape:connector-curvature="0" />
        <path
           id="path5521"
           style="fill:none;stroke:#000000"
           d="m 1313.9297,1124.0315 v 140.9764"
           inkscape:connector-curvature="0" />
        <path
           id="path5523"
           style="fill:none;stroke:#000000"
           d="m 1312.0399,1266.8976 a 1.889764,1.889764 0 0 0 1.8898,-1.8897"
           inkscape:connector-curvature="0" />
        <path
           id="path5525"
           style="fill:none;stroke:#000000"
           d="M 1312.0399,1266.8976 H 1101.4016"
           inkscape:connector-curvature="0" />
        <path
           id="path5527"
           style="fill:none;stroke:#000000"
           d="m -11.338583,1073.3858 a 37.795276,37.795276 0 0 0 -37.795275,37.7953"
           inkscape:connector-curvature="0" />
        <path
           id="path5529"
           style="fill:none;stroke:#000000"
           d="M -11.338583,1073.3858 H 1325.3386"
           inkscape:connector-curvature="0" />
        <path
           id="path5531"
           style="fill:none;stroke:#000000"
           d="m 1363.1339,1111.1811 a 37.795276,37.795276 0 0 0 -37.7953,-37.7953"
           inkscape:connector-curvature="0" />
        <path
           id="path5533"
           style="fill:none;stroke:#000000"
           d="m 1363.1339,1111.1811 v 382.6772"
           inkscape:connector-curvature="0" />
        <path
           id="path5535"
           style="fill:none;stroke:#000000"
           d="m 1325.3386,1531.6535 a 37.795276,37.795276 0 0 0 37.7953,-37.7952"
           inkscape:connector-curvature="0" />
        <path
           id="path5537"
           style="fill:none;stroke:#000000"
           d="M 1325.3386,1531.6535 H -11.338583"
           inkscape:connector-curvature="0" />
        <path
           id="path5539"
           style="fill:none;stroke:#000000"
           d="m -49.133858,1493.8583 a 37.795276,37.795276 0 0 0 37.795275,37.7952"
           inkscape:connector-curvature="0" />
        <path
           id="path5541"
           style="fill:none;stroke:#000000"
           d="M -49.133858,1493.8583 V 1111.1811"
           inkscape:connector-curvature="0" />
        <path
           id="path5543"
           style="fill:none;stroke:#000000"
           d="m 0,1122.5197 v 0"
           inkscape:connector-curvature="0" />
        <path
           id="path5545"
           style="fill:none;stroke:#000000"
           d="m 0,1122.5197 v 0"
           inkscape:connector-curvature="0" />
        <path
           id="path5547"
           style="fill:none;stroke:#000000"
           d="m 109.6063,1413.5433 h 68.03149"
           inkscape:connector-curvature="0" />
        <path
           id="path5549"
           style="fill:none;stroke:#000000"
           d="m 903.24683,1414.8189 68.09175,-0.1417"
           inkscape:connector-curvature="0" />
        <path
           id="path5551"
           style="fill:none;stroke:#000000"
           d="M 971.32554,1482.9057 H 1080.378"
           inkscape:connector-curvature="0" />
        <path
           id="path5553"
           style="fill:none;stroke:#000000"
           d="m 109.6063,1482.9057 v -69.3624"
           inkscape:connector-curvature="0" />
        <path
           id="path5555"
           style="fill:none;stroke:#000000"
           d="M 109.6063,1482.9057 H 0.566928"
           inkscape:connector-curvature="0" />
        <path
           id="path5557"
           style="fill:none;stroke:#000000"
           d="m 177.63779,1482.9057 v -69.3624"
           inkscape:connector-curvature="0" />
        <path
           id="path5559"
           style="fill:none;stroke:#000000"
           d="m 899.52756,1482.9057 h 3.71927"
           inkscape:connector-curvature="0" />
        <path
           id="path5561"
           style="fill:none;stroke:#000000"
           d="m 903.24683,1482.9057 v -68.0868"
           inkscape:connector-curvature="0" />
        <path
           id="path5563"
           style="fill:none;stroke:#000000"
           d="m 971.32554,1482.9057 0.013,-68.2285"
           inkscape:connector-curvature="0" />
      </g>
      <g
         id="g5567"
         inkscape:label="MyLayer" />
    </g>
  </g>
</svg>
