0
SECTION
2
HEADER
9
$INSUNITS
70
4
9
$ACADVER
1
AC1014
9
$HANDSEED
5
FFFF
0
ENDSEC
0
SECTION
2
TABLES
0
TABLE
2
VPORT
5
8
100
AcDbSymbolTable
0
ENDTAB
0
TABLE
2
LTYPE
5
5
100
AcDbSymbolTable
0
LTYPE
5
14
100
AcDbSymbolTableRecord
100
AcDbLinetypeTableRecord
2
BYBLOCK
70
0
0
LTYPE
5
15
100
AcDbSymbolTableRecord
100
AcDbLinetypeTableRecord
2
BYLAYER
70
0
0
ENDTAB
0
TABLE
2
LAYER
5
2
100
AcDbSymbolTable
70
2
0
LAYER
5
50
100
AcDbSymbolTableRecord
100
AcDbLayerTableRecord
2
0
70
0
6
CONTINUOUS
0
ENDTAB
0
TABLE
2
STYLE
5
3
100
AcDbSymbolTable
70
1
0
STYLE
5
11
100
AcDbSymbolTableRecord
100
AcDbTextStyleTableRecord
2
STANDARD
70
0
0
ENDTAB
0
TABLE
2
VIEW
5
6
100
AcDbSymbolTable
70
0
0
ENDTAB
0
TABLE
2
UCS
5
7
100
AcDbSymbolTable
70
0
0
ENDTAB
0
TABLE
2
APPID
5
9
100
AcDbSymbolTable
70
2
0
APPID
5
12
100
AcDbSymbolTableRecord
100
AcDbRegAppTableRecord
2
ACAD
70
0
0
ENDTAB
0
TABLE
2
DIMSTYLE
5
A
100
AcDbSymbolTable
70
1
0
ENDTAB
0
TABLE
2
BLOCK_RECORD
5
1
100
AcDbSymbolTable
70
1
0
BLOCK_RECORD
5
1F
100
AcDbSymbolTableRecord
100
AcDbBlockTableRecord
2
*MODEL_SPACE
0
BLOCK_RECORD
5
1B
100
AcDbSymbolTableRecord
100
AcDbBlockTableRecord
2
*PAPER_SPACE
0
ENDTAB
0
ENDSEC
0
SECTION
2
BLOCKS
0
BLOCK
5
20
100
AcDbEntity
100
AcDbBlockBegin
2
*MODEL_SPACE
0
ENDBLK
5
21
100
AcDbEntity
100
AcDbBlockEnd
0
BLOCK
5
1C
100
AcDbEntity
100
AcDbBlockBegin
2
*PAPER_SPACE
0
ENDBLK
5
1D
100
AcDbEntity
100
AcDbBlockEnd
0
ENDSEC
0
SECTION
2
ENTITIES
0
CIRCLE
5
100
100
AcDbEntity
8
0
100
AcDbCircle
10
458.63181882001766
20
-21.249022279028189
30
0
40
1.625
210
0
220
-0
230
1
0
CIRCLE
5
101
100
AcDbEntity
8
0
100
AcDbCircle
10
500.23915407538146
20
-21.249022279028189
30
0
40
1.625
210
0
220
-0
230
1
0
SPLINE
5
102
100
AcDbEntity
8
0
100
AcDbSpline
70
0
71
3
72
8
73
4
74
0
42
0.000000001
43
0.0000000001
44
0.0000000001
40
7
40
7
40
7
40
7
40
8
40
8
40
8
40
8
10
520.0428217030634
20
-28.748089119306002
30
0
10
520.5951064528939
20
-28.748089119306002
30
0
10
521.04282170306328
20
-28.300373869136664
30
0
10
521.04282170306328
20
-27.748089119305916
30
0
0
LINE
5
103
100
AcDbEntity
8
0
100
AcDbLine
10
521.0428217030634
20
-27.748089119305916
30
0
11
521.04282170306328
21
-14.749955438750462
31
0
0
ARC
5
104
100
AcDbEntity
8
0
100
AcDbCircle
10
519.0428217030634
20
-14.749955438750391
30
0
40
1.9999999999999574
210
-0
220
0
230
1
100
AcDbArc
50
0
51
90
0
LINE
5
105
100
AcDbEntity
8
0
100
AcDbLine
10
519.0428217030634
20
-12.749955438750433
30
0
11
439.82815119233578
21
-12.749955438750451
31
0
0
ARC
5
106
100
AcDbEntity
8
0
100
AcDbCircle
10
439.82815119233578
20
-14.749955438750444
30
0
40
1.9999999999999929
210
0
220
-0
230
1
100
AcDbArc
50
90
51
180
0
LINE
5
107
100
AcDbEntity
8
0
100
AcDbLine
10
437.82815119233578
20
-14.749955438750444
30
0
11
437.82815119233584
21
-27.748089119305916
31
0
0
SPLINE
5
108
100
AcDbEntity
8
0
100
AcDbSpline
70
0
71
3
72
8
73
4
74
0
42
0.000000001
43
0.0000000001
44
0.0000000001
40
5
40
5
40
5
40
5
40
6
40
6
40
6
40
6
10
437.82815119233584
20
-27.748089119305916
30
0
10
437.82815119233584
20
-28.300373869136664
30
0
10
438.27586644250516
20
-28.748089119306002
30
0
10
438.82815119233555
20
-28.748089119306002
30
0
0
LINE
5
109
100
AcDbEntity
8
0
100
AcDbLine
10
438.82815119233555
20
-28.748089119305998
30
0
11
520.0428217030634
21
-28.748089119306002
31
0
0
CIRCLE
5
110
100
AcDbEntity
8
0
100
AcDbCircle
10
590.28812473907112
20
-21.249020498835893
30
0
40
1.625
210
0
220
-0
230
1
0
CIRCLE
5
111
100
AcDbEntity
8
0
100
AcDbCircle
10
463.39880224257502
20
-130.49990127004929
30
0
40
1.625
210
0
220
-0
230
1
0
CIRCLE
5
112
100
AcDbEntity
8
0
100
AcDbCircle
10
550.75619520078851
20
-21.249020498836106
30
0
40
1.625
210
0
220
-0
230
1
0
CIRCLE
5
113
100
AcDbEntity
8
0
100
AcDbCircle
10
420.83984443164746
20
-21.249958914363454
30
0
40
1.625
210
0
220
-0
230
1
0
CIRCLE
5
114
100
AcDbEntity
8
0
100
AcDbCircle
10
553.065880326453
20
-130.49990127004929
30
0
40
1.625
210
0
220
-0
230
1
0
CIRCLE
5
115
100
AcDbEntity
8
0
100
AcDbCircle
10
591.75249752816444
20
-76.373993456870977
30
0
40
1.625
210
0
220
-0
230
1
0
CIRCLE
5
116
100
AcDbEntity
8
0
100
AcDbCircle
10
590.27347176806632
20
-130.49990127004929
30
0
40
1.625
210
0
220
-0
230
1
0
SPLINE
5
117
100
AcDbEntity
8
0
100
AcDbSpline
70
0
71
3
72
8
73
4
74
0
42
0.000000001
43
0.0000000001
44
0.0000000001
40
48
40
48
40
48
40
48
40
49
40
49
40
49
40
49
10
413.80274166878957
20
-49.800034106285196
30
0
10
414.90732540902394
20
-49.800034106285196
30
0
10
415.80274878955777
20
-48.904610725750999
30
0
10
415.80274878955777
20
-47.800026985516624
30
0
0
LINE
5
118
100
AcDbEntity
8
0
100
AcDbLine
10
415.80274878955777
20
-47.800026985516624
30
0
11
415.80274878955777
21
-30.749962389976453
31
0
0
SPLINE
5
119
100
AcDbEntity
8
0
100
AcDbSpline
70
0
71
3
72
8
73
4
74
0
42
0.000000001
43
0.0000000001
44
0.0000000001
40
1
40
1
40
1
40
1
40
2
40
2
40
2
40
2
10
415.80274878955777
20
-30.749962389976453
30
0
10
415.80274878955777
20
-29.645392890314994
30
0
10
416.69817928989653
20
-28.749962389976567
30
0
10
417.802748789558
20
-28.749962389976567
30
0
0
LINE
5
120
100
AcDbEntity
8
0
100
AcDbLine
10
417.802748789558
20
-28.749962389976567
30
0
11
426.87692566265912
21
-28.749962389976567
31
0
0
SPLINE
5
121
100
AcDbEntity
8
0
100
AcDbSpline
70
0
71
3
72
8
73
4
74
0
42
0.000000001
43
0.0000000001
44
0.0000000001
40
3
40
3
40
3
40
3
40
4
40
4
40
4
40
4
10
426.87692566265912
20
-28.749962389976567
30
0
10
427.42921041248962
20
-28.749962389976567
30
0
10
427.87692566265889
20
-28.302247139806909
30
0
10
427.87692566265889
20
-27.749962389976481
30
0
0
LINE
5
122
100
AcDbEntity
8
0
100
AcDbLine
10
427.87692566265895
20
-27.749962389976481
30
0
11
427.87692566265889
21
-14.749955438750444
31
0
0
ARC
5
123
100
AcDbEntity
8
0
100
AcDbCircle
10
425.87692566265889
20
-14.749955438750444
30
0
40
2.0000000000000284
210
0
220
-0
230
1
100
AcDbArc
50
0
51
90
0
LINE
5
124
100
AcDbEntity
8
0
100
AcDbLine
10
425.87692566265889
20
-12.749955438750451
30
0
11
415.80366753820147
21
-12.749955438750451
31
0
0
ARC
5
125
100
AcDbEntity
8
0
100
AcDbCircle
10
415.80366753820147
20
-14.749955438750444
30
0
40
1.9999999999999929
210
0
220
-0
230
1
100
AcDbArc
50
90
51
180
0
LINE
5
126
100
AcDbEntity
8
0
100
AcDbLine
10
413.80366753820141
20
-14.749955438750444
30
0
11
413.80366753820141
21
-22.749725709204025
31
0
0
LINE
5
127
100
AcDbEntity
8
0
100
AcDbLine
10
413.80366753820141
20
-22.749725709204025
30
0
11
413.80276320063638
21
-30.749969510744819
31
0
0
LINE
5
128
100
AcDbEntity
8
0
100
AcDbLine
10
413.80276320063638
20
-30.749969510744819
30
0
11
413.80276320063638
21
-45.799955269208361
31
0
0
SPLINE
5
129
100
AcDbEntity
8
0
100
AcDbSpline
70
0
71
3
72
8
73
4
74
0
42
0.000000001
43
0.0000000001
44
0.0000000001
40
10
40
10
40
10
40
10
40
11
40
11
40
11
40
11
10
413.80276320063638
20
-45.799955269208361
30
0
10
413.80276320063638
20
-46.904528701561183
30
0
10
412.90732951222134
20
-47.799962389976614
30
0
10
411.80275607986812
20
-47.799962389976614
30
0
0
LINE
5
130
100
AcDbEntity
8
0
100
AcDbLine
10
411.80275607986812
20
-47.799962389976621
30
0
11
406.27777032140455
21
-47.799962389976614
31
0
0
SPLINE
5
131
100
AcDbEntity
8
0
100
AcDbSpline
70
0
71
3
72
8
73
4
74
0
42
0.000000001
43
0.0000000001
44
0.0000000001
40
12
40
12
40
12
40
12
40
13
40
13
40
13
40
13
10
406.27777032140455
20
-47.799962389976614
30
0
10
405.17319688905138
20
-47.799962389976614
30
0
10
404.27776320063634
20
-48.695396078391582
30
0
10
404.27776320063634
20
-49.79996951074483
30
0
0
LINE
5
132
100
AcDbEntity
8
0
100
AcDbLine
10
404.27776320063634
20
-49.79996951074483
30
0
11
404.27776320063634
21
-64.849847609974418
31
0
0
SPLINE
5
133
100
AcDbEntity
8
0
100
AcDbSpline
70
0
71
3
72
8
73
4
74
0
42
0.000000001
43
0.0000000001
44
0.0000000001
40
14
40
14
40
14
40
14
40
15
40
15
40
15
40
15
10
404.27776320063634
20
-64.849847609974418
30
0
10
404.27776320063634
20
-65.954409150617039
30
0
10
405.17318724891516
20
-66.849833198895894
30
0
10
406.27774878955779
20
-66.849833198895894
30
0
0
LINE
5
134
100
AcDbEntity
8
0
100
AcDbLine
10
406.27774878955785
20
-66.849833198895894
30
0
11
407.04027761171488
21
-66.849833198895894
31
0
0
SPLINE
5
135
100
AcDbEntity
8
0
100
AcDbSpline
70
0
71
3
72
8
73
4
74
0
42
0.000000001
43
0.0000000001
44
0.0000000001
40
16
40
16
40
16
40
16
40
17
40
17
40
17
40
17
10
407.04027761171488
20
-66.849833198895894
30
0
10
408.14483915235758
20
-66.849833198895894
30
0
10
409.04026320063633
20
-67.745257247174663
30
0
10
409.04026320063633
20
-68.849818787817298
30
0
0
LINE
5
136
100
AcDbEntity
8
0
100
AcDbLine
10
409.04026320063633
20
-68.849818787817298
30
0
11
409.04026320063633
21
-83.899826078127333
31
0
0
SPLINE
5
137
100
AcDbEntity
8
0
100
AcDbSpline
70
0
71
3
72
8
73
4
74
0
42
0.000000001
43
0.0000000001
44
0.0000000001
40
18
40
18
40
18
40
18
40
19
40
19
40
19
40
19
10
409.04026320063633
20
-83.899826078127333
30
0
10
409.04026320063633
20
-85.004399510480511
30
0
10
409.93569688905143
20
-85.899833198895479
30
0
10
411.04027032140459
20
-85.899833198895479
30
0
0
LINE
5
138
100
AcDbEntity
8
0
100
AcDbLine
10
411.04027032140459
20
-85.899833198895479
30
0
11
416.56527761171492
21
-85.899833198895479
31
0
0
SPLINE
5
139
100
AcDbEntity
8
0
100
AcDbSpline
70
0
71
3
72
8
73
4
74
0
42
0.000000001
43
0.0000000001
44
0.0000000001
40
20
40
20
40
20
40
20
40
21
40
21
40
21
40
21
10
416.56527761171492
20
-85.899833198895479
30
0
10
417.66983915235755
20
-85.899833198895479
30
0
10
418.56526320063637
20
-86.795257247175002
30
0
10
418.56526320063637
20
-87.899818787816955
30
0
0
LINE
5
140
100
AcDbEntity
8
0
100
AcDbLine
10
418.56526320063637
20
-87.899818787816955
30
0
11
418.56526320063637
21
-137.99984015012168
31
0
0
ARC
5
141
100
AcDbEntity
8
0
100
AcDbCircle
10
420.56526320063642
20
-137.99984015012168
30
0
40
2.0000000000000284
210
0
220
0
230
1
100
AcDbArc
50
180
51
270
0
LINE
5
142
100
AcDbEntity
8
0
100
AcDbLine
10
420.56526320063642
20
-139.99984015012166
30
0
11
589.2524759963178
21
-139.99984015012166
31
0
0
SPLINE
5
143
100
AcDbEntity
8
0
100
AcDbSpline
70
0
71
3
72
14
73
10
74
0
42
0.000000001
43
0.0000000001
44
0.0000000001
40
24
40
24
40
24
40
24
40
24.405623453169845
40
24.405623453169845
40
24.405623453169845
40
24.855637974279588
40
24.855637974279588
40
24.855637974279588
40
25
40
25
40
25
40
25
10
589.2524759963178
20
-139.99984015012166
30
0
10
591.90227926000409
20
-139.99984015012166
30
0
10
594.43214805959212
20
-139.10807605056652
30
0
10
596.4277043612891
20
-137.61867576499498
30
0
10
598.64165255989008
20
-135.96627684423646
30
0
10
600.26631658105362
20
-133.5657173746412
30
0
10
600.92876917947956
20
-130.77224520677601
30
0
10
601.14128009760884
20
-129.87611567755073
30
0
10
601.25249023785409
20
-128.94289506278949
30
0
10
601.25249023785409
20
-127.99982590858519
30
0
0
LINE
5
144
100
AcDbEntity
8
0
100
AcDbLine
10
601.25249023785409
20
-127.99982590858519
30
0
11
601.25249023785409
21
-24.74996968028691
31
0
0
SPLINE
5
145
100
AcDbEntity
8
0
100
AcDbSpline
70
0
71
3
72
14
73
10
74
0
42
0.000000001
43
0.0000000001
44
0.0000000001
40
26
40
26
40
26
40
26
40
26.405623453169998
40
26.405623453169998
40
26.405623453169998
40
26.855637974279759
40
26.855637974279759
40
26.855637974279759
40
27
40
27
40
27
40
27
10
601.25249023785409
20
-24.74996968028691
30
0
10
601.25249023785409
20
-22.100166416599727
30
0
10
600.36072613829833
20
-19.570297617010546
30
0
10
598.8713258527257
20
-17.57474131531314
30
0
10
597.21892693196662
20
-15.360793116712426
30
0
10
594.81836746237059
20
-13.736129095549483
30
0
10
592.02489529450531
20
-13.073676497124236
30
0
10
591.12876576528106
20
-12.861165578995486
30
0
10
590.19554515052084
20
-12.749955438750451
30
0
10
589.2524759963178
20
-12.749955438750451
30
0
0
LINE
5
146
100
AcDbEntity
8
0
100
AcDbLine
10
589.2524759963178
20
-12.749955438750451
30
0
11
537.16223755230726
21
-12.749955438750451
31
0
0
ARC
5
147
100
AcDbEntity
8
0
100
AcDbCircle
10
537.16223755230715
20
-14.74995543875032
30
0
40
1.9999999999998685
210
0
220
-0
230
1
100
AcDbArc
50
89.999999999996746
51
180
0
LINE
5
148
100
AcDbEntity
8
0
100
AcDbLine
10
535.16223755230726
20
-14.749955438750444
30
0
11
535.16223755230737
21
-27.748085558921929
31
0
0
SPLINE
5
149
100
AcDbEntity
8
0
100
AcDbSpline
70
0
71
3
72
8
73
4
74
0
42
0.000000001
43
0.0000000001
44
0.0000000001
40
30
40
30
40
30
40
30
40
31
40
31
40
31
40
31
10
535.16223755230737
20
-27.748085558921929
30
0
10
535.16223755230737
20
-28.300372275098482
30
0
10
535.60995439651492
20
-28.748089119306002
30
0
10
536.1622411126915
20
-28.748089119306002
30
0
0
LINE
5
150
100
AcDbEntity
8
0
100
AcDbLine
10
536.1622411126915
20
-28.748089119306005
30
0
11
583.25251922955329
21
-28.748089119306002
31
0
0
SPLINE
5
151
100
AcDbEntity
8
0
100
AcDbSpline
70
0
71
3
72
8
73
4
74
0
42
0.000000001
43
0.0000000001
44
0.0000000001
40
32
40
32
40
32
40
32
40
33
40
33
40
33
40
33
10
583.25251922955329
20
-28.748089119306002
30
0
10
584.35709266190656
20
-28.748089119306002
30
0
10
585.25252635032166
20
-29.643522807721041
30
0
10
585.25252635032166
20
-30.748096240073934
30
0
0
LINE
5
152
100
AcDbEntity
8
0
100
AcDbLine
10
585.25252635032166
20
-30.748096240073934
30
0
11
585.25252635032166
21
-121.99808199853749
31
0
0
SPLINE
5
153
100
AcDbEntity
8
0
100
AcDbSpline
70
0
71
3
72
8
73
4
74
0
42
0.000000001
43
0.0000000001
44
0.0000000001
40
34
40
34
40
34
40
34
40
35
40
35
40
35
40
35
10
585.25252635032166
20
-121.99808199853749
30
0
10
585.25252635032166
20
-123.10265543089066
30
0
10
584.35709266190656
20
-123.9980891193057
30
0
10
583.25251922955329
20
-123.9980891193057
30
0
0
LINE
5
154
100
AcDbEntity
8
0
100
AcDbLine
10
583.25251922955329
20
-123.9980891193057
30
0
11
422.56525591032596
21
-123.9980891193057
31
0
0
SPLINE
5
155
100
AcDbEntity
8
0
100
AcDbSpline
70
0
71
3
72
8
73
4
74
0
42
0.000000001
43
0.0000000001
44
0.0000000001
40
36
40
36
40
36
40
36
40
37
40
37
40
37
40
37
10
422.56525591032596
20
-123.9980891193057
30
0
10
421.4606824779728
20
-123.9980891193057
30
0
10
420.56524878955776
20
-123.10265543089066
30
0
10
420.56524878955776
20
-121.99808199853749
30
0
0
LINE
5
156
100
AcDbEntity
8
0
100
AcDbLine
10
420.56524878955776
20
-121.99808199853749
30
0
11
420.56524878955776
21
-85.89994085812944
31
0
0
SPLINE
5
157
100
AcDbEntity
8
0
100
AcDbSpline
70
0
71
3
72
8
73
4
74
0
42
0.000000001
43
0.0000000001
44
0.0000000001
40
38
40
38
40
38
40
38
40
39
40
39
40
39
40
39
10
420.56524878955776
20
-85.89994085812944
30
0
10
420.56524878955776
20
-84.79536742577622
30
0
10
419.66981510114272
20
-83.899933737361252
30
0
10
418.56524166878955
20
-83.899933737361252
30
0
0
LINE
5
158
100
AcDbEntity
8
0
100
AcDbLine
10
418.56524166878955
20
-83.899933737361252
30
0
11
413.04025591032598
21
-83.899933737361252
31
0
0
SPLINE
5
159
100
AcDbEntity
8
0
100
AcDbSpline
70
0
71
3
72
8
73
4
74
0
42
0.000000001
43
0.0000000001
44
0.0000000001
40
40
40
40
40
40
40
40
40
41
40
41
40
41
40
41
10
413.04025591032598
20
-83.899933737361252
30
0
10
411.93568247797282
20
-83.899933737361252
30
0
10
411.04024878955778
20
-83.004500048946213
30
0
10
411.04024878955778
20
-81.899926616593007
30
0
0
LINE
5
160
100
AcDbEntity
8
0
100
AcDbLine
10
411.04024878955778
20
-81.899926616593007
30
0
11
411.04024878955778
21
-66.849940858129813
31
0
0
SPLINE
5
161
100
AcDbEntity
8
0
100
AcDbSpline
70
0
71
3
72
8
73
4
74
0
42
0.000000001
43
0.0000000001
44
0.0000000001
40
42
40
42
40
42
40
42
40
43
40
43
40
43
40
43
10
411.04024878955778
20
-66.849940858129813
30
0
10
411.04024878955778
20
-65.745367425776635
30
0
10
410.14481510114274
20
-64.849933737361525
30
0
10
409.04024166878958
20
-64.849933737361525
30
0
0
LINE
5
162
100
AcDbEntity
8
0
100
AcDbLine
10
409.04024166878958
20
-64.849933737361511
30
0
11
408.27775591032599
21
-64.849933737361525
31
0
0
SPLINE
5
163
100
AcDbEntity
8
0
100
AcDbSpline
70
0
71
3
72
8
73
4
74
0
42
0.000000001
43
0.0000000001
44
0.0000000001
40
44
40
44
40
44
40
44
40
45
40
45
40
45
40
45
10
408.27775591032599
20
-64.849933737361525
30
0
10
407.17318247797277
20
-64.849933737361525
30
0
10
406.27774878955779
20
-63.954500048946485
30
0
10
406.27774878955779
20
-62.849926616592988
30
0
0
LINE
5
164
100
AcDbEntity
8
0
100
AcDbLine
10
406.27774878955779
20
-62.849926616592988
30
0
11
406.27774878955779
21
-51.800041227053129
31
0
0
SPLINE
5
165
100
AcDbEntity
8
0
100
AcDbSpline
70
0
71
3
72
8
73
4
74
0
42
0.000000001
43
0.0000000001
44
0.0000000001
40
46
40
46
40
46
40
46
40
47
40
47
40
47
40
47
10
406.27774878955779
20
-51.800041227053129
30
0
10
406.27774878955779
20
-50.6954677947002
30
0
10
407.17318247797277
20
-49.800034106285196
30
0
10
408.27775591032599
20
-49.800034106285196
30
0
0
LINE
5
166
100
AcDbEntity
8
0
100
AcDbLine
10
408.27775591032599
20
-49.800034106285189
30
0
11
413.80274166878957
21
-49.800034106285196
31
0
0
ENDSEC
0
SECTION
2
OBJECTS
0
DICTIONARY
5
C
100
AcDbDictionary
3
ACAD_GROUP
350
D
3
ACAD_MLINESTYLE
350
17
0
DICTIONARY
5
D
100
AcDbDictionary
0
DICTIONARY
5
1A
330
C
100
AcDbDictionary
0
DICTIONARY
5
17
100
AcDbDictionary
0
ENDSEC
0
EOF
