0
SECTION
2
HEADER
9
$INSUNITS
70
4
9
$ACADVER
1
AC1014
9
$HANDSEED
5
FFFF
0
ENDSEC
0
SECTION
2
TABLES
0
TABLE
2
VPORT
5
8
100
AcDbSymbolTable
0
ENDTAB
0
TABLE
2
LTYPE
5
5
100
AcDbSymbolTable
0
LTYPE
5
14
100
AcDbSymbolTableRecord
100
AcDbLinetypeTableRecord
2
BYBLOCK
70
0
0
LTYPE
5
15
100
AcDbSymbolTableRecord
100
AcDbLinetypeTableRecord
2
BYLAYER
70
0
0
ENDTAB
0
TABLE
2
LAYER
5
2
100
AcDbSymbolTable
70
2
0
LAYER
5
50
100
AcDbSymbolTableRecord
100
AcDbLayerTableRecord
2
0
70
0
6
CONTINUOUS
0
ENDTAB
0
TABLE
2
STYLE
5
3
100
AcDbSymbolTable
70
1
0
STYLE
5
11
100
AcDbSymbolTableRecord
100
AcDbTextStyleTableRecord
2
STANDARD
70
0
0
ENDTAB
0
TABLE
2
VIEW
5
6
100
AcDbSymbolTable
70
0
0
ENDTAB
0
TABLE
2
UCS
5
7
100
AcDbSymbolTable
70
0
0
ENDTAB
0
TABLE
2
APPID
5
9
100
AcDbSymbolTable
70
2
0
APPID
5
12
100
AcDbSymbolTableRecord
100
AcDbRegAppTableRecord
2
ACAD
70
0
0
ENDTAB
0
TABLE
2
DIMSTYLE
5
A
100
AcDbSymbolTable
70
1
0
ENDTAB
0
TABLE
2
BLOCK_RECORD
5
1
100
AcDbSymbolTable
70
1
0
BLOCK_RECORD
5
1F
100
AcDbSymbolTableRecord
100
AcDbBlockTableRecord
2
*MODEL_SPACE
0
BLOCK_RECORD
5
1B
100
AcDbSymbolTableRecord
100
AcDbBlockTableRecord
2
*PAPER_SPACE
0
ENDTAB
0
ENDSEC
0
SECTION
2
BLOCKS
0
BLOCK
5
20
100
AcDbEntity
100
AcDbBlockBegin
2
*MODEL_SPACE
0
ENDBLK
5
21
100
AcDbEntity
100
AcDbBlockEnd
0
BLOCK
5
1C
100
AcDbEntity
100
AcDbBlockBegin
2
*PAPER_SPACE
0
ENDBLK
5
1D
100
AcDbEntity
100
AcDbBlockEnd
0
ENDSEC
0
SECTION
2
ENTITIES
0
CIRCLE
5
100
100
AcDbEntity
8
0
100
AcDbCircle
10
590.28812473907112
20
-21.249020498835893
30
0
40
1.625
210
0
220
-0
230
1
0
CIRCLE
5
101
100
AcDbEntity
8
0
100
AcDbCircle
10
463.39880224257502
20
-130.49990127004929
30
0
40
1.625
210
0
220
-0
230
1
0
CIRCLE
5
102
100
AcDbEntity
8
0
100
AcDbCircle
10
550.75619520078851
20
-21.249020498836106
30
0
40
1.625
210
0
220
-0
230
1
0
CIRCLE
5
103
100
AcDbEntity
8
0
100
AcDbCircle
10
458.63181882001766
20
-21.249022279028189
30
0
40
1.625
210
0
220
-0
230
1
0
CIRCLE
5
104
100
AcDbEntity
8
0
100
AcDbCircle
10
420.83984443164746
20
-21.249958914363454
30
0
40
1.625
210
0
220
-0
230
1
0
CIRCLE
5
105
100
AcDbEntity
8
0
100
AcDbCircle
10
500.23915407538146
20
-21.249022279028189
30
0
40
1.625
210
0
220
-0
230
1
0
CIRCLE
5
106
100
AcDbEntity
8
0
100
AcDbCircle
10
553.065880326453
20
-130.49990127004929
30
0
40
1.625
210
0
220
-0
230
1
0
CIRCLE
5
107
100
AcDbEntity
8
0
100
AcDbCircle
10
591.75249752816444
20
-76.373993456870977
30
0
40
1.625
210
0
220
-0
230
1
0
CIRCLE
5
108
100
AcDbEntity
8
0
100
AcDbCircle
10
590.27347176806632
20
-130.49990127004929
30
0
40
1.625
210
0
220
-0
230
1
0
LINE
5
109
100
AcDbEntity
8
0
100
AcDbLine
10
418.83321239306719
20
-138.999840150122
30
0
11
589.2524759963178
21
-138.999840150122
31
0
0
SPLINE
5
110
100
AcDbEntity
8
0
100
AcDbSpline
70
0
71
3
72
14
73
10
74
0
42
0.000000001
43
0.0000000001
44
0.0000000001
40
14
40
14
40
14
40
14
40
14.405623453169659
40
14.405623453169659
40
14.405623453169659
40
14.855637974279061
40
14.855637974279061
40
14.855637974279061
40
15
40
15
40
15
40
15
10
589.2524759963178
20
-138.999840150122
30
0
10
591.67791460088199
20
-138.999840150122
30
0
10
594.00533882079412
20
-138.17880492607992
30
0
10
595.8295608693229
20
-136.81728140619094
30
0
10
597.85938745572332
20
-135.30230320443695
30
0
10
599.34830533566821
20
-133.10296037806464
30
0
10
599.95573365634027
20
-130.5415180774452
30
0
10
600.1503512986751
20
-129.72084204941359
30
0
10
600.25246870600733
20
-128.86429912192511
30
0
10
600.25246870600733
20
-127.99984744043232
30
0
0
LINE
5
111
100
AcDbEntity
8
0
100
AcDbLine
10
600.25246870600733
20
-127.99984744043232
30
0
11
600.25246870600733
21
-24.749948148440151
31
0
0
SPLINE
5
112
100
AcDbEntity
8
0
100
AcDbSpline
70
0
71
3
72
14
73
10
74
0
42
0.000000001
43
0.0000000001
44
0.0000000001
40
16
40
16
40
16
40
16
40
16.405623453169046
40
16.405623453169046
40
16.405623453169046
40
16.855637974279094
40
16.855637974279094
40
16.855637974279094
40
17
40
17
40
17
40
17
10
600.25246870600733
20
-24.749948148440151
30
0
10
600.25246870600733
20
-22.324509543879305
30
0
10
599.43143348196782
20
-19.997085323970367
30
0
10
598.06990996208219
20
-18.172863275442737
30
0
10
596.55493176032758
20
-16.14303668903764
30
0
10
594.35558893395239
20
-14.654118809089933
30
0
10
591.79414663332966
20
-14.046690488417291
30
0
10
590.9734706052983
20
-13.85207284608267
30
0
10
590.11692767781017
20
-13.749955438750447
30
0
10
589.2524759963178
20
-13.749955438750447
30
0
0
LINE
5
113
100
AcDbEntity
8
0
100
AcDbLine
10
589.2524759963178
20
-13.749955438750447
30
0
11
414.0707123930672
21
-13.749955438750447
31
0
0
ARC
5
114
100
AcDbEntity
8
0
100
AcDbCircle
10
415.80276320063604
20
-14.749955438750462
30
0
40
1.9999999999999991
210
0
220
0
230
1
100
AcDbArc
50
149.99999999999912
51
180
0
LINE
5
115
100
AcDbEntity
8
0
100
AcDbLine
10
413.80276320063604
20
-14.749955438750437
30
0
11
413.80276320063604
21
-28.749962389976531
31
0
0
LINE
5
116
100
AcDbEntity
8
0
100
AcDbLine
10
413.80276320063604
20
-28.749962389976531
30
0
11
584.25248328662769
21
-28.749962389976531
31
0
0
SPLINE
5
117
100
AcDbEntity
8
0
100
AcDbSpline
70
0
71
3
72
8
73
4
74
0
42
0.000000001
43
0.0000000001
44
0.0000000001
40
5
40
5
40
5
40
5
40
6
40
6
40
6
40
6
10
584.25248328662769
20
-28.749962389976531
30
0
10
584.80476803645877
20
-28.749962389976531
30
0
10
585.25248328662815
20
-29.197677640145621
30
0
10
585.25248328662815
20
-29.749962389976368
30
0
0
LINE
5
118
100
AcDbEntity
8
0
100
AcDbLine
10
585.25248328662815
20
-29.749962389976368
30
0
11
585.25248328662815
21
-122.99996238997682
31
0
0
SPLINE
5
119
100
AcDbEntity
8
0
100
AcDbSpline
70
0
71
3
72
8
73
4
74
0
42
0.000000001
43
0.0000000001
44
0.0000000001
40
7
40
7
40
7
40
7
40
8
40
8
40
8
40
8
10
585.25248328662815
20
-122.99996238997682
30
0
10
585.25248328662815
20
-123.55224713980729
30
0
10
584.80476803645877
20
-123.99996238997656
30
0
10
584.25248328662769
20
-123.99996238997656
30
0
0
LINE
5
120
100
AcDbEntity
8
0
100
AcDbLine
10
584.25248328662769
20
-123.99996238997656
30
0
11
418.56526320063608
21
-123.99996238997656
31
0
0
LINE
5
121
100
AcDbEntity
8
0
100
AcDbLine
10
418.56526320063608
20
-123.99996238997656
30
0
11
418.56526320063608
21
-137.99984015012203
31
0
0
ARC
5
122
100
AcDbEntity
8
0
100
AcDbCircle
10
420.56526320063602
20
-137.99984015012203
30
0
40
1.9999999999999574
210
0
220
0
230
1
100
AcDbArc
50
180
51
209.99999999999983
0
ENDSEC
0
SECTION
2
OBJECTS
0
DICTIONARY
5
C
100
AcDbDictionary
3
ACAD_GROUP
350
D
3
ACAD_MLINESTYLE
350
17
0
DICTIONARY
5
D
100
AcDbDictionary
0
DICTIONARY
5
1A
330
C
100
AcDbDictionary
0
DICTIONARY
5
17
100
AcDbDictionary
0
ENDSEC
0
EOF
