0
SECTION
2
HEADER
9
$INSUNITS
70
4
9
$ACADVER
1
AC1014
9
$HANDSEED
5
FFFF
0
ENDSEC
0
SECTION
2
TABLES
0
TABLE
2
VPORT
5
8
100
AcDbSymbolTable
0
ENDTAB
0
TABLE
2
LTYPE
5
5
100
AcDbSymbolTable
0
LTYPE
5
14
100
AcDbSymbolTableRecord
100
AcDbLinetypeTableRecord
2
BYBLOCK
70
0
0
LTYPE
5
15
100
AcDbSymbolTableRecord
100
AcDbLinetypeTableRecord
2
BYLAYER
70
0
0
ENDTAB
0
TABLE
2
LAYER
5
2
100
AcDbSymbolTable
70
2
0
LAYER
5
50
100
AcDbSymbolTableRecord
100
AcDbLayerTableRecord
2
0
70
0
6
CONTINUOUS
0
ENDTAB
0
TABLE
2
STYLE
5
3
100
AcDbSymbolTable
70
1
0
STYLE
5
11
100
AcDbSymbolTableRecord
100
AcDbTextStyleTableRecord
2
STANDARD
70
0
0
ENDTAB
0
TABLE
2
VIEW
5
6
100
AcDbSymbolTable
70
0
0
ENDTAB
0
TABLE
2
UCS
5
7
100
AcDbSymbolTable
70
0
0
ENDTAB
0
TABLE
2
APPID
5
9
100
AcDbSymbolTable
70
2
0
APPID
5
12
100
AcDbSymbolTableRecord
100
AcDbRegAppTableRecord
2
ACAD
70
0
0
ENDTAB
0
TABLE
2
DIMSTYLE
5
A
100
AcDbSymbolTable
70
1
0
ENDTAB
0
TABLE
2
BLOCK_RECORD
5
1
100
AcDbSymbolTable
70
1
0
BLOCK_RECORD
5
1F
100
AcDbSymbolTableRecord
100
AcDbBlockTableRecord
2
*MODEL_SPACE
0
BLOCK_RECORD
5
1B
100
AcDbSymbolTableRecord
100
AcDbBlockTableRecord
2
*PAPER_SPACE
0
ENDTAB
0
ENDSEC
0
SECTION
2
BLOCKS
0
BLOCK
5
20
100
AcDbEntity
100
AcDbBlockBegin
2
*MODEL_SPACE
0
ENDBLK
5
21
100
AcDbEntity
100
AcDbBlockEnd
0
BLOCK
5
1C
100
AcDbEntity
100
AcDbBlockBegin
2
*PAPER_SPACE
0
ENDBLK
5
1D
100
AcDbEntity
100
AcDbBlockEnd
0
ENDSEC
0
SECTION
2
ENTITIES
0
CIRCLE
5
100
100
AcDbEntity
8
0
100
AcDbCircle
10
591.75249752816444
20
-76.373993456870977
30
0
40
1.0999999999999943
210
0
220
-0
230
1
0
CIRCLE
5
101
100
AcDbEntity
8
0
100
AcDbCircle
10
458.63181882001766
20
-21.249022279028189
30
0
40
1.0999999999999943
210
0
220
-0
230
1
0
CIRCLE
5
102
100
AcDbEntity
8
0
100
AcDbCircle
10
500.23915407538146
20
-21.249022279028189
30
0
40
1.0999999999999943
210
0
220
-0
230
1
0
CIRCLE
5
103
100
AcDbEntity
8
0
100
AcDbCircle
10
463.39880224257502
20
-130.49990127004929
30
0
40
1.0999999999999943
210
0
220
-0
230
1
0
CIRCLE
5
104
100
AcDbEntity
8
0
100
AcDbCircle
10
590.27347176806632
20
-130.49990127004929
30
0
40
1.0999999999999943
210
0
220
-0
230
1
0
CIRCLE
5
105
100
AcDbEntity
8
0
100
AcDbCircle
10
420.83984443164746
20
-21.249958914363454
30
0
40
1.0999999999999943
210
0
220
-0
230
1
0
CIRCLE
5
106
100
AcDbEntity
8
0
100
AcDbCircle
10
550.75619520078851
20
-21.249020498836106
30
0
40
1.0999999999999943
210
0
220
-0
230
1
0
CIRCLE
5
107
100
AcDbEntity
8
0
100
AcDbCircle
10
553.065880326453
20
-130.49990127004929
30
0
40
1.0999999999999943
210
0
220
-0
230
1
0
CIRCLE
5
108
100
AcDbEntity
8
0
100
AcDbCircle
10
590.28812473907112
20
-21.249020498835893
30
0
40
1.0999999999999943
210
0
220
-0
230
1
0
SPLINE
5
109
100
AcDbEntity
8
0
100
AcDbSpline
70
2
71
3
72
17
73
13
74
0
42
0.000000001
43
0.0000000001
44
0.0000000001
40
0
40
0
40
0
40
0
40
1
40
1
40
1
40
2
40
2
40
2
40
3
40
3
40
3
40
4
40
4
40
4
40
4
10
519.17284923125055
20
-88.569113977868909
30
0
10
520.00127606298781
20
-88.569113977868909
30
0
10
520.67284799583365
20
-89.240685910714816
30
0
10
520.67284799583365
20
-90.069112742451978
30
0
10
520.67284799583365
20
-90.897539574189182
30
0
10
520.00127606298781
20
-91.56911646797181
30
0
10
519.17284923125055
20
-91.56911646797181
30
0
10
518.34442239951352
20
-91.56911646797181
30
0
10
517.67285046666768
20
-90.897539574189182
30
0
10
517.67285046666768
20
-90.069112742451978
30
0
10
517.67285046666768
20
-89.240685910714816
30
0
10
518.34442239951352
20
-88.569113977868909
30
0
10
519.17284923125055
20
-88.569113977868909
30
0
0
LINE
5
110
100
AcDbEntity
8
0
100
AcDbLine
10
413.80276320063604
20
-14.749962559518792
30
0
11
413.80276320063604
21
-45.799962559519045
31
0
0
SPLINE
5
111
100
AcDbEntity
8
0
100
AcDbSpline
70
0
71
3
72
8
73
4
74
0
42
0.000000001
43
0.0000000001
44
0.0000000001
40
-18
40
-18
40
-18
40
-18
40
-17
40
-17
40
-17
40
-17
10
413.80276320063604
20
-45.799962559519045
30
0
10
413.80276320063604
20
-46.90453205918022
30
0
10
412.90733270029796
20
-47.799962559518896
30
0
10
411.80276320063649
20
-47.799962559518896
30
0
0
LINE
5
112
100
AcDbEntity
8
0
100
AcDbLine
10
411.80276320063649
20
-47.799962559518889
30
0
11
406.27776320063555
21
-47.799962559518896
31
0
0
SPLINE
5
113
100
AcDbEntity
8
0
100
AcDbSpline
70
0
71
3
72
8
73
4
74
0
42
0.000000001
43
0.0000000001
44
0.0000000001
40
-16
40
-16
40
-16
40
-16
40
-15
40
-15
40
-15
40
-15
10
406.27776320063555
20
-47.799962559518896
30
0
10
405.17319370097402
20
-47.799962559518896
30
0
10
404.277763200636
20
-48.695393059857288
30
0
10
404.277763200636
20
-49.799962559518782
30
0
0
LINE
5
114
100
AcDbEntity
8
0
100
AcDbLine
10
404.277763200636
20
-49.799962559518782
30
0
11
404.277763200636
21
-64.849847270890351
31
0
0
SPLINE
5
115
100
AcDbEntity
8
0
100
AcDbSpline
70
0
71
3
72
8
73
4
74
0
42
0.000000001
43
0.0000000001
44
0.0000000001
40
-14
40
-14
40
-14
40
-14
40
-13
40
-13
40
-13
40
-13
10
404.277763200636
20
-64.849847270890351
30
0
10
404.277763200636
20
-65.954416770551802
30
0
10
405.17319370097471
20
-66.849847270890521
30
0
10
406.27776320063617
20
-66.849847270890521
30
0
0
LINE
5
116
100
AcDbEntity
8
0
100
AcDbLine
10
406.27776320063617
20
-66.849847270890507
30
0
11
407.04026320063582
21
-66.849847270890521
31
0
0
SPLINE
5
117
100
AcDbEntity
8
0
100
AcDbSpline
70
0
71
3
72
8
73
4
74
0
42
0.000000001
43
0.0000000001
44
0.0000000001
40
-12
40
-12
40
-12
40
-12
40
-11
40
-11
40
-11
40
-11
10
407.04026320063582
20
-66.849847270890521
30
0
10
408.14483270029723
20
-66.849847270890521
30
0
10
409.04026320063599
20
-67.74527777122924
30
0
10
409.04026320063599
20
-68.849847270890734
30
0
0
LINE
5
118
100
AcDbEntity
8
0
100
AcDbLine
10
409.04026320063599
20
-68.849847270890734
30
0
11
409.04026320063599
21
-83.899847270890689
31
0
0
SPLINE
5
119
100
AcDbEntity
8
0
100
AcDbSpline
70
0
71
3
72
8
73
4
74
0
42
0.000000001
43
0.0000000001
44
0.0000000001
40
-10
40
-10
40
-10
40
-10
40
-9
40
-9
40
-9
40
-9
10
409.04026320063599
20
-83.899847270890689
30
0
10
409.04026320063599
20
-85.004416770551501
30
0
10
409.9356937009747
20
-85.899847270890248
30
0
10
411.04026320063616
20
-85.899847270890248
30
0
0
LINE
5
120
100
AcDbEntity
8
0
100
AcDbLine
10
411.04026320063616
20
-85.899847270890248
30
0
11
416.56526320063574
21
-85.899847270890248
31
0
0
SPLINE
5
121
100
AcDbEntity
8
0
100
AcDbSpline
70
0
71
3
72
8
73
4
74
0
42
0.000000001
43
0.0000000001
44
0.0000000001
40
-8
40
-8
40
-8
40
-8
40
-7
40
-7
40
-7
40
-7
10
416.56526320063574
20
-85.899847270890248
30
0
10
417.66983270029726
20
-85.899847270890248
30
0
10
418.56526320063602
20
-86.795277771228925
30
0
10
418.56526320063602
20
-87.89984727089103
30
0
0
LINE
5
122
100
AcDbEntity
8
0
100
AcDbLine
10
418.56526320063602
20
-87.89984727089103
30
0
11
418.56526320063602
21
-137.99984727088969
31
0
0
ARC
5
123
100
AcDbEntity
8
0
100
AcDbCircle
10
420.56526320063597
20
-137.99984727088969
30
0
40
1.9999999999999574
210
0
220
0
230
1
100
AcDbArc
50
180
51
270
0
LINE
5
124
100
AcDbEntity
8
0
100
AcDbLine
10
420.56526320063597
20
-139.99984727088969
30
0
11
589.25247565723305
21
-139.99984727088969
31
0
0
SPLINE
5
125
100
AcDbEntity
8
0
100
AcDbSpline
70
0
71
3
72
14
73
10
74
0
42
0.000000001
43
0.0000000001
44
0.0000000001
40
-4
40
-4
40
-4
40
-4
40
-3.5943765468293991
40
-3.5943765468293991
40
-3.5943765468293991
40
-3.1443620257206604
40
-3.1443620257206604
40
-3.1443620257206604
40
-3
40
-3
40
-3
40
-3
10
589.25247565723305
20
-139.99984727088969
30
0
10
591.90227573053949
20
-139.99984727088969
30
0
10
594.43214158477122
20
-139.10808422040276
30
0
10
596.42769551227377
20
-137.61868570682822
30
0
10
598.64164107684167
20
-135.96628875199923
30
0
10
600.26630316699527
20
-133.56573213815938
30
0
10
600.92875498279955
20
-130.77226327050965
30
0
10
601.14126564986907
20
-129.87613479997066
30
0
10
601.25247565723339
20
-128.94291528963396
30
0
10
601.25247565723339
20
-127.99984727089057
30
0
0
LINE
5
126
100
AcDbEntity
8
0
100
AcDbLine
10
601.25247565723339
20
-127.99984727089056
30
0
11
601.25247565723339
21
-24.749962559518828
31
0
0
SPLINE
5
127
100
AcDbEntity
8
0
100
AcDbSpline
70
0
71
3
72
14
73
10
74
0
42
0.000000001
43
0.0000000001
44
0.0000000001
40
-2
40
-2
40
-2
40
-2
40
-1.5943765468304947
40
-1.5943765468304947
40
-1.5943765468304947
40
-1.1443620257203453
40
-1.1443620257203453
40
-1.1443620257203453
40
-1
40
-1
40
-1
40
-1
10
601.25247565723339
20
-24.749962559518828
30
0
10
601.25247565723339
20
-22.100162486218444
30
0
10
600.36071260675055
20
-19.570296631992861
30
0
10
598.87131409318249
20
-17.574742704492827
30
0
10
597.218917138351
20
-15.360797139914908
30
0
10
594.81836052450387
20
-13.736135049755482
30
0
10
592.02489165684551
20
-13.073683233950995
30
0
10
591.12876318630845
20
-12.861172566882431
30
0
10
590.19554367597414
20
-12.749962559518799
30
0
10
589.25247565723305
20
-12.749962559518799
30
0
0
LINE
5
128
100
AcDbEntity
8
0
100
AcDbLine
10
589.25247565723316
20
-12.749962559518799
30
0
11
415.80276320063604
21
-12.749962559518799
31
0
0
ARC
5
129
100
AcDbEntity
8
0
100
AcDbCircle
10
415.80276320063604
20
-14.749962559518792
30
0
40
1.9999999999999929
210
0
220
-0
230
1
100
AcDbArc
50
90
51
180
0
ENDSEC
0
SECTION
2
OBJECTS
0
DICTIONARY
5
C
100
AcDbDictionary
3
ACAD_GROUP
350
D
3
ACAD_MLINESTYLE
350
17
0
DICTIONARY
5
D
100
AcDbDictionary
0
DICTIONARY
5
1A
330
C
100
AcDbDictionary
0
DICTIONARY
5
17
100
AcDbDictionary
0
ENDSEC
0
EOF
