<?xml version="1.0" encoding="UTF-8" standalone="no"?>
<!-- Created with Inkscape (http://www.inkscape.org/) -->

<svg
   xmlns:dc="http://purl.org/dc/elements/1.1/"
   xmlns:cc="http://creativecommons.org/ns#"
   xmlns:rdf="http://www.w3.org/1999/02/22-rdf-syntax-ns#"
   xmlns:svg="http://www.w3.org/2000/svg"
   xmlns="http://www.w3.org/2000/svg"
   xmlns:sodipodi="http://sodipodi.sourceforge.net/DTD/sodipodi-0.dtd"
   xmlns:inkscape="http://www.inkscape.org/namespaces/inkscape"
   width="210mm"
   height="210mm"
   viewBox="0 0 210.00001 210"
   version="1.1"
   id="svg8"
   inkscape:version="0.92.4 (5da689c313, 2019-01-14)"
   sodipodi:docname="65_L4_plate.svg">
  <defs
     id="defs2">
    <marker
       style="overflow:visible"
       refY="0"
       refX="0"
       orient="auto"
       id="DistanceX">
      <path
         id="path12"
         style="stroke:#000000;stroke-width:0.5"
         d="M 3,-3 -3,3 M 0,-5 V 5"
         inkscape:connector-curvature="0" />
    </marker>
    <pattern
       y="0"
       x="0"
       width="8"
       patternUnits="userSpaceOnUse"
       id="Hatch"
       height="8">
      <path
         id="path15"
         stroke-width="0.25"
         stroke="#000000"
         linecap="square"
         d="M8 4 l-4,4" />
      <path
         id="path17"
         stroke-width="0.25"
         stroke="#000000"
         linecap="square"
         d="M6 2 l-4,4" />
      <path
         id="path19"
         stroke-width="0.25"
         stroke="#000000"
         linecap="square"
         d="M4 0 l-4,4" />
    </pattern>
    <symbol
       id="*MODEL_SPACE" />
    <symbol
       id="*PAPER_SPACE" />
    <marker
       style="overflow:visible"
       refY="0"
       refX="0"
       orient="auto"
       id="DistanceX-6">
      <path
         id="path111"
         style="stroke:#000000;stroke-width:0.5"
         d="M 3,-3 -3,3 M 0,-5 V 5"
         inkscape:connector-curvature="0" />
    </marker>
    <pattern
       y="0"
       x="0"
       width="8"
       patternUnits="userSpaceOnUse"
       id="Hatch-4"
       height="8">
      <path
         id="path114"
         stroke-width="0.25"
         stroke="#000000"
         linecap="square"
         d="M8 4 l-4,4" />
      <path
         id="path116"
         stroke-width="0.25"
         stroke="#000000"
         linecap="square"
         d="M6 2 l-4,4" />
      <path
         id="path118"
         stroke-width="0.25"
         stroke="#000000"
         linecap="square"
         d="M4 0 l-4,4" />
    </pattern>
    <symbol
       id="*MODEL_SPACE-4" />
    <symbol
       id="*PAPER_SPACE-1" />
    <marker
       style="overflow:visible"
       refY="0"
       refX="0"
       orient="auto"
       id="DistanceX-7">
      <path
         id="path210"
         style="stroke:#000000;stroke-width:0.5"
         d="M 3,-3 -3,3 M 0,-5 V 5"
         inkscape:connector-curvature="0" />
    </marker>
    <pattern
       y="0"
       x="0"
       width="8"
       patternUnits="userSpaceOnUse"
       id="Hatch-3"
       height="8">
      <path
         id="path213"
         stroke-width="0.25"
         stroke="#000000"
         linecap="square"
         d="M8 4 l-4,4" />
      <path
         id="path215"
         stroke-width="0.25"
         stroke="#000000"
         linecap="square"
         d="M6 2 l-4,4" />
      <path
         id="path217"
         stroke-width="0.25"
         stroke="#000000"
         linecap="square"
         d="M4 0 l-4,4" />
    </pattern>
    <symbol
       id="*MODEL_SPACE-9" />
    <symbol
       id="*PAPER_SPACE-3" />
    <marker
       style="overflow:visible"
       refY="0"
       refX="0"
       orient="auto"
       id="DistanceX-2">
      <path
         id="path1300"
         style="stroke:#000000;stroke-width:0.5"
         d="M 3,-3 -3,3 M 0,-5 V 5"
         inkscape:connector-curvature="0" />
    </marker>
    <pattern
       y="0"
       x="0"
       width="8"
       patternUnits="userSpaceOnUse"
       id="Hatch-49"
       height="8">
      <path
         id="path1303"
         stroke-width="0.25"
         stroke="#000000"
         linecap="square"
         d="M8 4 l-4,4" />
      <path
         id="path1305"
         stroke-width="0.25"
         stroke="#000000"
         linecap="square"
         d="M6 2 l-4,4" />
      <path
         id="path1307"
         stroke-width="0.25"
         stroke="#000000"
         linecap="square"
         d="M4 0 l-4,4" />
    </pattern>
    <symbol
       id="*MODEL_SPACE-1" />
    <symbol
       id="*PAPER_SPACE-9" />
    <marker
       style="overflow:visible"
       refY="0"
       refX="0"
       orient="auto"
       id="DistanceX-4">
      <path
         id="path1435"
         style="stroke:#000000;stroke-width:0.5"
         d="M 3,-3 -3,3 M 0,-5 V 5"
         inkscape:connector-curvature="0" />
    </marker>
    <pattern
       y="0"
       x="0"
       width="8"
       patternUnits="userSpaceOnUse"
       id="Hatch-8"
       height="8">
      <path
         id="path1438"
         stroke-width="0.25"
         stroke="#000000"
         linecap="square"
         d="M8 4 l-4,4" />
      <path
         id="path1440"
         stroke-width="0.25"
         stroke="#000000"
         linecap="square"
         d="M6 2 l-4,4" />
      <path
         id="path1442"
         stroke-width="0.25"
         stroke="#000000"
         linecap="square"
         d="M4 0 l-4,4" />
    </pattern>
    <symbol
       id="*MODEL_SPACE-98" />
    <symbol
       id="*PAPER_SPACE-7" />
    <marker
       style="overflow:visible"
       refY="0"
       refX="0"
       orient="auto"
       id="DistanceX-5">
      <path
         id="path1477"
         style="stroke:#000000;stroke-width:0.5"
         d="M 3,-3 -3,3 M 0,-5 V 5"
         inkscape:connector-curvature="0" />
    </marker>
    <pattern
       y="0"
       x="0"
       width="8"
       patternUnits="userSpaceOnUse"
       id="Hatch-47"
       height="8">
      <path
         id="path1480"
         stroke-width="0.25"
         stroke="#000000"
         linecap="square"
         d="M8 4 l-4,4" />
      <path
         id="path1482"
         stroke-width="0.25"
         stroke="#000000"
         linecap="square"
         d="M6 2 l-4,4" />
      <path
         id="path1484"
         stroke-width="0.25"
         stroke="#000000"
         linecap="square"
         d="M4 0 l-4,4" />
    </pattern>
    <symbol
       id="*MODEL_SPACE-2" />
    <symbol
       id="*PAPER_SPACE-92" />
    <marker
       style="overflow:visible"
       refY="0"
       refX="0"
       orient="auto"
       id="DistanceX-3">
      <path
         id="path1519"
         style="stroke:#000000;stroke-width:0.5"
         d="M 3,-3 -3,3 M 0,-5 V 5"
         inkscape:connector-curvature="0" />
    </marker>
    <pattern
       y="0"
       x="0"
       width="8"
       patternUnits="userSpaceOnUse"
       id="Hatch-44"
       height="8">
      <path
         id="path1522"
         stroke-width="0.25"
         stroke="#000000"
         linecap="square"
         d="M8 4 l-4,4" />
      <path
         id="path1524"
         stroke-width="0.25"
         stroke="#000000"
         linecap="square"
         d="M6 2 l-4,4" />
      <path
         id="path1526"
         stroke-width="0.25"
         stroke="#000000"
         linecap="square"
         d="M4 0 l-4,4" />
    </pattern>
    <symbol
       id="*MODEL_SPACE-25" />
    <symbol
       id="*PAPER_SPACE-8" />
    <marker
       style="overflow:visible"
       refY="0.0"
       refX="0.0"
       orient="auto"
       id="DistanceX-9">
      <path
         id="path5763"
         style="stroke:#000000; stroke-width:0.5"
         d="M 3,-3 L -3,3 M 0,-5 L  0,5" />
    </marker>
    <pattern
       y="0"
       x="0"
       width="8"
       patternUnits="userSpaceOnUse"
       id="Hatch-0"
       height="8">
      <path
         id="path5766"
         stroke-width="0.25"
         stroke="#000000"
         linecap="square"
         d="M8 4 l-4,4" />
      <path
         id="path5768"
         stroke-width="0.25"
         stroke="#000000"
         linecap="square"
         d="M6 2 l-4,4" />
      <path
         id="path5770"
         stroke-width="0.25"
         stroke="#000000"
         linecap="square"
         d="M4 0 l-4,4" />
    </pattern>
    <symbol
       id="*MODEL_SPACE-0" />
    <symbol
       id="*PAPER_SPACE-91" />
    <marker
       style="overflow:visible"
       refY="0.0"
       refX="0.0"
       orient="auto"
       id="DistanceX-68">
      <path
         id="path5898"
         style="stroke:#000000; stroke-width:0.5"
         d="M 3,-3 L -3,3 M 0,-5 L  0,5" />
    </marker>
    <pattern
       y="0"
       x="0"
       width="8"
       patternUnits="userSpaceOnUse"
       id="Hatch-5"
       height="8">
      <path
         id="path5901"
         stroke-width="0.25"
         stroke="#000000"
         linecap="square"
         d="M8 4 l-4,4" />
      <path
         id="path5903"
         stroke-width="0.25"
         stroke="#000000"
         linecap="square"
         d="M6 2 l-4,4" />
      <path
         id="path5905"
         stroke-width="0.25"
         stroke="#000000"
         linecap="square"
         d="M4 0 l-4,4" />
    </pattern>
    <symbol
       id="*MODEL_SPACE-5" />
    <symbol
       id="*PAPER_SPACE-913" />
    <marker
       style="overflow:visible"
       refY="0.0"
       refX="0.0"
       orient="auto"
       id="DistanceX-63">
      <path
         id="path6129"
         style="stroke:#000000; stroke-width:0.5"
         d="M 3,-3 L -3,3 M 0,-5 L  0,5" />
    </marker>
    <pattern
       y="0"
       x="0"
       width="8"
       patternUnits="userSpaceOnUse"
       id="Hatch-1"
       height="8">
      <path
         id="path6132"
         stroke-width="0.25"
         stroke="#000000"
         linecap="square"
         d="M8 4 l-4,4" />
      <path
         id="path6134"
         stroke-width="0.25"
         stroke="#000000"
         linecap="square"
         d="M6 2 l-4,4" />
      <path
         id="path6136"
         stroke-width="0.25"
         stroke="#000000"
         linecap="square"
         d="M4 0 l-4,4" />
    </pattern>
    <symbol
       id="*MODEL_SPACE-8" />
    <symbol
       id="*PAPER_SPACE-6" />
    <marker
       style="overflow:visible"
       refY="0.0"
       refX="0.0"
       orient="auto"
       id="DistanceX-689">
      <path
         id="path6324"
         style="stroke:#000000; stroke-width:0.5"
         d="M 3,-3 L -3,3 M 0,-5 L  0,5" />
    </marker>
    <pattern
       y="0"
       x="0"
       width="8"
       patternUnits="userSpaceOnUse"
       id="Hatch-6"
       height="8">
      <path
         id="path6327"
         stroke-width="0.25"
         stroke="#000000"
         linecap="square"
         d="M8 4 l-4,4" />
      <path
         id="path6329"
         stroke-width="0.25"
         stroke="#000000"
         linecap="square"
         d="M6 2 l-4,4" />
      <path
         id="path6331"
         stroke-width="0.25"
         stroke="#000000"
         linecap="square"
         d="M4 0 l-4,4" />
    </pattern>
    <symbol
       id="*MODEL_SPACE-91" />
    <symbol
       id="*PAPER_SPACE-35" />
    <marker
       style="overflow:visible"
       refY="0.0"
       refX="0.0"
       orient="auto"
       id="DistanceX-1">
      <path
         id="path6423"
         style="stroke:#000000; stroke-width:0.5"
         d="M 3,-3 L -3,3 M 0,-5 L  0,5" />
    </marker>
    <pattern
       y="0"
       x="0"
       width="8"
       patternUnits="userSpaceOnUse"
       id="Hatch-7"
       height="8">
      <path
         id="path6426"
         stroke-width="0.25"
         stroke="#000000"
         linecap="square"
         d="M8 4 l-4,4" />
      <path
         id="path6428"
         stroke-width="0.25"
         stroke="#000000"
         linecap="square"
         d="M6 2 l-4,4" />
      <path
         id="path6430"
         stroke-width="0.25"
         stroke="#000000"
         linecap="square"
         d="M4 0 l-4,4" />
    </pattern>
    <symbol
       id="*MODEL_SPACE-87" />
    <symbol
       id="*PAPER_SPACE-90" />
    <marker
       style="overflow:visible"
       refY="0.0"
       refX="0.0"
       orient="auto"
       id="DistanceX-62">
      <path
         id="path6522"
         style="stroke:#000000; stroke-width:0.5"
         d="M 3,-3 L -3,3 M 0,-5 L  0,5" />
    </marker>
    <pattern
       y="0"
       x="0"
       width="8"
       patternUnits="userSpaceOnUse"
       id="Hatch-33"
       height="8">
      <path
         id="path6525"
         stroke-width="0.25"
         stroke="#000000"
         linecap="square"
         d="M8 4 l-4,4" />
      <path
         id="path6527"
         stroke-width="0.25"
         stroke="#000000"
         linecap="square"
         d="M6 2 l-4,4" />
      <path
         id="path6529"
         stroke-width="0.25"
         stroke="#000000"
         linecap="square"
         d="M4 0 l-4,4" />
    </pattern>
    <symbol
       id="*MODEL_SPACE-45" />
    <symbol
       id="*PAPER_SPACE-81" />
    <marker
       style="overflow:visible"
       refY="0.0"
       refX="0.0"
       orient="auto"
       id="DistanceX-632">
      <path
         id="path298"
         style="stroke:#000000; stroke-width:0.5"
         d="M 3,-3 L -3,3 M 0,-5 L  0,5" />
    </marker>
    <pattern
       y="0"
       x="0"
       width="8"
       patternUnits="userSpaceOnUse"
       id="Hatch-2"
       height="8">
      <path
         id="path301"
         stroke-width="0.25"
         stroke="#000000"
         linecap="square"
         d="M8 4 l-4,4" />
      <path
         id="path303"
         stroke-width="0.25"
         stroke="#000000"
         linecap="square"
         d="M6 2 l-4,4" />
      <path
         id="path305"
         stroke-width="0.25"
         stroke="#000000"
         linecap="square"
         d="M4 0 l-4,4" />
    </pattern>
    <symbol
       id="*MODEL_SPACE-82" />
    <symbol
       id="*PAPER_SPACE-72" />
    <marker
       style="overflow:visible"
       refY="0.0"
       refX="0.0"
       orient="auto"
       id="DistanceX-55">
      <path
         id="path421"
         style="stroke:#000000; stroke-width:0.5"
         d="M 3,-3 L -3,3 M 0,-5 L  0,5" />
    </marker>
    <pattern
       y="0"
       x="0"
       width="8"
       patternUnits="userSpaceOnUse"
       id="Hatch-63"
       height="8">
      <path
         id="path424"
         stroke-width="0.25"
         stroke="#000000"
         linecap="square"
         d="M8 4 l-4,4" />
      <path
         id="path426"
         stroke-width="0.25"
         stroke="#000000"
         linecap="square"
         d="M6 2 l-4,4" />
      <path
         id="path428"
         stroke-width="0.25"
         stroke="#000000"
         linecap="square"
         d="M4 0 l-4,4" />
    </pattern>
    <symbol
       id="*MODEL_SPACE-99" />
    <symbol
       id="*PAPER_SPACE-353" />
    <marker
       style="overflow:visible"
       refY="0.0"
       refX="0.0"
       orient="auto"
       id="DistanceX-50">
      <path
         id="path655"
         style="stroke:#000000; stroke-width:0.5"
         d="M 3,-3 L -3,3 M 0,-5 L  0,5" />
    </marker>
    <pattern
       y="0"
       x="0"
       width="8"
       patternUnits="userSpaceOnUse"
       id="Hatch-40"
       height="8">
      <path
         id="path658"
         stroke-width="0.25"
         stroke="#000000"
         linecap="square"
         d="M8 4 l-4,4" />
      <path
         id="path660"
         stroke-width="0.25"
         stroke="#000000"
         linecap="square"
         d="M6 2 l-4,4" />
      <path
         id="path662"
         stroke-width="0.25"
         stroke="#000000"
         linecap="square"
         d="M4 0 l-4,4" />
    </pattern>
    <symbol
       id="*MODEL_SPACE-49" />
    <symbol
       id="*PAPER_SPACE-4" />
    <marker
       style="overflow:visible"
       refY="0.0"
       refX="0.0"
       orient="auto"
       id="DistanceX-65">
      <path
         id="path207"
         style="stroke:#000000; stroke-width:0.5"
         d="M 3,-3 L -3,3 M 0,-5 L  0,5" />
    </marker>
    <pattern
       y="0"
       x="0"
       width="8"
       patternUnits="userSpaceOnUse"
       id="Hatch-68"
       height="8">
      <path
         id="path210-4"
         stroke-width="0.25"
         stroke="#000000"
         linecap="square"
         d="M8 4 l-4,4" />
      <path
         id="path212"
         stroke-width="0.25"
         stroke="#000000"
         linecap="square"
         d="M6 2 l-4,4" />
      <path
         id="path214"
         stroke-width="0.25"
         stroke="#000000"
         linecap="square"
         d="M4 0 l-4,4" />
    </pattern>
    <symbol
       id="*MODEL_SPACE-3" />
    <symbol
       id="*PAPER_SPACE-5" />
    <marker
       style="overflow:visible"
       refY="0.0"
       refX="0.0"
       orient="auto"
       id="DistanceX-72">
      <path
         id="path786"
         style="stroke:#000000; stroke-width:0.5"
         d="M 3,-3 L -3,3 M 0,-5 L  0,5" />
    </marker>
    <pattern
       y="0"
       x="0"
       width="8"
       patternUnits="userSpaceOnUse"
       id="Hatch-11"
       height="8">
      <path
         id="path789"
         stroke-width="0.25"
         stroke="#000000"
         linecap="square"
         d="M8 4 l-4,4" />
      <path
         id="path791"
         stroke-width="0.25"
         stroke="#000000"
         linecap="square"
         d="M6 2 l-4,4" />
      <path
         id="path793"
         stroke-width="0.25"
         stroke="#000000"
         linecap="square"
         d="M4 0 l-4,4" />
    </pattern>
    <symbol
       id="*MODEL_SPACE-29" />
    <symbol
       id="*PAPER_SPACE-16" />
    <marker
       style="overflow:visible"
       refY="0.0"
       refX="0.0"
       orient="auto"
       id="DistanceX-97">
      <path
         id="path1239"
         style="stroke:#000000; stroke-width:0.5"
         d="M 3,-3 L -3,3 M 0,-5 L  0,5" />
    </marker>
    <pattern
       y="0"
       x="0"
       width="8"
       patternUnits="userSpaceOnUse"
       id="Hatch-9"
       height="8">
      <path
         id="path1242"
         stroke-width="0.25"
         stroke="#000000"
         linecap="square"
         d="M8 4 l-4,4" />
      <path
         id="path1244"
         stroke-width="0.25"
         stroke="#000000"
         linecap="square"
         d="M6 2 l-4,4" />
      <path
         id="path1246"
         stroke-width="0.25"
         stroke="#000000"
         linecap="square"
         d="M4 0 l-4,4" />
    </pattern>
    <symbol
       id="*MODEL_SPACE-44" />
    <symbol
       id="*PAPER_SPACE-927" />
  </defs>
  <sodipodi:namedview
     id="base"
     pagecolor="#ffffff"
     bordercolor="#666666"
     borderopacity="1.0"
     inkscape:pageopacity="0.0"
     inkscape:pageshadow="2"
     inkscape:zoom="0.7"
     inkscape:cx="385.39516"
     inkscape:cy="337.84101"
     inkscape:document-units="mm"
     inkscape:current-layer="layer1"
     showgrid="false"
     units="mm"
     inkscape:window-width="2560"
     inkscape:window-height="1377"
     inkscape:window-x="-8"
     inkscape:window-y="-8"
     inkscape:window-maximized="1" />
  <metadata
     id="metadata5">
    <rdf:RDF>
      <cc:Work
         rdf:about="">
        <dc:format>image/svg+xml</dc:format>
        <dc:type
           rdf:resource="http://purl.org/dc/dcmitype/StillImage" />
        <dc:title />
      </cc:Work>
    </rdf:RDF>
  </metadata>
  <g
     inkscape:label="Layer 1"
     inkscape:groupmode="layer"
     id="layer1"
     transform="translate(0,-86.999992)">
    <g
       id="g1375"
       inkscape:label="0"
       transform="matrix(0.26458333,0,0,0.26458333,-397.76511,-181.37491)">
      <path
         id="path1253"
         style="fill:none;stroke:#000000"
         d="m 2095.9511,1233.3907 v 6.079 l -0.2796,0.2989 a 3.779528,3.779528 0 0 1 -1.4296,0.9557 h -52.5259 v -7.3336 a 3.779528,3.779528 0 0 0 -3.7795,-3.7795 h -27.1597 a 3.779528,3.779528 0 0 0 -3.7795,3.7795 v 7.3336 h -1.4751 v 52.9134 h 1.272 l -0.071,19.0866 h -37.2006 v 52.9134 h 52.9133 v -52.9134 h 37.0866 v 52.9134 h 9 v 19.0866 h -35.8062 v -7.3336 a 3.779528,3.779528 0 0 0 -3.7795,-3.7795 h -27.1597 a 3.779528,3.779528 0 0 0 -3.7795,3.7795 v 7.3336 h -10.4751 v 52.9134 h 10.272 l -0.029,7.7845 h -14.6024 a 3.779528,3.779528 0 0 0 -3.7796,3.7795 v 7.5226 h -0.8609 v 52.9134 h 4.5809 v 7.559 a 3.779528,3.779528 0 0 0 3.7795,3.7796 h 17.9527 a 3.779528,3.779528 0 0 0 3.7796,-3.7796 v -7.559 h 64.7281 v 7.559 a 3.779528,3.779528 0 0 0 3.7796,3.7796 h 17.9527 a 3.779528,3.779528 0 0 0 3.7795,-3.7796 v -7.559 h 31.5809 v -52.9134 h -10.2007 l -0.2059,-55.0866 h 1.4066 v -52.9134 h -9 v -5.9074 h 5.2204 v -25.5118 h -5.2204 v -4.5808 h 16.7993 l -0.071,-19.0866 h 1.272 v -52.9134 h 0.2341 v -7.3336 a 3.779528,3.779528 0 0 0 -3.7796,-3.7795 h -27.1596 a 3.779528,3.779528 0 0 0 -3.7795,3.7795 z"
         inkscape:connector-curvature="0" />
      <path
         id="path1255"
         style="fill:none;stroke:#000000"
         d="m 2237.152,1202.8309 a 6.14175,6.14175 0 1 0 -12.2835,0 6.14175,6.14175 0 1 0 12.2835,0 z"
         inkscape:connector-curvature="0" />
      <path
         id="path1257"
         style="fill:none;stroke:#000000"
         d="m 1757.5703,1615.7477 a 6.14175,6.14175 0 1 0 -12.2835,0 6.14175,6.14175 0 1 0 12.2835,0 z"
         inkscape:connector-curvature="0" />
      <path
         id="path1259"
         style="fill:none;stroke:#000000"
         d="m 2087.74,1202.8309 a 6.14175,6.14175 0 1 0 -12.2835,0 6.14175,6.14175 0 1 0 12.2835,0 z"
         inkscape:connector-curvature="0" />
      <path
         id="path1261"
         style="fill:none;stroke:#000000"
         d="m 1739.5533,1202.831 a 6.1417325,6.1417325 0 1 0 -12.2834,0 6.1417325,6.1417325 0 1 0 12.2834,0 z"
         inkscape:connector-curvature="0" />
      <path
         id="path1263"
         style="fill:none;stroke:#000000"
         d="m 1596.7175,1202.8345 a 6.141732,6.141732 0 1 0 -12.2834,0 6.141732,6.141732 0 1 0 12.2834,0 z"
         inkscape:connector-curvature="0" />
      <path
         id="path1265"
         style="fill:none;stroke:#000000"
         d="m 1896.8094,1202.831 a 6.14175,6.14175 0 1 0 -12.2835,0 6.14175,6.14175 0 1 0 12.2835,0 z"
         inkscape:connector-curvature="0" />
      <path
         id="path1267"
         style="fill:none;stroke:#000000"
         d="m 2096.4695,1615.7477 a 6.14175,6.14175 0 1 0 -12.2835,0 6.14175,6.14175 0 1 0 12.2835,0 z"
         inkscape:connector-curvature="0" />
      <path
         id="path1269"
         style="fill:none;stroke:#000000"
         d="m 2242.6866,1411.1773 a 6.14175,6.14175 0 1 0 -12.2835,0 6.14175,6.14175 0 1 0 12.2835,0 z"
         inkscape:connector-curvature="0" />
      <path
         id="path1271"
         style="fill:none;stroke:#000000"
         d="m 2237.0966,1615.7477 a 6.14175,6.14175 0 1 0 -12.2835,0 6.14175,6.14175 0 1 0 12.2835,0 z"
         inkscape:connector-curvature="0" />
      <path
         id="path1273"
         style="fill:none;stroke:#000000"
         d="m 1590.4356,1365.6377 v -52.9134 h -52.9133 v 52.9134 z"
         inkscape:connector-curvature="0" />
      <path
         id="path1275"
         style="fill:none;stroke:#000000"
         d="m 1879.5222,1509.6377 h 79.9135 v -52.9134 h -79.9135 z"
         inkscape:connector-curvature="0" />
      <path
         id="path1277"
         style="fill:none;stroke:#000000"
         d="m 1608.4356,1437.6377 v -52.9134 h -52.9133 v 52.9134 z"
         inkscape:connector-curvature="0" />
      <path
         id="path1279"
         style="fill:none;stroke:#000000"
         d="m 1770.4356,1240.7243 h -52.9133 v 52.9134 h 52.9133 z"
         inkscape:connector-curvature="0" />
      <path
         id="path1281"
         style="fill:none;stroke:#000000"
         d="m 1681.5223,1365.6377 h 52.9133 v -52.9134 h -52.9133 z"
         inkscape:connector-curvature="0" />
      <path
         id="path1283"
         style="fill:none;stroke:#000000"
         d="m 1914.4356,1293.6377 v -52.9134 h -52.9133 v 52.9134 z"
         inkscape:connector-curvature="0" />
      <path
         id="path1285"
         style="fill:none;stroke:#000000"
         d="m 1950.4356,1312.7243 h -52.9133 v 52.9134 h 52.9133 z"
         inkscape:connector-curvature="0" />
      <path
         id="path1287"
         style="fill:none;stroke:#000000"
         d="m 1968.4356,1384.7243 h -52.9133 v 52.9134 h 52.9133 z"
         inkscape:connector-curvature="0" />
      <path
         id="path1289"
         style="fill:none;stroke:#000000"
         d="m 1842.4356,1240.7243 h -52.9133 v 52.9134 h 52.9133 z"
         inkscape:connector-curvature="0" />
      <path
         id="path1291"
         style="fill:none;stroke:#000000"
         d="m 1824.4356,1384.7243 h -52.9133 v 52.9134 h 52.9133 z"
         inkscape:connector-curvature="0" />
      <path
         id="path1293"
         style="fill:none;stroke:#000000"
         d="m 1645.5223,1240.7243 v 52.9134 h 52.9133 v -52.9134 z"
         inkscape:connector-curvature="0" />
      <path
         id="path1295"
         style="fill:none;stroke:#000000"
         d="m 2130.4357,1581.6377 v -52.9134 h -61.9135 v 52.9134 z"
         inkscape:connector-curvature="0" />
      <path
         id="path1297"
         style="fill:none;stroke:#000000"
         d="m 1753.5223,1365.6377 h 52.9133 v -52.9134 h -52.9133 z"
         inkscape:connector-curvature="0" />
      <path
         id="path1299"
         style="fill:none;stroke:#000000"
         d="m 1807.5223,1509.6377 h 52.9133 v -52.9134 h -52.9133 z"
         inkscape:connector-curvature="0" />
      <path
         id="path1301"
         style="fill:none;stroke:#000000"
         d="m 1699.5223,1384.7243 v 52.9134 h 52.9133 v -52.9134 z"
         inkscape:connector-curvature="0" />
      <path
         id="path1303-3"
         style="fill:none;stroke:#000000"
         d="m 1896.4356,1384.7243 h -52.9133 v 52.9134 h 52.9133 z"
         inkscape:connector-curvature="0" />
      <path
         id="path1305-8"
         style="fill:none;stroke:#000000"
         d="m 2058.4357,1528.7243 h -295.9135 v 52.9134 h 295.9135 z"
         inkscape:connector-curvature="0" />
      <path
         id="path1307-0"
         style="fill:none;stroke:#000000"
         d="m 1573.5223,1293.6377 h 52.9133 v -52.9134 h -52.9133 z"
         inkscape:connector-curvature="0" />
      <path
         id="path1309"
         style="fill:none;stroke:#000000"
         d="m 1878.4356,1365.6377 v -52.9134 h -52.9133 v 52.9134 z"
         inkscape:connector-curvature="0" />
      <path
         id="path1311"
         style="fill:none;stroke:#000000"
         d="m 2149.5223,1312.7243 v 52.9134 h 52.9133 v -52.9134 z"
         inkscape:connector-curvature="0" />
      <path
         id="path1313"
         style="fill:none;stroke:#000000"
         d="m 2202.4357,1236.9447 h -52.9135 v 62.3623 h 52.9135 z"
         inkscape:connector-curvature="0" />
      <path
         id="path1315"
         style="fill:none;stroke:#000000"
         d="m 2149.5223,1437.6377 h 52.9133 v -52.9134 h -52.9133 z"
         inkscape:connector-curvature="0" />
      <path
         id="path1317"
         style="fill:none;stroke:#000000"
         d="m 2202.4356,1456.7243 h -52.9133 v 52.9134 h 52.9133 z"
         inkscape:connector-curvature="0" />
      <path
         id="path1319"
         style="fill:none;stroke:#000000"
         d="m 2202.4356,1581.6377 v -52.9134 h -52.9133 v 52.9134 z"
         inkscape:connector-curvature="0" />
      <path
         id="path1321"
         style="fill:none;stroke:#000000"
         d="m 1986.4356,1240.7243 h -52.9133 v 52.9134 h 52.9133 z"
         inkscape:connector-curvature="0" />
      <path
         id="path1323"
         style="fill:none;stroke:#000000"
         d="m 1627.5223,1437.6377 h 52.9133 v -52.9134 h -52.9133 z"
         inkscape:connector-curvature="0" />
      <path
         id="path1325"
         style="fill:none;stroke:#000000"
         d="m 1741.9606,1588.9712 v -7.3335 h 10.4751 v -52.9134 h -10.272 l 0.071,-19.0866 h 46.2006 v -52.9134 h -52.9133 v 52.9134 h -19.0867 v -52.9134 h -52.9133 v 52.9134 h -19.0867 v -52.9134 h -52.9133 v 52.9134 h 28.2006 l 0.057,15.307 h -14.677 v 3.7796 h -4.5809 v 52.9134 h 19.4751 v 7.3335 a 3.779528,3.779528 0 0 0 3.7795,3.7795 h 27.1597 a 3.779528,3.779528 0 0 0 3.7795,-3.7795 v -7.3335 h 52.5259 v 7.3335 a 3.779528,3.779528 0 0 0 3.7795,3.7795 h 27.1597 a 3.779528,3.779528 0 0 0 3.7795,-3.7795 z"
         inkscape:connector-curvature="0" />
      <path
         id="path1327"
         style="fill:none;stroke:#000000"
         d="m 1609.5223,1312.7243 v 52.9134 h 52.9133 v -52.9134 z"
         inkscape:connector-curvature="0" />
      <path
         id="path1329"
         style="fill:none;stroke:#000000"
         d="m 1563.9789,1295.6219 c 0,4.1744 -3.3837,7.5585 -7.5579,7.5591"
         inkscape:connector-curvature="0" />
      <path
         id="path1331"
         style="fill:none;stroke:#000000"
         d="m 1556.421,1303.181 h -20.8819"
         inkscape:connector-curvature="0" />
      <path
         id="path1333"
         style="fill:none;stroke:#000000"
         d="m 1535.5391,1303.181 v 0"
         inkscape:connector-curvature="0" />
      <path
         id="path1335"
         style="fill:none;stroke:#000000"
         d="m 1535.538,1303.181 c -4.1747,0 -7.5591,3.3843 -7.5591,7.559"
         inkscape:connector-curvature="0" />
      <path
         id="path1337"
         style="fill:none;stroke:#000000"
         d="m 1527.9789,1310.74 v 56.8815"
         inkscape:connector-curvature="0" />
      <path
         id="path1339"
         style="fill:none;stroke:#000000"
         d="m 1527.9789,1367.6215 c 0,4.1747 3.3844,7.559 7.5591,7.559"
         inkscape:connector-curvature="0" />
      <path
         id="path1341"
         style="fill:none;stroke:#000000"
         d="m 1535.538,1375.1805 v 0"
         inkscape:connector-curvature="0" />
      <path
         id="path1343"
         style="fill:none;stroke:#000000"
         d="m 1535.5391,1375.1805 h 2.8819"
         inkscape:connector-curvature="0" />
      <path
         id="path1345"
         style="fill:none;stroke:#000000"
         d="m 1538.421,1375.1805 c 4.1742,6e-4 7.5579,3.3847 7.5579,7.5591"
         inkscape:connector-curvature="0" />
      <path
         id="path1347"
         style="fill:none;stroke:#000000"
         d="m 1545.9789,1382.7396 v 56.8819"
         inkscape:connector-curvature="0" />
      <path
         id="path1349"
         style="fill:none;stroke:#000000"
         d="m 1545.9789,1439.6215 c 0,4.1747 3.3844,7.559 7.5591,7.559"
         inkscape:connector-curvature="0" />
      <path
         id="path1351"
         style="fill:none;stroke:#000000"
         d="m 1553.538,1447.1805 v 0"
         inkscape:connector-curvature="0" />
      <path
         id="path1353"
         style="fill:none;stroke:#000000"
         d="m 1553.5391,1447.1805 h 20.8819"
         inkscape:connector-curvature="0" />
      <path
         id="path1355"
         style="fill:none;stroke:#000000"
         d="m 1574.421,1447.1805 c 4.1742,6e-4 7.5579,3.3847 7.5579,7.5591"
         inkscape:connector-curvature="0" />
      <path
         id="path1357"
         style="fill:none;stroke:#000000"
         d="m 1581.9789,1454.7396 v 189.3543"
         inkscape:connector-curvature="0" />
      <path
         id="path1359"
         style="fill:none;stroke:#000000"
         d="m 1581.9789,1644.0939 a 7.559055,7.559055 0 0 0 7.5591,7.5591"
         inkscape:connector-curvature="0" />
      <path
         id="path1361"
         style="fill:none;stroke:#000000"
         d="m 1589.538,1651.653 h 637.558"
         inkscape:connector-curvature="0" />
      <path
         id="path1363"
         style="fill:none;stroke:#000000"
         d="m 2227.096,1651.653 c 10.015,0 19.5767,-3.3705 27.1189,-8.9997 8.3677,-6.2453 14.5081,-15.3182 17.0119,-25.8762 0.8032,-3.387 1.2235,-6.9141 1.2235,-10.4785"
         inkscape:connector-curvature="0" />
      <path
         id="path1365"
         style="fill:none;stroke:#000000"
         d="M 2272.4503,1606.2986 V 1216.0629"
         inkscape:connector-curvature="0" />
      <path
         id="path1367"
         style="fill:none;stroke:#000000"
         d="m 2272.4503,1216.0629 c 0,-10.015 -3.3704,-19.5767 -8.9997,-27.119 -6.2452,-8.3677 -15.3182,-14.5081 -25.8762,-17.0119 -3.3869,-0.8032 -6.9141,-1.2235 -10.4784,-1.2235"
         inkscape:connector-curvature="0" />
      <path
         id="path1369"
         style="fill:none;stroke:#000000"
         d="M 2227.096,1170.7085 H 1571.538"
         inkscape:connector-curvature="0" />
      <path
         id="path1371"
         style="fill:none;stroke:#000000"
         d="m 1571.538,1170.7085 a 7.559055,7.559055 0 0 0 -7.5591,7.5591"
         inkscape:connector-curvature="0" />
      <path
         id="path1373"
         style="fill:none;stroke:#000000"
         d="m 1563.9789,1178.2676 v 117.3543"
         inkscape:connector-curvature="0" />
    </g>
  </g>
</svg>
