0
SECTION
2
HEADER
9
$INSUNITS
70
4
9
$ACADVER
1
AC1014
9
$HANDSEED
5
FFFF
0
ENDSEC
0
SECTION
2
TABLES
0
TABLE
2
VPORT
5
8
100
AcDbSymbolTable
0
ENDTAB
0
TABLE
2
LTYPE
5
5
100
AcDbSymbolTable
0
LTYPE
5
14
100
AcDbSymbolTableRecord
100
AcDbLinetypeTableRecord
2
BYBLOCK
70
0
0
LTYPE
5
15
100
AcDbSymbolTableRecord
100
AcDbLinetypeTableRecord
2
BYLAYER
70
0
0
ENDTAB
0
TABLE
2
LAYER
5
2
100
AcDbSymbolTable
70
2
0
LAYER
5
50
100
AcDbSymbolTableRecord
100
AcDbLayerTableRecord
2
0
70
0
6
CONTINUOUS
0
ENDTAB
0
TABLE
2
STYLE
5
3
100
AcDbSymbolTable
70
1
0
STYLE
5
11
100
AcDbSymbolTableRecord
100
AcDbTextStyleTableRecord
2
STANDARD
70
0
0
ENDTAB
0
TABLE
2
VIEW
5
6
100
AcDbSymbolTable
70
0
0
ENDTAB
0
TABLE
2
UCS
5
7
100
AcDbSymbolTable
70
0
0
ENDTAB
0
TABLE
2
APPID
5
9
100
AcDbSymbolTable
70
2
0
APPID
5
12
100
AcDbSymbolTableRecord
100
AcDbRegAppTableRecord
2
ACAD
70
0
0
ENDTAB
0
TABLE
2
DIMSTYLE
5
A
100
AcDbSymbolTable
70
1
0
ENDTAB
0
TABLE
2
BLOCK_RECORD
5
1
100
AcDbSymbolTable
70
1
0
BLOCK_RECORD
5
1F
100
AcDbSymbolTableRecord
100
AcDbBlockTableRecord
2
*MODEL_SPACE
0
BLOCK_RECORD
5
1B
100
AcDbSymbolTableRecord
100
AcDbBlockTableRecord
2
*PAPER_SPACE
0
ENDTAB
0
ENDSEC
0
SECTION
2
BLOCKS
0
BLOCK
5
20
100
AcDbEntity
100
AcDbBlockBegin
2
*MODEL_SPACE
0
ENDBLK
5
21
100
AcDbEntity
100
AcDbBlockEnd
0
BLOCK
5
1C
100
AcDbEntity
100
AcDbBlockBegin
2
*PAPER_SPACE
0
ENDBLK
5
1D
100
AcDbEntity
100
AcDbBlockEnd
0
ENDSEC
0
SECTION
2
ENTITIES
0
LWPOLYLINE
5
100
100
AcDbEntity
8
0
100
AcDbPolyline
90
69
70
1
43
0.0
10
554.55372382618611
20
-29.334626391314966
10
554.55372382618611
20
-30.943020089919916
10
554.47975528031964
20
-31.022098116833625
42
-0.11525840842178595
10
554.10150063934964
20
-31.274959175225661
10
540.20402576192259
20
-31.274959175225661
10
540.20402576192259
20
-29.334626391314931
42
0.41421356237312495
10
539.20402576192259
20
-28.334626391314977
10
532.01803965908812
20
-28.334626391314998
42
0.41421356237313017
10
531.01803965908812
20
-29.334626391314984
10
531.01803965945965
20
-31.274959168677228
10
530.62775980979393
20
-31.274959168677263
10
530.62775980979393
20
-45.274965950361299
10
530.96430912200617
20
-45.274965950361263
10
530.94543345058537
20
-50.324962555983213
10
521.10276320364835
20
-50.324962555983213
10
521.10276320364835
20
-64.32496255948368
10
535.1027632071482
20
-64.32496255948368
10
535.1027632071482
20
-50.324962555983213
10
544.91525980979395
20
-50.324959168677275
10
544.91525980979395
20
-64.324965950361303
10
547.29650980979397
20
-64.324965950361303
10
547.29650980979397
20
-69.374959168677293
10
537.82277576906608
20
-69.37495916867725
10
537.82277576906631
20
-67.434626384766517
42
0.41421356237314705
10
536.82277576906631
20
-66.434626384766574
10
529.63678966623183
20
-66.434626384766588
42
0.41421356237313145
10
528.63678966623172
20
-67.434626384766574
10
528.63678966623172
20
-69.37495916867725
10
525.86525980979388
20
-69.374959168677293
10
525.86525980979388
20
-83.374965950361286
10
528.58305912912544
20
-83.374965950361286
10
528.57536060917357
20
-85.434626384766531
10
524.71178966623131
20
-85.434626384766531
42
0.41421356237314183
10
523.71178966623131
20
-86.434626384766517
10
523.71178966623131
20
-88.424959168677262
10
523.48400980979386
20
-88.424959168677262
10
523.48400980979386
20
-102.4249659503613
10
524.69601593365473
20
-102.4249659503613
10
524.69601593365473
20
-104.42496951074537
42
0.41421356237315748
10
525.69601593365473
20
-105.42496951074533
10
530.44601305143897
20
-105.42496951074537
42
0.41421356237312623
10
531.44601305143897
20
-104.42496951074537
10
531.44601305143897
20
-102.4249659503613
10
548.57201334983301
20
-102.4249659503613
10
548.57201334983313
20
-104.42496951074537
42
0.41421356237312623
10
549.57201334983313
20
-105.42496951074537
10
554.32201046761736
20
-105.42496951074533
42
0.41421356237315748
10
555.32201046761747
20
-104.42496951074537
10
555.32201046761725
20
-102.4249659503613
10
563.67776659147796
20
-102.4249659503613
10
563.67776659147796
20
-88.424959168677262
10
560.97884295783024
20
-88.424959168677262
10
560.92436510594052
20
-73.849965950361309
10
561.29651659147794
20
-73.849965950361309
10
561.29651659147794
20
-59.84995916867728
10
558.91526659147803
20
-59.84995916867728
10
558.91526659147803
20
-58.28696241032187
10
560.29651303109392
20
-58.28696241032187
10
560.29651303109392
20
-51.536965292537964
10
558.91526659147803
20
-51.536965292537964
10
558.91526659147803
20
-50.324959168677275
10
563.36009295068652
20
-50.324959175225601
10
563.34121727926583
20
-45.274965950361263
10
563.67776659147796
20
-45.274965950361299
10
563.67776659147796
20
-31.274959168677263
10
563.73970992902048
20
-31.274959175225653
10
563.73970992902059
20
-29.334626391314913
42
0.41421356237315615
10
562.73970992902059
20
-28.334626391314963
10
555.55372382618611
20
-28.334626391314977
42
0.41421356237314055
0
CIRCLE
5
101
100
AcDbEntity
8
0
100
AcDbCircle
10
590.28812473907112
20
-21.249020498835893
30
0
40
1.625
210
0
220
-0
230
1
0
CIRCLE
5
102
100
AcDbEntity
8
0
100
AcDbCircle
10
463.39880224257502
20
-130.49990127004929
30
0
40
1.625
210
0
220
-0
230
1
0
CIRCLE
5
103
100
AcDbEntity
8
0
100
AcDbCircle
10
550.75619520078851
20
-21.249020498836106
30
0
40
1.625
210
0
220
-0
230
1
0
CIRCLE
5
104
100
AcDbEntity
8
0
100
AcDbCircle
10
458.63181882001766
20
-21.249022279028189
30
0
40
1.625
210
0
220
-0
230
1
0
CIRCLE
5
105
100
AcDbEntity
8
0
100
AcDbCircle
10
420.83984443164746
20
-21.249958914363454
30
0
40
1.625
210
0
220
-0
230
1
0
CIRCLE
5
106
100
AcDbEntity
8
0
100
AcDbCircle
10
500.23915407538146
20
-21.249022279028189
30
0
40
1.625
210
0
220
-0
230
1
0
CIRCLE
5
107
100
AcDbEntity
8
0
100
AcDbCircle
10
553.065880326453
20
-130.49990127004929
30
0
40
1.625
210
0
220
-0
230
1
0
CIRCLE
5
108
100
AcDbEntity
8
0
100
AcDbCircle
10
591.75249752816444
20
-76.373993456870977
30
0
40
1.625
210
0
220
-0
230
1
0
CIRCLE
5
109
100
AcDbEntity
8
0
100
AcDbCircle
10
590.27347176806632
20
-130.49990127004929
30
0
40
1.625
210
0
220
-0
230
1
0
LWPOLYLINE
5
110
100
AcDbEntity
8
0
100
AcDbPolyline
90
4
70
1
43
0.0
10
420.8027632071483
20
-64.32496255948368
10
420.8027632071483
20
-50.324962555983213
10
406.80276320364845
20
-50.324962555983213
10
406.80276320364845
20
-64.32496255948368
0
LWPOLYLINE
5
111
100
AcDbEntity
8
0
100
AcDbPolyline
90
4
70
1
43
0.0
10
497.29025980979401
20
-102.4249659503613
10
518.43401659147798
20
-102.4249659503613
10
518.43401659147798
20
-88.424959168677262
10
497.29025980979401
20
-88.424959168677262
0
LWPOLYLINE
5
112
100
AcDbEntity
8
0
100
AcDbPolyline
90
4
70
1
43
0.0
10
425.56526320833933
20
-83.37496256424572
10
425.56526320833933
20
-69.374962560745843
10
411.56526320483874
20
-69.374962560745843
10
411.56526320483874
20
-83.37496256424572
0
LWPOLYLINE
5
113
100
AcDbEntity
8
0
100
AcDbPolyline
90
4
70
1
43
0.0
10
468.42776320952964
20
-31.274962551220824
10
454.42776320602974
20
-31.274962551220824
10
454.42776320602974
20
-45.274962554721014
10
468.42776320952964
20
-45.274962554721014
0
LWPOLYLINE
5
114
100
AcDbEntity
8
0
100
AcDbPolyline
90
4
70
1
43
0.0
10
444.90276320364842
20
-64.32496255948368
10
458.90276320714833
20
-64.32496255948368
10
458.90276320714833
20
-50.324962555983213
10
444.90276320364842
20
-50.324962555983213
0
LWPOLYLINE
5
115
100
AcDbEntity
8
0
100
AcDbPolyline
90
4
70
1
43
0.0
10
506.52776320952955
20
-45.274962554721014
10
506.52776320952955
20
-31.274962551220824
10
492.52776320602976
20
-31.274962551220824
10
492.52776320602976
20
-45.274962554721014
0
LWPOLYLINE
5
116
100
AcDbEntity
8
0
100
AcDbPolyline
90
4
70
1
43
0.0
10
516.05276320714825
20
-50.324962555983213
10
502.05276320364845
20
-50.324962555983213
10
502.05276320364845
20
-64.32496255948368
10
516.05276320714825
20
-64.32496255948368
0
LWPOLYLINE
5
117
100
AcDbEntity
8
0
100
AcDbPolyline
90
4
70
1
43
0.0
10
520.81526320833927
20
-69.374962560745843
10
506.81526320483869
20
-69.374962560745843
10
506.81526320483869
20
-83.37496256424572
10
520.81526320833927
20
-83.37496256424572
0
LWPOLYLINE
5
118
100
AcDbEntity
8
0
100
AcDbPolyline
90
4
70
1
43
0.0
10
487.47776320952966
20
-31.274962551220824
10
473.47776320602975
20
-31.274962551220824
10
473.47776320602975
20
-45.274962554721014
10
487.47776320952966
20
-45.274962554721014
0
LWPOLYLINE
5
119
100
AcDbEntity
8
0
100
AcDbPolyline
90
4
70
1
43
0.0
10
482.71526320833925
20
-69.374962560745843
10
468.71526320483883
20
-69.374962560745843
10
468.71526320483883
20
-83.37496256424572
10
482.71526320833925
20
-83.37496256424572
0
LWPOLYLINE
5
120
100
AcDbEntity
8
0
100
AcDbPolyline
90
4
70
1
43
0.0
10
435.37776320602973
20
-31.274962551220824
10
435.37776320602973
20
-45.274962554721014
10
449.37776320952963
20
-45.274962554721014
10
449.37776320952963
20
-31.274962551220824
0
LWPOLYLINE
5
121
100
AcDbEntity
8
0
100
AcDbPolyline
90
4
70
1
43
0.0
10
563.67776659147796
20
-121.47496595036131
10
563.67776659147796
20
-107.47495916867727
10
547.29650980979397
20
-107.47495916867727
10
547.29650980979397
20
-121.47496595036131
0
LWPOLYLINE
5
122
100
AcDbEntity
8
0
100
AcDbPolyline
90
4
70
1
43
0.0
10
463.95276320364843
20
-64.32496255948368
10
477.95276320714834
20
-64.32496255948368
10
477.95276320714834
20
-50.324962555983213
10
463.95276320364843
20
-50.324962555983213
0
LWPOLYLINE
5
123
100
AcDbEntity
8
0
100
AcDbPolyline
90
4
70
1
43
0.0
10
478.2402632072201
20
-102.42496256900843
10
492.24026321072063
20
-102.42496256900843
10
492.24026321072063
20
-88.424962565508594
10
478.2402632072201
20
-88.424962565508594
0
LWPOLYLINE
5
124
100
AcDbEntity
8
0
100
AcDbPolyline
90
4
70
1
43
0.0
10
449.66526320483877
20
-69.374962560745843
10
449.66526320483877
20
-83.37496256424572
10
463.6652632083393
20
-83.37496256424572
10
463.6652632083393
20
-69.374962560745843
0
LWPOLYLINE
5
125
100
AcDbEntity
8
0
100
AcDbPolyline
90
4
70
1
43
0.0
10
501.76526320833932
20
-69.374962560745843
10
487.76526320483879
20
-69.374962560745843
10
487.76526320483879
20
-83.37496256424572
10
501.76526320833932
20
-83.37496256424572
0
LWPOLYLINE
5
126
100
AcDbEntity
8
0
100
AcDbPolyline
90
4
70
1
43
0.0
10
544.62776659147789
20
-107.47495916867727
10
466.334009809794
20
-107.47495916867727
10
466.334009809794
20
-121.47496595036131
10
544.62776659147789
20
-121.47496595036131
0
LWPOLYLINE
5
127
100
AcDbEntity
8
0
100
AcDbPolyline
90
4
70
1
43
0.0
10
416.32776320602977
20
-45.274962554721014
10
430.32776320952962
20
-45.274962554721014
10
430.32776320952962
20
-31.274962551220824
10
416.32776320602977
20
-31.274962551220824
0
LWPOLYLINE
5
128
100
AcDbEntity
8
0
100
AcDbPolyline
90
4
70
1
43
0.0
10
497.00276320714835
20
-64.32496255948368
10
497.00276320714835
20
-50.324962555983213
10
483.00276320364844
20
-50.324962555983213
10
483.00276320364844
20
-64.32496255948368
0
LWPOLYLINE
5
129
100
AcDbEntity
8
0
100
AcDbPolyline
90
4
70
1
43
0.0
10
568.72776324412996
20
-50.324962555983177
10
568.72776324412996
20
-64.324962559483652
10
582.72776324762981
20
-64.324962559483652
10
582.72776324762981
20
-50.324962555983177
0
LWPOLYLINE
5
130
100
AcDbEntity
8
0
100
AcDbPolyline
90
4
70
1
43
0.0
10
582.72776659147792
20
-30.274959168677142
10
568.72775980979395
20
-30.274959168677142
10
568.72775980979395
20
-46.774965950361249
10
582.72776659147792
20
-46.774965950361249
0
LWPOLYLINE
5
131
100
AcDbEntity
8
0
100
AcDbPolyline
90
4
70
1
43
0.0
10
568.72776324412996
20
-83.37496256424572
10
582.72776324762981
20
-83.37496256424572
10
582.72776324762981
20
-69.374962560745843
10
568.72776324412996
20
-69.374962560745843
0
LWPOLYLINE
5
132
100
AcDbEntity
8
0
100
AcDbPolyline
90
4
70
1
43
0.0
10
582.72776324762981
20
-88.424962565508565
10
568.72776324412996
20
-88.424962565508565
10
568.72776324412996
20
-102.42496256900839
10
582.72776324762981
20
-102.42496256900839
0
LWPOLYLINE
5
133
100
AcDbEntity
8
0
100
AcDbPolyline
90
4
70
1
43
0.0
10
582.72776324762981
20
-121.47496257377111
10
582.72776324762981
20
-107.47496257027063
10
568.72776324412996
20
-107.47496257027063
10
568.72776324412996
20
-121.47496257377111
0
LWPOLYLINE
5
134
100
AcDbEntity
8
0
100
AcDbPolyline
90
4
70
1
43
0.0
10
525.57776320952951
20
-31.274962551220824
10
511.57776320602977
20
-31.274962551220824
10
511.57776320602977
20
-45.274962554721014
10
525.57776320952951
20
-45.274962554721014
0
LWPOLYLINE
5
135
100
AcDbEntity
8
0
100
AcDbPolyline
90
4
70
1
43
0.0
10
430.61526320483881
20
-83.37496256424572
10
444.61526320833934
20
-83.37496256424572
10
444.61526320833934
20
-69.374962560745843
10
430.61526320483881
20
-69.374962560745843
0
LWPOLYLINE
5
136
100
AcDbEntity
8
0
100
AcDbPolyline
90
34
70
1
43
0.0
10
460.89373674932756
20
-123.41530229465626
10
460.89373674932773
20
-121.47496951074558
10
463.66526659147809
20
-121.47496951074565
10
463.66526659147809
20
-107.47496272906162
10
460.94746728643401
20
-107.47496272906162
10
460.96634298377683
20
-102.42496256900843
10
473.19026321072056
20
-102.42496256900843
10
473.19026321072056
20
-88.424962565508594
10
459.19026320722014
20
-88.424962565508594
10
459.19026320722014
20
-102.42496256900843
10
454.1402632107206
20
-102.42496256900843
10
454.14026321072066
20
-88.424962565508594
10
440.14026320722007
20
-88.424962565508594
10
440.14026320722007
20
-102.42496256900843
10
435.09026321072054
20
-102.42496256900843
10
435.09026321072054
20
-88.424962565508594
10
421.09026320722018
20
-88.424962565508594
10
421.09026320722018
20
-102.42496256900843
10
428.55168343178264
20
-102.42496256900843
10
428.56682135408596
20
-106.47495916867747
10
424.68351593365469
20
-106.47495916867747
10
424.68351593365469
20
-107.47496272906162
10
423.47150980979399
20
-107.47496272906162
10
423.47150980979399
20
-121.47496951074565
10
428.62428966623179
20
-121.47496951074558
10
428.62428966623179
20
-123.41530229465626
42
0.41421356237301177
10
429.62428966623179
20
-124.41530229465627
10
436.81027576906615
20
-124.41530229465627
42
0.41421356237307944
10
437.81027576906615
20
-123.41530229465626
10
437.81027576906638
20
-121.47496951074558
10
451.70775064649308
20
-121.47496951074558
10
451.7077506464932
20
-123.41530229465626
42
0.41421356237301699
10
452.70775064649314
20
-124.4153022946563
10
459.89373674932756
20
-124.41530229465627
42
0.41421356237304818
0
LWPOLYLINE
5
137
100
AcDbEntity
8
0
100
AcDbPolyline
90
4
70
1
43
0.0
10
425.85276320364846
20
-50.324962555983213
10
425.85276320364846
20
-64.32496255948368
10
439.85276320714831
20
-64.32496255948368
10
439.85276320714831
20
-50.324962555983213
0
SPLINE
5
138
100
AcDbEntity
8
0
100
AcDbSpline
70
0
71
3
72
8
73
4
74
0
42
0.000000001
43
0.0000000001
44
0.0000000001
40
-18
40
-18
40
-18
40
-18
40
-17.000086775323403
40
-17.000086775323403
40
-17.000086775323403
40
-17.000086775323403
10
413.80276320063604
20
-45.799962559519045
30
0
10
413.80276320063604
20
-46.904436209804629
30
0
10
412.90748809609789
20
-47.799807155401695
30
0
10
411.80305074403827
20
-47.799962539291798
30
0
0
LINE
5
139
100
AcDbEntity
8
0
100
AcDbLine
10
411.80305074403816
20
-47.799962539291798
30
0
11
406.27805074403852
21
-47.799962559519287
31
0
0
LINE
5
140
100
AcDbEntity
8
0
100
AcDbLine
10
406.27805074403852
20
-47.799962559519287
30
0
11
406.27776320063589
21
-47.799962569632726
31
0
0
SPLINE
5
141
100
AcDbEntity
8
0
100
AcDbSpline
70
0
71
3
72
8
73
4
74
0
42
0.000000001
43
0.0000000001
44
0.0000000001
40
-16
40
-16
40
-16
40
-16
40
-15
40
-15
40
-15
40
-15
10
406.27776320063555
20
-47.799962559519003
30
0
10
405.17319370097402
20
-47.799962559519003
30
0
10
404.277763200636
20
-48.695393059857324
30
0
10
404.277763200636
20
-49.799962559518818
30
0
0
LINE
5
142
100
AcDbEntity
8
0
100
AcDbLine
10
404.277763200636
20
-49.799962559518818
30
0
11
404.277763200636
21
-64.849847270890351
31
0
0
SPLINE
5
143
100
AcDbEntity
8
0
100
AcDbSpline
70
0
71
3
72
8
73
4
74
0
42
0.000000001
43
0.0000000001
44
0.0000000001
40
-14
40
-14
40
-14
40
-14
40
-13
40
-13
40
-13
40
-13
10
404.277763200636
20
-64.849847270890351
30
0
10
404.277763200636
20
-65.954416770551887
30
0
10
405.17319370097471
20
-66.849847270890592
30
0
10
406.27776320063617
20
-66.849847270890592
30
0
0
LINE
5
144
100
AcDbEntity
8
0
100
AcDbLine
10
406.27776320063617
20
-66.849847270890578
30
0
11
406.27805074403852
21
-66.849847270890621
31
0
0
LINE
5
145
100
AcDbEntity
8
0
100
AcDbLine
10
406.27805074403852
20
-66.849847270890621
30
0
11
407.04055074403817
21
-66.849847281004202
31
0
0
SPLINE
5
146
100
AcDbEntity
8
0
100
AcDbSpline
70
0
71
3
72
8
73
4
74
0
42
0.000000001
43
0.0000000001
44
0.0000000001
40
-11.999913224676414
40
-11.999913224676414
40
-11.999913224676414
40
-11.999913224676414
40
-11
40
-11
40
-11
40
-11
10
407.04055074403817
20
-66.849847291117797
30
0
10
408.14498809609751
20
-66.850002675008227
30
0
10
409.04026320063599
20
-67.745373620605022
30
0
10
409.04026320063599
20
-68.849847270890763
30
0
0
LINE
5
147
100
AcDbEntity
8
0
100
AcDbLine
10
409.04026320063599
20
-68.849847270890763
30
0
11
409.04026320063599
21
-83.899847270890362
31
0
0
SPLINE
5
148
100
AcDbEntity
8
0
100
AcDbSpline
70
0
71
3
72
8
73
4
74
0
42
0.000000001
43
0.0000000001
44
0.0000000001
40
-10
40
-10
40
-10
40
-10
40
-9
40
-9
40
-9
40
-9
10
409.04026320063599
20
-83.899847270890362
30
0
10
409.04026320063599
20
-85.004416770551899
30
0
10
409.9356937009747
20
-85.899847270890604
30
0
10
411.04026320063616
20
-85.899847270890604
30
0
0
LINE
5
149
100
AcDbEntity
8
0
100
AcDbLine
10
411.04026320063616
20
-85.899847270890604
30
0
11
411.04055074403851
21
-85.899847270890604
31
0
0
LINE
5
150
100
AcDbEntity
8
0
100
AcDbLine
10
411.04055074403851
20
-85.899847270890604
30
0
11
416.56555074403821
21
-85.899847281004185
31
0
0
SPLINE
5
151
100
AcDbEntity
8
0
100
AcDbSpline
70
0
71
3
72
8
73
4
74
0
42
0.000000001
43
0.0000000001
44
0.0000000001
40
-7.9999132246764146
40
-7.9999132246764146
40
-7.9999132246764146
40
-7.9999132246764146
40
-7
40
-7
40
-7
40
-7
10
416.56555074403809
20
-85.899847291117823
30
0
10
417.66998809609754
20
-85.900002675008267
30
0
10
418.56526320063602
20
-86.795373620605019
30
0
10
418.56526320063602
20
-87.899847270890774
30
0
0
LINE
5
152
100
AcDbEntity
8
0
100
AcDbLine
10
418.56526320063602
20
-87.899847270890788
30
0
11
418.56526320063602
21
-137.99984727089003
31
0
0
ARC
5
153
100
AcDbEntity
8
0
100
AcDbCircle
10
420.56526320063597
20
-137.99984727089003
30
0
40
1.9999999999999574
210
0
220
0
230
1
100
AcDbArc
50
180
51
270
0
LINE
5
154
100
AcDbEntity
8
0
100
AcDbLine
10
420.56526320063597
20
-139.99984727089003
30
0
11
589.2524756572335
21
-139.99984727089003
31
0
0
SPLINE
5
155
100
AcDbEntity
8
0
100
AcDbSpline
70
0
71
3
72
14
73
10
74
0
42
0.000000001
43
0.0000000001
44
0.0000000001
40
-4
40
-4
40
-4
40
-4
40
-3.594376546830095
40
-3.594376546830095
40
-3.594376546830095
40
-3.1443620257204974
40
-3.1443620257204974
40
-3.1443620257204974
40
-3
40
-3
40
-3
40
-3
10
589.25247565723339
20
-139.99984727089003
30
0
10
591.90227573053596
20
-139.99984727089003
30
0
10
594.43214158476405
20
-139.1080842204056
30
0
10
596.42769551226479
20
-137.61868570683515
30
0
10
598.6416410768386
20
-135.96628875200474
30
0
10
600.26630316699561
20
-133.5657321381608
30
0
10
600.92875498280023
20
-130.77226327050602
30
0
10
601.1412656498693
20
-129.87613479996813
30
0
10
601.25247565723316
20
-128.94291528963242
30
0
10
601.25247565723316
20
-127.99984727089029
30
0
0
LINE
5
156
100
AcDbEntity
8
0
100
AcDbLine
10
601.25247565723316
20
-127.99984727089027
30
0
11
601.25247565723316
21
-24.749962559518881
31
0
0
SPLINE
5
157
100
AcDbEntity
8
0
100
AcDbSpline
70
0
71
3
72
14
73
10
74
0
42
0.000000001
43
0.0000000001
44
0.0000000001
40
-2
40
-2
40
-2
40
-2
40
-1.5943765468299134
40
-1.5943765468299134
40
-1.5943765468299134
40
-1.1443620257201383
40
-1.1443620257201383
40
-1.1443620257201383
40
-1
40
-1
40
-1
40
-1
10
601.25247565723316
20
-24.749962559518881
30
0
10
601.25247565723316
20
-22.100162486215194
30
0
10
600.36071260674817
20
-19.570296631986395
30
0
10
598.87131409317647
20
-17.574742704484869
30
0
10
597.21891713834475
20
-15.360797139910307
30
0
10
594.81836052449853
20
-13.73613504975328
30
0
10
592.0248916568421
20
-13.07368323395016
30
0
10
591.12876318630617
20
-12.861172566882164
30
0
10
590.19554367597311
20
-12.749962559518853
30
0
10
589.25247565723339
20
-12.749962559518853
30
0
0
LINE
5
158
100
AcDbEntity
8
0
100
AcDbLine
10
589.2524756572335
20
-12.749962559518853
30
0
11
415.80276320063604
21
-12.749962559518853
31
0
0
ARC
5
159
100
AcDbEntity
8
0
100
AcDbCircle
10
415.80276320063604
20
-14.749962559518845
30
0
40
1.9999999999999929
210
0
220
-0
230
1
100
AcDbArc
50
90
51
180
0
LINE
5
160
100
AcDbEntity
8
0
100
AcDbLine
10
413.80276320063604
20
-14.749962559518845
30
0
11
413.80276320063604
21
-45.799962559519045
31
0
0
ENDSEC
0
SECTION
2
OBJECTS
0
DICTIONARY
5
C
100
AcDbDictionary
3
ACAD_GROUP
350
D
3
ACAD_MLINESTYLE
350
17
0
DICTIONARY
5
D
100
AcDbDictionary
0
DICTIONARY
5
1A
330
C
100
AcDbDictionary
0
DICTIONARY
5
17
100
AcDbDictionary
0
ENDSEC
0
EOF
