0
SECTION
2
HEADER
9
$INSUNITS
70
4
9
$ACADVER
1
AC1014
9
$HANDSEED
5
FFFF
0
ENDSEC
0
SECTION
2
TABLES
0
TABLE
2
VPORT
5
8
100
AcDbSymbolTable
0
ENDTAB
0
TABLE
2
LTYPE
5
5
100
AcDbSymbolTable
0
LTYPE
5
14
100
AcDbSymbolTableRecord
100
AcDbLinetypeTableRecord
2
BYBLOCK
70
0
0
LTYPE
5
15
100
AcDbSymbolTableRecord
100
AcDbLinetypeTableRecord
2
BYLAYER
70
0
0
ENDTAB
0
TABLE
2
LAYER
5
2
100
AcDbSymbolTable
70
2
0
LAYER
5
50
100
AcDbSymbolTableRecord
100
AcDbLayerTableRecord
2
0
70
0
6
CONTINUOUS
0
ENDTAB
0
TABLE
2
STYLE
5
3
100
AcDbSymbolTable
70
1
0
STYLE
5
11
100
AcDbSymbolTableRecord
100
AcDbTextStyleTableRecord
2
STANDARD
70
0
0
ENDTAB
0
TABLE
2
VIEW
5
6
100
AcDbSymbolTable
70
0
0
ENDTAB
0
TABLE
2
UCS
5
7
100
AcDbSymbolTable
70
0
0
ENDTAB
0
TABLE
2
APPID
5
9
100
AcDbSymbolTable
70
2
0
APPID
5
12
100
AcDbSymbolTableRecord
100
AcDbRegAppTableRecord
2
ACAD
70
0
0
ENDTAB
0
TABLE
2
DIMSTYLE
5
A
100
AcDbSymbolTable
70
1
0
ENDTAB
0
TABLE
2
BLOCK_RECORD
5
1
100
AcDbSymbolTable
70
1
0
BLOCK_RECORD
5
1F
100
AcDbSymbolTableRecord
100
AcDbBlockTableRecord
2
*MODEL_SPACE
0
BLOCK_RECORD
5
1B
100
AcDbSymbolTableRecord
100
AcDbBlockTableRecord
2
*PAPER_SPACE
0
ENDTAB
0
ENDSEC
0
SECTION
2
BLOCKS
0
BLOCK
5
20
100
AcDbEntity
100
AcDbBlockBegin
2
*MODEL_SPACE
0
ENDBLK
5
21
100
AcDbEntity
100
AcDbBlockEnd
0
BLOCK
5
1C
100
AcDbEntity
100
AcDbBlockBegin
2
*PAPER_SPACE
0
ENDBLK
5
1D
100
AcDbEntity
100
AcDbBlockEnd
0
ENDSEC
0
SECTION
2
ENTITIES
0
CIRCLE
5
100
100
AcDbEntity
8
0
100
AcDbCircle
10
273.29709586382813
20
-131.83064880503059
30
0
40
1.0999999999999943
210
0
220
-0
230
1
0
CIRCLE
5
101
100
AcDbEntity
8
0
100
AcDbCircle
10
272.45432857501947
20
-21.074967707289531
30
0
40
1.0999999999999943
210
0
220
-0
230
1
0
CIRCLE
5
102
100
AcDbEntity
8
0
100
AcDbCircle
10
314.06166383038334
20
-21.074967707289531
30
0
40
1.0999999999999943
210
0
220
-0
230
1
0
CIRCLE
5
103
100
AcDbEntity
8
0
100
AcDbCircle
10
385.90368693960733
20
-129.70932846147045
30
0
40
1.0999999999999943
210
0
220
-0
230
1
0
CIRCLE
5
104
100
AcDbEntity
8
0
100
AcDbCircle
10
346.11571311236321
20
-131.8273272659643
30
0
40
1.0999999999999943
210
0
220
-0
230
1
0
CIRCLE
5
105
100
AcDbEntity
8
0
100
AcDbCircle
10
234.66236495257306
20
-22.075010772471401
30
0
40
1.0999999999999943
210
0
220
-0
230
1
0
CIRCLE
5
106
100
AcDbEntity
8
0
100
AcDbCircle
10
388.0250072831667
20
-76.199981950314282
30
0
40
1.0999999999999943
210
0
220
-0
230
1
0
CIRCLE
5
107
100
AcDbEntity
8
0
100
AcDbCircle
10
385.88862591196374
20
-23.184721868330065
30
0
40
1.0999999999999943
210
0
220
-0
230
1
0
CIRCLE
5
108
100
AcDbEntity
8
0
100
AcDbCircle
10
292.18354877045448
20
-44.387478474701155
30
0
40
1.9999999999999929
210
0
220
-0
230
1
0
CIRCLE
5
109
100
AcDbEntity
8
0
100
AcDbCircle
10
326.22925300019773
20
-44.387478474701155
30
0
40
2.0000000000000284
210
0
220
-0
230
1
0
SPLINE
5
110
100
AcDbEntity
8
0
100
AcDbSpline
70
2
71
3
72
17
73
13
74
0
42
0.000000001
43
0.0000000001
44
0.0000000001
40
0
40
0
40
0
40
0
40
1
40
1
40
1
40
2
40
2
40
2
40
3
40
3
40
3
40
4
40
4
40
4
40
4
10
332.99508602347197
20
-88.394151424898752
30
0
10
333.82351285520912
20
-88.394151424898752
30
0
10
334.49508478805501
20
-89.065723357744574
30
0
10
334.49508478805501
20
-89.894150189481778
30
0
10
334.49508478805501
20
-90.722577021218967
30
0
10
333.82351285520912
20
-91.394153915001567
30
0
10
332.99508602347197
20
-91.394153915001567
30
0
10
332.16665919173471
20
-91.394153915001567
30
0
10
331.49508725888893
20
-90.722577021218967
30
0
10
331.49508725888893
20
-89.894150189481778
30
0
10
331.49508725888893
20
-89.065723357744574
30
0
10
332.16665919173471
20
-88.394151424898752
30
0
10
332.99508602347197
20
-88.394151424898752
30
0
0
LINE
5
111
100
AcDbEntity
8
0
100
AcDbLine
10
227.62528753625901
20
-22.575000006548152
30
0
11
227.62528753625901
21
-45.625000006548504
31
0
0
SPLINE
5
112
100
AcDbEntity
8
0
100
AcDbSpline
70
0
71
3
72
8
73
4
74
0
42
0.000000001
43
0.0000000001
44
0.0000000001
40
-18
40
-18
40
-18
40
-18
40
-17
40
-17
40
-17
40
-17
10
227.62528753625901
20
-45.625000006548504
30
0
10
227.62528753625901
20
-46.729569506209998
30
0
10
226.72985703592093
20
-47.62500000654839
30
0
10
225.62528753625881
20
-47.62500000654839
30
0
0
LINE
5
113
100
AcDbEntity
8
0
100
AcDbLine
10
225.62528753625884
20
-47.625000006548383
30
0
11
220.10028753625917
21
-47.62500000654839
31
0
0
SPLINE
5
114
100
AcDbEntity
8
0
100
AcDbSpline
70
0
71
3
72
8
73
4
74
0
42
0.000000001
43
0.0000000001
44
0.0000000001
40
-16
40
-16
40
-16
40
-16
40
-15
40
-15
40
-15
40
-15
10
220.10028753625917
20
-47.62500000654839
30
0
10
218.99571803659708
20
-47.62500000654839
30
0
10
218.100287536259
20
-48.520430506886768
30
0
10
218.100287536259
20
-49.625000006548241
30
0
0
LINE
5
115
100
AcDbEntity
8
0
100
AcDbLine
10
218.100287536259
20
-49.625000006548241
30
0
11
218.100287536259
21
-64.674884717919511
31
0
0
SPLINE
5
116
100
AcDbEntity
8
0
100
AcDbSpline
70
0
71
3
72
8
73
4
74
0
42
0.000000001
43
0.0000000001
44
0.0000000001
40
-14
40
-14
40
-14
40
-14
40
-13
40
-13
40
-13
40
-13
10
218.100287536259
20
-64.674884717919511
30
0
10
218.100287536259
20
-65.779454217580948
30
0
10
218.99571803659768
20
-66.674884717919724
30
0
10
220.10028753625917
20
-66.674884717919724
30
0
0
LINE
5
117
100
AcDbEntity
8
0
100
AcDbLine
10
220.10028753625915
20
-66.674884717919724
30
0
11
220.86278753625879
21
-66.674884717919724
31
0
0
SPLINE
5
118
100
AcDbEntity
8
0
100
AcDbSpline
70
0
71
3
72
8
73
4
74
0
42
0.000000001
43
0.0000000001
44
0.0000000001
40
-12
40
-12
40
-12
40
-12
40
-11
40
-11
40
-11
40
-11
10
220.86278753625879
20
-66.674884717919724
30
0
10
221.96735703592026
20
-66.674884717919724
30
0
10
222.86278753625902
20
-67.570315218258401
30
0
10
222.86278753625902
20
-68.674884717919866
30
0
0
LINE
5
119
100
AcDbEntity
8
0
100
AcDbLine
10
222.86278753625902
20
-68.674884717919866
30
0
11
222.86278753625902
21
-83.724884717919167
31
0
0
SPLINE
5
120
100
AcDbEntity
8
0
100
AcDbSpline
70
0
71
3
72
8
73
4
74
0
42
0.000000001
43
0.0000000001
44
0.0000000001
40
-10
40
-10
40
-10
40
-10
40
-9
40
-9
40
-9
40
-9
10
222.86278753625902
20
-83.724884717919167
30
0
10
222.86278753625902
20
-84.829454217581329
30
0
10
223.75821803659767
20
-85.724884717920006
30
0
10
224.86278753625919
20
-85.724884717920006
30
0
0
LINE
5
121
100
AcDbEntity
8
0
100
AcDbLine
10
224.86278753625913
20
-85.724884717920006
30
0
11
230.38778753625877
21
-85.724884717920006
31
0
0
SPLINE
5
122
100
AcDbEntity
8
0
100
AcDbSpline
70
0
71
3
72
8
73
4
74
0
42
0.000000001
43
0.0000000001
44
0.0000000001
40
-8
40
-8
40
-8
40
-8
40
-7
40
-7
40
-7
40
-7
10
230.38778753625877
20
-85.724884717920006
30
0
10
231.49235703592026
20
-85.724884717920006
30
0
10
232.387787536259
20
-86.620315218258725
30
0
10
232.387787536259
20
-87.724884717919579
30
0
0
LINE
5
123
100
AcDbEntity
8
0
100
AcDbLine
10
232.387787536259
20
-87.724884717919579
30
0
11
232.387787536259
21
-129.82488471791993
31
0
0
LINE
5
124
100
AcDbEntity
8
0
100
AcDbLine
10
232.387787536259
20
-129.82488471791993
30
0
11
232.38779448748539
21
-137.8248920082296
31
0
0
ARC
5
125
100
AcDbEntity
8
0
100
AcDbCircle
10
234.38779448748534
20
-137.82489200822963
30
0
40
1.9999999999999574
210
0
220
0
230
1
100
AcDbArc
50
180
51
270
0
LINE
5
126
100
AcDbEntity
8
0
100
AcDbLine
10
234.38779448748534
20
-139.82489200822957
30
0
11
384.02500728316681
21
-139.82489200822957
31
0
0
SPLINE
5
127
100
AcDbEntity
8
0
100
AcDbSpline
70
0
71
3
72
14
73
10
74
0
42
0.000000001
43
0.0000000001
44
0.0000000001
40
14
40
14
40
14
40
14
40
14.405623453170115
40
14.405623453170115
40
14.405623453170115
40
14.855637974279666
40
14.855637974279666
40
14.855637974279666
40
15
40
15
40
15
40
15
10
384.02500728316676
20
-139.8248920082296
30
0
10
386.67480572329742
20
-139.8248920082296
30
0
10
389.20467006978265
20
-138.9331294947691
30
0
10
391.20022278192187
20
-137.4437318882932
30
0
10
393.4141669981247
20
-135.79133593983002
30
0
10
395.03882809979024
20
-133.39078078785715
30
0
10
395.70127951496602
20
-130.59731360959501
30
0
10
395.91379005351547
20
-129.70118568100528
30
0
10
396.02499999285641
20
-128.76796673603212
30
0
10
396.02499999285641
20
-127.82489929853986
30
0
0
LINE
5
128
100
AcDbEntity
8
0
100
AcDbLine
10
396.02499999285641
20
-127.82489929853986
30
0
11
396.02499999285641
21
-24.57500000654802
31
0
0
SPLINE
5
129
100
AcDbEntity
8
0
100
AcDbSpline
70
0
71
3
72
14
73
10
74
0
42
0.000000001
43
0.0000000001
44
0.0000000001
40
16
40
16
40
16
40
16
40
16.405623453169813
40
16.405623453169813
40
16.405623453169813
40
16.855637974279549
40
16.855637974279549
40
16.855637974279549
40
17
40
17
40
17
40
17
10
396.02499999285641
20
-24.57500000654802
30
0
10
396.02499999285641
20
-21.925201566418671
30
0
10
395.13323747939683
20
-19.395337219935335
30
0
10
393.64383987292285
20
-17.399784507797019
30
0
10
391.99144392445987
20
-15.185840291592626
30
0
10
389.59088877248712
20
-13.561179189925905
30
0
10
386.79742159422398
20
-12.8987277747493
30
0
10
385.9012936656336
20
-12.686217236199472
30
0
10
384.96807472065984
20
-12.575007296858363
30
0
10
384.02500728316676
20
-12.575007296858363
30
0
0
LINE
5
130
100
AcDbEntity
8
0
100
AcDbLine
10
384.02500728316676
20
-12.575007296858363
30
0
11
229.62529448748535
21
-12.575007296858349
31
0
0
ARC
5
131
100
AcDbEntity
8
0
100
AcDbCircle
10
229.62529448748535
20
-14.575007296858342
30
0
40
1.9999999999999929
210
0
220
-0
230
1
100
AcDbArc
50
90
51
180
0
LINE
5
132
100
AcDbEntity
8
0
100
AcDbLine
10
227.62529448748535
20
-14.575007296858367
30
0
11
227.62528753625901
21
-22.575000006548152
31
0
0
ENDSEC
0
SECTION
2
OBJECTS
0
DICTIONARY
5
C
100
AcDbDictionary
3
ACAD_GROUP
350
D
3
ACAD_MLINESTYLE
350
17
0
DICTIONARY
5
D
100
AcDbDictionary
0
DICTIONARY
5
1A
330
C
100
AcDbDictionary
0
DICTIONARY
5
17
100
AcDbDictionary
0
ENDSEC
0
EOF
