0
SECTION
2
HEADER
9
$INSUNITS
70
4
9
$ACADVER
1
AC1014
9
$HANDSEED
5
FFFF
0
ENDSEC
0
SECTION
2
TABLES
0
TABLE
2
VPORT
5
8
100
AcDbSymbolTable
0
ENDTAB
0
TABLE
2
LTYPE
5
5
100
AcDbSymbolTable
0
LTYPE
5
14
100
AcDbSymbolTableRecord
100
AcDbLinetypeTableRecord
2
BYBLOCK
70
0
0
LTYPE
5
15
100
AcDbSymbolTableRecord
100
AcDbLinetypeTableRecord
2
BYLAYER
70
0
0
ENDTAB
0
TABLE
2
LAYER
5
2
100
AcDbSymbolTable
70
2
0
LAYER
5
50
100
AcDbSymbolTableRecord
100
AcDbLayerTableRecord
2
0
70
0
6
CONTINUOUS
0
ENDTAB
0
TABLE
2
STYLE
5
3
100
AcDbSymbolTable
70
1
0
STYLE
5
11
100
AcDbSymbolTableRecord
100
AcDbTextStyleTableRecord
2
STANDARD
70
0
0
ENDTAB
0
TABLE
2
VIEW
5
6
100
AcDbSymbolTable
70
0
0
ENDTAB
0
TABLE
2
UCS
5
7
100
AcDbSymbolTable
70
0
0
ENDTAB
0
TABLE
2
APPID
5
9
100
AcDbSymbolTable
70
2
0
APPID
5
12
100
AcDbSymbolTableRecord
100
AcDbRegAppTableRecord
2
ACAD
70
0
0
ENDTAB
0
TABLE
2
DIMSTYLE
5
A
100
AcDbSymbolTable
70
1
0
ENDTAB
0
TABLE
2
BLOCK_RECORD
5
1
100
AcDbSymbolTable
70
1
0
BLOCK_RECORD
5
1F
100
AcDbSymbolTableRecord
100
AcDbBlockTableRecord
2
*MODEL_SPACE
0
BLOCK_RECORD
5
1B
100
AcDbSymbolTableRecord
100
AcDbBlockTableRecord
2
*PAPER_SPACE
0
ENDTAB
0
ENDSEC
0
SECTION
2
BLOCKS
0
BLOCK
5
20
100
AcDbEntity
100
AcDbBlockBegin
2
*MODEL_SPACE
0
ENDBLK
5
21
100
AcDbEntity
100
AcDbBlockEnd
0
BLOCK
5
1C
100
AcDbEntity
100
AcDbBlockBegin
2
*PAPER_SPACE
0
ENDBLK
5
1D
100
AcDbEntity
100
AcDbBlockEnd
0
ENDSEC
0
SECTION
2
ENTITIES
0
CIRCLE
5
100
100
AcDbEntity
8
0
100
AcDbCircle
10
385.90368693960733
20
-129.70932846147045
30
0
40
1.625
210
0
220
-0
230
1
0
CIRCLE
5
101
100
AcDbEntity
8
0
100
AcDbCircle
10
346.11571311236321
20
-131.8273272659643
30
0
40
1.625
210
0
220
-0
230
1
0
CIRCLE
5
102
100
AcDbEntity
8
0
100
AcDbCircle
10
234.66236495257306
20
-22.075010772471401
30
0
40
1.625
210
0
220
-0
230
1
0
CIRCLE
5
103
100
AcDbEntity
8
0
100
AcDbCircle
10
388.0250072831667
20
-76.199981950314282
30
0
40
1.625
210
0
220
-0
230
1
0
CIRCLE
5
104
100
AcDbEntity
8
0
100
AcDbCircle
10
273.29709586382813
20
-131.83064880503059
30
0
40
1.625
210
0
220
-0
230
1
0
CIRCLE
5
105
100
AcDbEntity
8
0
100
AcDbCircle
10
385.88862591196374
20
-23.184721868330065
30
0
40
1.625
210
0
220
-0
230
1
0
SPLINE
5
106
100
AcDbEntity
8
0
100
AcDbSpline
70
0
71
3
72
8
73
4
74
0
42
0.000000001
43
0.0000000001
44
0.0000000001
40
48
40
48
40
48
40
48
40
49
40
49
40
49
40
49
10
227.62525142379144
20
-49.625064432546289
30
0
10
228.72983516402581
20
-49.625064432546289
30
0
10
229.6252585445597
20
-48.729641052012425
30
0
10
229.6252585445597
20
-47.62505731177805
30
0
0
LINE
5
107
100
AcDbEntity
8
0
100
AcDbLine
10
229.6252585445597
20
-47.62505731177805
30
0
11
229.6252585445597
21
-30.574992716237563
31
0
0
SPLINE
5
108
100
AcDbEntity
8
0
100
AcDbSpline
70
0
71
3
72
8
73
4
74
0
42
0.000000001
43
0.0000000001
44
0.0000000001
40
1
40
1
40
1
40
1
40
2
40
2
40
2
40
2
10
229.6252585445597
20
-30.574992716237563
30
0
10
229.6252585445597
20
-29.470423216576087
30
0
10
230.52068904489835
20
-28.574992716237695
30
0
10
231.62525854455987
20
-28.574992716237695
30
0
0
LINE
5
109
100
AcDbEntity
8
0
100
AcDbLine
10
231.62525854455987
20
-28.574992716237695
30
0
11
240.69943541766105
21
-28.574992716237695
31
0
0
SPLINE
5
110
100
AcDbEntity
8
0
100
AcDbSpline
70
0
71
3
72
8
73
4
74
0
42
0.000000001
43
0.0000000001
44
0.0000000001
40
3
40
3
40
3
40
3
40
4
40
4
40
4
40
4
10
240.69943541766105
20
-28.574992716237695
30
0
10
241.25172016749144
20
-28.574992716237695
30
0
10
241.69943541766082
20
-28.127277466068339
30
0
10
241.69943541766082
20
-27.574992716237272
30
0
0
LINE
5
111
100
AcDbEntity
8
0
100
AcDbLine
10
241.69943541766082
20
-27.574992716237272
30
0
11
241.69943541766082
21
-14.575007296858363
31
0
0
ARC
5
112
100
AcDbEntity
8
0
100
AcDbCircle
10
239.69943541766082
20
-14.575007296858359
30
0
40
1.9999999999999929
210
-0
220
0
230
1
100
AcDbArc
50
0
51
90
0
LINE
5
113
100
AcDbEntity
8
0
100
AcDbLine
10
239.69943541766082
20
-12.575007296858363
30
0
11
229.62529448748535
21
-12.575007296858363
31
0
0
ARC
5
114
100
AcDbEntity
8
0
100
AcDbCircle
10
229.62529448748535
20
-14.575007296858342
30
0
40
1.9999999999999796
210
0
220
-0
230
1
100
AcDbArc
50
90
51
180
0
LINE
5
115
100
AcDbEntity
8
0
100
AcDbLine
10
227.62529448748535
20
-14.575007296858367
30
0
11
227.62617729320334
21
-22.574756035465136
31
0
0
LINE
5
116
100
AcDbEntity
8
0
100
AcDbLine
10
227.62617729320334
20
-22.574756035465136
30
0
11
227.6252729556382
21
-30.574999837005947
31
0
0
LINE
5
117
100
AcDbEntity
8
0
100
AcDbLine
10
227.6252729556382
20
-30.574999837005947
30
0
11
227.6252729556382
21
-45.624985595469454
31
0
0
SPLINE
5
118
100
AcDbEntity
8
0
100
AcDbSpline
70
0
71
3
72
8
73
4
74
0
42
0.000000001
43
0.0000000001
44
0.0000000001
40
10
40
10
40
10
40
10
40
11
40
11
40
11
40
11
10
227.6252729556382
20
-45.624985595469454
30
0
10
227.6252729556382
20
-46.729559027822631
30
0
10
226.72983926722316
20
-47.624992716237706
30
0
10
225.62526583486999
20
-47.624992716237706
30
0
0
LINE
5
119
100
AcDbEntity
8
0
100
AcDbLine
10
225.62526583486999
20
-47.624992716237713
30
0
11
220.10028007640645
21
-47.624992716237706
31
0
0
SPLINE
5
120
100
AcDbEntity
8
0
100
AcDbSpline
70
0
71
3
72
8
73
4
74
0
42
0.000000001
43
0.0000000001
44
0.0000000001
40
12
40
12
40
12
40
12
40
13
40
13
40
13
40
13
10
220.10028007640645
20
-47.624992716237706
30
0
10
218.99570664405326
20
-47.624992716237706
30
0
10
218.10027295563822
20
-48.520426404652746
30
0
10
218.10027295563822
20
-49.624999837005923
30
0
0
LINE
5
121
100
AcDbEntity
8
0
100
AcDbLine
10
218.10027295563825
20
-49.624999837005923
30
0
11
218.10027295563822
21
-64.674877936235205
31
0
0
SPLINE
5
122
100
AcDbEntity
8
0
100
AcDbSpline
70
0
71
3
72
8
73
4
74
0
42
0.000000001
43
0.0000000001
44
0.0000000001
40
14
40
14
40
14
40
14
40
15
40
15
40
15
40
15
10
218.10027295563822
20
-64.674877936235205
30
0
10
218.10027295563822
20
-65.779439476878451
30
0
10
218.99569700391706
20
-66.674863525156653
30
0
10
220.10025854455967
20
-66.674863525156653
30
0
0
LINE
5
123
100
AcDbEntity
8
0
100
AcDbLine
10
220.10025854455967
20
-66.674863525156653
30
0
11
220.86278736671676
21
-66.674863525156653
31
0
0
SPLINE
5
124
100
AcDbEntity
8
0
100
AcDbSpline
70
0
71
3
72
8
73
4
74
0
42
0.000000001
43
0.0000000001
44
0.0000000001
40
16
40
16
40
16
40
16
40
17
40
17
40
17
40
17
10
220.86278736671676
20
-66.674863525156653
30
0
10
221.96734890735939
20
-66.674863525156653
30
0
10
222.86277295563821
20
-67.570287573436104
30
0
10
222.86277295563821
20
-68.674849114078057
30
0
0
LINE
5
125
100
AcDbEntity
8
0
100
AcDbLine
10
222.86277295563821
20
-68.674849114078057
30
0
11
222.86277295563821
21
-83.724856404388447
31
0
0
SPLINE
5
126
100
AcDbEntity
8
0
100
AcDbSpline
70
0
71
3
72
8
73
4
74
0
42
0.000000001
43
0.0000000001
44
0.0000000001
40
18
40
18
40
18
40
18
40
19
40
19
40
19
40
19
10
222.86277295563821
20
-83.724856404388447
30
0
10
222.86277295563821
20
-84.829429836741639
30
0
10
223.75820664405325
20
-85.724863525156621
30
0
10
224.86278007640647
20
-85.724863525156621
30
0
0
LINE
5
127
100
AcDbEntity
8
0
100
AcDbLine
10
224.86278007640647
20
-85.724863525156621
30
0
11
230.38778736671676
21
-85.724863525156621
31
0
0
SPLINE
5
128
100
AcDbEntity
8
0
100
AcDbSpline
70
0
71
3
72
8
73
4
74
0
42
0.000000001
43
0.0000000001
44
0.0000000001
40
20
40
20
40
20
40
20
40
21
40
21
40
21
40
21
10
230.38778736671676
20
-85.724863525156621
30
0
10
231.4923489073594
20
-85.724863525156621
30
0
10
232.38777295563821
20
-86.620287573436116
30
0
10
232.38777295563821
20
-87.724849114078069
30
0
0
LINE
5
129
100
AcDbEntity
8
0
100
AcDbLine
10
232.38777295563821
20
-87.724849114078069
30
0
11
232.38777295563821
21
-129.82486335561453
31
0
0
LINE
5
130
100
AcDbEntity
8
0
100
AcDbLine
10
232.38777295563821
20
-129.82486335561453
30
0
11
232.38779448748539
21
-129.83424335163792
31
0
0
LINE
5
131
100
AcDbEntity
8
0
100
AcDbLine
10
232.38779448748539
20
-129.83424335163792
30
0
11
232.38779448748539
21
-137.8248920082296
31
0
0
ARC
5
132
100
AcDbEntity
8
0
100
AcDbCircle
10
234.38779448748534
20
-137.82489200822963
30
0
40
1.9999999999999574
210
0
220
0
230
1
100
AcDbArc
50
180
51
270
0
LINE
5
133
100
AcDbEntity
8
0
100
AcDbLine
10
234.38779448748534
20
-139.82489200822957
30
0
11
384.02500728316681
21
-139.82489200822957
31
0
0
SPLINE
5
134
100
AcDbEntity
8
0
100
AcDbSpline
70
0
71
3
72
14
73
10
74
0
42
0.000000001
43
0.0000000001
44
0.0000000001
40
14
40
14
40
14
40
14
40
14.405623453170115
40
14.405623453170115
40
14.405623453170115
40
14.855637974279666
40
14.855637974279666
40
14.855637974279666
40
15
40
15
40
15
40
15
10
384.02500728316676
20
-139.8248920082296
30
0
10
386.67480572329742
20
-139.8248920082296
30
0
10
389.20467006978265
20
-138.9331294947691
30
0
10
391.20022278192187
20
-137.4437318882932
30
0
10
393.4141669981247
20
-135.79133593983002
30
0
10
395.03882809979024
20
-133.39078078785715
30
0
10
395.70127951496602
20
-130.59731360959501
30
0
10
395.91379005351547
20
-129.70118568100528
30
0
10
396.02499999285641
20
-128.76796673603212
30
0
10
396.02499999285641
20
-127.82489929853986
30
0
0
LINE
5
135
100
AcDbEntity
8
0
100
AcDbLine
10
396.02499999285641
20
-127.82489929853986
30
0
11
396.02499999285641
21
-24.57500000654802
31
0
0
SPLINE
5
136
100
AcDbEntity
8
0
100
AcDbSpline
70
0
71
3
72
14
73
10
74
0
42
0.000000001
43
0.0000000001
44
0.0000000001
40
16
40
16
40
16
40
16
40
16.405623453169813
40
16.405623453169813
40
16.405623453169813
40
16.855637974279549
40
16.855637974279549
40
16.855637974279549
40
17
40
17
40
17
40
17
10
396.02499999285641
20
-24.57500000654802
30
0
10
396.02499999285641
20
-21.925201566418671
30
0
10
395.13323747939683
20
-19.395337219935335
30
0
10
393.64383987292285
20
-17.399784507797019
30
0
10
391.99144392445987
20
-15.185840291592626
30
0
10
389.59088877248712
20
-13.561179189925905
30
0
10
386.79742159422398
20
-12.8987277747493
30
0
10
385.9012936656336
20
-12.686217236199472
30
0
10
384.96807472065984
20
-12.575007296858363
30
0
10
384.02500728316676
20
-12.575007296858363
30
0
0
LINE
5
137
100
AcDbEntity
8
0
100
AcDbLine
10
384.02500728316676
20
-12.575007296858363
30
0
11
350.98474730730942
21
-12.575007296858359
31
0
0
ARC
5
138
100
AcDbEntity
8
0
100
AcDbCircle
10
350.98474730730959
20
-14.575007296858388
30
0
40
2.0000000000000284
210
0
220
0
230
1
100
AcDbArc
50
90.000000000004889
51
180
0
LINE
5
139
100
AcDbEntity
8
0
100
AcDbLine
10
348.98474730730953
20
-14.575007296858352
30
0
11
348.98474730730953
21
-27.573115885183004
31
0
0
SPLINE
5
140
100
AcDbEntity
8
0
100
AcDbSpline
70
0
71
3
72
8
73
4
74
0
42
0.000000001
43
0.0000000001
44
0.0000000001
40
30
40
30
40
30
40
30
40
31
40
31
40
31
40
31
10
348.98474730730953
20
-27.573115885183004
30
0
10
348.98474730730953
20
-28.12540260135961
30
0
10
349.43246415151702
20
-28.573119445567094
30
0
10
349.98475086769366
20
-28.573119445567094
30
0
0
LINE
5
141
100
AcDbEntity
8
0
100
AcDbLine
10
349.98475086769366
20
-28.573119445567098
30
0
11
378.02502898455555
21
-28.573119445567094
31
0
0
SPLINE
5
142
100
AcDbEntity
8
0
100
AcDbSpline
70
0
71
3
72
8
73
4
74
0
42
0.000000001
43
0.0000000001
44
0.0000000001
40
32
40
32
40
32
40
32
40
33
40
33
40
33
40
33
10
378.02502898455555
20
-28.573119445567094
30
0
10
379.12960241690882
20
-28.573119445567094
30
0
10
380.02503610532386
20
-29.468553133982152
30
0
10
380.02503610532386
20
-30.573126566335365
30
0
0
LINE
5
143
100
AcDbEntity
8
0
100
AcDbLine
10
380.02503610532386
20
-30.573126566335365
30
0
11
380.02503610532386
21
-121.82311232479856
31
0
0
SPLINE
5
144
100
AcDbEntity
8
0
100
AcDbSpline
70
0
71
3
72
8
73
4
74
0
42
0.000000001
43
0.0000000001
44
0.0000000001
40
34
40
34
40
34
40
34
40
35
40
35
40
35
40
35
10
380.02503610532386
20
-121.82311232479856
30
0
10
380.02503610532386
20
-122.92768575715178
30
0
10
379.12960241690882
20
-123.82311944556682
30
0
10
378.02502898455555
20
-123.82311944556682
30
0
0
LINE
5
145
100
AcDbEntity
8
0
100
AcDbLine
10
378.02502898455555
20
-123.82311944556682
30
0
11
236.38776566532789
21
-123.82311944556682
31
0
0
SPLINE
5
146
100
AcDbEntity
8
0
100
AcDbSpline
70
0
71
3
72
8
73
4
74
0
42
0.000000001
43
0.0000000001
44
0.0000000001
40
36
40
36
40
36
40
36
40
37
40
37
40
37
40
37
10
236.38776566532789
20
-123.82311944556682
30
0
10
235.28319223297473
20
-123.82311944556682
30
0
10
234.38775854455969
20
-122.92768575715178
30
0
10
234.38775854455969
20
-121.82311232479856
30
0
0
LINE
5
147
100
AcDbEntity
8
0
100
AcDbLine
10
234.38775854455972
20
-121.82311232479856
30
0
11
234.38775854455969
21
-85.72497118439054
31
0
0
SPLINE
5
148
100
AcDbEntity
8
0
100
AcDbSpline
70
0
71
3
72
8
73
4
74
0
42
0.000000001
43
0.0000000001
44
0.0000000001
40
38
40
38
40
38
40
38
40
39
40
39
40
39
40
39
10
234.38775854455969
20
-85.72497118439054
30
0
10
234.38775854455969
20
-84.620397752037377
30
0
10
233.49232485614465
20
-83.724964063622338
30
0
10
232.3877514237914
20
-83.724964063622338
30
0
0
LINE
5
149
100
AcDbEntity
8
0
100
AcDbLine
10
232.3877514237914
20
-83.724964063622338
30
0
11
226.86276566532791
21
-83.724964063622338
31
0
0
SPLINE
5
150
100
AcDbEntity
8
0
100
AcDbSpline
70
0
71
3
72
8
73
4
74
0
42
0.000000001
43
0.0000000001
44
0.0000000001
40
40
40
40
40
40
40
40
40
41
40
41
40
41
40
41
10
226.86276566532791
20
-83.724964063622338
30
0
10
225.75819223297472
20
-83.724964063622338
30
0
10
224.86275854455968
20
-82.82953037520727
30
0
10
224.86275854455968
20
-81.724956942854135
30
0
0
LINE
5
151
100
AcDbEntity
8
0
100
AcDbLine
10
224.86275854455971
20
-81.724956942854135
30
0
11
224.86275854455968
21
-66.674971184390557
31
0
0
SPLINE
5
152
100
AcDbEntity
8
0
100
AcDbSpline
70
0
71
3
72
8
73
4
74
0
42
0.000000001
43
0.0000000001
44
0.0000000001
40
42
40
42
40
42
40
42
40
43
40
43
40
43
40
43
10
224.86275854455968
20
-66.674971184390557
30
0
10
224.86275854455968
20
-65.570397752037394
30
0
10
223.96732485614464
20
-64.674964063622369
30
0
10
222.86275142379142
20
-64.674964063622369
30
0
0
LINE
5
153
100
AcDbEntity
8
0
100
AcDbLine
10
222.86275142379142
20
-64.674964063622355
30
0
11
222.1002656653279
21
-64.674964063622369
31
0
0
SPLINE
5
154
100
AcDbEntity
8
0
100
AcDbSpline
70
0
71
3
72
8
73
4
74
0
42
0.000000001
43
0.0000000001
44
0.0000000001
40
44
40
44
40
44
40
44
40
45
40
45
40
45
40
45
10
222.1002656653279
20
-64.674964063622369
30
0
10
220.9956922329747
20
-64.674964063622369
30
0
10
220.10025854455967
20
-63.779530375207599
30
0
10
220.10025854455967
20
-62.674956942854436
30
0
0
LINE
5
155
100
AcDbEntity
8
0
100
AcDbLine
10
220.10025854455972
20
-62.674956942854436
30
0
11
220.10025854455967
21
-51.625071553314527
31
0
0
SPLINE
5
156
100
AcDbEntity
8
0
100
AcDbSpline
70
0
71
3
72
8
73
4
74
0
42
0.000000001
43
0.0000000001
44
0.0000000001
40
46
40
46
40
46
40
46
40
47
40
47
40
47
40
47
10
220.10025854455967
20
-51.625071553314527
30
0
10
220.10025854455967
20
-50.520498120961328
30
0
10
220.9956922329747
20
-49.625064432546289
30
0
10
222.1002656653279
20
-49.625064432546289
30
0
0
LINE
5
157
100
AcDbEntity
8
0
100
AcDbLine
10
222.1002656653279
20
-49.625064432546282
30
0
11
227.62525142379144
21
-49.625064432546289
31
0
0
CIRCLE
5
158
100
AcDbEntity
8
0
100
AcDbCircle
10
314.06166383038334
20
-21.074967707289531
30
0
40
1.625
210
0
220
-0
230
1
0
CIRCLE
5
159
100
AcDbEntity
8
0
100
AcDbCircle
10
272.45432857501947
20
-21.074967707289531
30
0
40
1.625
210
0
220
-0
230
1
0
SPLINE
5
160
100
AcDbEntity
8
0
100
AcDbSpline
70
0
71
3
72
8
73
4
74
0
42
0.000000001
43
0.0000000001
44
0.0000000001
40
7
40
7
40
7
40
7
40
8
40
8
40
8
40
8
10
333.86533145806493
20
-28.574928117720795
30
0
10
334.41761620789606
20
-28.574928117720795
30
0
10
334.8653314580655
20
-28.127212867551457
30
0
10
334.8653314580655
20
-27.57492811772071
30
0
0
LINE
5
161
100
AcDbEntity
8
0
100
AcDbLine
10
334.86533145806555
20
-27.57492811772071
30
0
11
334.8653314580655
21
-14.575007296858352
31
0
0
ARC
5
162
100
AcDbEntity
8
0
100
AcDbCircle
10
332.86533145806544
20
-14.575007296858388
30
0
40
2.0000000000000284
210
0
220
-0
230
1
100
AcDbArc
50
0
51
89.99999999999838
0
LINE
5
163
100
AcDbEntity
8
0
100
AcDbLine
10
332.8653314580655
20
-12.575007296858359
30
0
11
253.65066094733774
21
-12.575007296858363
31
0
0
ARC
5
164
100
AcDbEntity
8
0
100
AcDbCircle
10
253.65066094733774
20
-14.575007296858356
30
0
40
1.9999999999999929
210
0
220
-0
230
1
100
AcDbArc
50
90
51
180
0
LINE
5
165
100
AcDbEntity
8
0
100
AcDbLine
10
251.65066094733774
20
-14.575007296858352
30
0
11
251.65066094733774
21
-27.57492811772071
31
0
0
SPLINE
5
166
100
AcDbEntity
8
0
100
AcDbSpline
70
0
71
3
72
8
73
4
74
0
42
0.000000001
43
0.0000000001
44
0.0000000001
40
5
40
5
40
5
40
5
40
6
40
6
40
6
40
6
10
251.65066094733774
20
-27.57492811772071
30
0
10
251.65066094733774
20
-28.127212867551457
30
0
10
252.09837619750709
20
-28.574928117720795
30
0
10
252.65066094733749
20
-28.574928117720795
30
0
0
LINE
5
167
100
AcDbEntity
8
0
100
AcDbLine
10
252.65066094733749
20
-28.574928117720791
30
0
11
333.86533145806493
21
-28.574928117720795
31
0
0
ENDSEC
0
SECTION
2
OBJECTS
0
DICTIONARY
5
C
100
AcDbDictionary
3
ACAD_GROUP
350
D
3
ACAD_MLINESTYLE
350
17
0
DICTIONARY
5
D
100
AcDbDictionary
0
DICTIONARY
5
1A
330
C
100
AcDbDictionary
0
DICTIONARY
5
17
100
AcDbDictionary
0
ENDSEC
0
EOF
