<?xml version="1.0" encoding="UTF-8" standalone="no"?>
<!-- Created with Inkscape (http://www.inkscape.org/) -->

<svg
   xmlns:dc="http://purl.org/dc/elements/1.1/"
   xmlns:cc="http://creativecommons.org/ns#"
   xmlns:rdf="http://www.w3.org/1999/02/22-rdf-syntax-ns#"
   xmlns:svg="http://www.w3.org/2000/svg"
   xmlns="http://www.w3.org/2000/svg"
   xmlns:sodipodi="http://sodipodi.sourceforge.net/DTD/sodipodi-0.dtd"
   xmlns:inkscape="http://www.inkscape.org/namespaces/inkscape"
   width="210mm"
   height="210mm"
   viewBox="0 0 210.00001 210"
   version="1.1"
   id="svg8"
   inkscape:version="0.92.4 (5da689c313, 2019-01-14)"
   sodipodi:docname="L4_plate.svg">
  <defs
     id="defs2">
    <marker
       style="overflow:visible"
       refY="0"
       refX="0"
       orient="auto"
       id="DistanceX">
      <path
         id="path12"
         style="stroke:#000000;stroke-width:0.5"
         d="M 3,-3 -3,3 M 0,-5 V 5"
         inkscape:connector-curvature="0" />
    </marker>
    <pattern
       y="0"
       x="0"
       width="8"
       patternUnits="userSpaceOnUse"
       id="Hatch"
       height="8">
      <path
         id="path15"
         stroke-width="0.25"
         stroke="#000000"
         linecap="square"
         d="M8 4 l-4,4" />
      <path
         id="path17"
         stroke-width="0.25"
         stroke="#000000"
         linecap="square"
         d="M6 2 l-4,4" />
      <path
         id="path19"
         stroke-width="0.25"
         stroke="#000000"
         linecap="square"
         d="M4 0 l-4,4" />
    </pattern>
    <symbol
       id="*MODEL_SPACE" />
    <symbol
       id="*PAPER_SPACE" />
    <marker
       style="overflow:visible"
       refY="0"
       refX="0"
       orient="auto"
       id="DistanceX-6">
      <path
         id="path111"
         style="stroke:#000000;stroke-width:0.5"
         d="M 3,-3 -3,3 M 0,-5 V 5"
         inkscape:connector-curvature="0" />
    </marker>
    <pattern
       y="0"
       x="0"
       width="8"
       patternUnits="userSpaceOnUse"
       id="Hatch-4"
       height="8">
      <path
         id="path114"
         stroke-width="0.25"
         stroke="#000000"
         linecap="square"
         d="M8 4 l-4,4" />
      <path
         id="path116"
         stroke-width="0.25"
         stroke="#000000"
         linecap="square"
         d="M6 2 l-4,4" />
      <path
         id="path118"
         stroke-width="0.25"
         stroke="#000000"
         linecap="square"
         d="M4 0 l-4,4" />
    </pattern>
    <symbol
       id="*MODEL_SPACE-4" />
    <symbol
       id="*PAPER_SPACE-1" />
    <marker
       style="overflow:visible"
       refY="0"
       refX="0"
       orient="auto"
       id="DistanceX-7">
      <path
         id="path210"
         style="stroke:#000000;stroke-width:0.5"
         d="M 3,-3 -3,3 M 0,-5 V 5"
         inkscape:connector-curvature="0" />
    </marker>
    <pattern
       y="0"
       x="0"
       width="8"
       patternUnits="userSpaceOnUse"
       id="Hatch-3"
       height="8">
      <path
         id="path213"
         stroke-width="0.25"
         stroke="#000000"
         linecap="square"
         d="M8 4 l-4,4" />
      <path
         id="path215"
         stroke-width="0.25"
         stroke="#000000"
         linecap="square"
         d="M6 2 l-4,4" />
      <path
         id="path217"
         stroke-width="0.25"
         stroke="#000000"
         linecap="square"
         d="M4 0 l-4,4" />
    </pattern>
    <symbol
       id="*MODEL_SPACE-9" />
    <symbol
       id="*PAPER_SPACE-3" />
    <marker
       style="overflow:visible"
       refY="0"
       refX="0"
       orient="auto"
       id="DistanceX-2">
      <path
         id="path1300"
         style="stroke:#000000;stroke-width:0.5"
         d="M 3,-3 -3,3 M 0,-5 V 5"
         inkscape:connector-curvature="0" />
    </marker>
    <pattern
       y="0"
       x="0"
       width="8"
       patternUnits="userSpaceOnUse"
       id="Hatch-49"
       height="8">
      <path
         id="path1303"
         stroke-width="0.25"
         stroke="#000000"
         linecap="square"
         d="M8 4 l-4,4" />
      <path
         id="path1305"
         stroke-width="0.25"
         stroke="#000000"
         linecap="square"
         d="M6 2 l-4,4" />
      <path
         id="path1307"
         stroke-width="0.25"
         stroke="#000000"
         linecap="square"
         d="M4 0 l-4,4" />
    </pattern>
    <symbol
       id="*MODEL_SPACE-1" />
    <symbol
       id="*PAPER_SPACE-9" />
    <marker
       style="overflow:visible"
       refY="0"
       refX="0"
       orient="auto"
       id="DistanceX-4">
      <path
         id="path1435"
         style="stroke:#000000;stroke-width:0.5"
         d="M 3,-3 -3,3 M 0,-5 V 5"
         inkscape:connector-curvature="0" />
    </marker>
    <pattern
       y="0"
       x="0"
       width="8"
       patternUnits="userSpaceOnUse"
       id="Hatch-8"
       height="8">
      <path
         id="path1438"
         stroke-width="0.25"
         stroke="#000000"
         linecap="square"
         d="M8 4 l-4,4" />
      <path
         id="path1440"
         stroke-width="0.25"
         stroke="#000000"
         linecap="square"
         d="M6 2 l-4,4" />
      <path
         id="path1442"
         stroke-width="0.25"
         stroke="#000000"
         linecap="square"
         d="M4 0 l-4,4" />
    </pattern>
    <symbol
       id="*MODEL_SPACE-98" />
    <symbol
       id="*PAPER_SPACE-7" />
    <marker
       style="overflow:visible"
       refY="0"
       refX="0"
       orient="auto"
       id="DistanceX-5">
      <path
         id="path1477"
         style="stroke:#000000;stroke-width:0.5"
         d="M 3,-3 -3,3 M 0,-5 V 5"
         inkscape:connector-curvature="0" />
    </marker>
    <pattern
       y="0"
       x="0"
       width="8"
       patternUnits="userSpaceOnUse"
       id="Hatch-47"
       height="8">
      <path
         id="path1480"
         stroke-width="0.25"
         stroke="#000000"
         linecap="square"
         d="M8 4 l-4,4" />
      <path
         id="path1482"
         stroke-width="0.25"
         stroke="#000000"
         linecap="square"
         d="M6 2 l-4,4" />
      <path
         id="path1484"
         stroke-width="0.25"
         stroke="#000000"
         linecap="square"
         d="M4 0 l-4,4" />
    </pattern>
    <symbol
       id="*MODEL_SPACE-2" />
    <symbol
       id="*PAPER_SPACE-92" />
    <marker
       style="overflow:visible"
       refY="0"
       refX="0"
       orient="auto"
       id="DistanceX-3">
      <path
         id="path1519"
         style="stroke:#000000;stroke-width:0.5"
         d="M 3,-3 -3,3 M 0,-5 V 5"
         inkscape:connector-curvature="0" />
    </marker>
    <pattern
       y="0"
       x="0"
       width="8"
       patternUnits="userSpaceOnUse"
       id="Hatch-44"
       height="8">
      <path
         id="path1522"
         stroke-width="0.25"
         stroke="#000000"
         linecap="square"
         d="M8 4 l-4,4" />
      <path
         id="path1524"
         stroke-width="0.25"
         stroke="#000000"
         linecap="square"
         d="M6 2 l-4,4" />
      <path
         id="path1526"
         stroke-width="0.25"
         stroke="#000000"
         linecap="square"
         d="M4 0 l-4,4" />
    </pattern>
    <symbol
       id="*MODEL_SPACE-25" />
    <symbol
       id="*PAPER_SPACE-8" />
    <marker
       style="overflow:visible"
       refY="0.0"
       refX="0.0"
       orient="auto"
       id="DistanceX-9">
      <path
         id="path5763"
         style="stroke:#000000; stroke-width:0.5"
         d="M 3,-3 L -3,3 M 0,-5 L  0,5" />
    </marker>
    <pattern
       y="0"
       x="0"
       width="8"
       patternUnits="userSpaceOnUse"
       id="Hatch-0"
       height="8">
      <path
         id="path5766"
         stroke-width="0.25"
         stroke="#000000"
         linecap="square"
         d="M8 4 l-4,4" />
      <path
         id="path5768"
         stroke-width="0.25"
         stroke="#000000"
         linecap="square"
         d="M6 2 l-4,4" />
      <path
         id="path5770"
         stroke-width="0.25"
         stroke="#000000"
         linecap="square"
         d="M4 0 l-4,4" />
    </pattern>
    <symbol
       id="*MODEL_SPACE-0" />
    <symbol
       id="*PAPER_SPACE-91" />
    <marker
       style="overflow:visible"
       refY="0.0"
       refX="0.0"
       orient="auto"
       id="DistanceX-68">
      <path
         id="path5898"
         style="stroke:#000000; stroke-width:0.5"
         d="M 3,-3 L -3,3 M 0,-5 L  0,5" />
    </marker>
    <pattern
       y="0"
       x="0"
       width="8"
       patternUnits="userSpaceOnUse"
       id="Hatch-5"
       height="8">
      <path
         id="path5901"
         stroke-width="0.25"
         stroke="#000000"
         linecap="square"
         d="M8 4 l-4,4" />
      <path
         id="path5903"
         stroke-width="0.25"
         stroke="#000000"
         linecap="square"
         d="M6 2 l-4,4" />
      <path
         id="path5905"
         stroke-width="0.25"
         stroke="#000000"
         linecap="square"
         d="M4 0 l-4,4" />
    </pattern>
    <symbol
       id="*MODEL_SPACE-5" />
    <symbol
       id="*PAPER_SPACE-913" />
    <marker
       style="overflow:visible"
       refY="0.0"
       refX="0.0"
       orient="auto"
       id="DistanceX-63">
      <path
         id="path6129"
         style="stroke:#000000; stroke-width:0.5"
         d="M 3,-3 L -3,3 M 0,-5 L  0,5" />
    </marker>
    <pattern
       y="0"
       x="0"
       width="8"
       patternUnits="userSpaceOnUse"
       id="Hatch-1"
       height="8">
      <path
         id="path6132"
         stroke-width="0.25"
         stroke="#000000"
         linecap="square"
         d="M8 4 l-4,4" />
      <path
         id="path6134"
         stroke-width="0.25"
         stroke="#000000"
         linecap="square"
         d="M6 2 l-4,4" />
      <path
         id="path6136"
         stroke-width="0.25"
         stroke="#000000"
         linecap="square"
         d="M4 0 l-4,4" />
    </pattern>
    <symbol
       id="*MODEL_SPACE-8" />
    <symbol
       id="*PAPER_SPACE-6" />
    <marker
       style="overflow:visible"
       refY="0.0"
       refX="0.0"
       orient="auto"
       id="DistanceX-689">
      <path
         id="path6324"
         style="stroke:#000000; stroke-width:0.5"
         d="M 3,-3 L -3,3 M 0,-5 L  0,5" />
    </marker>
    <pattern
       y="0"
       x="0"
       width="8"
       patternUnits="userSpaceOnUse"
       id="Hatch-6"
       height="8">
      <path
         id="path6327"
         stroke-width="0.25"
         stroke="#000000"
         linecap="square"
         d="M8 4 l-4,4" />
      <path
         id="path6329"
         stroke-width="0.25"
         stroke="#000000"
         linecap="square"
         d="M6 2 l-4,4" />
      <path
         id="path6331"
         stroke-width="0.25"
         stroke="#000000"
         linecap="square"
         d="M4 0 l-4,4" />
    </pattern>
    <symbol
       id="*MODEL_SPACE-91" />
    <symbol
       id="*PAPER_SPACE-35" />
    <marker
       style="overflow:visible"
       refY="0.0"
       refX="0.0"
       orient="auto"
       id="DistanceX-1">
      <path
         id="path6423"
         style="stroke:#000000; stroke-width:0.5"
         d="M 3,-3 L -3,3 M 0,-5 L  0,5" />
    </marker>
    <pattern
       y="0"
       x="0"
       width="8"
       patternUnits="userSpaceOnUse"
       id="Hatch-7"
       height="8">
      <path
         id="path6426"
         stroke-width="0.25"
         stroke="#000000"
         linecap="square"
         d="M8 4 l-4,4" />
      <path
         id="path6428"
         stroke-width="0.25"
         stroke="#000000"
         linecap="square"
         d="M6 2 l-4,4" />
      <path
         id="path6430"
         stroke-width="0.25"
         stroke="#000000"
         linecap="square"
         d="M4 0 l-4,4" />
    </pattern>
    <symbol
       id="*MODEL_SPACE-87" />
    <symbol
       id="*PAPER_SPACE-90" />
    <marker
       style="overflow:visible"
       refY="0.0"
       refX="0.0"
       orient="auto"
       id="DistanceX-62">
      <path
         id="path6522"
         style="stroke:#000000; stroke-width:0.5"
         d="M 3,-3 L -3,3 M 0,-5 L  0,5" />
    </marker>
    <pattern
       y="0"
       x="0"
       width="8"
       patternUnits="userSpaceOnUse"
       id="Hatch-33"
       height="8">
      <path
         id="path6525"
         stroke-width="0.25"
         stroke="#000000"
         linecap="square"
         d="M8 4 l-4,4" />
      <path
         id="path6527"
         stroke-width="0.25"
         stroke="#000000"
         linecap="square"
         d="M6 2 l-4,4" />
      <path
         id="path6529"
         stroke-width="0.25"
         stroke="#000000"
         linecap="square"
         d="M4 0 l-4,4" />
    </pattern>
    <symbol
       id="*MODEL_SPACE-45" />
    <symbol
       id="*PAPER_SPACE-81" />
    <marker
       style="overflow:visible"
       refY="0.0"
       refX="0.0"
       orient="auto"
       id="DistanceX-13">
      <path
         id="path6654"
         style="stroke:#000000; stroke-width:0.5"
         d="M 3,-3 L -3,3 M 0,-5 L  0,5" />
    </marker>
    <pattern
       y="0"
       x="0"
       width="8"
       patternUnits="userSpaceOnUse"
       id="Hatch-9"
       height="8">
      <path
         id="path6657"
         stroke-width="0.25"
         stroke="#000000"
         linecap="square"
         d="M8 4 l-4,4" />
      <path
         id="path6659"
         stroke-width="0.25"
         stroke="#000000"
         linecap="square"
         d="M6 2 l-4,4" />
      <path
         id="path6661"
         stroke-width="0.25"
         stroke="#000000"
         linecap="square"
         d="M4 0 l-4,4" />
    </pattern>
    <symbol
       id="*MODEL_SPACE-7" />
    <symbol
       id="*PAPER_SPACE-87" />
    <marker
       style="overflow:visible"
       refY="0.0"
       refX="0.0"
       orient="auto"
       id="DistanceX-66">
      <path
         id="path7077"
         style="stroke:#000000; stroke-width:0.5"
         d="M 3,-3 L -3,3 M 0,-5 L  0,5" />
    </marker>
    <pattern
       y="0"
       x="0"
       width="8"
       patternUnits="userSpaceOnUse"
       id="Hatch-57"
       height="8">
      <path
         id="path7080"
         stroke-width="0.25"
         stroke="#000000"
         linecap="square"
         d="M8 4 l-4,4" />
      <path
         id="path7082"
         stroke-width="0.25"
         stroke="#000000"
         linecap="square"
         d="M6 2 l-4,4" />
      <path
         id="path7084"
         stroke-width="0.25"
         stroke="#000000"
         linecap="square"
         d="M4 0 l-4,4" />
    </pattern>
    <symbol
       id="*MODEL_SPACE-89" />
    <symbol
       id="*PAPER_SPACE-2" />
    <marker
       style="overflow:visible"
       refY="0.0"
       refX="0.0"
       orient="auto"
       id="DistanceX-0">
      <path
         id="path1402"
         style="stroke:#000000; stroke-width:0.5"
         d="M 3,-3 L -3,3 M 0,-5 L  0,5" />
    </marker>
    <pattern
       y="0"
       x="0"
       width="8"
       patternUnits="userSpaceOnUse"
       id="Hatch-91"
       height="8">
      <path
         id="path1405"
         stroke-width="0.25"
         stroke="#000000"
         linecap="square"
         d="M8 4 l-4,4" />
      <path
         id="path1407"
         stroke-width="0.25"
         stroke="#000000"
         linecap="square"
         d="M6 2 l-4,4" />
      <path
         id="path1409"
         stroke-width="0.25"
         stroke="#000000"
         linecap="square"
         d="M4 0 l-4,4" />
    </pattern>
    <symbol
       id="*MODEL_SPACE-57" />
    <symbol
       id="*PAPER_SPACE-73" />
    <marker
       style="overflow:visible"
       refY="0.0"
       refX="0.0"
       orient="auto"
       id="DistanceX-91">
      <path
         id="path388"
         style="stroke:#000000; stroke-width:0.5"
         d="M 3,-3 L -3,3 M 0,-5 L  0,5" />
    </marker>
    <pattern
       y="0"
       x="0"
       width="8"
       patternUnits="userSpaceOnUse"
       id="Hatch-05"
       height="8">
      <path
         id="path391"
         stroke-width="0.25"
         stroke="#000000"
         linecap="square"
         d="M8 4 l-4,4" />
      <path
         id="path393"
         stroke-width="0.25"
         stroke="#000000"
         linecap="square"
         d="M6 2 l-4,4" />
      <path
         id="path395"
         stroke-width="0.25"
         stroke="#000000"
         linecap="square"
         d="M4 0 l-4,4" />
    </pattern>
    <symbol
       id="*MODEL_SPACE-28" />
    <symbol
       id="*PAPER_SPACE-25" />
  </defs>
  <sodipodi:namedview
     id="base"
     pagecolor="#ffffff"
     bordercolor="#666666"
     borderopacity="1.0"
     inkscape:pageopacity="0.0"
     inkscape:pageshadow="2"
     inkscape:zoom="0.7"
     inkscape:cx="749.68087"
     inkscape:cy="279.26958"
     inkscape:document-units="mm"
     inkscape:current-layer="layer1"
     showgrid="false"
     units="mm"
     inkscape:window-width="2560"
     inkscape:window-height="1377"
     inkscape:window-x="-8"
     inkscape:window-y="-8"
     inkscape:window-maximized="1" />
  <metadata
     id="metadata5">
    <rdf:RDF>
      <cc:Work
         rdf:about="">
        <dc:format>image/svg+xml</dc:format>
        <dc:type
           rdf:resource="http://purl.org/dc/dcmitype/StillImage" />
        <dc:title></dc:title>
      </cc:Work>
    </rdf:RDF>
  </metadata>
  <g
     inkscape:label="Layer 1"
     inkscape:groupmode="layer"
     id="layer1"
     transform="translate(0,-86.999992)">
    <g
       id="g510"
       inkscape:label="0"
       transform="matrix(0.26458333,0,0,0.26458333,-202.06264,-181.19995)">
      <path
         id="path402"
         style="fill:none;stroke:#000000"
         d="m 1038.2966,1588.3099 v -7.3335 h 10.4751 v -52.9134 h -10.272 l 0.071,-19.0866 h 46.2007 v -52.9134 h -52.9134 v 52.9134 h -19.0866 v -52.9134 h -52.91343 v 52.9134 h -19.08662 v -52.9134 h -52.91338 v 52.9134 h 28.20064 l 0.0572,15.3071 h -14.67705 v 3.7795 h -4.58082 v 52.9134 h 19.47508 v 7.3335 a 3.779528,3.779528 0 0 0 3.77953,3.7796 h 27.15963 a 3.779528,3.779528 0 0 0 3.77953,-3.7796 v -7.3335 h 52.52589 v 7.3335 a 3.779528,3.779528 0 0 0 3.7795,3.7796 h 27.1597 a 3.779528,3.779528 0 0 0 3.7795,-3.7796 z"
         inkscape:connector-curvature="0" />
      <path
         id="path404"
         style="fill:none;stroke:#000000"
         d="m 860.31605,1207.8425 v 87.1181"
         inkscape:connector-curvature="0" />
      <path
         id="path406"
         style="fill:none;stroke:#000000"
         d="m 860.31605,1294.9606 c 0,4.1748 -3.38431,7.5591 -7.55906,7.5591"
         inkscape:connector-curvature="0" />
      <path
         id="path408"
         style="fill:none;stroke:#000000"
         d="M 852.75699,1302.5197 H 831.8751"
         inkscape:connector-curvature="0" />
      <path
         id="path410"
         style="fill:none;stroke:#000000"
         d="m 831.8751,1302.5197 c -4.17475,0 -7.55905,3.3843 -7.55905,7.559"
         inkscape:connector-curvature="0" />
      <path
         id="path412"
         style="fill:none;stroke:#000000"
         d="m 824.31605,1310.0787 v 56.8815"
         inkscape:connector-curvature="0" />
      <path
         id="path414"
         style="fill:none;stroke:#000000"
         d="m 824.31605,1366.9602 c 0,4.1747 3.3843,7.559 7.55905,7.559"
         inkscape:connector-curvature="0" />
      <path
         id="path416"
         style="fill:none;stroke:#000000"
         d="m 831.8751,1374.5192 h 2.88189"
         inkscape:connector-curvature="0" />
      <path
         id="path418"
         style="fill:none;stroke:#000000"
         d="m 834.75699,1374.5192 c 4.17475,0 7.55906,3.3844 7.55906,7.5591"
         inkscape:connector-curvature="0" />
      <path
         id="path420"
         style="fill:none;stroke:#000000"
         d="m 842.31605,1382.0783 v 56.8819"
         inkscape:connector-curvature="0" />
      <path
         id="path422"
         style="fill:none;stroke:#000000"
         d="m 842.31605,1438.9602 c 0,4.1747 3.3843,7.559 7.55905,7.559"
         inkscape:connector-curvature="0" />
      <path
         id="path424"
         style="fill:none;stroke:#000000"
         d="m 849.8751,1446.5192 h 20.88189"
         inkscape:connector-curvature="0" />
      <path
         id="path426"
         style="fill:none;stroke:#000000"
         d="m 870.75699,1446.5192 c 4.17475,0 7.55906,3.3844 7.55906,7.5591"
         inkscape:connector-curvature="0" />
      <path
         id="path428"
         style="fill:none;stroke:#000000"
         d="m 878.31605,1454.0783 v 159.1181"
         inkscape:connector-curvature="0" />
      <path
         id="path430"
         style="fill:none;stroke:#000000"
         d="m 878.31605,1613.1964 2e-5,30.2363"
         inkscape:connector-curvature="0" />
      <path
         id="path432"
         style="fill:none;stroke:#000000"
         d="m 878.31607,1643.4327 a 7.559055,7.559055 0 0 0 7.55906,7.559"
         inkscape:connector-curvature="0" />
      <path
         id="path434"
         style="fill:none;stroke:#000000"
         d="M 885.87513,1650.9917 H 1451.4331"
         inkscape:connector-curvature="0" />
      <path
         id="path436"
         style="fill:none;stroke:#000000"
         d="m 1451.4331,1650.9917 c 10.015,0 19.5767,-3.3704 27.1189,-8.9996 8.3677,-6.2453 14.5081,-15.3183 17.0119,-25.8763 0.8032,-3.3869 1.2235,-6.914 1.2235,-10.4784"
         inkscape:connector-curvature="0" />
      <path
         id="path438"
         style="fill:none;stroke:#000000"
         d="M 1496.7874,1605.6374 V 1215.4016"
         inkscape:connector-curvature="0" />
      <path
         id="path440"
         style="fill:none;stroke:#000000"
         d="m 1496.7874,1215.4016 c 0,-10.015 -3.3704,-19.5767 -8.9997,-27.1189 -6.2452,-8.3677 -15.3182,-14.5082 -25.8762,-17.0119 -3.3869,-0.8032 -6.9141,-1.2235 -10.4784,-1.2235"
         inkscape:connector-curvature="0" />
      <path
         id="path442"
         style="fill:none;stroke:#000000"
         d="M 1451.4331,1170.0473 H 867.87513"
         inkscape:connector-curvature="0" />
      <path
         id="path444"
         style="fill:none;stroke:#000000"
         d="m 867.87513,1170.0473 a 7.559055,7.559055 0 0 0 -7.55906,7.559"
         inkscape:connector-curvature="0" />
      <path
         id="path446"
         style="fill:none;stroke:#000000"
         d="m 860.31607,1177.6063 -2e-5,30.2362"
         inkscape:connector-curvature="0" />
      <path
         id="path448"
         style="fill:none;stroke:#000000"
         d="m 1013.8583,1240.063 v 52.9134 h 52.9134 v -52.9134 z"
         inkscape:connector-curvature="0" />
      <path
         id="path450"
         style="fill:none;stroke:#000000"
         d="m 1138.7717,1240.063 h -52.9134 v 52.9134 h 52.9134 z"
         inkscape:connector-curvature="0" />
      <path
         id="path452"
         style="fill:none;stroke:#000000"
         d="m 1282.7717,1292.9764 v -52.9134 h -52.9134 v 52.9134 z"
         inkscape:connector-curvature="0" />
      <path
         id="path454"
         style="fill:none;stroke:#000000"
         d="m 994.77165,1240.063 h -52.91338 v 52.9134 h 52.91338 z"
         inkscape:connector-curvature="0" />
      <path
         id="path456"
         style="fill:none;stroke:#000000"
         d="m 869.85827,1292.9764 h 52.91338 v -52.9134 h -52.91338 z"
         inkscape:connector-curvature="0" />
      <path
         id="path458"
         style="fill:none;stroke:#000000"
         d="m 1246.7717,1364.9764 v -52.9134 h -52.9134 v 52.9134 z"
         inkscape:connector-curvature="0" />
      <path
         id="path460"
         style="fill:none;stroke:#000000"
         d="m 905.85827,1312.063 v 52.9134 h 52.91338 v -52.9134 z"
         inkscape:connector-curvature="0" />
      <path
         id="path462"
         style="fill:none;stroke:#000000"
         d="m 833.85827,1364.9764 h 52.91338 v -52.9134 h -52.91338 z"
         inkscape:connector-curvature="0" />
      <path
         id="path464"
         style="fill:none;stroke:#000000"
         d="m 1174.7717,1364.9764 v -52.9134 h -52.9134 v 52.9134 z"
         inkscape:connector-curvature="0" />
      <path
         id="path466"
         style="fill:none;stroke:#000000"
         d="m 1030.7717,1364.9764 v -52.9134 h -52.91343 v 52.9134 z"
         inkscape:connector-curvature="0" />
      <path
         id="path468"
         style="fill:none;stroke:#000000"
         d="m 1102.7717,1312.063 h -52.9134 v 52.9134 h 52.9134 z"
         inkscape:connector-curvature="0" />
      <path
         id="path470"
         style="fill:none;stroke:#000000"
         d="m 851.85827,1384.063 v 52.9134 h 52.91338 v -52.9134 z"
         inkscape:connector-curvature="0" />
      <path
         id="path472"
         style="fill:none;stroke:#000000"
         d="m 1048.7717,1384.063 h -52.91343 v 52.9134 h 52.91343 z"
         inkscape:connector-curvature="0" />
      <path
         id="path474"
         style="fill:none;stroke:#000000"
         d="m 923.85827,1436.9764 h 52.91338 v -52.9134 h -52.91338 z"
         inkscape:connector-curvature="0" />
      <path
         id="path476"
         style="fill:none;stroke:#000000"
         d="m 1192.7717,1384.063 h -52.9134 v 52.9134 h 52.9134 z"
         inkscape:connector-curvature="0" />
      <path
         id="path478"
         style="fill:none;stroke:#000000"
         d="m 1264.7717,1384.063 h -52.9134 v 52.9134 h 52.9134 z"
         inkscape:connector-curvature="0" />
      <path
         id="path480"
         style="fill:none;stroke:#000000"
         d="m 1120.7717,1436.9764 v -52.9134 h -52.9134 v 52.9134 z"
         inkscape:connector-curvature="0" />
      <path
         id="path482"
         style="fill:none;stroke:#000000"
         d="m 1175.8583,1508.9764 h 79.9134 v -52.9134 h -79.9134 z"
         inkscape:connector-curvature="0" />
      <path
         id="path484"
         style="fill:none;stroke:#000000"
         d="m 1103.8583,1508.9764 h 52.9134 v -52.9134 h -52.9134 z"
         inkscape:connector-curvature="0" />
      <path
         id="path486"
         style="fill:none;stroke:#000000"
         d="m 1364.8583,1580.9764 h 61.9134 v -52.9134 h -61.9134 z"
         inkscape:connector-curvature="0" />
      <path
         id="path488"
         style="fill:none;stroke:#000000"
         d="m 1354.7717,1580.9764 v -52.9134 h -295.9134 v 52.9134 z"
         inkscape:connector-curvature="0" />
      <path
         id="path490"
         style="fill:none;stroke:#000000"
         d="m 1157.8583,1240.063 v 52.9134 h 52.9134 v -52.9134 z"
         inkscape:connector-curvature="0" />
      <path
         id="path492"
         style="fill:none;stroke:#000000"
         d="m 1464.6184,1210.147 a 6.1417325,6.1417325 0 1 0 -12.2834,0 6.1417325,6.1417325 0 1 0 12.2834,0 z"
         inkscape:connector-curvature="0" />
      <path
         id="path494"
         style="fill:none;stroke:#000000"
         d="m 1039.0756,1620.7773 a 6.1417325,6.1417325 0 1 0 -12.2834,0 6.1417325,6.1417325 0 1 0 12.2834,0 z"
         inkscape:connector-curvature="0" />
      <path
         id="path496"
         style="fill:none;stroke:#000000"
         d="m 1472.6929,1410.5196 a 6.1417325,6.1417325 0 1 0 -12.2834,0 6.1417325,6.1417325 0 1 0 12.2834,0 z"
         inkscape:connector-curvature="0" />
      <path
         id="path498"
         style="fill:none;stroke:#000000"
         d="m 1035.8904,1202.1731 a 6.14175,6.14175 0 1 0 -12.2835,0 6.14175,6.14175 0 1 0 12.2835,0 z"
         inkscape:connector-curvature="0" />
      <path
         id="path500"
         style="fill:none;stroke:#000000"
         d="m 893.05461,1205.9528 a 6.141735,6.141735 0 1 0 -12.28347,0 6.141735,6.141735 0 1 0 12.28347,0 z"
         inkscape:connector-curvature="0" />
      <path
         id="path502"
         style="fill:none;stroke:#000000"
         d="m 1193.1464,1202.1731 a 6.1417325,6.1417325 0 1 0 -12.2834,0 6.1417325,6.1417325 0 1 0 12.2834,0 z"
         inkscape:connector-curvature="0" />
      <path
         id="path504"
         style="fill:none;stroke:#000000"
         d="m 1314.2956,1620.7647 a 6.14175,6.14175 0 1 0 -12.2835,0 6.14175,6.14175 0 1 0 12.2835,0 z"
         inkscape:connector-curvature="0" />
      <path
         id="path506"
         style="fill:none;stroke:#000000"
         d="m 1464.6754,1612.7597 a 6.14175,6.14175 0 1 0 -12.2835,0 6.14175,6.14175 0 1 0 12.2835,0 z"
         inkscape:connector-curvature="0" />
      <path
         id="path508"
         style="fill:none;stroke:#000000"
         d="m 1329.052,1384.063 v -7.3336 a 3.779528,3.779528 0 0 0 -3.7795,-3.7795 h -27.1596 a 3.779528,3.779528 0 0 0 -3.7796,3.7795 v 7.3336 h -10.475 v 52.9134 h 10.272 l -0.071,19.0866 h -19.2006 v 52.9134 h 4.5808 v 7.5591 a 3.779528,3.779528 0 0 0 3.7795,3.7795 h 17.9527 a 3.779528,3.779528 0 0 0 3.7796,-3.7795 v -7.5591 h 64.7282 v 7.5591 a 3.779528,3.779528 0 0 0 3.7795,3.7795 h 17.9527 a 3.779528,3.779528 0 0 0 3.7796,-3.7795 v -7.5591 h 31.5808 v -52.9134 h -10.2007 l -0.2059,-55.0866 h 1.4066 v -52.9134 h -9 v -5.9074 h 5.2204 v -25.5118 h -5.2204 v -4.5808 h 16.7993 l -0.071,-19.0866 h 1.272 v -52.9134 h -1.4751 a 3.779528,3.779528 0 0 0 -3.7768,-3.5654 l -25.4559,0.023 a 3.779528,3.779528 0 0 0 -2.7568,1.1977 l -1.2996,1.3893 a 3.779528,3.779528 0 0 1 -1.4296,0.9557 h -52.5259 a 3.779528,3.779528 0 0 1 -1.4296,-0.9557 l -1.2996,-1.3893 a 3.779528,3.779528 0 0 0 -2.7568,-1.1977 l -25.4558,-0.023 a 3.779528,3.779528 0 0 0 -3.7769,3.5654 h -1.475 v 52.9134 h 1.272 l -0.071,19.0866 h -37.2006 v 52.9134 h 52.9134 v -52.9134 h 37.0866 v 52.9134 h 9 v 19.0866 z"
         inkscape:connector-curvature="0" />
    </g>
  </g>
</svg>
