0
SECTION
2
HEADER
9
$INSUNITS
70
4
9
$ACADVER
1
AC1014
9
$HANDSEED
5
FFFF
0
ENDSEC
0
SECTION
2
TABLES
0
TABLE
2
VPORT
5
8
100
AcDbSymbolTable
0
ENDTAB
0
TABLE
2
LTYPE
5
5
100
AcDbSymbolTable
0
LTYPE
5
14
100
AcDbSymbolTableRecord
100
AcDbLinetypeTableRecord
2
BYBLOCK
70
0
0
LTYPE
5
15
100
AcDbSymbolTableRecord
100
AcDbLinetypeTableRecord
2
BYLAYER
70
0
0
ENDTAB
0
TABLE
2
LAYER
5
2
100
AcDbSymbolTable
70
2
0
LAYER
5
50
100
AcDbSymbolTableRecord
100
AcDbLayerTableRecord
2
0
70
0
6
CONTINUOUS
0
ENDTAB
0
TABLE
2
STYLE
5
3
100
AcDbSymbolTable
70
1
0
STYLE
5
11
100
AcDbSymbolTableRecord
100
AcDbTextStyleTableRecord
2
STANDARD
70
0
0
ENDTAB
0
TABLE
2
VIEW
5
6
100
AcDbSymbolTable
70
0
0
ENDTAB
0
TABLE
2
UCS
5
7
100
AcDbSymbolTable
70
0
0
ENDTAB
0
TABLE
2
APPID
5
9
100
AcDbSymbolTable
70
2
0
APPID
5
12
100
AcDbSymbolTableRecord
100
AcDbRegAppTableRecord
2
ACAD
70
0
0
ENDTAB
0
TABLE
2
DIMSTYLE
5
A
100
AcDbSymbolTable
70
1
0
ENDTAB
0
TABLE
2
BLOCK_RECORD
5
1
100
AcDbSymbolTable
70
1
0
BLOCK_RECORD
5
1F
100
AcDbSymbolTableRecord
100
AcDbBlockTableRecord
2
*MODEL_SPACE
0
BLOCK_RECORD
5
1B
100
AcDbSymbolTableRecord
100
AcDbBlockTableRecord
2
*PAPER_SPACE
0
ENDTAB
0
ENDSEC
0
SECTION
2
BLOCKS
0
BLOCK
5
20
100
AcDbEntity
100
AcDbBlockBegin
2
*MODEL_SPACE
0
ENDBLK
5
21
100
AcDbEntity
100
AcDbBlockEnd
0
BLOCK
5
1C
100
AcDbEntity
100
AcDbBlockBegin
2
*PAPER_SPACE
0
ENDBLK
5
1D
100
AcDbEntity
100
AcDbBlockEnd
0
ENDSEC
0
SECTION
2
ENTITIES
0
CIRCLE
5
100
100
AcDbEntity
8
0
100
AcDbCircle
10
385.90368693960733
20
-129.70932846147045
30
0
40
1.625
210
0
220
-0
230
1
0
CIRCLE
5
101
100
AcDbEntity
8
0
100
AcDbCircle
10
346.11571311236321
20
-131.8273272659643
30
0
40
1.625
210
0
220
-0
230
1
0
CIRCLE
5
102
100
AcDbEntity
8
0
100
AcDbCircle
10
314.06166383038334
20
-21.074967707289531
30
0
40
1.625
210
0
220
-0
230
1
0
CIRCLE
5
103
100
AcDbEntity
8
0
100
AcDbCircle
10
234.66236495257306
20
-22.075010772471401
30
0
40
1.625
210
0
220
-0
230
1
0
CIRCLE
5
104
100
AcDbEntity
8
0
100
AcDbCircle
10
272.45432857501947
20
-21.074967707289531
30
0
40
1.625
210
0
220
-0
230
1
0
CIRCLE
5
105
100
AcDbEntity
8
0
100
AcDbCircle
10
388.0250072831667
20
-76.199981950314282
30
0
40
1.625
210
0
220
-0
230
1
0
CIRCLE
5
106
100
AcDbEntity
8
0
100
AcDbCircle
10
273.29709586382813
20
-131.83064880503059
30
0
40
1.625
210
0
220
-0
230
1
0
CIRCLE
5
107
100
AcDbEntity
8
0
100
AcDbCircle
10
385.88862591196374
20
-23.184721868330065
30
0
40
1.625
210
0
220
-0
230
1
0
LWPOLYLINE
5
108
100
AcDbEntity
8
0
100
AcDbPolyline
90
4
70
1
43
0.0
10
306.3499999982501
20
-31.09999999824991
10
306.3499999982501
20
-45.100000001750104
10
320.35000000174989
20
-45.100000001750104
10
320.35000000174989
20
-31.09999999824991
0
LWPOLYLINE
5
109
100
AcDbEntity
8
0
100
AcDbPolyline
90
4
70
1
43
0.0
10
358.45000338369829
20
-121.3000033973904
10
358.45000338369829
20
-107.29999661570636
10
280.15624660201428
20
-107.29999661570636
10
280.15624660201428
20
-121.3000033973904
0
LWPOLYLINE
5
110
100
AcDbEntity
8
0
100
AcDbPolyline
90
4
70
1
43
0.0
10
361.11874660201431
20
-121.3000033973904
10
377.5000033836983
20
-121.3000033973904
10
377.5000033836983
20
-107.29999661570636
10
361.11874660201431
20
-107.29999661570636
0
LWPOLYLINE
5
111
100
AcDbEntity
8
0
100
AcDbPolyline
90
4
70
1
43
0.0
10
292.06249999944043
20
-102.25000001603755
10
306.06250000294091
20
-102.25000001603755
10
306.06250000294091
20
-88.250000012537683
10
292.06249999944043
20
-88.250000012537683
0
LWPOLYLINE
5
112
100
AcDbEntity
8
0
100
AcDbPolyline
90
4
70
1
43
0.0
10
311.11249660201429
20
-102.25000339739039
10
332.25625338369832
20
-102.25000339739039
10
332.25625338369832
20
-88.249996615706351
10
311.11249660201429
20
-88.249996615706351
0
LWPOLYLINE
5
113
100
AcDbEntity
8
0
100
AcDbPolyline
90
4
70
1
43
0.0
10
296.53750000055959
20
-83.20000001127481
10
296.53750000055959
20
-69.200000007774932
10
282.53749999705911
20
-69.200000007774932
10
282.53749999705911
20
-83.20000001127481
0
LWPOLYLINE
5
114
100
AcDbEntity
8
0
100
AcDbPolyline
90
4
70
1
43
0.0
10
334.63750000055961
20
-69.200000007774932
10
320.63749999705908
20
-69.200000007774932
10
320.63749999705908
20
-83.20000001127481
10
334.63750000055961
20
-83.20000001127481
0
LWPOLYLINE
5
115
100
AcDbEntity
8
0
100
AcDbPolyline
90
4
70
1
43
0.0
10
315.5875000005596
20
-69.200000007774932
10
301.58749999705907
20
-69.200000007774932
10
301.58749999705907
20
-83.20000001127481
10
315.5875000005596
20
-83.20000001127481
0
LWPOLYLINE
5
116
100
AcDbEntity
8
0
100
AcDbPolyline
90
4
70
1
43
0.0
10
244.43749999705912
20
-83.20000001127481
10
258.43750000055962
20
-83.20000001127481
10
258.43750000055962
20
-69.200000007774932
10
244.43749999705912
20
-69.200000007774932
0
LWPOLYLINE
5
117
100
AcDbEntity
8
0
100
AcDbPolyline
90
4
70
1
43
0.0
10
277.48750000055958
20
-69.200000007774932
10
263.4874999970591
20
-69.200000007774932
10
263.4874999970591
20
-83.20000001127481
10
277.48750000055958
20
-83.20000001127481
0
LWPOLYLINE
5
118
100
AcDbEntity
8
0
100
AcDbPolyline
90
4
70
1
43
0.0
10
225.38749999705911
20
-69.200000007774932
10
225.38749999705911
20
-83.20000001127481
10
239.38750000055961
20
-83.20000001127481
10
239.38750000055961
20
-69.200000007774932
0
LWPOLYLINE
5
119
100
AcDbEntity
8
0
100
AcDbPolyline
90
4
70
1
43
0.0
10
291.77499999936862
20
-50.150000003012295
10
277.77499999586877
20
-50.150000003012295
10
277.77499999586877
20
-64.150000006512769
10
291.77499999936862
20
-64.150000006512769
0
LWPOLYLINE
5
120
100
AcDbEntity
8
0
100
AcDbPolyline
90
4
70
1
43
0.0
10
272.72499999936861
20
-64.150000006512769
10
272.72499999936861
20
-50.150000003012295
10
258.72499999586876
20
-50.150000003012295
10
258.72499999586876
20
-64.150000006512769
0
LWPOLYLINE
5
121
100
AcDbEntity
8
0
100
AcDbPolyline
90
4
70
1
43
0.0
10
310.82499999936863
20
-64.150000006512769
10
310.82499999936863
20
-50.150000003012295
10
296.82499999586872
20
-50.150000003012295
10
296.82499999586872
20
-64.150000006512769
0
LWPOLYLINE
5
122
100
AcDbEntity
8
0
100
AcDbPolyline
90
4
70
1
43
0.0
10
220.62499999586876
20
-64.150000006512769
10
234.62499999936858
20
-64.150000006512769
10
234.62499999936858
20
-50.150000003012295
10
220.62499999586876
20
-50.150000003012295
0
LWPOLYLINE
5
123
100
AcDbEntity
8
0
100
AcDbPolyline
90
4
70
1
43
0.0
10
239.67499999586877
20
-50.150000003012295
10
239.67499999586877
20
-64.150000006512769
10
253.67499999936857
20
-64.150000006512769
10
253.67499999936857
20
-50.150000003012295
0
LWPOLYLINE
5
124
100
AcDbEntity
8
0
100
AcDbPolyline
90
4
70
1
43
0.0
10
329.87499999936858
20
-64.150000006512769
10
329.87499999936858
20
-50.150000003012295
10
315.87499999586873
20
-50.150000003012295
10
315.87499999586873
20
-64.150000006512769
0
LWPOLYLINE
5
125
100
AcDbEntity
8
0
100
AcDbPolyline
90
4
70
1
43
0.0
10
230.14999999825008
20
-45.100000001750104
10
244.15000000174996
20
-45.100000001750104
10
244.15000000174996
20
-31.09999999824991
10
230.14999999825008
20
-31.09999999824991
0
LWPOLYLINE
5
126
100
AcDbEntity
8
0
100
AcDbPolyline
90
4
70
1
43
0.0
10
263.20000000174991
20
-31.09999999824991
10
249.19999999825006
20
-31.09999999824991
10
249.19999999825006
20
-45.100000001750104
10
263.20000000174991
20
-45.100000001750104
0
LWPOLYLINE
5
127
100
AcDbEntity
8
0
100
AcDbPolyline
90
4
70
1
43
0.0
10
339.4000000017499
20
-45.100000001750104
10
339.4000000017499
20
-31.09999999824991
10
325.39999999825005
20
-31.09999999824991
10
325.39999999825005
20
-45.100000001750104
0
LWPOLYLINE
5
128
100
AcDbEntity
8
0
100
AcDbPolyline
90
4
70
1
43
0.0
10
301.30000000174994
20
-31.09999999824991
10
287.29999999825009
20
-31.09999999824991
10
287.29999999825009
20
-45.100000001750104
10
301.30000000174994
20
-45.100000001750104
0
LWPOLYLINE
5
129
100
AcDbEntity
8
0
100
AcDbPolyline
90
4
70
1
43
0.0
10
268.24999999825008
20
-31.09999999824991
10
268.24999999825008
20
-45.100000001750104
10
282.25000000174992
20
-45.100000001750104
10
282.25000000174992
20
-31.09999999824991
0
LINE
5
130
100
AcDbEntity
8
0
100
AcDbLine
10
227.62528753625867
20
-22.575000006548134
30
0
11
227.62528753625867
21
-45.625000006548518
31
0
0
SPLINE
5
131
100
AcDbEntity
8
0
100
AcDbSpline
70
0
71
3
72
8
73
4
74
0
42
0.000000001
43
0.0000000001
44
0.0000000001
40
-18
40
-18
40
-18
40
-18
40
-17
40
-17
40
-17
40
-17
10
227.62528753625867
20
-45.625000006548518
30
0
10
227.62528753625867
20
-46.729569506210012
30
0
10
226.72985703592053
20
-47.625000006548376
30
0
10
225.6252875362585
20
-47.625000006548376
30
0
0
LINE
5
132
100
AcDbEntity
8
0
100
AcDbLine
10
225.62528753625853
20
-47.625000006548362
30
0
11
220.10028753625886
21
-47.625000006548376
31
0
0
SPLINE
5
133
100
AcDbEntity
8
0
100
AcDbSpline
70
0
71
3
72
8
73
4
74
0
42
0.000000001
43
0.0000000001
44
0.0000000001
40
-16
40
-16
40
-16
40
-16
40
-15
40
-15
40
-15
40
-15
10
220.10028753625886
20
-47.625000006548376
30
0
10
218.99571803659671
20
-47.625000006548376
30
0
10
218.10028753625863
20
-48.520430506886797
30
0
10
218.10028753625863
20
-49.62500000654822
30
0
0
LINE
5
134
100
AcDbEntity
8
0
100
AcDbLine
10
218.10028753625863
20
-49.62500000654822
30
0
11
218.10028753625863
21
-64.674884717919468
31
0
0
SPLINE
5
135
100
AcDbEntity
8
0
100
AcDbSpline
70
0
71
3
72
8
73
4
74
0
42
0.000000001
43
0.0000000001
44
0.0000000001
40
-14
40
-14
40
-14
40
-14
40
-13
40
-13
40
-13
40
-13
10
218.10028753625863
20
-64.674884717919468
30
0
10
218.10028753625863
20
-65.779454217580962
30
0
10
218.99571803659737
20
-66.67488471791971
30
0
10
220.10028753625886
20
-66.67488471791971
30
0
0
LINE
5
136
100
AcDbEntity
8
0
100
AcDbLine
10
220.1002875362588
20
-66.67488471791971
30
0
11
220.86278753625848
21
-66.67488471791971
31
0
0
SPLINE
5
137
100
AcDbEntity
8
0
100
AcDbSpline
70
0
71
3
72
8
73
4
74
0
42
0.000000001
43
0.0000000001
44
0.0000000001
40
-12
40
-12
40
-12
40
-12
40
-11
40
-11
40
-11
40
-11
10
220.86278753625848
20
-66.67488471791971
30
0
10
221.96735703591997
20
-66.67488471791971
30
0
10
222.86278753625865
20
-67.570315218258429
30
0
10
222.86278753625865
20
-68.67488471791988
30
0
0
LINE
5
138
100
AcDbEntity
8
0
100
AcDbLine
10
222.86278753625865
20
-68.67488471791988
30
0
11
222.86278753625865
21
-83.72488471791948
31
0
0
SPLINE
5
139
100
AcDbEntity
8
0
100
AcDbSpline
70
0
71
3
72
8
73
4
74
0
42
0.000000001
43
0.0000000001
44
0.0000000001
40
-10
40
-10
40
-10
40
-10
40
-9
40
-9
40
-9
40
-9
10
222.86278753625865
20
-83.72488471791948
30
0
10
222.86278753625865
20
-84.829454217580974
30
0
10
223.75821803659736
20
-85.724884717919693
30
0
10
224.86278753625885
20
-85.724884717919693
30
0
0
LINE
5
140
100
AcDbEntity
8
0
100
AcDbLine
10
224.86278753625882
20
-85.724884717919693
30
0
11
230.38778753625849
21
-85.724884717919693
31
0
0
SPLINE
5
141
100
AcDbEntity
8
0
100
AcDbSpline
70
0
71
3
72
8
73
4
74
0
42
0.000000001
43
0.0000000001
44
0.0000000001
40
-8
40
-8
40
-8
40
-8
40
-7
40
-7
40
-7
40
-7
10
230.38778753625849
20
-85.724884717919693
30
0
10
231.49235703591989
20
-85.724884717919693
30
0
10
232.38778753625866
20
-86.62031521825844
30
0
10
232.38778753625866
20
-87.724884717919892
30
0
0
LINE
5
142
100
AcDbEntity
8
0
100
AcDbLine
10
232.38778753625866
20
-87.724884717919892
30
0
11
232.38778753625866
21
-129.82488471792027
31
0
0
LINE
5
143
100
AcDbEntity
8
0
100
AcDbLine
10
232.38778753625866
20
-129.82488471792027
30
0
11
232.38779448748539
21
-137.8248920082296
31
0
0
ARC
5
144
100
AcDbEntity
8
0
100
AcDbCircle
10
234.38779448748534
20
-137.82489200822963
30
0
40
1.9999999999999574
210
0
220
0
230
1
100
AcDbArc
50
180
51
270
0
LINE
5
145
100
AcDbEntity
8
0
100
AcDbLine
10
234.38779448748534
20
-139.82489200822957
30
0
11
384.02500728316681
21
-139.82489200822957
31
0
0
SPLINE
5
146
100
AcDbEntity
8
0
100
AcDbSpline
70
0
71
3
72
14
73
10
74
0
42
0.000000001
43
0.0000000001
44
0.0000000001
40
14
40
14
40
14
40
14
40
14.405623453170115
40
14.405623453170115
40
14.405623453170115
40
14.855637974279666
40
14.855637974279666
40
14.855637974279666
40
15
40
15
40
15
40
15
10
384.02500728316676
20
-139.8248920082296
30
0
10
386.67480572329742
20
-139.8248920082296
30
0
10
389.20467006978265
20
-138.9331294947691
30
0
10
391.20022278192187
20
-137.4437318882932
30
0
10
393.4141669981247
20
-135.79133593983002
30
0
10
395.03882809979024
20
-133.39078078785715
30
0
10
395.70127951496602
20
-130.59731360959501
30
0
10
395.91379005351547
20
-129.70118568100528
30
0
10
396.02499999285641
20
-128.76796673603212
30
0
10
396.02499999285641
20
-127.82489929853986
30
0
0
LINE
5
147
100
AcDbEntity
8
0
100
AcDbLine
10
396.02499999285641
20
-127.82489929853986
30
0
11
396.02499999285641
21
-24.57500000654802
31
0
0
SPLINE
5
148
100
AcDbEntity
8
0
100
AcDbSpline
70
0
71
3
72
14
73
10
74
0
42
0.000000001
43
0.0000000001
44
0.0000000001
40
16
40
16
40
16
40
16
40
16.405623453169813
40
16.405623453169813
40
16.405623453169813
40
16.855637974279549
40
16.855637974279549
40
16.855637974279549
40
17
40
17
40
17
40
17
10
396.02499999285641
20
-24.57500000654802
30
0
10
396.02499999285641
20
-21.925201566418671
30
0
10
395.13323747939683
20
-19.395337219935335
30
0
10
393.64383987292285
20
-17.399784507797019
30
0
10
391.99144392445987
20
-15.185840291592626
30
0
10
389.59088877248712
20
-13.561179189925905
30
0
10
386.79742159422398
20
-12.8987277747493
30
0
10
385.9012936656336
20
-12.686217236199472
30
0
10
384.96807472065984
20
-12.575007296858363
30
0
10
384.02500728316676
20
-12.575007296858363
30
0
0
LINE
5
149
100
AcDbEntity
8
0
100
AcDbLine
10
384.02500728316676
20
-12.575007296858363
30
0
11
229.62529448748535
21
-12.575007296858363
31
0
0
ARC
5
150
100
AcDbEntity
8
0
100
AcDbCircle
10
229.62529448748535
20
-14.575007296858342
30
0
40
1.9999999999999796
210
0
220
-0
230
1
100
AcDbArc
50
90
51
180
0
LINE
5
151
100
AcDbEntity
8
0
100
AcDbLine
10
227.62529448748535
20
-14.575007296858367
30
0
11
227.62528753625867
21
-22.575000006548134
31
0
0
LWPOLYLINE
5
152
100
AcDbEntity
8
0
100
AcDbPolyline
90
34
70
1
43
0.0
10
243.44581145067437
20
-122.24334324953048
42
-0.39796237979828974
10
242.44652645845207
20
-121.30000695777474
10
237.29374660201429
20
-121.30000695777474
10
237.29374660201429
20
-107.30000017609071
10
238.50575272587497
20
-107.30000017609071
10
238.50575272587497
20
-106.29999661570659
10
242.38905814630613
20
-106.29999661570659
10
242.37392022400297
20
-102.25000001603755
10
234.91249999944046
20
-102.25000001603755
10
234.91249999944046
20
-88.250000012537683
10
248.9125000029409
20
-88.250000012537683
10
248.9125000029409
20
-102.25000001603755
10
253.96249999944044
20
-102.25000001603755
10
253.96249999944044
20
-88.250000012537683
10
267.96250000294094
20
-88.250000012537683
10
267.96250000294089
20
-102.25000001603755
10
273.01249999944042
20
-102.25000001603755
10
273.01249999944042
20
-88.250000012537683
10
287.0125000029409
20
-88.250000012537683
10
287.0125000029409
20
-102.25000001603755
10
274.78857977599711
20
-102.25000001603755
10
274.76970407865417
20
-107.30000017609071
10
277.48750338369831
20
-107.30000017609071
10
277.48750338369831
20
-121.30000695777474
10
274.7159735415479
20
-121.30000695777474
42
-0.39796237979831089
10
273.71668854932557
20
-122.24334324953054
10
266.98149561777234
20
-122.237337823914
42
-0.20736777219119498
10
266.25208050170795
20
-121.92045755942905
10
265.90824207968353
20
-121.55286801616677
42
0.11525840842180736
10
265.52998743871342
20
-121.30000695777474
10
251.63251256128646
20
-121.30000695777474
42
0.11525840842178285
10
251.25425792031643
20
-121.55286801616671
10
250.91041949829196
20
-121.92045755942901
42
-0.2073677721912435
10
250.1810043822276
20
-122.23733782391398
0
LWPOLYLINE
5
153
100
AcDbEntity
8
0
100
AcDbPolyline
90
60
70
1
43
0.0
10
377.18232974290686
20
-50.14999662225469
10
377.16345407148617
20
-45.100003397390381
10
377.5000033836983
20
-45.100003397390381
10
377.5000033836983
20
-31.099996615706349
10
377.10972353403258
20
-31.099996615706345
42
0.39796237789884981
10
376.11043854218195
20
-30.156660330498973
10
369.37524561062872
20
-30.162665756115494
42
0.20736777219120092
10
368.64583049456428
20
-30.47954602060052
10
368.30199207253992
20
-30.847135563862746
42
-0.11525840370984512
10
367.92373744897975
20
-31.099996615706349
10
354.02626255414282
20
-31.099996622254732
42
-0.11525840842178775
10
353.64800791317282
20
-30.847135563862729
10
353.30416949114834
20
-30.479546020600452
42
0.20736777219122871
10
352.57475437508396
20
-30.162665756115526
10
345.83956144353067
20
-30.156660330498966
42
0.39796237789883049
10
344.84027645168004
20
-31.099996615706349
10
344.44999660201432
20
-31.099996615706349
10
344.44999660201432
20
-45.100003397390381
10
344.78654591422651
20
-45.100003397390381
10
344.76767024280576
20
-50.150000003012295
10
334.92499999586869
20
-50.150000003012295
10
334.92499999586869
20
-64.150000006512769
10
348.92499999936859
20
-64.150000006512769
10
348.92499999936859
20
-50.150000003012295
10
358.73749660201429
20
-50.149996615706357
10
358.73749660201429
20
-64.150003397390392
10
361.11874660201431
20
-64.150003397390392
10
361.11874660201431
20
-69.199996615706368
10
351.64501256128653
20
-69.199996615706368
42
-0.11525840842178821
10
351.26675792031648
20
-68.947135557314368
10
350.922919498292
20
-68.579546014052099
42
0.20736777219121352
10
350.19350438222767
20
-68.262665749567134
10
343.45831145067439
20
-68.256660323950612
42
0.39796237979829491
10
342.45902645845206
20
-69.199996615706368
10
339.68749660201422
20
-69.199996615706368
10
339.68749660201422
20
-83.200003397390404
10
342.40529592134573
20
-83.200003397390404
10
342.38642024994942
20
-88.249996615706351
10
337.30624660201431
20
-88.249996615706351
10
337.30624660201431
20
-102.25000339739039
10
338.51825272587496
20
-102.25000339739039
10
338.51825272587496
20
-103.25000695777449
10
345.26824984365931
20
-103.25000695777449
10
345.26824984365931
20
-102.25000339739039
10
362.39425014205335
20
-102.25000339739039
10
362.39425014205335
20
-103.25000695777449
10
369.14424725983764
20
-103.25000695777449
10
369.14424725983764
20
-102.25000339739039
10
377.5000033836983
20
-102.25000339739039
10
377.5000033836983
20
-88.249996615706351
10
374.80107975005058
20
-88.249996615706351
10
374.7466018981612
20
-73.675003397390398
10
375.11875338369833
20
-73.675003397390398
10
375.11875338369833
20
-59.674996615706362
10
372.73750338369837
20
-59.674996615706362
10
372.73750338369837
20
-58.111999857350952
10
374.1187498233142
20
-58.111999857350952
10
374.1187498233142
20
-51.362002739567046
10
372.73750338369837
20
-51.362002739567046
10
372.73750338369837
20
-50.149996615706357
0
ENDSEC
0
SECTION
2
OBJECTS
0
DICTIONARY
5
C
100
AcDbDictionary
3
ACAD_GROUP
350
D
3
ACAD_MLINESTYLE
350
17
0
DICTIONARY
5
D
100
AcDbDictionary
0
DICTIONARY
5
1A
330
C
100
AcDbDictionary
0
DICTIONARY
5
17
100
AcDbDictionary
0
ENDSEC
0
EOF
