0
SECTION
2
HEADER
9
$INSUNITS
70
4
9
$ACADVER
1
AC1014
9
$HANDSEED
5
FFFF
0
ENDSEC
0
SECTION
2
TABLES
0
TABLE
2
VPORT
5
8
100
AcDbSymbolTable
0
ENDTAB
0
TABLE
2
LTYPE
5
5
100
AcDbSymbolTable
0
LTYPE
5
14
100
AcDbSymbolTableRecord
100
AcDbLinetypeTableRecord
2
BYBLOCK
70
0
0
LTYPE
5
15
100
AcDbSymbolTableRecord
100
AcDbLinetypeTableRecord
2
BYLAYER
70
0
0
ENDTAB
0
TABLE
2
LAYER
5
2
100
AcDbSymbolTable
70
2
0
LAYER
5
50
100
AcDbSymbolTableRecord
100
AcDbLayerTableRecord
2
0
70
0
6
CONTINUOUS
0
ENDTAB
0
TABLE
2
STYLE
5
3
100
AcDbSymbolTable
70
1
0
STYLE
5
11
100
AcDbSymbolTableRecord
100
AcDbTextStyleTableRecord
2
STANDARD
70
0
0
ENDTAB
0
TABLE
2
VIEW
5
6
100
AcDbSymbolTable
70
0
0
ENDTAB
0
TABLE
2
UCS
5
7
100
AcDbSymbolTable
70
0
0
ENDTAB
0
TABLE
2
APPID
5
9
100
AcDbSymbolTable
70
2
0
APPID
5
12
100
AcDbSymbolTableRecord
100
AcDbRegAppTableRecord
2
ACAD
70
0
0
ENDTAB
0
TABLE
2
DIMSTYLE
5
A
100
AcDbSymbolTable
70
1
0
ENDTAB
0
TABLE
2
BLOCK_RECORD
5
1
100
AcDbSymbolTable
70
1
0
BLOCK_RECORD
5
1F
100
AcDbSymbolTableRecord
100
AcDbBlockTableRecord
2
*MODEL_SPACE
0
BLOCK_RECORD
5
1B
100
AcDbSymbolTableRecord
100
AcDbBlockTableRecord
2
*PAPER_SPACE
0
ENDTAB
0
ENDSEC
0
SECTION
2
BLOCKS
0
BLOCK
5
20
100
AcDbEntity
100
AcDbBlockBegin
2
*MODEL_SPACE
0
ENDBLK
5
21
100
AcDbEntity
100
AcDbBlockEnd
0
BLOCK
5
1C
100
AcDbEntity
100
AcDbBlockBegin
2
*PAPER_SPACE
0
ENDBLK
5
1D
100
AcDbEntity
100
AcDbBlockEnd
0
ENDSEC
0
SECTION
2
ENTITIES
0
CIRCLE
5
100
100
AcDbEntity
8
0
100
AcDbCircle
10
385.90368693960733
20
-129.70932846147045
30
0
40
1.625
210
0
220
-0
230
1
0
CIRCLE
5
101
100
AcDbEntity
8
0
100
AcDbCircle
10
346.11571311236321
20
-131.8273272659643
30
0
40
1.625
210
0
220
-0
230
1
0
CIRCLE
5
102
100
AcDbEntity
8
0
100
AcDbCircle
10
314.06166383038334
20
-21.074967707289531
30
0
40
1.625
210
0
220
-0
230
1
0
CIRCLE
5
103
100
AcDbEntity
8
0
100
AcDbCircle
10
234.66236495257306
20
-22.075010772471401
30
0
40
1.625
210
0
220
-0
230
1
0
CIRCLE
5
104
100
AcDbEntity
8
0
100
AcDbCircle
10
272.45432857501947
20
-21.074967707289531
30
0
40
1.625
210
0
220
-0
230
1
0
CIRCLE
5
105
100
AcDbEntity
8
0
100
AcDbCircle
10
388.0250072831667
20
-76.199981950314282
30
0
40
1.625
210
0
220
-0
230
1
0
CIRCLE
5
106
100
AcDbEntity
8
0
100
AcDbCircle
10
273.29709586382813
20
-131.83064880503059
30
0
40
1.625
210
0
220
-0
230
1
0
CIRCLE
5
107
100
AcDbEntity
8
0
100
AcDbCircle
10
385.88862591196374
20
-23.184721868330065
30
0
40
1.625
210
0
220
-0
230
1
0
LINE
5
108
100
AcDbEntity
8
0
100
AcDbLine
10
232.6557436799165
20
-138.82489200822957
30
0
11
384.02500728316676
21
-138.8248920082296
31
0
0
SPLINE
5
109
100
AcDbEntity
8
0
100
AcDbSpline
70
0
71
3
72
14
73
10
74
0
42
0.000000001
43
0.0000000001
44
0.0000000001
40
14
40
14
40
14
40
14
40
14.405623453170115
40
14.405623453170115
40
14.405623453170115
40
14.855637974279666
40
14.855637974279666
40
14.855637974279666
40
15
40
15
40
15
40
15
10
384.02500728316676
20
-138.8248920082296
30
0
10
386.45044588773288
20
-138.8248920082296
30
0
10
388.7778701076478
20
-138.00385678418618
30
0
10
390.60209215617795
20
-136.64233326429442
30
0
10
392.63191874257814
20
-135.12735506253864
30
0
10
394.12083662252252
20
-132.92801223616277
30
0
10
394.72826494319202
20
-130.36656993554212
30
0
10
394.92288258552503
20
-129.54589390751377
30
0
10
395.02499999285641
20
-128.68935098002873
30
0
10
395.02499999285641
20
-127.82489929853986
30
0
0
LINE
5
110
100
AcDbEntity
8
0
100
AcDbLine
10
395.02499999285641
20
-127.82489929853986
30
0
11
395.02499999285641
21
-24.57500000654802
31
0
0
SPLINE
5
111
100
AcDbEntity
8
0
100
AcDbSpline
70
0
71
3
72
14
73
10
74
0
42
0.000000001
43
0.0000000001
44
0.0000000001
40
16
40
16
40
16
40
16
40
16.405623453169813
40
16.405623453169813
40
16.405623453169813
40
16.855637974279549
40
16.855637974279549
40
16.855637974279549
40
17
40
17
40
17
40
17
10
395.02499999285641
20
-24.57500000654802
30
0
10
395.02499999285641
20
-22.149561401983142
30
0
10
394.20396476881388
20
-19.822137182070016
30
0
10
392.84244124892382
20
-17.997915133540637
30
0
10
391.32746304716818
20
-15.968088547138926
30
0
10
389.12812022079254
20
-14.479170667193578
30
0
10
386.56667792017089
20
-13.871742346523273
30
0
10
385.74600189214198
20
-13.677124704189872
30
0
10
384.88945896465634
20
-13.575007296858363
30
0
10
384.02500728316676
20
-13.575007296858363
30
0
0
LINE
5
112
100
AcDbEntity
8
0
100
AcDbLine
10
384.02500728316676
20
-13.575007296858363
30
0
11
227.89324367991645
21
-13.575007296858363
31
0
0
ARC
5
113
100
AcDbEntity
8
0
100
AcDbCircle
10
229.62529448748535
20
-14.575007296858342
30
0
40
1.9999999999999813
210
0
220
0
230
1
100
AcDbArc
50
150.0000000000008
51
180
0
LINE
5
114
100
AcDbEntity
8
0
100
AcDbLine
10
227.62529448748535
20
-14.575007296858363
30
0
11
227.62529448748535
21
-28.575014248084436
31
0
0
LINE
5
115
100
AcDbEntity
8
0
100
AcDbLine
10
227.62529448748535
20
-28.575014248084436
30
0
11
379.02501457347734
21
-28.575014248084436
31
0
0
SPLINE
5
116
100
AcDbEntity
8
0
100
AcDbSpline
70
0
71
3
72
8
73
4
74
0
42
0.000000001
43
0.0000000001
44
0.0000000001
40
5
40
5
40
5
40
5
40
6
40
6
40
6
40
6
10
379.02501457347734
20
-28.575014248084436
30
0
10
379.57729932330778
20
-28.575014248084436
30
0
10
380.02501457347705
20
-29.022729498253508
30
0
10
380.02501457347705
20
-29.575014248084237
30
0
0
LINE
5
117
100
AcDbEntity
8
0
100
AcDbLine
10
380.02501457347711
20
-29.575014248084237
30
0
11
380.02501457347705
21
-122.82501424808503
31
0
0
SPLINE
5
118
100
AcDbEntity
8
0
100
AcDbSpline
70
0
71
3
72
8
73
4
74
0
42
0.000000001
43
0.0000000001
44
0.0000000001
40
7
40
7
40
7
40
7
40
8
40
8
40
8
40
8
10
380.02501457347705
20
-122.82501424808503
30
0
10
380.02501457347705
20
-123.37729899791478
30
0
10
379.57729932330778
20
-123.82501424808412
30
0
10
379.02501457347734
20
-123.82501424808412
30
0
0
LINE
5
119
100
AcDbEntity
8
0
100
AcDbLine
10
379.02501457347734
20
-123.82501424808412
30
0
11
232.38779448748534
21
-123.82501424808412
31
0
0
LINE
5
120
100
AcDbEntity
8
0
100
AcDbLine
10
232.38779448748534
20
-123.82501424808412
30
0
11
232.38779448748539
21
-137.8248920082296
31
0
0
ARC
5
121
100
AcDbEntity
8
0
100
AcDbCircle
10
234.38779448748534
20
-137.82489200822963
30
0
40
1.9999999999999574
210
0
220
0
230
1
100
AcDbArc
50
180
51
209.99999999999915
0
ENDSEC
0
SECTION
2
OBJECTS
0
DICTIONARY
5
C
100
AcDbDictionary
3
ACAD_GROUP
350
D
3
ACAD_MLINESTYLE
350
17
0
DICTIONARY
5
D
100
AcDbDictionary
0
DICTIONARY
5
1A
330
C
100
AcDbDictionary
0
DICTIONARY
5
17
100
AcDbDictionary
0
ENDSEC
0
EOF
