0
SECTION
2
HEADER
9
$INSUNITS
70
4
9
$ACADVER
1
AC1014
9
$HANDSEED
5
FFFF
0
ENDSEC
0
SECTION
2
TABLES
0
TABLE
2
VPORT
5
8
100
AcDbSymbolTable
0
ENDTAB
0
TABLE
2
LTYPE
5
5
100
AcDbSymbolTable
0
LTYPE
5
14
100
AcDbSymbolTableRecord
100
AcDbLinetypeTableRecord
2
BYBLOCK
70
0
0
LTYPE
5
15
100
AcDbSymbolTableRecord
100
AcDbLinetypeTableRecord
2
BYLAYER
70
0
0
ENDTAB
0
TABLE
2
LAYER
5
2
100
AcDbSymbolTable
70
2
0
LAYER
5
50
100
AcDbSymbolTableRecord
100
AcDbLayerTableRecord
2
0
70
0
6
CONTINUOUS
0
ENDTAB
0
TABLE
2
STYLE
5
3
100
AcDbSymbolTable
70
1
0
STYLE
5
11
100
AcDbSymbolTableRecord
100
AcDbTextStyleTableRecord
2
STANDARD
70
0
0
ENDTAB
0
TABLE
2
VIEW
5
6
100
AcDbSymbolTable
70
0
0
ENDTAB
0
TABLE
2
UCS
5
7
100
AcDbSymbolTable
70
0
0
ENDTAB
0
TABLE
2
APPID
5
9
100
AcDbSymbolTable
70
2
0
APPID
5
12
100
AcDbSymbolTableRecord
100
AcDbRegAppTableRecord
2
ACAD
70
0
0
ENDTAB
0
TABLE
2
DIMSTYLE
5
A
100
AcDbSymbolTable
70
1
0
ENDTAB
0
TABLE
2
BLOCK_RECORD
5
1
100
AcDbSymbolTable
70
1
0
BLOCK_RECORD
5
1F
100
AcDbSymbolTableRecord
100
AcDbBlockTableRecord
2
*MODEL_SPACE
0
BLOCK_RECORD
5
1B
100
AcDbSymbolTableRecord
100
AcDbBlockTableRecord
2
*PAPER_SPACE
0
ENDTAB
0
ENDSEC
0
SECTION
2
BLOCKS
0
BLOCK
5
20
100
AcDbEntity
100
AcDbBlockBegin
2
*MODEL_SPACE
0
ENDBLK
5
21
100
AcDbEntity
100
AcDbBlockEnd
0
BLOCK
5
1C
100
AcDbEntity
100
AcDbBlockBegin
2
*PAPER_SPACE
0
ENDBLK
5
1D
100
AcDbEntity
100
AcDbBlockEnd
0
ENDSEC
0
SECTION
2
ENTITIES
0
SPLINE
5
100
100
AcDbEntity
8
0
100
AcDbSpline
70
0
71
3
72
43
73
39
74
0
42
0.000000001
43
0.0000000001
44
0.0000000001
40
0.13161160844214731
40
0.13161160844214731
40
0.13161160844214731
40
0.13161160844214731
40
0.13251670308647964
40
0.13251670308647964
40
0.19817029766410238
40
0.19817029766410238
40
0.26427786702582845
40
0.26427786702582845
40
0.33307962617783587
40
0.33307962617783587
40
0.40339196760430884
40
0.40339196760430884
40
0.47225018910624805
40
0.47225018910624805
40
0.54134911441003175
40
0.54134911441003175
40
0.61328738693677876
40
0.61328738693677876
40
0.68681753857911199
40
0.68681753857911199
40
0.75880380804395076
40
0.75880380804395076
40
0.8307925973667436
40
0.8307925973667436
40
0.90575829155099163
40
0.90575829155099163
40
0.9824019801529299
40
0.9824019801529299
40
1.0508216519509792
40
1.0508216519509792
40
1.0866388032993155
40
1.0866388032993155
40
1.1223244854211145
40
1.1223244854211145
40
1.1223244854211145
40
1.187857893139102
40
1.187857893139102
40
1.2539360938632618
40
1.2539360938632618
40
1.2539360938632618
40
1.2539360938632618
10
384.97503610532357
20
-127.12492811772103
30
0
10
384.97503610512462
20
-127.1278763123177
30
0
10
384.97502837309617
20
-127.13082485132212
30
0
10
384.97389007612105
20
-127.34767737100084
30
0
10
384.93205097422469
20
-127.55644237951408
30
0
10
384.77114193190982
20
-127.94807667805728
30
0
10
384.6534227496611
20
-128.12590364360483
30
0
10
384.35471265651813
20
-128.43254918544358
30
0
10
384.17369879870432
20
-128.55668399963264
30
0
10
383.77262344744855
20
-128.72885258540313
30
0
10
383.55703145761208
20
-128.77311323391905
30
0
10
383.12470921526398
20
-128.77659723013247
30
0
10
382.91462337257303
20
-128.73751846610179
30
0
10
382.52063180432918
20
-128.58154565930431
30
0
10
382.34148705425798
20
-128.46626226451139
30
0
10
382.03119704236917
20
-128.17181828101661
30
0
10
381.90474769309026
20
-127.99255553396827
30
0
10
381.72729055338402
20
-127.59406629293446
30
0
10
381.68008721392602
20
-127.37915043276101
30
0
10
381.67085125197923
20
-126.94721132776883
30
0
10
381.70715467499497
20
-126.73565884259804
30
0
10
381.85817845688263
20
-126.33934868406321
30
0
10
381.97102046159216
20
-126.15891626440997
30
0
10
382.26116909969727
20
-125.84505262951569
30
0
10
382.43864979764027
20
-125.71632754283662
30
0
10
382.83449386410484
20
-125.53363390626239
30
0
10
383.04870667119667
20
-125.48350436025194
30
0
10
383.4614550380565
20
-125.46918220472446
30
0
10
383.67599692490069
20
-125.49576328532906
30
0
10
384.00624385828382
20
-125.61678159776315
30
0
10
384.11404194814577
20
-125.6705319158024
30
0
10
384.31468568915113
20
-125.79920323663762
30
0
10
384.407650334864
20
-125.87408996938386
30
0
10
384.49176229426257
20
-125.95820192878253
30
0
10
384.64622601756798
20
-126.11266565208811
30
0
10
384.76801251959466
20
-126.29539543987156
30
0
10
384.93373358468966
20
-126.69628641733246
30
0
10
384.97503487965531
20
-126.90968941804883
30
0
10
384.97503610532357
20
-127.12492811772103
30
0
0
SPLINE
5
101
100
AcDbEntity
8
0
100
AcDbSpline
70
0
71
3
72
43
73
39
74
0
42
0.000000001
43
0.0000000001
44
0.0000000001
40
0.13161160844239186
40
0.13161160844239186
40
0.13161160844239186
40
0.13161160844239186
40
0.13251670308662722
40
0.13251670308662722
40
0.19817029766437907
40
0.19817029766437907
40
0.26427786702615974
40
0.26427786702615974
40
0.33307962617823461
40
0.33307962617823461
40
0.40339196760480445
40
0.40339196760480445
40
0.47225018910688737
40
0.47225018910688737
40
0.54134911441077616
40
0.54134911441077616
40
0.61328738693763407
40
0.61328738693763407
40
0.68681753858013217
40
0.68681753858013217
40
0.75880380804527703
40
0.75880380804527703
40
0.83079259736836353
40
0.83079259736836353
40
0.90575829155276133
40
0.90575829155276133
40
0.98240198015475333
40
0.98240198015475333
40
1.050821651952859
40
1.050821651952859
40
1.0866388033012049
40
1.0866388033012049
40
1.1223244854229115
40
1.1223244854229115
40
1.1223244854229115
40
1.1878578931409596
40
1.1878578931409596
40
1.2539360938653035
40
1.2539360938653035
40
1.2539360938653035
40
1.2539360938653035
10
257.30066094733758
20
-24.57489576722633
30
0
10
257.30066094713862
20
-24.577843961822676
30
0
10
257.30065321511017
20
-24.580792500826778
30
0
10
257.29951491813517
20
-24.797645020505325
30
0
10
257.25767581623893
20
-25.006410029018738
30
0
10
257.09676677392429
20
-25.39804432756203
30
0
10
256.97904759167574
20
-25.575871293109547
30
0
10
256.68033749853282
20
-25.882516834948603
30
0
10
256.49932364071907
20
-26.006651649137694
30
0
10
256.09824828946336
20
-26.17882023490845
30
0
10
255.88265629962675
20
-26.223080883424508
30
0
10
255.45033405727827
20
-26.226564879638246
30
0
10
255.24024821458752
20
-26.187486115607648
30
0
10
254.84625664634379
20
-26.031513308810347
30
0
10
254.66711189627247
20
-25.916229914017489
30
0
10
254.35682188438369
20
-25.621785930522858
30
0
10
254.23037253510475
20
-25.442523183474599
30
0
10
254.05291539539826
20
-25.044033942440834
30
0
10
254.00571205594005
20
-24.829118082267314
30
0
10
253.99647609399307
20
-24.397178977274177
30
0
10
254.032779517009
20
-24.18562649210358
30
0
10
254.18380329889635
20
-23.789316333568951
30
0
10
254.29664530360554
20
-23.608883913915733
30
0
10
254.58679394171099
20
-23.295020279021003
30
0
10
254.76427463965399
20
-23.166295192341927
30
0
10
255.16011870611828
20
-22.983601555767805
30
0
10
255.37433151320985
20
-22.93347200975726
30
0
10
255.78707988006994
20
-22.919149854229758
30
0
10
256.00162176691424
20
-22.945730934834394
30
0
10
256.33186870029709
20
-23.066749247268238
30
0
10
256.43966679015904
20
-23.120499565307256
30
0
10
256.64031053116491
20
-23.249170886142714
30
0
10
256.7332751768779
20
-23.324057618889089
30
0
10
256.8173871362763
20
-23.408169578287506
30
0
10
256.97185085958199
20
-23.562633301593156
30
0
10
257.09363736160833
20
-23.745363089376387
30
0
10
257.25935842670356
20
-24.146254066837216
30
0
10
257.30065972166938
20
-24.359657067553794
30
0
10
257.30066094733758
20
-24.574895767226344
30
0
0
SPLINE
5
102
100
AcDbEntity
8
0
100
AcDbSpline
70
0
71
3
72
43
73
39
74
0
42
0.000000001
43
0.0000000001
44
0.0000000001
40
0.13161160844288444
40
0.13161160844288444
40
0.13161160844288444
40
0.13161160844288444
40
0.1325167030870697
40
0.1325167030870697
40
0.19817029766523059
40
0.19817029766523059
40
0.2642778670275826
40
0.2642778670275826
40
0.33307962618048065
40
0.33307962618048065
40
0.40339196760811935
40
0.40339196760811935
40
0.47225018911148048
40
0.47225018911148048
40
0.54134911441678235
40
0.54134911441678235
40
0.61328738694539175
40
0.61328738694539175
40
0.68681753858993599
40
0.68681753858993599
40
0.75880380805740644
40
0.75880380805740644
40
0.83079259738296196
40
0.83079259738296196
40
0.90575829157008891
40
0.90575829157008891
40
0.98240198017496949
40
0.98240198017496949
40
1.0508216519742013
40
1.0508216519742013
40
1.0866388033226295
40
1.0866388033226295
40
1.1223244854444392
40
1.1223244854444392
40
1.1223244854444392
40
1.1878578931626302
40
1.1878578931626302
40
1.2539360938873236
40
1.2539360938873236
40
1.2539360938873236
40
1.2539360938873236
10
332.51533145806582
20
-24.574895767226344
30
0
10
332.51533145786681
20
-24.577843961822502
30
0
10
332.51532372583836
20
-24.580792500826423
30
0
10
332.51418542886347
20
-24.797645020505087
30
0
10
332.47234632696717
20
-25.006410029018689
30
0
10
332.31143728465247
20
-25.398044327562346
30
0
10
332.19371810240369
20
-25.575871293109916
30
0
10
331.89500800926135
20
-25.882516834948539
30
0
10
331.71399415144765
20
-26.006651649137673
30
0
10
331.31291880019182
20
-26.178820234908674
30
0
10
331.09732681035501
20
-26.223080883424714
30
0
10
330.6650045680064
20
-26.226564879638691
30
0
10
330.45491872531568
20
-26.18748611560806
30
0
10
330.060927157072
20
-26.03151330881078
30
0
10
329.8817824070008
20
-25.916229914017809
30
0
10
329.57149239511216
20
-25.621785930523473
30
0
10
329.44504304583319
20
-25.442523183475132
30
0
10
329.26758590612644
20
-25.044033942441114
30
0
10
329.22038256666838
20
-24.829118082267321
30
0
10
329.21114660472131
20
-24.397178977274049
30
0
10
329.24745002773733
20
-24.185626492103598
30
0
10
329.39847380962453
20
-23.789316333569104
30
0
10
329.51131581433356
20
-23.608883913915989
30
0
10
329.80146445243946
20
-23.295020279020694
30
0
10
329.97894515038263
20
-23.166295192341732
30
0
10
330.37478921684669
20
-22.983601555767706
30
0
10
330.58900202393801
20
-22.933472009757221
30
0
10
331.00175039079346
20
-22.919149854229929
30
0
10
331.21629227763833
20
-22.94573093483308
30
0
10
331.54653921102488
20
-23.066749247268184
30
0
10
331.65433730088694
20
-23.120499565307249
30
0
10
331.85498104189264
20
-23.249170886142512
30
0
10
331.94794568760557
20
-23.324057618888745
30
0
10
332.03205764700431
20
-23.408169578287385
30
0
10
332.18652137031029
20
-23.56263330159333
30
0
10
332.30830787233651
20
-23.745363089376532
30
0
10
332.47402893743174
20
-24.146254066837194
30
0
10
332.51533023239756
20
-24.359657067553712
30
0
10
332.51533145806582
20
-24.574895767226344
30
0
0
SPLINE
5
103
100
AcDbEntity
8
0
100
AcDbSpline
70
0
71
3
72
43
73
39
74
0
42
0.000000001
43
0.0000000001
44
0.0000000001
40
0.13161160844285458
40
0.13161160844285458
40
0.13161160844285458
40
0.13161160844285458
40
0.13251670308708641
40
0.13251670308708641
40
0.19817029766542371
40
0.19817029766542371
40
0.26427786702799871
40
0.26427786702799871
40
0.33307962618118903
40
0.33307962618118903
40
0.40339196760908691
40
0.40339196760908691
40
0.47225018911261768
40
0.47225018911261768
40
0.54134911441811029
40
0.54134911441811029
40
0.61328738694686413
40
0.61328738694686413
40
0.6868175385916051
40
0.6868175385916051
40
0.75880380805909542
40
0.75880380805909542
40
0.83079259738471223
40
0.83079259738471223
40
0.90575829157190146
40
0.90575829157190146
40
0.98240198017682645
40
0.98240198017682645
40
1.0508216519760136
40
1.0508216519760136
40
1.086638803324369
40
1.086638803324369
40
1.1223244854461523
40
1.1223244854461523
40
1.1223244854461523
40
1.1878578931643109
40
1.1878578931643109
40
1.2539360938890067
40
1.2539360938890067
40
1.2539360938890067
40
1.2539360938890067
10
311.53756845581876
20
-127.82496046821527
30
0
10
311.53756845561975
20
-127.82790866281159
30
0
10
311.53756072359135
20
-127.83085720181563
30
0
10
311.53642242661641
20
-128.0477097214943
30
0
10
311.49458332472
20
-128.2564747300076
30
0
10
311.33367428240552
20
-128.64810902855072
30
0
10
311.21595510015698
20
-128.82593599409805
30
0
10
310.91724500701395
20
-129.13258153593725
30
0
10
310.73623114920008
20
-129.25671635012623
30
0
10
310.33515579794437
20
-129.42888493589703
30
0
10
310.11956380810778
20
-129.47314558441315
30
0
10
309.68724156575871
20
-129.47662958062699
30
0
10
309.47715572306811
20
-129.43755081659629
30
0
10
309.08316415482443
20
-129.28157800979886
30
0
10
308.90401940475323
20
-129.16629461500591
30
0
10
308.59372939286453
20
-128.87185063151122
30
0
10
308.46728004358567
20
-128.69258788446285
30
0
10
308.2898229038791
20
-128.29409864342884
30
0
10
308.2426195644212
20
-128.07918278325505
30
0
10
308.23338360247436
20
-127.6472436782629
30
0
10
308.26968702549033
20
-127.43569119309223
30
0
10
308.4207108073777
20
-127.03938103455758
30
0
10
308.53355281208695
20
-126.85894861490446
30
0
10
308.82370145019263
20
-126.54508498000951
30
0
10
309.00118214813591
20
-126.41635989333037
30
0
10
309.39702621460026
20
-126.23366625675636
30
0
10
309.61123902169174
20
-126.18353671074603
30
0
10
310.02398738854657
20
-126.16921455521891
30
0
10
310.23852927539133
20
-126.19579563582199
30
0
10
310.56877620877822
20
-126.31681394825732
30
0
10
310.67657429864022
20
-126.37056426629644
30
0
10
310.87721803964564
20
-126.49923558713155
30
0
10
310.97018268535851
20
-126.5741223198777
30
0
10
311.05429464475714
20
-126.65823427927627
30
0
10
311.20875836806306
20
-126.81269800258214
30
0
10
311.33054487008951
20
-126.99542779036547
30
0
10
311.49626593518491
20
-127.39631876782653
30
0
10
311.5375672301505
20
-127.60972176854332
30
0
10
311.53756845581876
20
-127.82496046821527
30
0
0
SPLINE
5
104
100
AcDbEntity
8
0
100
AcDbSpline
70
0
71
3
72
43
73
39
74
0
42
0.000000001
43
0.0000000001
44
0.0000000001
40
0.13161160844213057
40
0.13161160844213057
40
0.13161160844213057
40
0.13161160844213057
40
0.1325167030863913
40
0.1325167030863913
40
0.19817029766402181
40
0.19817029766402181
40
0.26427786702560657
40
0.26427786702560657
40
0.33307962617740816
40
0.33307962617740816
40
0.40339196760353385
40
0.40339196760353385
40
0.47225018910498878
40
0.47225018910498878
40
0.5413491144082142
40
0.5413491144082142
40
0.61328738693430895
40
0.61328738693430895
40
0.68681753857595051
40
0.68681753857595051
40
0.75880380804023162
40
0.75880380804023162
40
0.83079259736231048
40
0.83079259736231048
40
0.90575829154548559
40
0.90575829154548559
40
0.98240198014622515
40
0.98240198014622515
40
1.0508216519440814
40
1.0508216519440814
40
1.086638803292596
40
1.086638803292596
40
1.1223244854144447
40
1.1223244854144447
40
1.1223244854144447
40
1.1878578931323656
40
1.1878578931323656
40
1.2539360938565753
40
1.2539360938565753
40
1.2539360938565753
40
1.2539360938565753
10
384.97503610532357
20
-25.274928117720602
30
0
10
384.97503610512456
20
-25.277876312317051
30
0
10
384.97502837309611
20
-25.280824851321235
30
0
10
384.97389007612117
20
-25.49767737099948
30
0
10
384.93205097422492
20
-25.706442379512943
30
0
10
384.77114193191028
20
-26.098076678056181
30
0
10
384.65342274966184
20
-26.275903643603691
30
0
10
384.35471265651864
20
-26.582549185442993
30
0
10
384.17369879870483
20
-26.706683999632151
30
0
10
383.77262344744918
20
-26.878852585402775
30
0
10
383.55703145761282
20
-26.923113233918844
30
0
10
383.12470921526494
20
-26.926597230132437
30
0
10
382.914623372574
20
-26.887518466101913
30
0
10
382.52063180433026
20
-26.73154565930469
30
0
10
382.34148705425889
20
-26.616262264511906
30
0
10
382.03119704236985
20
-26.321818281017123
30
0
10
381.90474769309094
20
-26.142555533968878
30
0
10
381.72729055338431
20
-25.744066292935194
30
0
10
381.68008721392602
20
-25.529150432761718
30
0
10
381.670851251979
20
-25.097211327768573
30
0
10
381.70715467499491
20
-24.885658842597849
30
0
10
381.85817845688206
20
-24.489348684063472
30
0
10
381.97102046159091
20
-24.308916264410488
30
0
10
382.26116909969642
20
-23.995052629515634
30
0
10
382.43864979763941
20
-23.866327542836487
30
0
10
382.83449386410382
20
-23.683633906262212
30
0
10
383.04870667119565
20
-23.633504360251621
30
0
10
383.46145503805843
20
-23.619182204723877
30
0
10
383.67599692490251
20
-23.645763285329298
30
0
10
384.0062438582836
20
-23.766781597762513
30
0
10
384.1140419481456
20
-23.820531915801592
30
0
10
384.31468568915113
20
-23.949203236636919
30
0
10
384.407650334864
20
-24.024089969383077
30
0
10
384.49176229426268
20
-24.108201928781867
30
0
10
384.64622601756798
20
-24.262665652087271
30
0
10
384.76801251959449
20
-24.445395439870509
30
0
10
384.93373358468966
20
-24.846286417331569
30
0
10
384.97503487965531
20
-25.059689418048485
30
0
10
384.97503610532357
20
-25.274928117720616
30
0
0
SPLINE
5
105
100
AcDbEntity
8
0
100
AcDbSpline
70
0
71
3
72
43
73
39
74
0
42
0.000000001
43
0.0000000001
44
0.0000000001
40
0.13161160844261838
40
0.13161160844261838
40
0.13161160844261838
40
0.13161160844261838
40
0.13251670308686758
40
0.13251670308686758
40
0.19817029766475852
40
0.19817029766475852
40
0.26427786702675654
40
0.26427786702675654
40
0.33307962617915021
40
0.33307962617915021
40
0.40339196760613172
40
0.40339196760613172
40
0.47225018910869349
40
0.47225018910869349
40
0.54134911441315114
40
0.54134911441315114
40
0.61328738694073492
40
0.61328738694073492
40
0.68681753858414374
40
0.68681753858414374
40
0.75880380805049907
40
0.75880380805049907
40
0.83079259737486688
40
0.83079259737486688
40
0.90575829156060783
40
0.90575829156060783
40
0.98240198016408509
40
0.98240198016408509
40
1.0508216519626477
40
1.0508216519626477
40
1.086638803310896
40
1.086638803310896
40
1.1223244854326295
40
1.1223244854326295
40
1.1223244854326295
40
1.1878578931507597
40
1.1878578931507597
40
1.253936093875248
40
1.253936093875248
40
1.253936093875248
40
1.253936093875248
10
233.27503610532344
20
-24.574895767226316
30
0
10
233.27503610512449
20
-24.577843961822715
30
0
10
233.27502837309601
20
-24.58079250082686
30
0
10
233.27389007612101
20
-24.797645020505531
30
0
10
233.23205097422465
20
-25.006410029019051
30
0
10
233.07114193190989
20
-25.398044327562467
30
0
10
232.95342274966123
20
-25.575871293109937
30
0
10
232.65471265651829
20
-25.882516834948859
30
0
10
232.47369879870448
20
-26.006651649137943
30
0
10
232.07262344744859
20
-26.178820234908645
30
0
10
231.85703145761195
20
-26.223080883424576
30
0
10
231.42470921526359
20
-26.2265648796382
30
0
10
231.21462337257276
20
-26.187486115607534
30
0
10
230.820631804329
20
-26.031513308810048
30
0
10
230.64148705425771
20
-25.916229914016991
30
0
10
230.33119704236924
20
-25.621785930522481
30
0
10
230.2047476930903
20
-25.442523183474101
30
0
10
230.02729055338366
20
-25.044033942439938
30
0
10
229.9800872139258
20
-24.82911808226612
30
0
10
229.97085125197896
20
-24.397178977273136
30
0
10
230.00715467499509
20
-24.18562649210271
30
0
10
230.15817845688244
20
-23.789316333568497
30
0
10
230.27102046159143
20
-23.608883913915513
30
0
10
230.56116909969734
20
-23.295020279020491
30
0
10
230.73864979764051
20
-23.166295192341536
30
0
10
231.13449386410483
20
-22.983601555767549
30
0
10
231.34870667119645
20
-22.93347200975715
30
0
10
231.76145503805375
20
-22.9191498542299
30
0
10
231.97599692489837
20
-22.945730934833676
30
0
10
232.30624385828361
20
-23.066749247268522
30
0
10
232.41404194814555
20
-23.120499565307703
30
0
10
232.6146856891508
20
-23.249170886142782
30
0
10
232.70765033486362
20
-23.324057618888997
30
0
10
232.79176229426213
20
-23.408169578287481
30
0
10
232.94622601756797
20
-23.562633301593326
30
0
10
233.06801251959428
20
-23.745363089376607
30
0
10
233.23373358468939
20
-24.146254066837326
30
0
10
233.27503487965521
20
-24.359657067553716
30
0
10
233.27503610532344
20
-24.574895767226316
30
0
0
SPLINE
5
106
100
AcDbEntity
8
0
100
AcDbSpline
70
0
71
3
72
43
73
39
74
0
42
0.000000001
43
0.0000000001
44
0.0000000001
40
0.13161160844265124
40
0.13161160844265124
40
0.13161160844265124
40
0.13161160844265124
40
0.13251670308684224
40
0.13251670308684224
40
0.19817029766476954
40
0.19817029766476954
40
0.26427786702685285
40
0.26427786702685285
40
0.33307962617951054
40
0.33307962617951054
40
0.40339196760684976
40
0.40339196760684976
40
0.47225018910984073
40
0.47225018910984073
40
0.54134911441467592
40
0.54134911441467592
40
0.61328738694260299
40
0.61328738694260299
40
0.68681753858637529
40
0.68681753858637529
40
0.75880380805298431
40
0.75880380805298431
40
0.83079259737762035
40
0.83079259737762035
40
0.90575829156362775
40
0.90575829156362775
40
0.98240198016735913
40
0.98240198016735913
40
1.0508216519659181
40
1.0508216519659181
40
1.0866388033140766
40
1.0866388033140766
40
1.1223244854356971
40
1.1223244854356971
40
1.1223244854356971
40
1.1878578931538297
40
1.1878578931538297
40
1.2539360938783484
40
1.2539360938783484
40
1.2539360938783484
40
1.2539360938783484
10
354.63475533075615
20
-24.574895767226302
30
0
10
354.6347553305572
20
-24.577843961822531
30
0
10
354.6347475985288
20
-24.580792500826483
30
0
10
354.63360930155386
20
-24.797645020505428
30
0
10
354.59177019965745
20
-25.006410029018937
30
0
10
354.4308611573428
20
-25.398044327562374
30
0
10
354.31314197509408
20
-25.575871293109891
30
0
10
354.01443188195151
20
-25.882516834948728
30
0
10
353.83341802413781
20
-26.006651649137705
30
0
10
353.43234267288216
20
-26.178820234908592
30
0
10
353.21675068304552
20
-26.223080883424718
30
0
10
352.7844284406965
20
-26.22656487963868
30
0
10
352.57434259800596
20
-26.187486115608042
30
0
10
352.18035102976245
20
-26.031513308810823
30
0
10
352.00120627969136
20
-25.91622991401815
30
0
10
351.69091626780238
20
-25.621785930523334
30
0
10
351.56446691852341
20
-25.442523183474918
30
0
10
351.38700977881672
20
-25.044033942440834
30
0
10
351.33980643935865
20
-24.829118082267069
30
0
10
351.3305704774117
20
-24.397178977273736
30
0
10
351.36687390042772
20
-24.185626492103303
30
0
10
351.51789768231504
20
-23.789316333568948
30
0
10
351.630739687024
20
-23.608883913915882
30
0
10
351.92088832512985
20
-23.295020279020697
30
0
10
352.09836902307308
20
-23.166295192341579
30
0
10
352.49421308953748
20
-22.983601555767457
30
0
10
352.70842589662902
20
-22.933472009757132
30
0
10
353.12117426348505
20
-22.919149854229943
30
0
10
353.3357161503298
20
-22.945730934833438
30
0
10
353.66596308371555
20
-23.066749247268341
30
0
10
353.7737611735775
20
-23.120499565307409
30
0
10
353.97440491458326
20
-23.249170886142711
30
0
10
354.06736956029619
20
-23.324057618889142
30
0
10
354.15148151969447
20
-23.408169578287328
30
0
10
354.30594524300039
20
-23.562633301593117
30
0
10
354.42773174502679
20
-23.745363089376337
30
0
10
354.59345281012196
20
-24.146254066836995
30
0
10
354.63475410508801
20
-24.359657067553286
30
0
10
354.63475533075615
20
-24.57489576722633
30
0
0
SPLINE
5
107
100
AcDbEntity
8
0
100
AcDbSpline
70
0
71
3
72
43
73
39
74
0
42
0.000000001
43
0.0000000001
44
0.0000000001
40
0.13161160844268974
40
0.13161160844268974
40
0.13161160844268974
40
0.13161160844268974
40
0.13251670308697447
40
0.13251670308697447
40
0.19817029766525268
40
0.19817029766525268
40
0.26427786702780254
40
0.26427786702780254
40
0.3330796261809203
40
0.3330796261809203
40
0.40339196760870866
40
0.40339196760870866
40
0.47225018911212863
40
0.47225018911212863
40
0.54134911441754641
40
0.54134911441754641
40
0.61328738694612117
40
0.61328738694612117
40
0.68681753859056849
40
0.68681753859056849
40
0.7588038080579701
40
0.7588038080579701
40
0.83079259738348898
40
0.83079259738348898
40
0.90575829157047771
40
0.90575829157047771
40
0.98240198017529723
40
0.98240198017529723
40
1.050821651974418
40
1.050821651974418
40
1.0866388033227601
40
1.0866388033227601
40
1.1223244854445751
40
1.1223244854445751
40
1.1223244854445751
40
1.1878578931627113
40
1.1878578931627113
40
1.2539360938872648
40
1.2539360938872648
40
1.2539360938872648
40
1.2539360938872648
10
238.03756845581816
20
-127.82496046821527
30
0
10
238.03756845561912
20
-127.82790866281175
30
0
10
238.03756072359073
20
-127.830857201816
30
0
10
238.0364224266157
20
-128.04770972149504
30
0
10
237.99458332471917
20
-128.25647473000816
30
0
10
237.83367428240464
20
-128.64810902855112
30
0
10
237.71595510015604
20
-128.82593599409853
30
0
10
237.41724500701309
20
-129.13258153593753
30
0
10
237.23623114919928
20
-129.25671635012651
30
0
10
236.83515579794357
20
-129.4288849358972
30
0
10
236.61956380810705
20
-129.4731455844132
30
0
10
236.18724156575834
20
-129.47662958062691
30
0
10
235.97715572306765
20
-129.43755081659614
30
0
10
235.58316415482406
20
-129.28157800979886
30
0
10
235.40401940475283
20
-129.166294615006
30
0
10
235.09372939286408
20
-128.87185063151134
30
0
10
234.96728004358513
20
-128.69258788446294
30
0
10
234.78982290387853
20
-128.29409864342898
30
0
10
234.74261956442061
20
-128.07918278325531
30
0
10
234.73338360247368
20
-127.64724367826233
30
0
10
234.76968702548984
20
-127.43569119309203
30
0
10
234.92071080737702
20
-127.03938103455795
30
0
10
235.03355281208587
20
-126.85894861490493
30
0
10
235.32370145019195
20
-126.54508498000959
30
0
10
235.50118214813509
20
-126.41635989333065
30
0
10
235.89702621459935
20
-126.23366625675658
30
0
10
236.11123902169095
20
-126.18353671074615
30
0
10
236.52398738854606
20
-126.16921455521889
30
0
10
236.73852927539085
20
-126.19579563582191
30
0
10
237.06877620877782
20
-126.31681394825728
30
0
10
237.17657429863991
20
-126.3705642662965
30
0
10
237.37721803964524
20
-126.49923558713164
30
0
10
237.47018268535814
20
-126.57412231987784
30
0
10
237.55429464475682
20
-126.65823427927651
30
0
10
237.70875836806266
20
-126.81269800258238
30
0
10
237.83054487008911
20
-126.9954277903658
30
0
10
237.99626593518428
20
-127.39631876782683
30
0
10
238.03756723014988
20
-127.60972176854339
30
0
10
238.03756845581816
20
-127.82496046821527
30
0
0
SPLINE
5
108
100
AcDbEntity
8
0
100
AcDbSpline
70
0
71
3
72
8
73
4
74
0
42
0.000000001
43
0.0000000001
44
0.0000000001
40
16
40
16
40
16
40
16
40
17
40
17
40
17
40
17
10
388.02499999285646
20
-24.57500000654802
30
0
10
388.02499999285646
20
-22.365865033552179
30
0
10
386.23414225616261
20
-20.575007296858363
30
0
10
384.02500728316676
20
-20.575007296858363
30
0
0
LINE
5
109
100
AcDbEntity
8
0
100
AcDbLine
10
384.02500728316681
20
-20.575007296858363
30
0
11
229.62530160825361
21
-20.575007296858363
31
0
0
SPLINE
5
110
100
AcDbEntity
8
0
100
AcDbSpline
70
0
71
3
72
8
73
4
74
0
42
0.000000001
43
0.0000000001
44
0.0000000001
40
1
40
1
40
1
40
1
40
2
40
2
40
2
40
2
10
229.62530160825361
20
-20.575007296858363
30
0
10
228.52072817590042
20
-20.575007296858363
30
0
10
227.62529448748535
20
-21.470440985273402
30
0
10
227.62529448748535
20
-22.57501441762658
30
0
0
LINE
5
111
100
AcDbEntity
8
0
100
AcDbLine
10
227.62529448748538
20
-22.57501441762658
30
0
11
227.62529448748535
21
-28.575014248084436
31
0
0
LINE
5
112
100
AcDbEntity
8
0
100
AcDbLine
10
227.62529448748535
20
-28.575014248084436
30
0
11
379.02501457347734
21
-28.575014248084436
31
0
0
SPLINE
5
113
100
AcDbEntity
8
0
100
AcDbSpline
70
0
71
3
72
8
73
4
74
0
42
0.000000001
43
0.0000000001
44
0.0000000001
40
5
40
5
40
5
40
5
40
6
40
6
40
6
40
6
10
379.02501457347734
20
-28.575014248084436
30
0
10
379.57729932330778
20
-28.575014248084436
30
0
10
380.02501457347705
20
-29.022729498253508
30
0
10
380.02501457347705
20
-29.575014248084237
30
0
0
LINE
5
114
100
AcDbEntity
8
0
100
AcDbLine
10
380.02501457347711
20
-29.575014248084237
30
0
11
380.02501457347705
21
-122.82501424808503
31
0
0
SPLINE
5
115
100
AcDbEntity
8
0
100
AcDbSpline
70
0
71
3
72
8
73
4
74
0
42
0.000000001
43
0.0000000001
44
0.0000000001
40
7
40
7
40
7
40
7
40
8
40
8
40
8
40
8
10
380.02501457347705
20
-122.82501424808503
30
0
10
380.02501457347705
20
-123.37729899791478
30
0
10
379.57729932330778
20
-123.82501424808412
30
0
10
379.02501457347734
20
-123.82501424808412
30
0
0
LINE
5
116
100
AcDbEntity
8
0
100
AcDbLine
10
379.02501457347734
20
-123.82501424808412
30
0
11
232.38779448748534
21
-123.82501424808412
31
0
0
LINE
5
117
100
AcDbEntity
8
0
100
AcDbLine
10
232.38779448748534
20
-123.82501424808412
30
0
11
232.38779448748534
21
-129.82488488746131
31
0
0
SPLINE
5
118
100
AcDbEntity
8
0
100
AcDbSpline
70
0
71
3
72
8
73
4
74
0
42
0.000000001
43
0.0000000001
44
0.0000000001
40
12
40
12
40
12
40
12
40
13
40
13
40
13
40
13
10
232.38779448748534
20
-129.82488488746131
30
0
10
232.38779448748534
20
-130.9294583198145
30
0
10
233.28322817590038
20
-131.8248920082296
30
0
10
234.3878016082536
20
-131.8248920082296
30
0
0
LINE
5
119
100
AcDbEntity
8
0
100
AcDbLine
10
234.3878016082536
20
-131.8248920082296
30
0
11
384.02500728316676
21
-131.8248920082296
31
0
0
SPLINE
5
120
100
AcDbEntity
8
0
100
AcDbSpline
70
0
71
3
72
8
73
4
74
0
42
0.000000001
43
0.0000000001
44
0.0000000001
40
14
40
14
40
14
40
14
40
15
40
15
40
15
40
15
10
384.02500728316676
20
-131.8248920082296
30
0
10
386.23414225616261
20
-131.8248920082296
30
0
10
388.02499999285646
20
-130.03403427153637
30
0
10
388.02499999285646
20
-127.82489929853986
30
0
0
LINE
5
121
100
AcDbEntity
8
0
100
AcDbLine
10
388.02499999285646
20
-127.82489929853986
30
0
11
388.02499999285646
21
-24.57500000654802
31
0
0
ENDSEC
0
SECTION
2
OBJECTS
0
DICTIONARY
5
C
100
AcDbDictionary
3
ACAD_GROUP
350
D
3
ACAD_MLINESTYLE
350
17
0
DICTIONARY
5
D
100
AcDbDictionary
0
DICTIONARY
5
1A
330
C
100
AcDbDictionary
0
DICTIONARY
5
17
100
AcDbDictionary
0
ENDSEC
0
EOF
