<?xml version="1.0" encoding="UTF-8" standalone="no"?>
<!-- Created with Inkscape (http://www.inkscape.org/) -->

<svg
   xmlns:dc="http://purl.org/dc/elements/1.1/"
   xmlns:cc="http://creativecommons.org/ns#"
   xmlns:rdf="http://www.w3.org/1999/02/22-rdf-syntax-ns#"
   xmlns:svg="http://www.w3.org/2000/svg"
   xmlns="http://www.w3.org/2000/svg"
   xmlns:sodipodi="http://sodipodi.sourceforge.net/DTD/sodipodi-0.dtd"
   xmlns:inkscape="http://www.inkscape.org/namespaces/inkscape"
   width="210mm"
   height="210mm"
   viewBox="0 0 210.00001 210"
   version="1.1"
   id="svg8"
   inkscape:version="0.92.4 (5da689c313, 2019-01-14)"
   sodipodi:docname="L5.svg">
  <defs
     id="defs2">
    <marker
       style="overflow:visible"
       refY="0"
       refX="0"
       orient="auto"
       id="DistanceX">
      <path
         id="path12"
         style="stroke:#000000;stroke-width:0.5"
         d="M 3,-3 -3,3 M 0,-5 V 5"
         inkscape:connector-curvature="0" />
    </marker>
    <pattern
       y="0"
       x="0"
       width="8"
       patternUnits="userSpaceOnUse"
       id="Hatch"
       height="8">
      <path
         id="path15"
         stroke-width="0.25"
         stroke="#000000"
         linecap="square"
         d="M8 4 l-4,4" />
      <path
         id="path17"
         stroke-width="0.25"
         stroke="#000000"
         linecap="square"
         d="M6 2 l-4,4" />
      <path
         id="path19"
         stroke-width="0.25"
         stroke="#000000"
         linecap="square"
         d="M4 0 l-4,4" />
    </pattern>
    <symbol
       id="*MODEL_SPACE" />
    <symbol
       id="*PAPER_SPACE" />
    <marker
       style="overflow:visible"
       refY="0"
       refX="0"
       orient="auto"
       id="DistanceX-6">
      <path
         id="path111"
         style="stroke:#000000;stroke-width:0.5"
         d="M 3,-3 -3,3 M 0,-5 V 5"
         inkscape:connector-curvature="0" />
    </marker>
    <pattern
       y="0"
       x="0"
       width="8"
       patternUnits="userSpaceOnUse"
       id="Hatch-4"
       height="8">
      <path
         id="path114"
         stroke-width="0.25"
         stroke="#000000"
         linecap="square"
         d="M8 4 l-4,4" />
      <path
         id="path116"
         stroke-width="0.25"
         stroke="#000000"
         linecap="square"
         d="M6 2 l-4,4" />
      <path
         id="path118"
         stroke-width="0.25"
         stroke="#000000"
         linecap="square"
         d="M4 0 l-4,4" />
    </pattern>
    <symbol
       id="*MODEL_SPACE-4" />
    <symbol
       id="*PAPER_SPACE-1" />
    <marker
       style="overflow:visible"
       refY="0"
       refX="0"
       orient="auto"
       id="DistanceX-7">
      <path
         id="path210"
         style="stroke:#000000;stroke-width:0.5"
         d="M 3,-3 -3,3 M 0,-5 V 5"
         inkscape:connector-curvature="0" />
    </marker>
    <pattern
       y="0"
       x="0"
       width="8"
       patternUnits="userSpaceOnUse"
       id="Hatch-3"
       height="8">
      <path
         id="path213"
         stroke-width="0.25"
         stroke="#000000"
         linecap="square"
         d="M8 4 l-4,4" />
      <path
         id="path215"
         stroke-width="0.25"
         stroke="#000000"
         linecap="square"
         d="M6 2 l-4,4" />
      <path
         id="path217"
         stroke-width="0.25"
         stroke="#000000"
         linecap="square"
         d="M4 0 l-4,4" />
    </pattern>
    <symbol
       id="*MODEL_SPACE-9" />
    <symbol
       id="*PAPER_SPACE-3" />
    <marker
       style="overflow:visible"
       refY="0"
       refX="0"
       orient="auto"
       id="DistanceX-2">
      <path
         id="path1300"
         style="stroke:#000000;stroke-width:0.5"
         d="M 3,-3 -3,3 M 0,-5 V 5"
         inkscape:connector-curvature="0" />
    </marker>
    <pattern
       y="0"
       x="0"
       width="8"
       patternUnits="userSpaceOnUse"
       id="Hatch-49"
       height="8">
      <path
         id="path1303"
         stroke-width="0.25"
         stroke="#000000"
         linecap="square"
         d="M8 4 l-4,4" />
      <path
         id="path1305"
         stroke-width="0.25"
         stroke="#000000"
         linecap="square"
         d="M6 2 l-4,4" />
      <path
         id="path1307"
         stroke-width="0.25"
         stroke="#000000"
         linecap="square"
         d="M4 0 l-4,4" />
    </pattern>
    <symbol
       id="*MODEL_SPACE-1" />
    <symbol
       id="*PAPER_SPACE-9" />
    <marker
       style="overflow:visible"
       refY="0"
       refX="0"
       orient="auto"
       id="DistanceX-4">
      <path
         id="path1435"
         style="stroke:#000000;stroke-width:0.5"
         d="M 3,-3 -3,3 M 0,-5 V 5"
         inkscape:connector-curvature="0" />
    </marker>
    <pattern
       y="0"
       x="0"
       width="8"
       patternUnits="userSpaceOnUse"
       id="Hatch-8"
       height="8">
      <path
         id="path1438"
         stroke-width="0.25"
         stroke="#000000"
         linecap="square"
         d="M8 4 l-4,4" />
      <path
         id="path1440"
         stroke-width="0.25"
         stroke="#000000"
         linecap="square"
         d="M6 2 l-4,4" />
      <path
         id="path1442"
         stroke-width="0.25"
         stroke="#000000"
         linecap="square"
         d="M4 0 l-4,4" />
    </pattern>
    <symbol
       id="*MODEL_SPACE-98" />
    <symbol
       id="*PAPER_SPACE-7" />
    <marker
       style="overflow:visible"
       refY="0"
       refX="0"
       orient="auto"
       id="DistanceX-5">
      <path
         id="path1477"
         style="stroke:#000000;stroke-width:0.5"
         d="M 3,-3 -3,3 M 0,-5 V 5"
         inkscape:connector-curvature="0" />
    </marker>
    <pattern
       y="0"
       x="0"
       width="8"
       patternUnits="userSpaceOnUse"
       id="Hatch-47"
       height="8">
      <path
         id="path1480"
         stroke-width="0.25"
         stroke="#000000"
         linecap="square"
         d="M8 4 l-4,4" />
      <path
         id="path1482"
         stroke-width="0.25"
         stroke="#000000"
         linecap="square"
         d="M6 2 l-4,4" />
      <path
         id="path1484"
         stroke-width="0.25"
         stroke="#000000"
         linecap="square"
         d="M4 0 l-4,4" />
    </pattern>
    <symbol
       id="*MODEL_SPACE-2" />
    <symbol
       id="*PAPER_SPACE-92" />
    <marker
       style="overflow:visible"
       refY="0"
       refX="0"
       orient="auto"
       id="DistanceX-3">
      <path
         id="path1519"
         style="stroke:#000000;stroke-width:0.5"
         d="M 3,-3 -3,3 M 0,-5 V 5"
         inkscape:connector-curvature="0" />
    </marker>
    <pattern
       y="0"
       x="0"
       width="8"
       patternUnits="userSpaceOnUse"
       id="Hatch-44"
       height="8">
      <path
         id="path1522"
         stroke-width="0.25"
         stroke="#000000"
         linecap="square"
         d="M8 4 l-4,4" />
      <path
         id="path1524"
         stroke-width="0.25"
         stroke="#000000"
         linecap="square"
         d="M6 2 l-4,4" />
      <path
         id="path1526"
         stroke-width="0.25"
         stroke="#000000"
         linecap="square"
         d="M4 0 l-4,4" />
    </pattern>
    <symbol
       id="*MODEL_SPACE-25" />
    <symbol
       id="*PAPER_SPACE-8" />
    <marker
       style="overflow:visible"
       refY="0.0"
       refX="0.0"
       orient="auto"
       id="DistanceX-9">
      <path
         id="path5763"
         style="stroke:#000000; stroke-width:0.5"
         d="M 3,-3 L -3,3 M 0,-5 L  0,5" />
    </marker>
    <pattern
       y="0"
       x="0"
       width="8"
       patternUnits="userSpaceOnUse"
       id="Hatch-0"
       height="8">
      <path
         id="path5766"
         stroke-width="0.25"
         stroke="#000000"
         linecap="square"
         d="M8 4 l-4,4" />
      <path
         id="path5768"
         stroke-width="0.25"
         stroke="#000000"
         linecap="square"
         d="M6 2 l-4,4" />
      <path
         id="path5770"
         stroke-width="0.25"
         stroke="#000000"
         linecap="square"
         d="M4 0 l-4,4" />
    </pattern>
    <symbol
       id="*MODEL_SPACE-0" />
    <symbol
       id="*PAPER_SPACE-91" />
    <marker
       style="overflow:visible"
       refY="0.0"
       refX="0.0"
       orient="auto"
       id="DistanceX-68">
      <path
         id="path5898"
         style="stroke:#000000; stroke-width:0.5"
         d="M 3,-3 L -3,3 M 0,-5 L  0,5" />
    </marker>
    <pattern
       y="0"
       x="0"
       width="8"
       patternUnits="userSpaceOnUse"
       id="Hatch-5"
       height="8">
      <path
         id="path5901"
         stroke-width="0.25"
         stroke="#000000"
         linecap="square"
         d="M8 4 l-4,4" />
      <path
         id="path5903"
         stroke-width="0.25"
         stroke="#000000"
         linecap="square"
         d="M6 2 l-4,4" />
      <path
         id="path5905"
         stroke-width="0.25"
         stroke="#000000"
         linecap="square"
         d="M4 0 l-4,4" />
    </pattern>
    <symbol
       id="*MODEL_SPACE-5" />
    <symbol
       id="*PAPER_SPACE-913" />
    <marker
       style="overflow:visible"
       refY="0.0"
       refX="0.0"
       orient="auto"
       id="DistanceX-63">
      <path
         id="path6129"
         style="stroke:#000000; stroke-width:0.5"
         d="M 3,-3 L -3,3 M 0,-5 L  0,5" />
    </marker>
    <pattern
       y="0"
       x="0"
       width="8"
       patternUnits="userSpaceOnUse"
       id="Hatch-1"
       height="8">
      <path
         id="path6132"
         stroke-width="0.25"
         stroke="#000000"
         linecap="square"
         d="M8 4 l-4,4" />
      <path
         id="path6134"
         stroke-width="0.25"
         stroke="#000000"
         linecap="square"
         d="M6 2 l-4,4" />
      <path
         id="path6136"
         stroke-width="0.25"
         stroke="#000000"
         linecap="square"
         d="M4 0 l-4,4" />
    </pattern>
    <symbol
       id="*MODEL_SPACE-8" />
    <symbol
       id="*PAPER_SPACE-6" />
    <marker
       style="overflow:visible"
       refY="0.0"
       refX="0.0"
       orient="auto"
       id="DistanceX-689">
      <path
         id="path6324"
         style="stroke:#000000; stroke-width:0.5"
         d="M 3,-3 L -3,3 M 0,-5 L  0,5" />
    </marker>
    <pattern
       y="0"
       x="0"
       width="8"
       patternUnits="userSpaceOnUse"
       id="Hatch-6"
       height="8">
      <path
         id="path6327"
         stroke-width="0.25"
         stroke="#000000"
         linecap="square"
         d="M8 4 l-4,4" />
      <path
         id="path6329"
         stroke-width="0.25"
         stroke="#000000"
         linecap="square"
         d="M6 2 l-4,4" />
      <path
         id="path6331"
         stroke-width="0.25"
         stroke="#000000"
         linecap="square"
         d="M4 0 l-4,4" />
    </pattern>
    <symbol
       id="*MODEL_SPACE-91" />
    <symbol
       id="*PAPER_SPACE-35" />
    <marker
       style="overflow:visible"
       refY="0.0"
       refX="0.0"
       orient="auto"
       id="DistanceX-1">
      <path
         id="path6423"
         style="stroke:#000000; stroke-width:0.5"
         d="M 3,-3 L -3,3 M 0,-5 L  0,5" />
    </marker>
    <pattern
       y="0"
       x="0"
       width="8"
       patternUnits="userSpaceOnUse"
       id="Hatch-7"
       height="8">
      <path
         id="path6426"
         stroke-width="0.25"
         stroke="#000000"
         linecap="square"
         d="M8 4 l-4,4" />
      <path
         id="path6428"
         stroke-width="0.25"
         stroke="#000000"
         linecap="square"
         d="M6 2 l-4,4" />
      <path
         id="path6430"
         stroke-width="0.25"
         stroke="#000000"
         linecap="square"
         d="M4 0 l-4,4" />
    </pattern>
    <symbol
       id="*MODEL_SPACE-87" />
    <symbol
       id="*PAPER_SPACE-90" />
    <marker
       style="overflow:visible"
       refY="0.0"
       refX="0.0"
       orient="auto"
       id="DistanceX-62">
      <path
         id="path6522"
         style="stroke:#000000; stroke-width:0.5"
         d="M 3,-3 L -3,3 M 0,-5 L  0,5" />
    </marker>
    <pattern
       y="0"
       x="0"
       width="8"
       patternUnits="userSpaceOnUse"
       id="Hatch-33"
       height="8">
      <path
         id="path6525"
         stroke-width="0.25"
         stroke="#000000"
         linecap="square"
         d="M8 4 l-4,4" />
      <path
         id="path6527"
         stroke-width="0.25"
         stroke="#000000"
         linecap="square"
         d="M6 2 l-4,4" />
      <path
         id="path6529"
         stroke-width="0.25"
         stroke="#000000"
         linecap="square"
         d="M4 0 l-4,4" />
    </pattern>
    <symbol
       id="*MODEL_SPACE-45" />
    <symbol
       id="*PAPER_SPACE-81" />
    <marker
       style="overflow:visible"
       refY="0.0"
       refX="0.0"
       orient="auto"
       id="DistanceX-13">
      <path
         id="path6654"
         style="stroke:#000000; stroke-width:0.5"
         d="M 3,-3 L -3,3 M 0,-5 L  0,5" />
    </marker>
    <pattern
       y="0"
       x="0"
       width="8"
       patternUnits="userSpaceOnUse"
       id="Hatch-9"
       height="8">
      <path
         id="path6657"
         stroke-width="0.25"
         stroke="#000000"
         linecap="square"
         d="M8 4 l-4,4" />
      <path
         id="path6659"
         stroke-width="0.25"
         stroke="#000000"
         linecap="square"
         d="M6 2 l-4,4" />
      <path
         id="path6661"
         stroke-width="0.25"
         stroke="#000000"
         linecap="square"
         d="M4 0 l-4,4" />
    </pattern>
    <symbol
       id="*MODEL_SPACE-7" />
    <symbol
       id="*PAPER_SPACE-87" />
    <marker
       style="overflow:visible"
       refY="0.0"
       refX="0.0"
       orient="auto"
       id="DistanceX-66">
      <path
         id="path7077"
         style="stroke:#000000; stroke-width:0.5"
         d="M 3,-3 L -3,3 M 0,-5 L  0,5" />
    </marker>
    <pattern
       y="0"
       x="0"
       width="8"
       patternUnits="userSpaceOnUse"
       id="Hatch-57"
       height="8">
      <path
         id="path7080"
         stroke-width="0.25"
         stroke="#000000"
         linecap="square"
         d="M8 4 l-4,4" />
      <path
         id="path7082"
         stroke-width="0.25"
         stroke="#000000"
         linecap="square"
         d="M6 2 l-4,4" />
      <path
         id="path7084"
         stroke-width="0.25"
         stroke="#000000"
         linecap="square"
         d="M4 0 l-4,4" />
    </pattern>
    <symbol
       id="*MODEL_SPACE-89" />
    <symbol
       id="*PAPER_SPACE-2" />
    <marker
       style="overflow:visible"
       refY="0.0"
       refX="0.0"
       orient="auto"
       id="DistanceX-32">
      <path
         id="path7278"
         style="stroke:#000000; stroke-width:0.5"
         d="M 3,-3 L -3,3 M 0,-5 L  0,5" />
    </marker>
    <pattern
       y="0"
       x="0"
       width="8"
       patternUnits="userSpaceOnUse"
       id="Hatch-35"
       height="8">
      <path
         id="path7281"
         stroke-width="0.25"
         stroke="#000000"
         linecap="square"
         d="M8 4 l-4,4" />
      <path
         id="path7283"
         stroke-width="0.25"
         stroke="#000000"
         linecap="square"
         d="M6 2 l-4,4" />
      <path
         id="path7285"
         stroke-width="0.25"
         stroke="#000000"
         linecap="square"
         d="M4 0 l-4,4" />
    </pattern>
    <symbol
       id="*MODEL_SPACE-3" />
    <symbol
       id="*PAPER_SPACE-5" />
  </defs>
  <sodipodi:namedview
     id="base"
     pagecolor="#ffffff"
     bordercolor="#666666"
     borderopacity="1.0"
     inkscape:pageopacity="0.0"
     inkscape:pageshadow="2"
     inkscape:zoom="0.7"
     inkscape:cx="926.10944"
     inkscape:cy="279.26958"
     inkscape:document-units="mm"
     inkscape:current-layer="layer1"
     showgrid="false"
     units="mm"
     inkscape:window-width="2560"
     inkscape:window-height="1377"
     inkscape:window-x="-8"
     inkscape:window-y="-8"
     inkscape:window-maximized="1" />
  <metadata
     id="metadata5">
    <rdf:RDF>
      <cc:Work
         rdf:about="">
        <dc:format>image/svg+xml</dc:format>
        <dc:type
           rdf:resource="http://purl.org/dc/dcmitype/StillImage" />
        <dc:title></dc:title>
      </cc:Work>
    </rdf:RDF>
  </metadata>
  <g
     inkscape:label="Layer 1"
     inkscape:groupmode="layer"
     id="layer1"
     transform="translate(0,-86.999992)">
    <g
       id="g7336"
       inkscape:label="0"
       transform="matrix(0.26458333,0,0,0.26458333,-206.32515,-181.19995)">
      <path
         id="path7292"
         style="fill:none;stroke:#000000"
         d="m 1464.6754,1612.7597 a 6.14175,6.14175 0 1 0 -12.2835,0 6.14175,6.14175 0 1 0 12.2835,0 z"
         inkscape:connector-curvature="0" />
      <path
         id="path7294"
         style="fill:none;stroke:#000000"
         d="m 1314.2956,1620.7647 a 6.14175,6.14175 0 1 0 -12.2835,0 6.14175,6.14175 0 1 0 12.2835,0 z"
         inkscape:connector-curvature="0" />
      <path
         id="path7296"
         style="fill:none;stroke:#000000"
         d="m 1193.1464,1202.1731 a 6.1417325,6.1417325 0 1 0 -12.2834,0 6.1417325,6.1417325 0 1 0 12.2834,0 z"
         inkscape:connector-curvature="0" />
      <path
         id="path7298"
         style="fill:none;stroke:#000000"
         d="m 893.05461,1205.9528 a 6.141735,6.141735 0 1 0 -12.28347,0 6.141735,6.141735 0 1 0 12.28347,0 z"
         inkscape:connector-curvature="0" />
      <path
         id="path7300"
         style="fill:none;stroke:#000000"
         d="m 1035.8904,1202.1731 a 6.14175,6.14175 0 1 0 -12.2835,0 6.14175,6.14175 0 1 0 12.2835,0 z"
         inkscape:connector-curvature="0" />
      <path
         id="path7302"
         style="fill:none;stroke:#000000"
         d="m 1472.6929,1410.5196 a 6.1417325,6.1417325 0 1 0 -12.2834,0 6.1417325,6.1417325 0 1 0 12.2834,0 z"
         inkscape:connector-curvature="0" />
      <path
         id="path7304"
         style="fill:none;stroke:#000000"
         d="m 1039.0756,1620.7773 a 6.1417325,6.1417325 0 1 0 -12.2834,0 6.1417325,6.1417325 0 1 0 12.2834,0 z"
         inkscape:connector-curvature="0" />
      <path
         id="path7306"
         style="fill:none;stroke:#000000"
         d="m 1464.6184,1210.147 a 6.1417325,6.1417325 0 1 0 -12.2834,0 6.1417325,6.1417325 0 1 0 12.2834,0 z"
         inkscape:connector-curvature="0" />
      <path
         id="path7308"
         style="fill:none;stroke:#000000"
         d="m 879.3288,1647.2122 h 572.1043"
         inkscape:connector-curvature="0" />
      <path
         id="path7310"
         style="fill:none;stroke:#000000"
         d="m 1451.4331,1647.2122 c 9.167,0 17.9636,-3.1031 24.8583,-8.2491 7.6718,-5.7259 13.2992,-14.0383 15.595,-23.7194 0.7355,-3.1017 1.1215,-6.3391 1.1215,-9.6063"
         inkscape:connector-curvature="0" />
      <path
         id="path7312"
         style="fill:none;stroke:#000000"
         d="M 1493.0079,1605.6374 V 1215.4016"
         inkscape:connector-curvature="0" />
      <path
         id="path7314"
         style="fill:none;stroke:#000000"
         d="m 1493.0079,1215.4016 c 0,-9.167 -3.1032,-17.9636 -8.2491,-24.8583 -5.7259,-7.6718 -14.0383,-13.2992 -23.7194,-15.595 -3.1018,-0.7355 -6.3391,-1.1215 -9.6063,-1.1215"
         inkscape:connector-curvature="0" />
      <path
         id="path7316"
         style="fill:none;stroke:#000000"
         d="M 1451.4331,1173.8268 H 861.3288"
         inkscape:connector-curvature="0" />
      <path
         id="path7318"
         style="fill:none;stroke:#000000"
         d="m 861.3288,1173.8268 a 7.559055,7.559055 0 0 0 -1.01273,3.7795"
         inkscape:connector-curvature="0" />
      <path
         id="path7320"
         style="fill:none;stroke:#000000"
         d="m 860.31607,1177.6063 v 52.9134"
         inkscape:connector-curvature="0" />
      <path
         id="path7322"
         style="fill:none;stroke:#000000"
         d="M 860.31607,1230.5197 H 1432.5355"
         inkscape:connector-curvature="0" />
      <path
         id="path7324"
         style="fill:none;stroke:#000000"
         d="m 1432.5355,1230.5197 c 2.0874,0 3.7795,1.6922 3.7795,3.7796"
         inkscape:connector-curvature="0" />
      <path
         id="path7326"
         style="fill:none;stroke:#000000"
         d="m 1436.315,1234.2993 v 352.4409"
         inkscape:connector-curvature="0" />
      <path
         id="path7328"
         style="fill:none;stroke:#000000"
         d="m 1436.315,1586.7402 c 0,2.0874 -1.6921,3.7795 -3.7795,3.7795"
         inkscape:connector-curvature="0" />
      <path
         id="path7330"
         style="fill:none;stroke:#000000"
         d="M 1432.5355,1590.5197 H 878.31607"
         inkscape:connector-curvature="0" />
      <path
         id="path7332"
         style="fill:none;stroke:#000000"
         d="m 878.31607,1590.5197 v 52.913"
         inkscape:connector-curvature="0" />
      <path
         id="path7334"
         style="fill:none;stroke:#000000"
         d="m 878.31607,1643.4327 a 7.559055,7.559055 0 0 0 1.01273,3.7795"
         inkscape:connector-curvature="0" />
    </g>
  </g>
</svg>
