0
SECTION
2
HEADER
9
$INSUNITS
70
4
9
$ACADVER
1
AC1014
9
$HANDSEED
5
FFFF
0
ENDSEC
0
SECTION
2
TABLES
0
TABLE
2
VPORT
5
8
100
AcDbSymbolTable
0
ENDTAB
0
TABLE
2
LTYPE
5
5
100
AcDbSymbolTable
0
LTYPE
5
14
100
AcDbSymbolTableRecord
100
AcDbLinetypeTableRecord
2
BYBLOCK
70
0
0
LTYPE
5
15
100
AcDbSymbolTableRecord
100
AcDbLinetypeTableRecord
2
BYLAYER
70
0
0
ENDTAB
0
TABLE
2
LAYER
5
2
100
AcDbSymbolTable
70
2
0
LAYER
5
50
100
AcDbSymbolTableRecord
100
AcDbLayerTableRecord
2
0
70
0
6
CONTINUOUS
0
ENDTAB
0
TABLE
2
STYLE
5
3
100
AcDbSymbolTable
70
1
0
STYLE
5
11
100
AcDbSymbolTableRecord
100
AcDbTextStyleTableRecord
2
STANDARD
70
0
0
ENDTAB
0
TABLE
2
VIEW
5
6
100
AcDbSymbolTable
70
0
0
ENDTAB
0
TABLE
2
UCS
5
7
100
AcDbSymbolTable
70
0
0
ENDTAB
0
TABLE
2
APPID
5
9
100
AcDbSymbolTable
70
2
0
APPID
5
12
100
AcDbSymbolTableRecord
100
AcDbRegAppTableRecord
2
ACAD
70
0
0
ENDTAB
0
TABLE
2
DIMSTYLE
5
A
100
AcDbSymbolTable
70
1
0
ENDTAB
0
TABLE
2
BLOCK_RECORD
5
1
100
AcDbSymbolTable
70
1
0
BLOCK_RECORD
5
1F
100
AcDbSymbolTableRecord
100
AcDbBlockTableRecord
2
*MODEL_SPACE
0
BLOCK_RECORD
5
1B
100
AcDbSymbolTableRecord
100
AcDbBlockTableRecord
2
*PAPER_SPACE
0
ENDTAB
0
ENDSEC
0
SECTION
2
BLOCKS
0
BLOCK
5
20
100
AcDbEntity
100
AcDbBlockBegin
2
*MODEL_SPACE
0
ENDBLK
5
21
100
AcDbEntity
100
AcDbBlockEnd
0
BLOCK
5
1C
100
AcDbEntity
100
AcDbBlockBegin
2
*PAPER_SPACE
0
ENDBLK
5
1D
100
AcDbEntity
100
AcDbBlockEnd
0
ENDSEC
0
SECTION
2
ENTITIES
0
CIRCLE
5
100
100
AcDbEntity
8
0
100
AcDbCircle
10
385.90368693960733
20
-129.70932846147045
30
0
40
1.1000000000000001
210
0
220
-0
230
1
0
CIRCLE
5
101
100
AcDbEntity
8
0
100
AcDbCircle
10
346.11571311236321
20
-131.8273272659643
30
0
40
1.1000000000000001
210
0
220
-0
230
1
0
CIRCLE
5
102
100
AcDbEntity
8
0
100
AcDbCircle
10
314.06166383038334
20
-21.074967707289531
30
0
40
1.1000000000000001
210
0
220
-0
230
1
0
CIRCLE
5
103
100
AcDbEntity
8
0
100
AcDbCircle
10
234.66236495257306
20
-22.075010772471401
30
0
40
1.1000000000000001
210
0
220
-0
230
1
0
CIRCLE
5
104
100
AcDbEntity
8
0
100
AcDbCircle
10
272.45432857501947
20
-21.074967707289531
30
0
40
1.1000000000000001
210
0
220
-0
230
1
0
CIRCLE
5
105
100
AcDbEntity
8
0
100
AcDbCircle
10
388.0250072831667
20
-76.199981950314282
30
0
40
1.1000000000000001
210
0
220
-0
230
1
0
CIRCLE
5
106
100
AcDbEntity
8
0
100
AcDbCircle
10
273.29709586382813
20
-131.83064880503059
30
0
40
1.1000000000000001
210
0
220
-0
230
1
0
CIRCLE
5
107
100
AcDbEntity
8
0
100
AcDbCircle
10
385.88862591196374
20
-23.184721868330065
30
0
40
1.1000000000000001
210
0
220
-0
230
1
0
LINE
5
108
100
AcDbEntity
8
0
100
AcDbLine
10
232.38779448748539
20
-136.82489200822957
30
0
11
384.02500728316676
21
-136.8248920082296
31
0
0
SPLINE
5
109
100
AcDbEntity
8
0
100
AcDbSpline
70
0
71
3
72
14
73
10
74
0
42
0.000000001
43
0.0000000001
44
0.0000000001
40
14
40
14
40
14
40
14
40
14.405623453170115
40
14.405623453170115
40
14.405623453170115
40
14.855637974279666
40
14.855637974279666
40
14.855637974279666
40
15
40
15
40
15
40
15
10
384.02500728316676
20
-136.8248920082296
30
0
10
386.00172621660369
20
-136.8248920082296
30
0
10
387.92427018337798
20
-136.14531136302037
30
0
10
389.40583090469005
20
-135.03953601629684
30
0
10
391.06742223148495
20
-133.79939330795591
30
0
10
392.28485366798691
20
-132.00247513277404
30
0
10
392.78223579964396
20
-129.90508258743637
30
0
10
392.94106764954421
20
-129.23531036053072
30
0
10
393.02499999285646
20
-128.53211946802199
30
0
10
393.02499999285646
20
-127.82489929853986
30
0
0
LINE
5
110
100
AcDbEntity
8
0
100
AcDbLine
10
393.02499999285646
20
-127.82489929853983
30
0
11
393.02499999285646
21
-24.57500000654802
31
0
0
SPLINE
5
111
100
AcDbEntity
8
0
100
AcDbSpline
70
0
71
3
72
14
73
10
74
0
42
0.000000001
43
0.0000000001
44
0.0000000001
40
16
40
16
40
16
40
16
40
16.405623453169813
40
16.405623453169813
40
16.405623453169813
40
16.855637974279549
40
16.855637974279549
40
16.855637974279549
40
17
40
17
40
17
40
17
10
393.02499999285646
20
-24.57500000654802
30
0
10
393.02499999285646
20
-22.598281073112076
30
0
10
392.34541934764792
20
-20.675737106339383
30
0
10
391.23964400092575
20
-19.19417638502788
30
0
10
389.9995012925848
20
-17.532585058231525
30
0
10
388.20258311740332
20
-16.315153621728935
30
0
10
386.10519057206477
20
-15.81777149007122
30
0
10
385.43541834515855
20
-15.658939640170676
30
0
10
384.73222745264945
20
-15.575007296858363
30
0
10
384.02500728316676
20
-15.575007296858363
30
0
0
LINE
5
112
100
AcDbEntity
8
0
100
AcDbLine
10
384.0250072831667
20
-15.575007296858363
30
0
11
227.62529448748535
21
-15.575007296858363
31
0
0
LINE
5
113
100
AcDbEntity
8
0
100
AcDbLine
10
227.62529448748535
20
-15.575007296858363
30
0
11
227.62529448748535
21
-28.575014248084436
31
0
0
LINE
5
114
100
AcDbEntity
8
0
100
AcDbLine
10
227.62529448748535
20
-28.575014248084436
30
0
11
379.02501457347734
21
-28.575014248084436
31
0
0
SPLINE
5
115
100
AcDbEntity
8
0
100
AcDbSpline
70
0
71
3
72
8
73
4
74
0
42
0.000000001
43
0.0000000001
44
0.0000000001
40
5
40
5
40
5
40
5
40
6
40
6
40
6
40
6
10
379.02501457347734
20
-28.575014248084436
30
0
10
379.57729932330778
20
-28.575014248084436
30
0
10
380.02501457347705
20
-29.022729498253508
30
0
10
380.02501457347705
20
-29.575014248084237
30
0
0
LINE
5
116
100
AcDbEntity
8
0
100
AcDbLine
10
380.02501457347711
20
-29.575014248084237
30
0
11
380.02501457347705
21
-122.82501424808503
31
0
0
SPLINE
5
117
100
AcDbEntity
8
0
100
AcDbSpline
70
0
71
3
72
8
73
4
74
0
42
0.000000001
43
0.0000000001
44
0.0000000001
40
7
40
7
40
7
40
7
40
8
40
8
40
8
40
8
10
380.02501457347705
20
-122.82501424808503
30
0
10
380.02501457347705
20
-123.37729899791478
30
0
10
379.57729932330778
20
-123.82501424808412
30
0
10
379.02501457347734
20
-123.82501424808412
30
0
0
LINE
5
118
100
AcDbEntity
8
0
100
AcDbLine
10
379.02501457347734
20
-123.82501424808412
30
0
11
232.38779448748534
21
-123.82501424808412
31
0
0
LINE
5
119
100
AcDbEntity
8
0
100
AcDbLine
10
232.38779448748534
20
-123.82501424808412
30
0
11
232.38779448748539
21
-136.82489200822957
31
0
0
ENDSEC
0
SECTION
2
OBJECTS
0
DICTIONARY
5
C
100
AcDbDictionary
3
ACAD_GROUP
350
D
3
ACAD_MLINESTYLE
350
17
0
DICTIONARY
5
D
100
AcDbDictionary
0
DICTIONARY
5
1A
330
C
100
AcDbDictionary
0
DICTIONARY
5
17
100
AcDbDictionary
0
ENDSEC
0
EOF
