G04 #@! TF.GenerationSoftware,KiCad,Pcbnew,(5.1.5)-3*
G04 #@! TF.CreationDate,2020-07-17T15:38:34-06:00*
G04 #@! TF.ProjectId,fernet,6665726e-6574-42e6-9b69-6361645f7063,rev?*
G04 #@! TF.SameCoordinates,Original*
G04 #@! TF.FileFunction,Soldermask,Top*
G04 #@! TF.FilePolarity,Negative*
%FSLAX46Y46*%
G04 Gerber Fmt 4.6, Leading zero omitted, Abs format (unit mm)*
G04 Created by KiCad (PCBNEW (5.1.5)-3) date 2020-07-17 15:38:34*
%MOMM*%
%LPD*%
G04 APERTURE LIST*
%ADD10C,3.987800*%
%ADD11C,1.750000*%
%ADD12C,3.048000*%
%ADD13R,1.524000X1.524000*%
%ADD14R,2.000000X2.000000*%
%ADD15C,2.000000*%
%ADD16O,2.000000X3.200000*%
%ADD17R,1.600000X1.600000*%
%ADD18C,1.600000*%
G04 APERTURE END LIST*
D10*
X286710000Y-53340000D03*
D11*
X281630000Y-53340000D03*
X291790000Y-53340000D03*
D12*
X274803750Y-46355000D03*
X298616250Y-46355000D03*
D10*
X274803750Y-61595000D03*
X298616250Y-61595000D03*
D13*
X330500000Y-61778000D03*
X330500000Y-60000000D03*
X330500000Y-58222000D03*
D14*
X322300000Y-79887500D03*
D15*
X324800000Y-79887500D03*
X327300000Y-79887500D03*
D16*
X319200000Y-72387500D03*
X330400000Y-72387500D03*
D15*
X322300000Y-65387500D03*
X327300000Y-65387500D03*
D14*
X322300000Y-98937500D03*
D15*
X324800000Y-98937500D03*
X327300000Y-98937500D03*
D16*
X319200000Y-91437500D03*
X330400000Y-91437500D03*
D15*
X322300000Y-84437500D03*
X327300000Y-84437500D03*
D17*
X20320000Y-31840000D03*
D18*
X20320000Y-24040000D03*
D11*
X282280000Y-53337500D03*
X272120000Y-53337500D03*
D10*
X277200000Y-53337500D03*
D11*
X301330000Y-53350000D03*
X291170000Y-53350000D03*
D10*
X296250000Y-53350000D03*
D17*
X305650000Y-57750000D03*
D18*
X305650000Y-49950000D03*
D17*
X253862500Y-114887500D03*
D18*
X253862500Y-107087500D03*
D17*
X211000000Y-57737500D03*
D18*
X211000000Y-49937500D03*
D17*
X39550000Y-57737500D03*
D18*
X39550000Y-49937500D03*
D17*
X58600000Y-57737500D03*
D18*
X58600000Y-49937500D03*
D17*
X77650000Y-57737500D03*
D18*
X77650000Y-49937500D03*
D17*
X96700000Y-57737500D03*
D18*
X96700000Y-49937500D03*
D17*
X115750000Y-57737500D03*
D18*
X115750000Y-49937500D03*
D17*
X134800000Y-57737500D03*
D18*
X134800000Y-49937500D03*
D17*
X153850000Y-57737500D03*
D18*
X153850000Y-49937500D03*
D17*
X172900000Y-57737500D03*
D18*
X172900000Y-49937500D03*
D17*
X191950000Y-57737500D03*
D18*
X191950000Y-49937500D03*
D17*
X211000000Y-133937500D03*
D18*
X211000000Y-126137500D03*
D17*
X58600000Y-33925000D03*
D18*
X58600000Y-26125000D03*
D17*
X77650000Y-33925000D03*
D18*
X77650000Y-26125000D03*
D17*
X96700000Y-33925000D03*
D18*
X96700000Y-26125000D03*
D17*
X115750000Y-33925000D03*
D18*
X115750000Y-26125000D03*
D17*
X144325000Y-33925000D03*
D18*
X144325000Y-26125000D03*
D17*
X163375000Y-33925000D03*
D18*
X163375000Y-26125000D03*
D17*
X182425000Y-33925000D03*
D18*
X182425000Y-26125000D03*
D17*
X201475000Y-33925000D03*
D18*
X201475000Y-26125000D03*
D17*
X230050000Y-33925000D03*
D18*
X230050000Y-26125000D03*
D17*
X249100000Y-33925000D03*
D18*
X249100000Y-26125000D03*
D17*
X268150000Y-33925000D03*
D18*
X268150000Y-26125000D03*
D17*
X287200000Y-33925000D03*
D18*
X287200000Y-26125000D03*
D17*
X240050320Y-133955620D03*
D18*
X240050320Y-126155620D03*
D17*
X311012500Y-138700000D03*
D18*
X311012500Y-130900000D03*
D17*
X291962500Y-138700000D03*
D18*
X291962500Y-130900000D03*
D17*
X272912500Y-138700000D03*
D18*
X272912500Y-130900000D03*
D17*
X77650000Y-133937500D03*
D18*
X77650000Y-126137500D03*
D17*
X49075000Y-133937500D03*
D18*
X49075000Y-126137500D03*
D17*
X20500000Y-133937500D03*
D18*
X20500000Y-126137500D03*
D17*
X291962500Y-119650000D03*
D18*
X291962500Y-111850000D03*
D17*
X315775000Y-114887500D03*
D18*
X315775000Y-107087500D03*
D17*
X234812500Y-114887500D03*
D18*
X234812500Y-107087500D03*
D17*
X215762500Y-114887500D03*
D18*
X215762500Y-107087500D03*
D17*
X196712500Y-114887500D03*
D18*
X196712500Y-107087500D03*
D17*
X177662500Y-114887500D03*
D18*
X177662500Y-107087500D03*
D17*
X158612500Y-114887500D03*
D18*
X158612500Y-107087500D03*
D17*
X139562500Y-114887500D03*
D18*
X139562500Y-107087500D03*
D17*
X120512500Y-114887500D03*
D18*
X120512500Y-107087500D03*
D17*
X101462500Y-114887500D03*
D18*
X101462500Y-107087500D03*
D17*
X82412500Y-114887500D03*
D18*
X82412500Y-107087500D03*
D17*
X63362500Y-114887500D03*
D18*
X63362500Y-107087500D03*
D17*
X20500000Y-114887500D03*
D18*
X20500000Y-107087500D03*
D17*
X315775000Y-95837500D03*
D18*
X315775000Y-88037500D03*
D17*
X263387500Y-95837500D03*
D18*
X263387500Y-88037500D03*
D17*
X244337500Y-95837500D03*
D18*
X244337500Y-88037500D03*
D17*
X225287500Y-95837500D03*
D18*
X225287500Y-88037500D03*
D17*
X206237500Y-95837500D03*
D18*
X206237500Y-88037500D03*
D17*
X187187500Y-95837500D03*
D18*
X187187500Y-88037500D03*
D17*
X168137500Y-95837500D03*
D18*
X168137500Y-88037500D03*
D17*
X149087500Y-95837500D03*
D18*
X149087500Y-88037500D03*
D17*
X130037500Y-95837500D03*
D18*
X130037500Y-88037500D03*
D17*
X110987500Y-95837500D03*
D18*
X110987500Y-88037500D03*
D17*
X91937500Y-95837500D03*
D18*
X91937500Y-88037500D03*
D17*
X72887500Y-95837500D03*
D18*
X72887500Y-88037500D03*
D17*
X53837500Y-95837500D03*
D18*
X53837500Y-88037500D03*
D17*
X20500000Y-95837500D03*
D18*
X20500000Y-88037500D03*
D17*
X315775000Y-76787500D03*
D18*
X315775000Y-68987500D03*
D17*
X277675000Y-76787500D03*
D18*
X277675000Y-68987500D03*
D17*
X258625000Y-76787500D03*
D18*
X258625000Y-68987500D03*
D17*
X239575000Y-76787500D03*
D18*
X239575000Y-68987500D03*
D17*
X220525000Y-76787500D03*
D18*
X220525000Y-68987500D03*
D17*
X201475000Y-76787500D03*
D18*
X201475000Y-68987500D03*
D17*
X182425000Y-76787500D03*
D18*
X182425000Y-68987500D03*
D17*
X163375000Y-76787500D03*
D18*
X163375000Y-68987500D03*
D17*
X144325000Y-76787500D03*
D18*
X144325000Y-68987500D03*
D17*
X125275000Y-76787500D03*
D18*
X125275000Y-68987500D03*
D17*
X106225000Y-76787500D03*
D18*
X106225000Y-68987500D03*
D17*
X87175000Y-76787500D03*
D18*
X87175000Y-68987500D03*
D17*
X68125000Y-76787500D03*
D18*
X68125000Y-68987500D03*
D17*
X49075000Y-76787500D03*
D18*
X49075000Y-68987500D03*
D17*
X20500000Y-76787500D03*
D18*
X20500000Y-68987500D03*
D17*
X268150000Y-57737500D03*
D18*
X268150000Y-49937500D03*
D17*
X249100000Y-57737500D03*
D18*
X249100000Y-49937500D03*
D17*
X230050000Y-57737500D03*
D18*
X230050000Y-49937500D03*
D17*
X20500000Y-54540000D03*
D18*
X20500000Y-46740000D03*
D10*
X200975000Y-121282500D03*
X86675000Y-121282500D03*
D12*
X200975000Y-136522500D03*
X86675000Y-136522500D03*
D11*
X148905000Y-129537500D03*
X138745000Y-129537500D03*
D10*
X143825000Y-129537500D03*
D11*
X41748750Y-91437500D03*
X31588750Y-91437500D03*
D10*
X36668750Y-91437500D03*
X296225000Y-99692500D03*
X272412500Y-99692500D03*
D12*
X296225000Y-84452500D03*
X272412500Y-84452500D03*
D11*
X289398750Y-91437500D03*
X279238750Y-91437500D03*
D10*
X284318750Y-91437500D03*
X53337500Y-118742500D03*
X29525000Y-118742500D03*
D12*
X53337500Y-103502500D03*
X29525000Y-103502500D03*
D11*
X46511250Y-110487500D03*
X36351250Y-110487500D03*
D10*
X41431250Y-110487500D03*
D11*
X39367500Y-72387500D03*
X29207500Y-72387500D03*
D10*
X34287500Y-72387500D03*
D11*
X296542500Y-72387500D03*
X286382500Y-72387500D03*
D10*
X291462500Y-72387500D03*
D11*
X39367500Y-129537500D03*
X29207500Y-129537500D03*
D10*
X34287500Y-129537500D03*
D11*
X67942500Y-129537500D03*
X57782500Y-129537500D03*
D10*
X62862500Y-129537500D03*
D11*
X34605000Y-29525000D03*
X24445000Y-29525000D03*
D10*
X29525000Y-29525000D03*
D11*
X72705000Y-29525000D03*
X62545000Y-29525000D03*
D10*
X67625000Y-29525000D03*
D11*
X91755000Y-29525000D03*
X81595000Y-29525000D03*
D10*
X86675000Y-29525000D03*
D11*
X110805000Y-29525000D03*
X100645000Y-29525000D03*
D10*
X105725000Y-29525000D03*
D11*
X129855000Y-29525000D03*
X119695000Y-29525000D03*
D10*
X124775000Y-29525000D03*
D11*
X158430000Y-29525000D03*
X148270000Y-29525000D03*
D10*
X153350000Y-29525000D03*
D11*
X177480000Y-29525000D03*
X167320000Y-29525000D03*
D10*
X172400000Y-29525000D03*
D11*
X196530000Y-29525000D03*
X186370000Y-29525000D03*
D10*
X191450000Y-29525000D03*
D11*
X215580000Y-29525000D03*
X205420000Y-29525000D03*
D10*
X210500000Y-29525000D03*
D11*
X244155000Y-29525000D03*
X233995000Y-29525000D03*
D10*
X239075000Y-29525000D03*
D11*
X263205000Y-29525000D03*
X253045000Y-29525000D03*
D10*
X258125000Y-29525000D03*
D11*
X282255000Y-29525000D03*
X272095000Y-29525000D03*
D10*
X277175000Y-29525000D03*
D11*
X301305000Y-29525000D03*
X291145000Y-29525000D03*
D10*
X296225000Y-29525000D03*
D11*
X34605000Y-53337500D03*
X24445000Y-53337500D03*
D10*
X29525000Y-53337500D03*
D11*
X53655000Y-53337500D03*
X43495000Y-53337500D03*
D10*
X48575000Y-53337500D03*
D11*
X72705000Y-53337500D03*
X62545000Y-53337500D03*
D10*
X67625000Y-53337500D03*
D11*
X91755000Y-53337500D03*
X81595000Y-53337500D03*
D10*
X86675000Y-53337500D03*
D11*
X110805000Y-53337500D03*
X100645000Y-53337500D03*
D10*
X105725000Y-53337500D03*
D11*
X129855000Y-53337500D03*
X119695000Y-53337500D03*
D10*
X124775000Y-53337500D03*
D11*
X148905000Y-53337500D03*
X138745000Y-53337500D03*
D10*
X143825000Y-53337500D03*
D11*
X167955000Y-53337500D03*
X157795000Y-53337500D03*
D10*
X162875000Y-53337500D03*
D11*
X187005000Y-53337500D03*
X176845000Y-53337500D03*
D10*
X181925000Y-53337500D03*
D11*
X206055000Y-53337500D03*
X195895000Y-53337500D03*
D10*
X200975000Y-53337500D03*
D11*
X225105000Y-53337500D03*
X214945000Y-53337500D03*
D10*
X220025000Y-53337500D03*
D11*
X244155000Y-53337500D03*
X233995000Y-53337500D03*
D10*
X239075000Y-53337500D03*
D11*
X263205000Y-53337500D03*
X253045000Y-53337500D03*
D10*
X258125000Y-53337500D03*
D11*
X63180000Y-72387500D03*
X53020000Y-72387500D03*
D10*
X58100000Y-72387500D03*
D11*
X82230000Y-72387500D03*
X72070000Y-72387500D03*
D10*
X77150000Y-72387500D03*
D11*
X101280000Y-72387500D03*
X91120000Y-72387500D03*
D10*
X96200000Y-72387500D03*
D11*
X120330000Y-72387500D03*
X110170000Y-72387500D03*
D10*
X115250000Y-72387500D03*
D11*
X139380000Y-72387500D03*
X129220000Y-72387500D03*
D10*
X134300000Y-72387500D03*
D11*
X158430000Y-72387500D03*
X148270000Y-72387500D03*
D10*
X153350000Y-72387500D03*
D11*
X177480000Y-72387500D03*
X167320000Y-72387500D03*
D10*
X172400000Y-72387500D03*
D11*
X196530000Y-72387500D03*
X186370000Y-72387500D03*
D10*
X191450000Y-72387500D03*
D11*
X215580000Y-72387500D03*
X205420000Y-72387500D03*
D10*
X210500000Y-72387500D03*
D11*
X234630000Y-72387500D03*
X224470000Y-72387500D03*
D10*
X229550000Y-72387500D03*
D11*
X253680000Y-72387500D03*
X243520000Y-72387500D03*
D10*
X248600000Y-72387500D03*
D11*
X272730000Y-72387500D03*
X262570000Y-72387500D03*
D10*
X267650000Y-72387500D03*
D11*
X329880000Y-72387500D03*
X319720000Y-72387500D03*
D10*
X324800000Y-72387500D03*
D11*
X67942500Y-91437500D03*
X57782500Y-91437500D03*
D10*
X62862500Y-91437500D03*
D11*
X86992500Y-91437500D03*
X76832500Y-91437500D03*
D10*
X81912500Y-91437500D03*
D11*
X106042500Y-91437500D03*
X95882500Y-91437500D03*
D10*
X100962500Y-91437500D03*
D11*
X125092500Y-91437500D03*
X114932500Y-91437500D03*
D10*
X120012500Y-91437500D03*
D11*
X144142500Y-91437500D03*
X133982500Y-91437500D03*
D10*
X139062500Y-91437500D03*
D11*
X163192500Y-91437500D03*
X153032500Y-91437500D03*
D10*
X158112500Y-91437500D03*
D11*
X182242500Y-91437500D03*
X172082500Y-91437500D03*
D10*
X177162500Y-91437500D03*
D11*
X201292500Y-91437500D03*
X191132500Y-91437500D03*
D10*
X196212500Y-91437500D03*
D11*
X220342500Y-91437500D03*
X210182500Y-91437500D03*
D10*
X215262500Y-91437500D03*
D11*
X239392500Y-91437500D03*
X229232500Y-91437500D03*
D10*
X234312500Y-91437500D03*
D11*
X258442500Y-91437500D03*
X248282500Y-91437500D03*
D10*
X253362500Y-91437500D03*
D11*
X329880000Y-91437500D03*
X319720000Y-91437500D03*
D10*
X324800000Y-91437500D03*
D11*
X77467500Y-110487500D03*
X67307500Y-110487500D03*
D10*
X72387500Y-110487500D03*
D11*
X96517500Y-110487500D03*
X86357500Y-110487500D03*
D10*
X91437500Y-110487500D03*
D11*
X115567500Y-110487500D03*
X105407500Y-110487500D03*
D10*
X110487500Y-110487500D03*
D11*
X134617500Y-110487500D03*
X124457500Y-110487500D03*
D10*
X129537500Y-110487500D03*
D11*
X153667500Y-110487500D03*
X143507500Y-110487500D03*
D10*
X148587500Y-110487500D03*
D11*
X172717500Y-110487500D03*
X162557500Y-110487500D03*
D10*
X167637500Y-110487500D03*
D11*
X191767500Y-110487500D03*
X181607500Y-110487500D03*
D10*
X186687500Y-110487500D03*
D11*
X210817500Y-110487500D03*
X200657500Y-110487500D03*
D10*
X205737500Y-110487500D03*
D11*
X229867500Y-110487500D03*
X219707500Y-110487500D03*
D10*
X224787500Y-110487500D03*
D11*
X248917500Y-110487500D03*
X238757500Y-110487500D03*
D10*
X243837500Y-110487500D03*
D11*
X329880000Y-110487500D03*
X319720000Y-110487500D03*
D10*
X324800000Y-110487500D03*
D11*
X306067500Y-115250000D03*
X295907500Y-115250000D03*
D10*
X300987500Y-115250000D03*
D11*
X287017500Y-134300000D03*
X276857500Y-134300000D03*
D10*
X281937500Y-134300000D03*
D11*
X306067500Y-134300000D03*
X295907500Y-134300000D03*
D10*
X300987500Y-134300000D03*
D11*
X325117500Y-134300000D03*
X314957500Y-134300000D03*
D10*
X320037500Y-134300000D03*
D15*
X327300000Y-103487500D03*
X322300000Y-103487500D03*
D16*
X330400000Y-110487500D03*
X319200000Y-110487500D03*
D15*
X327300000Y-117987500D03*
X324800000Y-117987500D03*
D14*
X322300000Y-117987500D03*
D11*
X229867500Y-129537500D03*
X219707500Y-129537500D03*
D10*
X224787500Y-129537500D03*
X270031250Y-110487500D03*
D11*
X264951250Y-110487500D03*
X275111250Y-110487500D03*
D10*
X253357380Y-129565400D03*
D11*
X248277380Y-129565400D03*
X258437380Y-129565400D03*
M02*
