M48
; DRILL file {KiCad (5.1.5)-3} date 7/17/2020 3:38:43 PM
; FORMAT={-:-/ absolute / inch / decimal}
; #@! TF.CreationDate,2020-07-17T15:38:43-06:00
; #@! TF.GenerationSoftware,Kicad,Pcbnew,(5.1.5)-3
; #@! TF.FileFunction,NonPlated,1,2,NPTH
FMAT,2
INCH
T1C0.0689
T2C0.1200
T3C0.1570
%
G90
G05
T1
X3.7749Y-3.5999
X4.1749Y-3.5999
X2.6499Y-4.3499
X3.0499Y-4.3499
X8.2749Y-3.5999
X8.6749Y-3.5999
X10.8999Y-5.2874
X11.2999Y-5.2874
X12.5874Y-4.3499
X12.9874Y-4.3499
X2.4624Y-1.1624
X2.8624Y-1.1624
X10.4312Y-4.3499
X10.8312Y-4.3499
X3.9624Y-2.0999
X4.3624Y-2.0999
X10.7134Y-2.0999
X11.1134Y-2.0999
X1.7124Y-2.0999
X2.1124Y-2.0999
X9.5874Y-2.8499
X9.9874Y-2.8499
X8.0874Y-1.1624
X8.4874Y-1.1624
X2.0874Y-2.8499
X2.4874Y-2.8499
X6.9624Y-2.0999
X7.3624Y-2.0999
X7.5249Y-3.5999
X7.9249Y-3.5999
X4.5249Y-3.5999
X4.9249Y-3.5999
X11.6499Y-4.5374
X12.0499Y-4.5374
X0.9624Y-1.1624
X1.3624Y-1.1624
X11.6499Y-5.2874
X12.0499Y-5.2874
X11.4624Y-1.1624
X11.8624Y-1.1624
X12.3999Y-5.2874
X12.7999Y-5.2874
X5.4624Y-2.0999
X5.8624Y-2.0999
X8.4624Y-2.0999
X8.8624Y-2.0999
X9.9624Y-2.0999
X10.3624Y-2.0999
X10.3374Y-2.8499
X10.7374Y-2.8499
X9.0249Y-3.5999
X9.4249Y-3.5999
X3.0249Y-3.5999
X3.4249Y-3.5999
X2.2749Y-5.0999
X2.6749Y-5.0999
X7.8999Y-4.3499
X8.2999Y-4.3499
X10.9937Y-3.5999
X11.3937Y-3.5999
X5.8374Y-1.1624
X6.2374Y-1.1624
X7.1499Y-4.3499
X7.5499Y-4.3499
X0.9624Y-2.0999
X1.3624Y-2.0999
X6.5874Y-2.8499
X6.9874Y-2.8499
X8.8374Y-2.8499
X9.2374Y-2.8499
X7.7124Y-2.0999
X8.1124Y-2.0999
X6.3999Y-4.3499
X6.7999Y-4.3499
X6.7749Y-3.5999
X7.1749Y-3.5999
X9.3999Y-4.3499
X9.7999Y-4.3499
X1.1499Y-5.0999
X1.5499Y-5.0999
X11.0878Y-2.1
X11.4878Y-2.1
X4.7124Y-2.0999
X5.1124Y-2.0999
X3.2124Y-2.0999
X3.6124Y-2.0999
X5.8374Y-2.8499
X6.2374Y-2.8499
X4.3374Y-2.8499
X4.7374Y-2.8499
X12.5874Y-2.8499
X12.9874Y-2.8499
X12.5874Y-3.5999
X12.9874Y-3.5999
X4.1499Y-4.3499
X4.5499Y-4.3499
X5.2749Y-3.5999
X5.6749Y-3.5999
X9.7747Y-5.101
X10.1747Y-5.101
X1.1499Y-2.8499
X1.5499Y-2.8499
X11.2749Y-2.8499
X11.6749Y-2.8499
X2.4624Y-2.0999
X2.8624Y-2.0999
X5.4624Y-5.0999
X5.8624Y-5.0999
X6.2124Y-2.0999
X6.6124Y-2.0999
X10.7124Y-1.1624
X11.1124Y-1.1624
X5.0874Y-2.8499
X5.4874Y-2.8499
X9.2124Y-2.0999
X9.6124Y-2.0999
X6.0249Y-3.5999
X6.4249Y-3.5999
X3.3999Y-4.3499
X3.7999Y-4.3499
X2.2749Y-3.5999
X2.6749Y-3.5999
X1.4312Y-4.3499
X1.8312Y-4.3499
X6.5874Y-1.1624
X6.9874Y-1.1624
X8.6499Y-5.0999
X9.0499Y-5.0999
X4.7124Y-1.1624
X5.1124Y-1.1624
X7.3374Y-1.1624
X7.7374Y-1.1624
X3.5874Y-2.8499
X3.9874Y-2.8499
X8.0874Y-2.8499
X8.4874Y-2.8499
X4.8999Y-4.3499
X5.2999Y-4.3499
X11.4634Y-2.1004
X11.8634Y-2.1004
X9.7749Y-3.5999
X10.1749Y-3.5999
X5.6499Y-4.3499
X6.0499Y-4.3499
X3.2124Y-1.1624
X3.6124Y-1.1624
X8.6499Y-4.3499
X9.0499Y-4.3499
X1.2437Y-3.5999
X1.6437Y-3.5999
X9.9624Y-1.1624
X10.3624Y-1.1624
X3.9624Y-1.1624
X4.3624Y-1.1624
X9.2124Y-1.1624
X9.6124Y-1.1624
X2.8374Y-2.8499
X3.2374Y-2.8499
X7.3374Y-2.8499
X7.7374Y-2.8499
T2
X10.7249Y-3.3249
X11.6624Y-3.3249
X10.819Y-1.825
X11.7565Y-1.825
X3.4124Y-5.3749
X7.9124Y-5.3749
X1.1624Y-4.0749
X2.0999Y-4.0749
T3
X6.5999Y-4.3499
X6.9749Y-3.5999
X9.5999Y-4.3499
X1.3499Y-5.0999
X10.819Y-2.425
X11.2878Y-2.1
X11.7565Y-2.425
X4.9124Y-2.0999
X3.4124Y-2.0999
X6.0374Y-2.8499
X4.5374Y-2.8499
X12.7874Y-2.8499
X12.7874Y-3.5999
X4.3499Y-4.3499
X5.4749Y-3.5999
X9.9747Y-5.101
X1.3499Y-2.8499
X11.4749Y-2.8499
X2.6624Y-2.0999
X3.4124Y-4.7749
X5.6624Y-5.0999
X7.9124Y-4.7749
X6.4124Y-2.0999
X10.9124Y-1.1624
X5.2874Y-2.8499
X9.4124Y-2.0999
X6.2249Y-3.5999
X3.5999Y-4.3499
X2.4749Y-3.5999
X1.1624Y-4.6749
X1.6312Y-4.3499
X2.0999Y-4.6749
X6.7874Y-1.1624
X8.8499Y-5.0999
X4.9124Y-1.1624
X7.5374Y-1.1624
X3.7874Y-2.8499
X8.2874Y-2.8499
X5.0999Y-4.3499
X11.6634Y-2.1004
X9.9749Y-3.5999
X5.8499Y-4.3499
X3.4124Y-1.1624
X8.8499Y-4.3499
X1.4437Y-3.5999
X10.1624Y-1.1624
X4.1624Y-1.1624
X9.4124Y-1.1624
X3.0374Y-2.8499
X7.5374Y-2.8499
X3.9749Y-3.5999
X2.8499Y-4.3499
X8.4749Y-3.5999
X11.0999Y-5.2874
X12.7874Y-4.3499
X2.6624Y-1.1624
X10.6312Y-4.3499
X4.1624Y-2.0999
X10.9134Y-2.0999
X1.9124Y-2.0999
X9.7874Y-2.8499
X8.2874Y-1.1624
X2.2874Y-2.8499
X7.1624Y-2.0999
X7.7249Y-3.5999
X4.7249Y-3.5999
X11.8499Y-4.5374
X1.1624Y-1.1624
X11.8499Y-5.2874
X11.6624Y-1.1624
X12.5999Y-5.2874
X5.6624Y-2.0999
X8.6624Y-2.0999
X10.1624Y-2.0999
X10.5374Y-2.8499
X9.2249Y-3.5999
X3.2249Y-3.5999
X2.4749Y-5.0999
X8.0999Y-4.3499
X10.7249Y-3.9249
X11.1937Y-3.5999
X11.6624Y-3.9249
X6.0374Y-1.1624
X7.3499Y-4.3499
X1.1624Y-2.0999
X6.7874Y-2.8499
X9.0374Y-2.8499
X7.9124Y-2.0999
T0
M30
