G04 #@! TF.GenerationSoftware,KiCad,Pcbnew,(5.1.5)-3*
G04 #@! TF.CreationDate,2020-07-17T15:38:34-06:00*
G04 #@! TF.ProjectId,fernet,6665726e-6574-42e6-9b69-6361645f7063,rev?*
G04 #@! TF.SameCoordinates,Original*
G04 #@! TF.FileFunction,Legend,Top*
G04 #@! TF.FilePolarity,Positive*
%FSLAX46Y46*%
G04 Gerber Fmt 4.6, Leading zero omitted, Abs format (unit mm)*
G04 Created by KiCad (PCBNEW (5.1.5)-3) date 2020-07-17 15:38:34*
%MOMM*%
%LPD*%
G04 APERTURE LIST*
%ADD10C,0.010000*%
%ADD11C,0.120000*%
%ADD12C,0.150000*%
%ADD13C,3.987800*%
%ADD14C,1.750000*%
%ADD15C,3.048000*%
%ADD16R,1.524000X1.524000*%
%ADD17R,2.000000X2.000000*%
%ADD18C,2.000000*%
%ADD19O,2.000000X3.200000*%
%ADD20R,1.600000X1.600000*%
%ADD21C,1.600000*%
G04 APERTURE END LIST*
D10*
G36*
X335516316Y-24324464D02*
G01*
X334114994Y-24490429D01*
X332330998Y-24928547D01*
X330540745Y-25770928D01*
X328925175Y-26920934D01*
X328154876Y-27673640D01*
X326908056Y-29060405D01*
X327669554Y-29307799D01*
X328449119Y-29648289D01*
X329188566Y-30085857D01*
X329946080Y-30616521D01*
X328793524Y-31790891D01*
X327980523Y-32519545D01*
X327406641Y-32811048D01*
X327233905Y-32795981D01*
X326448191Y-32531435D01*
X325912066Y-32547791D01*
X325535295Y-32753577D01*
X325265494Y-32993644D01*
X325210970Y-33270642D01*
X325387737Y-33738971D01*
X325700181Y-34343382D01*
X326148438Y-35243312D01*
X326528031Y-36101084D01*
X326643609Y-36403318D01*
X326932710Y-37232632D01*
X332307895Y-37232632D01*
X332307895Y-38970527D01*
X332298655Y-39904014D01*
X332235577Y-40423856D01*
X332065620Y-40651146D01*
X331735745Y-40706974D01*
X331546673Y-40708421D01*
X330785451Y-40708421D01*
X331476313Y-42104399D01*
X331998105Y-43666030D01*
X332190693Y-45441868D01*
X332050505Y-47221966D01*
X331589563Y-48762201D01*
X330498031Y-50560784D01*
X329042172Y-51997174D01*
X327287584Y-53026621D01*
X325299865Y-53604378D01*
X324343334Y-53705257D01*
X323310246Y-53719850D01*
X322404592Y-53668019D01*
X321880526Y-53575459D01*
X320122140Y-52768238D01*
X318531866Y-51605121D01*
X317220827Y-50190702D01*
X316300145Y-48629578D01*
X316117583Y-48151015D01*
X315752815Y-46239802D01*
X315768351Y-45965818D01*
X319220884Y-45965818D01*
X319296948Y-46579477D01*
X319321620Y-46717460D01*
X319711925Y-47704125D01*
X320436518Y-48714790D01*
X321339062Y-49560776D01*
X322009240Y-49961088D01*
X323174987Y-50258174D01*
X324528947Y-50293371D01*
X325789907Y-50060891D01*
X325851155Y-50040161D01*
X326423628Y-49766406D01*
X326690612Y-49492564D01*
X326693158Y-49470152D01*
X326484526Y-49065644D01*
X325937969Y-48485490D01*
X325172499Y-47831810D01*
X324307126Y-47206726D01*
X323505038Y-46734498D01*
X322752967Y-46417233D01*
X321819059Y-46110177D01*
X320851630Y-45850505D01*
X319998997Y-45675390D01*
X319409476Y-45622007D01*
X319241590Y-45665916D01*
X319220884Y-45965818D01*
X315768351Y-45965818D01*
X315864130Y-44276794D01*
X316420298Y-42379244D01*
X316572916Y-42109375D01*
X320425337Y-42109375D01*
X322437641Y-42689782D01*
X324831363Y-43579460D01*
X326894127Y-44794263D01*
X327762632Y-45475709D01*
X328698421Y-46271068D01*
X328783735Y-45474477D01*
X328710479Y-44729927D01*
X328415749Y-43799000D01*
X328248998Y-43428803D01*
X327336605Y-42128406D01*
X326146125Y-41243128D01*
X324763616Y-40796500D01*
X323275136Y-40812053D01*
X321766743Y-41313319D01*
X321353458Y-41543360D01*
X320425337Y-42109375D01*
X316572916Y-42109375D01*
X317390088Y-40664402D01*
X318414178Y-39528541D01*
X319487733Y-38696677D01*
X320639122Y-38028662D01*
X321706090Y-37608251D01*
X322332642Y-37505872D01*
X322932801Y-37366278D01*
X323099915Y-36940016D01*
X322906214Y-36307516D01*
X322588267Y-35609697D01*
X321432291Y-36744201D01*
X320276316Y-37878705D01*
X319072161Y-36696917D01*
X317868007Y-35515129D01*
X319085667Y-34278879D01*
X319740527Y-33585947D01*
X320022836Y-33116664D01*
X319904574Y-32751816D01*
X319357721Y-32372191D01*
X318538421Y-31950561D01*
X317412465Y-31485500D01*
X316120027Y-31154618D01*
X314563257Y-30943134D01*
X312644305Y-30836266D01*
X311026187Y-30815790D01*
X307417115Y-30815790D01*
X307496716Y-29144737D01*
X307576316Y-27473684D01*
X311987895Y-27498504D01*
X314195596Y-27545810D01*
X315982850Y-27676997D01*
X317460732Y-27917400D01*
X318740320Y-28292354D01*
X319932687Y-28827196D01*
X321148911Y-29547261D01*
X321245041Y-29610000D01*
X322614818Y-30508858D01*
X323715760Y-28287065D01*
X325123660Y-26020268D01*
X326904087Y-24131858D01*
X329033793Y-22640634D01*
X331489528Y-21565393D01*
X332342910Y-21311580D01*
X333332700Y-21090316D01*
X334260879Y-20950809D01*
X334647369Y-20926331D01*
X335516316Y-20923158D01*
X335516316Y-24324464D01*
G37*
X335516316Y-24324464D02*
X334114994Y-24490429D01*
X332330998Y-24928547D01*
X330540745Y-25770928D01*
X328925175Y-26920934D01*
X328154876Y-27673640D01*
X326908056Y-29060405D01*
X327669554Y-29307799D01*
X328449119Y-29648289D01*
X329188566Y-30085857D01*
X329946080Y-30616521D01*
X328793524Y-31790891D01*
X327980523Y-32519545D01*
X327406641Y-32811048D01*
X327233905Y-32795981D01*
X326448191Y-32531435D01*
X325912066Y-32547791D01*
X325535295Y-32753577D01*
X325265494Y-32993644D01*
X325210970Y-33270642D01*
X325387737Y-33738971D01*
X325700181Y-34343382D01*
X326148438Y-35243312D01*
X326528031Y-36101084D01*
X326643609Y-36403318D01*
X326932710Y-37232632D01*
X332307895Y-37232632D01*
X332307895Y-38970527D01*
X332298655Y-39904014D01*
X332235577Y-40423856D01*
X332065620Y-40651146D01*
X331735745Y-40706974D01*
X331546673Y-40708421D01*
X330785451Y-40708421D01*
X331476313Y-42104399D01*
X331998105Y-43666030D01*
X332190693Y-45441868D01*
X332050505Y-47221966D01*
X331589563Y-48762201D01*
X330498031Y-50560784D01*
X329042172Y-51997174D01*
X327287584Y-53026621D01*
X325299865Y-53604378D01*
X324343334Y-53705257D01*
X323310246Y-53719850D01*
X322404592Y-53668019D01*
X321880526Y-53575459D01*
X320122140Y-52768238D01*
X318531866Y-51605121D01*
X317220827Y-50190702D01*
X316300145Y-48629578D01*
X316117583Y-48151015D01*
X315752815Y-46239802D01*
X315768351Y-45965818D01*
X319220884Y-45965818D01*
X319296948Y-46579477D01*
X319321620Y-46717460D01*
X319711925Y-47704125D01*
X320436518Y-48714790D01*
X321339062Y-49560776D01*
X322009240Y-49961088D01*
X323174987Y-50258174D01*
X324528947Y-50293371D01*
X325789907Y-50060891D01*
X325851155Y-50040161D01*
X326423628Y-49766406D01*
X326690612Y-49492564D01*
X326693158Y-49470152D01*
X326484526Y-49065644D01*
X325937969Y-48485490D01*
X325172499Y-47831810D01*
X324307126Y-47206726D01*
X323505038Y-46734498D01*
X322752967Y-46417233D01*
X321819059Y-46110177D01*
X320851630Y-45850505D01*
X319998997Y-45675390D01*
X319409476Y-45622007D01*
X319241590Y-45665916D01*
X319220884Y-45965818D01*
X315768351Y-45965818D01*
X315864130Y-44276794D01*
X316420298Y-42379244D01*
X316572916Y-42109375D01*
X320425337Y-42109375D01*
X322437641Y-42689782D01*
X324831363Y-43579460D01*
X326894127Y-44794263D01*
X327762632Y-45475709D01*
X328698421Y-46271068D01*
X328783735Y-45474477D01*
X328710479Y-44729927D01*
X328415749Y-43799000D01*
X328248998Y-43428803D01*
X327336605Y-42128406D01*
X326146125Y-41243128D01*
X324763616Y-40796500D01*
X323275136Y-40812053D01*
X321766743Y-41313319D01*
X321353458Y-41543360D01*
X320425337Y-42109375D01*
X316572916Y-42109375D01*
X317390088Y-40664402D01*
X318414178Y-39528541D01*
X319487733Y-38696677D01*
X320639122Y-38028662D01*
X321706090Y-37608251D01*
X322332642Y-37505872D01*
X322932801Y-37366278D01*
X323099915Y-36940016D01*
X322906214Y-36307516D01*
X322588267Y-35609697D01*
X321432291Y-36744201D01*
X320276316Y-37878705D01*
X319072161Y-36696917D01*
X317868007Y-35515129D01*
X319085667Y-34278879D01*
X319740527Y-33585947D01*
X320022836Y-33116664D01*
X319904574Y-32751816D01*
X319357721Y-32372191D01*
X318538421Y-31950561D01*
X317412465Y-31485500D01*
X316120027Y-31154618D01*
X314563257Y-30943134D01*
X312644305Y-30836266D01*
X311026187Y-30815790D01*
X307417115Y-30815790D01*
X307496716Y-29144737D01*
X307576316Y-27473684D01*
X311987895Y-27498504D01*
X314195596Y-27545810D01*
X315982850Y-27676997D01*
X317460732Y-27917400D01*
X318740320Y-28292354D01*
X319932687Y-28827196D01*
X321148911Y-29547261D01*
X321245041Y-29610000D01*
X322614818Y-30508858D01*
X323715760Y-28287065D01*
X325123660Y-26020268D01*
X326904087Y-24131858D01*
X329033793Y-22640634D01*
X331489528Y-21565393D01*
X332342910Y-21311580D01*
X333332700Y-21090316D01*
X334260879Y-20950809D01*
X334647369Y-20926331D01*
X335516316Y-20923158D01*
X335516316Y-24324464D01*
D11*
X327800000Y-72387500D02*
G75*
G03X327800000Y-72387500I-3000000J0D01*
G01*
X318900000Y-70387500D02*
X318900000Y-66287500D01*
X330700000Y-66287500D02*
X330700000Y-70387500D01*
X330700000Y-74387500D02*
X330700000Y-78487500D01*
X318900000Y-74387500D02*
X318900000Y-78487500D01*
X318900000Y-78487500D02*
X330700000Y-78487500D01*
X321000000Y-79887500D02*
X320700000Y-80187500D01*
X320700000Y-80187500D02*
X320700000Y-79587500D01*
X320700000Y-79587500D02*
X321000000Y-79887500D01*
X318900000Y-66287500D02*
X321300000Y-66287500D01*
X323500000Y-66287500D02*
X326100000Y-66287500D01*
X328300000Y-66287500D02*
X330700000Y-66287500D01*
X324300000Y-72387500D02*
X325300000Y-72387500D01*
X324800000Y-72887500D02*
X324800000Y-71887500D01*
X327800000Y-91437500D02*
G75*
G03X327800000Y-91437500I-3000000J0D01*
G01*
X318900000Y-89437500D02*
X318900000Y-85337500D01*
X330700000Y-85337500D02*
X330700000Y-89437500D01*
X330700000Y-93437500D02*
X330700000Y-97537500D01*
X318900000Y-93437500D02*
X318900000Y-97537500D01*
X318900000Y-97537500D02*
X330700000Y-97537500D01*
X321000000Y-98937500D02*
X320700000Y-99237500D01*
X320700000Y-99237500D02*
X320700000Y-98637500D01*
X320700000Y-98637500D02*
X321000000Y-98937500D01*
X318900000Y-85337500D02*
X321300000Y-85337500D01*
X323500000Y-85337500D02*
X326100000Y-85337500D01*
X328300000Y-85337500D02*
X330700000Y-85337500D01*
X324300000Y-91437500D02*
X325300000Y-91437500D01*
X324800000Y-91937500D02*
X324800000Y-90937500D01*
X324800000Y-110987500D02*
X324800000Y-109987500D01*
X324300000Y-110487500D02*
X325300000Y-110487500D01*
X328300000Y-104387500D02*
X330700000Y-104387500D01*
X323500000Y-104387500D02*
X326100000Y-104387500D01*
X318900000Y-104387500D02*
X321300000Y-104387500D01*
X320700000Y-117687500D02*
X321000000Y-117987500D01*
X320700000Y-118287500D02*
X320700000Y-117687500D01*
X321000000Y-117987500D02*
X320700000Y-118287500D01*
X318900000Y-116587500D02*
X330700000Y-116587500D01*
X318900000Y-112487500D02*
X318900000Y-116587500D01*
X330700000Y-112487500D02*
X330700000Y-116587500D01*
X330700000Y-104387500D02*
X330700000Y-108487500D01*
X318900000Y-108487500D02*
X318900000Y-104387500D01*
X327800000Y-110487500D02*
G75*
G03X327800000Y-110487500I-3000000J0D01*
G01*
D12*
X318004761Y-78420833D02*
X318052380Y-78277976D01*
X318052380Y-78039880D01*
X318004761Y-77944642D01*
X317957142Y-77897023D01*
X317861904Y-77849404D01*
X317766666Y-77849404D01*
X317671428Y-77897023D01*
X317623809Y-77944642D01*
X317576190Y-78039880D01*
X317528571Y-78230357D01*
X317480952Y-78325595D01*
X317433333Y-78373214D01*
X317338095Y-78420833D01*
X317242857Y-78420833D01*
X317147619Y-78373214D01*
X317100000Y-78325595D01*
X317052380Y-78230357D01*
X317052380Y-77992261D01*
X317100000Y-77849404D01*
X317052380Y-77516071D02*
X318052380Y-77277976D01*
X317338095Y-77087500D01*
X318052380Y-76897023D01*
X317052380Y-76658928D01*
X317147619Y-76325595D02*
X317100000Y-76277976D01*
X317052380Y-76182738D01*
X317052380Y-75944642D01*
X317100000Y-75849404D01*
X317147619Y-75801785D01*
X317242857Y-75754166D01*
X317338095Y-75754166D01*
X317480952Y-75801785D01*
X318052380Y-76373214D01*
X318052380Y-75754166D01*
X318004761Y-97470833D02*
X318052380Y-97327976D01*
X318052380Y-97089880D01*
X318004761Y-96994642D01*
X317957142Y-96947023D01*
X317861904Y-96899404D01*
X317766666Y-96899404D01*
X317671428Y-96947023D01*
X317623809Y-96994642D01*
X317576190Y-97089880D01*
X317528571Y-97280357D01*
X317480952Y-97375595D01*
X317433333Y-97423214D01*
X317338095Y-97470833D01*
X317242857Y-97470833D01*
X317147619Y-97423214D01*
X317100000Y-97375595D01*
X317052380Y-97280357D01*
X317052380Y-97042261D01*
X317100000Y-96899404D01*
X317052380Y-96566071D02*
X318052380Y-96327976D01*
X317338095Y-96137500D01*
X318052380Y-95947023D01*
X317052380Y-95708928D01*
X318052380Y-94804166D02*
X318052380Y-95375595D01*
X318052380Y-95089880D02*
X317052380Y-95089880D01*
X317195238Y-95185119D01*
X317290476Y-95280357D01*
X317338095Y-95375595D01*
X256114880Y-111249404D02*
X255114880Y-111249404D01*
X256114880Y-110677976D02*
X255543452Y-111106547D01*
X255114880Y-110677976D02*
X255686309Y-111249404D01*
X60852380Y-54099404D02*
X59852380Y-54099404D01*
X60852380Y-53527976D02*
X60280952Y-53956547D01*
X59852380Y-53527976D02*
X60423809Y-54099404D01*
X118002380Y-54099404D02*
X117002380Y-54099404D01*
X118002380Y-53527976D02*
X117430952Y-53956547D01*
X117002380Y-53527976D02*
X117573809Y-54099404D01*
X156102380Y-54099404D02*
X155102380Y-54099404D01*
X156102380Y-53527976D02*
X155530952Y-53956547D01*
X155102380Y-53527976D02*
X155673809Y-54099404D01*
X194202380Y-54099404D02*
X193202380Y-54099404D01*
X194202380Y-53527976D02*
X193630952Y-53956547D01*
X193202380Y-53527976D02*
X193773809Y-54099404D01*
X98952380Y-30286904D02*
X97952380Y-30286904D01*
X98952380Y-29715476D02*
X98380952Y-30144047D01*
X97952380Y-29715476D02*
X98523809Y-30286904D01*
X165627380Y-30286904D02*
X164627380Y-30286904D01*
X165627380Y-29715476D02*
X165055952Y-30144047D01*
X164627380Y-29715476D02*
X165198809Y-30286904D01*
X184677380Y-30286904D02*
X183677380Y-30286904D01*
X184677380Y-29715476D02*
X184105952Y-30144047D01*
X183677380Y-29715476D02*
X184248809Y-30286904D01*
X232302380Y-30286904D02*
X231302380Y-30286904D01*
X232302380Y-29715476D02*
X231730952Y-30144047D01*
X231302380Y-29715476D02*
X231873809Y-30286904D01*
X251352380Y-30286904D02*
X250352380Y-30286904D01*
X251352380Y-29715476D02*
X250780952Y-30144047D01*
X250352380Y-29715476D02*
X250923809Y-30286904D01*
X270402380Y-30286904D02*
X269402380Y-30286904D01*
X270402380Y-29715476D02*
X269830952Y-30144047D01*
X269402380Y-29715476D02*
X269973809Y-30286904D01*
%LPC*%
D13*
X286710000Y-53340000D03*
D14*
X281630000Y-53340000D03*
X291790000Y-53340000D03*
D15*
X274803750Y-46355000D03*
X298616250Y-46355000D03*
D13*
X274803750Y-61595000D03*
X298616250Y-61595000D03*
D16*
X330500000Y-61778000D03*
X330500000Y-60000000D03*
X330500000Y-58222000D03*
D17*
X322300000Y-79887500D03*
D18*
X324800000Y-79887500D03*
X327300000Y-79887500D03*
D19*
X319200000Y-72387500D03*
X330400000Y-72387500D03*
D18*
X322300000Y-65387500D03*
X327300000Y-65387500D03*
D17*
X322300000Y-98937500D03*
D18*
X324800000Y-98937500D03*
X327300000Y-98937500D03*
D19*
X319200000Y-91437500D03*
X330400000Y-91437500D03*
D18*
X322300000Y-84437500D03*
X327300000Y-84437500D03*
D20*
X20320000Y-31840000D03*
D21*
X20320000Y-24040000D03*
D14*
X282280000Y-53337500D03*
X272120000Y-53337500D03*
D13*
X277200000Y-53337500D03*
D14*
X301330000Y-53350000D03*
X291170000Y-53350000D03*
D13*
X296250000Y-53350000D03*
D20*
X305650000Y-57750000D03*
D21*
X305650000Y-49950000D03*
D20*
X253862500Y-114887500D03*
D21*
X253862500Y-107087500D03*
D20*
X211000000Y-57737500D03*
D21*
X211000000Y-49937500D03*
D20*
X39550000Y-57737500D03*
D21*
X39550000Y-49937500D03*
D20*
X58600000Y-57737500D03*
D21*
X58600000Y-49937500D03*
D20*
X77650000Y-57737500D03*
D21*
X77650000Y-49937500D03*
D20*
X96700000Y-57737500D03*
D21*
X96700000Y-49937500D03*
D20*
X115750000Y-57737500D03*
D21*
X115750000Y-49937500D03*
D20*
X134800000Y-57737500D03*
D21*
X134800000Y-49937500D03*
D20*
X153850000Y-57737500D03*
D21*
X153850000Y-49937500D03*
D20*
X172900000Y-57737500D03*
D21*
X172900000Y-49937500D03*
D20*
X191950000Y-57737500D03*
D21*
X191950000Y-49937500D03*
D20*
X211000000Y-133937500D03*
D21*
X211000000Y-126137500D03*
D20*
X58600000Y-33925000D03*
D21*
X58600000Y-26125000D03*
D20*
X77650000Y-33925000D03*
D21*
X77650000Y-26125000D03*
D20*
X96700000Y-33925000D03*
D21*
X96700000Y-26125000D03*
D20*
X115750000Y-33925000D03*
D21*
X115750000Y-26125000D03*
D20*
X144325000Y-33925000D03*
D21*
X144325000Y-26125000D03*
D20*
X163375000Y-33925000D03*
D21*
X163375000Y-26125000D03*
D20*
X182425000Y-33925000D03*
D21*
X182425000Y-26125000D03*
D20*
X201475000Y-33925000D03*
D21*
X201475000Y-26125000D03*
D20*
X230050000Y-33925000D03*
D21*
X230050000Y-26125000D03*
D20*
X249100000Y-33925000D03*
D21*
X249100000Y-26125000D03*
D20*
X268150000Y-33925000D03*
D21*
X268150000Y-26125000D03*
D20*
X287200000Y-33925000D03*
D21*
X287200000Y-26125000D03*
D20*
X240050320Y-133955620D03*
D21*
X240050320Y-126155620D03*
D20*
X311012500Y-138700000D03*
D21*
X311012500Y-130900000D03*
D20*
X291962500Y-138700000D03*
D21*
X291962500Y-130900000D03*
D20*
X272912500Y-138700000D03*
D21*
X272912500Y-130900000D03*
D20*
X77650000Y-133937500D03*
D21*
X77650000Y-126137500D03*
D20*
X49075000Y-133937500D03*
D21*
X49075000Y-126137500D03*
D20*
X20500000Y-133937500D03*
D21*
X20500000Y-126137500D03*
D20*
X291962500Y-119650000D03*
D21*
X291962500Y-111850000D03*
D20*
X315775000Y-114887500D03*
D21*
X315775000Y-107087500D03*
D20*
X234812500Y-114887500D03*
D21*
X234812500Y-107087500D03*
D20*
X215762500Y-114887500D03*
D21*
X215762500Y-107087500D03*
D20*
X196712500Y-114887500D03*
D21*
X196712500Y-107087500D03*
D20*
X177662500Y-114887500D03*
D21*
X177662500Y-107087500D03*
D20*
X158612500Y-114887500D03*
D21*
X158612500Y-107087500D03*
D20*
X139562500Y-114887500D03*
D21*
X139562500Y-107087500D03*
D20*
X120512500Y-114887500D03*
D21*
X120512500Y-107087500D03*
D20*
X101462500Y-114887500D03*
D21*
X101462500Y-107087500D03*
D20*
X82412500Y-114887500D03*
D21*
X82412500Y-107087500D03*
D20*
X63362500Y-114887500D03*
D21*
X63362500Y-107087500D03*
D20*
X20500000Y-114887500D03*
D21*
X20500000Y-107087500D03*
D20*
X315775000Y-95837500D03*
D21*
X315775000Y-88037500D03*
D20*
X263387500Y-95837500D03*
D21*
X263387500Y-88037500D03*
D20*
X244337500Y-95837500D03*
D21*
X244337500Y-88037500D03*
D20*
X225287500Y-95837500D03*
D21*
X225287500Y-88037500D03*
D20*
X206237500Y-95837500D03*
D21*
X206237500Y-88037500D03*
D20*
X187187500Y-95837500D03*
D21*
X187187500Y-88037500D03*
D20*
X168137500Y-95837500D03*
D21*
X168137500Y-88037500D03*
D20*
X149087500Y-95837500D03*
D21*
X149087500Y-88037500D03*
D20*
X130037500Y-95837500D03*
D21*
X130037500Y-88037500D03*
D20*
X110987500Y-95837500D03*
D21*
X110987500Y-88037500D03*
D20*
X91937500Y-95837500D03*
D21*
X91937500Y-88037500D03*
D20*
X72887500Y-95837500D03*
D21*
X72887500Y-88037500D03*
D20*
X53837500Y-95837500D03*
D21*
X53837500Y-88037500D03*
D20*
X20500000Y-95837500D03*
D21*
X20500000Y-88037500D03*
D20*
X315775000Y-76787500D03*
D21*
X315775000Y-68987500D03*
D20*
X277675000Y-76787500D03*
D21*
X277675000Y-68987500D03*
D20*
X258625000Y-76787500D03*
D21*
X258625000Y-68987500D03*
D20*
X239575000Y-76787500D03*
D21*
X239575000Y-68987500D03*
D20*
X220525000Y-76787500D03*
D21*
X220525000Y-68987500D03*
D20*
X201475000Y-76787500D03*
D21*
X201475000Y-68987500D03*
D20*
X182425000Y-76787500D03*
D21*
X182425000Y-68987500D03*
D20*
X163375000Y-76787500D03*
D21*
X163375000Y-68987500D03*
D20*
X144325000Y-76787500D03*
D21*
X144325000Y-68987500D03*
D20*
X125275000Y-76787500D03*
D21*
X125275000Y-68987500D03*
D20*
X106225000Y-76787500D03*
D21*
X106225000Y-68987500D03*
D20*
X87175000Y-76787500D03*
D21*
X87175000Y-68987500D03*
D20*
X68125000Y-76787500D03*
D21*
X68125000Y-68987500D03*
D20*
X49075000Y-76787500D03*
D21*
X49075000Y-68987500D03*
D20*
X20500000Y-76787500D03*
D21*
X20500000Y-68987500D03*
D20*
X268150000Y-57737500D03*
D21*
X268150000Y-49937500D03*
D20*
X249100000Y-57737500D03*
D21*
X249100000Y-49937500D03*
D20*
X230050000Y-57737500D03*
D21*
X230050000Y-49937500D03*
D20*
X20500000Y-54540000D03*
D21*
X20500000Y-46740000D03*
D13*
X200975000Y-121282500D03*
X86675000Y-121282500D03*
D15*
X200975000Y-136522500D03*
X86675000Y-136522500D03*
D14*
X148905000Y-129537500D03*
X138745000Y-129537500D03*
D13*
X143825000Y-129537500D03*
D14*
X41748750Y-91437500D03*
X31588750Y-91437500D03*
D13*
X36668750Y-91437500D03*
X296225000Y-99692500D03*
X272412500Y-99692500D03*
D15*
X296225000Y-84452500D03*
X272412500Y-84452500D03*
D14*
X289398750Y-91437500D03*
X279238750Y-91437500D03*
D13*
X284318750Y-91437500D03*
X53337500Y-118742500D03*
X29525000Y-118742500D03*
D15*
X53337500Y-103502500D03*
X29525000Y-103502500D03*
D14*
X46511250Y-110487500D03*
X36351250Y-110487500D03*
D13*
X41431250Y-110487500D03*
D14*
X39367500Y-72387500D03*
X29207500Y-72387500D03*
D13*
X34287500Y-72387500D03*
D14*
X296542500Y-72387500D03*
X286382500Y-72387500D03*
D13*
X291462500Y-72387500D03*
D14*
X39367500Y-129537500D03*
X29207500Y-129537500D03*
D13*
X34287500Y-129537500D03*
D14*
X67942500Y-129537500D03*
X57782500Y-129537500D03*
D13*
X62862500Y-129537500D03*
D14*
X34605000Y-29525000D03*
X24445000Y-29525000D03*
D13*
X29525000Y-29525000D03*
D14*
X72705000Y-29525000D03*
X62545000Y-29525000D03*
D13*
X67625000Y-29525000D03*
D14*
X91755000Y-29525000D03*
X81595000Y-29525000D03*
D13*
X86675000Y-29525000D03*
D14*
X110805000Y-29525000D03*
X100645000Y-29525000D03*
D13*
X105725000Y-29525000D03*
D14*
X129855000Y-29525000D03*
X119695000Y-29525000D03*
D13*
X124775000Y-29525000D03*
D14*
X158430000Y-29525000D03*
X148270000Y-29525000D03*
D13*
X153350000Y-29525000D03*
D14*
X177480000Y-29525000D03*
X167320000Y-29525000D03*
D13*
X172400000Y-29525000D03*
D14*
X196530000Y-29525000D03*
X186370000Y-29525000D03*
D13*
X191450000Y-29525000D03*
D14*
X215580000Y-29525000D03*
X205420000Y-29525000D03*
D13*
X210500000Y-29525000D03*
D14*
X244155000Y-29525000D03*
X233995000Y-29525000D03*
D13*
X239075000Y-29525000D03*
D14*
X263205000Y-29525000D03*
X253045000Y-29525000D03*
D13*
X258125000Y-29525000D03*
D14*
X282255000Y-29525000D03*
X272095000Y-29525000D03*
D13*
X277175000Y-29525000D03*
D14*
X301305000Y-29525000D03*
X291145000Y-29525000D03*
D13*
X296225000Y-29525000D03*
D14*
X34605000Y-53337500D03*
X24445000Y-53337500D03*
D13*
X29525000Y-53337500D03*
D14*
X53655000Y-53337500D03*
X43495000Y-53337500D03*
D13*
X48575000Y-53337500D03*
D14*
X72705000Y-53337500D03*
X62545000Y-53337500D03*
D13*
X67625000Y-53337500D03*
D14*
X91755000Y-53337500D03*
X81595000Y-53337500D03*
D13*
X86675000Y-53337500D03*
D14*
X110805000Y-53337500D03*
X100645000Y-53337500D03*
D13*
X105725000Y-53337500D03*
D14*
X129855000Y-53337500D03*
X119695000Y-53337500D03*
D13*
X124775000Y-53337500D03*
D14*
X148905000Y-53337500D03*
X138745000Y-53337500D03*
D13*
X143825000Y-53337500D03*
D14*
X167955000Y-53337500D03*
X157795000Y-53337500D03*
D13*
X162875000Y-53337500D03*
D14*
X187005000Y-53337500D03*
X176845000Y-53337500D03*
D13*
X181925000Y-53337500D03*
D14*
X206055000Y-53337500D03*
X195895000Y-53337500D03*
D13*
X200975000Y-53337500D03*
D14*
X225105000Y-53337500D03*
X214945000Y-53337500D03*
D13*
X220025000Y-53337500D03*
D14*
X244155000Y-53337500D03*
X233995000Y-53337500D03*
D13*
X239075000Y-53337500D03*
D14*
X263205000Y-53337500D03*
X253045000Y-53337500D03*
D13*
X258125000Y-53337500D03*
D14*
X63180000Y-72387500D03*
X53020000Y-72387500D03*
D13*
X58100000Y-72387500D03*
D14*
X82230000Y-72387500D03*
X72070000Y-72387500D03*
D13*
X77150000Y-72387500D03*
D14*
X101280000Y-72387500D03*
X91120000Y-72387500D03*
D13*
X96200000Y-72387500D03*
D14*
X120330000Y-72387500D03*
X110170000Y-72387500D03*
D13*
X115250000Y-72387500D03*
D14*
X139380000Y-72387500D03*
X129220000Y-72387500D03*
D13*
X134300000Y-72387500D03*
D14*
X158430000Y-72387500D03*
X148270000Y-72387500D03*
D13*
X153350000Y-72387500D03*
D14*
X177480000Y-72387500D03*
X167320000Y-72387500D03*
D13*
X172400000Y-72387500D03*
D14*
X196530000Y-72387500D03*
X186370000Y-72387500D03*
D13*
X191450000Y-72387500D03*
D14*
X215580000Y-72387500D03*
X205420000Y-72387500D03*
D13*
X210500000Y-72387500D03*
D14*
X234630000Y-72387500D03*
X224470000Y-72387500D03*
D13*
X229550000Y-72387500D03*
D14*
X253680000Y-72387500D03*
X243520000Y-72387500D03*
D13*
X248600000Y-72387500D03*
D14*
X272730000Y-72387500D03*
X262570000Y-72387500D03*
D13*
X267650000Y-72387500D03*
D14*
X329880000Y-72387500D03*
X319720000Y-72387500D03*
D13*
X324800000Y-72387500D03*
D14*
X67942500Y-91437500D03*
X57782500Y-91437500D03*
D13*
X62862500Y-91437500D03*
D14*
X86992500Y-91437500D03*
X76832500Y-91437500D03*
D13*
X81912500Y-91437500D03*
D14*
X106042500Y-91437500D03*
X95882500Y-91437500D03*
D13*
X100962500Y-91437500D03*
D14*
X125092500Y-91437500D03*
X114932500Y-91437500D03*
D13*
X120012500Y-91437500D03*
D14*
X144142500Y-91437500D03*
X133982500Y-91437500D03*
D13*
X139062500Y-91437500D03*
D14*
X163192500Y-91437500D03*
X153032500Y-91437500D03*
D13*
X158112500Y-91437500D03*
D14*
X182242500Y-91437500D03*
X172082500Y-91437500D03*
D13*
X177162500Y-91437500D03*
D14*
X201292500Y-91437500D03*
X191132500Y-91437500D03*
D13*
X196212500Y-91437500D03*
D14*
X220342500Y-91437500D03*
X210182500Y-91437500D03*
D13*
X215262500Y-91437500D03*
D14*
X239392500Y-91437500D03*
X229232500Y-91437500D03*
D13*
X234312500Y-91437500D03*
D14*
X258442500Y-91437500D03*
X248282500Y-91437500D03*
D13*
X253362500Y-91437500D03*
D14*
X329880000Y-91437500D03*
X319720000Y-91437500D03*
D13*
X324800000Y-91437500D03*
D14*
X77467500Y-110487500D03*
X67307500Y-110487500D03*
D13*
X72387500Y-110487500D03*
D14*
X96517500Y-110487500D03*
X86357500Y-110487500D03*
D13*
X91437500Y-110487500D03*
D14*
X115567500Y-110487500D03*
X105407500Y-110487500D03*
D13*
X110487500Y-110487500D03*
D14*
X134617500Y-110487500D03*
X124457500Y-110487500D03*
D13*
X129537500Y-110487500D03*
D14*
X153667500Y-110487500D03*
X143507500Y-110487500D03*
D13*
X148587500Y-110487500D03*
D14*
X172717500Y-110487500D03*
X162557500Y-110487500D03*
D13*
X167637500Y-110487500D03*
D14*
X191767500Y-110487500D03*
X181607500Y-110487500D03*
D13*
X186687500Y-110487500D03*
D14*
X210817500Y-110487500D03*
X200657500Y-110487500D03*
D13*
X205737500Y-110487500D03*
D14*
X229867500Y-110487500D03*
X219707500Y-110487500D03*
D13*
X224787500Y-110487500D03*
D14*
X248917500Y-110487500D03*
X238757500Y-110487500D03*
D13*
X243837500Y-110487500D03*
D14*
X329880000Y-110487500D03*
X319720000Y-110487500D03*
D13*
X324800000Y-110487500D03*
D14*
X306067500Y-115250000D03*
X295907500Y-115250000D03*
D13*
X300987500Y-115250000D03*
D14*
X287017500Y-134300000D03*
X276857500Y-134300000D03*
D13*
X281937500Y-134300000D03*
D14*
X306067500Y-134300000D03*
X295907500Y-134300000D03*
D13*
X300987500Y-134300000D03*
D14*
X325117500Y-134300000D03*
X314957500Y-134300000D03*
D13*
X320037500Y-134300000D03*
D18*
X327300000Y-103487500D03*
X322300000Y-103487500D03*
D19*
X330400000Y-110487500D03*
X319200000Y-110487500D03*
D18*
X327300000Y-117987500D03*
X324800000Y-117987500D03*
D17*
X322300000Y-117987500D03*
D14*
X229867500Y-129537500D03*
X219707500Y-129537500D03*
D13*
X224787500Y-129537500D03*
X270031250Y-110487500D03*
D14*
X264951250Y-110487500D03*
X275111250Y-110487500D03*
D13*
X253357380Y-129565400D03*
D14*
X248277380Y-129565400D03*
X258437380Y-129565400D03*
M02*
