M48
; DRILL file {KiCad (5.1.5)-3} date 7/17/2020 3:38:43 PM
; FORMAT={-:-/ absolute / inch / decimal}
; #@! TF.CreationDate,2020-07-17T15:38:43-06:00
; #@! TF.GenerationSoftware,Kicad,Pcbnew,(5.1.5)-3
; #@! TF.FileFunction,Plated,1,2,PTH
FMAT,2
INCH
T1C0.0157
T2C0.0394
T3C0.0579
T4C0.0591
%
G90
G05
T1
X1.0827Y-1.5551
X2.5984Y-1.5354
X3.3465Y-1.5354
X4.0748Y-1.5157
X4.8031Y-1.5157
X5.9646Y-1.4961
X6.7323Y-1.4961
X7.4606Y-1.4961
X8.2087Y-1.4764
X9.311Y-1.4567
X10.0787Y-1.437
X10.8268Y-1.378
X11.6142Y-1.3976
X11.7126Y-1.3691
X12.2156Y-2.9331
X12.2441Y-2.5787
X12.2441Y-3.6811
X12.2835Y-4.5472
X12.3228Y-5.3543
X12.3327Y-2.1063
X12.4606Y-0.7693
X12.5591Y-2.2835
X12.5689Y-1.1319
X12.7165Y-2.4114
X12.8061Y-1.7717
X12.8346Y-1.8091
X12.8642Y-1.2992
X12.8711Y-1.8376
X12.9106Y-1.8504
X12.9391Y-1.8898
X13.0315Y-1.752
X13.0807Y-1.8602
X13.0906Y-2.0276
X13.1321Y-2.1292
X13.2172Y-2.1739
T2
X13.0118Y-2.2922
X13.0118Y-2.3622
X13.0118Y-2.4322
X10.5571Y-1.966
X10.5571Y-2.2731
X2.1196Y-3.466
X2.1196Y-3.7731
X5.8696Y-3.466
X5.8696Y-3.7731
X9.4321Y-2.716
X9.4321Y-3.0231
X2.4946Y-4.216
X2.4946Y-4.5231
X4.9321Y-2.716
X4.9321Y-3.0231
X1.5571Y-1.966
X1.5571Y-2.2731
X2.3071Y-1.0285
X2.3071Y-1.3356
X1.9321Y-4.966
X1.9321Y-5.2731
X12.4321Y-4.216
X12.4321Y-4.5231
X7.9321Y-1.0285
X7.9321Y-1.3356
X9.8071Y-1.966
X9.8071Y-2.2731
X7.7446Y-4.216
X7.7446Y-4.5231
X2.8696Y-3.466
X2.8696Y-3.7731
X6.6196Y-3.466
X6.6196Y-3.7731
X10.1821Y-2.716
X10.1821Y-3.0231
X3.2446Y-4.216
X3.2446Y-4.5231
X5.6821Y-2.716
X5.6821Y-3.0231
X8.3071Y-4.966
X8.3071Y-5.2731
X9.9946Y-4.216
X9.9946Y-4.5231
X6.8071Y-1.966
X6.8071Y-2.2731
X9.4508Y-4.9668
X9.4508Y-5.2738
X10.7446Y-5.1535
X10.7446Y-5.4606
X12.689Y-4.0743
X12.689Y-4.6452
X12.7874Y-4.6452
X12.8858Y-4.0743
X12.8858Y-4.6452
X2.6821Y-2.716
X2.6821Y-3.0231
X0.8Y-0.9465
X0.8Y-1.2535
X3.9946Y-4.216
X3.9946Y-4.5231
X0.8071Y-3.466
X0.8071Y-3.7731
X8.1196Y-3.466
X8.1196Y-3.7731
X12.4321Y-2.716
X12.4321Y-3.0231
X6.2446Y-4.216
X6.2446Y-4.5231
X8.6821Y-2.716
X8.6821Y-3.0231
X5.3071Y-1.966
X5.3071Y-2.2731
X8.3071Y-1.966
X8.3071Y-2.2731
X3.8071Y-1.966
X3.8071Y-2.2731
X9.0571Y-1.0285
X9.0571Y-1.3356
X5.6821Y-1.0285
X5.6821Y-1.3356
X12.689Y-2.5743
X12.689Y-3.1452
X12.7874Y-3.1452
X12.8858Y-2.5743
X12.8858Y-3.1452
X4.7446Y-4.216
X4.7446Y-4.5231
X4.3696Y-3.466
X4.3696Y-3.7731
X8.8696Y-3.466
X8.8696Y-3.7731
X10.9321Y-2.716
X10.9321Y-3.0231
X8.4946Y-4.216
X8.4946Y-4.5231
X7.9321Y-2.716
X7.9321Y-3.0231
X12.0335Y-1.9665
X12.0335Y-2.2736
X3.0571Y-1.0285
X3.0571Y-1.3356
X3.0571Y-1.966
X3.0571Y-2.2731
X7.1821Y-1.0285
X7.1821Y-1.3356
X0.8071Y-2.716
X0.8071Y-3.0231
X12.2446Y-5.1535
X12.2446Y-5.4606
X0.8071Y-1.8402
X0.8071Y-2.1472
X12.689Y-3.3243
X12.689Y-3.8952
X12.7874Y-3.8952
X12.8858Y-3.3243
X12.8858Y-3.8952
X6.9946Y-4.216
X6.9946Y-4.5231
X6.4321Y-2.716
X6.4321Y-3.0231
X9.6196Y-3.466
X9.6196Y-3.7731
X3.4321Y-2.716
X3.4321Y-3.0231
X12.4321Y-3.466
X12.4321Y-3.7731
X4.5571Y-1.0285
X4.5571Y-1.3356
X4.5571Y-1.966
X4.5571Y-2.2731
X2.3071Y-1.966
X2.3071Y-2.2731
X11.3071Y-1.0285
X11.3071Y-1.3356
X6.4321Y-1.0285
X6.4321Y-1.3356
X11.4946Y-4.4035
X11.4946Y-4.7106
X7.3696Y-3.466
X7.3696Y-3.7731
X7.1821Y-2.716
X7.1821Y-3.0231
X10.3696Y-3.466
X10.3696Y-3.7731
X4.1821Y-2.716
X4.1821Y-3.0231
X3.8071Y-1.0285
X3.8071Y-1.3356
X6.0571Y-1.966
X6.0571Y-2.2731
X3.0571Y-4.966
X3.0571Y-5.2731
X11.4946Y-5.1535
X11.4946Y-5.4606
X1.9321Y-2.716
X1.9321Y-3.0231
X10.5571Y-1.0285
X10.5571Y-1.3356
X9.0571Y-1.966
X9.0571Y-2.2731
X5.4946Y-4.216
X5.4946Y-4.5231
X3.6196Y-3.466
X3.6196Y-3.7731
X0.8071Y-4.216
X0.8071Y-4.5231
X5.1196Y-3.466
X5.1196Y-3.7731
X7.5571Y-1.966
X7.5571Y-2.2731
X0.8071Y-4.966
X0.8071Y-5.2731
X9.2446Y-4.216
X9.2446Y-4.5231
X9.8071Y-1.0285
X9.8071Y-1.3356
T3
X7.5749Y-3.4999
X7.8249Y-3.3999
X4.5749Y-3.4999
X4.8249Y-3.3999
X11.6999Y-4.4374
X11.9499Y-4.3374
X1.0124Y-1.0624
X1.2624Y-0.9624
X11.6999Y-5.1874
X11.9499Y-5.0874
X11.5124Y-1.0624
X11.7624Y-0.9624
X12.4499Y-5.1874
X12.6999Y-5.0874
X5.5124Y-1.9999
X5.7624Y-1.8999
X8.5124Y-1.9999
X8.7624Y-1.8999
X10.0124Y-1.9999
X10.2624Y-1.8999
X10.3874Y-2.7499
X10.6374Y-2.6499
X9.0749Y-3.4999
X9.3249Y-3.3999
X3.0749Y-3.4999
X3.3249Y-3.3999
X2.3249Y-4.9999
X2.5749Y-4.8999
X7.9499Y-4.2499
X8.1999Y-4.1499
X11.0437Y-3.4999
X11.2937Y-3.3999
X5.8874Y-1.0624
X6.1374Y-0.9624
X7.1999Y-4.2499
X7.4499Y-4.1499
X1.0124Y-1.9999
X1.2624Y-1.8999
X6.6374Y-2.7499
X6.8874Y-2.6499
X8.8874Y-2.7499
X9.1374Y-2.6499
X7.7624Y-1.9999
X8.0124Y-1.8999
X6.4499Y-4.2499
X6.6999Y-4.1499
X6.8249Y-3.4999
X7.0749Y-3.3999
X9.4499Y-4.2499
X9.6999Y-4.1499
X1.1999Y-4.9999
X1.4499Y-4.8999
X11.1378Y-2.0
X11.3878Y-1.9
X4.7624Y-1.9999
X5.0124Y-1.8999
X3.2624Y-1.9999
X3.5124Y-1.8999
X5.8874Y-2.7499
X6.1374Y-2.6499
X4.3874Y-2.7499
X4.6374Y-2.6499
X12.6374Y-2.7499
X12.8874Y-2.6499
X12.6374Y-3.4999
X12.8874Y-3.3999
X4.1999Y-4.2499
X4.4499Y-4.1499
X5.3249Y-3.4999
X5.5749Y-3.3999
X9.8247Y-5.001
X10.0747Y-4.901
X1.1999Y-2.7499
X1.4499Y-2.6499
X11.3249Y-2.7499
X11.5749Y-2.6499
X2.5124Y-1.9999
X2.7624Y-1.8999
X5.5124Y-4.9999
X5.7624Y-4.8999
X6.2624Y-1.9999
X6.5124Y-1.8999
X10.7624Y-1.0624
X11.0124Y-0.9624
X5.1374Y-2.7499
X5.3874Y-2.6499
X9.2624Y-1.9999
X9.5124Y-1.8999
X6.0749Y-3.4999
X6.3249Y-3.3999
X3.4499Y-4.2499
X3.6999Y-4.1499
X2.3249Y-3.4999
X2.5749Y-3.3999
X1.4812Y-4.2499
X1.7312Y-4.1499
X6.6374Y-1.0624
X6.8874Y-0.9624
X8.6999Y-4.9999
X8.9499Y-4.8999
X4.7624Y-1.0624
X5.0124Y-0.9624
X7.3874Y-1.0624
X7.6374Y-0.9624
X3.6374Y-2.7499
X3.8874Y-2.6499
X8.1374Y-2.7499
X8.3874Y-2.6499
X4.9499Y-4.2499
X5.1999Y-4.1499
X11.5134Y-2.0004
X11.7634Y-1.9004
X9.8249Y-3.4999
X10.0749Y-3.3999
X5.6999Y-4.2499
X5.9499Y-4.1499
X3.2624Y-1.0624
X3.5124Y-0.9624
X8.6999Y-4.2499
X8.9499Y-4.1499
X1.2937Y-3.4999
X1.5437Y-3.3999
X10.0124Y-1.0624
X10.2624Y-0.9624
X4.0124Y-1.0624
X4.2624Y-0.9624
X9.2624Y-1.0624
X9.5124Y-0.9624
X2.8874Y-2.7499
X3.1374Y-2.6499
X7.3874Y-2.7499
X7.6374Y-2.6499
X3.8249Y-3.4999
X4.0749Y-3.3999
X2.6999Y-4.2499
X2.9499Y-4.1499
X8.3249Y-3.4999
X8.5749Y-3.3999
X10.9499Y-5.1874
X11.1999Y-5.0874
X12.6374Y-4.2499
X12.8874Y-4.1499
X2.5124Y-1.0624
X2.7624Y-0.9624
X10.4812Y-4.2499
X10.7312Y-4.1499
X4.0124Y-1.9999
X4.2624Y-1.8999
X10.7634Y-1.9999
X11.0134Y-1.8999
X1.7624Y-1.9999
X2.0124Y-1.8999
X9.6374Y-2.7499
X9.8874Y-2.6499
X8.1374Y-1.0624
X8.3874Y-0.9624
X2.1374Y-2.7499
X2.3874Y-2.6499
X7.0124Y-1.9999
X7.2624Y-1.8999
T4
G00X12.5669Y-4.3755
M15
G01X12.5669Y-4.3243
M16
G05
G00X13.0079Y-4.3755
M15
G01X13.0079Y-4.3243
M16
G05
G00X12.5669Y-2.8755
M15
G01X12.5669Y-2.8243
M16
G05
G00X13.0079Y-2.8755
M15
G01X13.0079Y-2.8243
M16
G05
G00X12.5669Y-3.6255
M15
G01X12.5669Y-3.5743
M16
G05
G00X13.0079Y-3.6255
M15
G01X13.0079Y-3.5743
M16
G05
T0
M30
