M48
;DRILL file {KiCad (5.0.0)} date 09/24/18 14:54:41
;FORMAT={-:-/ absolute / inch / decimal}
FMAT,2
INCH,TZ
T1C0.0157
T2C0.0276
T3C0.0430
T4C0.0579
T5C0.0591
%
G90
G05
M72
T1
X3.7697Y-5.2165
X3.8976Y-5.187
X4.1929Y-2.3325
X4.1929Y-2.2932
X4.1929Y-2.4114
X4.193Y-2.3719
X4.2618Y-2.9331
X4.2716Y-3.9667
X4.2717Y-4.0454
X4.2717Y-3.9272
X4.2717Y-4.006
X4.2972Y-4.4685
X4.3012Y-2.9331
X4.3258Y-4.4371
X4.3406Y-2.9331
X4.3543Y-4.4673
X4.3799Y-2.9331
X4.3829Y-4.4365
X4.4114Y-4.4681
X4.4193Y-2.9331
X4.44Y-4.4321
X4.4587Y-2.9331
X4.4685Y-4.4685
X4.499Y-4.4357
X4.5079Y-2.9331
X4.5276Y-4.4685
X4.5566Y-2.9326
X4.6063Y-2.8839
X4.6601Y-3.1043
X4.6752Y-4.3406
X4.6887Y-3.1329
X4.6887Y-4.3032
X4.7064Y-3.1793
X4.7244Y-4.2717
X4.7343Y-3.2185
X5.4705Y-3.6024
X5.5906Y-4.2913
X5.7382Y-5.7776
X5.8169Y-5.0787
X5.9646Y-3.7205
X6.6437Y-3.75
X7.0472Y-2.8937
X7.7756Y-2.874
X8.5433Y-2.8839
X9.2717Y-2.9636
X10.0295Y-2.9833
X10.8169Y-3.003
X11.6339Y-3.0217
X12.372Y-3.0315
X13.1398Y-3.0315
X13.9764Y-3.0512
X14.5768Y-3.0512
X15.4528Y-3.1201
T2
X6.8578Y-2.5076
X6.8578Y-2.8147
X6.4887Y-3.2606
X6.4887Y-3.5677
X13.9813Y-3.2591
X13.9813Y-3.5662
X14.9779Y-4.7576
X14.9779Y-5.0647
X8.5408Y-4.7554
X8.5408Y-5.0625
X14.7933Y-3.2591
X14.7933Y-3.5662
X8.1754Y-4.0062
X8.1754Y-4.3132
X2.7362Y-4.0079
X2.7362Y-4.315
X8.7365Y-3.2584
X8.7365Y-3.5655
X10.6004Y-2.5098
X10.6004Y-2.8169
X12.6673Y-4.0084
X12.6673Y-4.3155
X7.0423Y-4.7554
X7.0423Y-5.0625
X5.529Y-5.5084
X5.529Y-5.8155
X15.7862Y-4.0084
X15.7862Y-4.3155
X15.1033Y-5.5062
X15.1033Y-5.8132
X8.3563Y-2.5091
X8.3563Y-2.8162
X1.9894Y-4.7554
X1.9894Y-5.0625
X7.7879Y-4.7576
X7.7879Y-5.0647
X2.7313Y-4.7554
X2.7313Y-5.0625
X13.0401Y-4.7576
X13.0401Y-5.0647
X12.4828Y-3.2591
X12.4828Y-3.5662
X1.9857Y-2.5091
X1.9857Y-2.8162
X4.2372Y-5.1245
X4.2372Y-5.4316
X5.8501Y-4.0098
X5.8501Y-4.3169
X14.295Y-5.5062
X14.295Y-5.8132
X15.8526Y-4.7576
X15.8526Y-5.0647
X10.235Y-3.2591
X10.235Y-3.5662
X2.9469Y-3.8209
X3.2539Y-3.8209
X7.4262Y-4.0098
X7.4262Y-4.3169
X2.7387Y-3.2584
X2.7387Y-3.5655
X12.2908Y-4.7576
X12.2908Y-5.0647
X11.7372Y-3.2591
X11.7372Y-3.5662
X3.4321Y-6.0049
X3.7392Y-6.0049
X6.4665Y-5.5047
X6.4665Y-5.8118
X4.2894Y-2.5039
X4.5965Y-2.5039
X16.0106Y-5.3223
X16.3177Y-5.3223
X14.1991Y-4.0047
X14.1991Y-4.3118
X12.7301Y-5.4995
X12.7301Y-5.8066
X1.9862Y-4.0079
X1.9862Y-4.315
X9.8548Y-2.5098
X9.8548Y-2.8169
X15.8526Y-5.5069
X15.8526Y-5.814
X13.7266Y-5.5069
X13.7266Y-5.814
X11.5416Y-4.7576
X11.5416Y-5.0647
X10.9879Y-3.2569
X10.9879Y-3.564
X1.9857Y-3.2569
X1.9857Y-3.564
X5.3629Y-2.5113
X5.3629Y-2.8184
X4.1732Y-3.6299
X4.1732Y-3.937
X14.3578Y-2.5076
X14.3578Y-2.8147
X2.9567Y-4.5758
X3.2638Y-4.5758
X16.0106Y-4.5731
X16.3177Y-4.5731
X7.6107Y-2.5113
X7.6107Y-2.8184
X13.8004Y-4.7576
X13.8004Y-5.0647
X7.3487Y-5.5032
X7.3487Y-5.8103
X2.7352Y-5.5084
X2.7352Y-5.8155
X9.674Y-4.0098
X9.674Y-4.3169
X12.1026Y-2.5025
X12.1026Y-2.8095
X11.357Y-2.5039
X11.357Y-2.811
X13.2357Y-3.2591
X13.2357Y-3.5662
X7.2379Y-3.2569
X7.2379Y-3.564
X6.6769Y-4.0062
X6.6769Y-4.3132
X13.6048Y-2.5062
X13.6048Y-2.8132
X6.1122Y-2.5076
X6.1122Y-2.8147
X16.0106Y-3.8201
X16.3177Y-3.8201
X10.0357Y-4.7591
X10.0357Y-5.0662
X15.8526Y-2.5062
X15.8526Y-2.8132
X7.9872Y-3.2591
X7.9872Y-3.5662
X3.4843Y-2.5076
X3.4843Y-2.8147
X9.1056Y-2.5091
X9.1056Y-2.8162
X11.1688Y-4.0047
X11.1688Y-4.3118
X10.7886Y-4.7591
X10.7886Y-5.0662
X12.8593Y-2.5062
X12.8593Y-2.8132
X5.6693Y-3.2569
X5.6693Y-3.564
X6.282Y-4.7591
X6.282Y-5.0662
X15.7751Y-3.2591
X15.7751Y-3.5662
X3.4813Y-5.1654
X3.4813Y-5.4724
X16.0113Y-3.0709
X16.3184Y-3.0709
X9.4857Y-3.2569
X9.4857Y-3.564
X15.1033Y-2.5062
X15.1033Y-2.8132
X8.921Y-4.0084
X8.921Y-4.3155
X2.7424Y-2.5128
X2.7424Y-2.8199
X9.2864Y-4.7576
X9.2864Y-5.0647
X11.9181Y-4.0084
X11.9181Y-4.3155
X13.4203Y-4.0062
X13.4203Y-4.3132
X10.4232Y-4.0076
X10.4232Y-4.3147
T3
X4.6075Y-3.8339
X4.6075Y-4.4339
X4.7075Y-3.8339
X4.7075Y-4.4339
X4.8075Y-3.8339
X4.8075Y-4.4339
X4.9075Y-3.8339
X4.9075Y-4.4339
X5.0075Y-3.8339
X5.0075Y-3.9339
X5.0075Y-4.3339
X5.0075Y-4.4339
X5.1075Y-3.8339
X5.1075Y-4.4339
X5.2075Y-3.8339
X5.2075Y-4.4339
X5.3075Y-3.8339
X5.3075Y-4.4339
X5.4075Y-3.8339
X5.4075Y-4.4339
X5.5075Y-3.8339
X5.5075Y-4.4339
X5.6075Y-3.8339
X5.6075Y-4.4339
X5.7075Y-3.8339
X5.7075Y-3.9339
X5.7075Y-4.0339
X5.7075Y-4.1339
X5.7075Y-4.2339
X5.7075Y-4.3339
X5.7075Y-4.4339
T4
X9.8857Y-5.5988
X9.9373Y-5.5413
X10.1341Y-5.5217
X10.1357Y-5.4988
T5
X7.1051Y-2.5406G85X7.0732Y-2.5981
G05
X7.3232Y-2.4981G85X7.3216Y-2.5209
G05
X7.2859Y-4.7884G85X7.254Y-4.8459
G05
X7.504Y-4.7459G85X7.5025Y-4.7687
G05
X2.9823Y-2.5406G85X2.9504Y-2.5981
G05
X3.2004Y-2.4981G85X3.1988Y-2.5209
G05
X15.3507Y-4.7884G85X15.3187Y-4.8459
G05
X15.5687Y-4.7459G85X15.5672Y-4.7687
G05
X1.4825Y-3.2899G85X1.4506Y-3.3473
G05
X1.7006Y-3.2474G85X1.699Y-3.2702
G05
X10.4823Y-3.2899G85X10.4504Y-3.3473
G05
X10.7004Y-3.2474G85X10.6988Y-3.2702
G05
X3.6469Y-5.2204G85X3.6697Y-5.222
G05
X3.6894Y-5.4385G85X3.7468Y-5.4704
G05
X10.1021Y-2.5406G85X10.0702Y-2.5981
G05
X10.3202Y-2.4981G85X10.3187Y-2.5209
G05
X13.8521Y-2.5369G85X13.8202Y-2.5944
G05
X14.0702Y-2.4944G85X14.0687Y-2.5172
G05
X11.0334Y-4.7879G85X11.0015Y-4.8454
G05
X11.2515Y-4.7454G85X11.25Y-4.7682
G05
X12.5382Y-4.7884G85X12.5062Y-4.8459
G05
X12.7562Y-4.7459G85X12.7547Y-4.7687
G05
X12.9146Y-4.0391G85X12.8827Y-4.0966
G05
X13.1327Y-3.9966G85X13.1312Y-4.0194
G05
X5.6066Y-2.5406G85X5.5746Y-2.5981
G05
X5.8246Y-2.4981G85X5.8231Y-2.5209
G05
X5.983Y-3.2899G85X5.9511Y-3.3473
G05
X6.2011Y-3.2474G85X6.1996Y-3.2702
G05
X6.7335Y-3.2894G85X6.7016Y-3.3469
G05
X6.9516Y-3.2469G85X6.95Y-3.2697
G05
X2.2303Y-2.5423G85X2.1984Y-2.5998
G05
X2.4484Y-2.4998G85X2.4469Y-2.5226
G05
X5.1378Y-4.0391G85X5.1059Y-4.0966
G05
X5.3559Y-3.9966G85X5.3543Y-4.0194
G05
X2.2315Y-4.7882G85X2.1996Y-4.8457
G05
X2.4496Y-4.7457G85X2.448Y-4.7685
G05
X15.1624Y-3.2899G85X15.1305Y-3.3473
G05
X15.3805Y-3.2474G85X15.3789Y-3.2702
G05
X9.9176Y-4.0391G85X9.8857Y-4.0966
G05
X10.1357Y-3.9966G85X10.1341Y-4.0194
G05
X9.733Y-3.2899G85X9.7011Y-3.3473
G05
X9.9511Y-3.2474G85X9.9496Y-3.2702
G05
X16.0999Y-3.2899G85X16.068Y-3.3473
G05
X16.318Y-3.2474G85X16.3164Y-3.2702
G05
X10.6668Y-4.0391G85X10.6349Y-4.0966
G05
X10.8849Y-3.9966G85X10.8834Y-4.0194
G05
X11.2316Y-3.2899G85X11.1996Y-3.3473
G05
X11.4496Y-3.2474G85X11.4481Y-3.2702
G05
X12.3499Y-2.5369G85X12.318Y-2.5944
G05
X12.568Y-2.4944G85X12.5664Y-2.5172
G05
X6.3558Y-2.5406G85X6.3239Y-2.5981
G05
X6.5739Y-2.4981G85X6.5724Y-2.5209
G05
X6.9205Y-4.0391G85X6.8886Y-4.0966
G05
X7.1386Y-3.9966G85X7.1371Y-4.0194
G05
X1.4838Y-4.7884G85X1.4519Y-4.8459
G05
X1.7019Y-4.7459G85X1.7003Y-4.7687
G05
X3.6479Y-3.7214G85X3.6706Y-3.7229
G05
X3.6904Y-3.9395G85X3.7478Y-3.9714
G05
X14.2293Y-3.2899G85X14.1974Y-3.3473
G05
X14.4474Y-3.2474G85X14.4458Y-3.2702
G05
X2.9805Y-4.7882G85X2.9486Y-4.8457
G05
X3.1986Y-4.7457G85X3.1971Y-4.7685
G05
X9.5337Y-4.7884G85X9.5018Y-4.8459
G05
X9.7518Y-4.7459G85X9.7503Y-4.7687
G05
X8.9838Y-3.2899G85X8.9519Y-3.3473
G05
X9.2019Y-3.2474G85X9.2003Y-3.2702
G05
X15.3507Y-2.5369G85X15.3187Y-2.5944
G05
X15.5687Y-2.4944G85X15.5672Y-2.5172
G05
X10.283Y-4.7884G85X10.2511Y-4.8459
G05
X10.5011Y-4.7459G85X10.4995Y-4.7687
G05
X4.9459Y-5.5376G85X4.914Y-5.5951
G05
X5.164Y-5.4952G85X5.1624Y-5.5179
G05
X12.7301Y-3.2899G85X12.6982Y-3.3473
G05
X12.9482Y-3.2474G85X12.9466Y-3.2702
G05
X6.5404Y-4.7884G85X6.5084Y-4.8459
G05
X6.7585Y-4.7459G85X6.7569Y-4.7687
G05
X16.1006Y-4.7884G85X16.0687Y-4.8459
G05
X16.3187Y-4.7459G85X16.3171Y-4.7687
G05
X1.4833Y-4.0384G85X1.4514Y-4.0959
G05
X1.7014Y-3.9959G85X1.6998Y-4.0187
G05
X2.9813Y-4.0384G85X2.9494Y-4.0959
G05
X3.1994Y-3.9959G85X3.1978Y-4.0187
G05
X14.6014Y-2.5369G85X14.5695Y-2.5944
G05
X14.8195Y-2.4944G85X14.8179Y-2.5172
G05
X6.8209Y-5.5376G85X6.789Y-5.5951
G05
X7.039Y-5.4952G85X7.0374Y-5.5179
G05
X9.1683Y-4.0391G85X9.1364Y-4.0966
G05
X9.3864Y-3.9966G85X9.3849Y-4.0194
G05
X8.6036Y-2.5406G85X8.5717Y-2.5981
G05
X8.8217Y-2.4981G85X8.8201Y-2.5209
G05
X8.2345Y-3.2899G85X8.2026Y-3.3473
G05
X8.4526Y-3.2474G85X8.451Y-3.2702
G05
X5.3224Y-4.7884G85X5.2904Y-4.8459
G05
X5.5404Y-4.7459G85X5.5389Y-4.7687
G05
X5.8809Y-5.5372G85X5.8489Y-5.5947
G05
X6.099Y-5.4947G85X6.0974Y-5.5175
G05
X13.2874Y-4.7884G85X13.2555Y-4.8459
G05
X13.5055Y-4.7459G85X13.5039Y-4.7687
G05
X13.4793Y-3.2899G85X13.4474Y-3.3473
G05
X13.6974Y-3.2474G85X13.6959Y-3.2702
G05
X12.1654Y-4.0391G85X12.1334Y-4.0966
G05
X12.3835Y-3.9966G85X12.3819Y-4.0194
G05
X7.6698Y-4.0391G85X7.6379Y-4.0966
G05
X7.8879Y-3.9966G85X7.8863Y-4.0194
G05
X1.4819Y-2.5425G85X1.45Y-2.6
G05
X1.7Y-2.5G85X1.6984Y-2.5228
G05
X15.3507Y-5.5376G85X15.3187Y-5.5951
G05
X15.5687Y-5.4952G85X15.5672Y-5.5179
G05
X2.9823Y-3.2899G85X2.9504Y-3.3473
G05
X3.2004Y-3.2474G85X3.1988Y-3.2702
G05
X7.8543Y-2.5406G85X7.8224Y-2.5981
G05
X8.0724Y-2.4981G85X8.0709Y-2.5209
G05
X8.4191Y-4.0391G85X8.3871Y-4.0966
G05
X8.6371Y-3.9966G85X8.6356Y-4.0194
G05
X11.6007Y-2.5369G85X11.5687Y-2.5944
G05
X11.8187Y-2.4944G85X11.8172Y-2.5172
G05
X11.9808Y-3.2899G85X11.9489Y-3.3473
G05
X12.1989Y-3.2474G85X12.1974Y-3.2702
G05
X5.0455Y-3.2899G85X5.0136Y-3.3473
G05
X5.2636Y-3.2474G85X5.2621Y-3.2702
G05
X11.4161Y-4.0391G85X11.3842Y-4.0966
G05
X11.6342Y-3.9966G85X11.6326Y-4.0194
G05
X7.4827Y-3.2894G85X7.4508Y-3.3469
G05
X7.7008Y-3.2469G85X7.6993Y-3.2697
G05
X4.8573Y-2.5406G85X4.8254Y-2.5981
G05
X5.0754Y-2.4981G85X5.0738Y-2.5209
G05
X2.2313Y-4.0384G85X2.1994Y-4.0959
G05
X2.4494Y-3.9959G85X2.4478Y-4.0187
G05
X16.0999Y-4.0391G85X16.068Y-4.0966
G05
X16.318Y-3.9966G85X16.3164Y-4.0194
G05
X8.7845Y-4.7884G85X8.7525Y-4.8459
G05
X9.0025Y-4.7459G85X9.001Y-4.7687
G05
X8.0352Y-4.7884G85X8.0033Y-4.8459
G05
X8.2533Y-4.7459G85X8.2517Y-4.7687
G05
X14.3179Y-4.7884G85X14.286Y-4.8459
G05
X14.536Y-4.7459G85X14.5344Y-4.7687
G05
X10.8477Y-2.5369G85X10.8158Y-2.5944
G05
X11.0658Y-2.4944G85X11.0642Y-2.5172
G05
X11.7852Y-4.7884G85X11.7533Y-4.8459
G05
X12.0033Y-4.7459G85X12.0017Y-4.7687
G05
X14.6014Y-5.5376G85X14.5695Y-5.5951
G05
X14.8195Y-5.4952G85X14.8179Y-5.5179
G05
X6.1713Y-4.0391G85X6.1394Y-4.0966
G05
X6.3894Y-3.9966G85X6.3878Y-4.0194
G05
X2.9815Y-5.5362G85X2.9496Y-5.5937
G05
X3.1996Y-5.4937G85X3.198Y-5.5165
G05
X3.7316Y-2.5406G85X3.6996Y-2.5981
G05
X3.9496Y-2.4981G85X3.9481Y-2.5209
G05
X2.2305Y-3.2899G85X2.1986Y-3.3473
G05
X2.4486Y-3.2474G85X2.4471Y-3.2702
G05
X16.0999Y-2.5369G85X16.068Y-2.5944
G05
X16.318Y-2.4944G85X16.3164Y-2.5172
G05
X9.3529Y-2.5406G85X9.3209Y-2.5981
G05
X9.571Y-2.4981G85X9.5694Y-2.5209
G05
X16.0999Y-5.5376G85X16.068Y-5.5951
G05
X16.318Y-5.4952G85X16.3164Y-5.5179
G05
X1.8578Y-5.5368G85X1.8258Y-5.5943
G05
X2.0759Y-5.4943G85X2.0743Y-5.5171
G05
X13.1103Y-5.5376G85X13.0783Y-5.5951
G05
X13.3283Y-5.4952G85X13.3268Y-5.5179
G05
X14.8819Y-4.0391G85X14.85Y-4.0966
G05
X15.1Y-3.9966G85X15.0984Y-4.0194
G05
X13.1029Y-2.5369G85X13.0709Y-2.5944
G05
X13.321Y-2.4944G85X13.3194Y-2.5172
G05
X13.6639Y-4.0391G85X13.632Y-4.0966
G05
X13.882Y-3.9966G85X13.8804Y-4.0194
G05
T0
M30
