G04 #@! TF.GenerationSoftware,KiCad,Pcbnew,(5.0.0)*
G04 #@! TF.CreationDate,2018-09-24T14:53:37-06:00*
G04 #@! TF.ProjectId,SouthPole,536F757468506F6C652E6B696361645F,rev?*
G04 #@! TF.SameCoordinates,Original*
G04 #@! TF.FileFunction,Legend,Top*
G04 #@! TF.FilePolarity,Positive*
%FSLAX46Y46*%
G04 Gerber Fmt 4.6, Leading zero omitted, Abs format (unit mm)*
G04 Created by KiCad (PCBNEW (5.0.0)) date 09/24/18 14:53:37*
%MOMM*%
%LPD*%
G01*
G04 APERTURE LIST*
%ADD10C,0.300000*%
%ADD11C,0.381000*%
G04 APERTURE END LIST*
D10*
X19221429Y-101328571D02*
X19221429Y-100471428D01*
X19221429Y-100900000D02*
X20721429Y-100900000D01*
X20507143Y-100757142D01*
X20364286Y-100614285D01*
X20292858Y-100471428D01*
X20721429Y-102257142D02*
X20721429Y-102400000D01*
X20650001Y-102542857D01*
X20578572Y-102614285D01*
X20435715Y-102685714D01*
X20150001Y-102757142D01*
X19792858Y-102757142D01*
X19507143Y-102685714D01*
X19364286Y-102614285D01*
X19292858Y-102542857D01*
X19221429Y-102400000D01*
X19221429Y-102257142D01*
X19292858Y-102114285D01*
X19364286Y-102042857D01*
X19507143Y-101971428D01*
X19792858Y-101900000D01*
X20150001Y-101900000D01*
X20435715Y-101971428D01*
X20578572Y-102042857D01*
X20650001Y-102114285D01*
X20721429Y-102257142D01*
X20721429Y-103257142D02*
X20721429Y-104185714D01*
X20150001Y-103685714D01*
X20150001Y-103900000D01*
X20078572Y-104042857D01*
X20007143Y-104114285D01*
X19864286Y-104185714D01*
X19507143Y-104185714D01*
X19364286Y-104114285D01*
X19292858Y-104042857D01*
X19221429Y-103900000D01*
X19221429Y-103471428D01*
X19292858Y-103328571D01*
X19364286Y-103257142D01*
X19364286Y-104828571D02*
X19292858Y-104900000D01*
X19221429Y-104828571D01*
X19292858Y-104757142D01*
X19364286Y-104828571D01*
X19221429Y-104828571D01*
X20578572Y-105471428D02*
X20650001Y-105542857D01*
X20721429Y-105685714D01*
X20721429Y-106042857D01*
X20650001Y-106185714D01*
X20578572Y-106257142D01*
X20435715Y-106328571D01*
X20292858Y-106328571D01*
X20078572Y-106257142D01*
X19221429Y-105400000D01*
X19221429Y-106328571D01*
X20721429Y-107257142D02*
X20721429Y-107400000D01*
X20650001Y-107542857D01*
X20578572Y-107614285D01*
X20435715Y-107685714D01*
X20150001Y-107757142D01*
X19792858Y-107757142D01*
X19507143Y-107685714D01*
X19364286Y-107614285D01*
X19292858Y-107542857D01*
X19221429Y-107400000D01*
X19221429Y-107257142D01*
X19292858Y-107114285D01*
X19364286Y-107042857D01*
X19507143Y-106971428D01*
X19792858Y-106900000D01*
X20150001Y-106900000D01*
X20435715Y-106971428D01*
X20578572Y-107042857D01*
X20650001Y-107114285D01*
X20721429Y-107257142D01*
X20721429Y-108685714D02*
X20721429Y-108828571D01*
X20650001Y-108971428D01*
X20578572Y-109042857D01*
X20435715Y-109114285D01*
X20150001Y-109185714D01*
X19792858Y-109185714D01*
X19507143Y-109114285D01*
X19364286Y-109042857D01*
X19292858Y-108971428D01*
X19221429Y-108828571D01*
X19221429Y-108685714D01*
X19292858Y-108542857D01*
X19364286Y-108471428D01*
X19507143Y-108400000D01*
X19792858Y-108328571D01*
X20150001Y-108328571D01*
X20435715Y-108400000D01*
X20578572Y-108471428D01*
X20650001Y-108542857D01*
X20721429Y-108685714D01*
X19221429Y-110971428D02*
X20221429Y-110971428D01*
X20078572Y-110971428D02*
X20150001Y-111042857D01*
X20221429Y-111185714D01*
X20221429Y-111400000D01*
X20150001Y-111542857D01*
X20007143Y-111614285D01*
X19221429Y-111614285D01*
X20007143Y-111614285D02*
X20150001Y-111685714D01*
X20221429Y-111828571D01*
X20221429Y-112042857D01*
X20150001Y-112185714D01*
X20007143Y-112257142D01*
X19221429Y-112257142D01*
X19221429Y-112971428D02*
X20221429Y-112971428D01*
X20078572Y-112971428D02*
X20150001Y-113042857D01*
X20221429Y-113185714D01*
X20221429Y-113400000D01*
X20150001Y-113542857D01*
X20007143Y-113614285D01*
X19221429Y-113614285D01*
X20007143Y-113614285D02*
X20150001Y-113685714D01*
X20221429Y-113828571D01*
X20221429Y-114042857D01*
X20150001Y-114185714D01*
X20007143Y-114257142D01*
X19221429Y-114257142D01*
X22000001Y-55800000D02*
X22000001Y-159000000D01*
X25800000Y-55800000D02*
X21413580Y-55800000D01*
X25800000Y-159000000D02*
X21413580Y-159000000D01*
X22000001Y-159000000D02*
X21413580Y-157873496D01*
X22000001Y-159000000D02*
X22586422Y-157873496D01*
X22000001Y-55800000D02*
X21413580Y-56926504D01*
X22000001Y-55800000D02*
X22586422Y-56926504D01*
X219595787Y-47293603D02*
X220524358Y-47293138D01*
X220024645Y-47864817D01*
X220238930Y-47864709D01*
X220381823Y-47936066D01*
X220453287Y-48007459D01*
X220524788Y-48150281D01*
X220524967Y-48507423D01*
X220453610Y-48650316D01*
X220382217Y-48721781D01*
X220239395Y-48793281D01*
X219810824Y-48793495D01*
X219667931Y-48722139D01*
X219596467Y-48650746D01*
X221239395Y-48792780D02*
X221525110Y-48792637D01*
X221667931Y-48721137D01*
X221739324Y-48649672D01*
X221882073Y-48435315D01*
X221953359Y-48149565D01*
X221953073Y-47578136D01*
X221881572Y-47435315D01*
X221810108Y-47363922D01*
X221667215Y-47292565D01*
X221381501Y-47292708D01*
X221238680Y-47364209D01*
X221167287Y-47435673D01*
X221095930Y-47578566D01*
X221096109Y-47935709D01*
X221167609Y-48078530D01*
X221239073Y-48149923D01*
X221381966Y-48221280D01*
X221667680Y-48221137D01*
X221810502Y-48149636D01*
X221881894Y-48078172D01*
X221953251Y-47935279D01*
X222667967Y-48792064D02*
X222953681Y-48791921D01*
X223096502Y-48720421D01*
X223167895Y-48648956D01*
X223310645Y-48434599D01*
X223381930Y-48148849D01*
X223381644Y-47577421D01*
X223310144Y-47434599D01*
X223238679Y-47363207D01*
X223095786Y-47291850D01*
X222810072Y-47291993D01*
X222667251Y-47363493D01*
X222595858Y-47434957D01*
X222524501Y-47577850D01*
X222524680Y-47934993D01*
X222596180Y-48077814D01*
X222667644Y-48149207D01*
X222810537Y-48220564D01*
X223096252Y-48220421D01*
X223239073Y-48148921D01*
X223310466Y-48077456D01*
X223381823Y-47934563D01*
X224025038Y-48648527D02*
X224096502Y-48719920D01*
X224025109Y-48791384D01*
X223953645Y-48719991D01*
X224025038Y-48648527D01*
X224025109Y-48791384D01*
X224667286Y-47433919D02*
X224738679Y-47362455D01*
X224881500Y-47290955D01*
X225238643Y-47290776D01*
X225381536Y-47362133D01*
X225453001Y-47433526D01*
X225524501Y-47576347D01*
X225524572Y-47719204D01*
X225453251Y-47933526D01*
X224596538Y-48791098D01*
X225525109Y-48790633D01*
X226452929Y-47290168D02*
X226595786Y-47290096D01*
X226738679Y-47361453D01*
X226810143Y-47432846D01*
X226881643Y-47575667D01*
X226953215Y-47861346D01*
X226953394Y-48218488D01*
X226882109Y-48504238D01*
X226810752Y-48647131D01*
X226739359Y-48718596D01*
X226596537Y-48790096D01*
X226453680Y-48790167D01*
X226310787Y-48718810D01*
X226239323Y-48647418D01*
X226167823Y-48504596D01*
X226096251Y-48218918D01*
X226096072Y-47861775D01*
X226167358Y-47576025D01*
X226238715Y-47433132D01*
X226310107Y-47361668D01*
X226452929Y-47290168D01*
X227881500Y-47289452D02*
X228024357Y-47289380D01*
X228167250Y-47360737D01*
X228238714Y-47432130D01*
X228310215Y-47574951D01*
X228381786Y-47860630D01*
X228381965Y-48217773D01*
X228310680Y-48503523D01*
X228239323Y-48646416D01*
X228167930Y-48717880D01*
X228025109Y-48789380D01*
X227882252Y-48789452D01*
X227739359Y-48718095D01*
X227667894Y-48646702D01*
X227596394Y-48503881D01*
X227524822Y-48218202D01*
X227524644Y-47861059D01*
X227595929Y-47575309D01*
X227667286Y-47432416D01*
X227738679Y-47360952D01*
X227881500Y-47289452D01*
X230167966Y-48788307D02*
X230167465Y-47788307D01*
X230167536Y-47931164D02*
X230238929Y-47859699D01*
X230381750Y-47788199D01*
X230596036Y-47788092D01*
X230738929Y-47859449D01*
X230810429Y-48002270D01*
X230810823Y-48787984D01*
X230810429Y-48002270D02*
X230881786Y-47859377D01*
X231024607Y-47787877D01*
X231238893Y-47787770D01*
X231381786Y-47859127D01*
X231453286Y-48001948D01*
X231453680Y-48787662D01*
X232167965Y-48787305D02*
X232167464Y-47787305D01*
X232167536Y-47930162D02*
X232238929Y-47858697D01*
X232381750Y-47787197D01*
X232596036Y-47787090D01*
X232738929Y-47858447D01*
X232810429Y-48001268D01*
X232810822Y-48786982D01*
X232810429Y-48001268D02*
X232881786Y-47858375D01*
X233024607Y-47786875D01*
X233238893Y-47786768D01*
X233381786Y-47858125D01*
X233453286Y-48000946D01*
X233453679Y-48786660D01*
X26997250Y-50311525D02*
X426197250Y-50111525D01*
X27000000Y-55800000D02*
X26996956Y-49725104D01*
X426200000Y-55600000D02*
X426196956Y-49525104D01*
X426197250Y-50111525D02*
X425071040Y-50698510D01*
X426197250Y-50111525D02*
X425070453Y-49525669D01*
X26997250Y-50311525D02*
X28124047Y-50897381D01*
X26997250Y-50311525D02*
X28123460Y-49724540D01*
D11*
G04 #@! TO.C,K15*
X91431250Y-62181250D02*
X93209250Y-62181250D01*
X102353250Y-62181250D02*
X104131250Y-62181250D01*
X104131250Y-62181250D02*
X104131250Y-63959250D01*
X104131250Y-73103250D02*
X104131250Y-74881250D01*
X104131250Y-74881250D02*
X102353250Y-74881250D01*
X93209250Y-74881250D02*
X91431250Y-74881250D01*
X91431250Y-74881250D02*
X91431250Y-73103250D01*
X91431250Y-63959250D02*
X91431250Y-62181250D01*
G04 #@! TO.C,K77*
X367525000Y-63865500D02*
X367525000Y-62087500D01*
X367525000Y-74787500D02*
X367525000Y-73009500D01*
X369303000Y-74787500D02*
X367525000Y-74787500D01*
X380225000Y-74787500D02*
X378447000Y-74787500D01*
X380225000Y-73009500D02*
X380225000Y-74787500D01*
X380225000Y-62087500D02*
X380225000Y-63865500D01*
X378447000Y-62087500D02*
X380225000Y-62087500D01*
X367525000Y-62087500D02*
X369303000Y-62087500D01*
G04 #@! TO.C,K79*
X386556250Y-63865500D02*
X386556250Y-62087500D01*
X386556250Y-74787500D02*
X386556250Y-73009500D01*
X388334250Y-74787500D02*
X386556250Y-74787500D01*
X399256250Y-74787500D02*
X397478250Y-74787500D01*
X399256250Y-73009500D02*
X399256250Y-74787500D01*
X399256250Y-62087500D02*
X399256250Y-63865500D01*
X397478250Y-62087500D02*
X399256250Y-62087500D01*
X386556250Y-62087500D02*
X388334250Y-62087500D01*
G04 #@! TO.C,K78*
X381775000Y-82990500D02*
X381775000Y-81212500D01*
X381775000Y-93912500D02*
X381775000Y-92134500D01*
X383553000Y-93912500D02*
X381775000Y-93912500D01*
X394475000Y-93912500D02*
X392697000Y-93912500D01*
X394475000Y-92134500D02*
X394475000Y-93912500D01*
X394475000Y-81212500D02*
X394475000Y-82990500D01*
X392697000Y-81212500D02*
X394475000Y-81212500D01*
X381775000Y-81212500D02*
X383553000Y-81212500D01*
G04 #@! TO.C,K74*
X374650000Y-102021750D02*
X374650000Y-100243750D01*
X374650000Y-112943750D02*
X374650000Y-111165750D01*
X376428000Y-112943750D02*
X374650000Y-112943750D01*
X387350000Y-112943750D02*
X385572000Y-112943750D01*
X387350000Y-111165750D02*
X387350000Y-112943750D01*
X387350000Y-100243750D02*
X387350000Y-102021750D01*
X385572000Y-100243750D02*
X387350000Y-100243750D01*
X374650000Y-100243750D02*
X376428000Y-100243750D01*
G04 #@! TO.C,K70*
X360323750Y-121053000D02*
X360323750Y-119275000D01*
X360323750Y-131975000D02*
X360323750Y-130197000D01*
X362101750Y-131975000D02*
X360323750Y-131975000D01*
X373023750Y-131975000D02*
X371245750Y-131975000D01*
X373023750Y-130197000D02*
X373023750Y-131975000D01*
X373023750Y-119275000D02*
X373023750Y-121053000D01*
X371245750Y-119275000D02*
X373023750Y-119275000D01*
X360323750Y-119275000D02*
X362101750Y-119275000D01*
G04 #@! TO.C,K62*
X329650000Y-140084250D02*
X329650000Y-138306250D01*
X329650000Y-151006250D02*
X329650000Y-149228250D01*
X331428000Y-151006250D02*
X329650000Y-151006250D01*
X342350000Y-151006250D02*
X340572000Y-151006250D01*
X342350000Y-149228250D02*
X342350000Y-151006250D01*
X342350000Y-138306250D02*
X342350000Y-140084250D01*
X340572000Y-138306250D02*
X342350000Y-138306250D01*
X329650000Y-138306250D02*
X331428000Y-138306250D01*
G04 #@! TO.C,K32*
X169900000Y-140084250D02*
X169900000Y-138306250D01*
X169900000Y-151006250D02*
X169900000Y-149228250D01*
X171678000Y-151006250D02*
X169900000Y-151006250D01*
X182600000Y-151006250D02*
X180822000Y-151006250D01*
X182600000Y-149228250D02*
X182600000Y-151006250D01*
X182600000Y-138306250D02*
X182600000Y-140084250D01*
X180822000Y-138306250D02*
X182600000Y-138306250D01*
X169900000Y-138306250D02*
X171678000Y-138306250D01*
G04 #@! TO.C,K27*
X146023750Y-140073000D02*
X146023750Y-138295000D01*
X146023750Y-150995000D02*
X146023750Y-149217000D01*
X147801750Y-150995000D02*
X146023750Y-150995000D01*
X158723750Y-150995000D02*
X156945750Y-150995000D01*
X158723750Y-149217000D02*
X158723750Y-150995000D01*
X158723750Y-138295000D02*
X158723750Y-140073000D01*
X156945750Y-138295000D02*
X158723750Y-138295000D01*
X146023750Y-138295000D02*
X147801750Y-138295000D01*
G04 #@! TO.C,K21*
X131837500Y-121053000D02*
X131837500Y-119275000D01*
X131837500Y-131975000D02*
X131837500Y-130197000D01*
X133615500Y-131975000D02*
X131837500Y-131975000D01*
X144537500Y-131975000D02*
X142759500Y-131975000D01*
X144537500Y-130197000D02*
X144537500Y-131975000D01*
X144537500Y-119275000D02*
X144537500Y-121053000D01*
X142759500Y-119275000D02*
X144537500Y-119275000D01*
X131837500Y-119275000D02*
X133615500Y-119275000D01*
G04 #@! TO.C,K22*
X122275000Y-140084250D02*
X122275000Y-138306250D01*
X122275000Y-151006250D02*
X122275000Y-149228250D01*
X124053000Y-151006250D02*
X122275000Y-151006250D01*
X134975000Y-151006250D02*
X133197000Y-151006250D01*
X134975000Y-149228250D02*
X134975000Y-151006250D01*
X134975000Y-138306250D02*
X134975000Y-140084250D01*
X133197000Y-138306250D02*
X134975000Y-138306250D01*
X122275000Y-138306250D02*
X124053000Y-138306250D01*
G04 #@! TO.C,K20*
X127150000Y-102021750D02*
X127150000Y-100243750D01*
X127150000Y-112943750D02*
X127150000Y-111165750D01*
X128928000Y-112943750D02*
X127150000Y-112943750D01*
X139850000Y-112943750D02*
X138072000Y-112943750D01*
X139850000Y-111165750D02*
X139850000Y-112943750D01*
X139850000Y-100243750D02*
X139850000Y-102021750D01*
X138072000Y-100243750D02*
X139850000Y-100243750D01*
X127150000Y-100243750D02*
X128928000Y-100243750D01*
G04 #@! TO.C,K19*
X124806250Y-82990500D02*
X124806250Y-81212500D01*
X124806250Y-93912500D02*
X124806250Y-92134500D01*
X126584250Y-93912500D02*
X124806250Y-93912500D01*
X137506250Y-93912500D02*
X135728250Y-93912500D01*
X137506250Y-92134500D02*
X137506250Y-93912500D01*
X137506250Y-81212500D02*
X137506250Y-82990500D01*
X135728250Y-81212500D02*
X137506250Y-81212500D01*
X124806250Y-81212500D02*
X126584250Y-81212500D01*
G04 #@! TO.C,K17*
X93138000Y-141488000D02*
X91360000Y-141488000D01*
X104060000Y-141488000D02*
X102282000Y-141488000D01*
X104060000Y-139710000D02*
X104060000Y-141488000D01*
X104060000Y-128788000D02*
X104060000Y-130566000D01*
X102282000Y-128788000D02*
X104060000Y-128788000D01*
X91360000Y-128788000D02*
X93138000Y-128788000D01*
X91360000Y-130566000D02*
X91360000Y-128788000D01*
X91360000Y-141488000D02*
X91360000Y-139710000D01*
G04 #@! TO.C,K9*
X43837000Y-140063000D02*
X43837000Y-138285000D01*
X43837000Y-150985000D02*
X43837000Y-149207000D01*
X45615000Y-150985000D02*
X43837000Y-150985000D01*
X56537000Y-150985000D02*
X54759000Y-150985000D01*
X56537000Y-149207000D02*
X56537000Y-150985000D01*
X56537000Y-138285000D02*
X56537000Y-140063000D01*
X54759000Y-138285000D02*
X56537000Y-138285000D01*
X43837000Y-138285000D02*
X45615000Y-138285000D01*
G04 #@! TO.C,K16*
X93163000Y-103413000D02*
X91385000Y-103413000D01*
X104085000Y-103413000D02*
X102307000Y-103413000D01*
X104085000Y-101635000D02*
X104085000Y-103413000D01*
X104085000Y-90713000D02*
X104085000Y-92491000D01*
X102307000Y-90713000D02*
X104085000Y-90713000D01*
X91385000Y-90713000D02*
X93163000Y-90713000D01*
X91385000Y-92491000D02*
X91385000Y-90713000D01*
X91385000Y-103413000D02*
X91385000Y-101635000D01*
G04 #@! TO.C,K1*
X34290000Y-62230000D02*
X36068000Y-62230000D01*
X45212000Y-62230000D02*
X46990000Y-62230000D01*
X46990000Y-62230000D02*
X46990000Y-64008000D01*
X46990000Y-73152000D02*
X46990000Y-74930000D01*
X46990000Y-74930000D02*
X45212000Y-74930000D01*
X36068000Y-74930000D02*
X34290000Y-74930000D01*
X34290000Y-74930000D02*
X34290000Y-73152000D01*
X34290000Y-64008000D02*
X34290000Y-62230000D01*
G04 #@! TO.C,K2*
X34305000Y-82990500D02*
X34305000Y-81212500D01*
X34305000Y-93912500D02*
X34305000Y-92134500D01*
X36083000Y-93912500D02*
X34305000Y-93912500D01*
X47005000Y-93912500D02*
X45227000Y-93912500D01*
X47005000Y-92134500D02*
X47005000Y-93912500D01*
X47005000Y-81212500D02*
X47005000Y-82990500D01*
X45227000Y-81212500D02*
X47005000Y-81212500D01*
X34305000Y-81212500D02*
X36083000Y-81212500D01*
G04 #@! TO.C,K3*
X34325000Y-100225000D02*
X36103000Y-100225000D01*
X45247000Y-100225000D02*
X47025000Y-100225000D01*
X47025000Y-100225000D02*
X47025000Y-102003000D01*
X47025000Y-111147000D02*
X47025000Y-112925000D01*
X47025000Y-112925000D02*
X45247000Y-112925000D01*
X36103000Y-112925000D02*
X34325000Y-112925000D01*
X34325000Y-112925000D02*
X34325000Y-111147000D01*
X34325000Y-102003000D02*
X34325000Y-100225000D01*
G04 #@! TO.C,K4*
X34337500Y-119275000D02*
X36115500Y-119275000D01*
X45259500Y-119275000D02*
X47037500Y-119275000D01*
X47037500Y-119275000D02*
X47037500Y-121053000D01*
X47037500Y-130197000D02*
X47037500Y-131975000D01*
X47037500Y-131975000D02*
X45259500Y-131975000D01*
X36115500Y-131975000D02*
X34337500Y-131975000D01*
X34337500Y-131975000D02*
X34337500Y-130197000D01*
X34337500Y-121053000D02*
X34337500Y-119275000D01*
G04 #@! TO.C,K5*
X53300000Y-64003000D02*
X53300000Y-62225000D01*
X53300000Y-74925000D02*
X53300000Y-73147000D01*
X55078000Y-74925000D02*
X53300000Y-74925000D01*
X66000000Y-74925000D02*
X64222000Y-74925000D01*
X66000000Y-73147000D02*
X66000000Y-74925000D01*
X66000000Y-62225000D02*
X66000000Y-64003000D01*
X64222000Y-62225000D02*
X66000000Y-62225000D01*
X53300000Y-62225000D02*
X55078000Y-62225000D01*
G04 #@! TO.C,K6*
X53305000Y-82990500D02*
X53305000Y-81212500D01*
X53305000Y-93912500D02*
X53305000Y-92134500D01*
X55083000Y-93912500D02*
X53305000Y-93912500D01*
X66005000Y-93912500D02*
X64227000Y-93912500D01*
X66005000Y-92134500D02*
X66005000Y-93912500D01*
X66005000Y-81212500D02*
X66005000Y-82990500D01*
X64227000Y-81212500D02*
X66005000Y-81212500D01*
X53305000Y-81212500D02*
X55083000Y-81212500D01*
G04 #@! TO.C,K7*
X53325000Y-102003000D02*
X53325000Y-100225000D01*
X53325000Y-112925000D02*
X53325000Y-111147000D01*
X55103000Y-112925000D02*
X53325000Y-112925000D01*
X66025000Y-112925000D02*
X64247000Y-112925000D01*
X66025000Y-111147000D02*
X66025000Y-112925000D01*
X66025000Y-100225000D02*
X66025000Y-102003000D01*
X64247000Y-100225000D02*
X66025000Y-100225000D01*
X53325000Y-100225000D02*
X55103000Y-100225000D01*
G04 #@! TO.C,K8*
X53330000Y-121048000D02*
X53330000Y-119270000D01*
X53330000Y-131970000D02*
X53330000Y-130192000D01*
X55108000Y-131970000D02*
X53330000Y-131970000D01*
X66030000Y-131970000D02*
X64252000Y-131970000D01*
X66030000Y-130192000D02*
X66030000Y-131970000D01*
X66030000Y-119270000D02*
X66030000Y-121048000D01*
X64252000Y-119270000D02*
X66030000Y-119270000D01*
X53330000Y-119270000D02*
X55108000Y-119270000D01*
G04 #@! TO.C,K10*
X72400000Y-63959250D02*
X72400000Y-62181250D01*
X72400000Y-74881250D02*
X72400000Y-73103250D01*
X74178000Y-74881250D02*
X72400000Y-74881250D01*
X85100000Y-74881250D02*
X83322000Y-74881250D01*
X85100000Y-73103250D02*
X85100000Y-74881250D01*
X85100000Y-62181250D02*
X85100000Y-63959250D01*
X83322000Y-62181250D02*
X85100000Y-62181250D01*
X72400000Y-62181250D02*
X74178000Y-62181250D01*
G04 #@! TO.C,K11*
X72400000Y-81212500D02*
X74178000Y-81212500D01*
X83322000Y-81212500D02*
X85100000Y-81212500D01*
X85100000Y-81212500D02*
X85100000Y-82990500D01*
X85100000Y-92134500D02*
X85100000Y-93912500D01*
X85100000Y-93912500D02*
X83322000Y-93912500D01*
X74178000Y-93912500D02*
X72400000Y-93912500D01*
X72400000Y-93912500D02*
X72400000Y-92134500D01*
X72400000Y-82990500D02*
X72400000Y-81212500D01*
G04 #@! TO.C,K12*
X72375000Y-102003000D02*
X72375000Y-100225000D01*
X72375000Y-112925000D02*
X72375000Y-111147000D01*
X74153000Y-112925000D02*
X72375000Y-112925000D01*
X85075000Y-112925000D02*
X83297000Y-112925000D01*
X85075000Y-111147000D02*
X85075000Y-112925000D01*
X85075000Y-100225000D02*
X85075000Y-102003000D01*
X83297000Y-100225000D02*
X85075000Y-100225000D01*
X72375000Y-100225000D02*
X74153000Y-100225000D01*
G04 #@! TO.C,K13*
X72355000Y-121048000D02*
X72355000Y-119270000D01*
X72355000Y-131970000D02*
X72355000Y-130192000D01*
X74133000Y-131970000D02*
X72355000Y-131970000D01*
X85055000Y-131970000D02*
X83277000Y-131970000D01*
X85055000Y-130192000D02*
X85055000Y-131970000D01*
X85055000Y-119270000D02*
X85055000Y-121048000D01*
X83277000Y-119270000D02*
X85055000Y-119270000D01*
X72355000Y-119270000D02*
X74133000Y-119270000D01*
G04 #@! TO.C,K14*
X72380000Y-140048000D02*
X72380000Y-138270000D01*
X72380000Y-150970000D02*
X72380000Y-149192000D01*
X74158000Y-150970000D02*
X72380000Y-150970000D01*
X85080000Y-150970000D02*
X83302000Y-150970000D01*
X85080000Y-149192000D02*
X85080000Y-150970000D01*
X85080000Y-138270000D02*
X85080000Y-140048000D01*
X83302000Y-138270000D02*
X85080000Y-138270000D01*
X72380000Y-138270000D02*
X74158000Y-138270000D01*
G04 #@! TO.C,K18*
X120025000Y-63959250D02*
X120025000Y-62181250D01*
X120025000Y-74881250D02*
X120025000Y-73103250D01*
X121803000Y-74881250D02*
X120025000Y-74881250D01*
X132725000Y-74881250D02*
X130947000Y-74881250D01*
X132725000Y-73103250D02*
X132725000Y-74881250D01*
X132725000Y-62181250D02*
X132725000Y-63959250D01*
X130947000Y-62181250D02*
X132725000Y-62181250D01*
X120025000Y-62181250D02*
X121803000Y-62181250D01*
G04 #@! TO.C,K23*
X139056250Y-62181250D02*
X140834250Y-62181250D01*
X149978250Y-62181250D02*
X151756250Y-62181250D01*
X151756250Y-62181250D02*
X151756250Y-63959250D01*
X151756250Y-73103250D02*
X151756250Y-74881250D01*
X151756250Y-74881250D02*
X149978250Y-74881250D01*
X140834250Y-74881250D02*
X139056250Y-74881250D01*
X139056250Y-74881250D02*
X139056250Y-73103250D01*
X139056250Y-63959250D02*
X139056250Y-62181250D01*
G04 #@! TO.C,K24*
X148618750Y-82990500D02*
X148618750Y-81212500D01*
X148618750Y-93912500D02*
X148618750Y-92134500D01*
X150396750Y-93912500D02*
X148618750Y-93912500D01*
X161318750Y-93912500D02*
X159540750Y-93912500D01*
X161318750Y-92134500D02*
X161318750Y-93912500D01*
X161318750Y-81212500D02*
X161318750Y-82990500D01*
X159540750Y-81212500D02*
X161318750Y-81212500D01*
X148618750Y-81212500D02*
X150396750Y-81212500D01*
G04 #@! TO.C,K25*
X153400000Y-100243750D02*
X155178000Y-100243750D01*
X164322000Y-100243750D02*
X166100000Y-100243750D01*
X166100000Y-100243750D02*
X166100000Y-102021750D01*
X166100000Y-111165750D02*
X166100000Y-112943750D01*
X166100000Y-112943750D02*
X164322000Y-112943750D01*
X155178000Y-112943750D02*
X153400000Y-112943750D01*
X153400000Y-112943750D02*
X153400000Y-111165750D01*
X153400000Y-102021750D02*
X153400000Y-100243750D01*
G04 #@! TO.C,K26*
X162775000Y-119275000D02*
X164553000Y-119275000D01*
X173697000Y-119275000D02*
X175475000Y-119275000D01*
X175475000Y-119275000D02*
X175475000Y-121053000D01*
X175475000Y-130197000D02*
X175475000Y-131975000D01*
X175475000Y-131975000D02*
X173697000Y-131975000D01*
X164553000Y-131975000D02*
X162775000Y-131975000D01*
X162775000Y-131975000D02*
X162775000Y-130197000D01*
X162775000Y-121053000D02*
X162775000Y-119275000D01*
G04 #@! TO.C,K28*
X158087500Y-63959250D02*
X158087500Y-62181250D01*
X158087500Y-74881250D02*
X158087500Y-73103250D01*
X159865500Y-74881250D02*
X158087500Y-74881250D01*
X170787500Y-74881250D02*
X169009500Y-74881250D01*
X170787500Y-73103250D02*
X170787500Y-74881250D01*
X170787500Y-62181250D02*
X170787500Y-63959250D01*
X169009500Y-62181250D02*
X170787500Y-62181250D01*
X158087500Y-62181250D02*
X159865500Y-62181250D01*
G04 #@! TO.C,K29*
X167680000Y-81201250D02*
X169458000Y-81201250D01*
X178602000Y-81201250D02*
X180380000Y-81201250D01*
X180380000Y-81201250D02*
X180380000Y-82979250D01*
X180380000Y-92123250D02*
X180380000Y-93901250D01*
X180380000Y-93901250D02*
X178602000Y-93901250D01*
X169458000Y-93901250D02*
X167680000Y-93901250D01*
X167680000Y-93901250D02*
X167680000Y-92123250D01*
X167680000Y-82979250D02*
X167680000Y-81201250D01*
G04 #@! TO.C,K30*
X172431250Y-102021750D02*
X172431250Y-100243750D01*
X172431250Y-112943750D02*
X172431250Y-111165750D01*
X174209250Y-112943750D02*
X172431250Y-112943750D01*
X185131250Y-112943750D02*
X183353250Y-112943750D01*
X185131250Y-111165750D02*
X185131250Y-112943750D01*
X185131250Y-100243750D02*
X185131250Y-102021750D01*
X183353250Y-100243750D02*
X185131250Y-100243750D01*
X172431250Y-100243750D02*
X174209250Y-100243750D01*
G04 #@! TO.C,K31*
X181712500Y-119275000D02*
X183490500Y-119275000D01*
X192634500Y-119275000D02*
X194412500Y-119275000D01*
X194412500Y-119275000D02*
X194412500Y-121053000D01*
X194412500Y-130197000D02*
X194412500Y-131975000D01*
X194412500Y-131975000D02*
X192634500Y-131975000D01*
X183490500Y-131975000D02*
X181712500Y-131975000D01*
X181712500Y-131975000D02*
X181712500Y-130197000D01*
X181712500Y-121053000D02*
X181712500Y-119275000D01*
G04 #@! TO.C,K33*
X177118750Y-63959250D02*
X177118750Y-62181250D01*
X177118750Y-74881250D02*
X177118750Y-73103250D01*
X178896750Y-74881250D02*
X177118750Y-74881250D01*
X189818750Y-74881250D02*
X188040750Y-74881250D01*
X189818750Y-73103250D02*
X189818750Y-74881250D01*
X189818750Y-62181250D02*
X189818750Y-63959250D01*
X188040750Y-62181250D02*
X189818750Y-62181250D01*
X177118750Y-62181250D02*
X178896750Y-62181250D01*
G04 #@! TO.C,K34*
X186711250Y-81201250D02*
X188489250Y-81201250D01*
X197633250Y-81201250D02*
X199411250Y-81201250D01*
X199411250Y-81201250D02*
X199411250Y-82979250D01*
X199411250Y-92123250D02*
X199411250Y-93901250D01*
X199411250Y-93901250D02*
X197633250Y-93901250D01*
X188489250Y-93901250D02*
X186711250Y-93901250D01*
X186711250Y-93901250D02*
X186711250Y-92123250D01*
X186711250Y-82979250D02*
X186711250Y-81201250D01*
G04 #@! TO.C,K35*
X191462500Y-102021750D02*
X191462500Y-100243750D01*
X191462500Y-112943750D02*
X191462500Y-111165750D01*
X193240500Y-112943750D02*
X191462500Y-112943750D01*
X204162500Y-112943750D02*
X202384500Y-112943750D01*
X204162500Y-111165750D02*
X204162500Y-112943750D01*
X204162500Y-100243750D02*
X204162500Y-102021750D01*
X202384500Y-100243750D02*
X204162500Y-100243750D01*
X191462500Y-100243750D02*
X193240500Y-100243750D01*
G04 #@! TO.C,K36*
X200743750Y-119275000D02*
X202521750Y-119275000D01*
X211665750Y-119275000D02*
X213443750Y-119275000D01*
X213443750Y-119275000D02*
X213443750Y-121053000D01*
X213443750Y-130197000D02*
X213443750Y-131975000D01*
X213443750Y-131975000D02*
X211665750Y-131975000D01*
X202521750Y-131975000D02*
X200743750Y-131975000D01*
X200743750Y-131975000D02*
X200743750Y-130197000D01*
X200743750Y-121053000D02*
X200743750Y-119275000D01*
G04 #@! TO.C,K37*
X196150000Y-63959250D02*
X196150000Y-62181250D01*
X196150000Y-74881250D02*
X196150000Y-73103250D01*
X197928000Y-74881250D02*
X196150000Y-74881250D01*
X208850000Y-74881250D02*
X207072000Y-74881250D01*
X208850000Y-73103250D02*
X208850000Y-74881250D01*
X208850000Y-62181250D02*
X208850000Y-63959250D01*
X207072000Y-62181250D02*
X208850000Y-62181250D01*
X196150000Y-62181250D02*
X197928000Y-62181250D01*
G04 #@! TO.C,K38*
X205806250Y-82990500D02*
X205806250Y-81212500D01*
X205806250Y-93912500D02*
X205806250Y-92134500D01*
X207584250Y-93912500D02*
X205806250Y-93912500D01*
X218506250Y-93912500D02*
X216728250Y-93912500D01*
X218506250Y-92134500D02*
X218506250Y-93912500D01*
X218506250Y-81212500D02*
X218506250Y-82990500D01*
X216728250Y-81212500D02*
X218506250Y-81212500D01*
X205806250Y-81212500D02*
X207584250Y-81212500D01*
G04 #@! TO.C,K39*
X210493750Y-100243750D02*
X212271750Y-100243750D01*
X221415750Y-100243750D02*
X223193750Y-100243750D01*
X223193750Y-100243750D02*
X223193750Y-102021750D01*
X223193750Y-111165750D02*
X223193750Y-112943750D01*
X223193750Y-112943750D02*
X221415750Y-112943750D01*
X212271750Y-112943750D02*
X210493750Y-112943750D01*
X210493750Y-112943750D02*
X210493750Y-111165750D01*
X210493750Y-102021750D02*
X210493750Y-100243750D01*
G04 #@! TO.C,K40*
X219775000Y-121053000D02*
X219775000Y-119275000D01*
X219775000Y-131975000D02*
X219775000Y-130197000D01*
X221553000Y-131975000D02*
X219775000Y-131975000D01*
X232475000Y-131975000D02*
X230697000Y-131975000D01*
X232475000Y-130197000D02*
X232475000Y-131975000D01*
X232475000Y-119275000D02*
X232475000Y-121053000D01*
X230697000Y-119275000D02*
X232475000Y-119275000D01*
X219775000Y-119275000D02*
X221553000Y-119275000D01*
G04 #@! TO.C,K41*
X215181250Y-62181250D02*
X216959250Y-62181250D01*
X226103250Y-62181250D02*
X227881250Y-62181250D01*
X227881250Y-62181250D02*
X227881250Y-63959250D01*
X227881250Y-73103250D02*
X227881250Y-74881250D01*
X227881250Y-74881250D02*
X226103250Y-74881250D01*
X216959250Y-74881250D02*
X215181250Y-74881250D01*
X215181250Y-74881250D02*
X215181250Y-73103250D01*
X215181250Y-63959250D02*
X215181250Y-62181250D01*
G04 #@! TO.C,K42*
X224837500Y-81212500D02*
X226615500Y-81212500D01*
X235759500Y-81212500D02*
X237537500Y-81212500D01*
X237537500Y-81212500D02*
X237537500Y-82990500D01*
X237537500Y-92134500D02*
X237537500Y-93912500D01*
X237537500Y-93912500D02*
X235759500Y-93912500D01*
X226615500Y-93912500D02*
X224837500Y-93912500D01*
X224837500Y-93912500D02*
X224837500Y-92134500D01*
X224837500Y-82990500D02*
X224837500Y-81212500D01*
G04 #@! TO.C,K43*
X229525000Y-100243750D02*
X231303000Y-100243750D01*
X240447000Y-100243750D02*
X242225000Y-100243750D01*
X242225000Y-100243750D02*
X242225000Y-102021750D01*
X242225000Y-111165750D02*
X242225000Y-112943750D01*
X242225000Y-112943750D02*
X240447000Y-112943750D01*
X231303000Y-112943750D02*
X229525000Y-112943750D01*
X229525000Y-112943750D02*
X229525000Y-111165750D01*
X229525000Y-102021750D02*
X229525000Y-100243750D01*
G04 #@! TO.C,K44*
X238806250Y-121053000D02*
X238806250Y-119275000D01*
X238806250Y-131975000D02*
X238806250Y-130197000D01*
X240584250Y-131975000D02*
X238806250Y-131975000D01*
X251506250Y-131975000D02*
X249728250Y-131975000D01*
X251506250Y-130197000D02*
X251506250Y-131975000D01*
X251506250Y-119275000D02*
X251506250Y-121053000D01*
X249728250Y-119275000D02*
X251506250Y-119275000D01*
X238806250Y-119275000D02*
X240584250Y-119275000D01*
G04 #@! TO.C,K46*
X234212500Y-63959250D02*
X234212500Y-62181250D01*
X234212500Y-74881250D02*
X234212500Y-73103250D01*
X235990500Y-74881250D02*
X234212500Y-74881250D01*
X246912500Y-74881250D02*
X245134500Y-74881250D01*
X246912500Y-73103250D02*
X246912500Y-74881250D01*
X246912500Y-62181250D02*
X246912500Y-63959250D01*
X245134500Y-62181250D02*
X246912500Y-62181250D01*
X234212500Y-62181250D02*
X235990500Y-62181250D01*
G04 #@! TO.C,K47*
X243868750Y-81212500D02*
X245646750Y-81212500D01*
X254790750Y-81212500D02*
X256568750Y-81212500D01*
X256568750Y-81212500D02*
X256568750Y-82990500D01*
X256568750Y-92134500D02*
X256568750Y-93912500D01*
X256568750Y-93912500D02*
X254790750Y-93912500D01*
X245646750Y-93912500D02*
X243868750Y-93912500D01*
X243868750Y-93912500D02*
X243868750Y-92134500D01*
X243868750Y-82990500D02*
X243868750Y-81212500D01*
G04 #@! TO.C,K48*
X248556250Y-102021750D02*
X248556250Y-100243750D01*
X248556250Y-112943750D02*
X248556250Y-111165750D01*
X250334250Y-112943750D02*
X248556250Y-112943750D01*
X261256250Y-112943750D02*
X259478250Y-112943750D01*
X261256250Y-111165750D02*
X261256250Y-112943750D01*
X261256250Y-100243750D02*
X261256250Y-102021750D01*
X259478250Y-100243750D02*
X261256250Y-100243750D01*
X248556250Y-100243750D02*
X250334250Y-100243750D01*
G04 #@! TO.C,K49*
X257837500Y-119275000D02*
X259615500Y-119275000D01*
X268759500Y-119275000D02*
X270537500Y-119275000D01*
X270537500Y-119275000D02*
X270537500Y-121053000D01*
X270537500Y-130197000D02*
X270537500Y-131975000D01*
X270537500Y-131975000D02*
X268759500Y-131975000D01*
X259615500Y-131975000D02*
X257837500Y-131975000D01*
X257837500Y-131975000D02*
X257837500Y-130197000D01*
X257837500Y-121053000D02*
X257837500Y-119275000D01*
G04 #@! TO.C,K50*
X253243750Y-62181250D02*
X255021750Y-62181250D01*
X264165750Y-62181250D02*
X265943750Y-62181250D01*
X265943750Y-62181250D02*
X265943750Y-63959250D01*
X265943750Y-73103250D02*
X265943750Y-74881250D01*
X265943750Y-74881250D02*
X264165750Y-74881250D01*
X255021750Y-74881250D02*
X253243750Y-74881250D01*
X253243750Y-74881250D02*
X253243750Y-73103250D01*
X253243750Y-63959250D02*
X253243750Y-62181250D01*
G04 #@! TO.C,K51*
X262900000Y-81212500D02*
X264678000Y-81212500D01*
X273822000Y-81212500D02*
X275600000Y-81212500D01*
X275600000Y-81212500D02*
X275600000Y-82990500D01*
X275600000Y-92134500D02*
X275600000Y-93912500D01*
X275600000Y-93912500D02*
X273822000Y-93912500D01*
X264678000Y-93912500D02*
X262900000Y-93912500D01*
X262900000Y-93912500D02*
X262900000Y-92134500D01*
X262900000Y-82990500D02*
X262900000Y-81212500D01*
G04 #@! TO.C,K52*
X267587500Y-102021750D02*
X267587500Y-100243750D01*
X267587500Y-112943750D02*
X267587500Y-111165750D01*
X269365500Y-112943750D02*
X267587500Y-112943750D01*
X280287500Y-112943750D02*
X278509500Y-112943750D01*
X280287500Y-111165750D02*
X280287500Y-112943750D01*
X280287500Y-100243750D02*
X280287500Y-102021750D01*
X278509500Y-100243750D02*
X280287500Y-100243750D01*
X267587500Y-100243750D02*
X269365500Y-100243750D01*
G04 #@! TO.C,K53*
X276898750Y-119263750D02*
X278676750Y-119263750D01*
X287820750Y-119263750D02*
X289598750Y-119263750D01*
X289598750Y-119263750D02*
X289598750Y-121041750D01*
X289598750Y-130185750D02*
X289598750Y-131963750D01*
X289598750Y-131963750D02*
X287820750Y-131963750D01*
X278676750Y-131963750D02*
X276898750Y-131963750D01*
X276898750Y-131963750D02*
X276898750Y-130185750D01*
X276898750Y-121041750D02*
X276898750Y-119263750D01*
G04 #@! TO.C,K54*
X272181250Y-62087500D02*
X273959250Y-62087500D01*
X283103250Y-62087500D02*
X284881250Y-62087500D01*
X284881250Y-62087500D02*
X284881250Y-63865500D01*
X284881250Y-73009500D02*
X284881250Y-74787500D01*
X284881250Y-74787500D02*
X283103250Y-74787500D01*
X273959250Y-74787500D02*
X272181250Y-74787500D01*
X272181250Y-74787500D02*
X272181250Y-73009500D01*
X272181250Y-63865500D02*
X272181250Y-62087500D01*
G04 #@! TO.C,K55*
X281931250Y-82990500D02*
X281931250Y-81212500D01*
X281931250Y-93912500D02*
X281931250Y-92134500D01*
X283709250Y-93912500D02*
X281931250Y-93912500D01*
X294631250Y-93912500D02*
X292853250Y-93912500D01*
X294631250Y-92134500D02*
X294631250Y-93912500D01*
X294631250Y-81212500D02*
X294631250Y-82990500D01*
X292853250Y-81212500D02*
X294631250Y-81212500D01*
X281931250Y-81212500D02*
X283709250Y-81212500D01*
G04 #@! TO.C,K56*
X286618750Y-102021750D02*
X286618750Y-100243750D01*
X286618750Y-112943750D02*
X286618750Y-111165750D01*
X288396750Y-112943750D02*
X286618750Y-112943750D01*
X299318750Y-112943750D02*
X297540750Y-112943750D01*
X299318750Y-111165750D02*
X299318750Y-112943750D01*
X299318750Y-100243750D02*
X299318750Y-102021750D01*
X297540750Y-100243750D02*
X299318750Y-100243750D01*
X286618750Y-100243750D02*
X288396750Y-100243750D01*
G04 #@! TO.C,K57*
X295993750Y-119275000D02*
X297771750Y-119275000D01*
X306915750Y-119275000D02*
X308693750Y-119275000D01*
X308693750Y-119275000D02*
X308693750Y-121053000D01*
X308693750Y-130197000D02*
X308693750Y-131975000D01*
X308693750Y-131975000D02*
X306915750Y-131975000D01*
X297771750Y-131975000D02*
X295993750Y-131975000D01*
X295993750Y-131975000D02*
X295993750Y-130197000D01*
X295993750Y-121053000D02*
X295993750Y-119275000D01*
G04 #@! TO.C,K58*
X291306250Y-63865500D02*
X291306250Y-62087500D01*
X291306250Y-74787500D02*
X291306250Y-73009500D01*
X293084250Y-74787500D02*
X291306250Y-74787500D01*
X304006250Y-74787500D02*
X302228250Y-74787500D01*
X304006250Y-73009500D02*
X304006250Y-74787500D01*
X304006250Y-62087500D02*
X304006250Y-63865500D01*
X302228250Y-62087500D02*
X304006250Y-62087500D01*
X291306250Y-62087500D02*
X293084250Y-62087500D01*
G04 #@! TO.C,K59*
X300962500Y-82990500D02*
X300962500Y-81212500D01*
X300962500Y-93912500D02*
X300962500Y-92134500D01*
X302740500Y-93912500D02*
X300962500Y-93912500D01*
X313662500Y-93912500D02*
X311884500Y-93912500D01*
X313662500Y-92134500D02*
X313662500Y-93912500D01*
X313662500Y-81212500D02*
X313662500Y-82990500D01*
X311884500Y-81212500D02*
X313662500Y-81212500D01*
X300962500Y-81212500D02*
X302740500Y-81212500D01*
G04 #@! TO.C,K60*
X305650000Y-100243750D02*
X307428000Y-100243750D01*
X316572000Y-100243750D02*
X318350000Y-100243750D01*
X318350000Y-100243750D02*
X318350000Y-102021750D01*
X318350000Y-111165750D02*
X318350000Y-112943750D01*
X318350000Y-112943750D02*
X316572000Y-112943750D01*
X307428000Y-112943750D02*
X305650000Y-112943750D01*
X305650000Y-112943750D02*
X305650000Y-111165750D01*
X305650000Y-102021750D02*
X305650000Y-100243750D01*
G04 #@! TO.C,K61*
X315118750Y-121053000D02*
X315118750Y-119275000D01*
X315118750Y-131975000D02*
X315118750Y-130197000D01*
X316896750Y-131975000D02*
X315118750Y-131975000D01*
X327818750Y-131975000D02*
X326040750Y-131975000D01*
X327818750Y-130197000D02*
X327818750Y-131975000D01*
X327818750Y-119275000D02*
X327818750Y-121053000D01*
X326040750Y-119275000D02*
X327818750Y-119275000D01*
X315118750Y-119275000D02*
X316896750Y-119275000D01*
G04 #@! TO.C,K63*
X310337500Y-62087500D02*
X312115500Y-62087500D01*
X321259500Y-62087500D02*
X323037500Y-62087500D01*
X323037500Y-62087500D02*
X323037500Y-63865500D01*
X323037500Y-73009500D02*
X323037500Y-74787500D01*
X323037500Y-74787500D02*
X321259500Y-74787500D01*
X312115500Y-74787500D02*
X310337500Y-74787500D01*
X310337500Y-74787500D02*
X310337500Y-73009500D01*
X310337500Y-63865500D02*
X310337500Y-62087500D01*
G04 #@! TO.C,K64*
X319993750Y-82990500D02*
X319993750Y-81212500D01*
X319993750Y-93912500D02*
X319993750Y-92134500D01*
X321771750Y-93912500D02*
X319993750Y-93912500D01*
X332693750Y-93912500D02*
X330915750Y-93912500D01*
X332693750Y-92134500D02*
X332693750Y-93912500D01*
X332693750Y-81212500D02*
X332693750Y-82990500D01*
X330915750Y-81212500D02*
X332693750Y-81212500D01*
X319993750Y-81212500D02*
X321771750Y-81212500D01*
G04 #@! TO.C,K65*
X324681250Y-102021750D02*
X324681250Y-100243750D01*
X324681250Y-112943750D02*
X324681250Y-111165750D01*
X326459250Y-112943750D02*
X324681250Y-112943750D01*
X337381250Y-112943750D02*
X335603250Y-112943750D01*
X337381250Y-111165750D02*
X337381250Y-112943750D01*
X337381250Y-100243750D02*
X337381250Y-102021750D01*
X335603250Y-100243750D02*
X337381250Y-100243750D01*
X324681250Y-100243750D02*
X326459250Y-100243750D01*
G04 #@! TO.C,K66*
X334150000Y-119275000D02*
X335928000Y-119275000D01*
X345072000Y-119275000D02*
X346850000Y-119275000D01*
X346850000Y-119275000D02*
X346850000Y-121053000D01*
X346850000Y-130197000D02*
X346850000Y-131975000D01*
X346850000Y-131975000D02*
X345072000Y-131975000D01*
X335928000Y-131975000D02*
X334150000Y-131975000D01*
X334150000Y-131975000D02*
X334150000Y-130197000D01*
X334150000Y-121053000D02*
X334150000Y-119275000D01*
G04 #@! TO.C,K67*
X329462500Y-63865500D02*
X329462500Y-62087500D01*
X329462500Y-74787500D02*
X329462500Y-73009500D01*
X331240500Y-74787500D02*
X329462500Y-74787500D01*
X342162500Y-74787500D02*
X340384500Y-74787500D01*
X342162500Y-73009500D02*
X342162500Y-74787500D01*
X342162500Y-62087500D02*
X342162500Y-63865500D01*
X340384500Y-62087500D02*
X342162500Y-62087500D01*
X329462500Y-62087500D02*
X331240500Y-62087500D01*
G04 #@! TO.C,K68*
X339025000Y-82990500D02*
X339025000Y-81212500D01*
X339025000Y-93912500D02*
X339025000Y-92134500D01*
X340803000Y-93912500D02*
X339025000Y-93912500D01*
X351725000Y-93912500D02*
X349947000Y-93912500D01*
X351725000Y-92134500D02*
X351725000Y-93912500D01*
X351725000Y-81212500D02*
X351725000Y-82990500D01*
X349947000Y-81212500D02*
X351725000Y-81212500D01*
X339025000Y-81212500D02*
X340803000Y-81212500D01*
G04 #@! TO.C,K69*
X343712500Y-100243750D02*
X345490500Y-100243750D01*
X354634500Y-100243750D02*
X356412500Y-100243750D01*
X356412500Y-100243750D02*
X356412500Y-102021750D01*
X356412500Y-111165750D02*
X356412500Y-112943750D01*
X356412500Y-112943750D02*
X354634500Y-112943750D01*
X345490500Y-112943750D02*
X343712500Y-112943750D01*
X343712500Y-112943750D02*
X343712500Y-111165750D01*
X343712500Y-102021750D02*
X343712500Y-100243750D01*
G04 #@! TO.C,K71*
X367525000Y-140084250D02*
X367525000Y-138306250D01*
X367525000Y-151006250D02*
X367525000Y-149228250D01*
X369303000Y-151006250D02*
X367525000Y-151006250D01*
X380225000Y-151006250D02*
X378447000Y-151006250D01*
X380225000Y-149228250D02*
X380225000Y-151006250D01*
X380225000Y-138306250D02*
X380225000Y-140084250D01*
X378447000Y-138306250D02*
X380225000Y-138306250D01*
X367525000Y-138306250D02*
X369303000Y-138306250D01*
G04 #@! TO.C,K72*
X348493750Y-62087500D02*
X350271750Y-62087500D01*
X359415750Y-62087500D02*
X361193750Y-62087500D01*
X361193750Y-62087500D02*
X361193750Y-63865500D01*
X361193750Y-73009500D02*
X361193750Y-74787500D01*
X361193750Y-74787500D02*
X359415750Y-74787500D01*
X350271750Y-74787500D02*
X348493750Y-74787500D01*
X348493750Y-74787500D02*
X348493750Y-73009500D01*
X348493750Y-63865500D02*
X348493750Y-62087500D01*
G04 #@! TO.C,K73*
X358073750Y-81212500D02*
X359851750Y-81212500D01*
X368995750Y-81212500D02*
X370773750Y-81212500D01*
X370773750Y-81212500D02*
X370773750Y-82990500D01*
X370773750Y-92134500D02*
X370773750Y-93912500D01*
X370773750Y-93912500D02*
X368995750Y-93912500D01*
X359851750Y-93912500D02*
X358073750Y-93912500D01*
X358073750Y-93912500D02*
X358073750Y-92134500D01*
X358073750Y-82990500D02*
X358073750Y-81212500D01*
G04 #@! TO.C,K75*
X386556250Y-119275000D02*
X388334250Y-119275000D01*
X397478250Y-119275000D02*
X399256250Y-119275000D01*
X399256250Y-119275000D02*
X399256250Y-121053000D01*
X399256250Y-130197000D02*
X399256250Y-131975000D01*
X399256250Y-131975000D02*
X397478250Y-131975000D01*
X388334250Y-131975000D02*
X386556250Y-131975000D01*
X386556250Y-131975000D02*
X386556250Y-130197000D01*
X386556250Y-121053000D02*
X386556250Y-119275000D01*
G04 #@! TO.C,K76*
X386556250Y-138306250D02*
X388334250Y-138306250D01*
X397478250Y-138306250D02*
X399256250Y-138306250D01*
X399256250Y-138306250D02*
X399256250Y-140084250D01*
X399256250Y-149228250D02*
X399256250Y-151006250D01*
X399256250Y-151006250D02*
X397478250Y-151006250D01*
X388334250Y-151006250D02*
X386556250Y-151006250D01*
X386556250Y-151006250D02*
X386556250Y-149228250D01*
X386556250Y-140084250D02*
X386556250Y-138306250D01*
G04 #@! TO.C,K80*
X405587500Y-63865500D02*
X405587500Y-62087500D01*
X405587500Y-74787500D02*
X405587500Y-73009500D01*
X407365500Y-74787500D02*
X405587500Y-74787500D01*
X418287500Y-74787500D02*
X416509500Y-74787500D01*
X418287500Y-73009500D02*
X418287500Y-74787500D01*
X418287500Y-62087500D02*
X418287500Y-63865500D01*
X416509500Y-62087500D02*
X418287500Y-62087500D01*
X405587500Y-62087500D02*
X407365500Y-62087500D01*
G04 #@! TO.C,K81*
X405587500Y-82990500D02*
X405587500Y-81212500D01*
X405587500Y-93912500D02*
X405587500Y-92134500D01*
X407365500Y-93912500D02*
X405587500Y-93912500D01*
X418287500Y-93912500D02*
X416509500Y-93912500D01*
X418287500Y-92134500D02*
X418287500Y-93912500D01*
X418287500Y-81212500D02*
X418287500Y-82990500D01*
X416509500Y-81212500D02*
X418287500Y-81212500D01*
X405587500Y-81212500D02*
X407365500Y-81212500D01*
G04 #@! TO.C,K82*
X405587500Y-100243750D02*
X407365500Y-100243750D01*
X416509500Y-100243750D02*
X418287500Y-100243750D01*
X418287500Y-100243750D02*
X418287500Y-102021750D01*
X418287500Y-111165750D02*
X418287500Y-112943750D01*
X418287500Y-112943750D02*
X416509500Y-112943750D01*
X407365500Y-112943750D02*
X405587500Y-112943750D01*
X405587500Y-112943750D02*
X405587500Y-111165750D01*
X405587500Y-102021750D02*
X405587500Y-100243750D01*
G04 #@! TO.C,K83*
X405605000Y-119275000D02*
X407383000Y-119275000D01*
X416527000Y-119275000D02*
X418305000Y-119275000D01*
X418305000Y-119275000D02*
X418305000Y-121053000D01*
X418305000Y-130197000D02*
X418305000Y-131975000D01*
X418305000Y-131975000D02*
X416527000Y-131975000D01*
X407383000Y-131975000D02*
X405605000Y-131975000D01*
X405605000Y-131975000D02*
X405605000Y-130197000D01*
X405605000Y-121053000D02*
X405605000Y-119275000D01*
G04 #@! TO.C,K84*
X405587500Y-140084250D02*
X405587500Y-138306250D01*
X405587500Y-151006250D02*
X405587500Y-149228250D01*
X407365500Y-151006250D02*
X405587500Y-151006250D01*
X418287500Y-151006250D02*
X416509500Y-151006250D01*
X418287500Y-149228250D02*
X418287500Y-151006250D01*
X418287500Y-138306250D02*
X418287500Y-140084250D01*
X416509500Y-138306250D02*
X418287500Y-138306250D01*
X405587500Y-138306250D02*
X407365500Y-138306250D01*
G04 #@! TD*
M02*
