M48
;DRILL file {KiCad (5.0.0)} date 09/24/18 14:54:41
;FORMAT={-:-/ absolute / inch / decimal}
FMAT,2
INCH,TZ
T1C0.0670
T2C0.0689
T3C0.1200
T4C0.1570
%
G90
G05
M72
T1
X12.6482Y-3.4473
X13.0482Y-3.4473
X6.4585Y-4.9459
X6.8585Y-4.9459
X16.0187Y-4.9459
X16.4187Y-4.9459
X1.4014Y-4.1959
X1.8014Y-4.1959
X2.8994Y-4.1959
X3.2994Y-4.1959
X14.5195Y-2.6944
X14.9195Y-2.6944
X6.739Y-5.6951
X7.139Y-5.6951
X9.0864Y-4.1966
X9.4864Y-4.1966
X8.5217Y-2.6981
X8.9217Y-2.6981
X8.1526Y-3.4473
X8.5526Y-3.4473
X5.2405Y-4.9459
X5.6405Y-4.9459
X5.799Y-5.6947
X6.199Y-5.6947
X13.2055Y-4.9459
X13.6055Y-4.9459
X13.3974Y-3.4473
X13.7974Y-3.4473
X12.0835Y-4.1966
X12.4835Y-4.1966
X7.5879Y-4.1966
X7.9879Y-4.1966
X1.4Y-2.7
X1.8Y-2.7
X15.2687Y-5.6951
X15.6687Y-5.6951
X2.9004Y-3.4473
X3.3004Y-3.4473
X7.7724Y-2.6981
X8.1724Y-2.6981
X8.3372Y-4.1966
X8.7372Y-4.1966
X11.5187Y-2.6944
X11.9187Y-2.6944
X11.8989Y-3.4473
X12.2989Y-3.4473
X4.9636Y-3.4473
X5.3636Y-3.4473
X11.3342Y-4.1966
X11.7342Y-4.1966
X7.4008Y-3.4469
X7.8008Y-3.4469
X4.7754Y-2.6981
X5.1754Y-2.6981
X2.1494Y-4.1959
X2.5494Y-4.1959
X16.018Y-4.1966
X16.418Y-4.1966
X8.7026Y-4.9459
X9.1026Y-4.9459
X7.9533Y-4.9459
X8.3533Y-4.9459
X14.236Y-4.9459
X14.636Y-4.9459
X10.7658Y-2.6944
X11.1658Y-2.6944
X11.7033Y-4.9459
X12.1033Y-4.9459
X14.5195Y-5.6951
X14.9195Y-5.6951
X6.0894Y-4.1966
X6.4894Y-4.1966
X2.8996Y-5.6937
X3.2996Y-5.6937
X3.6497Y-2.6981
X4.0497Y-2.6981
X2.1486Y-3.4473
X2.5486Y-3.4473
X16.018Y-2.6944
X16.418Y-2.6944
X9.271Y-2.6981
X9.671Y-2.6981
X16.018Y-5.6951
X16.418Y-5.6951
X1.7759Y-5.6943
X2.1759Y-5.6943
X13.0283Y-5.6951
X13.4283Y-5.6951
X14.8Y-4.1966
X15.2Y-4.1966
X13.021Y-2.6944
X13.421Y-2.6944
X13.582Y-4.1966
X13.982Y-4.1966
X7.0232Y-2.6981
X7.4232Y-2.6981
X7.204Y-4.9459
X7.604Y-4.9459
X2.9004Y-2.6981
X3.3004Y-2.6981
X15.2687Y-4.9459
X15.6687Y-4.9459
X1.4006Y-3.4473
X1.8006Y-3.4473
X10.4004Y-3.4473
X10.8004Y-3.4473
X3.8469Y-5.1204
X3.8469Y-5.5204
X10.0202Y-2.6981
X10.4202Y-2.6981
X13.7702Y-2.6944
X14.1702Y-2.6944
X10.9515Y-4.9454
X11.3515Y-4.9454
X12.4562Y-4.9459
X12.8562Y-4.9459
X12.8327Y-4.1966
X13.2327Y-4.1966
X5.5247Y-2.6981
X5.9247Y-2.6981
X5.9011Y-3.4473
X6.3011Y-3.4473
X6.6516Y-3.4469
X7.0516Y-3.4469
X2.1484Y-2.6998
X2.5484Y-2.6998
X5.0559Y-4.1966
X5.4559Y-4.1966
X2.1496Y-4.9457
X2.5496Y-4.9457
X15.0805Y-3.4473
X15.4805Y-3.4473
X9.8357Y-4.1966
X10.2357Y-4.1966
X9.6511Y-3.4473
X10.0511Y-3.4473
X16.018Y-3.4473
X16.418Y-3.4473
X10.5849Y-4.1966
X10.9849Y-4.1966
X11.1497Y-3.4473
X11.5497Y-3.4473
X12.268Y-2.6944
X12.668Y-2.6944
X6.2739Y-2.6981
X6.6739Y-2.6981
X6.8386Y-4.1966
X7.2386Y-4.1966
X1.4019Y-4.9459
X1.8019Y-4.9459
X3.8478Y-3.6214
X3.8478Y-4.0214
X14.1474Y-3.4473
X14.5474Y-3.4473
X2.8986Y-4.9457
X3.2986Y-4.9457
X9.4518Y-4.9459
X9.8518Y-4.9459
X8.9019Y-3.4473
X9.3019Y-3.4473
X15.2687Y-2.6944
X15.6687Y-2.6944
X10.2011Y-4.9459
X10.6011Y-4.9459
X4.864Y-5.6951
X5.264Y-5.6951
T2
X9.8357Y-5.6988
X10.2357Y-5.6988
T3
X3.5719Y-4.8504
X3.5719Y-5.7904
X3.5728Y-4.2914
X7.7857Y-5.9738
X12.2857Y-5.9738
X4.9705Y-4.6709
X5.9105Y-4.6709
X1.5059Y-5.4193
X2.4459Y-5.4193
X14.53Y-3.9216
X15.47Y-3.9216
X3.5728Y-3.3514
T4
X16.2187Y-4.9459
X1.6014Y-4.1959
X3.0994Y-4.1959
X14.7195Y-2.6944
X6.939Y-5.6951
X9.2864Y-4.1966
X8.7217Y-2.6981
X8.3526Y-3.4473
X4.9705Y-5.2709
X5.4405Y-4.9459
X5.9105Y-5.2709
X5.999Y-5.6947
X13.4055Y-4.9459
X13.5974Y-3.4473
X12.2835Y-4.1966
X7.7879Y-4.1966
X1.6Y-2.7
X15.4688Y-5.6951
X3.1004Y-3.4473
X7.9724Y-2.6981
X8.5372Y-4.1966
X11.7188Y-2.6944
X12.0989Y-3.4473
X5.1636Y-3.4473
X11.5342Y-4.1966
X7.6008Y-3.4469
X4.9754Y-2.6981
X2.3494Y-4.1959
X16.218Y-4.1966
X8.9026Y-4.9459
X8.1533Y-4.9459
X14.436Y-4.9459
X10.9658Y-2.6944
X11.9033Y-4.9459
X14.7195Y-5.6951
X6.2894Y-4.1966
X3.0996Y-5.6937
X3.8497Y-2.6981
X2.3486Y-3.4473
X16.218Y-2.6944
X9.471Y-2.6981
X16.218Y-5.6951
X1.5059Y-6.0193
X1.9759Y-5.6943
X2.4459Y-6.0193
X13.2283Y-5.6951
X14.53Y-4.5216
X15.Y-4.1966
X15.47Y-4.5216
X13.221Y-2.6944
X13.782Y-4.1966
X7.2232Y-2.6981
X7.404Y-4.9459
X3.1004Y-2.6981
X15.4688Y-4.9459
X1.6006Y-3.4473
X10.6004Y-3.4473
X3.8469Y-5.3204
X4.1719Y-4.8504
X4.1719Y-5.7904
X10.2202Y-2.6981
X13.9702Y-2.6944
X11.1515Y-4.9454
X12.6562Y-4.9459
X13.0327Y-4.1966
X5.7247Y-2.6981
X6.1011Y-3.4473
X6.8516Y-3.4469
X2.3484Y-2.6998
X5.2559Y-4.1966
X2.3496Y-4.9457
X15.2805Y-3.4473
X10.0357Y-4.1966
X9.8511Y-3.4473
X16.218Y-3.4473
X10.7849Y-4.1966
X11.3497Y-3.4473
X12.468Y-2.6944
X6.4739Y-2.6981
X7.0386Y-4.1966
X1.6019Y-4.9459
X3.8478Y-3.8214
X4.1728Y-3.3514
X4.1728Y-4.2914
X14.3474Y-3.4473
X3.0986Y-4.9457
X9.6518Y-4.9459
X9.1019Y-3.4473
X15.4688Y-2.6944
X10.4011Y-4.9459
X5.064Y-5.6951
X7.7857Y-5.3738
X10.0357Y-5.6988
X12.2857Y-5.3738
X12.8482Y-3.4473
X6.6585Y-4.9459
T0
M30
