G04 #@! TF.GenerationSoftware,KiCad,Pcbnew,(5.0.0)*
G04 #@! TF.CreationDate,2018-09-24T14:53:38-06:00*
G04 #@! TF.ProjectId,SouthPole,536F757468506F6C652E6B696361645F,rev?*
G04 #@! TF.SameCoordinates,Original*
G04 #@! TF.FileFunction,Soldermask,Bot*
G04 #@! TF.FilePolarity,Negative*
%FSLAX46Y46*%
G04 Gerber Fmt 4.6, Leading zero omitted, Abs format (unit mm)*
G04 Created by KiCad (PCBNEW (5.0.0)) date 09/24/18 14:53:38*
%MOMM*%
%LPD*%
G01*
G04 APERTURE LIST*
%ADD10C,2.900000*%
%ADD11C,2.900000*%
%ADD12C,4.387800*%
%ADD13C,3.448000*%
%ADD14C,2.150000*%
%ADD15C,2.650000*%
%ADD16C,2.650000*%
%ADD17C,2.000000*%
%ADD18R,2.000000X2.000000*%
%ADD19C,2.152600*%
%ADD20R,2.152600X2.152600*%
G04 APERTURE END LIST*
D10*
G04 #@! TO.C,K15*
X94376250Y-65261250D03*
D11*
X94781703Y-64531296D02*
X93970797Y-65991204D01*
D10*
X100301250Y-63741250D03*
D11*
X100320974Y-63451922D02*
X100281526Y-64030578D01*
G04 #@! TD*
D10*
G04 #@! TO.C,K77*
X376395000Y-63647500D03*
D11*
X376414724Y-63358172D02*
X376375276Y-63936828D01*
D10*
X370470000Y-65167500D03*
D11*
X370875453Y-64437546D02*
X370064547Y-65897454D01*
G04 #@! TD*
D10*
G04 #@! TO.C,K79*
X395426250Y-63647500D03*
D11*
X395445974Y-63358172D02*
X395406526Y-63936828D01*
D10*
X389501250Y-65167500D03*
D11*
X389906703Y-64437546D02*
X389095797Y-65897454D01*
G04 #@! TD*
D10*
G04 #@! TO.C,K78*
X390645000Y-82772500D03*
D11*
X390664724Y-82483172D02*
X390625276Y-83061828D01*
D10*
X384720000Y-84292500D03*
D11*
X385125453Y-83562546D02*
X384314547Y-85022454D01*
G04 #@! TD*
D10*
G04 #@! TO.C,K74*
X383520000Y-101803750D03*
D11*
X383539724Y-101514422D02*
X383500276Y-102093078D01*
D10*
X377595000Y-103323750D03*
D11*
X378000453Y-102593796D02*
X377189547Y-104053704D01*
G04 #@! TD*
D10*
G04 #@! TO.C,K70*
X369193750Y-120835000D03*
D11*
X369213474Y-120545672D02*
X369174026Y-121124328D01*
D10*
X363268750Y-122355000D03*
D11*
X363674203Y-121625046D02*
X362863297Y-123084954D01*
G04 #@! TD*
D10*
G04 #@! TO.C,K62*
X338520000Y-139866250D03*
D11*
X338539724Y-139576922D02*
X338500276Y-140155578D01*
D10*
X332595000Y-141386250D03*
D11*
X333000453Y-140656296D02*
X332189547Y-142116204D01*
G04 #@! TD*
D12*
G04 #@! TO.C,K45*
X312056250Y-136495000D03*
X197756250Y-136495000D03*
D13*
X312056250Y-151735000D03*
X197756250Y-151735000D03*
D14*
X259986250Y-144750000D03*
X249826250Y-144750000D03*
D15*
X252406250Y-140750000D03*
D12*
X254906250Y-144750000D03*
D15*
X251751251Y-141480000D03*
D16*
X251096250Y-142210000D02*
X252406252Y-140750000D01*
D15*
X257446250Y-139670000D03*
X257426250Y-139960000D03*
D16*
X257406250Y-140250000D02*
X257446250Y-139670000D01*
G04 #@! TD*
D10*
G04 #@! TO.C,K32*
X178770000Y-139866250D03*
D11*
X178789724Y-139576922D02*
X178750276Y-140155578D01*
D10*
X172845000Y-141386250D03*
D11*
X173250453Y-140656296D02*
X172439547Y-142116204D01*
G04 #@! TD*
D10*
G04 #@! TO.C,K27*
X154893750Y-139855000D03*
D11*
X154913474Y-139565672D02*
X154874026Y-140144328D01*
D10*
X148968750Y-141375000D03*
D11*
X149374203Y-140645046D02*
X148563297Y-142104954D01*
G04 #@! TD*
D10*
G04 #@! TO.C,K21*
X140707500Y-120835000D03*
D11*
X140727224Y-120545672D02*
X140687776Y-121124328D01*
D10*
X134782500Y-122355000D03*
D11*
X135187953Y-121625046D02*
X134377047Y-123084954D01*
G04 #@! TD*
D10*
G04 #@! TO.C,K22*
X131145000Y-139866250D03*
D11*
X131164724Y-139576922D02*
X131125276Y-140155578D01*
D10*
X125220000Y-141386250D03*
D11*
X125625453Y-140656296D02*
X124814547Y-142116204D01*
G04 #@! TD*
D10*
G04 #@! TO.C,K20*
X136020000Y-101803750D03*
D11*
X136039724Y-101514422D02*
X136000276Y-102093078D01*
D10*
X130095000Y-103323750D03*
D11*
X130500453Y-102593796D02*
X129689547Y-104053704D01*
G04 #@! TD*
D10*
G04 #@! TO.C,K19*
X133676250Y-82772500D03*
D11*
X133695974Y-82483172D02*
X133656526Y-83061828D01*
D10*
X127751250Y-84292500D03*
D11*
X128156703Y-83562546D02*
X127345797Y-85022454D01*
G04 #@! TD*
D10*
G04 #@! TO.C,K17*
X92920000Y-132618000D03*
D11*
X92630672Y-132598276D02*
X93209328Y-132637724D01*
D10*
X94440000Y-138543000D03*
D11*
X93710046Y-138137547D02*
X95169954Y-138948453D01*
G04 #@! TD*
D10*
G04 #@! TO.C,K9*
X52707000Y-139845000D03*
D11*
X52726724Y-139555672D02*
X52687276Y-140134328D01*
D10*
X46782000Y-141365000D03*
D11*
X47187453Y-140635046D02*
X46376547Y-142094954D01*
G04 #@! TD*
D10*
G04 #@! TO.C,K16*
X92945000Y-94543000D03*
D11*
X92655672Y-94523276D02*
X93234328Y-94562724D01*
D10*
X94465000Y-100468000D03*
D11*
X93735046Y-100062547D02*
X95194954Y-100873453D01*
G04 #@! TD*
D17*
G04 #@! TO.C,D1*
X50437500Y-63731250D03*
D18*
X50437500Y-71531250D03*
G04 #@! TD*
G04 #@! TO.C,D2*
X50437500Y-90525000D03*
D17*
X50437500Y-82725000D03*
G04 #@! TD*
G04 #@! TO.C,D3*
X50450000Y-101800000D03*
D18*
X50450000Y-109600000D03*
G04 #@! TD*
G04 #@! TO.C,D4*
X50531250Y-128587500D03*
D17*
X50531250Y-120787500D03*
G04 #@! TD*
D18*
G04 #@! TO.C,D5*
X69656250Y-71625000D03*
D17*
X69656250Y-63825000D03*
G04 #@! TD*
D18*
G04 #@! TO.C,D6*
X69562500Y-90562500D03*
D17*
X69562500Y-82762500D03*
G04 #@! TD*
G04 #@! TO.C,D7*
X69500000Y-101800000D03*
D18*
X69500000Y-109600000D03*
G04 #@! TD*
G04 #@! TO.C,D8*
X69375000Y-128587500D03*
D17*
X69375000Y-120787500D03*
G04 #@! TD*
G04 #@! TO.C,D9*
X69475000Y-139912500D03*
D18*
X69475000Y-147712500D03*
G04 #@! TD*
G04 #@! TO.C,D10*
X88500000Y-71493750D03*
D17*
X88500000Y-63693750D03*
G04 #@! TD*
G04 #@! TO.C,D11*
X82650000Y-97050000D03*
D18*
X74850000Y-97050000D03*
G04 #@! TD*
G04 #@! TO.C,D12*
X75100000Y-116225000D03*
D17*
X82900000Y-116225000D03*
G04 #@! TD*
G04 #@! TO.C,D13*
X88425000Y-131200000D03*
D18*
X88425000Y-139000000D03*
G04 #@! TD*
G04 #@! TO.C,D14*
X87175000Y-152525000D03*
D17*
X94975000Y-152525000D03*
G04 #@! TD*
D18*
G04 #@! TO.C,D15*
X116750000Y-63600000D03*
D17*
X108950000Y-63600000D03*
G04 #@! TD*
G04 #@! TO.C,D16*
X106000000Y-92200000D03*
D18*
X106000000Y-100000000D03*
G04 #@! TD*
G04 #@! TO.C,D17*
X107625000Y-137962500D03*
D17*
X107625000Y-130162500D03*
G04 #@! TD*
G04 #@! TO.C,D18*
X136218750Y-63787500D03*
D18*
X136218750Y-71587500D03*
G04 #@! TD*
G04 #@! TO.C,D19*
X144000000Y-90525000D03*
D17*
X144000000Y-82725000D03*
G04 #@! TD*
G04 #@! TO.C,D20*
X148593750Y-101850000D03*
D18*
X148593750Y-109650000D03*
G04 #@! TD*
G04 #@! TO.C,D21*
X159562500Y-128681250D03*
D17*
X159562500Y-120881250D03*
G04 #@! TD*
G04 #@! TO.C,D22*
X140437500Y-139912500D03*
D18*
X140437500Y-147712500D03*
G04 #@! TD*
G04 #@! TO.C,D23*
X155250000Y-71493750D03*
D17*
X155250000Y-63693750D03*
G04 #@! TD*
G04 #@! TO.C,D24*
X164812500Y-82818750D03*
D18*
X164812500Y-90618750D03*
G04 #@! TD*
G04 #@! TO.C,D25*
X169593750Y-109556250D03*
D17*
X169593750Y-101756250D03*
G04 #@! TD*
G04 #@! TO.C,D26*
X178875000Y-120787500D03*
D18*
X178875000Y-128587500D03*
G04 #@! TD*
G04 #@! TO.C,D27*
X164250000Y-147618750D03*
D17*
X164250000Y-139818750D03*
G04 #@! TD*
D18*
G04 #@! TO.C,D28*
X174187500Y-71493750D03*
D17*
X174187500Y-63693750D03*
G04 #@! TD*
D18*
G04 #@! TO.C,D29*
X183843750Y-90525000D03*
D17*
X183843750Y-82725000D03*
G04 #@! TD*
G04 #@! TO.C,D30*
X188625000Y-101850000D03*
D18*
X188625000Y-109650000D03*
G04 #@! TD*
G04 #@! TO.C,D31*
X197812500Y-128643750D03*
D17*
X197812500Y-120843750D03*
G04 #@! TD*
D18*
G04 #@! TO.C,D32*
X186656250Y-147581250D03*
D17*
X186656250Y-139781250D03*
G04 #@! TD*
G04 #@! TO.C,D33*
X193312500Y-63787500D03*
D18*
X193312500Y-71587500D03*
G04 #@! TD*
D17*
G04 #@! TO.C,D34*
X202875000Y-82781250D03*
D18*
X202875000Y-90581250D03*
G04 #@! TD*
D17*
G04 #@! TO.C,D35*
X207656250Y-101756250D03*
D18*
X207656250Y-109556250D03*
G04 #@! TD*
D17*
G04 #@! TO.C,D36*
X216937500Y-120787500D03*
D18*
X216937500Y-128587500D03*
G04 #@! TD*
G04 #@! TO.C,D37*
X212250000Y-71531250D03*
D17*
X212250000Y-63731250D03*
G04 #@! TD*
D18*
G04 #@! TO.C,D38*
X221906250Y-90562500D03*
D17*
X221906250Y-82762500D03*
G04 #@! TD*
G04 #@! TO.C,D39*
X226593750Y-101812500D03*
D18*
X226593750Y-109612500D03*
G04 #@! TD*
G04 #@! TO.C,D40*
X235875000Y-128643750D03*
D17*
X235875000Y-120843750D03*
G04 #@! TD*
D18*
G04 #@! TO.C,D41*
X231281250Y-71531250D03*
D17*
X231281250Y-63731250D03*
G04 #@! TD*
D18*
G04 #@! TO.C,D42*
X240937500Y-90525000D03*
D17*
X240937500Y-82725000D03*
G04 #@! TD*
G04 #@! TO.C,D43*
X245718750Y-101850000D03*
D18*
X245718750Y-109650000D03*
G04 #@! TD*
G04 #@! TO.C,D44*
X254906250Y-128681250D03*
D17*
X254906250Y-120881250D03*
G04 #@! TD*
G04 #@! TO.C,D45*
X323343750Y-139687500D03*
D18*
X323343750Y-147487500D03*
G04 #@! TD*
D17*
G04 #@! TO.C,D46*
X250312500Y-63750000D03*
D18*
X250312500Y-71550000D03*
G04 #@! TD*
D17*
G04 #@! TO.C,D47*
X259968750Y-82781250D03*
D18*
X259968750Y-90581250D03*
G04 #@! TD*
G04 #@! TO.C,D48*
X264750000Y-109593750D03*
D17*
X264750000Y-101793750D03*
G04 #@! TD*
D18*
G04 #@! TO.C,D49*
X274031250Y-128681250D03*
D17*
X274031250Y-120881250D03*
G04 #@! TD*
G04 #@! TO.C,D50*
X269250000Y-63750000D03*
D18*
X269250000Y-71550000D03*
G04 #@! TD*
G04 #@! TO.C,D51*
X279093750Y-90525000D03*
D17*
X279093750Y-82725000D03*
G04 #@! TD*
G04 #@! TO.C,D52*
X283687500Y-101718750D03*
D18*
X283687500Y-109518750D03*
G04 #@! TD*
G04 #@! TO.C,D53*
X293156250Y-128643750D03*
D17*
X293156250Y-120843750D03*
G04 #@! TD*
D18*
G04 #@! TO.C,D54*
X288468750Y-71400000D03*
D17*
X288468750Y-63600000D03*
G04 #@! TD*
D18*
G04 #@! TO.C,D55*
X298125000Y-90581250D03*
D17*
X298125000Y-82781250D03*
G04 #@! TD*
G04 #@! TO.C,D56*
X302718750Y-101812500D03*
D18*
X302718750Y-109612500D03*
G04 #@! TD*
D17*
G04 #@! TO.C,D57*
X312187500Y-120843750D03*
D18*
X312187500Y-128643750D03*
G04 #@! TD*
G04 #@! TO.C,D58*
X307406250Y-71362500D03*
D17*
X307406250Y-63562500D03*
G04 #@! TD*
G04 #@! TO.C,D59*
X317062500Y-82781250D03*
D18*
X317062500Y-90581250D03*
G04 #@! TD*
D17*
G04 #@! TO.C,D60*
X321750000Y-101812500D03*
D18*
X321750000Y-109612500D03*
G04 #@! TD*
G04 #@! TO.C,D61*
X331218750Y-128643750D03*
D17*
X331218750Y-120843750D03*
G04 #@! TD*
G04 #@! TO.C,D62*
X348656250Y-139875000D03*
D18*
X348656250Y-147675000D03*
G04 #@! TD*
G04 #@! TO.C,D63*
X326625000Y-71456250D03*
D17*
X326625000Y-63656250D03*
G04 #@! TD*
G04 #@! TO.C,D64*
X336187500Y-82781250D03*
D18*
X336187500Y-90581250D03*
G04 #@! TD*
D17*
G04 #@! TO.C,D65*
X340875000Y-101756250D03*
D18*
X340875000Y-109556250D03*
G04 #@! TD*
G04 #@! TO.C,D66*
X350531250Y-128643750D03*
D17*
X350531250Y-120843750D03*
G04 #@! TD*
G04 #@! TO.C,D67*
X345562500Y-63656250D03*
D18*
X345562500Y-71456250D03*
G04 #@! TD*
G04 #@! TO.C,D68*
X355125000Y-90581250D03*
D17*
X355125000Y-82781250D03*
G04 #@! TD*
G04 #@! TO.C,D69*
X360656250Y-101718750D03*
D18*
X360656250Y-109518750D03*
G04 #@! TD*
D17*
G04 #@! TO.C,D70*
X380437500Y-120843750D03*
D18*
X380437500Y-128643750D03*
G04 #@! TD*
D17*
G04 #@! TO.C,D71*
X363093750Y-139856250D03*
D18*
X363093750Y-147656250D03*
G04 #@! TD*
G04 #@! TO.C,D72*
X364687500Y-71493750D03*
D17*
X364687500Y-63693750D03*
G04 #@! TD*
D18*
G04 #@! TO.C,D73*
X375750000Y-90581250D03*
D17*
X375750000Y-82781250D03*
G04 #@! TD*
G04 #@! TO.C,D74*
X400968750Y-101812500D03*
D18*
X400968750Y-109612500D03*
G04 #@! TD*
G04 #@! TO.C,D75*
X402656250Y-128643750D03*
D17*
X402656250Y-120843750D03*
G04 #@! TD*
G04 #@! TO.C,D76*
X383625000Y-139856250D03*
D18*
X383625000Y-147656250D03*
G04 #@! TD*
G04 #@! TO.C,D77*
X383625000Y-71456250D03*
D17*
X383625000Y-63656250D03*
G04 #@! TD*
D18*
G04 #@! TO.C,D78*
X400687500Y-90581250D03*
D17*
X400687500Y-82781250D03*
G04 #@! TD*
G04 #@! TO.C,D79*
X402656250Y-63656250D03*
D18*
X402656250Y-71456250D03*
G04 #@! TD*
D17*
G04 #@! TO.C,D80*
X414487500Y-78000000D03*
D18*
X406687500Y-78000000D03*
G04 #@! TD*
D17*
G04 #@! TO.C,D81*
X414468750Y-97031250D03*
D18*
X406668750Y-97031250D03*
G04 #@! TD*
D17*
G04 #@! TO.C,D82*
X414468750Y-116156250D03*
D18*
X406668750Y-116156250D03*
G04 #@! TD*
D17*
G04 #@! TO.C,D83*
X414468750Y-135187500D03*
D18*
X406668750Y-135187500D03*
G04 #@! TD*
G04 #@! TO.C,D84*
X402656250Y-147675000D03*
D17*
X402656250Y-139875000D03*
G04 #@! TD*
D10*
G04 #@! TO.C,K1*
X37235000Y-65310000D03*
D11*
X37640453Y-64580046D02*
X36829547Y-66039954D01*
D10*
X43160000Y-63790000D03*
D11*
X43179724Y-63500672D02*
X43140276Y-64079328D01*
G04 #@! TD*
D10*
G04 #@! TO.C,K2*
X43175000Y-82772500D03*
D11*
X43194724Y-82483172D02*
X43155276Y-83061828D01*
D10*
X37250000Y-84292500D03*
D11*
X37655453Y-83562546D02*
X36844547Y-85022454D01*
G04 #@! TD*
D10*
G04 #@! TO.C,K3*
X37270000Y-103305000D03*
D11*
X37675453Y-102575046D02*
X36864547Y-104034954D01*
D10*
X43195000Y-101785000D03*
D11*
X43214724Y-101495672D02*
X43175276Y-102074328D01*
G04 #@! TD*
D10*
G04 #@! TO.C,K4*
X37282500Y-122355000D03*
D11*
X37687953Y-121625046D02*
X36877047Y-123084954D01*
D10*
X43207500Y-120835000D03*
D11*
X43227224Y-120545672D02*
X43187776Y-121124328D01*
G04 #@! TD*
D10*
G04 #@! TO.C,K5*
X62170000Y-63785000D03*
D11*
X62189724Y-63495672D02*
X62150276Y-64074328D01*
D10*
X56245000Y-65305000D03*
D11*
X56650453Y-64575046D02*
X55839547Y-66034954D01*
G04 #@! TD*
D10*
G04 #@! TO.C,K6*
X62175000Y-82772500D03*
D11*
X62194724Y-82483172D02*
X62155276Y-83061828D01*
D10*
X56250000Y-84292500D03*
D11*
X56655453Y-83562546D02*
X55844547Y-85022454D01*
G04 #@! TD*
D10*
G04 #@! TO.C,K7*
X62195000Y-101785000D03*
D11*
X62214724Y-101495672D02*
X62175276Y-102074328D01*
D10*
X56270000Y-103305000D03*
D11*
X56675453Y-102575046D02*
X55864547Y-104034954D01*
G04 #@! TD*
D10*
G04 #@! TO.C,K8*
X62200000Y-120830000D03*
D11*
X62219724Y-120540672D02*
X62180276Y-121119328D01*
D10*
X56275000Y-122350000D03*
D11*
X56680453Y-121620046D02*
X55869547Y-123079954D01*
G04 #@! TD*
D10*
G04 #@! TO.C,K10*
X81270000Y-63741250D03*
D11*
X81289724Y-63451922D02*
X81250276Y-64030578D01*
D10*
X75345000Y-65261250D03*
D11*
X75750453Y-64531296D02*
X74939547Y-65991204D01*
G04 #@! TD*
D10*
G04 #@! TO.C,K11*
X75345000Y-84292500D03*
D11*
X75750453Y-83562546D02*
X74939547Y-85022454D01*
D10*
X81270000Y-82772500D03*
D11*
X81289724Y-82483172D02*
X81250276Y-83061828D01*
G04 #@! TD*
D10*
G04 #@! TO.C,K12*
X81245000Y-101785000D03*
D11*
X81264724Y-101495672D02*
X81225276Y-102074328D01*
D10*
X75320000Y-103305000D03*
D11*
X75725453Y-102575046D02*
X74914547Y-104034954D01*
G04 #@! TD*
D10*
G04 #@! TO.C,K13*
X81225000Y-120830000D03*
D11*
X81244724Y-120540672D02*
X81205276Y-121119328D01*
D10*
X75300000Y-122350000D03*
D11*
X75705453Y-121620046D02*
X74894547Y-123079954D01*
G04 #@! TD*
D10*
G04 #@! TO.C,K14*
X81250000Y-139830000D03*
D11*
X81269724Y-139540672D02*
X81230276Y-140119328D01*
D10*
X75325000Y-141350000D03*
D11*
X75730453Y-140620046D02*
X74919547Y-142079954D01*
G04 #@! TD*
D10*
G04 #@! TO.C,K18*
X128895000Y-63741250D03*
D11*
X128914724Y-63451922D02*
X128875276Y-64030578D01*
D10*
X122970000Y-65261250D03*
D11*
X123375453Y-64531296D02*
X122564547Y-65991204D01*
G04 #@! TD*
D10*
G04 #@! TO.C,K23*
X142001250Y-65261250D03*
D11*
X142406703Y-64531296D02*
X141595797Y-65991204D01*
D10*
X147926250Y-63741250D03*
D11*
X147945974Y-63451922D02*
X147906526Y-64030578D01*
G04 #@! TD*
D10*
G04 #@! TO.C,K24*
X157488750Y-82772500D03*
D11*
X157508474Y-82483172D02*
X157469026Y-83061828D01*
D10*
X151563750Y-84292500D03*
D11*
X151969203Y-83562546D02*
X151158297Y-85022454D01*
G04 #@! TD*
D10*
G04 #@! TO.C,K25*
X156345000Y-103323750D03*
D11*
X156750453Y-102593796D02*
X155939547Y-104053704D01*
D10*
X162270000Y-101803750D03*
D11*
X162289724Y-101514422D02*
X162250276Y-102093078D01*
G04 #@! TD*
D10*
G04 #@! TO.C,K26*
X165720000Y-122355000D03*
D11*
X166125453Y-121625046D02*
X165314547Y-123084954D01*
D10*
X171645000Y-120835000D03*
D11*
X171664724Y-120545672D02*
X171625276Y-121124328D01*
G04 #@! TD*
D10*
G04 #@! TO.C,K28*
X166957500Y-63741250D03*
D11*
X166977224Y-63451922D02*
X166937776Y-64030578D01*
D10*
X161032500Y-65261250D03*
D11*
X161437953Y-64531296D02*
X160627047Y-65991204D01*
G04 #@! TD*
D10*
G04 #@! TO.C,K29*
X170625000Y-84281250D03*
D11*
X171030453Y-83551296D02*
X170219547Y-85011204D01*
D10*
X176550000Y-82761250D03*
D11*
X176569724Y-82471922D02*
X176530276Y-83050578D01*
G04 #@! TD*
D10*
G04 #@! TO.C,K30*
X181301250Y-101803750D03*
D11*
X181320974Y-101514422D02*
X181281526Y-102093078D01*
D10*
X175376250Y-103323750D03*
D11*
X175781703Y-102593796D02*
X174970797Y-104053704D01*
G04 #@! TD*
D10*
G04 #@! TO.C,K31*
X184657500Y-122355000D03*
D11*
X185062953Y-121625046D02*
X184252047Y-123084954D01*
D10*
X190582500Y-120835000D03*
D11*
X190602224Y-120545672D02*
X190562776Y-121124328D01*
G04 #@! TD*
D10*
G04 #@! TO.C,K33*
X185988750Y-63741250D03*
D11*
X186008474Y-63451922D02*
X185969026Y-64030578D01*
D10*
X180063750Y-65261250D03*
D11*
X180469203Y-64531296D02*
X179658297Y-65991204D01*
G04 #@! TD*
D10*
G04 #@! TO.C,K34*
X189656250Y-84281250D03*
D11*
X190061703Y-83551296D02*
X189250797Y-85011204D01*
D10*
X195581250Y-82761250D03*
D11*
X195600974Y-82471922D02*
X195561526Y-83050578D01*
G04 #@! TD*
D10*
G04 #@! TO.C,K35*
X200332500Y-101803750D03*
D11*
X200352224Y-101514422D02*
X200312776Y-102093078D01*
D10*
X194407500Y-103323750D03*
D11*
X194812953Y-102593796D02*
X194002047Y-104053704D01*
G04 #@! TD*
D10*
G04 #@! TO.C,K36*
X203688750Y-122355000D03*
D11*
X204094203Y-121625046D02*
X203283297Y-123084954D01*
D10*
X209613750Y-120835000D03*
D11*
X209633474Y-120545672D02*
X209594026Y-121124328D01*
G04 #@! TD*
D10*
G04 #@! TO.C,K37*
X205020000Y-63741250D03*
D11*
X205039724Y-63451922D02*
X205000276Y-64030578D01*
D10*
X199095000Y-65261250D03*
D11*
X199500453Y-64531296D02*
X198689547Y-65991204D01*
G04 #@! TD*
D10*
G04 #@! TO.C,K38*
X214676250Y-82772500D03*
D11*
X214695974Y-82483172D02*
X214656526Y-83061828D01*
D10*
X208751250Y-84292500D03*
D11*
X209156703Y-83562546D02*
X208345797Y-85022454D01*
G04 #@! TD*
D10*
G04 #@! TO.C,K39*
X213438750Y-103323750D03*
D11*
X213844203Y-102593796D02*
X213033297Y-104053704D01*
D10*
X219363750Y-101803750D03*
D11*
X219383474Y-101514422D02*
X219344026Y-102093078D01*
G04 #@! TD*
D10*
G04 #@! TO.C,K40*
X228645000Y-120835000D03*
D11*
X228664724Y-120545672D02*
X228625276Y-121124328D01*
D10*
X222720000Y-122355000D03*
D11*
X223125453Y-121625046D02*
X222314547Y-123084954D01*
G04 #@! TD*
D10*
G04 #@! TO.C,K41*
X218126250Y-65261250D03*
D11*
X218531703Y-64531296D02*
X217720797Y-65991204D01*
D10*
X224051250Y-63741250D03*
D11*
X224070974Y-63451922D02*
X224031526Y-64030578D01*
G04 #@! TD*
D10*
G04 #@! TO.C,K42*
X227782500Y-84292500D03*
D11*
X228187953Y-83562546D02*
X227377047Y-85022454D01*
D10*
X233707500Y-82772500D03*
D11*
X233727224Y-82483172D02*
X233687776Y-83061828D01*
G04 #@! TD*
D10*
G04 #@! TO.C,K43*
X232470000Y-103323750D03*
D11*
X232875453Y-102593796D02*
X232064547Y-104053704D01*
D10*
X238395000Y-101803750D03*
D11*
X238414724Y-101514422D02*
X238375276Y-102093078D01*
G04 #@! TD*
D10*
G04 #@! TO.C,K44*
X247676250Y-120835000D03*
D11*
X247695974Y-120545672D02*
X247656526Y-121124328D01*
D10*
X241751250Y-122355000D03*
D11*
X242156703Y-121625046D02*
X241345797Y-123084954D01*
G04 #@! TD*
D10*
G04 #@! TO.C,K46*
X243082500Y-63741250D03*
D11*
X243102224Y-63451922D02*
X243062776Y-64030578D01*
D10*
X237157500Y-65261250D03*
D11*
X237562953Y-64531296D02*
X236752047Y-65991204D01*
G04 #@! TD*
D10*
G04 #@! TO.C,K47*
X246813750Y-84292500D03*
D11*
X247219203Y-83562546D02*
X246408297Y-85022454D01*
D10*
X252738750Y-82772500D03*
D11*
X252758474Y-82483172D02*
X252719026Y-83061828D01*
G04 #@! TD*
D10*
G04 #@! TO.C,K48*
X257426250Y-101803750D03*
D11*
X257445974Y-101514422D02*
X257406526Y-102093078D01*
D10*
X251501250Y-103323750D03*
D11*
X251906703Y-102593796D02*
X251095797Y-104053704D01*
G04 #@! TD*
D10*
G04 #@! TO.C,K49*
X260782500Y-122355000D03*
D11*
X261187953Y-121625046D02*
X260377047Y-123084954D01*
D10*
X266707500Y-120835000D03*
D11*
X266727224Y-120545672D02*
X266687776Y-121124328D01*
G04 #@! TD*
D10*
G04 #@! TO.C,K50*
X256188750Y-65261250D03*
D11*
X256594203Y-64531296D02*
X255783297Y-65991204D01*
D10*
X262113750Y-63741250D03*
D11*
X262133474Y-63451922D02*
X262094026Y-64030578D01*
G04 #@! TD*
D10*
G04 #@! TO.C,K51*
X265845000Y-84292500D03*
D11*
X266250453Y-83562546D02*
X265439547Y-85022454D01*
D10*
X271770000Y-82772500D03*
D11*
X271789724Y-82483172D02*
X271750276Y-83061828D01*
G04 #@! TD*
D10*
G04 #@! TO.C,K52*
X276457500Y-101803750D03*
D11*
X276477224Y-101514422D02*
X276437776Y-102093078D01*
D10*
X270532500Y-103323750D03*
D11*
X270937953Y-102593796D02*
X270127047Y-104053704D01*
G04 #@! TD*
D10*
G04 #@! TO.C,K53*
X279843750Y-122343750D03*
D11*
X280249203Y-121613796D02*
X279438297Y-123073704D01*
D10*
X285768750Y-120823750D03*
D11*
X285788474Y-120534422D02*
X285749026Y-121113078D01*
G04 #@! TD*
D10*
G04 #@! TO.C,K54*
X275126250Y-65167500D03*
D11*
X275531703Y-64437546D02*
X274720797Y-65897454D01*
D10*
X281051250Y-63647500D03*
D11*
X281070974Y-63358172D02*
X281031526Y-63936828D01*
G04 #@! TD*
D10*
G04 #@! TO.C,K55*
X290801250Y-82772500D03*
D11*
X290820974Y-82483172D02*
X290781526Y-83061828D01*
D10*
X284876250Y-84292500D03*
D11*
X285281703Y-83562546D02*
X284470797Y-85022454D01*
G04 #@! TD*
D10*
G04 #@! TO.C,K56*
X295488750Y-101803750D03*
D11*
X295508474Y-101514422D02*
X295469026Y-102093078D01*
D10*
X289563750Y-103323750D03*
D11*
X289969203Y-102593796D02*
X289158297Y-104053704D01*
G04 #@! TD*
D10*
G04 #@! TO.C,K57*
X298938750Y-122355000D03*
D11*
X299344203Y-121625046D02*
X298533297Y-123084954D01*
D10*
X304863750Y-120835000D03*
D11*
X304883474Y-120545672D02*
X304844026Y-121124328D01*
G04 #@! TD*
D10*
G04 #@! TO.C,K58*
X300176250Y-63647500D03*
D11*
X300195974Y-63358172D02*
X300156526Y-63936828D01*
D10*
X294251250Y-65167500D03*
D11*
X294656703Y-64437546D02*
X293845797Y-65897454D01*
G04 #@! TD*
D10*
G04 #@! TO.C,K59*
X309832500Y-82772500D03*
D11*
X309852224Y-82483172D02*
X309812776Y-83061828D01*
D10*
X303907500Y-84292500D03*
D11*
X304312953Y-83562546D02*
X303502047Y-85022454D01*
G04 #@! TD*
D10*
G04 #@! TO.C,K60*
X308595000Y-103323750D03*
D11*
X309000453Y-102593796D02*
X308189547Y-104053704D01*
D10*
X314520000Y-101803750D03*
D11*
X314539724Y-101514422D02*
X314500276Y-102093078D01*
G04 #@! TD*
D10*
G04 #@! TO.C,K61*
X323988750Y-120835000D03*
D11*
X324008474Y-120545672D02*
X323969026Y-121124328D01*
D10*
X318063750Y-122355000D03*
D11*
X318469203Y-121625046D02*
X317658297Y-123084954D01*
G04 #@! TD*
D10*
G04 #@! TO.C,K63*
X313282500Y-65167500D03*
D11*
X313687953Y-64437546D02*
X312877047Y-65897454D01*
D10*
X319207500Y-63647500D03*
D11*
X319227224Y-63358172D02*
X319187776Y-63936828D01*
G04 #@! TD*
D10*
G04 #@! TO.C,K64*
X328863750Y-82772500D03*
D11*
X328883474Y-82483172D02*
X328844026Y-83061828D01*
D10*
X322938750Y-84292500D03*
D11*
X323344203Y-83562546D02*
X322533297Y-85022454D01*
G04 #@! TD*
D10*
G04 #@! TO.C,K65*
X333551250Y-101803750D03*
D11*
X333570974Y-101514422D02*
X333531526Y-102093078D01*
D10*
X327626250Y-103323750D03*
D11*
X328031703Y-102593796D02*
X327220797Y-104053704D01*
G04 #@! TD*
D10*
G04 #@! TO.C,K66*
X337095000Y-122355000D03*
D11*
X337500453Y-121625046D02*
X336689547Y-123084954D01*
D10*
X343020000Y-120835000D03*
D11*
X343039724Y-120545672D02*
X343000276Y-121124328D01*
G04 #@! TD*
D10*
G04 #@! TO.C,K67*
X338332500Y-63647500D03*
D11*
X338352224Y-63358172D02*
X338312776Y-63936828D01*
D10*
X332407500Y-65167500D03*
D11*
X332812953Y-64437546D02*
X332002047Y-65897454D01*
G04 #@! TD*
D10*
G04 #@! TO.C,K68*
X347895000Y-82772500D03*
D11*
X347914724Y-82483172D02*
X347875276Y-83061828D01*
D10*
X341970000Y-84292500D03*
D11*
X342375453Y-83562546D02*
X341564547Y-85022454D01*
G04 #@! TD*
D10*
G04 #@! TO.C,K69*
X346657500Y-103323750D03*
D11*
X347062953Y-102593796D02*
X346252047Y-104053704D01*
D10*
X352582500Y-101803750D03*
D11*
X352602224Y-101514422D02*
X352562776Y-102093078D01*
G04 #@! TD*
D10*
G04 #@! TO.C,K71*
X376395000Y-139866250D03*
D11*
X376414724Y-139576922D02*
X376375276Y-140155578D01*
D10*
X370470000Y-141386250D03*
D11*
X370875453Y-140656296D02*
X370064547Y-142116204D01*
G04 #@! TD*
D10*
G04 #@! TO.C,K72*
X351438750Y-65167500D03*
D11*
X351844203Y-64437546D02*
X351033297Y-65897454D01*
D10*
X357363750Y-63647500D03*
D11*
X357383474Y-63358172D02*
X357344026Y-63936828D01*
G04 #@! TD*
D10*
G04 #@! TO.C,K73*
X361018750Y-84292500D03*
D11*
X361424203Y-83562546D02*
X360613297Y-85022454D01*
D10*
X366943750Y-82772500D03*
D11*
X366963474Y-82483172D02*
X366924026Y-83061828D01*
G04 #@! TD*
D10*
G04 #@! TO.C,K75*
X389501250Y-122355000D03*
D11*
X389906703Y-121625046D02*
X389095797Y-123084954D01*
D10*
X395426250Y-120835000D03*
D11*
X395445974Y-120545672D02*
X395406526Y-121124328D01*
G04 #@! TD*
D10*
G04 #@! TO.C,K76*
X389501250Y-141386250D03*
D11*
X389906703Y-140656296D02*
X389095797Y-142116204D01*
D10*
X395426250Y-139866250D03*
D11*
X395445974Y-139576922D02*
X395406526Y-140155578D01*
G04 #@! TD*
D10*
G04 #@! TO.C,K80*
X414457500Y-63647500D03*
D11*
X414477224Y-63358172D02*
X414437776Y-63936828D01*
D10*
X408532500Y-65167500D03*
D11*
X408937953Y-64437546D02*
X408127047Y-65897454D01*
G04 #@! TD*
D10*
G04 #@! TO.C,K81*
X414457500Y-82772500D03*
D11*
X414477224Y-82483172D02*
X414437776Y-83061828D01*
D10*
X408532500Y-84292500D03*
D11*
X408937953Y-83562546D02*
X408127047Y-85022454D01*
G04 #@! TD*
D10*
G04 #@! TO.C,K82*
X408532500Y-103323750D03*
D11*
X408937953Y-102593796D02*
X408127047Y-104053704D01*
D10*
X414457500Y-101803750D03*
D11*
X414477224Y-101514422D02*
X414437776Y-102093078D01*
G04 #@! TD*
D10*
G04 #@! TO.C,K83*
X408550000Y-122355000D03*
D11*
X408955453Y-121625046D02*
X408144547Y-123084954D01*
D10*
X414475000Y-120835000D03*
D11*
X414494724Y-120545672D02*
X414455276Y-121124328D01*
G04 #@! TD*
D10*
G04 #@! TO.C,K84*
X414457500Y-139866250D03*
D11*
X414477224Y-139576922D02*
X414437776Y-140155578D01*
D10*
X408532500Y-141386250D03*
D11*
X408937953Y-140656296D02*
X408127047Y-142116204D01*
G04 #@! TD*
D19*
G04 #@! TO.C,U1*
X127190000Y-99920000D03*
X127190000Y-110080000D03*
X117030000Y-112620000D03*
X119570000Y-112620000D03*
X122110000Y-112620000D03*
X124650000Y-112620000D03*
X127190000Y-112620000D03*
X129730000Y-112620000D03*
X132270000Y-112620000D03*
X134810000Y-112620000D03*
X137350000Y-112620000D03*
X139890000Y-112620000D03*
X142430000Y-112620000D03*
X144970000Y-112620000D03*
X144970000Y-110080000D03*
X144970000Y-107540000D03*
X144970000Y-105000000D03*
X144970000Y-102460000D03*
X144970000Y-99920000D03*
X144970000Y-97380000D03*
X142430000Y-97380000D03*
X139890000Y-97380000D03*
X137350000Y-97380000D03*
X134810000Y-97380000D03*
X132270000Y-97380000D03*
X129730000Y-97380000D03*
X127190000Y-97380000D03*
X124650000Y-97380000D03*
X122110000Y-97380000D03*
X119570000Y-97380000D03*
D20*
X117030000Y-97380000D03*
G04 #@! TD*
M02*
