0
SECTION
2
HEADER
9
$INSUNITS
70
4
9
$ACADVER
1
AC1014
9
$HANDSEED
5
FFFF
0
ENDSEC
0
SECTION
2
TABLES
0
TABLE
2
VPORT
5
8
100
AcDbSymbolTable
0
ENDTAB
0
TABLE
2
LTYPE
5
5
100
AcDbSymbolTable
0
LTYPE
5
14
100
AcDbSymbolTableRecord
100
AcDbLinetypeTableRecord
2
BYBLOCK
70
0
0
LTYPE
5
15
100
AcDbSymbolTableRecord
100
AcDbLinetypeTableRecord
2
BYLAYER
70
0
0
ENDTAB
0
TABLE
2
LAYER
5
2
100
AcDbSymbolTable
70
2
0
LAYER
5
50
100
AcDbSymbolTableRecord
100
AcDbLayerTableRecord
2
0
70
0
6
CONTINUOUS
0
ENDTAB
0
TABLE
2
STYLE
5
3
100
AcDbSymbolTable
70
1
0
STYLE
5
11
100
AcDbSymbolTableRecord
100
AcDbTextStyleTableRecord
2
STANDARD
70
0
0
ENDTAB
0
TABLE
2
VIEW
5
6
100
AcDbSymbolTable
70
0
0
ENDTAB
0
TABLE
2
UCS
5
7
100
AcDbSymbolTable
70
0
0
ENDTAB
0
TABLE
2
APPID
5
9
100
AcDbSymbolTable
70
2
0
APPID
5
12
100
AcDbSymbolTableRecord
100
AcDbRegAppTableRecord
2
ACAD
70
0
0
ENDTAB
0
TABLE
2
DIMSTYLE
5
A
100
AcDbSymbolTable
70
1
0
ENDTAB
0
TABLE
2
BLOCK_RECORD
5
1
100
AcDbSymbolTable
70
1
0
BLOCK_RECORD
5
1F
100
AcDbSymbolTableRecord
100
AcDbBlockTableRecord
2
*MODEL_SPACE
0
BLOCK_RECORD
5
1B
100
AcDbSymbolTableRecord
100
AcDbBlockTableRecord
2
*PAPER_SPACE
0
ENDTAB
0
ENDSEC
0
SECTION
2
BLOCKS
0
BLOCK
5
20
100
AcDbEntity
100
AcDbBlockBegin
2
*MODEL_SPACE
0
ENDBLK
5
21
100
AcDbEntity
100
AcDbBlockEnd
0
BLOCK
5
1C
100
AcDbEntity
100
AcDbBlockBegin
2
*PAPER_SPACE
0
ENDBLK
5
1D
100
AcDbEntity
100
AcDbBlockEnd
0
ENDSEC
0
SECTION
2
ENTITIES
0
LWPOLYLINE
5
100
100
AcDbEntity
8
0
100
AcDbPolyline
90
8
70
1
43
0.0
10
29.5090927083249
20
-80.572784214966418
10
29.50865664491598
20
-92.572784207043455
42
0.4142135623730937
10
30.508620305638274
20
-93.572820545000624
10
42.50862029771536
20
-93.573256608409551
42
0.4142135623731002
10
43.508656635672551
20
-92.573292947687207
10
43.509092699081478
20
-80.573292955610256
42
0.41421356237309509
10
42.509129038359141
20
-79.573256617653101
10
30.509129046282055
20
-79.572820554244089
42
0.41421356237309509
0
LWPOLYLINE
5
101
100
AcDbEntity
8
0
100
AcDbPolyline
90
8
70
1
43
0.0
10
10.458262297018415
20
-99.622784197368077
10
10.457826233609353
20
-111.62278418944521
42
0.41421356237309243
10
11.457789894331718
20
-112.62282052740238
10
23.457789886408946
20
-112.62325659081128
42
0.41421356237309243
10
24.457826224366066
20
-111.62329293008894
10
24.458262287774993
20
-99.623292938011929
42
0.4142135623730937
10
23.458298627052656
20
-98.623256600054745
10
11.45829863497557
20
-98.622820536645733
42
0.41421356237309959
0
LWPOLYLINE
5
102
100
AcDbEntity
8
0
100
AcDbPolyline
90
8
70
1
43
0.0
10
-0.81852089684272045
20
-136.14527065466075
10
0.64273583261826439
20
-124.23457250326476
42
0.41418189781136505
10
-0.2279436419212999
20
-123.12025610697367
10
-12.138483746097791
20
-121.6577117111112
42
0.41424522764381982
10
-13.252920618523198
20
-122.52848532058208
10
-14.714177347984164
20
-134.43918347197808
42
0.4141818978113635
10
-13.843497873444583
20
-135.55349986826917
10
-1.9329577692681641
20
-137.01604426413161
42
0.41424522764381305
0
LWPOLYLINE
5
103
100
AcDbEntity
8
0
100
AcDbPolyline
90
8
70
1
43
0.0
10
-32.209831625492527
20
-75.333071349126769
10
-44.027776439614357
20
-73.250721616483119
42
0.41420876284422203
10
-45.186131474663362
20
-74.062005068482421
10
-47.268674863159895
20
-85.879915756441818
42
0.41421836191823147
10
-46.457378116838264
20
-87.038289773198315
10
-34.639433302716533
20
-89.120639505842007
42
0.41420876284421815
10
-33.48107826766757
20
-88.309356053842691
10
-31.398534879170864
20
-76.491445365883294
42
0.41421836191825301
0
LWPOLYLINE
5
104
100
AcDbEntity
8
0
100
AcDbPolyline
90
8
70
1
43
0.0
10
-53.755040184382437
20
-87.831673021114483
10
-65.572837944484803
20
-85.748488892965611
42
0.41421605776250203
10
-66.731254580784707
20
-86.559715086029797
10
-68.814338023763398
20
-98.377530593983892
42
0.41421106698808141
10
-68.003118742142419
20
-99.53593736086529
10
-56.185320982040025
20
-101.61912148901415
42
0.41421605776250364
10
-55.026904345740135
20
-100.80789529594993
10
-52.943820902761452
20
-88.990079787995853
42
0.41421106698809257
0
LWPOLYLINE
5
105
100
AcDbEntity
8
0
100
AcDbPolyline
90
8
70
1
43
0.0
10
-91.7763918105709
20
-41.994808743796746
10
-81.40253385509547
20
-48.026646864935294
42
0.41421356237309565
10
-80.035392515377666
20
-47.664811878740551
10
-74.003554394239032
20
-37.290953923265242
42
0.41421356237309148
10
-74.365389380433768
20
-35.923812583547424
10
-84.73924733590917
20
-29.891974462408815
42
0.41421356237310586
10
-86.106388675626974
20
-30.253809448603555
10
-92.138226796765622
20
-40.627667404078913
42
0.41421356237308926
0
LWPOLYLINE
5
106
100
AcDbEntity
8
0
100
AcDbPolyline
90
8
70
1
43
0.0
10
-50.449309976012046
20
-69.070685584453827
10
-62.267107736114426
20
-66.987501456304955
42
0.41421605776250708
10
-63.425524372414316
20
-67.798727649369141
10
-65.50860781539302
20
-79.616543157323292
42
0.41421106698808191
10
-64.697388533772028
20
-80.774949924204677
10
-52.879590773669563
20
-82.858134052353535
42
0.41421605776251041
10
-51.721174137369701
20
-82.04690785928932
10
-49.638090694391053
20
-70.229092351335197
42
0.4142110669880788
0
LWPOLYLINE
5
107
100
AcDbEntity
8
0
100
AcDbPolyline
90
8
70
1
43
0.0
10
-49.763108316966225
20
-105.7992771630977
10
-37.945163502844501
20
-107.88162689574136
42
0.4142087628442232
10
-36.786808467795495
20
-107.07034344374205
10
-34.704265079298857
20
-95.252432755782593
42
0.414218361918258
10
-35.515561825620523
20
-94.094058739026082
10
-47.333506639742282
20
-92.011709006382475
42
0.41420876284422237
10
-48.491861674791252
20
-92.822992458381805
10
-50.574405063287877
20
-104.64090314634119
42
0.41421836191825373
0
LWPOLYLINE
5
108
100
AcDbEntity
8
0
100
AcDbPolyline
90
8
70
1
43
0.0
10
-33.229853146488928
20
-125.01968868787456
10
-34.89878141535204
20
-136.90323945264416
42
0.41577733813138978
10
-34.042288784278654
20
-138.0333246460263
10
-22.150001661442889
20
-139.63881750913723
42
0.41265151386001575
10
-21.025930696086483
20
-138.78688306714179
10
-19.357002427223556
20
-126.90333230237215
42
0.41577733813138346
10
-20.213495058296935
20
-125.77324710899001
10
-32.105782181132483
20
-124.16775424587912
42
0.41265151385999721
0
LWPOLYLINE
5
109
100
AcDbEntity
8
0
100
AcDbPolyline
90
8
70
1
43
0.0
10
11.458620305637766
20
-93.572820557578282
10
23.458620297714816
20
-93.573256620987237
42
0.41421356237309243
10
24.458656635671971
20
-92.573292960264894
10
24.459092699080827
20
-80.573292968187872
42
0.41421356237310414
10
23.459129038358491
20
-79.573256630230688
10
11.459129046281546
20
-79.572820566821733
42
0.4142135623730957
10
10.459092708324356
20
-80.572784227544076
10
10.458656644915425
20
-92.572784219621113
42
0.4142135623731002
0
LWPOLYLINE
5
110
100
AcDbEntity
8
0
100
AcDbPolyline
90
8
70
1
43
0.0
10
30.507789906909615
20
-112.62282052740278
10
42.50778989898663
20
-112.62325659081171
42
0.4142135623731002
10
43.507826236943821
20
-111.62329293008935
10
43.508262300352747
20
-99.623292938012398
42
0.41421356237308726
10
42.508298639630411
20
-98.623256600055214
10
30.508298647553396
20
-98.62282053664623
42
0.4142135623731002
10
29.50826230959624
20
-99.622784197368588
10
29.507826246187278
20
-111.62278418944561
42
0.41421356237310153
0
LWPOLYLINE
5
111
100
AcDbEntity
8
0
100
AcDbPolyline
90
8
70
1
43
0.0
10
10.459092708324356
20
-118.67278422754413
10
10.458656644915365
20
-130.67278421962118
42
0.4142135623731002
10
11.45862030563773
20
-131.67282055757835
10
23.458620297714745
20
-131.67325662098727
42
0.4142135623731002
10
24.4586566356719
20
-130.67329296026492
10
24.459092699080827
20
-118.67329296818789
42
0.41421356237310153
10
23.459129038358491
20
-117.67325663023072
10
11.459129046281546
20
-117.67282056682178
42
0.41421356237309959
0
LWPOLYLINE
5
112
100
AcDbEntity
8
0
100
AcDbPolyline
90
8
70
1
43
0.0
10
-11.52170864674769
20
-116.64551756483989
10
0.38883145742886427
20
-118.10806196070234
42
0.41424522764381577
10
1.5032683298543148
20
-117.23728835123148
10
2.9645250593152088
20
-105.32659019983547
42
0.41418189781135439
10
2.0938455847756288
20
-104.21227380354439
10
-9.8166945194008584
20
-102.74972940768191
42
0.414245227643813
10
-10.93113139182627
20
-103.62050301715277
10
-12.392388121287269
20
-115.53120116854879
42
0.41418189781137099
0
LWPOLYLINE
5
113
100
AcDbEntity
8
0
100
AcDbPolyline
90
8
70
1
43
0.0
10
-15.117117429089824
20
-88.015639450959711
10
-27.009404551925726
20
-86.410146587848814
42
0.41265151385999643
10
-28.133475517282136
20
-87.262081029844225
10
-29.80240378614528
20
-99.145631794613791
42
0.41577733813138323
10
-28.945911155071897
20
-100.27571698799596
10
-17.053624032235991
20
-101.88120985110687
42
0.41265151385999699
10
-15.929553066879549
20
-101.02927540911145
10
-14.260624798016446
20
-89.145724644341854
42
0.41577733813139023
0
LWPOLYLINE
5
114
100
AcDbEntity
8
0
100
AcDbPolyline
90
8
70
1
43
0.0
10
-58.333049163698888
20
-119.56880964724127
10
-56.249965720720127
20
-107.75099413928716
42
0.41421106698808191
10
-57.061185002341119
20
-106.59258737240576
10
-68.878982762443513
20
-104.50940324425694
42
0.41421605776250708
10
-70.037399398743418
20
-105.32062943732114
10
-72.120482841722094
20
-117.13844494527521
42
0.41421106698809257
10
-71.309263560101101
20
-118.29685171215658
10
-59.491465799998771
20
-120.38003584030547
42
0.41421605776250064
0
LWPOLYLINE
5
115
100
AcDbEntity
8
0
100
AcDbPolyline
90
8
70
1
43
0.0
10
-76.222599702119155
20
-53.180245799523064
10
-65.830556649722936
20
-59.180699229768869
42
0.4142236675016257
10
-64.464498025722406
20
-58.814703549902248
10
-58.464403134339278
20
-48.42245348238545
42
0.41420345731676877
10
-58.830386187227376
20
-47.056441987883488
10
-69.222429239623679
20
-41.055988557637676
42
0.41422366750162642
10
-70.588487863624209
20
-41.421984237504276
10
-76.588582755007252
20
-51.814234305021117
42
0.41420345731676517
0
LWPOLYLINE
5
116
100
AcDbEntity
8
0
100
AcDbPolyline
90
8
70
1
43
0.0
10
-56.776179123270879
20
-57.960871187757192
10
-46.945978620061268
20
-64.843722602662467
42
0.41422137543989679
10
-45.553240356620393
20
-64.598093857688198
10
-38.670998098694376
20
-54.768205274267594
42
0.41418941201073722
10
-38.916574599551303
20
-53.375536156411663
10
-48.745948464082609
20
-46.492446429062909
42
0.41422452131325349
10
-50.13870658705077
20
-46.738006285188632
10
-57.021775483655134
20
-56.568133181052701
42
0.41421894100896384
0
LWPOLYLINE
5
117
100
AcDbEntity
8
0
100
AcDbPolyline
90
8
70
1
43
0.0
10
-38.821706640496672
20
-112.85497307282954
10
-50.639651454618431
20
-110.77262334018587
42
0.41420876284422448
10
-51.798006489667401
20
-111.5839067921852
10
-53.880549878164061
20
-123.4018174801446
42
0.41421836191825373
10
-53.069253131842409
20
-124.56019149690113
10
-41.251308317720785
20
-126.64254122954476
42
0.4142087628442232
10
-40.092953282671822
20
-125.83125777754546
10
-38.010409894175041
20
-114.01334708958608
42
0.41421836191824074
0
LWPOLYLINE
5
118
100
AcDbEntity
8
0
100
AcDbPolyline
90
8
70
1
43
0.0
10
-18.477247654762081
20
-119.90814596015113
10
-16.808319385899111
20
-108.02459519538154
42
0.41577733813138462
10
-17.664812016972498
20
-106.89451000199941
10
-29.557099139808184
20
-105.28901713888845
42
0.41265151385999854
10
-30.681170105164632
20
-106.14095158088389
10
-32.350098374027738
20
-118.0245023456535
42
0.41577733813139095
10
-31.493605742954358
20
-119.15458753903565
10
-19.601318620118526
20
-120.76008040214658
42
0.41265151386001087
0
LWPOLYLINE
5
119
100
AcDbEntity
8
0
100
AcDbPolyline
90
8
70
1
43
0.0
10
-8.608960393273577
20
-84.712034065984923
10
-10.076524345353626
20
-96.621957727474168
42
0.41433700434627568
10
-9.2059094939779129
20
-97.736799715501178
10
2.7046315983135116
20
-99.199344232698365
42
0.4140901311738075
10
3.8190038475751464
20
-98.329096214963471
10
5.2865677996552591
20
-86.419172553474169
42
0.41433700434628307
10
4.4159529482795179
20
-85.304330565447174
10
-7.4945881440119422
20
-83.841786048250015
42
0.41409013117381299
0
LWPOLYLINE
5
120
100
AcDbEntity
8
0
100
AcDbPolyline
90
8
70
1
43
0.0
10
29.509092708324047
20
-118.67278424012177
10
29.508656644915092
20
-130.67278423219881
42
0.4142135623730937
10
30.508620305637351
20
-131.67282057015601
10
42.508620297714437
20
-131.67325663356493
42
0.41421356237308726
10
43.508656635671592
20
-130.67329297284257
10
43.509092699080519
20
-118.67329298076561
42
0.4142135623731002
10
42.509129038358182
20
-117.67325664280844
10
30.509129046281167
20
-117.67282057939943
42
0.4142135623731002
0
CIRCLE
5
121
100
AcDbEntity
8
0
100
AcDbCircle
10
36.509129037697896
20
-137.67329295960474
30
0
40
1.0000000000000142
210
0
220
-0
230
1
0
CIRCLE
5
122
100
AcDbEntity
8
0
100
AcDbCircle
10
-66.442648158884708
20
-125.24722077681729
30
0
40
0.99999999999999645
210
0
220
-0
230
1
0
CIRCLE
5
123
100
AcDbEntity
8
0
100
AcDbCircle
10
49.509129037697903
20
-105.62329296422644
30
0
40
0.99999999999997868
210
0
220
-0
230
1
0
CIRCLE
5
124
100
AcDbEntity
8
0
100
AcDbCircle
10
-28.920032980098682
20
-144.77927430121582
30
0
40
0.99999999999997868
210
0
220
-0
230
1
0
CIRCLE
5
125
100
AcDbEntity
8
0
100
AcDbCircle
10
-20.213373348942518
20
-81.273199854709929
30
0
40
0.99999999999997868
210
0
220
-0
230
1
0
CIRCLE
5
126
100
AcDbEntity
8
0
100
AcDbCircle
10
36.509129037697896
20
-73.573292968848122
30
0
40
1.0000000000000142
210
0
220
-0
230
1
0
CIRCLE
5
127
100
AcDbEntity
8
0
100
AcDbCircle
10
-40.390222650835632
20
-45.018785098998215
30
0
40
1.0000000000000142
210
0
220
-0
230
1
0
CIRCLE
5
128
100
AcDbEntity
8
0
100
AcDbCircle
10
-94.309236713934013
20
-32.424819365771988
30
0
40
0.99999999999999645
210
0
220
-0
230
1
0
CIRCLE
5
129
100
AcDbEntity
8
0
100
AcDbCircle
10
-74.026595743671621
20
-61.376614800179851
30
0
40
0.99999999999999645
210
0
220
-0
230
1
0
CIRCLE
5
130
100
AcDbEntity
8
0
100
AcDbCircle
10
-73.632914832750217
20
-91.150288539017254
30
0
40
0.99999999999999645
210
0
220
-0
230
1
0
LWPOLYLINE
5
131
100
AcDbEntity
8
0
100
AcDbPolyline
90
154
70
1
43
0.0
10
-125.41792175308689
20
-118.86565438335937
10
-136.72242560200726
20
-120.75451277457326
42
0.38887672937080853
10
-139.21882435353982
20
-123.94811029793254
42
-0.91632477409136748
10
-147.0794037215648
20
-125.26152674659116
42
0.38887672937080381
10
-150.47843949605107
20
-123.05299155972584
10
-152.03105959079181
20
-123.31241731900838
42
0.41681358423208831
10
-152.85108119538805
20
-124.47228888983652
10
-152.67872944876325
20
-125.45034176488176
42
-0.41421836191823491
10
-153.49002619508491
20
-126.60871578163828
10
-172.04756123736848
20
-129.87859719855342
42
0.40403267696283612
10
-172.86431389121972
20
-131.00250130862469
10
-171.73188656560819
20
-139.06591413611812
42
-0.41577733813139123
10
-172.58837919668156
20
-140.1959993295003
10
-174.11172441084702
20
-140.40165530165558
42
0.39239299229200647
10
-176.70511548750554
20
-143.55194461762724
42
-0.92761259217687009
10
-184.61086486513091
20
-144.61924345360546
42
0.39239299229200514
10
-187.94678582169126
20
-142.26942826461743
10
-189.48533715037684
20
-142.47713710583696
42
-0.41265151385995924
10
-190.60940811573323
20
-141.62520266384172
10
-191.04505590871921
20
-138.52318638184244
42
0.40914235314325664
10
-192.15721640587702
20
-137.66971675465501
10
-209.74991932712516
20
-139.8299973834506
42
-0.41424522764380978
10
-210.86435619955057
20
-138.95922377397977
10
-211.34070314894865
20
-135.0765215661946
42
0.37889432150423574
10
-212.33326132243116
20
-134.19829295960471
10
-238.99330275732811
20
-134.19829295960471
42
0.37181153065444222
10
-241.96098851053239
20
-136.75915599893247
42
-0.37181153065444744
10
-245.91790284813808
20
-140.17364005136949
10
-246.06870266651813
20
-140.17364005136952
42
-0.37181153065444783
10
-250.02561700412386
20
-136.75915599893247
42
0.37181153065444172
10
-252.99330275732811
20
-134.19829295960471
10
-254.51830275732812
20
-134.19829295960471
42
-0.41421356237308982
10
-255.51830275732812
20
-133.19829295960471
10
-255.51830275732812
20
-112.60328631583577
42
0.39239299147523449
10
-258.29330275732821
20
-109.61173571455893
42
-0.92761258954322123
10
-258.29330275732809
20
-101.63426744448726
42
0.39239299147522927
10
-255.51830275732812
20
-98.64271684321038
10
-255.51830275732812
20
-78.048292968848131
42
-0.41421356237310802
10
-254.51830275732812
20
-77.048292968848131
10
-252.97358749364082
20
-77.048292968848131
42
0.39239299147522927
10
-249.98203689236391
20
-74.273292968848139
42
-0.92761258954321857
10
-242.00456862229231
20
-74.273292968848125
42
0.39239299147522994
10
-239.01301802101545
20
-77.048292968848131
10
-218.4183581634698
20
-77.048292968848159
42
-0.41420291907854506
10
-217.4183581641301
20
-78.048256630230725
10
-217.41821230672804
20
-82.06209679128122
42
0.45045906021984122
10
-216.29633360844537
20
-83.054605455544788
10
-199.79220913569887
20
-81.027995868984831
42
-0.41409013117378896
10
-198.67783688643726
20
-81.898243886719683
10
-198.29837921353086
20
-84.977708948992557
42
0.41761158809266752
10
-197.17209649607065
20
-85.846421781535298
10
-195.72321669937222
20
-85.650818854270113
42
0.39239299229199887
10
-193.12982562271375
20
-82.500529538298451
42
-0.92761259217685832
10
-185.2240762450883
20
-81.433230702320287
42
0.39239299229200175
10
-181.88815528852797
20
-83.783045891308319
10
-180.45497273555057
20
-83.589562136957824
42
0.42604838831652797
10
-179.60393601200678
20
-82.425007036890406
10
-181.01053323316228
20
-74.44292108114611
42
-0.41421836191825878
10
-180.19923648684062
20
-73.284547064389585
10
-164.59351928682111
20
-70.534782909090637
42
0.54864211657912565
10
-163.9478682030566
20
-68.976417991160247
10
-174.32966515547616
20
-54.148124607495888
42
-0.41418941201076309
10
-174.08408865461922
20
-52.755455489639957
10
-172.81848652549269
20
-51.869208498329982
42
0.39239299149816348
10
-171.9597592466508
20
-47.880150030220079
42
-0.92761258961718374
10
-165.42515225423517
20
-43.304244496291879
42
0.39239299149816637
10
-161.38292428876537
20
-43.861373813955751
10
-160.11818661839624
20
-42.97573216610661
42
-0.41422452131326376
10
-158.72542849542805
20
-43.221292022232305
10
-156.46873810056493
20
-46.444208032433103
42
0.38889246925083265
10
-155.14954591931175
20
-46.736638541439604
10
-139.36361264617543
20
-37.621707340632071
42
0.39458829572065013
10
-138.96590673847703
20
-36.315185579904892
42
-0.3937152188419592
10
-138.57081622198396
20
-35.010179243405716
10
-122.64185961133825
20
-25.748351278685654
42
-0.13243244913769109
10
-122.13920643457669
20
-25.612839441641924
10
-87.344967285053514
20
-25.612839441641921
42
-0.13243244913769381
10
-86.842314108291973
20
-25.748351278685643
10
-70.91335749764626
20
-35.010179243405716
42
-0.39371521884195471
10
-70.518266981153189
20
-36.315185579904892
42
0.39458829572063997
10
-70.120561073454795
20
-37.621707340632071
10
-54.334627800318486
20
-46.736638541439611
42
0.3888924692508261
10
-53.015435619065286
20
-46.444208032433103
10
-50.758745224202158
20
-43.221292022232305
42
-0.41422452131325493
10
-49.365987101233983
20
-42.975732166106617
10
-48.101249430864854
20
-43.861373813955751
42
0.3923929914981692
10
-44.059021465395041
20
-43.304244496291872
42
-0.92761258961717641
10
-37.524414472979409
20
-47.880150030220037
42
0.3923929914981662
10
-36.665687194137533
20
-51.869208498329996
10
-35.400085065011005
20
-52.755455489639964
42
-0.414189412010733
10
-35.154508564154057
20
-54.14812460749588
10
-45.536305516573591
20
-68.976417991160261
42
0.54864211657912676
10
-44.890654432809107
20
-70.534782909090637
10
-29.284937232789584
20
-73.284547064389585
42
-0.41421836191826011
10
-28.473640486467922
20
-74.44292108114611
10
-29.880237707623433
20
-82.425007036890406
42
0.42604838831652092
10
-29.029200984079644
20
-83.589562136957838
10
-27.596018431102255
20
-83.783045891308319
42
0.39239299229200003
10
-24.26009747454178
20
-81.433230702320316
42
-0.92761259217686298
10
-16.354348096916603
20
-82.500529538298451
42
0.39239299229200347
10
-13.760957020258004
20
-85.650818854270113
10
-12.312077223559578
20
-85.846421781535312
42
0.41761158809267501
10
-11.185794506099356
20
-84.977708948992557
10
-10.806336833192988
20
-81.898243886719683
42
-0.41409013117380039
10
-9.6919645839313517
20
-81.02799586898476
10
6.8121598888151524
20
-83.05460545554476
42
0.45045906021984516
10
7.934038587097838
20
-82.06209679128122
10
7.9341844444998273
20
-78.048256630230725
42
-0.41420291907852425
10
8.9341844438395768
20
-77.048292968848131
10
29.528844301385252
20
-77.048292968848131
42
0.3923929914752301
10
32.520394902662048
20
-74.273292968848139
42
-0.92761258954321824
10
40.497863172733744
20
-74.273292968848125
42
0.39239299147522999
10
43.489413774010615
20
-77.048292968848131
10
45.034129037697888
20
-77.048292968848116
42
-0.41421356237309509
10
46.034129037697902
20
-78.048292968848131
10
46.034129037697902
20
-98.64271684321038
42
0.39239299147522694
10
48.809129037697893
20
-101.63426744448729
42
-0.92761258954322168
10
48.809129037697971
20
-109.61173571455889
42
0.39239299147523615
10
46.034129037697902
20
-112.60328631583577
10
46.03412903769788
20
-133.19829295960471
42
-0.41421356237309509
10
45.034129037697888
20
-134.19829295960471
10
43.509129037697882
20
-134.19829295960474
42
0.37181153065444666
10
40.54144328449361
20
-136.75915599893247
42
-0.37181153065444289
10
36.584528946887929
20
-140.17364005136949
10
36.433729128507871
20
-140.17364005136952
42
-0.37181153065444333
10
32.476814790902168
20
-136.75915599893247
42
0.37181153065444361
10
29.509129037697903
20
-134.19829295960471
10
2.849087602800926
20
-134.19829295960471
42
0.37889432150423691
10
1.8565294293184209
20
-135.0765215661946
10
1.3801824799203697
20
-138.95922377397977
42
-0.41424522764381672
10
0.26574560749491383
20
-139.8299973834506
10
-17.326957313753191
20
-137.66971675465498
42
0.40914235314324415
10
-18.439117810911014
20
-138.52318638184244
10
-18.874765603896964
20
-141.62520266384172
42
-0.41265151385995874
10
-19.998836569253378
20
-142.47713710583699
10
-21.537387897938952
20
-142.26942826461743
42
0.39239299229200758
10
-24.873308854499456
20
-144.61924345360543
42
-0.92761259217687098
10
-32.779058232124626
20
-143.55194461762724
42
0.39239299229200003
10
-35.372449308783196
20
-140.40165530165558
10
-36.895794522948648
20
-140.1959993295003
42
-0.41577733813139123
10
-37.752287154022035
20
-139.06591413611812
10
-36.619859828410497
20
-131.00250130862469
42
0.40403267696282358
10
-37.436612482261715
20
-129.87859719855342
10
-55.994147524545319
20
-126.60871578163827
42
-0.41421836191825118
10
-56.805444270866957
20
-125.45034176488176
10
-56.633092524242173
20
-124.47228888983652
42
0.41681358423208148
10
-57.453114128838401
20
-123.31241731900838
10
-59.005734223579154
20
-123.05299155972584
42
0.38887672937080403
10
-62.404769998065419
20
-125.26152674659116
42
-0.91632477409136837
10
-70.265349366090447
20
-123.94811029793254
42
0.38887672937080359
10
-72.761748117622957
20
-120.75451277457326
10
-84.066251966543319
20
-118.86565438335938
42
0.041413546758356151
10
-84.231056252632413
20
-118.85198067180895
10
-125.25311746699779
20
-118.85198067180895
42
0.041413546758422445
0
CIRCLE
5
132
100
AcDbEntity
8
0
100
AcDbCircle
10
-135.85125888688
20
-91.150288539017254
30
0
40
0.99999999999999645
210
0
220
-0
230
1
0
CIRCLE
5
133
100
AcDbEntity
8
0
100
AcDbCircle
10
-135.4575779759586
20
-61.376614800179851
30
0
40
0.99999999999999645
210
0
220
-0
230
1
0
CIRCLE
5
134
100
AcDbEntity
8
0
100
AcDbCircle
10
-115.17493700569619
20
-32.424819365771988
30
0
40
0.99999999999999645
210
0
220
-0
230
1
0
CIRCLE
5
135
100
AcDbEntity
8
0
100
AcDbCircle
10
-169.09395106879458
20
-45.018785098998215
30
0
40
1.0000000000000142
210
0
220
-0
230
1
0
CIRCLE
5
136
100
AcDbEntity
8
0
100
AcDbCircle
10
-245.99330275732811
20
-73.573292968848122
30
0
40
1.0000000000000142
210
0
220
-0
230
1
0
CIRCLE
5
137
100
AcDbEntity
8
0
100
AcDbCircle
10
-189.27080037068771
20
-81.273199854709929
30
0
40
0.99999999999997868
210
0
220
-0
230
1
0
CIRCLE
5
138
100
AcDbEntity
8
0
100
AcDbCircle
10
-180.56414073953152
20
-144.77927430121582
30
0
40
0.99999999999997868
210
0
220
-0
230
1
0
CIRCLE
5
139
100
AcDbEntity
8
0
100
AcDbCircle
10
-258.99330275732814
20
-105.62329296422644
30
0
40
0.99999999999997868
210
0
220
-0
230
1
0
CIRCLE
5
140
100
AcDbEntity
8
0
100
AcDbCircle
10
-143.0415255607455
20
-125.24722077681729
30
0
40
0.99999999999999645
210
0
220
-0
230
1
0
CIRCLE
5
141
100
AcDbEntity
8
0
100
AcDbCircle
10
-245.99330275732811
20
-137.67329295960474
30
0
40
1.0000000000000142
210
0
220
-0
230
1
0
LWPOLYLINE
5
142
100
AcDbEntity
8
0
100
AcDbPolyline
90
8
70
1
43
0.0
10
-238.99283036454531
20
-130.67278423219881
10
-238.99326642795427
20
-118.67278424012177
42
0.41421356237309509
10
-239.99330276591138
20
-117.67282057939943
10
-251.9933027579884
20
-117.67325664280844
42
0.41421356237309509
10
-252.99326641871073
20
-118.67329298076561
10
-252.99283035530181
20
-130.67329297284257
42
0.41421356237309509
10
-251.99279401734464
20
-131.67325663356496
10
-239.99279402526756
20
-131.67282057015601
42
0.41421356237309509
0
LWPOLYLINE
5
143
100
AcDbEntity
8
0
100
AcDbPolyline
90
8
70
1
43
0.0
10
-199.40764937427659
20
-96.621957727474168
10
-200.87521332635663
20
-84.712034065984923
42
0.41409013117380056
10
-201.98958557561826
20
-83.841786048249986
10
-213.90012666790972
20
-85.30433056544716
42
0.4143370043462874
10
-214.77074151928545
20
-86.419172553474169
10
-213.30317756720535
20
-98.329096214963471
42
0.41409013117379539
10
-212.18880531794372
20
-99.19934423269838
10
-200.27826422565229
20
-97.736799715501178
42
0.4143370043462874
0
LWPOLYLINE
5
144
100
AcDbEntity
8
0
100
AcDbPolyline
90
8
70
1
43
0.0
10
-192.67585433373111
20
-108.02459519538154
10
-191.00692606486814
20
-119.90814596015113
42
0.41265151386001148
10
-189.88285509951169
20
-120.76008040214658
10
-177.99056797667586
20
-119.15458753903566
42
0.41577733813139123
10
-177.13407534560247
20
-118.0245023456535
10
-178.80300361446558
20
-106.14095158088389
42
0.41265151386000704
10
-179.92707457982203
20
-105.28901713888848
10
-191.81936170265772
20
-106.89451000199939
42
0.41577733813138612
0
LWPOLYLINE
5
145
100
AcDbEntity
8
0
100
AcDbPolyline
90
8
70
1
43
0.0
10
-158.84452226501179
20
-110.77262334018587
10
-170.66246707913353
20
-112.85497307282954
42
0.41421836191824879
10
-171.47376382545514
20
-114.01334708958608
10
-169.39122043695843
20
-125.83125777754546
42
0.41420876284422664
10
-168.23286540190941
20
-126.64254122954478
10
-156.4149205877878
20
-124.56019149690113
42
0.41421836191825118
10
-155.60362384146617
20
-123.4018174801446
10
-157.68616722996279
20
-111.5839067921852
42
0.41420876284422753
0
LWPOLYLINE
5
146
100
AcDbEntity
8
0
100
AcDbPolyline
90
8
70
1
43
0.0
10
-162.53819509956895
20
-64.843722602662467
10
-152.70799459635933
20
-57.960871187757192
42
0.41421894100895823
10
-152.46239823597509
20
-56.568133181052715
10
-159.34546713257944
20
-46.738006285188618
42
0.41422452131325288
10
-160.7382252555476
20
-46.492446429062909
10
-170.56759912007891
20
-53.375536156411691
42
0.41418941201072834
10
-170.81317562093585
20
-54.768205274267594
10
-163.93093336300981
20
-64.598093857688198
42
0.41422137543990395
0
LWPOLYLINE
5
147
100
AcDbEntity
8
0
100
AcDbPolyline
90
8
70
1
43
0.0
10
-143.65361706990728
20
-59.180699229768869
10
-133.26157401751107
20
-53.180245799523064
42
0.41420345731676222
10
-132.89559096462293
20
-51.814234305021103
10
-138.89568585600603
20
-41.421984237504283
42
0.41422366750162826
10
-140.26174448000654
20
-41.055988557637676
10
-150.65378753240284
20
-47.056441987883495
42
0.41420345731676456
10
-151.0197705852909
20
-48.422453482385436
10
-145.0196756939078
20
-58.814703549902269
42
0.4142236675016247
0
LWPOLYLINE
5
148
100
AcDbEntity
8
0
100
AcDbPolyline
90
8
70
1
43
0.0
10
-153.23420799891008
20
-107.75099413928716
10
-151.15112455593132
20
-119.56880964724127
42
0.41421605776251014
10
-149.99270791963144
20
-120.38003584030542
10
-138.17491015952911
20
-118.29685171215658
42
0.41421106698808302
10
-137.36369087790808
20
-117.1384449452752
10
-139.44677432088682
20
-105.32062943732114
42
0.41421605776250831
10
-140.60519095718669
20
-104.50940324425694
10
-152.42298871728909
20
-106.59258737240577
42
0.41421106698808396
0
LWPOLYLINE
5
149
100
AcDbEntity
8
0
100
AcDbPolyline
90
8
70
1
43
0.0
10
-182.47476916770449
20
-86.410146587848814
10
-194.3670562905404
20
-88.015639450959711
42
0.41577733813139062
10
-195.22354892161377
20
-89.145724644341854
10
-193.55462065275066
20
-101.02927540911145
42
0.41265151386000493
10
-192.4305496873942
20
-101.88120985110692
10
-180.53826256455832
20
-100.27571698799593
42
0.41577733813139123
10
-179.68176993348493
20
-99.145631794613791
10
-181.35069820234804
20
-87.262081029844225
42
0.41265151386000704
0
LWPOLYLINE
5
150
100
AcDbEntity
8
0
100
AcDbPolyline
90
8
70
1
43
0.0
10
-209.87300517705907
20
-118.10806196070234
10
-197.96246507288254
20
-116.64551756483989
42
0.4141818978113696
10
-197.09178559834302
20
-115.53120116854882
10
-198.55304232780389
20
-103.62050301715277
42
0.41424522764381622
10
-199.66747920022937
20
-102.74972940768193
10
-211.57801930440584
20
-104.21227380354438
42
0.41418189781136322
10
-212.44869877894536
20
-105.32659019983544
10
-210.98744204948451
20
-117.23728835123148
42
0.41424522764381549
0
LWPOLYLINE
5
151
100
AcDbEntity
8
0
100
AcDbPolyline
90
8
70
1
43
0.0
10
-219.94283036454559
20
-130.67278421962118
10
-219.94326642795457
20
-118.67278422754413
42
0.41421356237309509
10
-220.94330276591177
20
-117.67282056682178
10
-232.9433027579887
20
-117.67325663023072
42
0.41421356237309509
10
-233.94326641871103
20
-118.67329296818789
10
-233.94283035530211
20
-130.67329296026492
42
0.41421356237309509
10
-232.94279401734497
20
-131.67325662098727
10
-220.94279402526794
20
-131.67282055757835
42
0.41421356237309509
0
LWPOLYLINE
5
152
100
AcDbEntity
8
0
100
AcDbPolyline
90
8
70
1
43
0.0
10
-251.99196361861684
20
-112.62325659081171
10
-239.99196362653981
20
-112.62282052740278
42
0.41421356237309509
10
-238.99199996581746
20
-111.62278418944561
10
-238.99243602922644
20
-99.622784197368588
42
0.41421356237309509
10
-239.99247236718361
20
-98.62282053664623
10
-251.99247235926063
20
-98.623256600055228
42
0.41421356237309509
10
-252.99243601998302
20
-99.623292938012398
10
-252.99199995657401
20
-111.62329293008935
42
0.41421356237309509
0
LWPOLYLINE
5
153
100
AcDbEntity
8
0
100
AcDbPolyline
90
8
70
1
43
0.0
10
-232.94279401734502
20
-93.573256620987237
10
-220.94279402526797
20
-93.572820557578282
42
0.41421356237309509
10
-219.94283036454559
20
-92.572784219621113
10
-219.9432664279546
20
-80.572784227544076
42
0.41421356237309509
10
-220.94330276591177
20
-79.572820566821704
10
-232.9433027579887
20
-79.573256630230716
42
0.41421356237309509
10
-233.94326641871103
20
-80.573292968187872
10
-233.94283035530219
20
-92.573292960264894
42
0.41421356237309509
0
LWPOLYLINE
5
154
100
AcDbEntity
8
0
100
AcDbPolyline
90
8
70
1
43
0.0
10
-174.58539230427817
20
-136.90323945264416
10
-176.25432057314129
20
-125.01968868787456
42
0.41265151386000565
10
-177.37839153849774
20
-124.16775424587911
10
-189.27067866133328
20
-125.77324710899001
42
0.41577733813138756
10
-190.12717129240662
20
-126.90333230237215
10
-188.45824302354376
20
-138.78688306714179
42
0.41265151386001148
10
-187.33417205818733
20
-139.63881750913723
10
-175.44188493535157
20
-138.0333246460263
42
0.41577733813139123
0
LWPOLYLINE
5
155
100
AcDbEntity
8
0
100
AcDbPolyline
90
8
70
1
43
0.0
10
-171.5390102167857
20
-107.88162689574136
10
-159.72106540266398
20
-105.7992771630977
42
0.41421836191825118
10
-158.90976865634235
20
-104.64090314634119
10
-160.99231204483897
20
-92.822992458381805
42
0.41420876284422237
10
-162.15066707988794
20
-92.011709006382475
10
-173.96861189400968
20
-94.094058739026067
42
0.41421836191825445
10
-174.77990864033137
20
-95.252432755782593
10
-172.6973652518347
20
-107.07034344374205
42
0.41420876284422237
0
LWPOLYLINE
5
156
100
AcDbEntity
8
0
100
AcDbPolyline
90
8
70
1
43
0.0
10
-147.21706598351579
20
-66.987501456304955
10
-159.03486374361816
20
-69.070685584453827
42
0.41421106698808063
10
-159.84608302523912
20
-70.229092351335197
10
-157.76299958226053
20
-82.04690785928932
42
0.41421605776251436
10
-156.60458294596066
20
-82.85813405235352
10
-144.78678518585818
20
-80.774949924204677
42
0.41421106698808047
10
-143.97556590423716
20
-79.616543157323292
10
-146.05864934721592
20
-67.798727649369141
42
0.41421605776251225
0
LWPOLYLINE
5
157
100
AcDbEntity
8
0
100
AcDbPolyline
90
8
70
1
43
0.0
10
-128.08163986453474
20
-48.026646864935294
10
-117.70778190905931
20
-41.994808743796746
42
0.41421356237309481
10
-117.34594692286463
20
-40.627667404078942
10
-123.37778504400322
20
-30.25380944860354
42
0.41421356237309437
10
-124.74492638372105
20
-29.891974462408815
10
-135.11878433919645
20
-35.923812583547424
42
0.41421356237309337
10
-135.48061932539116
20
-37.290953923265242
10
-129.44878120425255
20
-47.664811878740558
42
0.41421356237309243
0
LWPOLYLINE
5
158
100
AcDbEntity
8
0
100
AcDbPolyline
90
8
70
1
43
0.0
10
-143.9113357751454
20
-85.748488892965611
10
-155.72913353524777
20
-87.831673021114483
42
0.4142110669880788
10
-156.54035281686876
20
-88.990079787995853
10
-154.45726937389009
20
-100.80789529594993
42
0.41421605776251436
10
-153.29885273759021
20
-101.61912148901413
10
-141.48105497748782
20
-99.53593736086529
42
0.41421106698808396
10
-140.66983569586679
20
-98.377530593983892
10
-142.75291913884553
20
-86.559715086029797
42
0.41421605776250919
0
LWPOLYLINE
5
159
100
AcDbEntity
8
0
100
AcDbPolyline
90
8
70
1
43
0.0
10
-165.45639728001586
20
-73.250721616483119
10
-177.27434209413769
20
-75.333071349126769
42
0.41421836191825839
10
-178.08563884045935
20
-76.491445365883294
10
-176.00309545196268
20
-88.309356053842691
42
0.41420876284423352
10
-174.84474041691368
20
-89.120639505841993
10
-163.02679560279194
20
-87.038289773198329
42
0.41421836191824424
10
-162.21549885647028
20
-85.879915756441818
10
-164.29804224496689
20
-74.062005068482435
42
0.41420876284422586
0
LWPOLYLINE
5
160
100
AcDbEntity
8
0
100
AcDbPolyline
90
8
70
1
43
0.0
10
-210.12690955224849
20
-124.23457250326476
10
-208.66565282278748
20
-136.14527065466075
42
0.41424522764381433
10
-207.55121595036204
20
-137.01604426413164
10
-195.64067584618562
20
-135.55349986826917
42
0.41418189781136833
10
-194.7699963716461
20
-134.43918347197808
10
-196.23125310110697
20
-122.52848532058208
42
0.41424522764381549
10
-197.34568997353244
20
-121.6577117111112
10
-209.25623007770892
20
-123.12025610697367
42
0.41418189781136711
0
LWPOLYLINE
5
161
100
AcDbEntity
8
0
100
AcDbPolyline
90
8
70
1
43
0.0
10
-219.94199995323956
20
-111.62278418944521
10
-219.94243601664863
20
-99.622784197368077
42
0.41421356237309509
10
-220.9424723546058
20
-98.622820536645733
10
-232.94247234668288
20
-98.623256600054759
42
0.41421356237309509
10
-233.94243600740515
20
-99.623292938011929
10
-233.94199994399631
20
-111.62329293008894
42
0.41421356237309509
10
-232.94196360603917
20
-112.62325659081128
10
-220.94196361396195
20
-112.62282052740238
42
0.41421356237309509
0
LWPOLYLINE
5
162
100
AcDbEntity
8
0
100
AcDbPolyline
90
8
70
1
43
0.0
10
-238.99283036454619
20
-92.572784207043455
10
-238.99326642795512
20
-80.572784214966418
42
0.41421356237309509
10
-239.99330276591226
20
-79.572820554244089
10
-251.99330275798934
20
-79.573256617653087
42
0.41421356237309509
10
-252.99326641871173
20
-80.573292955610256
10
-252.99283035530271
20
-92.573292947687207
42
0.41421356237309509
10
-251.99279401734557
20
-93.573256608409551
10
-239.99279402526849
20
-93.572820545000624
42
0.41421356237309509
0
ENDSEC
0
SECTION
2
OBJECTS
0
DICTIONARY
5
C
100
AcDbDictionary
3
ACAD_GROUP
350
D
3
ACAD_MLINESTYLE
350
17
0
DICTIONARY
5
D
100
AcDbDictionary
0
DICTIONARY
5
1A
330
C
100
AcDbDictionary
0
DICTIONARY
5
17
100
AcDbDictionary
0
ENDSEC
0
EOF
