0
SECTION
2
HEADER
9
$INSUNITS
70
4
9
$ACADVER
1
AC1014
9
$HANDSEED
5
FFFF
0
ENDSEC
0
SECTION
2
TABLES
0
TABLE
2
VPORT
5
8
100
AcDbSymbolTable
0
ENDTAB
0
TABLE
2
LTYPE
5
5
100
AcDbSymbolTable
0
LTYPE
5
14
100
AcDbSymbolTableRecord
100
AcDbLinetypeTableRecord
2
BYBLOCK
70
0
0
LTYPE
5
15
100
AcDbSymbolTableRecord
100
AcDbLinetypeTableRecord
2
BYLAYER
70
0
0
ENDTAB
0
TABLE
2
LAYER
5
2
100
AcDbSymbolTable
70
2
0
LAYER
5
50
100
AcDbSymbolTableRecord
100
AcDbLayerTableRecord
2
0
70
0
6
CONTINUOUS
0
ENDTAB
0
TABLE
2
STYLE
5
3
100
AcDbSymbolTable
70
1
0
STYLE
5
11
100
AcDbSymbolTableRecord
100
AcDbTextStyleTableRecord
2
STANDARD
70
0
0
ENDTAB
0
TABLE
2
VIEW
5
6
100
AcDbSymbolTable
70
0
0
ENDTAB
0
TABLE
2
UCS
5
7
100
AcDbSymbolTable
70
0
0
ENDTAB
0
TABLE
2
APPID
5
9
100
AcDbSymbolTable
70
2
0
APPID
5
12
100
AcDbSymbolTableRecord
100
AcDbRegAppTableRecord
2
ACAD
70
0
0
ENDTAB
0
TABLE
2
DIMSTYLE
5
A
100
AcDbSymbolTable
70
1
0
ENDTAB
0
TABLE
2
BLOCK_RECORD
5
1
100
AcDbSymbolTable
70
1
0
BLOCK_RECORD
5
1F
100
AcDbSymbolTableRecord
100
AcDbBlockTableRecord
2
*MODEL_SPACE
0
BLOCK_RECORD
5
1B
100
AcDbSymbolTableRecord
100
AcDbBlockTableRecord
2
*PAPER_SPACE
0
ENDTAB
0
ENDSEC
0
SECTION
2
BLOCKS
0
BLOCK
5
20
100
AcDbEntity
100
AcDbBlockBegin
2
*MODEL_SPACE
0
ENDBLK
5
21
100
AcDbEntity
100
AcDbBlockEnd
0
BLOCK
5
1C
100
AcDbEntity
100
AcDbBlockBegin
2
*PAPER_SPACE
0
ENDBLK
5
1D
100
AcDbEntity
100
AcDbBlockEnd
0
ENDSEC
0
SECTION
2
ENTITIES
0
CIRCLE
5
100
100
AcDbEntity
8
0
100
AcDbCircle
10
156.22925300019773
20
-44.387478474701155
30
0
40
2.0000000000000284
210
0
220
-0
230
1
0
CIRCLE
5
101
100
AcDbEntity
8
0
100
AcDbCircle
10
122.18354877045445
20
-44.387478474701155
30
0
40
1.9999999999999929
210
0
220
-0
230
1
0
CIRCLE
5
102
100
AcDbEntity
8
0
100
AcDbCircle
10
70.333004797240676
20
-129.70441589042247
30
0
40
1.1000000000000032
210
0
220
-0
230
1
0
CIRCLE
5
103
100
AcDbEntity
8
0
100
AcDbCircle
10
123.11848101240942
20
-21.559140886781005
30
0
40
1.0999999999999943
210
0
220
-0
230
1
0
CIRCLE
5
104
100
AcDbEntity
8
0
100
AcDbCircle
10
180.28347667312275
20
-131.82828042871239
30
0
40
1.0999999999999943
210
0
220
-0
230
1
0
CIRCLE
5
105
100
AcDbEntity
8
0
100
AcDbCircle
10
164.73593443919464
20
-21.559140886781005
30
0
40
1.0999999999999943
210
0
220
-0
230
1
0
CIRCLE
5
106
100
AcDbEntity
8
0
100
AcDbCircle
10
70.321327667207385
20
-23.183430012145759
30
0
40
1.1000000000000032
210
0
220
-0
230
1
0
CIRCLE
5
107
100
AcDbEntity
8
0
100
AcDbCircle
10
68.200007323647739
20
-76.199557790948091
30
0
40
1.1000000000000032
210
0
220
-0
230
1
0
CIRCLE
5
108
100
AcDbEntity
8
0
100
AcDbCircle
10
112.22573139854876
20
-131.8251868971405
30
0
40
1.0999999999999943
210
0
220
-0
230
1
0
CIRCLE
5
109
100
AcDbEntity
8
0
100
AcDbCircle
10
202.55965791700078
20
-22.05231860321264
30
0
40
1.0999999999999943
210
0
220
-0
230
1
0
LINE
5
110
100
AcDbEntity
8
0
100
AcDbLine
10
209.55000003333723
20
-22.552719886649886
30
0
11
209.55000003333723
21
-14.552384489462167
31
0
0
ARC
5
111
100
AcDbEntity
8
0
100
AcDbCircle
10
207.55000003333723
20
-14.552384489462142
30
0
40
1.9999999999999929
210
-0
220
0
230
1
100
AcDbArc
50
0
51
90.009315272711277
0
LINE
5
112
100
AcDbEntity
8
0
100
AcDbLine
10
207.54967486897959
20
-12.552384515895113
30
0
11
72.198156722669182
21
-12.574390260910793
31
0
0
SPLINE
5
113
100
AcDbEntity
8
0
100
AcDbSpline
70
0
71
3
72
14
73
10
74
0
42
0.000000001
43
0.0000000001
44
0.0000000001
40
1
40
1
40
1
40
1
40
1.4056917656222692
40
1.4056917656222692
40
1.4056917656222692
40
1.8557403904303371
40
1.8557403904303371
40
1.8557403904303371
40
2
40
2
40
2
40
2
10
72.198156722669196
20
-12.574390260910802
30
0
10
69.548193009593035
20
-12.574803558951633
30
0
10
67.01831705326336
20
-13.467064662101819
30
0
10
65.022911597738243
20
-14.956960542458727
30
0
10
62.809335781585901
20
-16.609756208728534
30
0
10
61.185133620651243
20
-19.010610542485505
30
0
10
60.523214697764807
20
-21.804181578060231
30
0
10
60.311041701073414
20
-22.699639190154912
30
0
10
60.200014613957919
20
-23.632106142258465
30
0
10
60.200014613957919
20
-24.574404405148638
30
0
0
LINE
5
114
100
AcDbEntity
8
0
100
AcDbLine
10
60.200014613957919
20
-24.574404405148638
30
0
11
60.200014613957897
21
-127.82415297421326
31
0
0
SPLINE
5
115
100
AcDbEntity
8
0
100
AcDbSpline
70
0
71
3
72
17
73
13
74
0
42
0.000000001
43
0.0000000001
44
0.0000000001
40
3
40
3
40
3
40
3
40
3.4055415420587054
40
3.4055415420587054
40
3.4055415420587054
40
3.8555159146769427
40
3.8555159146769427
40
3.8555159146769427
40
4
40
4
40
4
40
4.0000043027558609
40
4.0000043027558609
40
4.0000043027558609
40
4.0000043027558609
10
60.200014613957919
20
-127.82415297421326
30
0
10
60.200014613957919
20
-130.47378185948813
30
0
10
61.091667895119613
20
-133.0035079938589
30
0
10
62.580880479252244
20
-134.99898430021875
30
0
10
64.233257433875693
20
-137.2130933517123
30
0
10
66.633833373495037
20
-138.83785893489761
30
0
10
69.427355355939881
20
-139.50038767826197
30
0
10
70.324338591040316
20
-139.71312170337598
30
0
10
71.25848906817221
20
-139.8243602372535
30
0
10
72.202484269139035
20
-139.82416704822253
30
0
10
72.20249377654342
20
-139.82416704627684
30
0
10
72.20250328334879
20
-139.82416704433126
30
0
10
72.202512790155183
20
-139.82416704238571
30
0
0
LINE
5
116
100
AcDbEntity
8
0
100
AcDbLine
10
72.202512790155183
20
-139.82416704238571
30
0
11
212.3127691533723
21
-139.79475488918115
31
0
0
ARC
5
117
100
AcDbEntity
8
0
100
AcDbCircle
10
212.31234931040979
20
-137.79475493324821
30
0
40
1.9999999999999607
210
-0
220
0
230
1
100
AcDbArc
50
-89.987972385006472
51
0
0
LINE
5
118
100
AcDbEntity
8
0
100
AcDbLine
10
214.31234931040976
20
-137.79475493324816
30
0
11
214.31234931040976
21
-129.80278602004995
31
0
0
LINE
5
119
100
AcDbEntity
8
0
100
AcDbLine
10
214.31234931040976
20
-129.80278602004995
30
0
11
214.31236504385922
21
-129.79476772516489
31
0
0
LINE
5
120
100
AcDbEntity
8
0
100
AcDbLine
10
214.31236504385922
20
-129.79476772516489
30
0
11
214.31236504385922
21
-87.744286965896293
31
0
0
SPLINE
5
121
100
AcDbEntity
8
0
100
AcDbSpline
70
0
71
3
72
8
73
4
74
0
42
0.000000001
43
0.0000000001
44
0.0000000001
40
-12
40
-12
40
-12
40
-12
40
-11
40
-11
40
-11
40
-11
10
214.31236504385922
20
-87.744286965896293
30
0
10
214.31236504385922
20
-86.644004351350205
30
0
10
213.42361450309915
20
-85.75035956721527
30
0
10
212.3233484803734
20
-85.744317125093175
30
0
0
LINE
5
122
100
AcDbEntity
8
0
100
AcDbLine
10
212.3233484803734
20
-85.744317125093175
30
0
11
206.77652537904714
21
-85.713855076045022
31
0
0
SPLINE
5
123
100
AcDbEntity
8
0
100
AcDbSpline
70
0
71
3
72
8
73
4
74
0
42
0.000000001
43
0.0000000001
44
0.0000000001
40
-10
40
-10
40
-10
40
-10
40
-9
40
-9
40
-9
40
-9
10
206.77652537904714
20
-85.713855076045022
30
0
10
205.67625935632145
20
-85.70781263392297
30
0
10
204.7875088155613
20
-84.814167849788035
30
0
10
204.7875088155613
20
-83.713885235241946
30
0
0
LINE
5
124
100
AcDbEntity
8
0
100
AcDbLine
10
204.7875088155613
20
-83.71388523524196
30
0
11
204.7875088155613
21
-68.652931792751716
31
0
0
SPLINE
5
125
100
AcDbEntity
8
0
100
AcDbSpline
70
0
71
3
72
8
73
4
74
0
42
0.000000001
43
0.0000000001
44
0.0000000001
40
-8
40
-8
40
-8
40
-8
40
-7
40
-7
40
-7
40
-7
10
204.7875088155613
20
-68.652931792751716
30
0
10
204.7875088155613
20
-67.548362293090193
30
0
10
203.89207831522265
20
-66.652931792752113
30
0
10
202.78750881556178
20
-66.652931792752113
30
0
0
LINE
5
126
100
AcDbEntity
8
0
100
AcDbLine
10
202.78750881556178
20
-66.652931792752128
30
0
11
202.02500881556091
21
-66.652931792752113
31
0
0
SPLINE
5
127
100
AcDbEntity
8
0
100
AcDbSpline
70
0
71
3
72
8
73
4
74
0
42
0.000000001
43
0.0000000001
44
0.0000000001
40
-6
40
-6
40
-6
40
-6
40
-5
40
-5
40
-5
40
-5
10
202.02500881556091
20
-66.652931792752113
30
0
10
200.92043931589876
20
-66.652931792752113
30
0
10
200.02500881556131
20
-65.757501292414076
30
0
10
200.02500881556131
20
-64.652931792752582
30
0
0
LINE
5
128
100
AcDbEntity
8
0
100
AcDbLine
10
200.02500881556131
20
-64.652931792752582
30
0
11
200.02500881556131
21
-49.598488077983447
31
0
0
SPLINE
5
129
100
AcDbEntity
8
0
100
AcDbSpline
70
0
71
3
72
8
73
4
74
0
42
0.000000001
43
0.0000000001
44
0.0000000001
40
-4
40
-4
40
-4
40
-4
40
-3
40
-3
40
-3
40
-3
10
200.02500881556131
20
-49.598488077983447
30
0
10
200.02500881556131
20
-48.495655486299697
30
0
10
200.91773030067529
20
-47.600946084494439
30
0
10
202.02056016415406
20
-47.59849302561436
30
0
0
LINE
5
130
100
AcDbEntity
8
0
100
AcDbLine
10
202.02056016415401
20
-47.598493025614353
30
0
11
207.55445746696728
21
-47.586183805153262
31
0
0
SPLINE
5
131
100
AcDbEntity
8
0
100
AcDbSpline
70
0
71
3
72
8
73
4
74
0
42
0.000000001
43
0.0000000001
44
0.0000000001
40
-2
40
-2
40
-2
40
-2
40
-1
40
-1
40
-1
40
-1
10
207.55445746696728
20
-47.586183805153262
30
0
10
208.65728733044733
20
-47.583730746273183
30
0
10
209.55000881556131
20
-46.689021344467974
30
0
10
209.55000881556131
20
-45.586188752784231
30
0
0
LINE
5
132
100
AcDbEntity
8
0
100
AcDbLine
10
209.55000881556131
20
-45.586188752784238
30
0
11
209.55000003333723
21
-22.552719886649886
31
0
0
SPLINE
5
133
100
AcDbEntity
8
0
100
AcDbSpline
70
2
71
3
72
17
73
13
74
0
42
0.000000001
43
0.0000000001
44
0.0000000001
40
0
40
0
40
0
40
0
40
1
40
1
40
1
40
2
40
2
40
2
40
3
40
3
40
3
40
4
40
4
40
4
40
4
10
109.53759614173053
20
-81.843321662253828
30
0
10
110.36602388430495
20
-81.843321662253828
30
0
10
111.03759655552949
20
-82.514894333478338
30
0
10
111.03759655552949
20
-83.343322076052132
30
0
10
111.03759655552949
20
-84.171749818627177
30
0
10
110.36602388430495
20
-84.843322489851715
30
0
10
109.53759614173053
20
-84.843322489851715
30
0
10
108.70916839915608
20
-84.843322489851715
30
0
10
108.03759572793156
20
-84.171749818627177
30
0
10
108.03759572793156
20
-83.343322076052132
30
0
10
108.03759572793156
20
-82.514894333478338
30
0
10
108.70916839915608
20
-81.843321662253828
30
0
10
109.53759614173053
20
-81.843321662253828
30
0
0
ENDSEC
0
SECTION
2
OBJECTS
0
DICTIONARY
5
C
100
AcDbDictionary
3
ACAD_GROUP
350
D
3
ACAD_MLINESTYLE
350
17
0
DICTIONARY
5
D
100
AcDbDictionary
0
DICTIONARY
5
1A
330
C
100
AcDbDictionary
0
DICTIONARY
5
17
100
AcDbDictionary
0
ENDSEC
0
EOF
