<?xml version="1.0" encoding="UTF-8" standalone="no"?>
<!-- Created with Inkscape (http://www.inkscape.org/) -->

<svg
   xmlns:dc="http://purl.org/dc/elements/1.1/"
   xmlns:cc="http://creativecommons.org/ns#"
   xmlns:rdf="http://www.w3.org/1999/02/22-rdf-syntax-ns#"
   xmlns:svg="http://www.w3.org/2000/svg"
   xmlns="http://www.w3.org/2000/svg"
   xmlns:sodipodi="http://sodipodi.sourceforge.net/DTD/sodipodi-0.dtd"
   xmlns:inkscape="http://www.inkscape.org/namespaces/inkscape"
   width="210mm"
   height="210mm"
   viewBox="0 0 210.00001 210"
   version="1.1"
   id="svg8"
   inkscape:version="0.92.4 (5da689c313, 2019-01-14)"
   sodipodi:docname="L0.svg">
  <defs
     id="defs2">
    <marker
       style="overflow:visible"
       refY="0"
       refX="0"
       orient="auto"
       id="DistanceX">
      <path
         id="path12"
         style="stroke:#000000;stroke-width:0.5"
         d="M 3,-3 -3,3 M 0,-5 V 5"
         inkscape:connector-curvature="0" />
    </marker>
    <pattern
       y="0"
       x="0"
       width="8"
       patternUnits="userSpaceOnUse"
       id="Hatch"
       height="8">
      <path
         id="path15"
         stroke-width="0.25"
         stroke="#000000"
         linecap="square"
         d="M8 4 l-4,4" />
      <path
         id="path17"
         stroke-width="0.25"
         stroke="#000000"
         linecap="square"
         d="M6 2 l-4,4" />
      <path
         id="path19"
         stroke-width="0.25"
         stroke="#000000"
         linecap="square"
         d="M4 0 l-4,4" />
    </pattern>
    <symbol
       id="*MODEL_SPACE" />
    <symbol
       id="*PAPER_SPACE" />
    <marker
       style="overflow:visible"
       refY="0"
       refX="0"
       orient="auto"
       id="DistanceX-6">
      <path
         id="path111"
         style="stroke:#000000;stroke-width:0.5"
         d="M 3,-3 -3,3 M 0,-5 V 5"
         inkscape:connector-curvature="0" />
    </marker>
    <pattern
       y="0"
       x="0"
       width="8"
       patternUnits="userSpaceOnUse"
       id="Hatch-4"
       height="8">
      <path
         id="path114"
         stroke-width="0.25"
         stroke="#000000"
         linecap="square"
         d="M8 4 l-4,4" />
      <path
         id="path116"
         stroke-width="0.25"
         stroke="#000000"
         linecap="square"
         d="M6 2 l-4,4" />
      <path
         id="path118"
         stroke-width="0.25"
         stroke="#000000"
         linecap="square"
         d="M4 0 l-4,4" />
    </pattern>
    <symbol
       id="*MODEL_SPACE-4" />
    <symbol
       id="*PAPER_SPACE-1" />
    <marker
       style="overflow:visible"
       refY="0"
       refX="0"
       orient="auto"
       id="DistanceX-7">
      <path
         id="path210"
         style="stroke:#000000;stroke-width:0.5"
         d="M 3,-3 -3,3 M 0,-5 V 5"
         inkscape:connector-curvature="0" />
    </marker>
    <pattern
       y="0"
       x="0"
       width="8"
       patternUnits="userSpaceOnUse"
       id="Hatch-3"
       height="8">
      <path
         id="path213"
         stroke-width="0.25"
         stroke="#000000"
         linecap="square"
         d="M8 4 l-4,4" />
      <path
         id="path215"
         stroke-width="0.25"
         stroke="#000000"
         linecap="square"
         d="M6 2 l-4,4" />
      <path
         id="path217"
         stroke-width="0.25"
         stroke="#000000"
         linecap="square"
         d="M4 0 l-4,4" />
    </pattern>
    <symbol
       id="*MODEL_SPACE-9" />
    <symbol
       id="*PAPER_SPACE-3" />
    <marker
       style="overflow:visible"
       refY="0"
       refX="0"
       orient="auto"
       id="DistanceX-2">
      <path
         id="path1300"
         style="stroke:#000000;stroke-width:0.5"
         d="M 3,-3 -3,3 M 0,-5 V 5"
         inkscape:connector-curvature="0" />
    </marker>
    <pattern
       y="0"
       x="0"
       width="8"
       patternUnits="userSpaceOnUse"
       id="Hatch-49"
       height="8">
      <path
         id="path1303"
         stroke-width="0.25"
         stroke="#000000"
         linecap="square"
         d="M8 4 l-4,4" />
      <path
         id="path1305"
         stroke-width="0.25"
         stroke="#000000"
         linecap="square"
         d="M6 2 l-4,4" />
      <path
         id="path1307"
         stroke-width="0.25"
         stroke="#000000"
         linecap="square"
         d="M4 0 l-4,4" />
    </pattern>
    <symbol
       id="*MODEL_SPACE-1" />
    <symbol
       id="*PAPER_SPACE-9" />
    <marker
       style="overflow:visible"
       refY="0"
       refX="0"
       orient="auto"
       id="DistanceX-4">
      <path
         id="path1435"
         style="stroke:#000000;stroke-width:0.5"
         d="M 3,-3 -3,3 M 0,-5 V 5"
         inkscape:connector-curvature="0" />
    </marker>
    <pattern
       y="0"
       x="0"
       width="8"
       patternUnits="userSpaceOnUse"
       id="Hatch-8"
       height="8">
      <path
         id="path1438"
         stroke-width="0.25"
         stroke="#000000"
         linecap="square"
         d="M8 4 l-4,4" />
      <path
         id="path1440"
         stroke-width="0.25"
         stroke="#000000"
         linecap="square"
         d="M6 2 l-4,4" />
      <path
         id="path1442"
         stroke-width="0.25"
         stroke="#000000"
         linecap="square"
         d="M4 0 l-4,4" />
    </pattern>
    <symbol
       id="*MODEL_SPACE-98" />
    <symbol
       id="*PAPER_SPACE-7" />
    <marker
       style="overflow:visible"
       refY="0"
       refX="0"
       orient="auto"
       id="DistanceX-5">
      <path
         id="path1477"
         style="stroke:#000000;stroke-width:0.5"
         d="M 3,-3 -3,3 M 0,-5 V 5"
         inkscape:connector-curvature="0" />
    </marker>
    <pattern
       y="0"
       x="0"
       width="8"
       patternUnits="userSpaceOnUse"
       id="Hatch-47"
       height="8">
      <path
         id="path1480"
         stroke-width="0.25"
         stroke="#000000"
         linecap="square"
         d="M8 4 l-4,4" />
      <path
         id="path1482"
         stroke-width="0.25"
         stroke="#000000"
         linecap="square"
         d="M6 2 l-4,4" />
      <path
         id="path1484"
         stroke-width="0.25"
         stroke="#000000"
         linecap="square"
         d="M4 0 l-4,4" />
    </pattern>
    <symbol
       id="*MODEL_SPACE-2" />
    <symbol
       id="*PAPER_SPACE-92" />
    <marker
       style="overflow:visible"
       refY="0"
       refX="0"
       orient="auto"
       id="DistanceX-3">
      <path
         id="path1519"
         style="stroke:#000000;stroke-width:0.5"
         d="M 3,-3 -3,3 M 0,-5 V 5"
         inkscape:connector-curvature="0" />
    </marker>
    <pattern
       y="0"
       x="0"
       width="8"
       patternUnits="userSpaceOnUse"
       id="Hatch-44"
       height="8">
      <path
         id="path1522"
         stroke-width="0.25"
         stroke="#000000"
         linecap="square"
         d="M8 4 l-4,4" />
      <path
         id="path1524"
         stroke-width="0.25"
         stroke="#000000"
         linecap="square"
         d="M6 2 l-4,4" />
      <path
         id="path1526"
         stroke-width="0.25"
         stroke="#000000"
         linecap="square"
         d="M4 0 l-4,4" />
    </pattern>
    <symbol
       id="*MODEL_SPACE-25" />
    <symbol
       id="*PAPER_SPACE-8" />
    <marker
       style="overflow:visible"
       refY="0.0"
       refX="0.0"
       orient="auto"
       id="DistanceX-9">
      <path
         id="path5763"
         style="stroke:#000000; stroke-width:0.5"
         d="M 3,-3 L -3,3 M 0,-5 L  0,5" />
    </marker>
    <pattern
       y="0"
       x="0"
       width="8"
       patternUnits="userSpaceOnUse"
       id="Hatch-0"
       height="8">
      <path
         id="path5766"
         stroke-width="0.25"
         stroke="#000000"
         linecap="square"
         d="M8 4 l-4,4" />
      <path
         id="path5768"
         stroke-width="0.25"
         stroke="#000000"
         linecap="square"
         d="M6 2 l-4,4" />
      <path
         id="path5770"
         stroke-width="0.25"
         stroke="#000000"
         linecap="square"
         d="M4 0 l-4,4" />
    </pattern>
    <symbol
       id="*MODEL_SPACE-0" />
    <symbol
       id="*PAPER_SPACE-91" />
    <marker
       style="overflow:visible"
       refY="0.0"
       refX="0.0"
       orient="auto"
       id="DistanceX-23">
      <path
         id="path220"
         style="stroke:#000000; stroke-width:0.5"
         d="M 3,-3 L -3,3 M 0,-5 L  0,5" />
    </marker>
    <pattern
       y="0"
       x="0"
       width="8"
       patternUnits="userSpaceOnUse"
       id="Hatch-6"
       height="8">
      <path
         id="path223"
         stroke-width="0.25"
         stroke="#000000"
         linecap="square"
         d="M8 4 l-4,4" />
      <path
         id="path225"
         stroke-width="0.25"
         stroke="#000000"
         linecap="square"
         d="M6 2 l-4,4" />
      <path
         id="path227"
         stroke-width="0.25"
         stroke="#000000"
         linecap="square"
         d="M4 0 l-4,4" />
    </pattern>
    <symbol
       id="*MODEL_SPACE-97" />
    <symbol
       id="*PAPER_SPACE-80" />
  </defs>
  <sodipodi:namedview
     id="base"
     pagecolor="#ffffff"
     bordercolor="#666666"
     borderopacity="1.0"
     inkscape:pageopacity="0.0"
     inkscape:pageshadow="2"
     inkscape:zoom="0.7"
     inkscape:cx="926.10944"
     inkscape:cy="279.26958"
     inkscape:document-units="mm"
     inkscape:current-layer="layer1"
     showgrid="false"
     units="mm"
     inkscape:window-width="2560"
     inkscape:window-height="1377"
     inkscape:window-x="-8"
     inkscape:window-y="-8"
     inkscape:window-maximized="1" />
  <metadata
     id="metadata5">
    <rdf:RDF>
      <cc:Work
         rdf:about="">
        <dc:format>image/svg+xml</dc:format>
        <dc:type
           rdf:resource="http://purl.org/dc/dcmitype/StillImage" />
        <dc:title />
      </cc:Work>
    </rdf:RDF>
  </metadata>
  <g
     inkscape:label="Layer 1"
     inkscape:groupmode="layer"
     id="layer1"
     transform="translate(0,-86.999992)">
    <g
       id="g302"
       inkscape:label="0"
       transform="matrix(0.26458333,0,0,0.26458333,-32.256188,-181.18829)">
      <path
         id="path234"
         style="fill:none;stroke:#000000"
         d="m 598.03182,1290.2834 a 7.559055,7.559055 0 1 0 -15.11811,0 7.559055,7.559055 0 1 0 15.11811,0 z"
         inkscape:connector-curvature="0" />
      <path
         id="path236"
         style="fill:none;stroke:#000000"
         d="m 469.35514,1290.2834 a 7.559055,7.559055 0 1 0 -15.11811,0 7.559055,7.559055 0 1 0 15.11811,0 z"
         inkscape:connector-curvature="0" />
      <path
         id="path238"
         style="fill:none;stroke:#000000"
         d="m 269.98301,1612.7411 a 4.15748,4.15748 0 1 0 -8.31496,0 4.15748,4.15748 0 1 0 8.31496,0 z"
         inkscape:connector-curvature="0" />
      <path
         id="path240"
         style="fill:none;stroke:#000000"
         d="m 469.48717,1204.0031 a 4.15748,4.15748 0 1 0 -8.31496,0 4.15748,4.15748 0 1 0 8.31496,0 z"
         inkscape:connector-curvature="0" />
      <path
         id="path242"
         style="fill:none;stroke:#000000"
         d="m 685.54385,1620.7683 a 4.1574805,4.1574805 0 1 0 -8.31496,0 4.1574805,4.1574805 0 1 0 8.31496,0 z"
         inkscape:connector-curvature="0" />
      <path
         id="path244"
         style="fill:none;stroke:#000000"
         d="m 626.78148,1204.0031 a 4.15748,4.15748 0 1 0 -8.31496,0 4.15748,4.15748 0 1 0 8.31496,0 z"
         inkscape:connector-curvature="0" />
      <path
         id="path246"
         style="fill:none;stroke:#000000"
         d="m 269.93888,1210.1421 a 4.15748,4.15748 0 1 0 -8.31496,0 4.15748,4.15748 0 1 0 8.31496,0 z"
         inkscape:connector-curvature="0" />
      <path
         id="path248"
         style="fill:none;stroke:#000000"
         d="m 261.92129,1410.518 a 4.1574805,4.1574805 0 1 0 -8.31496,0 4.1574805,4.1574805 0 1 0 8.31496,0 z"
         inkscape:connector-curvature="0" />
      <path
         id="path250"
         style="fill:none;stroke:#000000"
         d="m 428.31772,1620.7566 a 4.1574805,4.1574805 0 1 0 -8.31496,0 4.1574805,4.1574805 0 1 0 8.31496,0 z"
         inkscape:connector-curvature="0" />
      <path
         id="path252"
         style="fill:none;stroke:#000000"
         d="m 769.73729,1205.867 a 4.1574805,4.1574805 0 1 0 -8.31496,0 4.1574805,4.1574805 0 1 0 8.31496,0 z"
         inkscape:connector-curvature="0" />
      <path
         id="path254"
         style="fill:none;stroke:#000000"
         d="m 792,1207.7583 v -30.2375"
         inkscape:connector-curvature="0" />
      <path
         id="path256"
         style="fill:none;stroke:#000000"
         d="m 792,1177.5208 a 7.559055,7.559055 0 0 0 -7.56028,-7.559"
         inkscape:connector-curvature="0" />
      <path
         id="path258"
         style="fill:none;stroke:#000000"
         d="m 784.43972,1169.9618 -511.5648,0.083"
         inkscape:connector-curvature="0" />
      <path
         id="path260"
         style="fill:none;stroke:#000000"
         d="m 272.87492,1170.0449 c -10.01561,0 -19.57734,3.3739 -27.11903,9.005 -8.36627,6.2468 -14.50499,15.3209 -17.00673,25.8793 -0.80192,3.3844 -1.22155,6.9087 -1.22155,10.4701"
         inkscape:connector-curvature="0" />
      <path
         id="path262"
         style="fill:none;stroke:#000000"
         d="m 227.52761,1215.3993 v 390.2353"
         inkscape:connector-curvature="0" />
      <path
         id="path264"
         style="fill:none;stroke:#000000"
         d="m 227.52761,1605.6346 c 0,10.0143 3.37003,19.5755 8.99855,27.1175 6.24521,8.3683 15.31825,14.5091 25.87644,17.0131 3.39018,0.8041 6.92082,1.2245 10.48868,1.2238 4e-5,0 7e-5,0 1.1e-4,0"
         inkscape:connector-curvature="0" />
      <path
         id="path266"
         style="fill:none;stroke:#000000"
         d="m 272.89139,1650.989 529.55057,-0.1112"
         inkscape:connector-curvature="0" />
      <path
         id="path268"
         style="fill:none;stroke:#000000"
         d="m 802.44196,1650.8778 a 7.559055,7.559055 0 0 0 7.55747,-7.559"
         inkscape:connector-curvature="0" />
      <path
         id="path270"
         style="fill:none;stroke:#000000"
         d="m 809.99943,1643.3188 v -30.2059"
         inkscape:connector-curvature="0" />
      <path
         id="path272"
         style="fill:none;stroke:#000000"
         d="m 809.99943,1613.1129 6e-5,-0.03"
         inkscape:connector-curvature="0" />
      <path
         id="path274"
         style="fill:none;stroke:#000000"
         d="m 809.99949,1613.0826 v -158.931"
         inkscape:connector-curvature="0" />
      <path
         id="path276"
         style="fill:none;stroke:#000000"
         d="m 809.99949,1454.1516 c 0,-4.1585 -3.35906,-7.5361 -7.51754,-7.5589"
         inkscape:connector-curvature="0" />
      <path
         id="path278"
         style="fill:none;stroke:#000000"
         d="m 802.48195,1446.5927 -20.96437,-0.1151"
         inkscape:connector-curvature="0" />
      <path
         id="path280"
         style="fill:none;stroke:#000000"
         d="m 781.51758,1446.4776 c -4.15849,-0.023 -7.51755,-3.4004 -7.51755,-7.559"
         inkscape:connector-curvature="0" />
      <path
         id="path282"
         style="fill:none;stroke:#000000"
         d="m 774.00003,1438.9186 v -56.9233"
         inkscape:connector-curvature="0" />
      <path
         id="path284"
         style="fill:none;stroke:#000000"
         d="m 774.00003,1381.9953 c 0,-4.1747 -3.3843,-7.559 -7.55905,-7.559"
         inkscape:connector-curvature="0" />
      <path
         id="path286"
         style="fill:none;stroke:#000000"
         d="m 766.44098,1374.4363 h -2.88189"
         inkscape:connector-curvature="0" />
      <path
         id="path288"
         style="fill:none;stroke:#000000"
         d="m 763.55909,1374.4363 c -4.17475,0 -7.55906,-3.3843 -7.55906,-7.5591"
         inkscape:connector-curvature="0" />
      <path
         id="path290"
         style="fill:none;stroke:#000000"
         d="m 756.00003,1366.8772 v -56.8987"
         inkscape:connector-curvature="0" />
      <path
         id="path292"
         style="fill:none;stroke:#000000"
         d="m 756.00003,1309.9785 c 0,-4.1681 3.37407,-7.5497 7.54225,-7.559"
         inkscape:connector-curvature="0" />
      <path
         id="path294"
         style="fill:none;stroke:#000000"
         d="m 763.54228,1302.4195 20.91551,-0.046"
         inkscape:connector-curvature="0" />
      <path
         id="path296"
         style="fill:none;stroke:#000000"
         d="m 784.45779,1302.373 c 4.16818,-0.01 7.54224,-3.3909 7.54224,-7.5591"
         inkscape:connector-curvature="0" />
      <path
         id="path298"
         style="fill:none;stroke:#000000"
         d="M 792.00003,1294.8139 792,1207.7583"
         inkscape:connector-curvature="0" />
      <path
         id="path300"
         style="fill:none;stroke:#000000"
         d="m 414.00036,1431.8488 c 3.13107,0 5.6693,2.5382 5.6693,5.6693 0,3.131 -2.53823,5.6693 -5.6693,5.6693 -3.13106,0 -5.66929,-2.5383 -5.66929,-5.6693 0,-3.1311 2.53823,-5.6693 5.66929,-5.6693"
         inkscape:connector-curvature="0" />
    </g>
  </g>
</svg>
