0
SECTION
2
HEADER
9
$INSUNITS
70
4
9
$ACADVER
1
AC1014
9
$HANDSEED
5
FFFF
0
ENDSEC
0
SECTION
2
TABLES
0
TABLE
2
VPORT
5
8
100
AcDbSymbolTable
0
ENDTAB
0
TABLE
2
LTYPE
5
5
100
AcDbSymbolTable
0
LTYPE
5
14
100
AcDbSymbolTableRecord
100
AcDbLinetypeTableRecord
2
BYBLOCK
70
0
0
LTYPE
5
15
100
AcDbSymbolTableRecord
100
AcDbLinetypeTableRecord
2
BYLAYER
70
0
0
ENDTAB
0
TABLE
2
LAYER
5
2
100
AcDbSymbolTable
70
2
0
LAYER
5
50
100
AcDbSymbolTableRecord
100
AcDbLayerTableRecord
2
0
70
0
6
CONTINUOUS
0
ENDTAB
0
TABLE
2
STYLE
5
3
100
AcDbSymbolTable
70
1
0
STYLE
5
11
100
AcDbSymbolTableRecord
100
AcDbTextStyleTableRecord
2
STANDARD
70
0
0
ENDTAB
0
TABLE
2
VIEW
5
6
100
AcDbSymbolTable
70
0
0
ENDTAB
0
TABLE
2
UCS
5
7
100
AcDbSymbolTable
70
0
0
ENDTAB
0
TABLE
2
APPID
5
9
100
AcDbSymbolTable
70
2
0
APPID
5
12
100
AcDbSymbolTableRecord
100
AcDbRegAppTableRecord
2
ACAD
70
0
0
ENDTAB
0
TABLE
2
DIMSTYLE
5
A
100
AcDbSymbolTable
70
1
0
ENDTAB
0
TABLE
2
BLOCK_RECORD
5
1
100
AcDbSymbolTable
70
1
0
BLOCK_RECORD
5
1F
100
AcDbSymbolTableRecord
100
AcDbBlockTableRecord
2
*MODEL_SPACE
0
BLOCK_RECORD
5
1B
100
AcDbSymbolTableRecord
100
AcDbBlockTableRecord
2
*PAPER_SPACE
0
ENDTAB
0
ENDSEC
0
SECTION
2
BLOCKS
0
BLOCK
5
20
100
AcDbEntity
100
AcDbBlockBegin
2
*MODEL_SPACE
0
ENDBLK
5
21
100
AcDbEntity
100
AcDbBlockEnd
0
BLOCK
5
1C
100
AcDbEntity
100
AcDbBlockBegin
2
*PAPER_SPACE
0
ENDBLK
5
1D
100
AcDbEntity
100
AcDbBlockEnd
0
ENDSEC
0
SECTION
2
ENTITIES
0
CIRCLE
5
100
100
AcDbEntity
8
0
100
AcDbCircle
10
-68.77074699980227
20
-44.387478474701155
30
0
40
2.0000000000000284
210
0
220
-0
230
1
0
CIRCLE
5
101
100
AcDbEntity
8
0
100
AcDbCircle
10
-102.81645122954558
20
-44.387478474701155
30
0
40
2.0000000000000284
210
0
220
-0
230
1
0
CIRCLE
5
102
100
AcDbEntity
8
0
100
AcDbCircle
10
-132.93270800215268
20
-130.94089227794763
30
0
40
1.0999999999999943
210
0
220
0
230
1
0
CIRCLE
5
103
100
AcDbEntity
8
0
100
AcDbCircle
10
-32.797417306921432
20
-20.179077665280701
30
0
40
1.0999999999999985
210
0
220
0
230
1
0
CIRCLE
5
104
100
AcDbEntity
8
0
100
AcDbCircle
10
-174.83711173349405
20
-22.299135392952895
30
0
40
1.1000000000000298
210
0
220
0
230
1
0
CIRCLE
5
105
100
AcDbEntity
8
0
100
AcDbCircle
10
5.0260290676968191
20
-20.430322547641158
30
0
40
1.0999999999999999
210
0
220
0
230
1
0
CIRCLE
5
106
100
AcDbEntity
8
0
100
AcDbCircle
10
-64.874962727578691
20
-130.94398580951952
30
0
40
1.0999999999999943
210
0
220
0
230
1
0
CIRCLE
5
107
100
AcDbEntity
8
0
100
AcDbCircle
10
-174.82543460346079
20
-128.8201212712296
30
0
40
1.1000000000000298
210
0
220
0
230
1
0
CIRCLE
5
108
100
AcDbEntity
8
0
100
AcDbCircle
10
-74.414870723302215
20
-20.179041042477699
30
0
40
1.1000000000000032
210
0
220
0
230
1
0
CIRCLE
5
109
100
AcDbEntity
8
0
100
AcDbCircle
10
-122.03995838829202
20
-20.674846267588141
30
0
40
1.0999999999999943
210
0
220
0
230
1
0
CIRCLE
5
110
100
AcDbEntity
8
0
100
AcDbCircle
10
-176.95843207705369
20
-75.31526317175522
30
0
40
1.1000000000000298
210
0
220
0
230
1
0
CIRCLE
5
111
100
AcDbEntity
8
0
100
AcDbCircle
10
5.0433413830711213
20
-130.93303179998085
30
0
40
1.0999999999999999
210
0
220
0
230
1
0
SPLINE
5
112
100
AcDbEntity
8
0
100
AcDbSpline
70
2
71
3
72
17
73
13
74
0
42
0.000000001
43
0.0000000001
44
0.0000000001
40
0
40
0
40
0
40
0
40
1
40
1
40
1
40
2
40
2
40
2
40
3
40
3
40
3
40
4
40
4
40
4
40
4
10
-87.995760584305714
20
-80.959944787026856
30
0
10
-87.167332841731223
20
-80.959944787026856
30
0
10
-86.495760170506699
20
-81.631517458251395
30
0
10
-86.495760170506699
20
-82.45994520082516
30
0
10
-86.495760170506699
20
-83.288372943400248
30
0
10
-87.167332841731223
20
-83.959945614624758
30
0
10
-87.995760584305714
20
-83.959945614624758
30
0
10
-88.824188326880062
20
-83.959945614624758
30
0
10
-89.495760998104629
20
-83.288372943400248
30
0
10
-89.495760998104629
20
-82.45994520082516
30
0
10
-89.495760998104629
20
-81.631517458251395
30
0
10
-88.824188326880062
20
-80.959944787026856
30
0
10
-87.995760584305714
20
-80.959944787026856
30
0
0
SPLINE
5
113
100
AcDbEntity
8
0
100
AcDbSpline
70
0
71
3
72
8
73
4
74
0
42
0.000000001
43
0.0000000001
44
0.0000000001
40
-16.00485960219131
40
-16.00485960219131
40
-16.00485960219131
40
-16.00485960219131
40
-16
40
-16
40
-16
40
-16
10
16.778944971844318
20
-128.92654668330448
30
0
10
16.778987176253615
20
-128.92118948500263
30
0
10
16.779008317823276
20
-128.91582727074291
30
0
10
16.779008317823276
20
-128.91046011926824
30
0
0
LINE
5
114
100
AcDbEntity
8
0
100
AcDbLine
10
16.779008317823276
20
-128.91046011926824
30
0
11
16.779008317823276
21
-86.8600739318439
31
0
0
SPLINE
5
115
100
AcDbEntity
8
0
100
AcDbSpline
70
0
71
3
72
8
73
4
74
0
42
0.000000001
43
0.0000000001
44
0.0000000001
40
-15
40
-15
40
-15
40
-15
40
-14
40
-14
40
-14
40
-14
10
16.779008317823276
20
-86.8600739318439
30
0
10
16.779008317823276
20
-85.759791317297783
30
0
10
15.890257777063219
20
-84.866146533162919
30
0
10
14.789991754336924
20
-84.860104091040824
30
0
0
LINE
5
116
100
AcDbEntity
8
0
100
AcDbLine
10
14.789991754336924
20
-84.860104091040824
30
0
11
9.2431686530112245
21
-84.829642041992599
31
0
0
SPLINE
5
117
100
AcDbEntity
8
0
100
AcDbSpline
70
0
71
3
72
8
73
4
74
0
42
0.000000001
43
0.0000000001
44
0.0000000001
40
-13
40
-13
40
-13
40
-13
40
-12
40
-12
40
-12
40
-12
10
9.2431686530112245
20
-84.829642041992599
30
0
10
8.1429026302848939
20
-84.823599599870576
30
0
10
7.2541520895248013
20
-83.929954815735641
30
0
10
7.2541520895248013
20
-82.82967220118951
30
0
0
LINE
5
118
100
AcDbEntity
8
0
100
AcDbLine
10
7.2541520895248022
20
-82.829672201189538
30
0
11
7.2541520895248013
21
-67.768718758700913
31
0
0
SPLINE
5
119
100
AcDbEntity
8
0
100
AcDbSpline
70
0
71
3
72
8
73
4
74
0
42
0.000000001
43
0.0000000001
44
0.0000000001
40
-11
40
-11
40
-11
40
-11
40
-10
40
-10
40
-10
40
-10
10
7.2541520895248013
20
-67.768718758700913
30
0
10
7.2541520895248013
20
-66.664149259038766
30
0
10
6.3587215891860538
20
-65.768718758700686
30
0
10
5.2541520895253058
20
-65.768718758700686
30
0
0
LINE
5
120
100
AcDbEntity
8
0
100
AcDbLine
10
5.2541520895253058
20
-65.7687187587007
30
0
11
4.491652089524294
21
-65.768718758700686
31
0
0
SPLINE
5
121
100
AcDbEntity
8
0
100
AcDbSpline
70
0
71
3
72
8
73
4
74
0
42
0.000000001
43
0.0000000001
44
0.0000000001
40
-9
40
-9
40
-9
40
-9
40
-8
40
-8
40
-8
40
-8
10
4.491652089524294
20
-65.768718758700686
30
0
10
3.3870825898628709
20
-65.768718758700686
30
0
10
2.4916520895247984
20
-64.873288258362649
30
0
10
2.4916520895247984
20
-63.768718758701169
30
0
0
LINE
5
122
100
AcDbEntity
8
0
100
AcDbLine
10
2.4916520895247989
20
-63.768718758701169
30
0
11
2.4916520895247984
21
-48.714275043931323
31
0
0
SPLINE
5
123
100
AcDbEntity
8
0
100
AcDbSpline
70
0
71
3
72
8
73
4
74
0
42
0.000000001
43
0.0000000001
44
0.0000000001
40
-7
40
-7
40
-7
40
-7
40
-6
40
-6
40
-6
40
-6
10
2.4916520895247984
20
-48.714275043931323
30
0
10
2.4916520895247984
20
-47.611442452247928
30
0
10
3.3843735746388148
20
-46.716733050442372
30
0
10
4.4872034381175752
20
-46.714279991562648
30
0
0
LINE
5
124
100
AcDbEntity
8
0
100
AcDbLine
10
4.4872034381175743
20
-46.714279991562641
30
0
11
10.021100740932063
21
-46.701970771101529
31
0
0
SPLINE
5
125
100
AcDbEntity
8
0
100
AcDbSpline
70
0
71
3
72
8
73
4
74
0
42
0.000000001
43
0.0000000001
44
0.0000000001
40
-5
40
-5
40
-5
40
-5
40
-4
40
-4
40
-4
40
-4
10
10.021100740932063
20
-46.701970771101529
30
0
10
11.123930604410788
20
-46.699517712221486
30
0
10
12.016652089524804
20
-45.804808310416227
30
0
10
12.016652089524804
20
-44.701975718732797
30
0
0
LINE
5
126
100
AcDbEntity
8
0
100
AcDbLine
10
12.016652089524804
20
-44.701975718732811
30
0
11
12.016652089524804
21
-21.69668459663086
31
0
0
LINE
5
127
100
AcDbEntity
8
0
100
AcDbLine
10
12.016652089524804
20
-21.69668459663086
30
0
11
12.016593071025568
21
-21.681156996212394
31
0
0
LINE
5
128
100
AcDbEntity
8
0
100
AcDbLine
10
12.016593071025568
20
-21.681156996212394
30
0
11
12.016640300024676
21
-13.668101722791778
31
0
0
ARC
5
129
100
AcDbEntity
8
0
100
AcDbCircle
10
10.016640300059411
20
-13.668089934778918
30
0
40
2.0000000000000044
210
-0
220
0
230
1
100
AcDbArc
50
-0.00033770174505019882
51
90.00689068583705
0
LINE
5
130
100
AcDbEntity
8
0
100
AcDbLine
10
10.016399769748837
20
-11.668089949242621
30
0
11
-172.96028267913354
21
-11.690095668530995
31
0
0
SPLINE
5
131
100
AcDbEntity
8
0
100
AcDbSpline
70
0
71
3
72
14
73
10
74
0
42
0.000000001
43
0.0000000001
44
0.0000000001
40
6
40
6
40
6
40
6
40
6.4056917656224739
40
6.4056917656224739
40
6.4056917656224739
40
6.8557403904304559
40
6.8557403904304559
40
6.8557403904304559
40
7
40
7
40
7
40
7
10
-172.96028267913354
20
-11.690095668530995
30
0
10
-175.61024639188565
20
-11.690508966571835
30
0
10
-178.14012234800944
20
-12.582770069649117
30
0
10
-180.1355278033684
20
-14.072665949882882
30
0
10
-182.34910361933487
20
-15.725461616014936
30
0
10
-183.97330578013316
20
-18.126315949571357
30
0
10
-184.63522470296408
20
-20.919886984913969
30
0
10
-184.84739769963753
20
-21.815344596933684
30
0
10
-184.95842478674354
20
-22.747811548959085
30
0
10
-184.95842478674354
20
-23.690109811768814
30
0
0
LINE
5
132
100
AcDbEntity
8
0
100
AcDbLine
10
-184.95842478674351
20
-23.690109811768814
30
0
11
-184.95842478674354
21
-126.93985835502041
31
0
0
SPLINE
5
133
100
AcDbEntity
8
0
100
AcDbSpline
70
0
71
3
72
14
73
10
74
0
42
0.000000001
43
0.0000000001
44
0.0000000001
40
8
40
8
40
8
40
8
40
8.4055415420585824
40
8.4055415420585824
40
8.4055415420585824
40
8.855515914676829
40
8.855515914676829
40
8.855515914676829
40
9
40
9
40
9
40
9
10
-184.95842478674354
20
-126.93985835502041
30
0
10
-184.95842478674354
20
-129.58948724007047
30
0
10
-184.06677150565594
20
-132.11921337423396
30
0
10
-182.57755892164855
20
-134.11468968042666
30
0
10
-180.92518196716355
20
-136.32879873173547
30
0
10
-178.52460602774516
20
-137.95356431478555
30
0
10
-175.73108404553236
20
-138.61609305809549
30
0
10
-174.83410081050573
20
-138.82882708319221
30
0
10
-173.89995033345056
20
-138.94006561706061
30
0
10
-172.95595513256279
20
-138.93987242802967
30
0
0
LINE
5
134
100
AcDbEntity
8
0
100
AcDbLine
10
-172.95595513256279
20
-138.93987242802967
30
0
11
14.778995628173774
21
-138.91045994081057
31
0
0
ARC
5
135
100
AcDbEntity
8
0
100
AcDbCircle
10
14.77899562817381
20
-136.9104599408106
30
0
40
1.9999999999999751
210
0
220
0
230
1
100
AcDbArc
50
-90.000000000001009
51
0.00036352915899330915
0
LINE
5
136
100
AcDbEntity
8
0
100
AcDbLine
10
16.778995628133529
20
-136.91044725120133
30
0
11
16.778944971844318
21
-128.92654668330448
31
0
0
ENDSEC
0
SECTION
2
OBJECTS
0
DICTIONARY
5
C
100
AcDbDictionary
3
ACAD_GROUP
350
D
3
ACAD_MLINESTYLE
350
17
0
DICTIONARY
5
D
100
AcDbDictionary
0
DICTIONARY
5
1A
330
C
100
AcDbDictionary
0
DICTIONARY
5
17
100
AcDbDictionary
0
ENDSEC
0
EOF
