<?xml version="1.0" encoding="UTF-8" standalone="no"?>
<!-- Created with Inkscape (http://www.inkscape.org/) -->

<svg
   xmlns:dc="http://purl.org/dc/elements/1.1/"
   xmlns:cc="http://creativecommons.org/ns#"
   xmlns:rdf="http://www.w3.org/1999/02/22-rdf-syntax-ns#"
   xmlns:svg="http://www.w3.org/2000/svg"
   xmlns="http://www.w3.org/2000/svg"
   xmlns:sodipodi="http://sodipodi.sourceforge.net/DTD/sodipodi-0.dtd"
   xmlns:inkscape="http://www.inkscape.org/namespaces/inkscape"
   width="300mm"
   height="210mm"
   viewBox="0 0 300.00001 210"
   version="1.1"
   id="svg8"
   inkscape:version="0.92.4 (5da689c313, 2019-01-14)"
   sodipodi:docname="L1_L2_L3_macro.svg">
  <defs
     id="defs2">
    <marker
       style="overflow:visible"
       refY="0"
       refX="0"
       orient="auto"
       id="DistanceX">
      <path
         id="path12"
         style="stroke:#000000;stroke-width:0.5"
         d="M 3,-3 -3,3 M 0,-5 V 5"
         inkscape:connector-curvature="0" />
    </marker>
    <pattern
       y="0"
       x="0"
       width="8"
       patternUnits="userSpaceOnUse"
       id="Hatch"
       height="8">
      <path
         id="path15"
         stroke-width="0.25"
         stroke="#000000"
         linecap="square"
         d="M8 4 l-4,4" />
      <path
         id="path17"
         stroke-width="0.25"
         stroke="#000000"
         linecap="square"
         d="M6 2 l-4,4" />
      <path
         id="path19"
         stroke-width="0.25"
         stroke="#000000"
         linecap="square"
         d="M4 0 l-4,4" />
    </pattern>
    <symbol
       id="*MODEL_SPACE" />
    <symbol
       id="*PAPER_SPACE" />
    <marker
       style="overflow:visible"
       refY="0"
       refX="0"
       orient="auto"
       id="DistanceX-6">
      <path
         id="path111"
         style="stroke:#000000;stroke-width:0.5"
         d="M 3,-3 -3,3 M 0,-5 V 5"
         inkscape:connector-curvature="0" />
    </marker>
    <pattern
       y="0"
       x="0"
       width="8"
       patternUnits="userSpaceOnUse"
       id="Hatch-4"
       height="8">
      <path
         id="path114"
         stroke-width="0.25"
         stroke="#000000"
         linecap="square"
         d="M8 4 l-4,4" />
      <path
         id="path116"
         stroke-width="0.25"
         stroke="#000000"
         linecap="square"
         d="M6 2 l-4,4" />
      <path
         id="path118"
         stroke-width="0.25"
         stroke="#000000"
         linecap="square"
         d="M4 0 l-4,4" />
    </pattern>
    <symbol
       id="*MODEL_SPACE-4" />
    <symbol
       id="*PAPER_SPACE-1" />
    <marker
       style="overflow:visible"
       refY="0"
       refX="0"
       orient="auto"
       id="DistanceX-7">
      <path
         id="path210"
         style="stroke:#000000;stroke-width:0.5"
         d="M 3,-3 -3,3 M 0,-5 V 5"
         inkscape:connector-curvature="0" />
    </marker>
    <pattern
       y="0"
       x="0"
       width="8"
       patternUnits="userSpaceOnUse"
       id="Hatch-3"
       height="8">
      <path
         id="path213"
         stroke-width="0.25"
         stroke="#000000"
         linecap="square"
         d="M8 4 l-4,4" />
      <path
         id="path215"
         stroke-width="0.25"
         stroke="#000000"
         linecap="square"
         d="M6 2 l-4,4" />
      <path
         id="path217"
         stroke-width="0.25"
         stroke="#000000"
         linecap="square"
         d="M4 0 l-4,4" />
    </pattern>
    <symbol
       id="*MODEL_SPACE-9" />
    <symbol
       id="*PAPER_SPACE-3" />
    <marker
       style="overflow:visible"
       refY="0"
       refX="0"
       orient="auto"
       id="DistanceX-2">
      <path
         id="path1300"
         style="stroke:#000000;stroke-width:0.5"
         d="M 3,-3 -3,3 M 0,-5 V 5"
         inkscape:connector-curvature="0" />
    </marker>
    <pattern
       y="0"
       x="0"
       width="8"
       patternUnits="userSpaceOnUse"
       id="Hatch-49"
       height="8">
      <path
         id="path1303"
         stroke-width="0.25"
         stroke="#000000"
         linecap="square"
         d="M8 4 l-4,4" />
      <path
         id="path1305"
         stroke-width="0.25"
         stroke="#000000"
         linecap="square"
         d="M6 2 l-4,4" />
      <path
         id="path1307"
         stroke-width="0.25"
         stroke="#000000"
         linecap="square"
         d="M4 0 l-4,4" />
    </pattern>
    <symbol
       id="*MODEL_SPACE-1" />
    <symbol
       id="*PAPER_SPACE-9" />
    <marker
       style="overflow:visible"
       refY="0"
       refX="0"
       orient="auto"
       id="DistanceX-4">
      <path
         id="path1435"
         style="stroke:#000000;stroke-width:0.5"
         d="M 3,-3 -3,3 M 0,-5 V 5"
         inkscape:connector-curvature="0" />
    </marker>
    <pattern
       y="0"
       x="0"
       width="8"
       patternUnits="userSpaceOnUse"
       id="Hatch-8"
       height="8">
      <path
         id="path1438"
         stroke-width="0.25"
         stroke="#000000"
         linecap="square"
         d="M8 4 l-4,4" />
      <path
         id="path1440"
         stroke-width="0.25"
         stroke="#000000"
         linecap="square"
         d="M6 2 l-4,4" />
      <path
         id="path1442"
         stroke-width="0.25"
         stroke="#000000"
         linecap="square"
         d="M4 0 l-4,4" />
    </pattern>
    <symbol
       id="*MODEL_SPACE-98" />
    <symbol
       id="*PAPER_SPACE-7" />
    <marker
       style="overflow:visible"
       refY="0"
       refX="0"
       orient="auto"
       id="DistanceX-5">
      <path
         id="path1477"
         style="stroke:#000000;stroke-width:0.5"
         d="M 3,-3 -3,3 M 0,-5 V 5"
         inkscape:connector-curvature="0" />
    </marker>
    <pattern
       y="0"
       x="0"
       width="8"
       patternUnits="userSpaceOnUse"
       id="Hatch-47"
       height="8">
      <path
         id="path1480"
         stroke-width="0.25"
         stroke="#000000"
         linecap="square"
         d="M8 4 l-4,4" />
      <path
         id="path1482"
         stroke-width="0.25"
         stroke="#000000"
         linecap="square"
         d="M6 2 l-4,4" />
      <path
         id="path1484"
         stroke-width="0.25"
         stroke="#000000"
         linecap="square"
         d="M4 0 l-4,4" />
    </pattern>
    <symbol
       id="*MODEL_SPACE-2" />
    <symbol
       id="*PAPER_SPACE-92" />
    <marker
       style="overflow:visible"
       refY="0"
       refX="0"
       orient="auto"
       id="DistanceX-3">
      <path
         id="path1519"
         style="stroke:#000000;stroke-width:0.5"
         d="M 3,-3 -3,3 M 0,-5 V 5"
         inkscape:connector-curvature="0" />
    </marker>
    <pattern
       y="0"
       x="0"
       width="8"
       patternUnits="userSpaceOnUse"
       id="Hatch-44"
       height="8">
      <path
         id="path1522"
         stroke-width="0.25"
         stroke="#000000"
         linecap="square"
         d="M8 4 l-4,4" />
      <path
         id="path1524"
         stroke-width="0.25"
         stroke="#000000"
         linecap="square"
         d="M6 2 l-4,4" />
      <path
         id="path1526"
         stroke-width="0.25"
         stroke="#000000"
         linecap="square"
         d="M4 0 l-4,4" />
    </pattern>
    <symbol
       id="*MODEL_SPACE-25" />
    <symbol
       id="*PAPER_SPACE-8" />
    <marker
       style="overflow:visible"
       refY="0"
       refX="0"
       orient="auto"
       id="DistanceX-9">
      <path
         id="path5763"
         style="stroke:#000000;stroke-width:0.5"
         d="M 3,-3 -3,3 M 0,-5 V 5"
         inkscape:connector-curvature="0" />
    </marker>
    <pattern
       y="0"
       x="0"
       width="8"
       patternUnits="userSpaceOnUse"
       id="Hatch-0"
       height="8">
      <path
         id="path5766"
         stroke-width="0.25"
         stroke="#000000"
         linecap="square"
         d="M8 4 l-4,4" />
      <path
         id="path5768"
         stroke-width="0.25"
         stroke="#000000"
         linecap="square"
         d="M6 2 l-4,4" />
      <path
         id="path5770"
         stroke-width="0.25"
         stroke="#000000"
         linecap="square"
         d="M4 0 l-4,4" />
    </pattern>
    <symbol
       id="*MODEL_SPACE-0" />
    <symbol
       id="*PAPER_SPACE-91" />
    <marker
       style="overflow:visible"
       refY="0"
       refX="0"
       orient="auto"
       id="DistanceX-23">
      <path
         id="path220"
         style="stroke:#000000;stroke-width:0.5"
         d="M 3,-3 -3,3 M 0,-5 V 5"
         inkscape:connector-curvature="0" />
    </marker>
    <pattern
       y="0"
       x="0"
       width="8"
       patternUnits="userSpaceOnUse"
       id="Hatch-6"
       height="8">
      <path
         id="path223"
         stroke-width="0.25"
         stroke="#000000"
         linecap="square"
         d="M8 4 l-4,4" />
      <path
         id="path225"
         stroke-width="0.25"
         stroke="#000000"
         linecap="square"
         d="M6 2 l-4,4" />
      <path
         id="path227"
         stroke-width="0.25"
         stroke="#000000"
         linecap="square"
         d="M4 0 l-4,4" />
    </pattern>
    <symbol
       id="*MODEL_SPACE-97" />
    <symbol
       id="*PAPER_SPACE-80" />
    <marker
       style="overflow:visible"
       refY="0.0"
       refX="0.0"
       orient="auto"
       id="DistanceX-51">
      <path
         id="path1035"
         style="stroke:#000000; stroke-width:0.5"
         d="M 3,-3 L -3,3 M 0,-5 L  0,5" />
    </marker>
    <pattern
       y="0"
       x="0"
       width="8"
       patternUnits="userSpaceOnUse"
       id="Hatch-5"
       height="8">
      <path
         id="path1038"
         stroke-width="0.25"
         stroke="#000000"
         linecap="square"
         d="M8 4 l-4,4" />
      <path
         id="path1040"
         stroke-width="0.25"
         stroke="#000000"
         linecap="square"
         d="M6 2 l-4,4" />
      <path
         id="path1042"
         stroke-width="0.25"
         stroke="#000000"
         linecap="square"
         d="M4 0 l-4,4" />
    </pattern>
    <symbol
       id="*MODEL_SPACE-5" />
    <symbol
       id="*PAPER_SPACE-922" />
    <marker
       style="overflow:visible"
       refY="0.0"
       refX="0.0"
       orient="auto"
       id="DistanceX-41">
      <path
         id="path1242"
         style="stroke:#000000; stroke-width:0.5"
         d="M 3,-3 L -3,3 M 0,-5 L  0,5" />
    </marker>
    <pattern
       y="0"
       x="0"
       width="8"
       patternUnits="userSpaceOnUse"
       id="Hatch-54"
       height="8">
      <path
         id="path1245"
         stroke-width="0.25"
         stroke="#000000"
         linecap="square"
         d="M8 4 l-4,4" />
      <path
         id="path1247"
         stroke-width="0.25"
         stroke="#000000"
         linecap="square"
         d="M6 2 l-4,4" />
      <path
         id="path1249"
         stroke-width="0.25"
         stroke="#000000"
         linecap="square"
         d="M4 0 l-4,4" />
    </pattern>
    <symbol
       id="*MODEL_SPACE-28" />
    <symbol
       id="*PAPER_SPACE-99" />
  </defs>
  <sodipodi:namedview
     id="base"
     pagecolor="#ffffff"
     bordercolor="#666666"
     borderopacity="1.0"
     inkscape:pageopacity="0.0"
     inkscape:pageshadow="2"
     inkscape:zoom="0.7"
     inkscape:cx="693.96658"
     inkscape:cy="279.26958"
     inkscape:document-units="mm"
     inkscape:current-layer="layer1"
     showgrid="false"
     units="mm"
     inkscape:window-width="2560"
     inkscape:window-height="1377"
     inkscape:window-x="1432"
     inkscape:window-y="637"
     inkscape:window-maximized="1" />
  <metadata
     id="metadata5">
    <rdf:RDF>
      <cc:Work
         rdf:about="">
        <dc:format>image/svg+xml</dc:format>
        <dc:type
           rdf:resource="http://purl.org/dc/dcmitype/StillImage" />
        <dc:title></dc:title>
      </cc:Work>
    </rdf:RDF>
  </metadata>
  <g
     inkscape:label="Layer 1"
     inkscape:groupmode="layer"
     id="layer1"
     transform="translate(0,-86.999992)">
    <g
       id="g1392"
       inkscape:label="0"
       transform="matrix(0.26458333,0,0,0.26458333,234.08971,-180.304)">
      <path
         id="path1256"
         style="fill:none;stroke:#000000"
         d="m -496.2811,1617.4144 a 6.141735,6.141735 0 1 0 -12.28347,0 6.141735,6.141735 0 1 0 12.28347,0 z"
         inkscape:connector-curvature="0" />
      <path
         id="path1258"
         style="fill:none;stroke:#000000"
         d="m 25.137748,1199.7367 a 6.1417325,6.1417325 0 1 0 -12.283465,0 6.1417325,6.1417325 0 1 0 12.283465,0 z"
         inkscape:connector-curvature="0" />
      <path
         id="path1260"
         style="fill:none;stroke:#000000"
         d="m -654.65995,1206.7999 a 6.141732,6.141732 0 1 0 -12.28346,0 6.141732,6.141732 0 1 0 12.28346,0 z"
         inkscape:connector-curvature="0" />
      <path
         id="path1262"
         style="fill:none;stroke:#000000"
         d="m -239.05498,1617.4261 a 6.1417325,6.1417325 0 1 0 -12.28346,0 6.1417325,6.1417325 0 1 0 12.28346,0 z"
         inkscape:connector-curvature="0" />
      <path
         id="path1264"
         style="fill:none;stroke:#000000"
         d="m -654.61582,1609.3989 a 6.141732,6.141732 0 1 0 -12.28346,0 6.141732,6.141732 0 1 0 12.28346,0 z"
         inkscape:connector-curvature="0" />
      <path
         id="path1266"
         style="fill:none;stroke:#000000"
         d="m -455.11165,1200.6608 a 6.141735,6.141735 0 1 0 -12.28347,0 6.141735,6.141735 0 1 0 12.28347,0 z"
         inkscape:connector-curvature="0" />
      <path
         id="path1268"
         style="fill:none;stroke:#000000"
         d="m -662.67754,1407.1758 a 6.141732,6.141732 0 1 0 -12.28346,0 6.141732,6.141732 0 1 0 12.28346,0 z"
         inkscape:connector-curvature="0" />
      <path
         id="path1270"
         style="fill:none;stroke:#000000"
         d="m 25.20318,1617.3847 a 6.1417325,6.1417325 0 1 0 -12.283465,0 6.1417325,6.1417325 0 1 0 12.283465,0 z"
         inkscape:connector-curvature="0" />
      <path
         id="path1272"
         style="fill:none;stroke:#000000"
         d="m 63.416724,1450.8097 c 0,-4.1585 -3.359049,-7.536 -7.517496,-7.5589"
         inkscape:connector-curvature="0" />
      <path
         id="path1274"
         style="fill:none;stroke:#000000"
         d="m 55.899228,1443.2508 -20.964437,-0.1151"
         inkscape:connector-curvature="0" />
      <path
         id="path1276"
         style="fill:none;stroke:#000000"
         d="m 34.934791,1443.1357 c -4.158529,-0.023 -7.517497,-3.4004 -7.517497,-7.559"
         inkscape:connector-curvature="0" />
      <path
         id="path1278"
         style="fill:none;stroke:#000000"
         d="m 27.417294,1435.5767 v -56.9233"
         inkscape:connector-curvature="0" />
      <path
         id="path1280"
         style="fill:none;stroke:#000000"
         d="m 27.417294,1378.6534 c 0,-4.1747 -3.384359,-7.559 -7.559001,-7.559"
         inkscape:connector-curvature="0" />
      <path
         id="path1282"
         style="fill:none;stroke:#000000"
         d="M 19.858293,1371.0944 H 16.976376"
         inkscape:connector-curvature="0" />
      <path
         id="path1284"
         style="fill:none;stroke:#000000"
         d="m 16.976376,1371.0944 c -4.174805,0 -7.559082,-3.3843 -7.559082,-7.5591"
         inkscape:connector-curvature="0" />
      <path
         id="path1286"
         style="fill:none;stroke:#000000"
         d="m 9.417294,1363.5353 v -56.8987"
         inkscape:connector-curvature="0" />
      <path
         id="path1288"
         style="fill:none;stroke:#000000"
         d="m 9.417294,1306.6366 c 0,-4.1681 3.374023,-7.5497 7.542155,-7.559"
         inkscape:connector-curvature="0" />
      <path
         id="path1290"
         style="fill:none;stroke:#000000"
         d="m 16.959449,1299.0776 20.915609,-0.047"
         inkscape:connector-curvature="0" />
      <path
         id="path1292"
         style="fill:none;stroke:#000000"
         d="m 37.875058,1299.0311 c 4.168213,-0.01 7.542236,-3.3909 7.542236,-7.559"
         inkscape:connector-curvature="0" />
      <path
         id="path1294"
         style="fill:none;stroke:#000000"
         d="m 45.417294,1291.4721 c 0,-2e-4 0,-87.0569 9.77e-4,-87.0569"
         inkscape:connector-curvature="0" />
      <path
         id="path1296"
         style="fill:none;stroke:#000000"
         d="m 45.418271,1204.4152 c 0,-0.046 -4.1e-4,-0.092 -0.0012,-0.1375"
         inkscape:connector-curvature="0" />
      <path
         id="path1298"
         style="fill:none;stroke:#000000"
         d="m 45.417046,1204.2777 1.77e-4,-30.099"
         inkscape:connector-curvature="0" />
      <path
         id="path1300-7"
         style="fill:none;stroke:#000000"
         d="m 45.417223,1174.1787 a 7.559055,7.559055 0 0 0 -7.559964,-7.5591"
         inkscape:connector-curvature="0" />
      <path
         id="path1302"
         style="fill:none;stroke:#000000"
         d="M 37.857259,1166.6196 H 0.136329"
         inkscape:connector-curvature="0" />
      <path
         id="path1304"
         style="fill:none;stroke:#000000"
         d="m 0.136329,1166.6241 a 7.559055,7.559055 0 0 0 -7.558146,7.559"
         inkscape:connector-curvature="0" />
      <path
         id="path1306"
         style="fill:none;stroke:#000000"
         d="m -7.421817,1174.1831 v 49.1295"
         inkscape:connector-curvature="0" />
      <path
         id="path1308"
         style="fill:none;stroke:#000000"
         d="m -7.421817,1223.3126 c 0,2.0874 1.692138,3.7795 3.779459,3.7795"
         inkscape:connector-curvature="0" />
      <path
         id="path1310"
         style="fill:none;stroke:#000000"
         d="m -3.642358,1227.0921 33.942627,3e-4"
         inkscape:connector-curvature="0" />
      <path
         id="path1312"
         style="fill:none;stroke:#000000"
         d="m 30.300269,1227.0924 c 4.174805,0 7.559082,3.3844 7.559001,7.5592"
         inkscape:connector-curvature="0" />
      <path
         id="path1314"
         style="fill:none;stroke:#000000"
         d="m 37.85927,1234.6516 -0.0012,49.2781"
         inkscape:connector-curvature="0" />
      <path
         id="path1316"
         style="fill:none;stroke:#000000"
         d="m 37.858049,1283.9297 c 0,4.1682 -3.374186,7.5499 -7.542399,7.5591"
         inkscape:connector-curvature="0" />
      <path
         id="path1318"
         style="fill:none;stroke:#000000"
         d="m 30.31565,1291.4888 -20.915364,0.046"
         inkscape:connector-curvature="0" />
      <path
         id="path1320"
         style="fill:none;stroke:#000000"
         d="m 9.400286,1291.535 c -4.168132,0.01 -7.542237,3.3908 -7.542237,7.559"
         inkscape:connector-curvature="0" />
      <path
         id="path1322"
         style="fill:none;stroke:#000000"
         d="m 1.858049,1299.094 v 72"
         inkscape:connector-curvature="0" />
      <path
         id="path1324"
         style="fill:none;stroke:#000000"
         d="m 1.858049,1371.094 c 0,4.1748 3.384278,7.5591 7.559082,7.5591"
         inkscape:connector-curvature="0" />
      <path
         id="path1326"
         style="fill:none;stroke:#000000"
         d="m 9.417131,1378.6531 h 2.881836"
         inkscape:connector-curvature="0" />
      <path
         id="path1328"
         style="fill:none;stroke:#000000"
         d="m 12.298967,1378.6531 c 4.174724,0 7.559082,3.3842 7.559082,7.5591"
         inkscape:connector-curvature="0" />
      <path
         id="path1330"
         style="fill:none;stroke:#000000"
         d="m 19.858049,1386.2122 v 56.9969"
         inkscape:connector-curvature="0" />
      <path
         id="path1332"
         style="fill:none;stroke:#000000"
         d="m 19.858049,1443.2091 c 0,4.1748 3.384278,7.5591 7.559082,7.5591"
         inkscape:connector-curvature="0" />
      <path
         id="path1334"
         style="fill:none;stroke:#000000"
         d="M 27.417131,1450.7682 H 48.339657"
         inkscape:connector-curvature="0" />
      <path
         id="path1336"
         style="fill:none;stroke:#000000"
         d="m 48.339657,1450.7682 c 4.158529,0.023 7.517741,3.4003 7.517741,7.5589"
         inkscape:connector-curvature="0" />
      <path
         id="path1338"
         style="fill:none;stroke:#000000"
         d="m 55.857398,1458.3271 v 121.2072"
         inkscape:connector-curvature="0" />
      <path
         id="path1340"
         style="fill:none;stroke:#000000"
         d="m 55.857398,1579.5343 c 0,4.1744 -3.383789,7.5586 -7.558187,7.559"
         inkscape:connector-curvature="0" />
      <path
         id="path1342"
         style="fill:none;stroke:#000000"
         d="m 48.299211,1587.0933 -679.321941,0.082"
         inkscape:connector-curvature="0" />
      <path
         id="path1344"
         style="fill:none;stroke:#000000"
         d="m -631.02273,1587.1757 c -4.17513,5e-4 -7.55998,-3.3745 -7.55998,-7.5496 4e-5,-50.3729 0,-277.4343 0,-344.983 0,-4.1748 3.38428,-7.5519 7.55901,-7.5519"
         inkscape:connector-curvature="0" />
      <path
         id="path1346"
         style="fill:none;stroke:#000000"
         d="m -631.0237,1227.0912 213.98079,10e-5"
         inkscape:connector-curvature="0" />
      <path
         id="path1348"
         style="fill:none;stroke:#000000"
         d="m -417.04291,1227.0913 c 2.08732,0 3.77954,-1.6921 3.77954,-3.7795"
         inkscape:connector-curvature="0" />
      <path
         id="path1350"
         style="fill:none;stroke:#000000"
         d="m -413.26337,1223.3118 v -49.05"
         inkscape:connector-curvature="0" />
      <path
         id="path1352"
         style="fill:none;stroke:#000000"
         d="m -413.26337,1174.2618 a 7.559055,7.559055 0 0 0 -7.55905,-7.5591"
         inkscape:connector-curvature="0" />
      <path
         id="path1354"
         style="fill:none;stroke:#000000"
         d="M -420.82242,1166.7027 H -653.70816"
         inkscape:connector-curvature="0" />
      <path
         id="path1356"
         style="fill:none;stroke:#000000"
         d="m -653.70816,1166.7027 c -10.01561,0 -19.57734,3.3739 -27.11903,9.005 -8.36627,6.2468 -14.50499,15.3209 -17.00673,25.8793 -0.80191,3.3844 -1.22154,6.9087 -1.22154,10.4701"
         inkscape:connector-curvature="0" />
      <path
         id="path1358"
         style="fill:none;stroke:#000000"
         d="m -699.05546,1212.0571 v 390.2353"
         inkscape:connector-curvature="0" />
      <path
         id="path1360"
         style="fill:none;stroke:#000000"
         d="m -699.05546,1602.2924 c 0,10.0143 3.37002,19.5755 8.99854,27.1175 6.24521,8.3682 15.31825,14.5091 25.87645,17.0131 3.39017,0.8041 6.92082,1.2245 10.48867,1.2238"
         inkscape:connector-curvature="0" />
      <path
         id="path1362"
         style="fill:none;stroke:#000000"
         d="m -653.6918,1647.6468 709.549421,-0.1112"
         inkscape:connector-curvature="0" />
      <path
         id="path1364"
         style="fill:none;stroke:#000000"
         d="m 55.857621,1647.5356 a 7.559055,7.559055 0 0 0 7.559055,-7.5591"
         inkscape:connector-curvature="0" />
      <path
         id="path1366"
         style="fill:none;stroke:#000000"
         d="m 63.416676,1639.9765 -1.91e-4,-30.1754"
         inkscape:connector-curvature="0" />
      <path
         id="path1368"
         style="fill:none;stroke:#000000"
         d="m 63.416488,1609.8011 c 1.57e-4,-0.02 2.36e-4,-0.04 2.36e-4,-0.06"
         inkscape:connector-curvature="0" />
      <path
         id="path1370"
         style="fill:none;stroke:#000000"
         d="m 63.416724,1609.7407 v -158.931"
         inkscape:connector-curvature="0" />
      <path
         id="path1372"
         style="fill:none;stroke:#000000"
         d="m -117.81701,1198.7871 a 6.1417325,6.1417325 0 1 0 -12.28346,0 6.1417325,6.1417325 0 1 0 12.28346,0 z"
         inkscape:connector-curvature="0" />
      <path
         id="path1374"
         style="fill:none;stroke:#000000"
         d="m -275.11132,1198.7869 a 6.141735,6.141735 0 1 0 -12.28347,0 6.141735,6.141735 0 1 0 12.28347,0 z"
         inkscape:connector-curvature="0" />
      <path
         id="path1376"
         style="fill:none;stroke:#000000"
         d="m -359.90021,1174.2618 v 49.0501"
         inkscape:connector-curvature="0" />
      <path
         id="path1378"
         style="fill:none;stroke:#000000"
         d="m -359.90021,1223.3119 c 0,2.0874 1.69215,3.7796 3.77952,3.7796"
         inkscape:connector-curvature="0" />
      <path
         id="path1380"
         style="fill:none;stroke:#000000"
         d="m -356.12069,1227.0915 307.029568,5e-4"
         inkscape:connector-curvature="0" />
      <path
         id="path1382"
         style="fill:none;stroke:#000000"
         d="m -49.091122,1227.092 c 2.087378,0 3.779535,-1.6921 3.779535,-3.7795"
         inkscape:connector-curvature="0" />
      <path
         id="path1384"
         style="fill:none;stroke:#000000"
         d="m -45.311587,1223.3125 v -49.0507"
         inkscape:connector-curvature="0" />
      <path
         id="path1386"
         style="fill:none;stroke:#000000"
         d="m -45.311587,1174.2618 a 7.559055,7.559055 0 0 0 -7.559055,-7.5591"
         inkscape:connector-curvature="0" />
      <path
         id="path1388"
         style="fill:none;stroke:#000000"
         d="M -52.870642,1166.7027 H -352.34116"
         inkscape:connector-curvature="0" />
      <path
         id="path1390"
         style="fill:none;stroke:#000000"
         d="m -352.34116,1166.7027 a 7.559055,7.559055 0 0 0 -7.55905,7.5591"
         inkscape:connector-curvature="0" />
    </g>
  </g>
</svg>
