<?xml version="1.0" encoding="UTF-8" standalone="no"?>
<!-- Created with Inkscape (http://www.inkscape.org/) -->

<svg
   xmlns:dc="http://purl.org/dc/elements/1.1/"
   xmlns:cc="http://creativecommons.org/ns#"
   xmlns:rdf="http://www.w3.org/1999/02/22-rdf-syntax-ns#"
   xmlns:svg="http://www.w3.org/2000/svg"
   xmlns="http://www.w3.org/2000/svg"
   xmlns:sodipodi="http://sodipodi.sourceforge.net/DTD/sodipodi-0.dtd"
   xmlns:inkscape="http://www.inkscape.org/namespaces/inkscape"
   width="210mm"
   height="210mm"
   viewBox="0 0 210.00001 210"
   version="1.1"
   id="svg8"
   inkscape:version="0.92.4 (5da689c313, 2019-01-14)"
   sodipodi:docname="L1_L2_L3.svg">
  <defs
     id="defs2">
    <marker
       style="overflow:visible"
       refY="0"
       refX="0"
       orient="auto"
       id="DistanceX">
      <path
         id="path12"
         style="stroke:#000000;stroke-width:0.5"
         d="M 3,-3 -3,3 M 0,-5 V 5"
         inkscape:connector-curvature="0" />
    </marker>
    <pattern
       y="0"
       x="0"
       width="8"
       patternUnits="userSpaceOnUse"
       id="Hatch"
       height="8">
      <path
         id="path15"
         stroke-width="0.25"
         stroke="#000000"
         linecap="square"
         d="M8 4 l-4,4" />
      <path
         id="path17"
         stroke-width="0.25"
         stroke="#000000"
         linecap="square"
         d="M6 2 l-4,4" />
      <path
         id="path19"
         stroke-width="0.25"
         stroke="#000000"
         linecap="square"
         d="M4 0 l-4,4" />
    </pattern>
    <symbol
       id="*MODEL_SPACE" />
    <symbol
       id="*PAPER_SPACE" />
    <marker
       style="overflow:visible"
       refY="0"
       refX="0"
       orient="auto"
       id="DistanceX-6">
      <path
         id="path111"
         style="stroke:#000000;stroke-width:0.5"
         d="M 3,-3 -3,3 M 0,-5 V 5"
         inkscape:connector-curvature="0" />
    </marker>
    <pattern
       y="0"
       x="0"
       width="8"
       patternUnits="userSpaceOnUse"
       id="Hatch-4"
       height="8">
      <path
         id="path114"
         stroke-width="0.25"
         stroke="#000000"
         linecap="square"
         d="M8 4 l-4,4" />
      <path
         id="path116"
         stroke-width="0.25"
         stroke="#000000"
         linecap="square"
         d="M6 2 l-4,4" />
      <path
         id="path118"
         stroke-width="0.25"
         stroke="#000000"
         linecap="square"
         d="M4 0 l-4,4" />
    </pattern>
    <symbol
       id="*MODEL_SPACE-4" />
    <symbol
       id="*PAPER_SPACE-1" />
    <marker
       style="overflow:visible"
       refY="0"
       refX="0"
       orient="auto"
       id="DistanceX-7">
      <path
         id="path210"
         style="stroke:#000000;stroke-width:0.5"
         d="M 3,-3 -3,3 M 0,-5 V 5"
         inkscape:connector-curvature="0" />
    </marker>
    <pattern
       y="0"
       x="0"
       width="8"
       patternUnits="userSpaceOnUse"
       id="Hatch-3"
       height="8">
      <path
         id="path213"
         stroke-width="0.25"
         stroke="#000000"
         linecap="square"
         d="M8 4 l-4,4" />
      <path
         id="path215"
         stroke-width="0.25"
         stroke="#000000"
         linecap="square"
         d="M6 2 l-4,4" />
      <path
         id="path217"
         stroke-width="0.25"
         stroke="#000000"
         linecap="square"
         d="M4 0 l-4,4" />
    </pattern>
    <symbol
       id="*MODEL_SPACE-9" />
    <symbol
       id="*PAPER_SPACE-3" />
    <marker
       style="overflow:visible"
       refY="0"
       refX="0"
       orient="auto"
       id="DistanceX-2">
      <path
         id="path1300"
         style="stroke:#000000;stroke-width:0.5"
         d="M 3,-3 -3,3 M 0,-5 V 5"
         inkscape:connector-curvature="0" />
    </marker>
    <pattern
       y="0"
       x="0"
       width="8"
       patternUnits="userSpaceOnUse"
       id="Hatch-49"
       height="8">
      <path
         id="path1303"
         stroke-width="0.25"
         stroke="#000000"
         linecap="square"
         d="M8 4 l-4,4" />
      <path
         id="path1305"
         stroke-width="0.25"
         stroke="#000000"
         linecap="square"
         d="M6 2 l-4,4" />
      <path
         id="path1307"
         stroke-width="0.25"
         stroke="#000000"
         linecap="square"
         d="M4 0 l-4,4" />
    </pattern>
    <symbol
       id="*MODEL_SPACE-1" />
    <symbol
       id="*PAPER_SPACE-9" />
    <marker
       style="overflow:visible"
       refY="0"
       refX="0"
       orient="auto"
       id="DistanceX-4">
      <path
         id="path1435"
         style="stroke:#000000;stroke-width:0.5"
         d="M 3,-3 -3,3 M 0,-5 V 5"
         inkscape:connector-curvature="0" />
    </marker>
    <pattern
       y="0"
       x="0"
       width="8"
       patternUnits="userSpaceOnUse"
       id="Hatch-8"
       height="8">
      <path
         id="path1438"
         stroke-width="0.25"
         stroke="#000000"
         linecap="square"
         d="M8 4 l-4,4" />
      <path
         id="path1440"
         stroke-width="0.25"
         stroke="#000000"
         linecap="square"
         d="M6 2 l-4,4" />
      <path
         id="path1442"
         stroke-width="0.25"
         stroke="#000000"
         linecap="square"
         d="M4 0 l-4,4" />
    </pattern>
    <symbol
       id="*MODEL_SPACE-98" />
    <symbol
       id="*PAPER_SPACE-7" />
    <marker
       style="overflow:visible"
       refY="0"
       refX="0"
       orient="auto"
       id="DistanceX-5">
      <path
         id="path1477"
         style="stroke:#000000;stroke-width:0.5"
         d="M 3,-3 -3,3 M 0,-5 V 5"
         inkscape:connector-curvature="0" />
    </marker>
    <pattern
       y="0"
       x="0"
       width="8"
       patternUnits="userSpaceOnUse"
       id="Hatch-47"
       height="8">
      <path
         id="path1480"
         stroke-width="0.25"
         stroke="#000000"
         linecap="square"
         d="M8 4 l-4,4" />
      <path
         id="path1482"
         stroke-width="0.25"
         stroke="#000000"
         linecap="square"
         d="M6 2 l-4,4" />
      <path
         id="path1484"
         stroke-width="0.25"
         stroke="#000000"
         linecap="square"
         d="M4 0 l-4,4" />
    </pattern>
    <symbol
       id="*MODEL_SPACE-2" />
    <symbol
       id="*PAPER_SPACE-92" />
    <marker
       style="overflow:visible"
       refY="0"
       refX="0"
       orient="auto"
       id="DistanceX-3">
      <path
         id="path1519"
         style="stroke:#000000;stroke-width:0.5"
         d="M 3,-3 -3,3 M 0,-5 V 5"
         inkscape:connector-curvature="0" />
    </marker>
    <pattern
       y="0"
       x="0"
       width="8"
       patternUnits="userSpaceOnUse"
       id="Hatch-44"
       height="8">
      <path
         id="path1522"
         stroke-width="0.25"
         stroke="#000000"
         linecap="square"
         d="M8 4 l-4,4" />
      <path
         id="path1524"
         stroke-width="0.25"
         stroke="#000000"
         linecap="square"
         d="M6 2 l-4,4" />
      <path
         id="path1526"
         stroke-width="0.25"
         stroke="#000000"
         linecap="square"
         d="M4 0 l-4,4" />
    </pattern>
    <symbol
       id="*MODEL_SPACE-25" />
    <symbol
       id="*PAPER_SPACE-8" />
    <marker
       style="overflow:visible"
       refY="0.0"
       refX="0.0"
       orient="auto"
       id="DistanceX-9">
      <path
         id="path5763"
         style="stroke:#000000; stroke-width:0.5"
         d="M 3,-3 L -3,3 M 0,-5 L  0,5" />
    </marker>
    <pattern
       y="0"
       x="0"
       width="8"
       patternUnits="userSpaceOnUse"
       id="Hatch-0"
       height="8">
      <path
         id="path5766"
         stroke-width="0.25"
         stroke="#000000"
         linecap="square"
         d="M8 4 l-4,4" />
      <path
         id="path5768"
         stroke-width="0.25"
         stroke="#000000"
         linecap="square"
         d="M6 2 l-4,4" />
      <path
         id="path5770"
         stroke-width="0.25"
         stroke="#000000"
         linecap="square"
         d="M4 0 l-4,4" />
    </pattern>
    <symbol
       id="*MODEL_SPACE-0" />
    <symbol
       id="*PAPER_SPACE-91" />
    <marker
       style="overflow:visible"
       refY="0.0"
       refX="0.0"
       orient="auto"
       id="DistanceX-68">
      <path
         id="path5898"
         style="stroke:#000000; stroke-width:0.5"
         d="M 3,-3 L -3,3 M 0,-5 L  0,5" />
    </marker>
    <pattern
       y="0"
       x="0"
       width="8"
       patternUnits="userSpaceOnUse"
       id="Hatch-5"
       height="8">
      <path
         id="path5901"
         stroke-width="0.25"
         stroke="#000000"
         linecap="square"
         d="M8 4 l-4,4" />
      <path
         id="path5903"
         stroke-width="0.25"
         stroke="#000000"
         linecap="square"
         d="M6 2 l-4,4" />
      <path
         id="path5905"
         stroke-width="0.25"
         stroke="#000000"
         linecap="square"
         d="M4 0 l-4,4" />
    </pattern>
    <symbol
       id="*MODEL_SPACE-5" />
    <symbol
       id="*PAPER_SPACE-913" />
  </defs>
  <sodipodi:namedview
     id="base"
     pagecolor="#ffffff"
     bordercolor="#666666"
     borderopacity="1.0"
     inkscape:pageopacity="0.0"
     inkscape:pageshadow="2"
     inkscape:zoom="0.7"
     inkscape:cx="926.10944"
     inkscape:cy="279.26958"
     inkscape:document-units="mm"
     inkscape:current-layer="layer1"
     showgrid="false"
     units="mm"
     inkscape:window-width="2560"
     inkscape:window-height="1377"
     inkscape:window-x="-8"
     inkscape:window-y="-8"
     inkscape:window-maximized="1" />
  <metadata
     id="metadata5">
    <rdf:RDF>
      <cc:Work
         rdf:about="">
        <dc:format>image/svg+xml</dc:format>
        <dc:type
           rdf:resource="http://purl.org/dc/dcmitype/StillImage" />
        <dc:title></dc:title>
      </cc:Work>
    </rdf:RDF>
  </metadata>
  <g
     inkscape:label="Layer 1"
     inkscape:groupmode="layer"
     id="layer1"
     transform="translate(0,-86.999992)">
    <g
       id="g6044"
       inkscape:label="0"
       transform="matrix(0.26458333,0,0,0.26458333,-32.25618,-181.18829)">
      <path
         id="path5912"
         style="fill:none;stroke:#000000"
         d="m 271.92313,1210.1421 a 6.141735,6.141735 0 1 0 -12.28347,0 6.141735,6.141735 0 1 0 12.28347,0 z"
         inkscape:connector-curvature="0" />
      <path
         id="path5914"
         style="fill:none;stroke:#000000"
         d="m 687.5281,1620.7683 a 6.1417325,6.1417325 0 1 0 -12.28346,0 6.1417325,6.1417325 0 1 0 12.28346,0 z"
         inkscape:connector-curvature="0" />
      <path
         id="path5916"
         style="fill:none;stroke:#000000"
         d="m 263.90554,1410.518 a 6.141735,6.141735 0 1 0 -12.28347,0 6.141735,6.141735 0 1 0 12.28347,0 z"
         inkscape:connector-curvature="0" />
      <path
         id="path5918"
         style="fill:none;stroke:#000000"
         d="m 430.30198,1620.7566 a 6.141735,6.141735 0 1 0 -12.28347,0 6.141735,6.141735 0 1 0 12.28347,0 z"
         inkscape:connector-curvature="0" />
      <path
         id="path5920"
         style="fill:none;stroke:#000000"
         d="m 771.72154,1205.867 a 6.1417325,6.1417325 0 1 0 -12.28346,0 6.1417325,6.1417325 0 1 0 12.28346,0 z"
         inkscape:connector-curvature="0" />
      <path
         id="path5922"
         style="fill:none;stroke:#000000"
         d="m 271.96726,1612.7411 a 6.141732,6.141732 0 1 0 -12.28346,0 6.141732,6.141732 0 1 0 12.28346,0 z"
         inkscape:connector-curvature="0" />
      <path
         id="path5924"
         style="fill:none;stroke:#000000"
         d="m 739.15962,1226.6109 c 0,2.0874 1.69214,3.7796 3.77951,3.7796"
         inkscape:connector-curvature="0" />
      <path
         id="path5926"
         style="fill:none;stroke:#000000"
         d="m 742.93913,1230.3905 33.95047,0.035"
         inkscape:connector-curvature="0" />
      <path
         id="path5928"
         style="fill:none;stroke:#000000"
         d="m 776.8896,1230.426 c 4.17167,0 7.55115,3.3874 7.55115,7.559"
         inkscape:connector-curvature="0" />
      <path
         id="path5930"
         style="fill:none;stroke:#000000"
         d="m 784.44075,1237.985 v 49.2866"
         inkscape:connector-curvature="0" />
      <path
         id="path5932"
         style="fill:none;stroke:#000000"
         d="m 784.44075,1287.2716 c 0,4.1682 -3.37413,7.5498 -7.54234,7.559"
         inkscape:connector-curvature="0" />
      <path
         id="path5934"
         style="fill:none;stroke:#000000"
         d="m 776.89841,1294.8306 -20.91534,0.046"
         inkscape:connector-curvature="0" />
      <path
         id="path5936"
         style="fill:none;stroke:#000000"
         d="m 755.98307,1294.8768 c -4.1682,0.01 -7.54232,3.3908 -7.54232,7.559"
         inkscape:connector-curvature="0" />
      <path
         id="path5938"
         style="fill:none;stroke:#000000"
         d="m 748.44075,1302.4358 v 72"
         inkscape:connector-curvature="0" />
      <path
         id="path5940"
         style="fill:none;stroke:#000000"
         d="m 748.44075,1374.4358 c 0,4.1748 3.38432,7.5591 7.55909,7.5591"
         inkscape:connector-curvature="0" />
      <path
         id="path5942"
         style="fill:none;stroke:#000000"
         d="m 755.99984,1381.9949 h 2.88186"
         inkscape:connector-curvature="0" />
      <path
         id="path5944"
         style="fill:none;stroke:#000000"
         d="m 758.8817,1381.9949 c 4.17475,0 7.55905,3.3843 7.55905,7.5591"
         inkscape:connector-curvature="0" />
      <path
         id="path5946"
         style="fill:none;stroke:#000000"
         d="m 766.44075,1389.554 v 56.997"
         inkscape:connector-curvature="0" />
      <path
         id="path5948"
         style="fill:none;stroke:#000000"
         d="m 766.44075,1446.551 c 0,4.1748 3.38432,7.5591 7.55909,7.5591"
         inkscape:connector-curvature="0" />
      <path
         id="path5950"
         style="fill:none;stroke:#000000"
         d="m 773.99984,1454.1101 h 20.92252"
         inkscape:connector-curvature="0" />
      <path
         id="path5952"
         style="fill:none;stroke:#000000"
         d="m 794.92236,1454.1101 c 4.15853,0.023 7.51774,3.4003 7.51774,7.5589"
         inkscape:connector-curvature="0" />
      <path
         id="path5954"
         style="fill:none;stroke:#000000"
         d="m 802.4401,1461.669 v 121.2075"
         inkscape:connector-curvature="0" />
      <path
         id="path5956"
         style="fill:none;stroke:#000000"
         d="m 802.4401,1582.8765 c 0,4.1742 -3.38355,7.5583 -7.55781,7.559"
         inkscape:connector-curvature="0" />
      <path
         id="path5958"
         style="fill:none;stroke:#000000"
         d="m 794.88229,1590.4355 -499.34145,0.082"
         inkscape:connector-curvature="0" />
      <path
         id="path5960"
         style="fill:none;stroke:#000000"
         d="m 295.54084,1590.5173 c -4.16449,7e-4 -7.54082,-3.3662 -7.54082,-7.5306 1.2e-4,-57.2726 -1e-5,-271.8913 -2e-5,-345.0175 0,-4.1655 3.37679,-7.5362 7.54226,-7.5362"
         inkscape:connector-curvature="0" />
      <path
         id="path5962"
         style="fill:none;stroke:#000000"
         d="m 295.54226,1230.433 33.99754,10e-5"
         inkscape:connector-curvature="0" />
      <path
         id="path5964"
         style="fill:none;stroke:#000000"
         d="m 329.5398,1230.4331 c 2.08738,10e-5 3.77954,-1.6921 3.77954,-3.7795"
         inkscape:connector-curvature="0" />
      <path
         id="path5966"
         style="fill:none;stroke:#000000"
         d="m 333.31934,1226.6536 v -49.0582"
         inkscape:connector-curvature="0" />
      <path
         id="path5968"
         style="fill:none;stroke:#000000"
         d="m 333.31934,1177.5954 a 7.559055,7.559055 0 0 0 -7.56029,-7.5591"
         inkscape:connector-curvature="0" />
      <path
         id="path5970"
         style="fill:none;stroke:#000000"
         d="m 325.75905,1170.0363 -52.88413,0.01"
         inkscape:connector-curvature="0" />
      <path
         id="path5972"
         style="fill:none;stroke:#000000"
         d="m 272.87492,1170.0449 c -10.01561,0 -19.57734,3.3739 -27.11903,9.005 -8.36627,6.2468 -14.50499,15.3209 -17.00673,25.8793 -0.80192,3.3844 -1.22155,6.9087 -1.22155,10.4701"
         inkscape:connector-curvature="0" />
      <path
         id="path5974"
         style="fill:none;stroke:#000000"
         d="m 227.52761,1215.3993 v 390.2353"
         inkscape:connector-curvature="0" />
      <path
         id="path5976"
         style="fill:none;stroke:#000000"
         d="m 227.52761,1605.6346 c 0,10.0143 3.37003,19.5755 8.99855,27.1175 6.24521,8.3683 15.31825,14.5091 25.87644,17.0131 3.39018,0.8041 6.92082,1.2245 10.48868,1.2238 4e-5,0 7e-5,0 1.1e-4,0"
         inkscape:connector-curvature="0" />
      <path
         id="path5978"
         style="fill:none;stroke:#000000"
         d="m 272.89139,1650.989 529.55057,-0.1112"
         inkscape:connector-curvature="0" />
      <path
         id="path5980"
         style="fill:none;stroke:#000000"
         d="m 802.44196,1650.8778 a 7.559055,7.559055 0 0 0 7.55747,-7.559"
         inkscape:connector-curvature="0" />
      <path
         id="path5982"
         style="fill:none;stroke:#000000"
         d="M 809.99943,1643.3188 V 1454.1516"
         inkscape:connector-curvature="0" />
      <path
         id="path5984"
         style="fill:none;stroke:#000000"
         d="m 809.99943,1454.1516 c 0,-4.1586 -3.35904,-7.5361 -7.5175,-7.5589"
         inkscape:connector-curvature="0" />
      <path
         id="path5986"
         style="fill:none;stroke:#000000"
         d="m 802.48193,1446.5927 -20.96442,-0.1152"
         inkscape:connector-curvature="0" />
      <path
         id="path5988"
         style="fill:none;stroke:#000000"
         d="M 781.51751,1446.4775 C 777.35904,1446.4547 774,1443.0771 774,1438.9186"
         inkscape:connector-curvature="0" />
      <path
         id="path5990"
         style="fill:none;stroke:#000000"
         d="m 774,1438.9186 v -56.9234"
         inkscape:connector-curvature="0" />
      <path
         id="path5992"
         style="fill:none;stroke:#000000"
         d="m 774,1381.9952 c 0,-4.1747 -3.38428,-7.559 -7.559,-7.559"
         inkscape:connector-curvature="0" />
      <path
         id="path5994"
         style="fill:none;stroke:#000000"
         d="m 766.441,1374.4362 h -2.88192"
         inkscape:connector-curvature="0" />
      <path
         id="path5996"
         style="fill:none;stroke:#000000"
         d="m 763.55908,1374.4362 c -4.17476,0 -7.55908,-3.3843 -7.55908,-7.559"
         inkscape:connector-curvature="0" />
      <path
         id="path5998"
         style="fill:none;stroke:#000000"
         d="m 756,1366.8772 v -56.8987"
         inkscape:connector-curvature="0" />
      <path
         id="path6000"
         style="fill:none;stroke:#000000"
         d="m 756,1309.9785 c 0,-4.1682 3.37406,-7.5497 7.54224,-7.559"
         inkscape:connector-curvature="0" />
      <path
         id="path6002"
         style="fill:none;stroke:#000000"
         d="m 763.54224,1302.4195 20.91556,-0.047"
         inkscape:connector-curvature="0" />
      <path
         id="path6004"
         style="fill:none;stroke:#000000"
         d="m 784.4578,1302.3729 c 4.16816,-0.01 7.54221,-3.3908 7.5422,-7.559"
         inkscape:connector-curvature="0" />
      <path
         id="path6006"
         style="fill:none;stroke:#000000"
         d="m 792,1294.8139 -1.3e-4,-64.3808"
         inkscape:connector-curvature="0" />
      <path
         id="path6008"
         style="fill:none;stroke:#000000"
         d="M 791.99987,1230.4331 H 792"
         inkscape:connector-curvature="0" />
      <path
         id="path6010"
         style="fill:none;stroke:#000000"
         d="m 792,1230.4331 v -52.9123"
         inkscape:connector-curvature="0" />
      <path
         id="path6012"
         style="fill:none;stroke:#000000"
         d="m 792,1177.5208 a 7.559055,7.559055 0 0 0 -7.56028,-7.559"
         inkscape:connector-curvature="0" />
      <path
         id="path6014"
         style="fill:none;stroke:#000000"
         d="m 784.43972,1169.9618 -37.72228,0.01"
         inkscape:connector-curvature="0" />
      <path
         id="path6016"
         style="fill:none;stroke:#000000"
         d="m 746.71744,1169.9679 a 7.559055,7.559055 0 0 0 -7.55782,7.5591"
         inkscape:connector-curvature="0" />
      <path
         id="path6018"
         style="fill:none;stroke:#000000"
         d="m 739.15962,1177.527 v 49.0839"
         inkscape:connector-curvature="0" />
      <path
         id="path6020"
         style="fill:none;stroke:#000000"
         d="m 628.76574,1204.0031 a 6.141735,6.141735 0 1 0 -12.28347,0 6.141735,6.141735 0 1 0 12.28347,0 z"
         inkscape:connector-curvature="0" />
      <path
         id="path6022"
         style="fill:none;stroke:#000000"
         d="m 471.47142,1204.0031 a 6.141732,6.141732 0 1 0 -12.28346,0 6.141732,6.141732 0 1 0 12.28346,0 z"
         inkscape:connector-curvature="0" />
      <path
         id="path6024"
         style="fill:none;stroke:#000000"
         d="m 701.27116,1204.0031 v -10e-4"
         inkscape:connector-curvature="0" />
      <path
         id="path6026"
         style="fill:none;stroke:#000000"
         d="m 701.27116,1204.0021 -0.004,-26.4764"
         inkscape:connector-curvature="0" />
      <path
         id="path6028"
         style="fill:none;stroke:#000000"
         d="m 701.26686,1177.5257 a 7.559055,7.559055 0 0 0 -7.55906,-7.5578"
         inkscape:connector-curvature="0" />
      <path
         id="path6030"
         style="fill:none;stroke:#000000"
         d="M 693.7078,1169.9679 H 394.24159"
         inkscape:connector-curvature="0" />
      <path
         id="path6032"
         style="fill:none;stroke:#000000"
         d="m 394.24159,1169.9679 a 7.559055,7.559055 0 0 0 -7.55905,7.5591"
         inkscape:connector-curvature="0" />
      <path
         id="path6034"
         style="fill:none;stroke:#000000"
         d="m 386.68254,1177.527 v 49.1268"
         inkscape:connector-curvature="0" />
      <path
         id="path6036"
         style="fill:none;stroke:#000000"
         d="m 386.68254,1226.6538 c 0,2.0874 1.69214,3.7795 3.77952,3.7795"
         inkscape:connector-curvature="0" />
      <path
         id="path6038"
         style="fill:none;stroke:#000000"
         d="m 390.46206,1230.4333 307.02956,6e-4"
         inkscape:connector-curvature="0" />
      <path
         id="path6040"
         style="fill:none;stroke:#000000"
         d="m 697.49162,1230.4339 c 2.08738,0 3.77954,-1.6922 3.77954,-3.7795"
         inkscape:connector-curvature="0" />
      <path
         id="path6042"
         style="fill:none;stroke:#000000"
         d="m 701.27116,1226.6544 v -22.6513"
         inkscape:connector-curvature="0" />
    </g>
  </g>
</svg>
