0
SECTION
2
HEADER
9
$INSUNITS
70
4
9
$ACADVER
1
AC1014
9
$HANDSEED
5
FFFF
0
ENDSEC
0
SECTION
2
TABLES
0
TABLE
2
VPORT
5
8
100
AcDbSymbolTable
0
ENDTAB
0
TABLE
2
LTYPE
5
5
100
AcDbSymbolTable
0
LTYPE
5
14
100
AcDbSymbolTableRecord
100
AcDbLinetypeTableRecord
2
BYBLOCK
70
0
0
LTYPE
5
15
100
AcDbSymbolTableRecord
100
AcDbLinetypeTableRecord
2
BYLAYER
70
0
0
ENDTAB
0
TABLE
2
LAYER
5
2
100
AcDbSymbolTable
70
2
0
LAYER
5
50
100
AcDbSymbolTableRecord
100
AcDbLayerTableRecord
2
0
70
0
6
CONTINUOUS
0
ENDTAB
0
TABLE
2
STYLE
5
3
100
AcDbSymbolTable
70
1
0
STYLE
5
11
100
AcDbSymbolTableRecord
100
AcDbTextStyleTableRecord
2
STANDARD
70
0
0
ENDTAB
0
TABLE
2
VIEW
5
6
100
AcDbSymbolTable
70
0
0
ENDTAB
0
TABLE
2
UCS
5
7
100
AcDbSymbolTable
70
0
0
ENDTAB
0
TABLE
2
APPID
5
9
100
AcDbSymbolTable
70
2
0
APPID
5
12
100
AcDbSymbolTableRecord
100
AcDbRegAppTableRecord
2
ACAD
70
0
0
ENDTAB
0
TABLE
2
DIMSTYLE
5
A
100
AcDbSymbolTable
70
1
0
ENDTAB
0
TABLE
2
BLOCK_RECORD
5
1
100
AcDbSymbolTable
70
1
0
BLOCK_RECORD
5
1F
100
AcDbSymbolTableRecord
100
AcDbBlockTableRecord
2
*MODEL_SPACE
0
BLOCK_RECORD
5
1B
100
AcDbSymbolTableRecord
100
AcDbBlockTableRecord
2
*PAPER_SPACE
0
ENDTAB
0
ENDSEC
0
SECTION
2
BLOCKS
0
BLOCK
5
20
100
AcDbEntity
100
AcDbBlockBegin
2
*MODEL_SPACE
0
ENDBLK
5
21
100
AcDbEntity
100
AcDbBlockEnd
0
BLOCK
5
1C
100
AcDbEntity
100
AcDbBlockBegin
2
*PAPER_SPACE
0
ENDBLK
5
1D
100
AcDbEntity
100
AcDbBlockEnd
0
ENDSEC
0
SECTION
2
ENTITIES
0
CIRCLE
5
100
100
AcDbEntity
8
0
100
AcDbCircle
10
70.321327667207385
20
-23.183430012145759
30
0
40
1.625
210
0
220
-0
230
1
0
CIRCLE
5
101
100
AcDbEntity
8
0
100
AcDbCircle
10
180.28347667312275
20
-131.82828042871239
30
0
40
1.625
210
0
220
-0
230
1
0
CIRCLE
5
102
100
AcDbEntity
8
0
100
AcDbCircle
10
68.200007323647739
20
-76.199557790948091
30
0
40
1.625
210
0
220
-0
230
1
0
CIRCLE
5
103
100
AcDbEntity
8
0
100
AcDbCircle
10
112.22573139854876
20
-131.8251868971405
30
0
40
1.625
210
0
220
-0
230
1
0
CIRCLE
5
104
100
AcDbEntity
8
0
100
AcDbCircle
10
202.55965791700078
20
-22.05231860321264
30
0
40
1.625
210
0
220
-0
230
1
0
CIRCLE
5
105
100
AcDbEntity
8
0
100
AcDbCircle
10
70.333004797240676
20
-129.70441589042247
30
0
40
1.625
210
0
220
-0
230
1
0
SPLINE
5
106
100
AcDbEntity
8
0
100
AcDbSpline
70
0
71
3
72
8
73
4
74
0
42
0.000000001
43
0.0000000001
44
0.0000000001
40
-47
40
-47
40
-47
40
-47
40
-46
40
-46
40
-46
40
-46
10
195.56931580066433
20
-27.540812142706788
30
0
10
195.56931580066433
20
-28.093095795766363
30
0
10
196.01702786440973
20
-28.540811371171895
30
0
10
196.56931151745198
20
-28.540815703029327
30
0
0
LINE
5
107
100
AcDbEntity
8
0
100
AcDbLine
10
196.56931151745195
20
-28.540815703029327
30
0
11
205.55204108566801
21
-28.550208215447253
31
0
0
SPLINE
5
108
100
AcDbEntity
8
0
100
AcDbSpline
70
0
71
3
72
8
73
4
74
0
42
0.000000001
43
0.0000000001
44
0.0000000001
40
-45
40
-45
40
-45
40
-45
40
-44
40
-44
40
-44
40
-44
10
205.55204108566801
20
-28.550208215447253
30
0
10
206.65579339143665
20
-28.551362319793707
30
0
10
207.54994984887566
20
-29.446454212983877
30
0
10
207.54994984887566
20
-30.550207122128956
30
0
0
LINE
5
109
100
AcDbEntity
8
0
100
AcDbLine
10
207.54994984887563
20
-30.550207122128953
30
0
11
207.54994984887566
21
-43.590605324205271
31
0
0
SPLINE
5
110
100
AcDbEntity
8
0
100
AcDbSpline
70
0
71
3
72
8
73
4
74
0
42
0.000000001
43
0.0000000001
44
0.0000000001
40
-43
40
-43
40
-43
40
-43
40
-42
40
-42
40
-42
40
-42
10
207.54994984887566
20
-43.590605324205271
30
0
10
207.54994984887566
20
-44.693449059930956
30
0
10
206.65721099355005
20
-45.58816309881999
30
0
10
205.55436995115173
20
-45.5906004398731
30
0
0
LINE
5
111
100
AcDbEntity
8
0
100
AcDbLine
10
205.5543699511517
20
-45.5906004398731
30
0
11
200.02052023830174
21
-45.602830560596828
31
0
0
SPLINE
5
112
100
AcDbEntity
8
0
100
AcDbSpline
70
0
71
3
72
8
73
4
74
0
42
0.000000001
43
0.0000000001
44
0.0000000001
40
-41
40
-41
40
-41
40
-41
40
-40
40
-40
40
-40
40
-40
10
200.02052023830174
20
-45.602830560596828
30
0
10
198.91768445058756
20
-45.605267890036799
30
0
10
198.02494984887568
20
-46.499977665900914
30
0
10
198.02494984887568
20
-47.602816146930337
30
0
0
LINE
5
113
100
AcDbEntity
8
0
100
AcDbLine
10
198.02494984887568
20
-47.602816146930344
30
0
11
198.02494984887568
21
-66.652816146930633
31
0
0
SPLINE
5
114
100
AcDbEntity
8
0
100
AcDbSpline
70
0
71
3
72
8
73
4
74
0
42
0.000000001
43
0.0000000001
44
0.0000000001
40
-39
40
-39
40
-39
40
-39
40
-38
40
-38
40
-38
40
-38
10
198.02494984887568
20
-66.652816146930633
30
0
10
198.02494984887568
20
-67.757389579283839
30
0
10
198.92038353729075
20
-68.652823267698878
30
0
10
200.02495696964459
20
-68.652823267698878
30
0
0
LINE
5
115
100
AcDbEntity
8
0
100
AcDbLine
10
200.02495696964459
20
-68.652823267698892
30
0
11
200.7874498488755
21
-68.652823267698878
31
0
0
SPLINE
5
116
100
AcDbEntity
8
0
100
AcDbSpline
70
0
71
3
72
8
73
4
74
0
42
0.000000001
43
0.0000000001
44
0.0000000001
40
-37
40
-37
40
-37
40
-37
40
-36
40
-36
40
-36
40
-36
10
200.7874498488755
20
-68.652823267698878
30
0
10
201.89201934853764
20
-68.652823267698878
30
0
10
202.78744984887567
20
-69.548253768036886
30
0
10
202.78744984887567
20
-70.652823267698452
30
0
0
LINE
5
117
100
AcDbEntity
8
0
100
AcDbLine
10
202.78744984887567
20
-70.652823267698452
30
0
11
202.78744984887567
21
-85.733283710135595
31
0
0
SPLINE
5
118
100
AcDbEntity
8
0
100
AcDbSpline
70
0
71
3
72
8
73
4
74
0
42
0.000000001
43
0.0000000001
44
0.0000000001
40
-34
40
-34
40
-34
40
-34
40
-33
40
-33
40
-33
40
-33
10
202.78744984887567
20
-85.733283710135595
30
0
10
202.78744984887567
20
-86.837857142488772
30
0
10
203.68288353729073
20
-87.733290830903883
30
0
10
204.78745696964461
20
-87.733290830903883
30
0
0
LINE
5
119
100
AcDbEntity
8
0
100
AcDbLine
10
204.78745696964461
20
-87.733290830903883
30
0
11
210.32320865150217
21
-87.733290830903883
31
0
0
SPLINE
5
120
100
AcDbEntity
8
0
100
AcDbSpline
70
0
71
3
72
8
73
4
74
0
42
0.000000001
43
0.0000000001
44
0.0000000001
40
-32
40
-32
40
-32
40
-32
40
-31
40
-31
40
-31
40
-31
10
210.32320865150217
20
-87.733290830903883
30
0
10
211.42348602237894
20
-87.739298216157735
30
0
10
212.31227759410137
20
-88.632955985254966
30
0
10
212.31227759410137
20
-89.733254887978475
30
0
0
LINE
5
121
100
AcDbEntity
8
0
100
AcDbLine
10
212.31227759410135
20
-89.733254887978475
30
0
11
212.31227759410137
21
-121.80273415573794
31
0
0
SPLINE
5
122
100
AcDbEntity
8
0
100
AcDbSpline
70
0
71
3
72
8
73
4
74
0
42
0.000000001
43
0.0000000001
44
0.0000000001
40
-30
40
-30
40
-30
40
-30
40
-29
40
-29
40
-29
40
-29
10
212.31227759410137
20
-121.80273415573794
30
0
10
212.31227759410137
20
-122.90717596701676
30
0
10
211.41704653128113
20
-123.80255365727642
30
0
10
210.3126047348153
20
-123.80273453595699
30
0
0
LINE
5
123
100
AcDbEntity
8
0
100
AcDbLine
10
210.3126047348153
20
-123.80273453595697
30
0
11
78.195179542991696
21
-123.82437191484058
31
0
0
SPLINE
5
124
100
AcDbEntity
8
0
100
AcDbSpline
70
0
71
3
72
14
73
10
74
0
42
0.000000001
43
0.0000000001
44
0.0000000001
40
-28
40
-28
40
-28
40
-28
40
-27
40
-27
40
-27
40
-26
40
-26
40
-26
40
-25
40
-25
40
-25
40
-25
10
78.195179542991696
20
-123.82437191484058
30
0
10
77.09332710539482
20
-123.82455236945312
30
0
10
76.200004082580762
20
-122.93374105091928
30
0
10
76.200006334556775
20
-121.83188859854788
30
0
10
76.200037305169502
20
-106.67851126723825
30
0
10
76.200002850187829
20
-49.893997361453927
30
0
10
76.200000193358406
20
-30.546011110979858
30
0
10
76.200000042018161
20
-29.443897025746626
30
0
10
77.093442633546658
20
-28.552057682498226
30
0
10
78.195556718768628
20
-28.552062635530202
30
0
0
LINE
5
125
100
AcDbEntity
8
0
100
AcDbLine
10
78.195556718768628
20
-28.552062635530199
30
0
11
87.190737439758351
21
-28.552103060948166
31
0
0
SPLINE
5
126
100
AcDbEntity
8
0
100
AcDbSpline
70
0
71
3
72
8
73
4
74
0
42
0.000000001
43
0.0000000001
44
0.0000000001
40
-24
40
-24
40
-24
40
-24
40
-23
40
-23
40
-23
40
-23
10
87.190737439758351
20
-28.552103060948166
30
0
10
87.743023428955723
20
-28.552105542987416
30
0
10
88.190741000134437
20
-28.104389983900315
30
0
10
88.190741000134437
20
-27.552103994697479
30
0
0
LINE
5
127
100
AcDbEntity
8
0
100
AcDbLine
10
88.190741000134437
20
-27.552103994697475
30
0
11
88.190741000134437
21
-14.572115342474756
31
0
0
ARC
5
128
100
AcDbEntity
8
0
100
AcDbCircle
10
86.190741000134466
20
-14.572115342474723
30
0
40
1.9999999999999751
210
-0
220
0
230
1
100
AcDbArc
50
0
51
90.009315272711277
0
LINE
5
129
100
AcDbEntity
8
0
100
AcDbLine
10
86.190415835776832
20
-12.572115368907713
30
0
11
72.198156722669182
21
-12.574390260910793
31
0
0
SPLINE
5
130
100
AcDbEntity
8
0
100
AcDbSpline
70
0
71
3
72
14
73
10
74
0
42
0.000000001
43
0.0000000001
44
0.0000000001
40
1
40
1
40
1
40
1
40
1.4056917656222692
40
1.4056917656222692
40
1.4056917656222692
40
1.8557403904303371
40
1.8557403904303371
40
1.8557403904303371
40
2
40
2
40
2
40
2
10
72.198156722669196
20
-12.574390260910802
30
0
10
69.548193009593035
20
-12.574803558951633
30
0
10
67.01831705326336
20
-13.467064662101819
30
0
10
65.022911597738243
20
-14.956960542458727
30
0
10
62.809335781585901
20
-16.609756208728534
30
0
10
61.185133620651243
20
-19.010610542485505
30
0
10
60.523214697764807
20
-21.804181578060231
30
0
10
60.311041701073414
20
-22.699639190154912
30
0
10
60.200014613957919
20
-23.632106142258465
30
0
10
60.200014613957919
20
-24.574404405148638
30
0
0
LINE
5
131
100
AcDbEntity
8
0
100
AcDbLine
10
60.200014613957919
20
-24.574404405148638
30
0
11
60.200014613957897
21
-127.82415297421326
31
0
0
SPLINE
5
132
100
AcDbEntity
8
0
100
AcDbSpline
70
0
71
3
72
17
73
13
74
0
42
0.000000001
43
0.0000000001
44
0.0000000001
40
3
40
3
40
3
40
3
40
3.4055415420587054
40
3.4055415420587054
40
3.4055415420587054
40
3.8555159146769427
40
3.8555159146769427
40
3.8555159146769427
40
4
40
4
40
4
40
4.0000043027558609
40
4.0000043027558609
40
4.0000043027558609
40
4.0000043027558609
10
60.200014613957919
20
-127.82415297421326
30
0
10
60.200014613957919
20
-130.47378185948813
30
0
10
61.091667895119613
20
-133.0035079938589
30
0
10
62.580880479252244
20
-134.99898430021875
30
0
10
64.233257433875693
20
-137.2130933517123
30
0
10
66.633833373495037
20
-138.83785893489761
30
0
10
69.427355355939881
20
-139.50038767826197
30
0
10
70.324338591040316
20
-139.71312170337598
30
0
10
71.25848906817221
20
-139.8243602372535
30
0
10
72.202484269139035
20
-139.82416704822253
30
0
10
72.20249377654342
20
-139.82416704627684
30
0
10
72.20250328334879
20
-139.82416704433126
30
0
10
72.202512790155183
20
-139.82416704238571
30
0
0
LINE
5
133
100
AcDbEntity
8
0
100
AcDbLine
10
72.202512790155183
20
-139.82416704238571
30
0
11
212.3127691533723
21
-139.79475488918115
31
0
0
ARC
5
134
100
AcDbEntity
8
0
100
AcDbCircle
10
212.31234931040979
20
-137.79475493324821
30
0
40
1.9999999999999607
210
-0
220
0
230
1
100
AcDbArc
50
-89.987972385006472
51
0
0
LINE
5
135
100
AcDbEntity
8
0
100
AcDbLine
10
214.31234931040976
20
-137.79475493324816
30
0
11
214.31234931040996
21
-87.744267526321664
31
0
0
SPLINE
5
136
100
AcDbEntity
8
0
100
AcDbSpline
70
0
71
3
72
8
73
4
74
0
42
0.000000001
43
0.0000000001
44
0.0000000001
40
-14
40
-14
40
-14
40
-14
40
-13
40
-13
40
-13
40
-13
10
214.31234931040996
20
-87.744267526321664
30
0
10
214.31234931040996
20
-86.643991351048371
30
0
10
213.42360454099867
20
-85.750351497151271
30
0
10
212.32334496335113
20
-85.744308015691146
30
0
0
LINE
5
137
100
AcDbEntity
8
0
100
AcDbLine
10
212.32334496335113
20
-85.744308015691132
30
0
11
206.77650892677238
21
-85.713840477458234
31
0
0
SPLINE
5
138
100
AcDbEntity
8
0
100
AcDbSpline
70
0
71
3
72
8
73
4
74
0
42
0.000000001
43
0.0000000001
44
0.0000000001
40
-12
40
-12
40
-12
40
-12
40
-11
40
-11
40
-11
40
-11
10
206.77650892677238
20
-85.713840477458234
30
0
10
205.67624683420115
20
-85.707796982184874
30
0
10
204.78750003333749
20
-84.814155085645538
30
0
10
204.78750003333749
20
-83.713876395411205
30
0
0
LINE
5
139
100
AcDbEntity
8
0
100
AcDbLine
10
204.78750003333749
20
-83.713876395411191
30
0
11
204.78750003333749
21
-68.652909395085956
31
0
0
SPLINE
5
140
100
AcDbEntity
8
0
100
AcDbSpline
70
0
71
3
72
8
73
4
74
0
42
0.000000001
43
0.0000000001
44
0.0000000001
40
-10
40
-10
40
-10
40
-10
40
-9
40
-9
40
-9
40
-9
10
204.78750003333749
20
-68.652909395085956
30
0
10
204.78750003333749
20
-67.548347854443392
30
0
10
203.89207598505865
20
-66.65292380616458
30
0
10
202.78751444441608
20
-66.65292380616458
30
0
0
LINE
5
141
100
AcDbEntity
8
0
100
AcDbLine
10
202.78751444441608
20
-66.65292380616458
30
0
11
202.02500715410636
21
-66.65292380616458
31
0
0
SPLINE
5
142
100
AcDbEntity
8
0
100
AcDbSpline
70
0
71
3
72
8
73
4
74
0
42
0.000000001
43
0.0000000001
44
0.0000000001
40
-8
40
-8
40
-8
40
-8
40
-7
40
-7
40
-7
40
-7
10
202.02500715410636
20
-66.65292380616458
30
0
10
200.92043372175252
20
-66.65292380616458
30
0
10
200.02500003333751
20
-65.757490117749541
30
0
10
200.02500003333751
20
-64.652916685396363
30
0
0
LINE
5
143
100
AcDbEntity
8
0
100
AcDbLine
10
200.02500003333753
20
-64.652916685396363
30
0
11
200.02500003333751
21
-49.598484501290599
31
0
0
SPLINE
5
144
100
AcDbEntity
8
0
100
AcDbSpline
70
0
71
3
72
8
73
4
74
0
42
0.000000001
43
0.0000000001
44
0.0000000001
40
-6
40
-6
40
-6
40
-6
40
-5
40
-5
40
-5
40
-5
10
200.02500003333751
20
-49.598484501290599
30
0
10
200.02500003333751
20
-48.495652229150835
30
0
10
200.9177205209842
20
-47.600942696904539
30
0
10
202.02055006182053
20
-47.59848824572623
30
0
0
LINE
5
145
100
AcDbEntity
8
0
100
AcDbLine
10
202.02055006182053
20
-47.598488245726244
30
0
11
207.55446067147102
21
-47.586172005623709
31
0
0
SPLINE
5
146
100
AcDbEntity
8
0
100
AcDbSpline
70
0
71
3
72
8
73
4
74
0
42
0.000000001
43
0.0000000001
44
0.0000000001
40
-4
40
-4
40
-4
40
-4
40
-3
40
-3
40
-3
40
-3
10
207.55446067147102
20
-47.586172005623709
30
0
10
208.65728588289295
20
-47.583717564080828
30
0
10
209.55000224473056
20
-46.689010372758744
30
0
10
209.55000003332916
20
-45.586182430046577
30
0
0
LINE
5
147
100
AcDbEntity
8
0
100
AcDbLine
10
209.55000003332913
20
-45.586182430046563
30
0
11
209.54996587641057
21
-28.552090127436934
31
0
0
LINE
5
148
100
AcDbEntity
8
0
100
AcDbLine
10
209.54996587641057
20
-28.552090127436934
30
0
11
209.55000003333723
21
-28.55209012156573
31
0
0
LINE
5
149
100
AcDbEntity
8
0
100
AcDbLine
10
209.55000003333723
20
-28.55209012156573
30
0
11
209.55000003333723
21
-14.552384489462165
31
0
0
ARC
5
150
100
AcDbEntity
8
0
100
AcDbCircle
10
207.55000003333723
20
-14.552384489462142
30
0
40
1.9999999999999929
210
-0
220
0
230
1
100
AcDbArc
50
0
51
90.009315272711277
0
LINE
5
151
100
AcDbEntity
8
0
100
AcDbLine
10
207.54967486897959
20
-12.552384515895113
30
0
11
197.56899063630667
21
-12.554007197305054
31
0
0
ARC
5
152
100
AcDbEntity
8
0
100
AcDbCircle
10
197.5693158006643
20
-14.554007170872048
30
0
40
1.9999999999999576
210
0
220
0
230
1
100
AcDbArc
50
90.009315272711277
51
180
0
LINE
5
153
100
AcDbEntity
8
0
100
AcDbLine
10
195.56931580066433
20
-14.55400717087208
30
0
11
195.56931580066433
21
-27.540812142706788
31
0
0
CIRCLE
5
154
100
AcDbEntity
8
0
100
AcDbCircle
10
164.73593443919464
20
-21.559140886781005
30
0
40
1.625
210
0
220
-0
230
1
0
CIRCLE
5
155
100
AcDbEntity
8
0
100
AcDbCircle
10
123.11848101240942
20
-21.559140886781005
30
0
40
1.625
210
0
220
-0
230
1
0
LINE
5
156
100
AcDbEntity
8
0
100
AcDbLine
10
185.5446611525872
20
-21.559140886781005
30
0
11
185.54466111898395
21
-21.55887882073193
31
0
0
LINE
5
157
100
AcDbEntity
8
0
100
AcDbLine
10
185.54466111898395
20
-21.55887882073193
30
0
11
185.54352218980819
21
-14.553682032947455
31
0
0
ARC
5
158
100
AcDbEntity
8
0
100
AcDbCircle
10
183.54352221624117
20
-14.554007197305019
30
0
40
1.9999999999999509
210
0
220
-0
230
1
100
AcDbArc
50
0.0093152727300557098
51
90.00000000000081
0
LINE
5
159
100
AcDbEntity
8
0
100
AcDbLine
10
183.54352221624114
20
-12.554007197305069
30
0
11
104.30975429901679
21
-12.554007197305051
31
0
0
ARC
5
160
100
AcDbEntity
8
0
100
AcDbCircle
10
104.3097542990168
20
-14.554007197305026
30
0
40
1.9999999999999751
210
0
220
0
230
1
100
AcDbArc
50
90.000000000000398
51
180
0
LINE
5
161
100
AcDbEntity
8
0
100
AcDbLine
10
102.30975429901683
20
-14.554007197305005
30
0
11
102.30975429901683
21
-27.55215077553574
31
0
0
SPLINE
5
162
100
AcDbEntity
8
0
100
AcDbSpline
70
0
71
3
72
8
73
4
74
0
42
0.000000001
43
0.0000000001
44
0.0000000001
40
3
40
3
40
3
40
3
40
4
40
4
40
4
40
4
10
102.30975429901683
20
-27.55215077553574
30
0
10
102.30975429901683
20
-28.104434699072751
30
0
10
102.75746825962328
20
-28.552149606978769
30
0
10
103.30975218315905
20
-28.552150775532947
30
0
0
LINE
5
163
100
AcDbEntity
8
0
100
AcDbLine
10
103.30975218315905
20
-28.552150775532947
30
0
11
184.54465903672917
21
-28.552297266745637
31
0
0
SPLINE
5
164
100
AcDbEntity
8
0
100
AcDbSpline
70
0
71
3
72
8
73
4
74
0
42
0.000000001
43
0.0000000001
44
0.0000000001
40
5
40
5
40
5
40
5
40
6
40
6
40
6
40
6
10
184.54465903672917
20
-28.552297266745637
30
0
10
185.09694461285244
20
-28.552298435303367
30
0
10
185.5446611525872
20
-28.104582842872592
30
0
10
185.5446611525872
20
-27.552297266747825
30
0
0
LINE
5
165
100
AcDbEntity
8
0
100
AcDbLine
10
185.5446611525872
20
-27.552297266747821
30
0
11
185.5446611525872
21
-21.559140886781005
31
0
0
ENDSEC
0
SECTION
2
OBJECTS
0
DICTIONARY
5
C
100
AcDbDictionary
3
ACAD_GROUP
350
D
3
ACAD_MLINESTYLE
350
17
0
DICTIONARY
5
D
100
AcDbDictionary
0
DICTIONARY
5
1A
330
C
100
AcDbDictionary
0
DICTIONARY
5
17
100
AcDbDictionary
0
ENDSEC
0
EOF
