0
SECTION
2
HEADER
9
$INSUNITS
70
4
9
$ACADVER
1
AC1014
9
$HANDSEED
5
FFFF
0
ENDSEC
0
SECTION
2
TABLES
0
TABLE
2
VPORT
5
8
100
AcDbSymbolTable
0
ENDTAB
0
TABLE
2
LTYPE
5
5
100
AcDbSymbolTable
0
LTYPE
5
14
100
AcDbSymbolTableRecord
100
AcDbLinetypeTableRecord
2
BYBLOCK
70
0
0
LTYPE
5
15
100
AcDbSymbolTableRecord
100
AcDbLinetypeTableRecord
2
BYLAYER
70
0
0
ENDTAB
0
TABLE
2
LAYER
5
2
100
AcDbSymbolTable
70
2
0
LAYER
5
50
100
AcDbSymbolTableRecord
100
AcDbLayerTableRecord
2
0
70
0
6
CONTINUOUS
0
ENDTAB
0
TABLE
2
STYLE
5
3
100
AcDbSymbolTable
70
1
0
STYLE
5
11
100
AcDbSymbolTableRecord
100
AcDbTextStyleTableRecord
2
STANDARD
70
0
0
ENDTAB
0
TABLE
2
VIEW
5
6
100
AcDbSymbolTable
70
0
0
ENDTAB
0
TABLE
2
UCS
5
7
100
AcDbSymbolTable
70
0
0
ENDTAB
0
TABLE
2
APPID
5
9
100
AcDbSymbolTable
70
2
0
APPID
5
12
100
AcDbSymbolTableRecord
100
AcDbRegAppTableRecord
2
ACAD
70
0
0
ENDTAB
0
TABLE
2
DIMSTYLE
5
A
100
AcDbSymbolTable
70
1
0
ENDTAB
0
TABLE
2
BLOCK_RECORD
5
1
100
AcDbSymbolTable
70
1
0
BLOCK_RECORD
5
1F
100
AcDbSymbolTableRecord
100
AcDbBlockTableRecord
2
*MODEL_SPACE
0
BLOCK_RECORD
5
1B
100
AcDbSymbolTableRecord
100
AcDbBlockTableRecord
2
*PAPER_SPACE
0
ENDTAB
0
ENDSEC
0
SECTION
2
BLOCKS
0
BLOCK
5
20
100
AcDbEntity
100
AcDbBlockBegin
2
*MODEL_SPACE
0
ENDBLK
5
21
100
AcDbEntity
100
AcDbBlockEnd
0
BLOCK
5
1C
100
AcDbEntity
100
AcDbBlockBegin
2
*PAPER_SPACE
0
ENDBLK
5
1D
100
AcDbEntity
100
AcDbBlockEnd
0
ENDSEC
0
SECTION
2
ENTITIES
0
CIRCLE
5
100
100
AcDbEntity
8
0
100
AcDbCircle
10
-132.93270800215268
20
-130.94089227794763
30
0
40
1.6249999999999964
210
0
220
0
230
1
0
CIRCLE
5
101
100
AcDbEntity
8
0
100
AcDbCircle
10
5.0260290676968191
20
-20.430322547641158
30
0
40
1.6249999999999998
210
0
220
0
230
1
0
CIRCLE
5
102
100
AcDbEntity
8
0
100
AcDbCircle
10
-174.83711173349405
20
-22.299135392952895
30
0
40
1.6250000000000142
210
0
220
0
230
1
0
CIRCLE
5
103
100
AcDbEntity
8
0
100
AcDbCircle
10
-64.874962727578691
20
-130.94398580951952
30
0
40
1.6249999999999964
210
0
220
0
230
1
0
CIRCLE
5
104
100
AcDbEntity
8
0
100
AcDbCircle
10
-174.82543460346079
20
-128.8201212712296
30
0
40
1.6250000000000142
210
0
220
0
230
1
0
CIRCLE
5
105
100
AcDbEntity
8
0
100
AcDbCircle
10
-122.03995838829202
20
-20.674846267588141
30
0
40
1.6249999999999964
210
0
220
0
230
1
0
CIRCLE
5
106
100
AcDbEntity
8
0
100
AcDbCircle
10
-176.95843207705369
20
-75.31526317175522
30
0
40
1.6250000000000142
210
0
220
0
230
1
0
CIRCLE
5
107
100
AcDbEntity
8
0
100
AcDbCircle
10
5.0433413830711213
20
-130.93303179998085
30
0
40
1.6249999999999998
210
0
220
0
230
1
0
SPLINE
5
108
100
AcDbEntity
8
0
100
AcDbSpline
70
0
71
3
72
8
73
4
74
0
42
0.000000001
43
0.0000000001
44
0.0000000001
40
48
40
48
40
48
40
48
40
49
40
49
40
49
40
49
10
16.779008317823383
20
-86.860073931843814
30
0
10
16.779008317823383
20
-85.759796561242098
30
0
10
15.890259810015976
20
-84.866160324215144
30
0
10
14.790003971261179
20
-84.860109875269231
30
0
0
LINE
5
109
100
AcDbEntity
8
0
100
AcDbLine
10
14.790003971261179
20
-84.860109875269231
30
0
11
9.2431633896942245
21
-84.829642312071513
31
0
0
SPLINE
5
110
100
AcDbEntity
8
0
100
AcDbSpline
70
0
71
3
72
8
73
4
74
0
42
0.000000001
43
0.0000000001
44
0.0000000001
40
1
40
1
40
1
40
1
40
2
40
2
40
2
40
2
10
9.2431633896942245
20
-84.829642312071513
30
0
10
8.1428860190925789
20
-84.823591863125529
30
0
10
7.2541590431320913
20
-83.929955626098518
30
0
10
7.2541590431320913
20
-82.82967825549683
30
0
0
LINE
5
111
100
AcDbEntity
8
0
100
AcDbLine
10
7.2541590431320913
20
-82.82967825549683
30
0
11
7.2541590431320913
21
-67.768711258936492
31
0
0
SPLINE
5
112
100
AcDbEntity
8
0
100
AcDbSpline
70
0
71
3
72
8
73
4
74
0
42
0.000000001
43
0.0000000001
44
0.0000000001
40
3
40
3
40
3
40
3
40
4
40
4
40
4
40
4
10
7.2541590431320913
20
-67.768711258936492
30
0
10
7.2541590431320913
20
-66.664149050825117
30
0
10
6.3587141309752582
20
-65.76872567051511
30
0
10
5.25417345471066
20
-65.76872567051511
30
0
0
LINE
5
113
100
AcDbEntity
8
0
100
AcDbLine
10
5.2541734547106591
20
-65.76872567051511
30
0
11
4.4916661645908817
21
-65.76872567051511
31
0
0
SPLINE
5
114
100
AcDbEntity
8
0
100
AcDbSpline
70
0
71
3
72
8
73
4
74
0
42
0.000000001
43
0.0000000001
44
0.0000000001
40
5
40
5
40
5
40
5
40
6
40
6
40
6
40
6
10
4.4916661645908817
20
-65.76872567051511
30
0
10
3.3870824246326947
20
-65.76872567051511
30
0
10
2.4916590443226738
20
-64.873302290205118
30
0
10
2.4916590443226738
20
-63.768718550246923
30
0
0
LINE
5
115
100
AcDbEntity
8
0
100
AcDbLine
10
2.4916590443226743
20
-63.768718550246923
30
0
11
2.4916590443226738
21
-48.714275703261869
31
0
0
SPLINE
5
116
100
AcDbEntity
8
0
100
AcDbSpline
70
0
71
3
72
8
73
4
74
0
42
0.000000001
43
0.0000000001
44
0.0000000001
40
7
40
7
40
7
40
7
40
8
40
8
40
8
40
8
10
2.4916590443226738
20
-48.714275703261869
30
0
10
2.4916590443226738
20
-47.611457574739688
30
0
10
3.384369411938053
20
-46.716744745373617
30
0
10
4.4871875404600914
20
-46.714290114840331
30
0
0
LINE
5
117
100
AcDbEntity
8
0
100
AcDbLine
10
4.4871875404600914
20
-46.714290114840331
30
0
11
10.021109013957243
21
-46.701973898480631
31
0
0
SPLINE
5
118
100
AcDbEntity
8
0
100
AcDbSpline
70
0
71
3
72
8
73
4
74
0
42
0.000000001
43
0.0000000001
44
0.0000000001
40
9
40
9
40
9
40
9
40
10
40
10
40
10
40
10
10
10.021109013957243
20
-46.701973898480631
30
0
10
11.123948674326094
20
-46.699519267947345
30
0
10
12.016659041941438
20
-45.804806438581096
30
0
10
12.016659041941438
20
-44.701988310059093
30
0
0
SPLINE
5
119
100
AcDbEntity
8
0
100
AcDbSpline
70
0
71
3
72
8
73
4
74
0
42
0.000000001
43
0.0000000001
44
0.0000000001
40
10
40
10
40
10
40
10
40
11
40
11
40
11
40
11
10
12.016659041941438
20
-44.701988310059093
30
0
10
12.016659041941438
20
-44.701938310059077
30
0
10
12.016659041941438
20
-21.668187554912599
30
0
10
12.016917424102864
20
-21.668187554912599
30
0
0
SPLINE
5
120
100
AcDbEntity
8
0
100
AcDbSpline
70
0
71
3
72
8
73
4
74
0
42
0.000000001
43
0.0000000001
44
0.0000000001
40
11
40
11
40
11
40
11
40
11.010997740645934
40
11.010997740645934
40
11.010997740645934
40
11.010997740645934
10
12.016917424102864
20
-21.668187554912599
30
0
10
12.016917424102864
20
-21.656038445410491
30
0
10
12.016809098938451
20
-21.64391463912505
30
0
10
12.016593361835321
20
-21.631817049167417
30
0
0
LINE
5
121
100
AcDbEntity
8
0
100
AcDbLine
10
12.016593361835323
20
-21.631817049167417
30
0
11
12.016640300024708
21
-13.668101722791784
31
0
0
ARC
5
122
100
AcDbEntity
8
0
100
AcDbCircle
10
10.016640300059439
20
-13.668089934778923
30
0
40
2.0000000000000089
210
-0
220
0
230
1
100
AcDbArc
50
-0.00033770174505019882
51
90.006890685836993
0
LINE
5
123
100
AcDbEntity
8
0
100
AcDbLine
10
10.016399769748867
20
-11.668089949242621
30
0
11
0.036070309559593783
21
-11.669290235123682
31
0
0
ARC
5
124
100
AcDbEntity
8
0
100
AcDbCircle
10
0.0363108398701735
20
-13.669290220659974
30
0
40
1.9999999999999993
210
0
220
0
230
1
100
AcDbArc
50
90.00689068583722
51
180
0
LINE
5
125
100
AcDbEntity
8
0
100
AcDbLine
10
-1.9636891601298259
20
-13.669290220659974
30
0
11
-1.9636891601298245
21
-26.668119228196012
31
0
0
SPLINE
5
126
100
AcDbEntity
8
0
100
AcDbSpline
70
0
71
3
72
8
73
4
74
0
42
0.000000001
43
0.0000000001
44
0.0000000001
40
15
40
15
40
15
40
15
40
16
40
16
40
16
40
16
10
-1.9636891601298245
20
-26.668119228196012
30
0
10
-1.9636891601298245
20
-27.220411098175212
30
0
10
-1.5159774699749207
20
-27.668122788330116
30
0
10
-0.96370713184253276
20
-27.668122788330116
30
0
0
LINE
5
127
100
AcDbEntity
8
0
100
AcDbLine
10
-0.96370713184253287
20
-27.668122788330113
30
0
11
8.0169462472599662
21
-27.668187383870517
31
0
0
SPLINE
5
128
100
AcDbEntity
8
0
100
AcDbSpline
70
0
71
3
72
8
73
4
74
0
42
0.000000001
43
0.0000000001
44
0.0000000001
40
17
40
17
40
17
40
17
40
18
40
18
40
18
40
18
10
8.0169462472599662
20
-27.668187383870517
30
0
10
9.1215299872181888
20
-27.668208915717329
30
0
10
10.016953367528174
20
-28.563653827874127
30
0
10
10.016931835681362
20
-29.66823756783235
30
0
0
LINE
5
129
100
AcDbEntity
8
0
100
AcDbLine
10
10.01693183568136
20
-29.668237567832353
30
0
11
10.016608857979641
21
-42.706395218381452
31
0
0
SPLINE
5
130
100
AcDbEntity
8
0
100
AcDbSpline
70
0
71
3
72
8
73
4
74
0
42
0.000000001
43
0.0000000001
44
0.0000000001
40
19
40
19
40
19
40
19
40
20
40
20
40
20
40
20
10
10.016608857979641
20
-42.706395218381452
30
0
10
10.016608857979641
20
-43.809234878750196
30
0
10
9.1238554266706728
20
-44.703969239963115
30
0
10
8.0210157663018933
20
-44.706402338649625
30
0
0
LINE
5
131
100
AcDbEntity
8
0
100
AcDbLine
10
8.0210157663018933
20
-44.706402338649625
30
0
11
2.4871588883450713
21
-44.718632427622218
31
0
0
SPLINE
5
132
100
AcDbEntity
8
0
100
AcDbSpline
70
0
71
3
72
8
73
4
74
0
42
0.000000001
43
0.0000000001
44
0.0000000001
40
21
40
21
40
21
40
21
40
22
40
22
40
22
40
22
10
2.4871588883450713
20
-44.718632427622218
30
0
10
1.3843407598231039
20
-44.721065526308728
30
0
10
0.49160886036087703
20
-45.615778355674834
30
0
10
0.49160886036087703
20
-46.71861801604372
30
0
0
LINE
5
133
100
AcDbEntity
8
0
100
AcDbLine
10
0.49160886036087681
20
-46.718618016043727
30
0
11
0.49160886036087703
21
-65.768618011281191
31
0
0
SPLINE
5
134
100
AcDbEntity
8
0
100
AcDbSpline
70
0
71
3
72
8
73
4
74
0
42
0.000000001
43
0.0000000001
44
0.0000000001
40
23
40
23
40
23
40
23
40
24
40
24
40
24
40
24
10
0.49160886036087703
20
-65.768618011281191
30
0
10
0.49160886036087703
20
-66.873201751239421
30
0
10
1.3870322406708269
20
-67.768625131549413
30
0
10
2.491615980629156
20
-67.768625131549413
30
0
0
LINE
5
135
100
AcDbEntity
8
0
100
AcDbLine
10
2.491615980629156
20
-67.768625131549413
30
0
11
3.2541017389020865
21
-67.768625131549413
31
0
0
SPLINE
5
136
100
AcDbEntity
8
0
100
AcDbSpline
70
0
71
3
72
8
73
4
74
0
42
0.000000001
43
0.0000000001
44
0.0000000001
40
25
40
25
40
25
40
25
40
26
40
26
40
26
40
26
10
3.2541017389020865
20
-67.768625131549413
30
0
10
4.3586639470134969
20
-67.768625131549413
30
0
10
5.2541088591702589
20
-68.66404851185942
30
0
10
5.2541088591702589
20
-69.768632251817621
30
0
0
LINE
5
137
100
AcDbEntity
8
0
100
AcDbLine
10
5.2541088591702589
20
-69.768632251817621
30
0
11
5.2541088591702589
21
-84.849085569716323
31
0
0
SPLINE
5
138
100
AcDbEntity
8
0
100
AcDbSpline
70
0
71
3
72
8
73
4
74
0
42
0.000000001
43
0.0000000001
44
0.0000000001
40
28
40
28
40
28
40
28
40
29
40
29
40
29
40
29
10
5.2541088591702589
20
-84.849085569716323
30
0
10
5.2541088591702589
20
-85.953669309674638
30
0
10
6.1495322394802798
20
-86.849092689984644
30
0
10
7.2541159794384669
20
-86.849092689984644
30
0
0
LINE
5
139
100
AcDbEntity
8
0
100
AcDbLine
10
7.2541159794384669
20
-86.849092689984644
30
0
11
12.789867659912169
21
-86.849092689984644
31
0
0
SPLINE
5
140
100
AcDbEntity
8
0
100
AcDbSpline
70
0
71
3
72
8
73
4
74
0
42
0.000000001
43
0.0000000001
44
0.0000000001
40
30
40
30
40
30
40
30
40
31
40
31
40
31
40
31
10
12.789867659912169
20
-86.849092689984644
30
0
10
13.890145030513885
20
-86.855100075237019
30
0
10
14.778936602014774
20
-87.748757844110798
30
0
10
14.778936602014774
20
-88.849056746559199
30
0
0
LINE
5
141
100
AcDbEntity
8
0
100
AcDbLine
10
14.778936602014774
20
-88.849056746559199
30
0
11
14.778936602014774
21
-120.91846015379802
31
0
0
SPLINE
5
142
100
AcDbEntity
8
0
100
AcDbSpline
70
0
71
3
72
8
73
4
74
0
42
0.000000001
43
0.0000000001
44
0.0000000001
40
32
40
32
40
32
40
32
40
33
40
33
40
33
40
33
10
14.778936602014774
20
-120.91846015379802
30
0
10
14.778936602014774
20
-122.02293623452233
30
0
10
13.883642412785413
20
-122.91831655113874
30
0
10
12.779166332061145
20
-122.91844574221942
30
0
0
LINE
5
143
100
AcDbEntity
8
0
100
AcDbLine
10
12.779166332061147
20
-122.91844574221942
30
0
11
-166.958096942232
21
-122.94023597116363
31
0
0
SPLINE
5
144
100
AcDbEntity
8
0
100
AcDbSpline
70
0
71
3
72
14
73
10
74
0
42
0.000000001
43
0.0000000001
44
0.0000000001
40
34
40
34
40
34
40
34
40
35
40
35
40
35
40
36
40
36
40
36
40
37
40
37
40
37
40
37
10
-166.958096942232
20
-122.94023597116363
30
0
10
-168.06276680957734
20
-122.9403651622443
30
0
10
-168.95834180512395
20
-122.04739641246678
30
0
10
-168.95834091281483
20
-120.94274807696902
30
0
10
-168.95833014689146
20
-107.61490095979532
30
0
10
-168.95834091281483
20
-47.538249295678199
30
0
10
-168.95834091281483
20
-29.665976723920124
30
0
10
-168.95834091281483
20
-28.561414515808679
30
0
10
-168.06291753250485
20
-27.667885938015537
30
0
10
-166.95835532439338
20
-27.667885938015537
30
0
0
LINE
5
145
100
AcDbEntity
8
0
100
AcDbLine
10
-166.95835532439338
20
-27.667885938015537
30
0
11
-110.34260352105603
21
-27.66790746986235
31
0
0
SPLINE
5
146
100
AcDbEntity
8
0
100
AcDbSpline
70
0
71
3
72
8
73
4
74
0
42
0.000000001
43
0.0000000001
44
0.0000000001
40
38
40
38
40
38
40
38
40
39
40
39
40
39
40
39
10
-110.34260352105603
20
-27.66790746986235
30
0
10
-109.79033318292365
20
-27.66790746986235
30
0
10
-109.34259996092183
20
-27.220195779707375
30
0
10
-109.34259996092183
20
-26.66790390972821
30
0
0
LINE
5
147
100
AcDbEntity
8
0
100
AcDbLine
10
-109.34259996092183
20
-26.66790390972821
30
0
11
-109.34259996092183
21
-13.690095668530995
31
0
0
ARC
5
148
100
AcDbEntity
8
0
100
AcDbCircle
10
-111.34259996092183
20
-13.690095668530983
30
0
40
1.9999999999999929
210
-0
220
0
230
1
100
AcDbArc
50
0
51
90
0
LINE
5
149
100
AcDbEntity
8
0
100
AcDbLine
10
-111.34259996092183
20
-11.69009566853099
30
0
11
-172.96028267913354
21
-11.690095668530995
31
0
0
SPLINE
5
150
100
AcDbEntity
8
0
100
AcDbSpline
70
0
71
3
72
14
73
10
74
0
42
0.000000001
43
0.0000000001
44
0.0000000001
40
6
40
6
40
6
40
6
40
6.4056917656224739
40
6.4056917656224739
40
6.4056917656224739
40
6.8557403904304559
40
6.8557403904304559
40
6.8557403904304559
40
7
40
7
40
7
40
7
10
-172.96028267913354
20
-11.690095668530995
30
0
10
-175.61024639188565
20
-11.690508966571835
30
0
10
-178.14012234800944
20
-12.582770069649117
30
0
10
-180.1355278033684
20
-14.072665949882882
30
0
10
-182.34910361933487
20
-15.725461616014936
30
0
10
-183.97330578013316
20
-18.126315949571357
30
0
10
-184.63522470296408
20
-20.919886984913969
30
0
10
-184.84739769963753
20
-21.815344596933684
30
0
10
-184.95842478674354
20
-22.747811548959085
30
0
10
-184.95842478674354
20
-23.690109811768814
30
0
0
LINE
5
151
100
AcDbEntity
8
0
100
AcDbLine
10
-184.95842478674351
20
-23.690109811768814
30
0
11
-184.95842478674354
21
-126.93985835502041
31
0
0
SPLINE
5
152
100
AcDbEntity
8
0
100
AcDbSpline
70
0
71
3
72
14
73
10
74
0
42
0.000000001
43
0.0000000001
44
0.0000000001
40
8
40
8
40
8
40
8
40
8.4055415420585824
40
8.4055415420585824
40
8.4055415420585824
40
8.855515914676829
40
8.855515914676829
40
8.855515914676829
40
9
40
9
40
9
40
9
10
-184.95842478674354
20
-126.93985835502041
30
0
10
-184.95842478674354
20
-129.58948724007047
30
0
10
-184.06677150565594
20
-132.11921337423396
30
0
10
-182.57755892164855
20
-134.11468968042666
30
0
10
-180.92518196716355
20
-136.32879873173547
30
0
10
-178.52460602774516
20
-137.95356431478555
30
0
10
-175.73108404553236
20
-138.61609305809549
30
0
10
-174.83410081050573
20
-138.82882708319221
30
0
10
-173.89995033345056
20
-138.94006561706061
30
0
10
-172.95595513256279
20
-138.93987242802967
30
0
0
LINE
5
153
100
AcDbEntity
8
0
100
AcDbLine
10
-172.95595513256279
20
-138.93987242802967
30
0
11
14.778995628173881
21
-138.91045994081057
31
0
0
ARC
5
154
100
AcDbEntity
8
0
100
AcDbCircle
10
14.778995628173885
20
-136.9104599408106
30
0
40
1.9999999999999751
210
0
220
0
230
1
100
AcDbArc
50
-90.000000000000099
51
0.00036352915899330915
0
LINE
5
155
100
AcDbEntity
8
0
100
AcDbLine
10
16.778995628133604
20
-136.9104472512013
30
0
11
16.77894497184435
21
-128.92654668331335
31
0
0
SPLINE
5
156
100
AcDbEntity
8
0
100
AcDbSpline
70
0
71
3
72
8
73
4
74
0
42
0.000000001
43
0.0000000001
44
0.0000000001
40
46.995171853835764
40
46.995171853835764
40
46.995171853835764
40
46.995171853835764
40
47
40
47
40
47
40
47
10
16.778945793461336
20
-128.92654668971181
30
0
10
16.778987450636244
20
-128.92122435526619
30
0
10
16.779008317823383
20
-128.91589707137183
30
0
10
16.779008317823383
20
-128.91056491525481
30
0
0
LINE
5
157
100
AcDbEntity
8
0
100
AcDbLine
10
16.779008317823383
20
-128.91056491525481
30
0
11
16.779008317823383
21
-86.860073931843814
31
0
0
CIRCLE
5
158
100
AcDbEntity
8
0
100
AcDbCircle
10
-32.797417306921432
20
-20.179077665280701
30
0
40
1.6250000000000009
210
0
220
0
230
1
0
CIRCLE
5
159
100
AcDbEntity
8
0
100
AcDbCircle
10
-74.414870723302215
20
-20.179041042477699
30
0
40
1.6250000000000053
210
0
220
0
230
1
0
LINE
5
160
100
AcDbEntity
8
0
100
AcDbLine
10
-95.223597431492607
20
-13.690095668530988
30
0
11
-95.223597431492607
21
-26.66794979362141
31
0
0
SPLINE
5
161
100
AcDbEntity
8
0
100
AcDbSpline
70
0
71
3
72
8
73
4
74
0
42
0.000000001
43
0.0000000001
44
0.0000000001
40
3
40
3
40
3
40
3
40
4
40
4
40
4
40
4
10
-95.223597431492607
20
-26.66794979362141
30
0
10
-95.223597431492607
20
-27.220233717020008
30
0
10
-94.775883470997826
20
-27.66794862481472
30
0
10
-94.223599547600458
20
-27.667949793368898
30
0
0
LINE
5
162
100
AcDbEntity
8
0
100
AcDbLine
10
-94.223599547600458
20
-27.667949793368898
30
0
11
-12.988692714338939
21
-27.668096284581196
31
0
0
SPLINE
5
163
100
AcDbEntity
8
0
100
AcDbSpline
70
0
71
3
72
8
73
4
74
0
42
0.000000001
43
0.0000000001
44
0.0000000001
40
5
40
5
40
5
40
5
40
6
40
6
40
6
40
6
10
-12.988692714338939
20
-27.668096284581196
30
0
10
-12.436407138353935
20
-27.668097453138927
30
0
10
-11.98869059873104
20
-27.220381860820098
30
0
10
-11.98869059873104
20
-26.668096284833425
30
0
0
LINE
5
164
100
AcDbEntity
8
0
100
AcDbLine
10
-11.98869059873104
20
-26.668096284833421
30
0
11
-11.988690598731038
21
-13.690095668530981
31
0
0
ARC
5
165
100
AcDbEntity
8
0
100
AcDbCircle
10
-13.988690598731033
20
-13.690095668530983
30
0
40
1.9999999999999951
210
0
220
-0
230
1
100
AcDbArc
50
0
51
90
0
LINE
5
166
100
AcDbEntity
8
0
100
AcDbLine
10
-13.988690598731033
20
-11.690095668530988
30
0
11
-93.223597431492621
21
-11.690095668530985
31
0
0
ARC
5
167
100
AcDbEntity
8
0
100
AcDbCircle
10
-93.223597431492621
20
-13.690095668530978
30
0
40
1.9999999999999929
210
0
220
-0
230
1
100
AcDbArc
50
90
51
180
0
ENDSEC
0
SECTION
2
OBJECTS
0
DICTIONARY
5
C
100
AcDbDictionary
3
ACAD_GROUP
350
D
3
ACAD_MLINESTYLE
350
17
0
DICTIONARY
5
D
100
AcDbDictionary
0
DICTIONARY
5
1A
330
C
100
AcDbDictionary
0
DICTIONARY
5
17
100
AcDbDictionary
0
ENDSEC
0
EOF
