0
SECTION
2
HEADER
9
$INSUNITS
70
4
9
$ACADVER
1
AC1014
9
$HANDSEED
5
FFFF
0
ENDSEC
0
SECTION
2
TABLES
0
TABLE
2
VPORT
5
8
100
AcDbSymbolTable
0
ENDTAB
0
TABLE
2
LTYPE
5
5
100
AcDbSymbolTable
0
LTYPE
5
14
100
AcDbSymbolTableRecord
100
AcDbLinetypeTableRecord
2
BYBLOCK
70
0
0
LTYPE
5
15
100
AcDbSymbolTableRecord
100
AcDbLinetypeTableRecord
2
BYLAYER
70
0
0
ENDTAB
0
TABLE
2
LAYER
5
2
100
AcDbSymbolTable
70
2
0
LAYER
5
50
100
AcDbSymbolTableRecord
100
AcDbLayerTableRecord
2
0
70
0
6
CONTINUOUS
0
ENDTAB
0
TABLE
2
STYLE
5
3
100
AcDbSymbolTable
70
1
0
STYLE
5
11
100
AcDbSymbolTableRecord
100
AcDbTextStyleTableRecord
2
STANDARD
70
0
0
ENDTAB
0
TABLE
2
VIEW
5
6
100
AcDbSymbolTable
70
0
0
ENDTAB
0
TABLE
2
UCS
5
7
100
AcDbSymbolTable
70
0
0
ENDTAB
0
TABLE
2
APPID
5
9
100
AcDbSymbolTable
70
2
0
APPID
5
12
100
AcDbSymbolTableRecord
100
AcDbRegAppTableRecord
2
ACAD
70
0
0
ENDTAB
0
TABLE
2
DIMSTYLE
5
A
100
AcDbSymbolTable
70
1
0
ENDTAB
0
TABLE
2
BLOCK_RECORD
5
1
100
AcDbSymbolTable
70
1
0
BLOCK_RECORD
5
1F
100
AcDbSymbolTableRecord
100
AcDbBlockTableRecord
2
*MODEL_SPACE
0
BLOCK_RECORD
5
1B
100
AcDbSymbolTableRecord
100
AcDbBlockTableRecord
2
*PAPER_SPACE
0
ENDTAB
0
ENDSEC
0
SECTION
2
BLOCKS
0
BLOCK
5
20
100
AcDbEntity
100
AcDbBlockBegin
2
*MODEL_SPACE
0
ENDBLK
5
21
100
AcDbEntity
100
AcDbBlockEnd
0
BLOCK
5
1C
100
AcDbEntity
100
AcDbBlockBegin
2
*PAPER_SPACE
0
ENDBLK
5
1D
100
AcDbEntity
100
AcDbBlockEnd
0
ENDSEC
0
SECTION
2
ENTITIES
0
CIRCLE
5
100
100
AcDbEntity
8
0
100
AcDbCircle
10
-132.93270800215268
20
-130.94089227794763
30
0
40
1.6249999999999964
210
0
220
0
230
1
0
CIRCLE
5
101
100
AcDbEntity
8
0
100
AcDbCircle
10
-32.797417306921432
20
-20.179077665280701
30
0
40
1.6250000000000009
210
0
220
0
230
1
0
CIRCLE
5
102
100
AcDbEntity
8
0
100
AcDbCircle
10
-174.83711173349405
20
-22.299135392952895
30
0
40
1.6250000000000142
210
0
220
0
230
1
0
CIRCLE
5
103
100
AcDbEntity
8
0
100
AcDbCircle
10
5.0260290676968191
20
-20.430322547641158
30
0
40
1.6249999999999998
210
0
220
0
230
1
0
CIRCLE
5
104
100
AcDbEntity
8
0
100
AcDbCircle
10
-174.82543460346079
20
-128.8201212712296
30
0
40
1.6250000000000142
210
0
220
0
230
1
0
CIRCLE
5
105
100
AcDbEntity
8
0
100
AcDbCircle
10
-64.874962727578691
20
-130.94398580951952
30
0
40
1.6249999999999964
210
0
220
0
230
1
0
CIRCLE
5
106
100
AcDbEntity
8
0
100
AcDbCircle
10
-74.414870723302215
20
-20.179041042477699
30
0
40
1.6250000000000053
210
0
220
0
230
1
0
CIRCLE
5
107
100
AcDbEntity
8
0
100
AcDbCircle
10
-122.03995838829202
20
-20.674846267588141
30
0
40
1.6249999999999964
210
0
220
0
230
1
0
CIRCLE
5
108
100
AcDbEntity
8
0
100
AcDbCircle
10
5.0433413830711213
20
-130.93303179998085
30
0
40
1.6249999999999998
210
0
220
0
230
1
0
CIRCLE
5
109
100
AcDbEntity
8
0
100
AcDbCircle
10
-176.95843207705369
20
-75.31526317175522
30
0
40
1.6250000000000142
210
0
220
0
230
1
0
LWPOLYLINE
5
110
100
AcDbEntity
8
0
100
AcDbPolyline
90
34
70
1
43
0.0
10
2.2966394949007451
20
-120.41663617741266
10
2.2966394949007451
20
-122.35696896132333
42
0.41421356237307344
10
3.2966394949007594
20
-123.35696896132335
10
10.482625597735122
20
-123.35696896132335
42
0.41421356237307355
10
11.482625597735133
20
-122.35696896132333
10
11.482625597735243
20
-120.41663617741266
10
11.872905480366924
20
-120.41663617741229
10
11.872905480366924
20
-106.41662939572825
10
11.536356134841554
20
-106.41662939572855
10
11.555231832184418
20
-101.3666292356754
10
14.254152068652672
20
-101.36662923567511
10
14.254152068652672
20
-87.3666292321752
10
0.25415206515340572
20
-87.3666292321752
10
0.25415206515340572
20
-101.36662923567511
10
-4.795847931347339
20
-101.36662923567511
10
-4.795847931347339
20
-87.3666292321752
10
-18.795847934846535
20
-87.3666292321752
10
-18.795847934846535
20
-101.36662923567511
10
-18.795238428399088
20
-101.74335112541164
10
-19.855886386123416
20
-101.74506717055533
42
0.41483458089567204
10
-20.854261481374429
20
-102.74880359734489
10
-20.840552022467023
20
-106.41662939572855
10
-37.027598059671512
20
-106.41662939572825
10
-37.027598059671512
20
-105.41662583534411
10
-43.777595177456519
20
-105.41662583534411
10
-43.777595177456519
20
-106.41662939572825
10
-44.989601301317172
20
-106.41662939572825
10
-44.989601301317172
20
-120.41663617741229
10
-20.786821485360676
20
-120.41663617741266
10
-20.786821485360676
20
-122.35696896132333
42
0.41421356237307294
10
-19.786821485360662
20
-123.35696896132335
10
-12.600835382526299
20
-123.35696896132335
42
0.41421356237307355
10
-11.600835382526288
20
-122.35696896132333
10
-11.600835382526284
20
-120.41663617741266
0
LWPOLYLINE
5
111
100
AcDbEntity
8
0
100
AcDbPolyline
90
28
70
1
43
0.0
10
-106.85083538252616
20
-87.366625835343598
10
-106.85083538252616
20
-85.426293051432921
42
0.41421356237309503
10
-107.85083538252616
20
-84.426293051432921
10
-115.03682148536066
20
-84.426293051432921
42
0.41421356237309503
10
-116.03682148536066
20
-85.426293051432921
10
-116.03682148536066
20
-87.366625835343598
10
-116.42710130131715
20
-87.366625835343939
10
-116.42710130131715
20
-101.36663261702796
10
-116.09055202246682
20
-101.36663261702763
10
-116.10942769386327
20
-106.41662583534361
10
-116.42710130131715
20
-106.41662583534395
10
-116.42710130131715
20
-120.41663261702797
10
-100.04584451963312
20
-120.41663261702797
10
-100.04584451963312
20
-106.41662583534395
10
-94.995851301317145
20
-106.41662583534395
10
-94.995851301317145
20
-120.41663261702797
10
-76.23334451963315
20
-120.41663261702797
10
-76.23334451963315
20
-106.41662583534395
10
-83.694768193762172
20
-106.41662583534361
10
-83.713643865158218
20
-101.36663261702763
10
-80.995844519633152
20
-101.36663261702796
10
-80.995844519633152
20
-87.366625835343939
10
-83.767374402264721
20
-87.366625835343598
10
-83.767374402264636
20
-85.426293051432921
42
0.41421356237309503
10
-84.767374402264636
20
-84.426293051432921
10
-91.953360505099141
20
-84.426293051432921
42
0.41421356237309503
10
-92.953360505099141
20
-85.426293051432921
10
-92.953360505099113
20
-87.366625835343598
0
LWPOLYLINE
5
112
100
AcDbEntity
8
0
100
AcDbPolyline
90
4
70
1
43
0.0
10
-152.43334795396885
20
-82.316629230912383
10
-152.43334795396888
20
-68.316629227412534
10
-166.43334795746904
20
-68.316629227412534
10
-166.43334795746904
20
-82.316629230912383
0
LWPOLYLINE
5
113
100
AcDbEntity
8
0
100
AcDbPolyline
90
4
70
1
43
0.0
10
-166.43334795746904
20
-49.266629222649847
10
-166.43334795746904
20
-63.266629226150343
10
-152.43334795396885
20
-63.266629226150343
10
-152.43334795396888
20
-49.266629222649847
0
LWPOLYLINE
5
114
100
AcDbEntity
8
0
100
AcDbPolyline
90
4
70
1
43
0.0
10
-52.42084451963315
20
-106.41662583534395
10
-68.802101301317151
20
-106.41662583534395
10
-68.802101301317151
20
-120.41663261702797
10
-52.42084451963315
20
-120.41663261702797
0
LWPOLYLINE
5
115
100
AcDbEntity
8
0
100
AcDbPolyline
90
4
70
1
43
0.0
10
-152.43334795396885
20
-45.71662922138762
10
-152.43334795396888
20
-29.216629217887338
10
-166.43334795746904
20
-29.216629217887338
10
-166.43334795746904
20
-45.71662922138762
0
LWPOLYLINE
5
116
100
AcDbEntity
8
0
100
AcDbPolyline
90
4
70
1
43
0.0
10
-66.420847937228558
20
-68.316629227412534
10
-66.420847937228558
20
-82.316629230912383
10
-52.420847933728076
20
-82.316629230912383
10
-52.420847933728076
20
-68.316629227412534
0
LWPOLYLINE
5
117
100
AcDbEntity
8
0
100
AcDbPolyline
90
4
70
1
43
0.0
10
-42.895847931347362
20
-101.36662923567511
10
-42.895847931347362
20
-87.3666292321752
10
-56.895847934846557
20
-87.3666292321752
10
-56.895847934846557
20
-101.36662923567511
0
LWPOLYLINE
5
118
100
AcDbEntity
8
0
100
AcDbPolyline
90
4
70
1
43
0.0
10
4.7291520662718867
20
-82.316629230912383
10
4.7291520662718867
20
-68.316629227412534
10
-9.2708479372285524
20
-68.316629227412534
10
-9.2708479372285524
20
-82.316629230912383
0
LWPOLYLINE
5
119
100
AcDbEntity
8
0
100
AcDbPolyline
90
4
70
1
43
0.0
10
-47.37084793722854
20
-82.316629230912383
10
-33.370847933728065
20
-82.316629230912383
10
-33.370847933728065
20
-68.316629227412534
10
-47.37084793722854
20
-68.316629227412534
0
LWPOLYLINE
5
120
100
AcDbEntity
8
0
100
AcDbPolyline
90
4
70
1
43
0.0
10
-23.84584793134735
20
-87.3666292321752
10
-37.845847934846581
20
-87.3666292321752
10
-37.845847934846581
20
-101.36662923567511
10
-23.84584793134735
20
-101.36662923567511
0
LWPOLYLINE
5
121
100
AcDbEntity
8
0
100
AcDbPolyline
90
4
70
1
43
0.0
10
-19.083347934919033
20
-49.266629222649847
10
-33.083347938418903
20
-49.266629222649847
10
-33.083347938418903
20
-63.266629226150343
10
-19.083347934919033
20
-63.266629226150343
0
LWPOLYLINE
5
122
100
AcDbEntity
8
0
100
AcDbPolyline
90
4
70
1
43
0.0
10
-116.42710130131715
20
-82.316632617027977
10
-97.664594519633127
20
-82.316632617027977
10
-97.664594519633127
20
-68.316625835343942
10
-116.42710130131715
20
-68.316625835343942
0
LWPOLYLINE
5
123
100
AcDbEntity
8
0
100
AcDbPolyline
90
4
70
1
43
0.0
10
-0.033347934919021327
20
-49.266629222649847
10
-14.033347938418892
20
-49.266629222649847
10
-14.033347938418892
20
-63.266629226150343
10
-0.033347934919021327
20
-63.266629226150343
0
LWPOLYLINE
5
124
100
AcDbEntity
8
0
100
AcDbPolyline
90
4
70
1
43
0.0
10
-71.470847933728066
20
-68.316629227412534
10
-85.470847937228228
20
-68.316629227412534
10
-85.470847937228228
20
-82.316629230912383
10
-71.470847933728066
20
-82.316629230912383
0
LWPOLYLINE
5
125
100
AcDbEntity
8
0
100
AcDbPolyline
90
4
70
1
43
0.0
10
-66.708347942062431
20
-44.216629221387663
10
-66.708347942062431
20
-30.216629217887458
10
-80.708347945562608
20
-30.216629217887458
10
-80.708347945562608
20
-44.216629221387663
0
LWPOLYLINE
5
126
100
AcDbEntity
8
0
100
AcDbPolyline
90
4
70
1
43
0.0
10
-61.945847931347373
20
-101.36662923567511
10
-61.945847931347373
20
-87.3666292321752
10
-75.945847934846569
20
-87.3666292321752
10
-75.945847934846569
20
-101.36662923567511
0
LWPOLYLINE
5
127
100
AcDbEntity
8
0
100
AcDbPolyline
90
4
70
1
43
0.0
10
-90.233347938418902
20
-63.266629226150343
10
-76.23334793491901
20
-63.266629226150343
10
-76.23334793491901
20
-49.266629222649847
10
-90.233347938418902
20
-49.266629222649847
0
LWPOLYLINE
5
128
100
AcDbEntity
8
0
100
AcDbPolyline
90
4
70
1
43
0.0
10
-104.80834794206277
20
-44.216629221387663
10
-104.80834794206277
20
-30.216629217887458
10
-118.80834794556262
20
-30.216629217887458
10
-118.80834794556262
20
-44.216629221387663
0
LWPOLYLINE
5
129
100
AcDbEntity
8
0
100
AcDbPolyline
90
4
70
1
43
0.0
10
-28.320847937228528
20
-68.316629227412534
10
-28.320847937228528
20
-82.316629230912383
10
-14.320847933728054
20
-82.316629230912383
10
-14.320847933728054
20
-68.316629227412534
0
LWPOLYLINE
5
130
100
AcDbEntity
8
0
100
AcDbPolyline
90
4
70
1
43
0.0
10
-9.5583479420624329
20
-30.216629217887458
10
-23.558347945562907
20
-30.216629217887458
10
-23.558347945562907
20
-44.216629221387663
10
-9.5583479420624329
20
-44.216629221387663
0
LWPOLYLINE
5
131
100
AcDbEntity
8
0
100
AcDbPolyline
90
4
70
1
43
0.0
10
-99.758347945562605
20
-30.216629217887458
10
-99.758347945562605
20
-44.216629221387663
10
-85.758347942062755
20
-44.216629221387663
10
-85.758347942062755
20
-30.216629217887458
0
LWPOLYLINE
5
132
100
AcDbEntity
8
0
100
AcDbPolyline
90
4
70
1
43
0.0
10
-71.183347938418905
20
-49.266629222649847
10
-71.183347938418905
20
-63.266629226150343
10
-57.18334793491902
20
-63.266629226150343
10
-57.18334793491902
20
-49.266629222649847
0
LWPOLYLINE
5
133
100
AcDbEntity
8
0
100
AcDbPolyline
90
4
70
1
43
0.0
10
-4.5083479455629316
20
-44.216629221387663
10
9.4916520579375785
20
-44.216629221387663
10
9.4916520579375785
20
-30.216629217887458
10
-4.5083479455629316
20
-30.216629217887458
0
LWPOLYLINE
5
134
100
AcDbEntity
8
0
100
AcDbPolyline
90
4
70
1
43
0.0
10
-38.133347934919009
20
-49.266629222649847
10
-52.133347938418915
20
-49.266629222649847
10
-52.133347938418915
20
-63.266629226150343
10
-38.133347934919009
20
-63.266629226150343
0
LWPOLYLINE
5
135
100
AcDbEntity
8
0
100
AcDbPolyline
90
4
70
1
43
0.0
10
-114.04584794437196
20
-49.266629222649847
10
-114.04584794437196
20
-63.266629226150343
10
-100.04584794087208
20
-63.266629226150343
10
-100.04584794087208
20
-49.266629222649847
0
LWPOLYLINE
5
136
100
AcDbEntity
8
0
100
AcDbPolyline
90
4
70
1
43
0.0
10
-61.65834794556293
20
-44.216629221387663
10
-47.65834794206242
20
-44.216629221387663
10
-47.65834794206242
20
-30.216629217887458
10
-61.65834794556293
20
-30.216629217887458
0
LWPOLYLINE
5
137
100
AcDbEntity
8
0
100
AcDbPolyline
90
4
70
1
43
0.0
10
-147.38334795270632
20
-44.216629221387663
10
-133.3833479492065
20
-44.216629221387663
10
-133.3833479492065
20
-30.216629217887458
10
-147.38334795270632
20
-30.216629217887458
0
LWPOLYLINE
5
138
100
AcDbEntity
8
0
100
AcDbPolyline
90
4
70
1
43
0.0
10
-133.3833479492065
20
-101.36662923567511
10
-133.3833479492065
20
-87.3666292321752
10
-147.38334795270632
20
-87.3666292321752
10
-147.38334795270632
20
-101.36662923567511
0
LWPOLYLINE
5
139
100
AcDbEntity
8
0
100
AcDbPolyline
90
4
70
1
43
0.0
10
-147.38334795270632
20
-82.316629230912383
10
-133.3833479492065
20
-82.316629230912383
10
-133.3833479492065
20
-68.316629227412534
10
-147.38334795270632
20
-68.316629227412534
0
LWPOLYLINE
5
140
100
AcDbEntity
8
0
100
AcDbPolyline
90
4
70
1
43
0.0
10
-133.3833479492065
20
-49.266629222649847
10
-147.38334795270632
20
-49.266629222649847
10
-147.38334795270632
20
-63.266629226150343
10
-133.3833479492065
20
-63.266629226150343
0
LWPOLYLINE
5
141
100
AcDbEntity
8
0
100
AcDbPolyline
90
4
70
1
43
0.0
10
-42.608347945562954
20
-30.216629217887458
10
-42.608347945562954
20
-44.216629221387663
10
-28.608347942062409
20
-44.216629221387663
10
-28.608347942062409
20
-30.216629217887458
0
LWPOLYLINE
5
142
100
AcDbEntity
8
0
100
AcDbPolyline
90
4
70
1
43
0.0
10
-166.43334795746904
20
-106.41662923693723
10
-166.43334795746904
20
-120.41662924043777
10
-152.43334795396888
20
-120.41662924043777
10
-152.43334795396888
20
-106.41662923693723
0
LWPOLYLINE
5
143
100
AcDbEntity
8
0
100
AcDbPolyline
90
4
70
1
43
0.0
10
-133.3833479492065
20
-120.41662924043777
10
-133.3833479492065
20
-106.41662923693723
10
-147.38334795270632
20
-106.41662923693723
10
-147.38334795270632
20
-120.41662924043777
0
LWPOLYLINE
5
144
100
AcDbEntity
8
0
100
AcDbPolyline
90
4
70
1
43
0.0
10
-166.43334795746904
20
-87.3666292321752
10
-166.43334795746904
20
-101.36662923567511
10
-152.43334795396888
20
-101.36662923567511
10
-152.43334795396888
20
-87.3666292321752
0
LINE
5
145
100
AcDbEntity
8
0
100
AcDbLine
10
12.016593071025362
20
-21.681156996180015
30
0
11
12.016640300024708
21
-13.668101722791784
31
0
0
ARC
5
146
100
AcDbEntity
8
0
100
AcDbCircle
10
10.016640300059439
20
-13.668089934778923
30
0
40
2.0000000000000089
210
-0
220
0
230
1
100
AcDbArc
50
-0.00033770174505019882
51
90.006890685836993
0
LINE
5
147
100
AcDbEntity
8
0
100
AcDbLine
10
10.016399769748867
20
-11.668089949242621
30
0
11
-172.96028267913354
21
-11.690095668530995
31
0
0
SPLINE
5
148
100
AcDbEntity
8
0
100
AcDbSpline
70
0
71
3
72
14
73
10
74
0
42
0.000000001
43
0.0000000001
44
0.0000000001
40
6
40
6
40
6
40
6
40
6.4056917656224739
40
6.4056917656224739
40
6.4056917656224739
40
6.8557403904304559
40
6.8557403904304559
40
6.8557403904304559
40
7
40
7
40
7
40
7
10
-172.96028267913354
20
-11.690095668530995
30
0
10
-175.61024639188565
20
-11.690508966571835
30
0
10
-178.14012234800944
20
-12.582770069649117
30
0
10
-180.1355278033684
20
-14.072665949882882
30
0
10
-182.34910361933487
20
-15.725461616014936
30
0
10
-183.97330578013316
20
-18.126315949571357
30
0
10
-184.63522470296408
20
-20.919886984913969
30
0
10
-184.84739769963753
20
-21.815344596933684
30
0
10
-184.95842478674354
20
-22.747811548959085
30
0
10
-184.95842478674354
20
-23.690109811768814
30
0
0
LINE
5
149
100
AcDbEntity
8
0
100
AcDbLine
10
-184.95842478674351
20
-23.690109811768814
30
0
11
-184.95842478674354
21
-126.93985835502041
31
0
0
SPLINE
5
150
100
AcDbEntity
8
0
100
AcDbSpline
70
0
71
3
72
14
73
10
74
0
42
0.000000001
43
0.0000000001
44
0.0000000001
40
8
40
8
40
8
40
8
40
8.4055415420585824
40
8.4055415420585824
40
8.4055415420585824
40
8.855515914676829
40
8.855515914676829
40
8.855515914676829
40
9
40
9
40
9
40
9
10
-184.95842478674354
20
-126.93985835502041
30
0
10
-184.95842478674354
20
-129.58948724007047
30
0
10
-184.06677150565594
20
-132.11921337423396
30
0
10
-182.57755892164855
20
-134.11468968042666
30
0
10
-180.92518196716355
20
-136.32879873173547
30
0
10
-178.52460602774516
20
-137.95356431478555
30
0
10
-175.73108404553236
20
-138.61609305809549
30
0
10
-174.83410081050573
20
-138.82882708319221
30
0
10
-173.89995033345056
20
-138.94006561706061
30
0
10
-172.95595513256279
20
-138.93987242802967
30
0
0
LINE
5
151
100
AcDbEntity
8
0
100
AcDbLine
10
-172.95595513256279
20
-138.93987242802967
30
0
11
14.778995628173881
21
-138.91045994081057
31
0
0
ARC
5
152
100
AcDbEntity
8
0
100
AcDbCircle
10
14.778995628173885
20
-136.9104599408106
30
0
40
1.9999999999999751
210
0
220
0
230
1
100
AcDbArc
50
-90.000000000000099
51
0.00036352915899330915
0
LINE
5
153
100
AcDbEntity
8
0
100
AcDbLine
10
16.778995628133604
20
-136.9104472512013
30
0
11
16.77894497184435
21
-128.92654668331335
31
0
0
SPLINE
5
154
100
AcDbEntity
8
0
100
AcDbSpline
70
0
71
3
72
8
73
4
74
0
42
0.000000001
43
0.0000000001
44
0.0000000001
40
-16.004859602194198
40
-16.004859602194198
40
-16.004859602194198
40
-16.004859602194198
40
-16
40
-16
40
-16
40
-16
10
16.778944971844346
20
-128.92654668331335
30
0
10
16.778987176253697
20
-128.92118948500831
30
0
10
16.779008317823383
20
-128.91582727074544
30
0
10
16.779008317823383
20
-128.91046011926758
30
0
0
LINE
5
155
100
AcDbEntity
8
0
100
AcDbLine
10
16.779008317823383
20
-128.91046011926758
30
0
11
16.779008317823383
21
-86.860073931843829
31
0
0
SPLINE
5
156
100
AcDbEntity
8
0
100
AcDbSpline
70
0
71
3
72
8
73
4
74
0
42
0.000000001
43
0.0000000001
44
0.0000000001
40
-15
40
-15
40
-15
40
-15
40
-14
40
-14
40
-14
40
-14
10
16.779008317823383
20
-86.860073931843829
30
0
10
16.779008317823383
20
-85.759791317297783
30
0
10
15.890257777063219
20
-84.866146533162805
30
0
10
14.789991754336924
20
-84.860104091040824
30
0
0
LINE
5
157
100
AcDbEntity
8
0
100
AcDbLine
10
14.789991754336924
20
-84.860104091040824
30
0
11
9.2431686530112245
21
-84.829642041992599
31
0
0
SPLINE
5
158
100
AcDbEntity
8
0
100
AcDbSpline
70
0
71
3
72
8
73
4
74
0
42
0.000000001
43
0.0000000001
44
0.0000000001
40
-13
40
-13
40
-13
40
-13
40
-12
40
-12
40
-12
40
-12
10
9.2431686530112245
20
-84.829642041992599
30
0
10
8.1429026302849294
20
-84.823599599870519
30
0
10
7.2541520895248368
20
-83.929954815735613
30
0
10
7.2541520895248368
20
-82.82967220118951
30
0
0
LINE
5
159
100
AcDbEntity
8
0
100
AcDbLine
10
7.2541520895248377
20
-82.829672201189538
30
0
11
7.2541520895248368
21
-67.768718758700558
31
0
0
SPLINE
5
160
100
AcDbEntity
8
0
100
AcDbSpline
70
0
71
3
72
8
73
4
74
0
42
0.000000001
43
0.0000000001
44
0.0000000001
40
-11
40
-11
40
-11
40
-11
40
-10
40
-10
40
-10
40
-10
10
7.2541520895248368
20
-67.768718758700558
30
0
10
7.2541520895248368
20
-66.664149259038396
30
0
10
6.3587215891867999
20
-65.768718758700331
30
0
10
5.2541520895246663
20
-65.768718758700331
30
0
0
LINE
5
161
100
AcDbEntity
8
0
100
AcDbLine
10
5.2541520895246663
20
-65.768718758700345
30
0
11
4.491652089524365
21
-65.768718758700331
31
0
0
SPLINE
5
162
100
AcDbEntity
8
0
100
AcDbSpline
70
0
71
3
72
8
73
4
74
0
42
0.000000001
43
0.0000000001
44
0.0000000001
40
-9
40
-9
40
-9
40
-9
40
-8
40
-8
40
-8
40
-8
10
4.491652089524365
20
-65.768718758700331
30
0
10
3.3870825898629064
20
-65.768718758700331
30
0
10
2.4916520895248695
20
-64.873288258362294
30
0
10
2.4916520895248695
20
-63.7687187587008
30
0
0
LINE
5
163
100
AcDbEntity
8
0
100
AcDbLine
10
2.4916520895248699
20
-63.7687187587008
30
0
11
2.4916520895248695
21
-48.714275043930968
31
0
0
SPLINE
5
164
100
AcDbEntity
8
0
100
AcDbSpline
70
0
71
3
72
8
73
4
74
0
42
0.000000001
43
0.0000000001
44
0.0000000001
40
-7
40
-7
40
-7
40
-7
40
-6
40
-6
40
-6
40
-6
10
2.4916520895248695
20
-48.714275043930968
30
0
10
2.4916520895248695
20
-47.611442452247559
30
0
10
3.3843735746382109
20
-46.716733050442002
30
0
10
4.4872034381183212
20
-46.714279991562236
30
0
0
LINE
5
165
100
AcDbEntity
8
0
100
AcDbLine
10
4.4872034381183203
20
-46.714279991562229
30
0
11
10.021100740931459
21
-46.701970771101159
31
0
0
SPLINE
5
166
100
AcDbEntity
8
0
100
AcDbSpline
70
0
71
3
72
8
73
4
74
0
42
0.000000001
43
0.0000000001
44
0.0000000001
40
-5
40
-5
40
-5
40
-5
40
-4
40
-4
40
-4
40
-4
10
10.021100740931459
20
-46.701970771101159
30
0
10
11.123930604411498
20
-46.699517712221081
30
0
10
12.01665208952484
20
-45.804808310415872
30
0
10
12.01665208952484
20
-44.701975718732442
30
0
0
LINE
5
167
100
AcDbEntity
8
0
100
AcDbLine
10
12.01665208952484
20
-44.701975718732456
30
0
11
12.01665208952484
21
-21.696684596630487
31
0
0
LINE
5
168
100
AcDbEntity
8
0
100
AcDbLine
10
12.01665208952484
20
-21.696684596630487
30
0
11
12.016593071025362
21
-21.681156996180015
31
0
0
ENDSEC
0
SECTION
2
OBJECTS
0
DICTIONARY
5
C
100
AcDbDictionary
3
ACAD_GROUP
350
D
3
ACAD_MLINESTYLE
350
17
0
DICTIONARY
5
D
100
AcDbDictionary
0
DICTIONARY
5
1A
330
C
100
AcDbDictionary
0
DICTIONARY
5
17
100
AcDbDictionary
0
ENDSEC
0
EOF
