0
SECTION
2
HEADER
9
$INSUNITS
70
4
9
$ACADVER
1
AC1014
9
$HANDSEED
5
FFFF
0
ENDSEC
0
SECTION
2
TABLES
0
TABLE
2
VPORT
5
8
100
AcDbSymbolTable
0
ENDTAB
0
TABLE
2
LTYPE
5
5
100
AcDbSymbolTable
0
LTYPE
5
14
100
AcDbSymbolTableRecord
100
AcDbLinetypeTableRecord
2
BYBLOCK
70
0
0
LTYPE
5
15
100
AcDbSymbolTableRecord
100
AcDbLinetypeTableRecord
2
BYLAYER
70
0
0
ENDTAB
0
TABLE
2
LAYER
5
2
100
AcDbSymbolTable
70
2
0
LAYER
5
50
100
AcDbSymbolTableRecord
100
AcDbLayerTableRecord
2
0
70
0
6
CONTINUOUS
0
ENDTAB
0
TABLE
2
STYLE
5
3
100
AcDbSymbolTable
70
1
0
STYLE
5
11
100
AcDbSymbolTableRecord
100
AcDbTextStyleTableRecord
2
STANDARD
70
0
0
ENDTAB
0
TABLE
2
VIEW
5
6
100
AcDbSymbolTable
70
0
0
ENDTAB
0
TABLE
2
UCS
5
7
100
AcDbSymbolTable
70
0
0
ENDTAB
0
TABLE
2
APPID
5
9
100
AcDbSymbolTable
70
2
0
APPID
5
12
100
AcDbSymbolTableRecord
100
AcDbRegAppTableRecord
2
ACAD
70
0
0
ENDTAB
0
TABLE
2
DIMSTYLE
5
A
100
AcDbSymbolTable
70
1
0
ENDTAB
0
TABLE
2
BLOCK_RECORD
5
1
100
AcDbSymbolTable
70
1
0
BLOCK_RECORD
5
1F
100
AcDbSymbolTableRecord
100
AcDbBlockTableRecord
2
*MODEL_SPACE
0
BLOCK_RECORD
5
1B
100
AcDbSymbolTableRecord
100
AcDbBlockTableRecord
2
*PAPER_SPACE
0
ENDTAB
0
ENDSEC
0
SECTION
2
BLOCKS
0
BLOCK
5
20
100
AcDbEntity
100
AcDbBlockBegin
2
*MODEL_SPACE
0
ENDBLK
5
21
100
AcDbEntity
100
AcDbBlockEnd
0
BLOCK
5
1C
100
AcDbEntity
100
AcDbBlockBegin
2
*PAPER_SPACE
0
ENDBLK
5
1D
100
AcDbEntity
100
AcDbBlockEnd
0
ENDSEC
0
SECTION
2
ENTITIES
0
LWPOLYLINE
5
100
100
AcDbEntity
8
0
100
AcDbPolyline
90
4
70
1
43
0.0
10
145.11250342417958
20
-107.29999661570602
10
128.73124664249556
20
-107.29999661570602
10
128.73124664249556
20
-121.30000339739006
10
145.11250342417958
20
-121.30000339739006
0
LWPOLYLINE
5
101
100
AcDbEntity
8
0
100
AcDbPolyline
90
4
70
1
43
0.0
10
121.30000342417958
20
-107.29999661570602
10
102.53749664249555
20
-107.29999661570602
10
102.53749664249555
20
-121.30000339739006
10
121.30000342417958
20
-121.30000339739006
0
LWPOLYLINE
5
102
100
AcDbEntity
8
0
100
AcDbPolyline
90
4
70
1
43
0.0
10
211.78750001246607
20
-88.250000012537299
10
197.78750000896551
20
-88.250000012537299
10
197.78750000896551
20
-102.25000001603782
10
211.78750001246607
20
-102.25000001603782
0
LWPOLYLINE
5
103
100
AcDbEntity
8
0
100
AcDbPolyline
90
4
70
1
43
0.0
10
81.106246642495563
20
-107.29999661570602
10
81.106246642495563
20
-121.30000339739006
10
97.487503424179565
20
-121.30000339739006
10
97.487503424179565
20
-107.29999661570602
0
LWPOLYLINE
5
104
100
AcDbEntity
8
0
100
AcDbPolyline
90
4
70
1
43
0.0
10
145.11250001008398
20
-69.200000007774989
10
131.1125000065845
20
-69.200000007774989
10
131.1125000065845
20
-83.200000011275122
10
145.11250001008398
20
-83.200000011275122
0
LWPOLYLINE
5
105
100
AcDbEntity
8
0
100
AcDbPolyline
90
4
70
1
43
0.0
10
202.26250001008395
20
-83.200000011275122
10
202.26250001008395
20
-69.200000007774989
10
188.26250000658479
20
-69.200000007774989
10
188.26250000658479
20
-83.200000011275122
0
LWPOLYLINE
5
106
100
AcDbEntity
8
0
100
AcDbPolyline
90
4
70
1
43
0.0
10
140.6375000089655
20
-88.250000012537299
10
140.6375000089655
20
-102.25000001603782
10
154.63750001246598
20
-102.25000001603782
10
154.63750001246598
20
-88.250000012537299
0
LWPOLYLINE
5
107
100
AcDbEntity
8
0
100
AcDbPolyline
90
4
70
1
43
0.0
10
159.68750000896551
20
-102.25000001603782
10
173.68750001246596
20
-102.25000001603782
10
173.68750001246596
20
-88.250000012537299
10
159.68750000896551
20
-88.250000012537299
0
LWPOLYLINE
5
108
100
AcDbEntity
8
0
100
AcDbPolyline
90
4
70
1
43
0.0
10
164.16250001008396
20
-83.200000011275122
10
164.16250001008396
20
-69.200000007774989
10
150.16250000658482
20
-69.200000007774989
10
150.16250000658482
20
-83.200000011275122
0
LWPOLYLINE
5
109
100
AcDbEntity
8
0
100
AcDbPolyline
90
4
70
1
43
0.0
10
126.06250001008434
20
-83.200000011275122
10
126.06250001008434
20
-69.200000007774989
10
112.0625000065845
20
-69.200000007774989
10
112.0625000065845
20
-83.200000011275122
0
LWPOLYLINE
5
110
100
AcDbEntity
8
0
100
AcDbPolyline
90
4
70
1
43
0.0
10
169.21250000658478
20
-83.200000011275122
10
183.21250001008397
20
-83.200000011275122
10
183.21250001008397
20
-69.200000007774989
10
169.21250000658478
20
-69.200000007774989
0
LWPOLYLINE
5
111
100
AcDbEntity
8
0
100
AcDbPolyline
90
4
70
1
43
0.0
10
121.58750000896582
20
-88.250000012537299
10
121.58750000896582
20
-102.25000001603782
10
135.58750001246568
20
-102.25000001603782
10
135.58750001246568
20
-88.250000012537299
0
LWPOLYLINE
5
112
100
AcDbEntity
8
0
100
AcDbPolyline
90
4
70
1
43
0.0
10
178.73750000896553
20
-88.250000012537299
10
178.73750000896553
20
-102.25000001603782
10
192.737500012466
20
-102.25000001603782
10
192.737500012466
20
-88.250000012537299
0
LWPOLYLINE
5
113
100
AcDbEntity
8
0
100
AcDbPolyline
90
4
70
1
43
0.0
10
173.97499999825041
20
-45.100000001750082
10
187.97500000174961
20
-45.100000001750082
10
187.97500000174961
20
-31.099999998249928
10
173.97499999825041
20
-31.099999998249928
0
LWPOLYLINE
5
114
100
AcDbEntity
8
0
100
AcDbPolyline
90
4
70
1
43
0.0
10
135.87499999825008
20
-31.099999998249928
10
135.87499999825008
20
-45.100000001750082
10
149.87500000174961
20
-45.100000001750082
10
149.87500000174961
20
-31.099999998249928
0
LWPOLYLINE
5
115
100
AcDbEntity
8
0
100
AcDbPolyline
90
4
70
1
43
0.0
10
145.40000000539379
20
-50.150000003012245
10
145.40000000539379
20
-64.150000006512769
10
159.4000000088937
20
-64.150000006512769
10
159.4000000088937
20
-50.150000003012245
0
LWPOLYLINE
5
116
100
AcDbEntity
8
0
100
AcDbPolyline
90
4
70
1
43
0.0
10
126.3500000053938
20
-50.150000003012245
10
126.3500000053938
20
-64.150000006512769
10
140.35000000889369
20
-64.150000006512769
10
140.35000000889369
20
-50.150000003012245
0
LWPOLYLINE
5
117
100
AcDbEntity
8
0
100
AcDbPolyline
90
4
70
1
43
0.0
10
193.02499999825042
20
-31.099999998249928
10
193.02499999825042
20
-45.100000001750082
10
207.02500000174965
20
-45.100000001750082
10
207.02500000174965
20
-31.099999998249928
0
LWPOLYLINE
5
118
100
AcDbEntity
8
0
100
AcDbPolyline
90
4
70
1
43
0.0
10
107.30000000539378
20
-50.150000003012245
10
107.30000000539378
20
-64.150000006512769
10
121.30000000889366
20
-64.150000006512769
10
121.30000000889366
20
-50.150000003012245
0
LWPOLYLINE
5
119
100
AcDbEntity
8
0
100
AcDbPolyline
90
4
70
1
43
0.0
10
178.45000000889368
20
-64.150000006512769
10
178.45000000889368
20
-50.150000003012245
10
164.4500000053938
20
-50.150000003012245
10
164.4500000053938
20
-64.150000006512769
0
LWPOLYLINE
5
120
100
AcDbEntity
8
0
100
AcDbPolyline
90
4
70
1
43
0.0
10
83.487499999440757
20
-50.150000003012245
10
83.487499999440757
20
-64.150000006512769
10
97.487500002940635
20
-64.150000006512769
10
97.487500002940635
20
-50.150000003012245
0
LWPOLYLINE
5
121
100
AcDbEntity
8
0
100
AcDbPolyline
90
4
70
1
43
0.0
10
78.724999998250098
20
-45.100000001750082
10
92.725000001749919
20
-45.100000001750082
10
92.725000001749919
20
-31.099999998249928
10
78.724999998250098
20
-31.099999998249928
0
LWPOLYLINE
5
122
100
AcDbEntity
8
0
100
AcDbPolyline
90
4
70
1
43
0.0
10
183.50000000539379
20
-50.150000003012245
10
183.50000000539379
20
-64.150000006512769
10
197.50000000889366
20
-64.150000006512769
10
197.50000000889366
20
-50.150000003012245
0
LWPOLYLINE
5
123
100
AcDbEntity
8
0
100
AcDbPolyline
90
4
70
1
43
0.0
10
97.774999998250095
20
-31.099999998249928
10
97.774999998250095
20
-45.100000001750082
10
111.77500000174993
20
-45.100000001750082
10
111.77500000174993
20
-31.099999998249928
0
LWPOLYLINE
5
124
100
AcDbEntity
8
0
100
AcDbPolyline
90
4
70
1
43
0.0
10
116.82499999825011
20
-31.099999998249928
10
116.82499999825011
20
-45.100000001750082
10
130.82500000174994
20
-45.100000001750082
10
130.82500000174994
20
-31.099999998249928
0
LWPOLYLINE
5
125
100
AcDbEntity
8
0
100
AcDbPolyline
90
4
70
1
43
0.0
10
168.92500000174962
20
-45.100000001750082
10
168.92500000174962
20
-31.099999998249928
10
154.9249999982504
20
-31.099999998249928
10
154.9249999982504
20
-45.100000001750082
0
SPLINE
5
126
100
AcDbEntity
8
0
100
AcDbSpline
70
0
71
3
72
8
73
4
74
0
42
0.000000001
43
0.0000000001
44
0.0000000001
40
-20
40
-20
40
-20
40
-20
40
-19
40
-19
40
-19
40
-19
10
209.55000003333754
20
-22.552713791784651
30
0
10
209.55000003333754
20
-21.448019156821356
30
0
10
208.65437423045748
20
-20.552536832299957
30
0
10
207.5496796096715
20
-20.552713817452446
30
0
0
LINE
5
127
100
AcDbEntity
8
0
100
AcDbLine
10
207.5496796096715
20
-20.552713817452446
30
0
11
72.199398270102051
21
-20.574398534407354
31
0
0
SPLINE
5
128
100
AcDbEntity
8
0
100
AcDbSpline
70
0
71
3
72
8
73
4
74
0
42
0.000000001
43
0.0000000001
44
0.0000000001
40
-18
40
-18
40
-18
40
-18
40
-17
40
-17
40
-17
40
-17
10
72.199398270102051
20
-20.574398534407354
30
0
10
69.99049662960914
20
-20.574734045382748
30
0
10
68.200005930020936
20
-22.365496644309619
30
0
10
68.200005831734458
20
-24.574398310283438
30
0
0
LINE
5
129
100
AcDbEntity
8
0
100
AcDbLine
10
68.200005831734458
20
-24.574398310283435
30
0
11
68.200000178020048
21
-127.82416045382234
31
0
0
SPLINE
5
130
100
AcDbEntity
8
0
100
AcDbSpline
70
0
71
3
72
8
73
4
74
0
42
0.000000001
43
0.0000000001
44
0.0000000001
40
-16
40
-16
40
-16
40
-16
40
-15
40
-15
40
-15
40
-15
10
68.200000178020048
20
-127.82416045382234
30
0
10
68.200000057034771
20
-130.03362728984229
30
0
10
69.991372648725758
20
-131.82462414466193
30
0
10
72.200839436108481
20
-131.82416054375935
30
0
0
LINE
5
131
100
AcDbEntity
8
0
100
AcDbLine
10
72.200839436108481
20
-131.82416054375935
30
0
11
212.31277591120499
21
-131.79476158627261
31
0
0
SPLINE
5
132
100
AcDbEntity
8
0
100
AcDbSpline
70
0
71
3
72
8
73
4
74
0
42
0.000000001
43
0.0000000001
44
0.0000000001
40
-14
40
-14
40
-14
40
-14
40
-13
40
-13
40
-13
40
-13
10
212.31277591120499
20
-131.79476158627261
30
0
10
213.41718150676365
20
-131.79452985460247
30
0
10
214.3123562616361
20
-130.89916725017014
30
0
10
214.3123562616361
20
-129.79476163030003
30
0
0
LINE
5
133
100
AcDbEntity
8
0
100
AcDbLine
10
214.3123562616361
20
-129.79476163030003
30
0
11
214.3123562616361
21
-87.744280871030753
31
0
0
SPLINE
5
134
100
AcDbEntity
8
0
100
AcDbSpline
70
0
71
3
72
8
73
4
74
0
42
0.000000001
43
0.0000000001
44
0.0000000001
40
-12
40
-12
40
-12
40
-12
40
-11
40
-11
40
-11
40
-11
10
214.3123562616361
20
-87.744280871030753
30
0
10
214.3123562616361
20
-86.643998256484622
30
0
10
213.42360572087591
20
-85.750353472349758
30
0
10
212.32333969814962
20
-85.744311030227635
30
0
0
LINE
5
135
100
AcDbEntity
8
0
100
AcDbLine
10
212.32333969814962
20
-85.744311030227635
30
0
11
206.776516596824
21
-85.713848981179481
31
0
0
SPLINE
5
136
100
AcDbEntity
8
0
100
AcDbSpline
70
0
71
3
72
8
73
4
74
0
42
0.000000001
43
0.0000000001
44
0.0000000001
40
-10
40
-10
40
-10
40
-10
40
-9
40
-9
40
-9
40
-9
10
206.776516596824
20
-85.713848981179481
30
0
10
205.67625057409768
20
-85.707806539057401
30
0
10
204.78750003333755
20
-84.814161754922452
30
0
10
204.78750003333755
20
-83.713879140376349
30
0
0
LINE
5
137
100
AcDbEntity
8
0
100
AcDbLine
10
204.78750003333755
20
-83.713879140376378
30
0
11
204.78750003333755
21
-68.652925697886488
31
0
0
SPLINE
5
138
100
AcDbEntity
8
0
100
AcDbSpline
70
0
71
3
72
8
73
4
74
0
42
0.000000001
43
0.0000000001
44
0.0000000001
40
-8
40
-8
40
-8
40
-8
40
-7
40
-7
40
-7
40
-7
10
204.78750003333755
20
-68.652925697886488
30
0
10
204.78750003333755
20
-67.54835619822498
30
0
10
203.8920695329995
20
-66.6529256978869
30
0
10
202.78750003333801
20
-66.6529256978869
30
0
0
LINE
5
139
100
AcDbEntity
8
0
100
AcDbLine
10
202.78750003333801
20
-66.652925697886914
30
0
11
202.02500003333714
21
-66.6529256978869
31
0
0
SPLINE
5
140
100
AcDbEntity
8
0
100
AcDbSpline
70
0
71
3
72
8
73
4
74
0
42
0.000000001
43
0.0000000001
44
0.0000000001
40
-6
40
-6
40
-6
40
-6
40
-5
40
-5
40
-5
40
-5
10
202.02500003333714
20
-66.6529256978869
30
0
10
200.92043053367564
20
-66.6529256978869
30
0
10
200.02500003333753
20
-65.757495197548849
30
0
10
200.02500003333753
20
-64.652925697887383
30
0
0
LINE
5
141
100
AcDbEntity
8
0
100
AcDbLine
10
200.02500003333753
20
-64.652925697887383
30
0
11
200.02500003333753
21
-49.598481983118191
31
0
0
SPLINE
5
142
100
AcDbEntity
8
0
100
AcDbSpline
70
0
71
3
72
8
73
4
74
0
42
0.000000001
43
0.0000000001
44
0.0000000001
40
-4
40
-4
40
-4
40
-4
40
-3
40
-3
40
-3
40
-3
10
200.02500003333753
20
-49.598481983118191
30
0
10
200.02500003333753
20
-48.495649391434469
30
0
10
200.91772151845151
20
-47.600939989629225
30
0
10
202.020551381931
20
-47.598486930749132
30
0
0
LINE
5
143
100
AcDbEntity
8
0
100
AcDbLine
10
202.02055138193094
20
-47.598486930749118
30
0
11
207.55444868474422
21
-47.586177710288041
31
0
0
SPLINE
5
144
100
AcDbEntity
8
0
100
AcDbSpline
70
0
71
3
72
8
73
4
74
0
42
0.000000001
43
0.0000000001
44
0.0000000001
40
-2
40
-2
40
-2
40
-2
40
-1
40
-1
40
-1
40
-1
10
207.55444868474422
20
-47.586177710288041
30
0
10
208.65727854822356
20
-47.583724651408005
30
0
10
209.55000003333754
20
-46.689015249602747
30
0
10
209.55000003333754
20
-45.586182657918997
30
0
0
LINE
5
145
100
AcDbEntity
8
0
100
AcDbLine
10
209.55000003333754
20
-45.586182657919004
30
0
11
209.55000003333754
21
-22.552713791784651
31
0
0
SPLINE
5
146
100
AcDbEntity
8
0
100
AcDbSpline
70
0
71
3
72
43
73
39
74
0
42
0.000000001
43
0.0000000001
44
0.0000000001
40
0.9891605916721341
40
0.9891605916721341
40
0.9891605916721341
40
0.9891605916721341
40
1.050821651977262
40
1.050821651977262
40
1.0866388033255354
40
1.0866388033255354
40
1.1223244854472976
40
1.1223244854472976
40
1.1223244854472976
40
1.1878578931654975
40
1.1878578931654975
40
1.2548411885344377
40
1.2548411885344377
40
1.3204947831127467
40
1.3204947831127467
40
1.3866023524752014
40
1.3866023524752014
40
1.4554041116282246
40
1.4554041116282246
40
1.5257164530559209
40
1.5257164530559209
40
1.594574674559369
40
1.594574674559369
40
1.6636735998648935
40
1.6636735998648935
40
1.7356118723936764
40
1.7356118723936764
40
1.8091420240384593
40
1.8091420240384593
40
1.8811282935062492
40
1.8811282935062492
40
1.9531170828321722
40
1.9531170828321722
40
2.0280827770197623
40
2.0280827770197623
40
2.1047264656252338
40
2.1047264656252338
40
2.1114850771194318
40
2.1114850771194318
40
2.1114850771194318
40
2.1114850771194318
10
211.96250003333785
20
-127.80208348163626
30
0
10
211.96247876017986
20
-127.98090977776343
30
0
10
211.93381815923385
20
-128.1744571824978
30
0
10
211.82064655329515
20
-128.48329123459692
30
0
10
211.76689623525593
20
-128.59108932445875
30
0
10
211.63822491442096
20
-128.79173306546357
30
0
10
211.56333818167485
20
-128.88469771117622
30
0
10
211.47922622227628
20
-128.96880967057473
30
0
10
211.32476249897024
20
-129.12327339388068
30
0
10
211.1420327111868
20
-129.24505989590693
30
0
10
210.7383848015607
20
-129.41192062679767
30
0
10
210.52189035677426
20
-129.45320582899501
30
0
10
210.0897507800573
20
-129.45093745243324
30
0
10
209.88098577154352
20
-129.40909835053668
30
0
10
209.48935147299991
20
-129.24818930822161
30
0
10
209.31152450745256
20
-129.13047012597272
30
0
10
209.00487896561401
20
-128.83176003282981
30
0
10
208.88074415142518
20
-128.65074617501602
30
0
10
208.70857556565488
20
-128.24967082376045
30
0
10
208.66431491713905
20
-128.03407883392404
30
0
10
208.6608309209256
20
-127.60175659157517
30
0
10
208.69990968495657
20
-127.39167074888478
30
0
10
208.8558824917541
20
-126.99767918064148
30
0
10
208.97116588654717
20
-126.81853443057042
30
0
10
209.26560987004189
20
-126.50824441868215
30
0
10
209.44487261709028
20
-126.38179506940345
30
0
10
209.8433618581245
20
-126.20433792969712
30
0
10
210.0582777182984
20
-126.15713459023934
30
0
10
210.49021682329186
20
-126.14789862829264
30
0
10
210.7017693084623
20
-126.18420205130894
30
0
10
211.09807946699686
20
-126.33522583319674
30
0
10
211.27851188664994
20
-126.44806783790622
30
0
10
211.59237552154454
20
-126.7382164760121
30
0
10
211.72110060822337
20
-126.91569717395537
30
0
10
211.90379424479713
20
-127.31154124041986
30
0
10
211.95392379080718
20
-127.52575404751148
30
0
10
211.96215812861638
20
-127.76305837482002
30
0
10
211.96250012008679
20
-127.78248249732962
30
0
10
211.96250003333785
20
-127.80208348163626
30
0
0
SPLINE
5
147
100
AcDbEntity
8
0
100
AcDbSpline
70
0
71
3
72
43
73
39
74
0
42
0.000000001
43
0.0000000001
44
0.0000000001
40
0.98916059167879122
40
0.98916059167879122
40
0.98916059167879122
40
0.98916059167879122
40
1.0508216519839471
40
1.0508216519839471
40
1.0866388033321266
40
1.0866388033321266
40
1.1223244854538437
40
1.1223244854538437
40
1.1223244854538437
40
1.1878578931720472
40
1.1878578931720472
40
1.2548411885410948
40
1.2548411885410948
40
1.3204947831196159
40
1.3204947831196159
40
1.3866023524823441
40
1.3866023524823441
40
1.4554041116356431
40
1.4554041116356431
40
1.5257164530637641
40
1.5257164530637641
40
1.594574674567649
40
1.594574674567649
40
1.6636735998736616
40
1.6636735998736616
40
1.7356118724030398
40
1.7356118724030398
40
1.8091420240484768
40
1.8091420240484768
40
1.8811282935169591
40
1.8811282935169591
40
1.9531170828435942
40
1.9531170828435942
40
2.0280827770319494
40
2.0280827770319494
40
2.1047264656382767
40
2.1047264656382767
40
2.111485077132635
40
2.111485077132635
40
2.111485077132635
40
2.111485077132635
10
207.20000003333783
20
-24.574993949122135
30
0
10
207.19997876017985
20
-24.753820245248022
30
0
10
207.17131815923435
20
-24.947367649982425
30
0
10
207.05814655329533
20
-25.256201702082617
30
0
10
207.00439623525611
20
-25.36399979194449
30
0
10
206.87572491442111
20
-25.564643532949468
30
0
10
206.80083818167486
20
-25.657608178662237
30
0
10
206.71672622227641
20
-25.741720138060657
30
0
10
206.56226249897031
20
-25.89618386136662
30
0
10
206.37953271118693
20
-26.017970363392799
30
0
10
205.9758848015608
20
-26.184831094283535
30
0
10
205.75939035677425
20
-26.226116296480786
30
0
10
205.32725078005743
20
-26.223847919919081
30
0
10
205.11848577154367
20
-26.182008818022506
30
0
10
204.72685147300007
20
-26.021099775707476
30
0
10
204.54902450745266
20
-25.903380593458674
30
0
10
204.24237896561397
20
-25.604670500315653
30
0
10
204.11824415142519
20
-25.423656642501868
30
0
10
203.94607556565478
20
-25.022581291246215
30
0
10
203.90181491713915
20
-24.806989301409658
30
0
10
203.89833092092567
20
-24.374667059061803
30
0
10
203.93740968495646
20
-24.164581216371069
30
0
10
204.09338249175397
20
-23.770589648127366
30
0
10
204.20866588654715
20
-23.591444898056139
30
0
10
204.50310987004201
20
-23.281154886167442
30
0
10
204.68237261709052
20
-23.154705536888688
30
0
10
205.08086185812476
20
-22.977248397182283
30
0
10
205.29577771829861
20
-22.930045057724548
30
0
10
205.72771682329173
20
-22.920809095777837
30
0
10
205.93926930846214
20
-22.957112518794133
30
0
10
206.33557946699642
20
-23.108136300681743
30
0
10
206.5160118866493
20
-23.220978305390915
30
0
10
206.82987552154427
20
-23.511126943497068
30
0
10
206.95860060822301
20
-23.688607641440356
30
0
10
207.14129424479677
20
-24.084451707904666
30
0
10
207.19142379080705
20
-24.298664514996236
30
0
10
207.19965812861636
20
-24.535968842305287
30
0
10
207.2000001200868
20
-24.555392964815187
30
0
10
207.20000003333783
20
-24.574993949122135
30
0
0
SPLINE
5
148
100
AcDbEntity
8
0
100
AcDbSpline
70
0
71
3
72
43
73
39
74
0
42
0.000000001
43
0.0000000001
44
0.0000000001
40
0.98916059165951831
40
0.98916059165951831
40
0.98916059165951831
40
0.98916059165951831
40
1.0508216519638427
40
1.0508216519638427
40
1.0866388033120939
40
1.0866388033120939
40
1.122324485433857
40
1.122324485433857
40
1.122324485433857
40
1.1878578931519772
40
1.1878578931519772
40
1.2548411885207558
40
1.2548411885207558
40
1.3204947830988205
40
1.3204947830988205
40
1.3866023524609936
40
1.3866023524609936
40
1.4554041116135705
40
1.4554041116135705
40
1.5257164530407106
40
1.5257164530407106
40
1.5945746745433982
40
1.5945746745433982
40
1.6636735998480341
40
1.6636735998480341
40
1.7356118723757892
40
1.7356118723757892
40
1.8091420240193918
40
1.8091420240193918
40
1.8811282934857645
40
1.8811282934857645
40
1.9531170828100848
40
1.9531170828100848
40
2.0280827769957988
40
2.0280827769957988
40
2.1047264655992137
40
2.1047264655992137
40
2.1114850770933753
40
2.1114850770933753
40
2.1114850770933753
40
2.1114850770933753
10
143.46250003333776
20
-127.80208348163626
30
0
10
143.46247876017975
20
-127.98090977776548
30
0
10
143.43381815923311
20
-128.1744571824994
30
0
10
143.32064655329538
20
-128.48329123459646
30
0
10
143.2668962352561
20
-128.59108932445847
30
0
10
143.13822491442107
20
-128.79173306546355
30
0
10
143.06333818167488
20
-128.8846977111763
30
0
10
142.97922622227628
20
-128.96880967057484
30
0
10
142.82476249897041
20
-129.12327339388059
30
0
10
142.64203271118708
20
-129.24505989590688
30
0
10
142.23838480156093
20
-129.41192062679761
30
0
10
142.02189035677429
20
-129.45320582899498
30
0
10
141.5897507800577
20
-129.45093745243327
30
0
10
141.38098577154415
20
-129.40909835053679
30
0
10
140.98935147300074
20
-129.24818930822192
30
0
10
140.81152450745324
20
-129.1304701259732
30
0
10
140.5048789656143
20
-128.83176003283009
30
0
10
140.38074415142535
20
-128.65074617501631
30
0
10
140.20857556565491
20
-128.24967082376074
30
0
10
140.164314917139
20
-128.03407883392433
30
0
10
140.16083092092549
20
-127.60175659157611
30
0
10
140.19990968495625
20
-127.39167074888569
30
0
10
140.35588249175359
20
-126.99767918064251
30
0
10
140.47116588654643
20
-126.81853443057142
30
0
10
140.7656098700412
20
-126.50824441868279
30
0
10
140.9448726170896
20
-126.38179506940391
30
0
10
141.34336185812384
20
-126.20433792969736
30
0
10
141.55827771829769
20
-126.15713459023944
30
0
10
141.99021682329064
20
-126.14789862829262
30
0
10
142.20176930846142
20
-126.18420205130866
30
0
10
142.59807946699613
20
-126.33522583319626
30
0
10
142.77851188664923
20
-126.4480678379055
30
0
10
143.09237552154383
20
-126.73821647601117
30
0
10
143.2211006082228
20
-126.9156971739543
30
0
10
143.40379424479661
20
-127.31154124041853
30
0
10
143.4539237908069
20
-127.52575404751008
30
0
10
143.46215812861632
20
-127.76305837481925
30
0
10
143.46250012008676
20
-127.78248249732926
30
0
10
143.46250003333776
20
-127.80208348163626
30
0
0
SPLINE
5
149
100
AcDbEntity
8
0
100
AcDbSpline
70
0
71
3
72
43
73
39
74
0
42
0.000000001
43
0.0000000001
44
0.0000000001
40
0.98916059165639003
40
0.98916059165639003
40
0.98916059165639003
40
0.98916059165639003
40
1.0508216519607672
40
1.0508216519607672
40
1.0866388033090677
40
1.0866388033090677
40
1.1223244854307795
40
1.1223244854307795
40
1.1223244854307795
40
1.1878578931488768
40
1.1878578931488768
40
1.2548411885175867
40
1.2548411885175867
40
1.3204947830955498
40
1.3204947830955498
40
1.3866023524575555
40
1.3866023524575555
40
1.4554041116099365
40
1.4554041116099365
40
1.5257164530368685
40
1.5257164530368685
40
1.5945746745393563
40
1.5945746745393563
40
1.6636735998437633
40
1.6636735998437633
40
1.7356118723712299
40
1.7356118723712299
40
1.80914202401446
40
1.80914202401446
40
1.8811282934805178
40
1.8811282934805178
40
1.9531170828045512
40
1.9531170828045512
40
2.0280827769899994
40
2.0280827769899994
40
2.1047264655931022
40
2.1047264655931022
40
2.1114850770871696
40
2.1114850770871696
40
2.1114850770871696
40
2.1114850770871696
10
74.550000000000253
20
-25.274993936621311
30
0
10
74.549978726842255
20
-25.453820232751379
30
0
10
74.521318125895334
20
-25.647367637485313
30
0
10
74.408146519957796
20
-25.956201689581519
30
0
10
74.354396201918703
20
-26.063999779443318
30
0
10
74.225724881083451
20
-26.264643520448651
30
0
10
74.150838148337215
20
-26.357608166161416
30
0
10
74.066726188938759
20
-26.441720125559822
30
0
10
73.912262465632935
20
-26.596183848865536
30
0
10
73.729532677849576
20
-26.717970350891896
30
0
10
73.325884768223389
20
-26.884831081782664
30
0
10
73.109390323436841
20
-26.926116283980054
30
0
10
72.677250746720105
20
-26.923847907418313
30
0
10
72.468485738206425
20
-26.882008805521856
30
0
10
72.076851439662875
20
-26.721099763206844
30
0
10
71.899024474115379
20
-26.603380580958071
30
0
10
71.592378932276674
20
-26.304670487815073
30
0
10
71.468244118087767
20
-26.123656630001332
30
0
10
71.296075532317346
20
-25.722581278745665
30
0
10
71.251814883801487
20
-25.506989288909182
30
0
10
71.24833088758804
20
-25.074667046561068
30
0
10
71.287409651618788
20
-24.864581203870458
30
0
10
71.443382458416266
20
-24.470589635626936
30
0
10
71.558665853209263
20
-24.291444885555688
30
0
10
71.853109836704192
20
-23.981154873666952
30
0
10
72.032372583752661
20
-23.854705524388059
30
0
10
72.430861824786902
20
-23.67724838468164
30
0
10
72.645777684960706
20
-23.630045045223756
30
0
10
73.077716789953811
20
-23.62080908327707
30
0
10
73.28926927512417
20
-23.657112506293238
30
0
10
73.685579433658461
20
-23.808136288180854
30
0
10
73.866011853311463
20
-23.920978292890041
30
0
10
74.179875488206306
20
-24.21112693099602
30
0
10
74.308600574885276
20
-24.38860762893929
30
0
10
74.491294211459135
20
-24.784451695403785
30
0
10
74.541423757469488
20
-24.998664502495419
30
0
10
74.549658095278829
20
-25.235968829804673
30
0
10
74.550000086749236
20
-25.255392952314502
30
0
10
74.550000000000253
20
-25.274993936621311
30
0
0
SPLINE
5
150
100
AcDbEntity
8
0
100
AcDbSpline
70
0
71
3
72
43
73
39
74
0
42
0.000000001
43
0.0000000001
44
0.0000000001
40
0.98916059165829306
40
0.98916059165829306
40
0.98916059165829306
40
0.98916059165829306
40
1.0508216519626388
40
1.0508216519626388
40
1.0866388033109005
40
1.0866388033109005
40
1.122324485432636
40
1.122324485432636
40
1.122324485432636
40
1.1878578931507058
40
1.1878578931507058
40
1.2548411885194048
40
1.2548411885194048
40
1.320494783097395
40
1.320494783097395
40
1.3866023524594711
40
1.3866023524594711
40
1.4554041116119776
40
1.4554041116119776
40
1.5257164530390379
40
1.5257164530390379
40
1.5945746745416269
40
1.5945746745416269
40
1.6636735998461814
40
1.6636735998461814
40
1.7356118723738343
40
1.7356118723738343
40
1.8091420240172129
40
1.8091420240172129
40
1.8811282934833811
40
1.8811282934833811
40
1.9531170828076121
40
1.9531170828076121
40
2.028082776993358
40
2.028082776993358
40
2.104726465596805
40
2.104726465596805
40
2.1114850770909293
40
2.1114850770909293
40
2.1114850770909293
40
2.1114850770909293
10
74.550003362880517
20
-127.12499059874361
30
0
10
74.549982089722519
20
-127.30381689487309
30
0
10
74.521321488775797
20
-127.49736429960699
30
0
10
74.408149882838103
20
-127.80619835170377
30
0
10
74.354399564798896
20
-127.9139964415657
30
0
10
74.225728243963758
20
-128.11464018257089
30
0
10
74.150841511217536
20
-128.20760482828365
30
0
10
74.066729551819023
20
-128.29171678768211
30
0
10
73.91226582851327
20
-128.44618051098777
30
0
10
73.729536040729883
20
-128.56796701301417
30
0
10
73.325888131103682
20
-128.73482774390496
30
0
10
73.109393686317162
20
-128.77611294610233
30
0
10
72.677254109600369
20
-128.77384456954061
30
0
10
72.468489101086703
20
-128.73200546764414
30
0
10
72.076854802543096
20
-128.57109642532913
30
0
10
71.8990278369956
20
-128.45337724308027
30
0
10
71.592382295156995
20
-128.15466714993744
30
0
10
71.46824748096806
20
-127.97365329212369
30
0
10
71.296078895197638
20
-127.57257794086806
30
0
10
71.251818246681779
20
-127.3569859510316
30
0
10
71.248334250468289
20
-126.92466370868354
30
0
10
71.287413014498995
20
-126.71457786599282
30
0
10
71.44338582129653
20
-126.32058629774902
30
0
10
71.558669216089612
20
-126.14144154767759
30
0
10
71.853113199584712
20
-125.83115153578858
30
0
10
72.032375946633252
20
-125.70470218650965
30
0
10
72.430865187667422
20
-125.52724504680324
30
0
10
72.645781047841069
20
-125.48004170734532
30
0
10
73.077720152834132
20
-125.47080574539865
30
0
10
73.289272638004249
20
-125.50710916841484
30
0
10
73.685582796538299
20
-125.65813295030237
30
0
10
73.866015216191244
20
-125.77097495501155
30
0
10
74.179878851086144
20
-126.06112359311749
30
0
10
74.308603937765199
20
-126.23860429106082
30
0
10
74.491297574339256
20
-126.6344483575255
30
0
10
74.541427120349709
20
-126.84866116461725
30
0
10
74.549661458159093
20
-127.08596549192677
30
0
10
74.550003449629514
20
-127.10538961443669
30
0
10
74.550003362880517
20
-127.12499059874361
30
0
0
LWPOLYLINE
5
151
100
AcDbEntity
8
0
100
AcDbPolyline
90
30
70
1
43
0.0
10
101.86875342417956
20
-83.567758023105227
42
-0.41421356237309503
10
99.868753424179573
20
-81.567758023105227
10
99.868753424179573
20
-69.199996615706354
10
81.106246642495563
20
-69.199996615706354
10
81.106246642495563
20
-102.25000339739005
10
81.496526491789638
20
-102.25000339739005
42
0.34714133399017866
10
82.318252766356238
20
-103.17761075401144
10
82.318252766356238
20
-103.25000695777412
10
89.068249884140513
20
-103.25000695777412
10
89.068249884140513
20
-103.18747938338586
10
89.231004415565224
20
-103.18733426352928
42
0.20736777219120978
10
89.960419531629583
20
-102.87045399904432
10
90.30425795365403
20
-102.50286445578206
42
-0.11525840842180136
10
90.682512594624129
20
-102.25000339739005
10
104.57998747205103
20
-102.25000339739005
42
-0.11525840842179372
10
104.95824211302109
20
-102.50286445578205
10
105.30208053504553
20
-102.87045399904432
42
0.20736777219121921
10
106.03149565110991
20
-103.18733426352927
10
106.19425018253463
20
-103.18747938338586
10
106.19425018253463
20
-103.25000695777412
10
112.94424730031891
20
-103.25000695777412
10
112.94424730031891
20
-103.17761075401145
42
0.34714133399016733
10
113.76597357488552
20
-102.25000339739005
10
116.53750342417958
20
-102.25000339739005
10
116.53750342417958
20
-88.24999661570601
10
113.8197041119918
20
-88.24999661570601
10
113.83341357089917
20
-84.582170817322321
42
0.41483458089570791
10
112.83503847564822
20
-83.578434390532806
10
112.312812721298
20
-83.577589470252533
42
0.035099298395359906
10
112.17293335562312
20
-83.567758023105227
0
LWPOLYLINE
5
152
100
AcDbEntity
8
0
100
AcDbPolyline
90
35
70
1
43
0.0
10
185.96426130271334
20
-107.30000017609098
42
-0.11525840842179945
10
185.58600666174326
20
-107.04713911769898
10
185.24216823971881
20
-106.67954957443669
42
0.20736777219122071
10
184.51275312365442
20
-106.36266930995176
10
184.38174730031889
20
-106.36255249878755
10
184.38174730031889
20
-106.2999966157069
10
177.56825276635621
20
-106.2999966157069
10
177.56825276635621
20
-106.37862316877978
42
0.33810282886842624
10
176.77827519987883
20
-107.30000017609098
10
160.50574988414053
20
-107.30000017609098
10
160.50574988414053
20
-106.2999966157069
10
153.75575276635618
20
-106.2999966157069
10
153.75575276635618
20
-107.30000017609098
10
152.54374664249556
20
-107.30000017609098
10
152.54374664249556
20
-121.30000695777508
10
176.72454466277253
20
-121.30000695777508
10
176.71083520386514
20
-124.96783275615871
42
0.41483458089569231
10
177.70921029911608
20
-125.97156918294827
10
178.23143605346633
20
-125.97241410322852
42
0.035099298395359906
10
178.37131541914121
20
-125.98224555037582
10
201.51797050950765
20
-125.98224555037582
10
208.11678718373747
20
-125.97156918294829
42
0.4148345808956766
10
209.11516227898852
20
-124.96783275615871
10
209.10145282008108
20
-121.30000695777508
10
209.40625342417957
20
-121.30000695777508
10
209.40625342417957
20
-107.30000017609098
10
209.04772228297475
20
-107.30000017609098
42
0.35617808834819148
10
208.19424730031886
20
-106.3672198711602
10
208.19424730031886
20
-106.2999966157069
10
201.44425018253463
20
-106.2999966157069
10
201.44425018253463
20
-106.36255249878755
10
201.31324435919913
20
-106.36266930995171
42
0.20736777219119795
10
200.58382924313477
20
-106.67954957443669
10
200.23999082111035
20
-107.04713911769898
42
-0.11525840842177898
10
199.86173618014035
20
-107.30000017609098
0
SPLINE
5
153
100
AcDbEntity
8
0
100
AcDbSpline
70
0
71
3
72
43
73
39
74
0
42
0.000000001
43
0.0000000001
44
0.0000000001
40
0.9891605916626891
40
0.9891605916626891
40
0.9891605916626891
40
0.9891605916626891
40
1.0508216519672136
40
1.0508216519672136
40
1.0866388033156638
40
1.0866388033156638
40
1.1223244854375147
40
1.1223244854375147
40
1.1223244854375147
40
1.187857893155607
40
1.187857893155607
40
1.2548411885244539
40
1.2548411885244539
40
1.3204947831026157
40
1.3204947831026157
40
1.386602352464924
40
1.386602352464924
40
1.4554041116177134
40
1.4554041116177134
40
1.525716453045139
40
1.525716453045139
40
1.594574674548102
40
1.594574674548102
40
1.6636735998530239
40
1.6636735998530239
40
1.7356118723811245
40
1.7356118723811245
40
1.8091420240249585
40
1.8091420240249585
40
1.8811282934915026
40
1.8811282934915026
40
1.9531170828161217
40
1.9531170828161217
40
2.028082777002155
40
2.028082777002155
40
2.1047264656059301
40
2.1047264656059301
40
2.1114850771002036
40
2.1114850771002036
40
2.1114850771002036
40
2.1114850771002036
10
183.17490231632627
20
-24.549299504677737
30
0
10
183.17488104316826
20
-24.728125800806886
30
0
10
183.1462204422217
20
-24.921673205540714
30
0
10
183.03304883628425
20
-25.230507257637523
30
0
10
182.97929851824512
20
-25.338305347499595
30
0
10
182.85062719740989
20
-25.538949088505159
30
0
10
182.7757404646637
20
-25.631913734218031
30
0
10
182.69162850526493
20
-25.716025693616768
30
0
10
182.53716478195912
20
-25.870489416922481
30
0
10
182.35443499417585
20
-25.992275918948756
30
0
10
181.95078708454957
20
-26.159136649839635
30
0
10
181.73429263976249
20
-26.200421852037028
30
0
10
181.30215306304635
20
-26.198153475475486
30
0
10
181.09338805453294
20
-26.156314373579139
30
0
10
180.70175375598967
20
-25.995405331264504
30
0
10
180.52392679044226
20
-25.877686149015911
30
0
10
180.21728124860329
20
-25.578976055872985
30
0
10
180.09314643441431
20
-25.39796219805925
30
0
10
179.92097784864364
20
-24.996886846803577
30
0
10
179.87671720012759
20
-24.78129485696703
30
0
10
179.87323320391386
20
-24.348972614618468
30
0
10
179.91231196794448
20
-24.138886771927851
30
0
10
180.06828477474193
20
-23.744895203684003
30
0
10
180.18356816953502
20
-23.565750453612637
30
0
10
180.47801215302982
20
-23.25546044172372
30
0
10
180.65727490007839
20
-23.12901109244466
30
0
10
181.05576414111249
20
-22.951553952738109
30
0
10
181.27068000128605
20
-22.904350613280172
30
0
10
181.70261910627835
20
-22.895114651333447
30
0
10
181.91417159144896
20
-22.931418074349491
30
0
10
182.3104817499833
20
-23.082441856236763
30
0
10
182.4909141696364
20
-23.195283860945768
30
0
10
182.80477780453162
20
-23.485432499051679
30
0
10
182.93350289121065
20
-23.662913196994847
30
0
10
183.11619652778484
20
-24.05875726345911
30
0
10
183.16632607379532
20
-24.272970070550674
30
0
10
183.17456041160483
20
-24.510274397860215
30
0
10
183.17490240307529
20
-24.52969852037047
30
0
10
183.17490231632627
20
-24.549299504677737
30
0
0
SPLINE
5
154
100
AcDbEntity
8
0
100
AcDbSpline
70
0
71
3
72
43
73
39
74
0
42
0.000000001
43
0.0000000001
44
0.0000000001
40
0.98916059165923731
40
0.98916059165923731
40
0.98916059165923731
40
0.98916059165923731
40
1.0508216519636189
40
1.0508216519636189
40
1.0866388033119827
40
1.0866388033119827
40
1.1223244854337655
40
1.1223244854337655
40
1.1223244854337655
40
1.1878578931518393
40
1.1878578931518393
40
1.2548411885205768
40
1.2548411885205768
40
1.3204947830985962
40
1.3204947830985962
40
1.3866023524607196
40
1.3866023524607196
40
1.4554041116132854
40
1.4554041116132854
40
1.5257164530404408
40
1.5257164530404408
40
1.5945746745431604
40
1.5945746745431604
40
1.6636735998477907
40
1.6636735998477907
40
1.7356118723755065
40
1.7356118723755065
40
1.8091420240190184
40
1.8091420240190184
40
1.8811282934853439
40
1.8811282934853439
40
1.9531170828096303
40
1.9531170828096303
40
2.0280827769953076
40
2.0280827769953076
40
2.1047264655987319
40
2.1047264655987319
40
2.1114850770930027
40
2.1114850770930027
40
2.1114850770930027
40
2.1114850770930027
10
107.95991823146169
20
-24.449993934208489
30
0
10
107.95989695830369
20
-24.628820230337922
30
0
10
107.93123635735699
20
-24.822367635071636
30
0
10
107.81806475141963
20
-25.131201687168137
30
0
10
107.76431443338052
20
-25.238999777030131
30
0
10
107.6356431125453
20
-25.439643518035624
30
0
10
107.56075637979907
20
-25.532608163748492
30
0
10
107.47664442040048
20
-25.61672012314709
30
0
10
107.32218069709475
20
-25.771183846452793
30
0
10
107.13945090931149
20
-25.892970348479146
30
0
10
106.7358029996854
20
-26.059831079370007
30
0
10
106.51930855489873
20
-26.101116281567435
30
0
10
106.08716897818232
20
-26.098847905005872
30
0
10
105.87840396966874
20
-26.057008803109518
30
0
10
105.48676967112519
20
-25.896099760794733
30
0
10
105.30894270557764
20
-25.77838057854601
30
0
10
105.00229716373872
20
-25.479670485403155
30
0
10
104.87816234954974
20
-25.298656627589441
30
0
10
104.70599376377905
20
-24.897581276333803
30
0
10
104.66173311526308
20
-24.681989286497288
30
0
10
104.6582491190494
20
-24.249667044149113
30
0
10
104.69732788308005
20
-24.039581201458407
30
0
10
104.85330068987733
20
-23.645589633214833
30
0
10
104.96858408467018
20
-23.46644488314357
30
0
10
105.26302806816489
20
-23.156154871254703
30
0
10
105.44229081521325
20
-23.029705521975721
30
0
10
105.84078005624731
20
-22.85224838226906
30
0
10
106.05569591642107
20
-22.805045042811031
30
0
10
106.48763502141404
20
-22.795809080864061
30
0
10
106.69918750658465
20
-22.832112503880076
30
0
10
107.0954976651191
20
-22.983136285767397
30
0
10
107.27593008477211
20
-23.095978290476413
30
0
10
107.58979371966703
20
-23.38612692858208
30
0
10
107.71851880634608
20
-23.563607626525183
30
0
10
107.90121244292024
20
-23.959451692989546
30
0
10
107.95134198893068
20
-24.17366450008123
30
0
10
107.95957632674025
20
-24.410968827390832
30
0
10
107.95991831821068
20
-24.430392949901162
30
0
10
107.95991823146169
20
-24.449993934208489
30
0
0
ENDSEC
0
SECTION
2
OBJECTS
0
DICTIONARY
5
C
100
AcDbDictionary
3
ACAD_GROUP
350
D
3
ACAD_MLINESTYLE
350
17
0
DICTIONARY
5
D
100
AcDbDictionary
0
DICTIONARY
5
1A
330
C
100
AcDbDictionary
0
DICTIONARY
5
17
100
AcDbDictionary
0
ENDSEC
0
EOF
