0
SECTION
2
HEADER
9
$INSUNITS
70
4
9
$ACADVER
1
AC1014
9
$HANDSEED
5
FFFF
0
ENDSEC
0
SECTION
2
TABLES
0
TABLE
2
VPORT
5
8
100
AcDbSymbolTable
0
ENDTAB
0
TABLE
2
LTYPE
5
5
100
AcDbSymbolTable
0
LTYPE
5
14
100
AcDbSymbolTableRecord
100
AcDbLinetypeTableRecord
2
BYBLOCK
70
0
0
LTYPE
5
15
100
AcDbSymbolTableRecord
100
AcDbLinetypeTableRecord
2
BYLAYER
70
0
0
ENDTAB
0
TABLE
2
LAYER
5
2
100
AcDbSymbolTable
70
2
0
LAYER
5
50
100
AcDbSymbolTableRecord
100
AcDbLayerTableRecord
2
0
70
0
6
CONTINUOUS
0
ENDTAB
0
TABLE
2
STYLE
5
3
100
AcDbSymbolTable
70
1
0
STYLE
5
11
100
AcDbSymbolTableRecord
100
AcDbTextStyleTableRecord
2
STANDARD
70
0
0
ENDTAB
0
TABLE
2
VIEW
5
6
100
AcDbSymbolTable
70
0
0
ENDTAB
0
TABLE
2
UCS
5
7
100
AcDbSymbolTable
70
0
0
ENDTAB
0
TABLE
2
APPID
5
9
100
AcDbSymbolTable
70
2
0
APPID
5
12
100
AcDbSymbolTableRecord
100
AcDbRegAppTableRecord
2
ACAD
70
0
0
ENDTAB
0
TABLE
2
DIMSTYLE
5
A
100
AcDbSymbolTable
70
1
0
ENDTAB
0
TABLE
2
BLOCK_RECORD
5
1
100
AcDbSymbolTable
70
1
0
BLOCK_RECORD
5
1F
100
AcDbSymbolTableRecord
100
AcDbBlockTableRecord
2
*MODEL_SPACE
0
BLOCK_RECORD
5
1B
100
AcDbSymbolTableRecord
100
AcDbBlockTableRecord
2
*PAPER_SPACE
0
ENDTAB
0
ENDSEC
0
SECTION
2
BLOCKS
0
BLOCK
5
20
100
AcDbEntity
100
AcDbBlockBegin
2
*MODEL_SPACE
0
ENDBLK
5
21
100
AcDbEntity
100
AcDbBlockEnd
0
BLOCK
5
1C
100
AcDbEntity
100
AcDbBlockBegin
2
*PAPER_SPACE
0
ENDBLK
5
1D
100
AcDbEntity
100
AcDbBlockEnd
0
ENDSEC
0
SECTION
2
ENTITIES
0
CIRCLE
5
100
100
AcDbEntity
8
0
100
AcDbCircle
10
70.321327667207385
20
-23.183430012145759
30
0
40
1.625
210
0
220
-0
230
1
0
CIRCLE
5
101
100
AcDbEntity
8
0
100
AcDbCircle
10
164.73593443919464
20
-21.559140886781005
30
0
40
1.625
210
0
220
-0
230
1
0
CIRCLE
5
102
100
AcDbEntity
8
0
100
AcDbCircle
10
180.28347667312275
20
-131.82828042871239
30
0
40
1.625
210
0
220
-0
230
1
0
CIRCLE
5
103
100
AcDbEntity
8
0
100
AcDbCircle
10
68.200007323647739
20
-76.199557790948091
30
0
40
1.625
210
0
220
-0
230
1
0
CIRCLE
5
104
100
AcDbEntity
8
0
100
AcDbCircle
10
112.22573139854876
20
-131.8251868971405
30
0
40
1.625
210
0
220
-0
230
1
0
CIRCLE
5
105
100
AcDbEntity
8
0
100
AcDbCircle
10
123.11848101240942
20
-21.559140886781005
30
0
40
1.625
210
0
220
-0
230
1
0
CIRCLE
5
106
100
AcDbEntity
8
0
100
AcDbCircle
10
202.55965791700078
20
-22.05231860321264
30
0
40
1.625
210
0
220
-0
230
1
0
CIRCLE
5
107
100
AcDbEntity
8
0
100
AcDbCircle
10
70.333004797240676
20
-129.70441589042247
30
0
40
1.625
210
0
220
-0
230
1
0
LWPOLYLINE
5
108
100
AcDbEntity
8
0
100
AcDbPolyline
90
28
70
1
43
0.0
10
112.76668854932565
20
-87.306660323950268
42
-0.3979623797982752
10
113.76597354154799
20
-88.24999661570601
10
116.53750342417958
20
-88.24999661570601
10
116.53750342417958
20
-102.25000339739005
10
113.8197040786545
20
-102.25000339739005
10
113.83857975005054
20
-107.29999661570602
10
121.30000342417958
20
-107.29999661570602
10
121.30000342417958
20
-121.30000339739006
10
102.53749664249555
20
-121.30000339739006
10
102.53749664249555
20
-107.29999661570602
10
97.487503424179565
20
-107.29999661570602
10
97.487503424179565
20
-121.30000339739006
10
81.106246642495563
20
-121.30000339739006
10
81.106246642495563
20
-107.29999661570602
10
81.423920249949447
20
-107.29999661570602
10
81.442795921345876
20
-102.25000339739005
10
81.106246642495563
20
-102.25000339739005
10
81.106246642495563
20
-88.24999661570601
10
81.496526458452053
20
-88.24999661570601
42
-0.39796237979830035
10
82.495811450674395
20
-87.30666032395024
10
89.231004382227667
20
-87.312665749566762
42
-0.2073677721912193
10
89.96041949829204
20
-87.629546014051726
10
90.304257920316488
20
-87.99713555731401
42
0.11525840842179372
10
90.682512561286543
20
-88.24999661570601
10
104.57998743871359
20
-88.24999661570601
42
0.11525840842178191
10
104.95824207968361
20
-87.99713555731401
10
105.30208050170802
20
-87.629546014051726
42
-0.20736777219119648
10
106.03149561777238
20
-87.312665749566762
0
LWPOLYLINE
5
109
100
AcDbEntity
8
0
100
AcDbPolyline
90
34
70
1
43
0.0
10
177.74581145067435
20
-122.24334324953082
42
-0.39796237979830001
10
176.74652645845202
20
-121.30000695777508
10
152.54374664249556
20
-121.30000695777508
10
152.54374664249556
20
-107.30000017609098
10
153.75575276635618
20
-107.30000017609098
10
153.75575276635618
20
-106.2999966157069
10
160.50574988414053
20
-106.2999966157069
10
160.50574988414053
20
-107.30000017609098
10
176.69279592134569
20
-107.30000017609098
10
176.67908646243825
20
-103.6321743777073
42
-0.41483458089569752
10
177.6774615576893
20
-102.62843795091774
10
178.73810951541361
20
-102.62672190577405
10
178.73750000896553
20
-102.25000001603782
10
178.73750000896553
20
-88.250000012537299
10
192.737500012466
20
-88.250000012537299
10
192.737500012466
20
-102.25000001603782
10
197.78750000896551
20
-102.25000001603782
10
197.78750000896551
20
-88.250000012537299
10
211.78750001246607
20
-88.250000012537299
10
211.78750001246607
20
-102.25000001603782
10
209.08857977599712
20
-102.25000001603782
10
209.06970407865427
20
-107.30000017609098
10
209.40625342417957
20
-107.30000017609098
10
209.40625342417957
20
-121.30000695777508
10
209.01597354154796
20
-121.30000695777508
42
-0.39796237979828519
10
208.01668854932561
20
-122.24334324953084
10
201.28149561777235
20
-122.23733782391429
42
-0.20736777219122068
10
200.55208050170796
20
-121.92045755942935
10
200.20824207968354
20
-121.55286801616708
42
0.11525840842179942
10
199.82998743871346
20
-121.30000695777505
10
185.93251256128642
20
-121.30000695777508
42
0.11525840842177892
10
185.55425792031642
20
-121.55286801616708
10
185.210419498292
20
-121.92045755942937
42
-0.20736777219119801
10
184.48100438222764
20
-122.23733782391433
0
LINE
5
110
100
AcDbEntity
8
0
100
AcDbLine
10
214.3123562616361
20
-129.79476163030003
30
0
11
214.3123562616361
21
-87.744280871030753
31
0
0
SPLINE
5
111
100
AcDbEntity
8
0
100
AcDbSpline
70
0
71
3
72
8
73
4
74
0
42
0.000000001
43
0.0000000001
44
0.0000000001
40
-12
40
-12
40
-12
40
-12
40
-11
40
-11
40
-11
40
-11
10
214.3123562616361
20
-87.744280871030753
30
0
10
214.3123562616361
20
-86.643998256484622
30
0
10
213.42360572087591
20
-85.750353472349758
30
0
10
212.32333969814962
20
-85.744311030227635
30
0
0
LINE
5
112
100
AcDbEntity
8
0
100
AcDbLine
10
212.32333969814962
20
-85.744311030227635
30
0
11
206.776516596824
21
-85.713848981179481
31
0
0
SPLINE
5
113
100
AcDbEntity
8
0
100
AcDbSpline
70
0
71
3
72
8
73
4
74
0
42
0.000000001
43
0.0000000001
44
0.0000000001
40
-10
40
-10
40
-10
40
-10
40
-9
40
-9
40
-9
40
-9
10
206.776516596824
20
-85.713848981179481
30
0
10
205.67625057409768
20
-85.707806539057401
30
0
10
204.78750003333755
20
-84.814161754922452
30
0
10
204.78750003333755
20
-83.713879140376349
30
0
0
LINE
5
114
100
AcDbEntity
8
0
100
AcDbLine
10
204.78750003333755
20
-83.713879140376378
30
0
11
204.78750003333755
21
-68.652925697886488
31
0
0
SPLINE
5
115
100
AcDbEntity
8
0
100
AcDbSpline
70
0
71
3
72
8
73
4
74
0
42
0.000000001
43
0.0000000001
44
0.0000000001
40
-8
40
-8
40
-8
40
-8
40
-7
40
-7
40
-7
40
-7
10
204.78750003333755
20
-68.652925697886488
30
0
10
204.78750003333755
20
-67.54835619822498
30
0
10
203.8920695329995
20
-66.6529256978869
30
0
10
202.78750003333801
20
-66.6529256978869
30
0
0
LINE
5
116
100
AcDbEntity
8
0
100
AcDbLine
10
202.78750003333801
20
-66.652925697886914
30
0
11
202.02500003333714
21
-66.6529256978869
31
0
0
SPLINE
5
117
100
AcDbEntity
8
0
100
AcDbSpline
70
0
71
3
72
8
73
4
74
0
42
0.000000001
43
0.0000000001
44
0.0000000001
40
-6
40
-6
40
-6
40
-6
40
-5
40
-5
40
-5
40
-5
10
202.02500003333714
20
-66.6529256978869
30
0
10
200.92043053367564
20
-66.6529256978869
30
0
10
200.02500003333753
20
-65.757495197548849
30
0
10
200.02500003333753
20
-64.652925697887383
30
0
0
LINE
5
118
100
AcDbEntity
8
0
100
AcDbLine
10
200.02500003333753
20
-64.652925697887383
30
0
11
200.02500003333753
21
-49.598481983118191
31
0
0
SPLINE
5
119
100
AcDbEntity
8
0
100
AcDbSpline
70
0
71
3
72
8
73
4
74
0
42
0.000000001
43
0.0000000001
44
0.0000000001
40
-4
40
-4
40
-4
40
-4
40
-3
40
-3
40
-3
40
-3
10
200.02500003333753
20
-49.598481983118191
30
0
10
200.02500003333753
20
-48.495649391434469
30
0
10
200.91772151845151
20
-47.600939989629225
30
0
10
202.020551381931
20
-47.598486930749132
30
0
0
LINE
5
120
100
AcDbEntity
8
0
100
AcDbLine
10
202.02055138193094
20
-47.598486930749118
30
0
11
207.55444868474422
21
-47.586177710288041
31
0
0
SPLINE
5
121
100
AcDbEntity
8
0
100
AcDbSpline
70
0
71
3
72
8
73
4
74
0
42
0.000000001
43
0.0000000001
44
0.0000000001
40
-2
40
-2
40
-2
40
-2
40
-1
40
-1
40
-1
40
-1
10
207.55444868474422
20
-47.586177710288041
30
0
10
208.65727854822356
20
-47.583724651408005
30
0
10
209.55000003333754
20
-46.689015249602747
30
0
10
209.55000003333754
20
-45.586182657918997
30
0
0
LINE
5
122
100
AcDbEntity
8
0
100
AcDbLine
10
209.55000003333754
20
-45.586182657919004
30
0
11
209.55000003333723
21
-14.552384489462167
31
0
0
ARC
5
123
100
AcDbEntity
8
0
100
AcDbCircle
10
207.55000003333723
20
-14.552384489462142
30
0
40
1.9999999999999929
210
-0
220
0
230
1
100
AcDbArc
50
0
51
90.009315272711277
0
LINE
5
124
100
AcDbEntity
8
0
100
AcDbLine
10
207.54967486897959
20
-12.552384515895113
30
0
11
72.198156722669182
21
-12.574390260910793
31
0
0
SPLINE
5
125
100
AcDbEntity
8
0
100
AcDbSpline
70
0
71
3
72
14
73
10
74
0
42
0.000000001
43
0.0000000001
44
0.0000000001
40
1
40
1
40
1
40
1
40
1.4056917656222692
40
1.4056917656222692
40
1.4056917656222692
40
1.8557403904303371
40
1.8557403904303371
40
1.8557403904303371
40
2
40
2
40
2
40
2
10
72.198156722669196
20
-12.574390260910802
30
0
10
69.548193009593035
20
-12.574803558951633
30
0
10
67.01831705326336
20
-13.467064662101819
30
0
10
65.022911597738243
20
-14.956960542458727
30
0
10
62.809335781585901
20
-16.609756208728534
30
0
10
61.185133620651243
20
-19.010610542485505
30
0
10
60.523214697764807
20
-21.804181578060231
30
0
10
60.311041701073414
20
-22.699639190154912
30
0
10
60.200014613957919
20
-23.632106142258465
30
0
10
60.200014613957919
20
-24.574404405148638
30
0
0
LINE
5
126
100
AcDbEntity
8
0
100
AcDbLine
10
60.200014613957919
20
-24.574404405148638
30
0
11
60.200014613957897
21
-127.82415297421326
31
0
0
SPLINE
5
127
100
AcDbEntity
8
0
100
AcDbSpline
70
0
71
3
72
17
73
13
74
0
42
0.000000001
43
0.0000000001
44
0.0000000001
40
3
40
3
40
3
40
3
40
3.4055415420587054
40
3.4055415420587054
40
3.4055415420587054
40
3.8555159146769427
40
3.8555159146769427
40
3.8555159146769427
40
4
40
4
40
4
40
4.0000043027558609
40
4.0000043027558609
40
4.0000043027558609
40
4.0000043027558609
10
60.200014613957919
20
-127.82415297421326
30
0
10
60.200014613957919
20
-130.47378185948813
30
0
10
61.091667895119613
20
-133.0035079938589
30
0
10
62.580880479252244
20
-134.99898430021875
30
0
10
64.233257433875693
20
-137.2130933517123
30
0
10
66.633833373495037
20
-138.83785893489761
30
0
10
69.427355355939881
20
-139.50038767826197
30
0
10
70.324338591040316
20
-139.71312170337598
30
0
10
71.25848906817221
20
-139.8243602372535
30
0
10
72.202484269139035
20
-139.82416704822253
30
0
10
72.20249377654342
20
-139.82416704627684
30
0
10
72.20250328334879
20
-139.82416704433126
30
0
10
72.202512790155183
20
-139.82416704238571
30
0
0
LINE
5
128
100
AcDbEntity
8
0
100
AcDbLine
10
72.202512790155183
20
-139.82416704238571
30
0
11
212.3127691533723
21
-139.79475488918115
31
0
0
ARC
5
129
100
AcDbEntity
8
0
100
AcDbCircle
10
212.31234931040979
20
-137.79475493324821
30
0
40
1.9999999999999607
210
-0
220
0
230
1
100
AcDbArc
50
-89.987972385006472
51
0
0
LINE
5
130
100
AcDbEntity
8
0
100
AcDbLine
10
214.31234931040976
20
-137.79475493324816
30
0
11
214.3123562616361
21
-129.79476163030003
31
0
0
LWPOLYLINE
5
131
100
AcDbEntity
8
0
100
AcDbPolyline
90
4
70
1
43
0.0
10
168.92500000174962
20
-45.100000001750082
10
168.92500000174962
20
-31.099999998249928
10
154.9249999982504
20
-31.099999998249928
10
154.9249999982504
20
-45.100000001750082
0
LWPOLYLINE
5
132
100
AcDbEntity
8
0
100
AcDbPolyline
90
4
70
1
43
0.0
10
116.82499999825011
20
-31.099999998249928
10
116.82499999825011
20
-45.100000001750082
10
130.82500000174994
20
-45.100000001750082
10
130.82500000174994
20
-31.099999998249928
0
LWPOLYLINE
5
133
100
AcDbEntity
8
0
100
AcDbPolyline
90
4
70
1
43
0.0
10
97.774999998250095
20
-31.099999998249928
10
97.774999998250095
20
-45.100000001750082
10
111.77500000174993
20
-45.100000001750082
10
111.77500000174993
20
-31.099999998249928
0
LWPOLYLINE
5
134
100
AcDbEntity
8
0
100
AcDbPolyline
90
4
70
1
43
0.0
10
183.50000000539379
20
-50.150000003012245
10
183.50000000539379
20
-64.150000006512769
10
197.50000000889366
20
-64.150000006512769
10
197.50000000889366
20
-50.150000003012245
0
LWPOLYLINE
5
135
100
AcDbEntity
8
0
100
AcDbPolyline
90
4
70
1
43
0.0
10
78.724999998250098
20
-45.100000001750082
10
92.725000001749919
20
-45.100000001750082
10
92.725000001749919
20
-31.099999998249928
10
78.724999998250098
20
-31.099999998249928
0
LWPOLYLINE
5
136
100
AcDbEntity
8
0
100
AcDbPolyline
90
4
70
1
43
0.0
10
83.487499999440757
20
-50.150000003012245
10
83.487499999440757
20
-64.150000006512769
10
97.487500002940635
20
-64.150000006512769
10
97.487500002940635
20
-50.150000003012245
0
LWPOLYLINE
5
137
100
AcDbEntity
8
0
100
AcDbPolyline
90
4
70
1
43
0.0
10
178.45000000889368
20
-64.150000006512769
10
178.45000000889368
20
-50.150000003012245
10
164.4500000053938
20
-50.150000003012245
10
164.4500000053938
20
-64.150000006512769
0
LWPOLYLINE
5
138
100
AcDbEntity
8
0
100
AcDbPolyline
90
4
70
1
43
0.0
10
107.30000000539378
20
-50.150000003012245
10
107.30000000539378
20
-64.150000006512769
10
121.30000000889366
20
-64.150000006512769
10
121.30000000889366
20
-50.150000003012245
0
LWPOLYLINE
5
139
100
AcDbEntity
8
0
100
AcDbPolyline
90
4
70
1
43
0.0
10
193.02499999825042
20
-31.099999998249928
10
193.02499999825042
20
-45.100000001750082
10
207.02500000174965
20
-45.100000001750082
10
207.02500000174965
20
-31.099999998249928
0
LWPOLYLINE
5
140
100
AcDbEntity
8
0
100
AcDbPolyline
90
4
70
1
43
0.0
10
126.3500000053938
20
-50.150000003012245
10
126.3500000053938
20
-64.150000006512769
10
140.35000000889369
20
-64.150000006512769
10
140.35000000889369
20
-50.150000003012245
0
LWPOLYLINE
5
141
100
AcDbEntity
8
0
100
AcDbPolyline
90
4
70
1
43
0.0
10
145.40000000539379
20
-50.150000003012245
10
145.40000000539379
20
-64.150000006512769
10
159.4000000088937
20
-64.150000006512769
10
159.4000000088937
20
-50.150000003012245
0
LWPOLYLINE
5
142
100
AcDbEntity
8
0
100
AcDbPolyline
90
4
70
1
43
0.0
10
135.87499999825008
20
-31.099999998249928
10
135.87499999825008
20
-45.100000001750082
10
149.87500000174961
20
-45.100000001750082
10
149.87500000174961
20
-31.099999998249928
0
LWPOLYLINE
5
143
100
AcDbEntity
8
0
100
AcDbPolyline
90
4
70
1
43
0.0
10
81.106246642495563
20
-83.200003397390049
10
99.868753424179573
20
-83.200003397390049
10
99.868753424179573
20
-69.199996615706354
10
81.106246642495563
20
-69.199996615706354
0
LWPOLYLINE
5
144
100
AcDbEntity
8
0
100
AcDbPolyline
90
4
70
1
43
0.0
10
173.97499999825041
20
-45.100000001750082
10
187.97500000174961
20
-45.100000001750082
10
187.97500000174961
20
-31.099999998249928
10
173.97499999825041
20
-31.099999998249928
0
LWPOLYLINE
5
145
100
AcDbEntity
8
0
100
AcDbPolyline
90
4
70
1
43
0.0
10
121.58750000896582
20
-88.250000012537299
10
121.58750000896582
20
-102.25000001603782
10
135.58750001246568
20
-102.25000001603782
10
135.58750001246568
20
-88.250000012537299
0
LWPOLYLINE
5
146
100
AcDbEntity
8
0
100
AcDbPolyline
90
4
70
1
43
0.0
10
169.21250000658478
20
-83.200000011275122
10
183.21250001008397
20
-83.200000011275122
10
183.21250001008397
20
-69.200000007774989
10
169.21250000658478
20
-69.200000007774989
0
LWPOLYLINE
5
147
100
AcDbEntity
8
0
100
AcDbPolyline
90
4
70
1
43
0.0
10
126.06250001008434
20
-83.200000011275122
10
126.06250001008434
20
-69.200000007774989
10
112.0625000065845
20
-69.200000007774989
10
112.0625000065845
20
-83.200000011275122
0
LWPOLYLINE
5
148
100
AcDbEntity
8
0
100
AcDbPolyline
90
4
70
1
43
0.0
10
164.16250001008396
20
-83.200000011275122
10
164.16250001008396
20
-69.200000007774989
10
150.16250000658482
20
-69.200000007774989
10
150.16250000658482
20
-83.200000011275122
0
LWPOLYLINE
5
149
100
AcDbEntity
8
0
100
AcDbPolyline
90
4
70
1
43
0.0
10
159.68750000896551
20
-102.25000001603782
10
173.68750001246596
20
-102.25000001603782
10
173.68750001246596
20
-88.250000012537299
10
159.68750000896551
20
-88.250000012537299
0
LWPOLYLINE
5
150
100
AcDbEntity
8
0
100
AcDbPolyline
90
4
70
1
43
0.0
10
140.6375000089655
20
-88.250000012537299
10
140.6375000089655
20
-102.25000001603782
10
154.63750001246598
20
-102.25000001603782
10
154.63750001246598
20
-88.250000012537299
0
LWPOLYLINE
5
151
100
AcDbEntity
8
0
100
AcDbPolyline
90
4
70
1
43
0.0
10
202.26250001008395
20
-83.200000011275122
10
202.26250001008395
20
-69.200000007774989
10
188.26250000658479
20
-69.200000007774989
10
188.26250000658479
20
-83.200000011275122
0
LWPOLYLINE
5
152
100
AcDbEntity
8
0
100
AcDbPolyline
90
4
70
1
43
0.0
10
145.11250001008398
20
-69.200000007774989
10
131.1125000065845
20
-69.200000007774989
10
131.1125000065845
20
-83.200000011275122
10
145.11250001008398
20
-83.200000011275122
0
LWPOLYLINE
5
153
100
AcDbEntity
8
0
100
AcDbPolyline
90
4
70
1
43
0.0
10
145.11250342417958
20
-107.29999661570602
10
128.73124664249556
20
-107.29999661570602
10
128.73124664249556
20
-121.30000339739006
10
145.11250342417958
20
-121.30000339739006
0
ENDSEC
0
SECTION
2
OBJECTS
0
DICTIONARY
5
C
100
AcDbDictionary
3
ACAD_GROUP
350
D
3
ACAD_MLINESTYLE
350
17
0
DICTIONARY
5
D
100
AcDbDictionary
0
DICTIONARY
5
1A
330
C
100
AcDbDictionary
0
DICTIONARY
5
17
100
AcDbDictionary
0
ENDSEC
0
EOF
