0
SECTION
2
HEADER
9
$INSUNITS
70
4
9
$ACADVER
1
AC1014
9
$HANDSEED
5
FFFF
0
ENDSEC
0
SECTION
2
TABLES
0
TABLE
2
VPORT
5
8
100
AcDbSymbolTable
0
ENDTAB
0
TABLE
2
LTYPE
5
5
100
AcDbSymbolTable
0
LTYPE
5
14
100
AcDbSymbolTableRecord
100
AcDbLinetypeTableRecord
2
BYBLOCK
70
0
0
LTYPE
5
15
100
AcDbSymbolTableRecord
100
AcDbLinetypeTableRecord
2
BYLAYER
70
0
0
ENDTAB
0
TABLE
2
LAYER
5
2
100
AcDbSymbolTable
70
2
0
LAYER
5
50
100
AcDbSymbolTableRecord
100
AcDbLayerTableRecord
2
0
70
0
6
CONTINUOUS
0
ENDTAB
0
TABLE
2
STYLE
5
3
100
AcDbSymbolTable
70
1
0
STYLE
5
11
100
AcDbSymbolTableRecord
100
AcDbTextStyleTableRecord
2
STANDARD
70
0
0
ENDTAB
0
TABLE
2
VIEW
5
6
100
AcDbSymbolTable
70
0
0
ENDTAB
0
TABLE
2
UCS
5
7
100
AcDbSymbolTable
70
0
0
ENDTAB
0
TABLE
2
APPID
5
9
100
AcDbSymbolTable
70
2
0
APPID
5
12
100
AcDbSymbolTableRecord
100
AcDbRegAppTableRecord
2
ACAD
70
0
0
ENDTAB
0
TABLE
2
DIMSTYLE
5
A
100
AcDbSymbolTable
70
1
0
ENDTAB
0
TABLE
2
BLOCK_RECORD
5
1
100
AcDbSymbolTable
70
1
0
BLOCK_RECORD
5
1F
100
AcDbSymbolTableRecord
100
AcDbBlockTableRecord
2
*MODEL_SPACE
0
BLOCK_RECORD
5
1B
100
AcDbSymbolTableRecord
100
AcDbBlockTableRecord
2
*PAPER_SPACE
0
ENDTAB
0
ENDSEC
0
SECTION
2
BLOCKS
0
BLOCK
5
20
100
AcDbEntity
100
AcDbBlockBegin
2
*MODEL_SPACE
0
ENDBLK
5
21
100
AcDbEntity
100
AcDbBlockEnd
0
BLOCK
5
1C
100
AcDbEntity
100
AcDbBlockBegin
2
*PAPER_SPACE
0
ENDBLK
5
1D
100
AcDbEntity
100
AcDbBlockEnd
0
ENDSEC
0
SECTION
2
ENTITIES
0
SPLINE
5
100
100
AcDbEntity
8
0
100
AcDbSpline
70
2
71
3
72
17
73
13
74
0
42
0.000000001
43
0.0000000001
44
0.0000000001
40
0
40
0
40
0
40
0
40
1
40
1
40
1
40
2
40
2
40
2
40
3
40
3
40
3
40
4
40
4
40
4
40
4
10
107.95991823146169
20
-24.449993934208489
30
0
10
107.95991823146169
20
-25.361263771378386
30
0
10
107.22118806863182
20
-26.099993934208268
30
0
10
106.30991823146158
20
-26.099993934208268
30
0
10
105.39864839429134
20
-26.099993934208268
30
0
10
104.65991823146149
20
-25.361263771378386
30
0
10
104.65991823146149
20
-24.449993934208489
30
0
10
104.65991823146149
20
-23.538724097038592
30
0
10
105.39864839429134
20
-22.799993934208356
30
0
10
106.30991823146158
20
-22.799993934208356
30
0
10
107.22118806863182
20
-22.799993934208356
30
0
10
107.95991823146169
20
-23.538724097038592
30
0
10
107.95991823146169
20
-24.449993934208489
30
0
0
SPLINE
5
101
100
AcDbEntity
8
0
100
AcDbSpline
70
2
71
3
72
17
73
13
74
0
42
0.000000001
43
0.0000000001
44
0.0000000001
40
0
40
0
40
0
40
0
40
1
40
1
40
1
40
2
40
2
40
2
40
3
40
3
40
3
40
4
40
4
40
4
40
4
10
183.17490231632627
20
-24.549299504677737
30
0
10
183.17490231632627
20
-25.460569341848309
30
0
10
182.4361721534963
20
-26.199299504677871
30
0
10
181.52490231632541
20
-26.199299504677871
30
0
10
180.61363247915585
20
-26.199299504677871
30
0
10
179.87490231632597
20
-25.460569341848309
30
0
10
179.87490231632597
20
-24.549299504677737
30
0
10
179.87490231632597
20
-23.63802966750848
30
0
10
180.61363247915585
20
-22.899299504677639
30
0
10
181.52490231632541
20
-22.899299504677639
30
0
10
182.4361721534963
20
-22.899299504677639
30
0
10
183.17490231632627
20
-23.63802966750848
30
0
10
183.17490231632627
20
-24.549299504677737
30
0
0
SPLINE
5
102
100
AcDbEntity
8
0
100
AcDbSpline
70
2
71
3
72
17
73
13
74
0
42
0.000000001
43
0.0000000001
44
0.0000000001
40
0
40
0
40
0
40
0
40
1
40
1
40
1
40
2
40
2
40
2
40
3
40
3
40
3
40
4
40
4
40
4
40
4
10
74.550003362880517
20
-127.12499059874361
30
0
10
74.550003362880517
20
-128.03626043591322
30
0
10
73.811273200050337
20
-128.7749905987431
30
0
10
72.90000336288044
20
-128.7749905987431
30
0
10
71.988733525709847
20
-128.7749905987431
30
0
10
71.250003362880307
20
-128.03626043591322
30
0
10
71.250003362880307
20
-127.12499059874361
30
0
10
71.250003362880307
20
-126.213720761574
30
0
10
71.988733525709847
20
-125.47499059874283
30
0
10
72.90000336288044
20
-125.47499059874283
30
0
10
73.811273200050337
20
-125.47499059874283
30
0
10
74.550003362880517
20
-126.213720761574
30
0
10
74.550003362880517
20
-127.12499059874361
30
0
0
SPLINE
5
103
100
AcDbEntity
8
0
100
AcDbSpline
70
2
71
3
72
17
73
13
74
0
42
0.000000001
43
0.0000000001
44
0.0000000001
40
0
40
0
40
0
40
0
40
1
40
1
40
1
40
2
40
2
40
2
40
3
40
3
40
3
40
4
40
4
40
4
40
4
10
74.550000000000253
20
-25.274993936621311
30
0
10
74.550000000000253
20
-26.186263773790923
30
0
10
73.811269837170045
20
-26.924993936620805
30
0
10
72.900000000000176
20
-26.924993936620805
30
0
10
71.988730162829583
20
-26.924993936620805
30
0
10
71.250000000000028
20
-26.186263773790923
30
0
10
71.250000000000028
20
-25.274993936621311
30
0
10
71.250000000000028
20
-24.363724099451733
30
0
10
71.988730162829583
20
-23.624993936621248
30
0
10
72.900000000000176
20
-23.624993936621248
30
0
10
73.811269837170045
20
-23.624993936621248
30
0
10
74.550000000000253
20
-24.363724099451733
30
0
10
74.550000000000253
20
-25.274993936621311
30
0
0
SPLINE
5
104
100
AcDbEntity
8
0
100
AcDbSpline
70
2
71
3
72
17
73
13
74
0
42
0.000000001
43
0.0000000001
44
0.0000000001
40
0
40
0
40
0
40
0
40
1
40
1
40
1
40
2
40
2
40
2
40
3
40
3
40
3
40
4
40
4
40
4
40
4
10
143.46250003333776
20
-127.80208348163626
30
0
10
143.46250003333776
20
-128.71335331880587
30
0
10
142.72376987050788
20
-129.45208348163575
30
0
10
141.81250003333764
20
-129.45208348163575
30
0
10
140.90123019616738
20
-129.45208348163575
30
0
10
140.16250003333752
20
-128.71335331880587
30
0
10
140.16250003333752
20
-127.80208348163626
30
0
10
140.16250003333752
20
-126.89081364446665
30
0
10
140.90123019616738
20
-126.15208348163684
30
0
10
141.81250003333764
20
-126.15208348163684
30
0
10
142.72376987050788
20
-126.15208348163684
30
0
10
143.46250003333776
20
-126.89081364446665
30
0
10
143.46250003333776
20
-127.80208348163626
30
0
0
SPLINE
5
105
100
AcDbEntity
8
0
100
AcDbSpline
70
2
71
3
72
17
73
13
74
0
42
0.000000001
43
0.0000000001
44
0.0000000001
40
0
40
0
40
0
40
0
40
1
40
1
40
1
40
2
40
2
40
2
40
3
40
3
40
3
40
4
40
4
40
4
40
4
10
207.20000003333783
20
-24.574993949122135
30
0
10
207.20000003333783
20
-25.486263786291712
30
0
10
206.46126987050792
20
-26.224993949121558
30
0
10
205.55000003333777
20
-26.224993949121558
30
0
10
204.63873019616696
20
-26.224993949121558
30
0
10
203.90000003333765
20
-25.486263786291712
30
0
10
203.90000003333765
20
-24.574993949122135
30
0
10
203.90000003333765
20
-23.663724111952558
30
0
10
204.63873019616696
20
-22.924993949122037
30
0
10
205.55000003333777
20
-22.924993949122037
30
0
10
206.46126987050792
20
-22.924993949122037
30
0
10
207.20000003333783
20
-23.663724111952558
30
0
10
207.20000003333783
20
-24.574993949122135
30
0
0
SPLINE
5
106
100
AcDbEntity
8
0
100
AcDbSpline
70
2
71
3
72
17
73
13
74
0
42
0.000000001
43
0.0000000001
44
0.0000000001
40
0
40
0
40
0
40
0
40
1
40
1
40
1
40
2
40
2
40
2
40
3
40
3
40
3
40
4
40
4
40
4
40
4
10
211.96250003333785
20
-127.80208348163626
30
0
10
211.96250003333785
20
-128.71335331880587
30
0
10
211.22376987050734
20
-129.45208348163575
30
0
10
210.31250003333778
20
-129.45208348163575
30
0
10
209.40123019616692
20
-129.45208348163575
30
0
10
208.66250003333764
20
-128.71335331880587
30
0
10
208.66250003333764
20
-127.80208348163626
30
0
10
208.66250003333764
20
-126.89081364446665
30
0
10
209.40123019616692
20
-126.15208348163684
30
0
10
210.31250003333778
20
-126.15208348163684
30
0
10
211.22376987050734
20
-126.15208348163684
30
0
10
211.96250003333785
20
-126.89081364446665
30
0
10
211.96250003333785
20
-127.80208348163626
30
0
0
LINE
5
107
100
AcDbEntity
8
0
100
AcDbLine
10
209.55000003333723
20
-28.55209012156573
30
0
11
209.55000003333723
21
-22.552391736962853
31
0
0
SPLINE
5
108
100
AcDbEntity
8
0
100
AcDbSpline
70
0
71
3
72
8
73
4
74
0
42
0.000000001
43
0.0000000001
44
0.0000000001
40
13
40
13
40
13
40
13
40
14
40
14
40
14
40
14
10
209.55000003333723
20
-22.552391736962853
30
0
10
209.55000003333723
20
-21.447700337494542
30
0
10
208.65438286618226
20
-20.552233893267129
30
0
10
207.54969146671399
20
-20.552384616194619
30
0
0
LINE
5
109
100
AcDbEntity
8
0
100
AcDbLine
10
207.54969146671399
20
-20.552384616194619
30
0
11
72.19940443193785
21
-20.574390163612151
31
0
0
SPLINE
5
110
100
AcDbEntity
8
0
100
AcDbSpline
70
0
71
3
72
8
73
4
74
0
42
0.000000001
43
0.0000000001
44
0.0000000001
40
1
40
1
40
1
40
1
40
2
40
2
40
2
40
2
10
72.199404431937865
20
-20.574390163612151
30
0
10
69.990495333630534
20
-20.574734673160791
30
0
10
68.200014613957919
20
-22.36549530684135
30
0
10
68.200014613957919
20
-24.574404405148638
30
0
0
LINE
5
111
100
AcDbEntity
8
0
100
AcDbLine
10
68.200014613957919
20
-24.574404405148638
30
0
11
68.200014613957904
21
-127.82415297421326
31
0
0
SPLINE
5
112
100
AcDbEntity
8
0
100
AcDbSpline
70
0
71
3
72
8
73
4
74
0
42
0.000000001
43
0.0000000001
44
0.0000000001
40
3
40
3
40
3
40
3
40
4
40
4
40
4
40
4
10
68.200014613957919
20
-127.82415297421326
30
0
10
68.200014613957919
20
-130.03362190053707
30
0
10
69.991378139348555
20
-131.82461938453233
30
0
10
72.200847065672676
20
-131.82416721574975
30
0
0
LINE
5
113
100
AcDbEntity
8
0
100
AcDbLine
10
72.200847065672676
20
-131.82416721574975
30
0
11
212.31277282657726
21
-131.79475471303707
31
0
0
SPLINE
5
114
100
AcDbEntity
8
0
100
AcDbSpline
70
0
71
3
72
8
73
4
74
0
42
0.000000001
43
0.0000000001
44
0.0000000001
40
5
40
5
40
5
40
5
40
6
40
6
40
6
40
6
10
212.3127728265772
20
-131.79475471303707
30
0
10
213.41718431203734
20
-131.7945393945692
30
0
10
214.31234931040976
20
-130.89915907772891
30
0
10
214.31234931040976
20
-129.79476912411565
30
0
0
LINE
5
115
100
AcDbEntity
8
0
100
AcDbLine
10
214.31234931040976
20
-129.79476912411562
30
0
11
214.31234931040976
21
-123.80209012156573
31
0
0
LINE
5
116
100
AcDbEntity
8
0
100
AcDbLine
10
214.31234931040976
20
-123.80209012156573
30
0
11
77.200165911948773
21
-123.82483410041903
31
0
0
SPLINE
5
117
100
AcDbEntity
8
0
100
AcDbSpline
70
0
71
3
72
8
73
4
74
0
42
0.000000001
43
0.0000000001
44
0.0000000001
40
8
40
8
40
8
40
8
40
9
40
9
40
9
40
9
10
77.200165911948744
20
-123.82483410041903
30
0
10
76.647816388976835
20
-123.82492572339245
30
0
10
76.200000033337588
20
-123.37718364474817
30
0
10
76.200000033337588
20
-122.82483411417729
30
0
0
LINE
5
118
100
AcDbEntity
8
0
100
AcDbLine
10
76.200000033337588
20
-122.82483411417728
30
0
11
76.200000033337574
21
-29.574839670253183
31
0
0
SPLINE
5
119
100
AcDbEntity
8
0
100
AcDbSpline
70
0
71
3
72
8
73
4
74
0
42
0.000000001
43
0.0000000001
44
0.0000000001
40
10
40
10
40
10
40
10
40
11
40
11
40
11
40
11
10
76.200000033337588
20
-29.574839670253183
30
0
10
76.200000033337588
20
-29.022617539620565
30
0
10
76.647617560655391
20
-28.574928231457744
30
0
10
77.199839684188532
20
-28.574839683108912
30
0
0
LINE
5
120
100
AcDbEntity
8
0
100
AcDbLine
10
77.199839684188532
20
-28.574839683108916
30
0
11
209.55000003333723
21
-28.55209012156573
31
0
0
ENDSEC
0
SECTION
2
OBJECTS
0
DICTIONARY
5
C
100
AcDbDictionary
3
ACAD_GROUP
350
D
3
ACAD_MLINESTYLE
350
17
0
DICTIONARY
5
D
100
AcDbDictionary
0
DICTIONARY
5
1A
330
C
100
AcDbDictionary
0
DICTIONARY
5
17
100
AcDbDictionary
0
ENDSEC
0
EOF
