0
SECTION
2
HEADER
9
$INSUNITS
70
4
9
$ACADVER
1
AC1014
9
$HANDSEED
5
FFFF
0
ENDSEC
0
SECTION
2
TABLES
0
TABLE
2
VPORT
5
8
100
AcDbSymbolTable
0
ENDTAB
0
TABLE
2
LTYPE
5
5
100
AcDbSymbolTable
0
LTYPE
5
14
100
AcDbSymbolTableRecord
100
AcDbLinetypeTableRecord
2
BYBLOCK
70
0
0
LTYPE
5
15
100
AcDbSymbolTableRecord
100
AcDbLinetypeTableRecord
2
BYLAYER
70
0
0
ENDTAB
0
TABLE
2
LAYER
5
2
100
AcDbSymbolTable
70
2
0
LAYER
5
50
100
AcDbSymbolTableRecord
100
AcDbLayerTableRecord
2
0
70
0
6
CONTINUOUS
0
ENDTAB
0
TABLE
2
STYLE
5
3
100
AcDbSymbolTable
70
1
0
STYLE
5
11
100
AcDbSymbolTableRecord
100
AcDbTextStyleTableRecord
2
STANDARD
70
0
0
ENDTAB
0
TABLE
2
VIEW
5
6
100
AcDbSymbolTable
70
0
0
ENDTAB
0
TABLE
2
UCS
5
7
100
AcDbSymbolTable
70
0
0
ENDTAB
0
TABLE
2
APPID
5
9
100
AcDbSymbolTable
70
2
0
APPID
5
12
100
AcDbSymbolTableRecord
100
AcDbRegAppTableRecord
2
ACAD
70
0
0
ENDTAB
0
TABLE
2
DIMSTYLE
5
A
100
AcDbSymbolTable
70
1
0
ENDTAB
0
TABLE
2
BLOCK_RECORD
5
1
100
AcDbSymbolTable
70
1
0
BLOCK_RECORD
5
1F
100
AcDbSymbolTableRecord
100
AcDbBlockTableRecord
2
*MODEL_SPACE
0
BLOCK_RECORD
5
1B
100
AcDbSymbolTableRecord
100
AcDbBlockTableRecord
2
*PAPER_SPACE
0
ENDTAB
0
ENDSEC
0
SECTION
2
BLOCKS
0
BLOCK
5
20
100
AcDbEntity
100
AcDbBlockBegin
2
*MODEL_SPACE
0
ENDBLK
5
21
100
AcDbEntity
100
AcDbBlockEnd
0
BLOCK
5
1C
100
AcDbEntity
100
AcDbBlockBegin
2
*PAPER_SPACE
0
ENDBLK
5
1D
100
AcDbEntity
100
AcDbBlockEnd
0
ENDSEC
0
SECTION
2
ENTITIES
0
CIRCLE
5
100
100
AcDbEntity
8
0
100
AcDbCircle
10
70.321327667207385
20
-23.183430012145759
30
0
40
1.625
210
0
220
-0
230
1
0
CIRCLE
5
101
100
AcDbEntity
8
0
100
AcDbCircle
10
164.73593443919464
20
-21.559140886781005
30
0
40
1.625
210
0
220
-0
230
1
0
CIRCLE
5
102
100
AcDbEntity
8
0
100
AcDbCircle
10
180.28347667312275
20
-131.82828042871239
30
0
40
1.625
210
0
220
-0
230
1
0
CIRCLE
5
103
100
AcDbEntity
8
0
100
AcDbCircle
10
68.200007323647739
20
-76.199557790948091
30
0
40
1.625
210
0
220
-0
230
1
0
CIRCLE
5
104
100
AcDbEntity
8
0
100
AcDbCircle
10
112.22573139854876
20
-131.8251868971405
30
0
40
1.625
210
0
220
-0
230
1
0
CIRCLE
5
105
100
AcDbEntity
8
0
100
AcDbCircle
10
123.11848101240942
20
-21.559140886781005
30
0
40
1.625
210
0
220
-0
230
1
0
CIRCLE
5
106
100
AcDbEntity
8
0
100
AcDbCircle
10
202.55965791700078
20
-22.05231860321264
30
0
40
1.625
210
0
220
-0
230
1
0
CIRCLE
5
107
100
AcDbEntity
8
0
100
AcDbCircle
10
70.333004797240676
20
-129.70441589042247
30
0
40
1.625
210
0
220
-0
230
1
0
LINE
5
108
100
AcDbEntity
8
0
100
AcDbLine
10
209.28188823583568
20
-13.552102902084535
30
0
11
72.198319304847985
21
-13.574390247694332
31
0
0
SPLINE
5
109
100
AcDbEntity
8
0
100
AcDbSpline
70
0
71
3
72
14
73
10
74
0
42
0.000000001
43
0.0000000001
44
0.0000000001
40
1
40
1
40
1
40
1
40
1.4056917656222692
40
1.4056917656222692
40
1.4056917656222692
40
1.8557403904303371
40
1.8557403904303371
40
1.8557403904303371
40
2
40
2
40
2
40
2
10
72.198312686327768
20
-13.574390248748468
30
0
10
69.772720976911657
20
-13.574768552910299
30
0
10
67.445287970483136
20
-14.396261970625373
30
0
10
65.621199061610596
20
-15.75824208509726
30
0
10
63.591713545334486
20
-17.273584293655095
30
0
10
62.103212245411214
20
-19.47320666290684
30
0
10
61.496272821234228
20
-22.0347415233026
30
0
10
61.301963970043467
20
-22.854805068661399
30
0
10
61.200014613957912
20
-23.710656704211086
30
0
10
61.200014613957912
20
-24.574404405148638
30
0
0
LINE
5
110
100
AcDbEntity
8
0
100
AcDbLine
10
61.200014613957912
20
-24.574404405148638
30
0
11
61.200014613957912
21
-127.82415297421326
31
0
0
SPLINE
5
111
100
AcDbEntity
8
0
100
AcDbSpline
70
0
71
3
72
23
73
19
74
0
42
0.000000001
43
0.0000000001
44
0.0000000001
40
3
40
3
40
3
40
3
40
3.4055415420587054
40
3.4055415420587054
40
3.4055415420587054
40
3.8555159146769427
40
3.8555159146769427
40
3.8555159146769427
40
3.9492142734926605
40
3.9492142734926605
40
3.9492142734926605
40
3.9912659825190624
40
3.9912659825190624
40
3.9912659825190624
40
3.9991291917298661
40
3.9991291917298661
40
3.9991291917298661
40
4.0000043027558609
40
4.0000043027558609
40
4.0000043027558609
40
4.0000043027558609
10
61.200014613957912
20
-127.82415297421326
30
0
10
61.200014613957912
20
-130.24943515037805
30
0
10
62.020950901928764
20
-132.57673655246356
30
0
10
63.382303743508722
20
-134.40088668986701
30
0
10
64.897266877990774
20
-136.43086754826021
30
0
10
67.096624720665773
20
-137.91987820697918
30
0
10
69.658120244257105
20
-138.52737813754823
30
0
10
70.190838233276281
20
-138.65372079103383
30
0
10
70.738686991516971
20
-138.74113230940802
30
0
10
71.293983870221055
20
-138.78687583830217
30
0
10
71.543200431339898
20
-138.80740547821486
30
0
10
71.793917948630508
20
-138.81954797211196
30
0
10
72.045451572710448
20
-138.82308135789216
30
0
10
72.092485606653057
20
-138.82374206234996
30
0
10
72.139548204101729
20
-138.8241017897611
30
0
10
72.186634929593268
20
-138.82415914197952
30
0
10
72.191875297940456
20
-138.82416552481348
30
0
10
72.200374605887319
20
-138.82416745902526
30
0
10
72.202308139668872
20
-138.8241670633266
30
0
0
LINE
5
112
100
AcDbEntity
8
0
100
AcDbLine
10
72.202308139668872
20
-138.8241670633266
30
0
11
214.04461000129686
21
-138.79439131654334
31
0
0
ARC
5
113
100
AcDbEntity
8
0
100
AcDbCircle
10
212.31234931040979
20
-137.79475493324821
30
0
40
1.9999999999999774
210
-0
220
0
230
1
100
AcDbArc
50
-29.987972384999466
51
0
0
LINE
5
114
100
AcDbEntity
8
0
100
AcDbLine
10
214.31234931040976
20
-137.79475493324816
30
0
11
214.31234931040976
21
-123.80209012156573
31
0
0
LINE
5
115
100
AcDbEntity
8
0
100
AcDbLine
10
214.31234931040976
20
-123.80209012156573
30
0
11
77.200165911948773
21
-123.82483410041903
31
0
0
SPLINE
5
116
100
AcDbEntity
8
0
100
AcDbSpline
70
0
71
3
72
8
73
4
74
0
42
0.000000001
43
0.0000000001
44
0.0000000001
40
8
40
8
40
8
40
8
40
9
40
9
40
9
40
9
10
77.200165911948744
20
-123.82483410041903
30
0
10
76.647816388976835
20
-123.82492572339245
30
0
10
76.200000033337588
20
-123.37718364474817
30
0
10
76.200000033337588
20
-122.82483411417729
30
0
0
LINE
5
117
100
AcDbEntity
8
0
100
AcDbLine
10
76.200000033337588
20
-122.82483411417728
30
0
11
76.200000033337574
21
-29.574839670253183
31
0
0
SPLINE
5
118
100
AcDbEntity
8
0
100
AcDbSpline
70
0
71
3
72
8
73
4
74
0
42
0.000000001
43
0.0000000001
44
0.0000000001
40
10
40
10
40
10
40
10
40
11
40
11
40
11
40
11
10
76.200000033337588
20
-29.574839670253183
30
0
10
76.200000033337588
20
-29.022617539620565
30
0
10
76.647617560655391
20
-28.574928231457744
30
0
10
77.199839684188532
20
-28.574839683108912
30
0
0
LINE
5
119
100
AcDbEntity
8
0
100
AcDbLine
10
77.199839684188532
20
-28.574839683108916
30
0
11
209.55000003333723
21
-28.55209012156573
31
0
0
LINE
5
120
100
AcDbEntity
8
0
100
AcDbLine
10
209.55000003333723
20
-28.55209012156573
30
0
11
209.55000003333723
21
-14.552384489462167
31
0
0
ARC
5
121
100
AcDbEntity
8
0
100
AcDbCircle
10
207.55000003333723
20
-14.552384489462142
30
0
40
1.9999999999999929
210
-0
220
0
230
1
100
AcDbArc
50
0
51
30.009315272710474
0
ENDSEC
0
SECTION
2
OBJECTS
0
DICTIONARY
5
C
100
AcDbDictionary
3
ACAD_GROUP
350
D
3
ACAD_MLINESTYLE
350
17
0
DICTIONARY
5
D
100
AcDbDictionary
0
DICTIONARY
5
1A
330
C
100
AcDbDictionary
0
DICTIONARY
5
17
100
AcDbDictionary
0
ENDSEC
0
EOF
