0
SECTION
2
HEADER
9
$INSUNITS
70
4
9
$ACADVER
1
AC1014
9
$HANDSEED
5
FFFF
0
ENDSEC
0
SECTION
2
TABLES
0
TABLE
2
VPORT
5
8
100
AcDbSymbolTable
0
ENDTAB
0
TABLE
2
LTYPE
5
5
100
AcDbSymbolTable
0
LTYPE
5
14
100
AcDbSymbolTableRecord
100
AcDbLinetypeTableRecord
2
BYBLOCK
70
0
0
LTYPE
5
15
100
AcDbSymbolTableRecord
100
AcDbLinetypeTableRecord
2
BYLAYER
70
0
0
ENDTAB
0
TABLE
2
LAYER
5
2
100
AcDbSymbolTable
70
2
0
LAYER
5
50
100
AcDbSymbolTableRecord
100
AcDbLayerTableRecord
2
0
70
0
6
CONTINUOUS
0
ENDTAB
0
TABLE
2
STYLE
5
3
100
AcDbSymbolTable
70
1
0
STYLE
5
11
100
AcDbSymbolTableRecord
100
AcDbTextStyleTableRecord
2
STANDARD
70
0
0
ENDTAB
0
TABLE
2
VIEW
5
6
100
AcDbSymbolTable
70
0
0
ENDTAB
0
TABLE
2
UCS
5
7
100
AcDbSymbolTable
70
0
0
ENDTAB
0
TABLE
2
APPID
5
9
100
AcDbSymbolTable
70
2
0
APPID
5
12
100
AcDbSymbolTableRecord
100
AcDbRegAppTableRecord
2
ACAD
70
0
0
ENDTAB
0
TABLE
2
DIMSTYLE
5
A
100
AcDbSymbolTable
70
1
0
ENDTAB
0
TABLE
2
BLOCK_RECORD
5
1
100
AcDbSymbolTable
70
1
0
BLOCK_RECORD
5
1F
100
AcDbSymbolTableRecord
100
AcDbBlockTableRecord
2
*MODEL_SPACE
0
BLOCK_RECORD
5
1B
100
AcDbSymbolTableRecord
100
AcDbBlockTableRecord
2
*PAPER_SPACE
0
ENDTAB
0
ENDSEC
0
SECTION
2
BLOCKS
0
BLOCK
5
20
100
AcDbEntity
100
AcDbBlockBegin
2
*MODEL_SPACE
0
ENDBLK
5
21
100
AcDbEntity
100
AcDbBlockEnd
0
BLOCK
5
1C
100
AcDbEntity
100
AcDbBlockBegin
2
*PAPER_SPACE
0
ENDBLK
5
1D
100
AcDbEntity
100
AcDbBlockEnd
0
ENDSEC
0
SECTION
2
ENTITIES
0
SPLINE
5
100
100
AcDbEntity
8
0
100
AcDbSpline
70
0
71
3
72
8
73
4
74
0
42
0.000000001
43
0.0000000001
44
0.0000000001
40
-8
40
-8
40
-8
40
-8
40
-7
40
-7
40
-7
40
-7
10
-168.43339452578252
20
-123.41566052926824
30
0
10
-168.98572750602159
20
-123.41572874860373
30
0
10
-169.43351803677984
20
-122.96799352159792
30
0
10
-169.43351803677984
20
-122.4156605371451
30
0
0
LINE
5
101
100
AcDbEntity
8
0
100
AcDbLine
10
-169.43351803677984
20
-122.4156605371451
30
0
11
-169.43351803677984
21
-28.215671085094449
31
0
0
SPLINE
5
102
100
AcDbEntity
8
0
100
AcDbSpline
70
0
71
3
72
8
73
4
74
0
42
0.000000001
43
0.0000000001
44
0.0000000001
40
-6
40
-6
40
-6
40
-6
40
-5
40
-5
40
-5
40
-5
10
-169.43351803677984
20
-28.215671085094449
30
0
10
-169.43351803677984
20
-27.663436291530417
30
0
10
-168.98588074843857
20
-27.215741736706356
30
0
10
-168.43364595939312
20
-27.215671093526623
30
0
0
LINE
5
103
100
AcDbEntity
8
0
100
AcDbLine
10
-168.43364595939309
20
-27.215671093526623
30
0
11
-131.38348863358607
21
-27.210931549801423
31
0
0
SPLINE
5
104
100
AcDbEntity
8
0
100
AcDbSpline
70
0
71
3
72
8
73
4
74
0
42
0.000000001
43
0.0000000001
44
0.0000000001
40
-4
40
-4
40
-4
40
-4
40
-3
40
-3
40
-3
40
-3
10
-131.38348863358607
20
-27.210931549801423
30
0
10
-130.8311539309604
20
-27.210860893840412
30
0
10
-130.38336071147287
20
-27.658596834224625
30
0
10
-130.38336071147287
20
-28.210931541369462
30
0
0
LINE
5
105
100
AcDbEntity
8
0
100
AcDbLine
10
-130.3833607114729
20
-28.210931541369465
30
0
11
-130.38336071147287
21
-122.41108442596273
31
0
0
SPLINE
5
106
100
AcDbEntity
8
0
100
AcDbSpline
70
0
71
3
72
8
73
4
74
0
42
0.000000001
43
0.0000000001
44
0.0000000001
40
-2
40
-2
40
-2
40
-2
40
-1
40
-1
40
-1
40
-1
10
-130.38336071147287
20
-122.41108442596273
30
0
10
-130.38336071147287
20
-122.96332094213051
30
0
10
-130.83100068802108
20
-123.41101621066423
30
0
10
-131.38323719997547
20
-123.41108441808589
30
0
0
LINE
5
107
100
AcDbEntity
8
0
100
AcDbLine
10
-131.38323719997547
20
-123.41108441808588
30
0
11
-168.43339452578252
21
-123.41566052926824
31
0
0
LINE
5
108
100
AcDbEntity
8
0
100
AcDbLine
10
11.747055217519147
20
-12.668212026958726
30
0
11
10.015004414241718
21
-12.668090100760327
31
0
0
LINE
5
109
100
AcDbEntity
8
0
100
AcDbLine
10
10.015004414241718
20
-12.668090100760327
30
0
11
-172.96012671547493
21
-12.690095656368662
31
0
0
SPLINE
5
110
100
AcDbEntity
8
0
100
AcDbSpline
70
0
71
3
72
14
73
10
74
0
42
0.000000001
43
0.0000000001
44
0.0000000001
40
6
40
6
40
6
40
6
40
6.4056917656224739
40
6.4056917656224739
40
6.4056917656224739
40
6.8557403904304559
40
6.8557403904304559
40
6.8557403904304559
40
7
40
7
40
7
40
7
10
-172.96012671547493
20
-12.690095656368662
30
0
10
-175.38571842455795
20
-12.690473960530497
30
0
10
-177.71315143078991
20
-13.511967378172914
30
0
10
-179.53724033949584
20
-14.873947492521239
30
0
10
-181.5667258555861
20
-16.389289700941291
30
0
10
-183.0552271553731
20
-18.588912069992393
30
0
10
-183.66216657949462
20
-21.150446930156161
30
0
10
-183.85647543066744
20
-21.97051047543999
30
0
10
-183.95842478674354
20
-22.826362110911703
30
0
10
-183.95842478674354
20
-23.690109811768814
30
0
0
LINE
5
111
100
AcDbEntity
8
0
100
AcDbLine
10
-183.95842478674354
20
-23.690109811768814
30
0
11
-183.95842478674354
21
-126.93985835502041
31
0
0
SPLINE
5
112
100
AcDbEntity
8
0
100
AcDbSpline
70
0
71
3
72
17
73
13
74
0
42
0.000000001
43
0.0000000001
44
0.0000000001
40
8
40
8
40
8
40
8
40
8.4055415420585824
40
8.4055415420585824
40
8.4055415420585824
40
8.855515914676829
40
8.855515914676829
40
8.855515914676829
40
9
40
9
40
9
40
9.0000053413210885
40
9.0000053413210885
40
9.0000053413210885
40
9.0000053413210885
10
-183.95842478674354
20
-126.93985835502041
30
0
10
-183.95842478674354
20
-129.36514053095999
30
0
10
-183.13748849884638
20
-131.69244193283919
30
0
10
-181.77613565739196
20
-133.51659207007503
30
0
10
-180.26117252304832
20
-135.54657292828355
30
0
10
-178.06181468057434
20
-137.03558358686718
30
0
10
-175.5003191572149
20
-137.64308351738183
30
0
10
-174.67886110453946
20
-137.83790552873029
30
0
10
-173.82146129203232
20
-137.94004953330304
30
0
10
-172.95615978299608
20
-137.93987244897059
30
0
10
-172.95612488526774
20
-137.93987244182875
30
0
10
-172.95608998726519
20
-137.93987243468683
30
0
10
-172.95605508909304
20
-137.93987242754494
30
0
0
LINE
5
113
100
AcDbEntity
8
0
100
AcDbLine
10
-172.95605508909304
20
-137.93987242754494
30
0
11
14.781001448456301
21
-137.91045994499413
31
0
0
LINE
5
114
100
AcDbEntity
8
0
100
AcDbLine
10
14.781001448456301
20
-137.91045994499413
30
0
11
16.51305228438688
21
-137.91050529549966
31
0
0
ARC
5
115
100
AcDbEntity
8
0
100
AcDbCircle
10
14.781027631583743
20
-136.91045989518466
30
0
40
2.0000000501522495
210
-0
220
0
230
1
100
AcDbArc
50
-30.001501012133815
51
0.008976454969423257
0
LINE
5
116
100
AcDbEntity
8
0
100
AcDbLine
10
16.78102760703873
20
-136.91014655779634
30
0
11
16.778909861274265
21
-123.3927955032599
31
0
0
LINE
5
117
100
AcDbEntity
8
0
100
AcDbLine
10
16.778909861274265
20
-123.3927955032599
30
0
11
-120.80831637555038
21
-123.40966110939013
31
0
0
SPLINE
5
118
100
AcDbEntity
8
0
100
AcDbSpline
70
0
71
3
72
8
73
4
74
0
42
0.000000001
43
0.0000000001
44
0.0000000001
40
13
40
13
40
13
40
13
40
14
40
14
40
14
40
14
10
-120.80831637555038
20
-123.40966110939013
30
0
10
-121.36064915844939
20
-123.40972904955443
30
0
10
-121.808439381151
20
-122.96199390428301
30
0
10
-121.808439381151
20
-122.4096611172053
30
0
0
LINE
5
119
100
AcDbEntity
8
0
100
AcDbLine
10
-121.808439381151
20
-122.4096611172053
30
0
11
-121.808439381151
21
-28.209528541116811
31
0
0
SPLINE
5
120
100
AcDbEntity
8
0
100
AcDbSpline
70
0
71
3
72
8
73
4
74
0
42
0.000000001
43
0.0000000001
44
0.0000000001
40
1
40
1
40
1
40
1
40
2
40
2
40
2
40
2
10
-121.808439381151
20
-28.209528541116811
30
0
10
-121.808439381151
20
-27.657293164750669
30
0
10
-121.3608011833195
20
-27.209598368458927
30
0
10
-120.80856581136709
20
-27.209528549359412
30
0
0
LINE
5
121
100
AcDbEntity
8
0
100
AcDbLine
10
-120.80856581136709
20
-27.209528549359415
30
0
11
12.016560585392391
21
-27.192795527310238
31
0
0
LINE
5
122
100
AcDbEntity
8
0
100
AcDbLine
10
12.016560585392391
20
-27.192795527310238
30
0
11
12.014934005654535
21
-13.667849567972079
31
0
0
ARC
5
123
100
AcDbEntity
8
0
100
AcDbCircle
10
10.01493402011825
20
-13.668090098282651
30
0
40
1.9999999999999905
210
0
220
-0
230
1
100
AcDbArc
50
0.006890685821907004
51
29.9959667138193
0
CIRCLE
5
124
100
AcDbEntity
8
0
100
AcDbCircle
10
5.0433413830711213
20
-130.93303179998085
30
0
40
1.6249999999999998
210
0
220
0
230
1
0
CIRCLE
5
125
100
AcDbEntity
8
0
100
AcDbCircle
10
-176.95843207705369
20
-75.31526317175522
30
0
40
1.6250000000000142
210
0
220
0
230
1
0
CIRCLE
5
126
100
AcDbEntity
8
0
100
AcDbCircle
10
-122.03995838829202
20
-20.674846267588141
30
0
40
1.6249999999999964
210
0
220
0
230
1
0
CIRCLE
5
127
100
AcDbEntity
8
0
100
AcDbCircle
10
-74.414870723302215
20
-20.179041042477699
30
0
40
1.6250000000000053
210
0
220
0
230
1
0
CIRCLE
5
128
100
AcDbEntity
8
0
100
AcDbCircle
10
-174.82543460346079
20
-128.8201212712296
30
0
40
1.6250000000000142
210
0
220
0
230
1
0
CIRCLE
5
129
100
AcDbEntity
8
0
100
AcDbCircle
10
-64.874962727578691
20
-130.94398580951952
30
0
40
1.6249999999999964
210
0
220
0
230
1
0
CIRCLE
5
130
100
AcDbEntity
8
0
100
AcDbCircle
10
-32.797417306921432
20
-20.179077665280701
30
0
40
1.6250000000000009
210
0
220
0
230
1
0
CIRCLE
5
131
100
AcDbEntity
8
0
100
AcDbCircle
10
-174.83711173349405
20
-22.299135392952895
30
0
40
1.6250000000000142
210
0
220
0
230
1
0
CIRCLE
5
132
100
AcDbEntity
8
0
100
AcDbCircle
10
5.0260290676968191
20
-20.430322547641158
30
0
40
1.6249999999999998
210
0
220
0
230
1
0
CIRCLE
5
133
100
AcDbEntity
8
0
100
AcDbCircle
10
-132.93270800215268
20
-130.94089227794763
30
0
40
1.6249999999999964
210
0
220
0
230
1
0
ENDSEC
0
SECTION
2
OBJECTS
0
DICTIONARY
5
C
100
AcDbDictionary
3
ACAD_GROUP
350
D
3
ACAD_MLINESTYLE
350
17
0
DICTIONARY
5
D
100
AcDbDictionary
0
DICTIONARY
5
1A
330
C
100
AcDbDictionary
0
DICTIONARY
5
17
100
AcDbDictionary
0
ENDSEC
0
EOF
