0
SECTION
2
HEADER
9
$INSUNITS
70
4
9
$ACADVER
1
AC1014
9
$HANDSEED
5
FFFF
0
ENDSEC
0
SECTION
2
TABLES
0
TABLE
2
VPORT
5
8
100
AcDbSymbolTable
0
ENDTAB
0
TABLE
2
LTYPE
5
5
100
AcDbSymbolTable
0
LTYPE
5
14
100
AcDbSymbolTableRecord
100
AcDbLinetypeTableRecord
2
BYBLOCK
70
0
0
LTYPE
5
15
100
AcDbSymbolTableRecord
100
AcDbLinetypeTableRecord
2
BYLAYER
70
0
0
ENDTAB
0
TABLE
2
LAYER
5
2
100
AcDbSymbolTable
70
2
0
LAYER
5
50
100
AcDbSymbolTableRecord
100
AcDbLayerTableRecord
2
0
70
0
6
CONTINUOUS
0
ENDTAB
0
TABLE
2
STYLE
5
3
100
AcDbSymbolTable
70
1
0
STYLE
5
11
100
AcDbSymbolTableRecord
100
AcDbTextStyleTableRecord
2
STANDARD
70
0
0
ENDTAB
0
TABLE
2
VIEW
5
6
100
AcDbSymbolTable
70
0
0
ENDTAB
0
TABLE
2
UCS
5
7
100
AcDbSymbolTable
70
0
0
ENDTAB
0
TABLE
2
APPID
5
9
100
AcDbSymbolTable
70
2
0
APPID
5
12
100
AcDbSymbolTableRecord
100
AcDbRegAppTableRecord
2
ACAD
70
0
0
ENDTAB
0
TABLE
2
DIMSTYLE
5
A
100
AcDbSymbolTable
70
1
0
ENDTAB
0
TABLE
2
BLOCK_RECORD
5
1
100
AcDbSymbolTable
70
1
0
BLOCK_RECORD
5
1F
100
AcDbSymbolTableRecord
100
AcDbBlockTableRecord
2
*MODEL_SPACE
0
BLOCK_RECORD
5
1B
100
AcDbSymbolTableRecord
100
AcDbBlockTableRecord
2
*PAPER_SPACE
0
ENDTAB
0
ENDSEC
0
SECTION
2
BLOCKS
0
BLOCK
5
20
100
AcDbEntity
100
AcDbBlockBegin
2
*MODEL_SPACE
0
ENDBLK
5
21
100
AcDbEntity
100
AcDbBlockEnd
0
BLOCK
5
1C
100
AcDbEntity
100
AcDbBlockBegin
2
*PAPER_SPACE
0
ENDBLK
5
1D
100
AcDbEntity
100
AcDbBlockEnd
0
ENDSEC
0
SECTION
2
ENTITIES
0
CIRCLE
5
100
100
AcDbEntity
8
0
100
AcDbCircle
10
70.321327667207385
20
-23.183430012145759
30
0
40
1.1000000000000001
210
0
220
-0
230
1
0
CIRCLE
5
101
100
AcDbEntity
8
0
100
AcDbCircle
10
164.73593443919464
20
-21.559140886781005
30
0
40
1.1000000000000001
210
0
220
-0
230
1
0
CIRCLE
5
102
100
AcDbEntity
8
0
100
AcDbCircle
10
180.28347667312275
20
-131.82828042871239
30
0
40
1.1000000000000001
210
0
220
-0
230
1
0
CIRCLE
5
103
100
AcDbEntity
8
0
100
AcDbCircle
10
68.200007323647739
20
-76.199557790948091
30
0
40
1.1000000000000001
210
0
220
-0
230
1
0
CIRCLE
5
104
100
AcDbEntity
8
0
100
AcDbCircle
10
112.22573139854876
20
-131.8251868971405
30
0
40
1.1000000000000001
210
0
220
-0
230
1
0
CIRCLE
5
105
100
AcDbEntity
8
0
100
AcDbCircle
10
123.11848101240942
20
-21.559140886781005
30
0
40
1.1000000000000001
210
0
220
-0
230
1
0
CIRCLE
5
106
100
AcDbEntity
8
0
100
AcDbCircle
10
202.55965791700078
20
-22.05231860321264
30
0
40
1.1000000000000001
210
0
220
-0
230
1
0
CIRCLE
5
107
100
AcDbEntity
8
0
100
AcDbCircle
10
70.333004797240676
20
-129.70441589042247
30
0
40
1.1000000000000001
210
0
220
-0
230
1
0
LINE
5
108
100
AcDbEntity
8
0
100
AcDbLine
10
209.55000003333723
20
-15.552547084859587
30
0
11
206.55000003333723
21
-15.552547084859587
31
0
0
LINE
5
109
100
AcDbEntity
8
0
100
AcDbLine
10
206.55000003333723
20
-15.552547084859587
30
0
11
72.198677845514851
21
-15.57439021612157
31
0
0
SPLINE
5
110
100
AcDbEntity
8
0
100
AcDbSpline
70
0
71
3
72
17
73
13
74
0
42
0.000000001
43
0.0000000001
44
0.0000000001
40
0.99999728352785788
40
0.99999728352785788
40
0.99999728352785788
40
0.99999728352785788
40
1
40
1
40
1
40
1.4056917656222692
40
1.4056917656222692
40
1.4056917656222692
40
1.8557403904303371
40
1.8557403904303371
40
1.8557403904303371
40
2
40
2
40
2
40
2
10
72.198677845514851
20
-15.57439021612157
30
0
10
72.198660101368304
20
-15.574390218889015
30
0
10
72.198642357472039
20
-15.574390221656415
30
0
10
72.198624613826055
20
-15.57439022442378
30
0
10
70.221776911548915
20
-15.574698540827638
30
0
10
68.299229804922689
20
-16.254656587672478
30
0
10
66.817773989355302
20
-17.360805170374327
30
0
10
65.156469072831641
20
-18.601240463508219
30
0
10
63.939369494931157
20
-20.398398903749513
30
0
10
63.442389068173085
20
-22.495861413787338
30
0
10
63.283808507983572
20
-23.165136825674367
30
0
10
63.200014613957912
20
-23.867757828116325
30
0
10
63.200014613957912
20
-24.574404405148638
30
0
0
LINE
5
111
100
AcDbEntity
8
0
100
AcDbLine
10
63.200014613957912
20
-24.574404405148638
30
0
11
63.200014613957912
21
-127.82415297421326
31
0
0
SPLINE
5
112
100
AcDbEntity
8
0
100
AcDbSpline
70
0
71
3
72
23
73
19
74
0
42
0.000000001
43
0.0000000001
44
0.0000000001
40
3
40
3
40
3
40
3
40
3.4055415420587054
40
3.4055415420587054
40
3.4055415420587054
40
3.8555159146769427
40
3.8555159146769427
40
3.8555159146769427
40
3.9700703667503028
40
3.9700703667503028
40
3.9700703667503028
40
3.991618734163398
40
3.991618734163398
40
3.991618734163398
40
3.9991562656465187
40
3.9991562656465187
40
3.9991562656465187
40
4.0000043027558609
40
4.0000043027558609
40
4.0000043027558609
40
4.0000043027558609
10
63.200014613957912
20
-127.82415297421326
30
0
10
63.200014613957912
20
-129.80074173215786
30
0
10
63.87951691554705
20
-131.72319366967284
30
0
10
64.985150272021684
20
-133.20469146916346
30
0
10
66.225285766220935
20
-134.86641594135614
30
0
10
68.022207415007259
20
-136.08391675114231
30
0
10
70.119650020891541
20
-136.58135905612079
30
0
10
70.651183893278372
20
-136.70742087727024
30
0
10
71.203818995988655
20
-136.78643775402614
30
0
10
71.762737190733091
20
-136.81355548962199
30
0
10
71.86787299642404
20
-136.81865649547075
30
0
10
71.973233371284635
20
-136.82192872411761
30
0
10
72.07872415904086
20
-136.82334994211021
30
0
10
72.115624408542288
20
-136.82384707839705
30
0
10
72.152540635163248
20
-136.82411775551503
30
0
10
72.189468877811748
20
-136.82416110141079
30
0
10
72.193623622666721
20
-136.82416597819682
30
0
10
72.200025118262261
20
-136.82416748866623
30
0
10
72.201898838696252
20
-136.82416710520843
30
0
0
LINE
5
113
100
AcDbEntity
8
0
100
AcDbLine
10
72.201898838696252
20
-136.82416710520843
30
0
11
211.31234931040973
21
-136.79496483270054
31
0
0
LINE
5
114
100
AcDbEntity
8
0
100
AcDbLine
10
211.31234931040973
20
-136.79496483270054
30
0
11
214.31234931040976
21
-136.79496483270054
31
0
0
LINE
5
115
100
AcDbEntity
8
0
100
AcDbLine
10
214.31234931040976
20
-136.79496483270054
30
0
11
214.31234931040976
21
-123.80209012156573
31
0
0
LINE
5
116
100
AcDbEntity
8
0
100
AcDbLine
10
214.31234931040976
20
-123.80209012156573
30
0
11
77.200165911948773
21
-123.82483410041903
31
0
0
SPLINE
5
117
100
AcDbEntity
8
0
100
AcDbSpline
70
0
71
3
72
8
73
4
74
0
42
0.000000001
43
0.0000000001
44
0.0000000001
40
8
40
8
40
8
40
8
40
9
40
9
40
9
40
9
10
77.200165911948744
20
-123.82483410041903
30
0
10
76.647816388976835
20
-123.82492572339245
30
0
10
76.200000033337588
20
-123.37718364474817
30
0
10
76.200000033337588
20
-122.82483411417729
30
0
0
LINE
5
118
100
AcDbEntity
8
0
100
AcDbLine
10
76.200000033337588
20
-122.82483411417728
30
0
11
76.200000033337574
21
-29.574839670253183
31
0
0
SPLINE
5
119
100
AcDbEntity
8
0
100
AcDbSpline
70
0
71
3
72
8
73
4
74
0
42
0.000000001
43
0.0000000001
44
0.0000000001
40
10
40
10
40
10
40
10
40
11
40
11
40
11
40
11
10
76.200000033337588
20
-29.574839670253183
30
0
10
76.200000033337588
20
-29.022617539620565
30
0
10
76.647617560655391
20
-28.574928231457744
30
0
10
77.199839684188532
20
-28.574839683108912
30
0
0
LINE
5
120
100
AcDbEntity
8
0
100
AcDbLine
10
77.199839684188532
20
-28.574839683108916
30
0
11
209.55000003333723
21
-28.55209012156573
31
0
0
LINE
5
121
100
AcDbEntity
8
0
100
AcDbLine
10
209.55000003333723
20
-28.55209012156573
30
0
11
209.55000003333723
21
-15.552547084859587
31
0
0
ENDSEC
0
SECTION
2
OBJECTS
0
DICTIONARY
5
C
100
AcDbDictionary
3
ACAD_GROUP
350
D
3
ACAD_MLINESTYLE
350
17
0
DICTIONARY
5
D
100
AcDbDictionary
0
DICTIONARY
5
1A
330
C
100
AcDbDictionary
0
DICTIONARY
5
17
100
AcDbDictionary
0
ENDSEC
0
EOF
