0
SECTION
2
HEADER
9
$INSUNITS
70
4
9
$ACADVER
1
AC1014
9
$HANDSEED
5
FFFF
0
ENDSEC
0
SECTION
2
TABLES
0
TABLE
2
VPORT
5
8
100
AcDbSymbolTable
0
ENDTAB
0
TABLE
2
LTYPE
5
5
100
AcDbSymbolTable
0
LTYPE
5
14
100
AcDbSymbolTableRecord
100
AcDbLinetypeTableRecord
2
BYBLOCK
70
0
0
LTYPE
5
15
100
AcDbSymbolTableRecord
100
AcDbLinetypeTableRecord
2
BYLAYER
70
0
0
ENDTAB
0
TABLE
2
LAYER
5
2
100
AcDbSymbolTable
70
2
0
LAYER
5
50
100
AcDbSymbolTableRecord
100
AcDbLayerTableRecord
2
0
70
0
6
CONTINUOUS
0
ENDTAB
0
TABLE
2
STYLE
5
3
100
AcDbSymbolTable
70
1
0
STYLE
5
11
100
AcDbSymbolTableRecord
100
AcDbTextStyleTableRecord
2
STANDARD
70
0
0
ENDTAB
0
TABLE
2
VIEW
5
6
100
AcDbSymbolTable
70
0
0
ENDTAB
0
TABLE
2
UCS
5
7
100
AcDbSymbolTable
70
0
0
ENDTAB
0
TABLE
2
APPID
5
9
100
AcDbSymbolTable
70
2
0
APPID
5
12
100
AcDbSymbolTableRecord
100
AcDbRegAppTableRecord
2
ACAD
70
0
0
ENDTAB
0
TABLE
2
DIMSTYLE
5
A
100
AcDbSymbolTable
70
1
0
ENDTAB
0
TABLE
2
BLOCK_RECORD
5
1
100
AcDbSymbolTable
70
1
0
BLOCK_RECORD
5
1F
100
AcDbSymbolTableRecord
100
AcDbBlockTableRecord
2
*MODEL_SPACE
0
BLOCK_RECORD
5
1B
100
AcDbSymbolTableRecord
100
AcDbBlockTableRecord
2
*PAPER_SPACE
0
ENDTAB
0
ENDSEC
0
SECTION
2
BLOCKS
0
BLOCK
5
20
100
AcDbEntity
100
AcDbBlockBegin
2
*MODEL_SPACE
0
ENDBLK
5
21
100
AcDbEntity
100
AcDbBlockEnd
0
BLOCK
5
1C
100
AcDbEntity
100
AcDbBlockBegin
2
*PAPER_SPACE
0
ENDBLK
5
1D
100
AcDbEntity
100
AcDbBlockEnd
0
ENDSEC
0
SECTION
2
ENTITIES
0
SPLINE
5
100
100
AcDbEntity
8
0
100
AcDbSpline
70
0
71
3
72
8
73
4
74
0
42
0.000000001
43
0.0000000001
44
0.0000000001
40
-8
40
-8
40
-8
40
-8
40
-7
40
-7
40
-7
40
-7
10
-168.43339452578252
20
-123.41566052926824
30
0
10
-168.98572750602159
20
-123.41572874860373
30
0
10
-169.43351803677984
20
-122.96799352159792
30
0
10
-169.43351803677984
20
-122.4156605371451
30
0
0
LINE
5
101
100
AcDbEntity
8
0
100
AcDbLine
10
-169.43351803677984
20
-122.4156605371451
30
0
11
-169.43351803677984
21
-28.215671085094449
31
0
0
SPLINE
5
102
100
AcDbEntity
8
0
100
AcDbSpline
70
0
71
3
72
8
73
4
74
0
42
0.000000001
43
0.0000000001
44
0.0000000001
40
-6
40
-6
40
-6
40
-6
40
-5
40
-5
40
-5
40
-5
10
-169.43351803677984
20
-28.215671085094449
30
0
10
-169.43351803677984
20
-27.663436291530417
30
0
10
-168.98588074843857
20
-27.215741736706356
30
0
10
-168.43364595939312
20
-27.215671093526623
30
0
0
LINE
5
103
100
AcDbEntity
8
0
100
AcDbLine
10
-168.43364595939309
20
-27.215671093526623
30
0
11
-131.38348863358607
21
-27.210931549801423
31
0
0
SPLINE
5
104
100
AcDbEntity
8
0
100
AcDbSpline
70
0
71
3
72
8
73
4
74
0
42
0.000000001
43
0.0000000001
44
0.0000000001
40
-4
40
-4
40
-4
40
-4
40
-3
40
-3
40
-3
40
-3
10
-131.38348863358607
20
-27.210931549801423
30
0
10
-130.8311539309604
20
-27.210860893840412
30
0
10
-130.38336071147287
20
-27.658596834224625
30
0
10
-130.38336071147287
20
-28.210931541369462
30
0
0
LINE
5
105
100
AcDbEntity
8
0
100
AcDbLine
10
-130.3833607114729
20
-28.210931541369465
30
0
11
-130.38336071147287
21
-122.41108442596273
31
0
0
SPLINE
5
106
100
AcDbEntity
8
0
100
AcDbSpline
70
0
71
3
72
8
73
4
74
0
42
0.000000001
43
0.0000000001
44
0.0000000001
40
-2
40
-2
40
-2
40
-2
40
-1
40
-1
40
-1
40
-1
10
-130.38336071147287
20
-122.41108442596273
30
0
10
-130.38336071147287
20
-122.96332094213051
30
0
10
-130.83100068802108
20
-123.41101621066423
30
0
10
-131.38323719997547
20
-123.41108441808589
30
0
0
LINE
5
107
100
AcDbEntity
8
0
100
AcDbLine
10
-131.38323719997547
20
-123.41108441808588
30
0
11
-168.43339452578252
21
-123.41566052926824
31
0
0
LINE
5
108
100
AcDbEntity
8
0
100
AcDbLine
10
12.015054270816375
20
-14.667849615196541
30
0
11
-172.95981478815773
21
-14.690095632044002
31
0
0
SPLINE
5
109
100
AcDbEntity
8
0
100
AcDbSpline
70
0
71
3
72
14
73
10
74
0
42
0.000000001
43
0.0000000001
44
0.0000000001
40
6
40
6
40
6
40
6
40
6.4056917656224739
40
6.4056917656224739
40
6.4056917656224739
40
6.8557403904304559
40
6.8557403904304559
40
6.8557403904304559
40
7
40
7
40
7
40
7
10
-172.95981478815773
20
-14.690095632044002
30
0
10
-174.93666248990249
20
-14.690403948447823
30
0
10
-176.85920959635081
20
-15.370361995220509
30
0
10
-178.34066541175065
20
-16.476510577797953
30
0
10
-180.00197032808865
20
-17.716945870794007
30
0
10
-181.2190699058529
20
-19.514104310834465
30
0
10
-181.71605033255565
20
-21.61156682064054
30
0
10
-181.87463089272728
20
-22.280842232452613
30
0
10
-181.95842478674354
20
-22.983463234816949
30
0
10
-181.95842478674354
20
-23.690109811768814
30
0
0
LINE
5
110
100
AcDbEntity
8
0
100
AcDbLine
10
-181.95842478674351
20
-23.690109811768814
30
0
11
-181.95842478674354
21
-126.93985835502041
31
0
0
SPLINE
5
111
100
AcDbEntity
8
0
100
AcDbSpline
70
0
71
3
72
17
73
13
74
0
42
0.000000001
43
0.0000000001
44
0.0000000001
40
8
40
8
40
8
40
8
40
8.4055415420585824
40
8.4055415420585824
40
8.4055415420585824
40
8.855515914676829
40
8.855515914676829
40
8.855515914676829
40
9
40
9
40
9
40
9.0000195860920265
40
9.0000195860920265
40
9.0000195860920265
40
9.0000195860920265
10
-181.95842478674354
20
-126.93985835502041
30
0
10
-181.95842478674354
20
-128.91644711273901
30
0
10
-181.27892248522733
20
-130.8388990500496
30
0
10
-180.17328912887879
20
-132.3203968493718
30
0
10
-178.93315363481781
20
-133.98212132137974
30
0
10
-177.13623198623276
20
-135.19962213103045
30
0
10
-175.03878938058006
20
-135.69706443595447
30
0
10
-174.36838169260693
20
-135.85606241980648
30
0
10
-173.66448320919585
20
-135.9400173657879
30
0
10
-172.95656908386266
20
-135.93987249085239
30
0
10
-172.95644111690939
20
-135.93987246466389
30
0
10
-172.95631315017323
20
-135.93987243847545
30
0
10
-172.95618518357605
20
-135.939872412287
30
0
0
LINE
5
112
100
AcDbEntity
8
0
100
AcDbLine
10
-172.95618518357603
20
-135.93987241228703
30
0
11
16.780870938344563
21
-135.91014657006892
31
0
0
LINE
5
113
100
AcDbEntity
8
0
100
AcDbLine
10
16.780870938344563
20
-135.91014657006892
30
0
11
16.778909861274265
21
-123.3927955032599
31
0
0
LINE
5
114
100
AcDbEntity
8
0
100
AcDbLine
10
16.778909861274265
20
-123.3927955032599
30
0
11
-120.80831637555038
21
-123.40966110939013
31
0
0
SPLINE
5
115
100
AcDbEntity
8
0
100
AcDbSpline
70
0
71
3
72
8
73
4
74
0
42
0.000000001
43
0.0000000001
44
0.0000000001
40
13
40
13
40
13
40
13
40
14
40
14
40
14
40
14
10
-120.80831637555038
20
-123.40966110939013
30
0
10
-121.36064915844939
20
-123.40972904955443
30
0
10
-121.808439381151
20
-122.96199390428301
30
0
10
-121.808439381151
20
-122.4096611172053
30
0
0
LINE
5
116
100
AcDbEntity
8
0
100
AcDbLine
10
-121.808439381151
20
-122.4096611172053
30
0
11
-121.808439381151
21
-28.209528541116811
31
0
0
SPLINE
5
117
100
AcDbEntity
8
0
100
AcDbSpline
70
0
71
3
72
8
73
4
74
0
42
0.000000001
43
0.0000000001
44
0.0000000001
40
1
40
1
40
1
40
1
40
2
40
2
40
2
40
2
10
-121.808439381151
20
-28.209528541116811
30
0
10
-121.808439381151
20
-27.657293164750669
30
0
10
-121.3608011833195
20
-27.209598368458927
30
0
10
-120.80856581136709
20
-27.209528549359412
30
0
0
LINE
5
118
100
AcDbEntity
8
0
100
AcDbLine
10
-120.80856581136709
20
-27.209528549359415
30
0
11
12.016560585392391
21
-27.192795527310238
31
0
0
LINE
5
119
100
AcDbEntity
8
0
100
AcDbLine
10
12.016560585392391
20
-27.192795527310238
30
0
11
12.015054270816375
21
-14.667849615196541
31
0
0
CIRCLE
5
120
100
AcDbEntity
8
0
100
AcDbCircle
10
-132.93270800215268
20
-130.94089227794763
30
0
40
1.0999999999999943
210
0
220
0
230
1
0
CIRCLE
5
121
100
AcDbEntity
8
0
100
AcDbCircle
10
5.0260290676968191
20
-20.430322547641158
30
0
40
1.0999999999999999
210
0
220
0
230
1
0
CIRCLE
5
122
100
AcDbEntity
8
0
100
AcDbCircle
10
-122.03995838829202
20
-20.674846267588141
30
0
40
1.0999999999999943
210
0
220
0
230
1
0
CIRCLE
5
123
100
AcDbEntity
8
0
100
AcDbCircle
10
-174.83711173349405
20
-22.299135392952895
30
0
40
1.1000000000000298
210
0
220
0
230
1
0
CIRCLE
5
124
100
AcDbEntity
8
0
100
AcDbCircle
10
-64.874962727578691
20
-130.94398580951952
30
0
40
1.0999999999999943
210
0
220
0
230
1
0
CIRCLE
5
125
100
AcDbEntity
8
0
100
AcDbCircle
10
-174.82543460346079
20
-128.8201212712296
30
0
40
1.1000000000000298
210
0
220
0
230
1
0
CIRCLE
5
126
100
AcDbEntity
8
0
100
AcDbCircle
10
-32.797417306921432
20
-20.179077665280701
30
0
40
1.0999999999999985
210
0
220
0
230
1
0
CIRCLE
5
127
100
AcDbEntity
8
0
100
AcDbCircle
10
-74.414870723302215
20
-20.179041042477699
30
0
40
1.1000000000000032
210
0
220
0
230
1
0
CIRCLE
5
128
100
AcDbEntity
8
0
100
AcDbCircle
10
-176.95843207705369
20
-75.31526317175522
30
0
40
1.1000000000000298
210
0
220
0
230
1
0
CIRCLE
5
129
100
AcDbEntity
8
0
100
AcDbCircle
10
5.0433413830711213
20
-130.93303179998085
30
0
40
1.0999999999999999
210
0
220
0
230
1
0
ENDSEC
0
SECTION
2
OBJECTS
0
DICTIONARY
5
C
100
AcDbDictionary
3
ACAD_GROUP
350
D
3
ACAD_MLINESTYLE
350
17
0
DICTIONARY
5
D
100
AcDbDictionary
0
DICTIONARY
5
1A
330
C
100
AcDbDictionary
0
DICTIONARY
5
17
100
AcDbDictionary
0
ENDSEC
0
EOF
