<?xml version="1.0" encoding="UTF-8" standalone="no"?>
<!-- Created with Inkscape (http://www.inkscape.org/) -->

<svg
   xmlns:dc="http://purl.org/dc/elements/1.1/"
   xmlns:cc="http://creativecommons.org/ns#"
   xmlns:rdf="http://www.w3.org/1999/02/22-rdf-syntax-ns#"
   xmlns:svg="http://www.w3.org/2000/svg"
   xmlns="http://www.w3.org/2000/svg"
   xmlns:sodipodi="http://sodipodi.sourceforge.net/DTD/sodipodi-0.dtd"
   xmlns:inkscape="http://www.inkscape.org/namespaces/inkscape"
   width="300mm"
   height="210mm"
   viewBox="0 0 300.00001 210"
   version="1.1"
   id="svg8"
   inkscape:version="0.92.4 (5da689c313, 2019-01-14)"
   sodipodi:docname="L6_macro.svg">
  <defs
     id="defs2">
    <marker
       style="overflow:visible"
       refY="0"
       refX="0"
       orient="auto"
       id="DistanceX">
      <path
         id="path12"
         style="stroke:#000000;stroke-width:0.5"
         d="M 3,-3 -3,3 M 0,-5 V 5"
         inkscape:connector-curvature="0" />
    </marker>
    <pattern
       y="0"
       x="0"
       width="8"
       patternUnits="userSpaceOnUse"
       id="Hatch"
       height="8">
      <path
         id="path15"
         stroke-width="0.25"
         stroke="#000000"
         linecap="square"
         d="M8 4 l-4,4" />
      <path
         id="path17"
         stroke-width="0.25"
         stroke="#000000"
         linecap="square"
         d="M6 2 l-4,4" />
      <path
         id="path19"
         stroke-width="0.25"
         stroke="#000000"
         linecap="square"
         d="M4 0 l-4,4" />
    </pattern>
    <symbol
       id="*MODEL_SPACE" />
    <symbol
       id="*PAPER_SPACE" />
    <marker
       style="overflow:visible"
       refY="0"
       refX="0"
       orient="auto"
       id="DistanceX-6">
      <path
         id="path111"
         style="stroke:#000000;stroke-width:0.5"
         d="M 3,-3 -3,3 M 0,-5 V 5"
         inkscape:connector-curvature="0" />
    </marker>
    <pattern
       y="0"
       x="0"
       width="8"
       patternUnits="userSpaceOnUse"
       id="Hatch-4"
       height="8">
      <path
         id="path114"
         stroke-width="0.25"
         stroke="#000000"
         linecap="square"
         d="M8 4 l-4,4" />
      <path
         id="path116"
         stroke-width="0.25"
         stroke="#000000"
         linecap="square"
         d="M6 2 l-4,4" />
      <path
         id="path118"
         stroke-width="0.25"
         stroke="#000000"
         linecap="square"
         d="M4 0 l-4,4" />
    </pattern>
    <symbol
       id="*MODEL_SPACE-4" />
    <symbol
       id="*PAPER_SPACE-1" />
    <marker
       style="overflow:visible"
       refY="0"
       refX="0"
       orient="auto"
       id="DistanceX-7">
      <path
         id="path210"
         style="stroke:#000000;stroke-width:0.5"
         d="M 3,-3 -3,3 M 0,-5 V 5"
         inkscape:connector-curvature="0" />
    </marker>
    <pattern
       y="0"
       x="0"
       width="8"
       patternUnits="userSpaceOnUse"
       id="Hatch-3"
       height="8">
      <path
         id="path213"
         stroke-width="0.25"
         stroke="#000000"
         linecap="square"
         d="M8 4 l-4,4" />
      <path
         id="path215"
         stroke-width="0.25"
         stroke="#000000"
         linecap="square"
         d="M6 2 l-4,4" />
      <path
         id="path217"
         stroke-width="0.25"
         stroke="#000000"
         linecap="square"
         d="M4 0 l-4,4" />
    </pattern>
    <symbol
       id="*MODEL_SPACE-9" />
    <symbol
       id="*PAPER_SPACE-3" />
    <marker
       style="overflow:visible"
       refY="0"
       refX="0"
       orient="auto"
       id="DistanceX-2">
      <path
         id="path1300"
         style="stroke:#000000;stroke-width:0.5"
         d="M 3,-3 -3,3 M 0,-5 V 5"
         inkscape:connector-curvature="0" />
    </marker>
    <pattern
       y="0"
       x="0"
       width="8"
       patternUnits="userSpaceOnUse"
       id="Hatch-49"
       height="8">
      <path
         id="path1303"
         stroke-width="0.25"
         stroke="#000000"
         linecap="square"
         d="M8 4 l-4,4" />
      <path
         id="path1305"
         stroke-width="0.25"
         stroke="#000000"
         linecap="square"
         d="M6 2 l-4,4" />
      <path
         id="path1307"
         stroke-width="0.25"
         stroke="#000000"
         linecap="square"
         d="M4 0 l-4,4" />
    </pattern>
    <symbol
       id="*MODEL_SPACE-1" />
    <symbol
       id="*PAPER_SPACE-9" />
    <marker
       style="overflow:visible"
       refY="0"
       refX="0"
       orient="auto"
       id="DistanceX-4">
      <path
         id="path1435"
         style="stroke:#000000;stroke-width:0.5"
         d="M 3,-3 -3,3 M 0,-5 V 5"
         inkscape:connector-curvature="0" />
    </marker>
    <pattern
       y="0"
       x="0"
       width="8"
       patternUnits="userSpaceOnUse"
       id="Hatch-8"
       height="8">
      <path
         id="path1438"
         stroke-width="0.25"
         stroke="#000000"
         linecap="square"
         d="M8 4 l-4,4" />
      <path
         id="path1440"
         stroke-width="0.25"
         stroke="#000000"
         linecap="square"
         d="M6 2 l-4,4" />
      <path
         id="path1442"
         stroke-width="0.25"
         stroke="#000000"
         linecap="square"
         d="M4 0 l-4,4" />
    </pattern>
    <symbol
       id="*MODEL_SPACE-98" />
    <symbol
       id="*PAPER_SPACE-7" />
    <marker
       style="overflow:visible"
       refY="0"
       refX="0"
       orient="auto"
       id="DistanceX-5">
      <path
         id="path1477"
         style="stroke:#000000;stroke-width:0.5"
         d="M 3,-3 -3,3 M 0,-5 V 5"
         inkscape:connector-curvature="0" />
    </marker>
    <pattern
       y="0"
       x="0"
       width="8"
       patternUnits="userSpaceOnUse"
       id="Hatch-47"
       height="8">
      <path
         id="path1480"
         stroke-width="0.25"
         stroke="#000000"
         linecap="square"
         d="M8 4 l-4,4" />
      <path
         id="path1482"
         stroke-width="0.25"
         stroke="#000000"
         linecap="square"
         d="M6 2 l-4,4" />
      <path
         id="path1484"
         stroke-width="0.25"
         stroke="#000000"
         linecap="square"
         d="M4 0 l-4,4" />
    </pattern>
    <symbol
       id="*MODEL_SPACE-2" />
    <symbol
       id="*PAPER_SPACE-92" />
    <marker
       style="overflow:visible"
       refY="0"
       refX="0"
       orient="auto"
       id="DistanceX-3">
      <path
         id="path1519"
         style="stroke:#000000;stroke-width:0.5"
         d="M 3,-3 -3,3 M 0,-5 V 5"
         inkscape:connector-curvature="0" />
    </marker>
    <pattern
       y="0"
       x="0"
       width="8"
       patternUnits="userSpaceOnUse"
       id="Hatch-44"
       height="8">
      <path
         id="path1522"
         stroke-width="0.25"
         stroke="#000000"
         linecap="square"
         d="M8 4 l-4,4" />
      <path
         id="path1524"
         stroke-width="0.25"
         stroke="#000000"
         linecap="square"
         d="M6 2 l-4,4" />
      <path
         id="path1526"
         stroke-width="0.25"
         stroke="#000000"
         linecap="square"
         d="M4 0 l-4,4" />
    </pattern>
    <symbol
       id="*MODEL_SPACE-25" />
    <symbol
       id="*PAPER_SPACE-8" />
    <marker
       style="overflow:visible"
       refY="0"
       refX="0"
       orient="auto"
       id="DistanceX-9">
      <path
         id="path5763"
         style="stroke:#000000;stroke-width:0.5"
         d="M 3,-3 -3,3 M 0,-5 V 5"
         inkscape:connector-curvature="0" />
    </marker>
    <pattern
       y="0"
       x="0"
       width="8"
       patternUnits="userSpaceOnUse"
       id="Hatch-0"
       height="8">
      <path
         id="path5766"
         stroke-width="0.25"
         stroke="#000000"
         linecap="square"
         d="M8 4 l-4,4" />
      <path
         id="path5768"
         stroke-width="0.25"
         stroke="#000000"
         linecap="square"
         d="M6 2 l-4,4" />
      <path
         id="path5770"
         stroke-width="0.25"
         stroke="#000000"
         linecap="square"
         d="M4 0 l-4,4" />
    </pattern>
    <symbol
       id="*MODEL_SPACE-0" />
    <symbol
       id="*PAPER_SPACE-91" />
    <marker
       style="overflow:visible"
       refY="0"
       refX="0"
       orient="auto"
       id="DistanceX-23">
      <path
         id="path220"
         style="stroke:#000000;stroke-width:0.5"
         d="M 3,-3 -3,3 M 0,-5 V 5"
         inkscape:connector-curvature="0" />
    </marker>
    <pattern
       y="0"
       x="0"
       width="8"
       patternUnits="userSpaceOnUse"
       id="Hatch-6"
       height="8">
      <path
         id="path223"
         stroke-width="0.25"
         stroke="#000000"
         linecap="square"
         d="M8 4 l-4,4" />
      <path
         id="path225"
         stroke-width="0.25"
         stroke="#000000"
         linecap="square"
         d="M6 2 l-4,4" />
      <path
         id="path227"
         stroke-width="0.25"
         stroke="#000000"
         linecap="square"
         d="M4 0 l-4,4" />
    </pattern>
    <symbol
       id="*MODEL_SPACE-97" />
    <symbol
       id="*PAPER_SPACE-80" />
    <marker
       style="overflow:visible"
       refY="0.0"
       refX="0.0"
       orient="auto"
       id="DistanceX-51">
      <path
         id="path1035"
         style="stroke:#000000; stroke-width:0.5"
         d="M 3,-3 L -3,3 M 0,-5 L  0,5" />
    </marker>
    <pattern
       y="0"
       x="0"
       width="8"
       patternUnits="userSpaceOnUse"
       id="Hatch-5"
       height="8">
      <path
         id="path1038"
         stroke-width="0.25"
         stroke="#000000"
         linecap="square"
         d="M8 4 l-4,4" />
      <path
         id="path1040"
         stroke-width="0.25"
         stroke="#000000"
         linecap="square"
         d="M6 2 l-4,4" />
      <path
         id="path1042"
         stroke-width="0.25"
         stroke="#000000"
         linecap="square"
         d="M4 0 l-4,4" />
    </pattern>
    <symbol
       id="*MODEL_SPACE-5" />
    <symbol
       id="*PAPER_SPACE-922" />
    <marker
       style="overflow:visible"
       refY="0.0"
       refX="0.0"
       orient="auto"
       id="DistanceX-41">
      <path
         id="path1242"
         style="stroke:#000000; stroke-width:0.5"
         d="M 3,-3 L -3,3 M 0,-5 L  0,5" />
    </marker>
    <pattern
       y="0"
       x="0"
       width="8"
       patternUnits="userSpaceOnUse"
       id="Hatch-54"
       height="8">
      <path
         id="path1245"
         stroke-width="0.25"
         stroke="#000000"
         linecap="square"
         d="M8 4 l-4,4" />
      <path
         id="path1247"
         stroke-width="0.25"
         stroke="#000000"
         linecap="square"
         d="M6 2 l-4,4" />
      <path
         id="path1249"
         stroke-width="0.25"
         stroke="#000000"
         linecap="square"
         d="M4 0 l-4,4" />
    </pattern>
    <symbol
       id="*MODEL_SPACE-28" />
    <symbol
       id="*PAPER_SPACE-99" />
    <marker
       style="overflow:visible"
       refY="0.0"
       refX="0.0"
       orient="auto"
       id="DistanceX-73">
      <path
         id="path1548"
         style="stroke:#000000; stroke-width:0.5"
         d="M 3,-3 L -3,3 M 0,-5 L  0,5" />
    </marker>
    <pattern
       y="0"
       x="0"
       width="8"
       patternUnits="userSpaceOnUse"
       id="Hatch-02"
       height="8">
      <path
         id="path1551"
         stroke-width="0.25"
         stroke="#000000"
         linecap="square"
         d="M8 4 l-4,4" />
      <path
         id="path1553"
         stroke-width="0.25"
         stroke="#000000"
         linecap="square"
         d="M6 2 l-4,4" />
      <path
         id="path1555"
         stroke-width="0.25"
         stroke="#000000"
         linecap="square"
         d="M4 0 l-4,4" />
    </pattern>
    <symbol
       id="*MODEL_SPACE-6" />
    <symbol
       id="*PAPER_SPACE-5" />
    <marker
       style="overflow:visible"
       refY="0.0"
       refX="0.0"
       orient="auto"
       id="DistanceX-52">
      <path
         id="path1863"
         style="stroke:#000000; stroke-width:0.5"
         d="M 3,-3 L -3,3 M 0,-5 L  0,5" />
    </marker>
    <pattern
       y="0"
       x="0"
       width="8"
       patternUnits="userSpaceOnUse"
       id="Hatch-2"
       height="8">
      <path
         id="path1866"
         stroke-width="0.25"
         stroke="#000000"
         linecap="square"
         d="M8 4 l-4,4" />
      <path
         id="path1868"
         stroke-width="0.25"
         stroke="#000000"
         linecap="square"
         d="M6 2 l-4,4" />
      <path
         id="path1870"
         stroke-width="0.25"
         stroke="#000000"
         linecap="square"
         d="M4 0 l-4,4" />
    </pattern>
    <symbol
       id="*MODEL_SPACE-3" />
    <symbol
       id="*PAPER_SPACE-6" />
    <marker
       style="overflow:visible"
       refY="0.0"
       refX="0.0"
       orient="auto"
       id="DistanceX-0">
      <path
         id="path2079"
         style="stroke:#000000; stroke-width:0.5"
         d="M 3,-3 L -3,3 M 0,-5 L  0,5" />
    </marker>
    <pattern
       y="0"
       x="0"
       width="8"
       patternUnits="userSpaceOnUse"
       id="Hatch-7"
       height="8">
      <path
         id="path2082"
         stroke-width="0.25"
         stroke="#000000"
         linecap="square"
         d="M8 4 l-4,4" />
      <path
         id="path2084"
         stroke-width="0.25"
         stroke="#000000"
         linecap="square"
         d="M6 2 l-4,4" />
      <path
         id="path2086"
         stroke-width="0.25"
         stroke="#000000"
         linecap="square"
         d="M4 0 l-4,4" />
    </pattern>
    <symbol
       id="*MODEL_SPACE-00" />
    <symbol
       id="*PAPER_SPACE-2" />
  </defs>
  <sodipodi:namedview
     id="base"
     pagecolor="#ffffff"
     bordercolor="#666666"
     borderopacity="1.0"
     inkscape:pageopacity="0.0"
     inkscape:pageshadow="2"
     inkscape:zoom="0.7"
     inkscape:cx="693.96658"
     inkscape:cy="279.26958"
     inkscape:document-units="mm"
     inkscape:current-layer="layer1"
     showgrid="false"
     units="mm"
     inkscape:window-width="2560"
     inkscape:window-height="1377"
     inkscape:window-x="1432"
     inkscape:window-y="637"
     inkscape:window-maximized="1" />
  <metadata
     id="metadata5">
    <rdf:RDF>
      <cc:Work
         rdf:about="">
        <dc:format>image/svg+xml</dc:format>
        <dc:type
           rdf:resource="http://purl.org/dc/dcmitype/StillImage" />
        <dc:title></dc:title>
      </cc:Work>
    </rdf:RDF>
  </metadata>
  <g
     inkscape:label="Layer 1"
     inkscape:groupmode="layer"
     id="layer1"
     transform="translate(0,-86.999992)">
    <g
       id="g2153"
       inkscape:label="0"
       transform="matrix(0.26458333,0,0,0.26458333,232.58878,-180.30386)">
      <path
         id="path2093"
         style="fill:none;stroke:#000000"
         d="m -636.59866,1588.9726 c -2.08755,2e-4 -3.77999,-1.692 -3.77999,-3.7796"
         inkscape:connector-curvature="0" />
      <path
         id="path2095"
         style="fill:none;stroke:#000000"
         d="M -640.37865,1585.193 V 1229.1616"
         inkscape:connector-curvature="0" />
      <path
         id="path2097"
         style="fill:none;stroke:#000000"
         d="m -640.37865,1229.1616 c 0,-2.0872 1.69186,-3.7793 3.77904,-3.7795"
         inkscape:connector-curvature="0" />
      <path
         id="path2099"
         style="fill:none;stroke:#000000"
         d="m -636.59961,1225.3821 140.03209,-0.018"
         inkscape:connector-curvature="0" />
      <path
         id="path2101"
         style="fill:none;stroke:#000000"
         d="m -496.56752,1225.3642 c 2.08757,-3e-4 3.78002,1.6919 3.78002,3.7795"
         inkscape:connector-curvature="0" />
      <path
         id="path2103"
         style="fill:none;stroke:#000000"
         d="m -492.7875,1229.1437 v 356.0321"
         inkscape:connector-curvature="0" />
      <path
         id="path2105"
         style="fill:none;stroke:#000000"
         d="m -492.7875,1585.1758 c 0,2.0871 -1.69187,3.7792 -3.77907,3.7795"
         inkscape:connector-curvature="0" />
      <path
         id="path2107"
         style="fill:none;stroke:#000000"
         d="m -496.56657,1588.9553 -140.03209,0.017"
         inkscape:connector-curvature="0" />
      <path
         id="path2109"
         style="fill:none;stroke:#000000"
         d="m 45.411229,1177.9572 -699.117619,0.084"
         inkscape:connector-curvature="0" />
      <path
         id="path2111"
         style="fill:none;stroke:#000000"
         d="m -653.70639,1178.0413 c -7.47155,0 -14.73787,2.5711 -20.33707,6.7518 -6.27895,4.6883 -10.87901,11.4807 -12.75736,19.4081 -0.59936,2.5295 -0.91606,5.1851 -0.91606,7.8559"
         inkscape:connector-curvature="0" />
      <path
         id="path2113"
         style="fill:none;stroke:#000000"
         d="m -687.71688,1212.0571 v 390.2353"
         inkscape:connector-curvature="0" />
      <path
         id="path2115"
         style="fill:none;stroke:#000000"
         d="m -687.71688,1602.2924 c 0,7.4706 2.5682,14.7365 6.74697,20.3359 4.68713,6.2805 11.47864,10.8821 19.40598,12.7622 2.53383,0.6009 5.19423,0.9182 7.86981,0.9177 4.8e-4,0 9.7e-4,0 10e-4,0"
         inkscape:connector-curvature="0" />
      <path
         id="path2117"
         style="fill:none;stroke:#000000"
         d="m -653.69267,1636.3082 717.116434,-0.1124"
         inkscape:connector-curvature="0" />
      <path
         id="path2119"
         style="fill:none;stroke:#000000"
         d="m 63.423764,1636.1958 -0.0074,-47.3096"
         inkscape:connector-curvature="0" />
      <path
         id="path2121"
         style="fill:none;stroke:#000000"
         d="m 63.416352,1588.8862 -520.014712,0.064"
         inkscape:connector-curvature="0" />
      <path
         id="path2123"
         style="fill:none;stroke:#000000"
         d="m -456.59836,1588.9499 c -2.08756,3e-4 -3.77999,-1.692 -3.77999,-3.7795"
         inkscape:connector-curvature="0" />
      <path
         id="path2125"
         style="fill:none;stroke:#000000"
         d="m -460.37835,1585.1704 v -356.032"
         inkscape:connector-curvature="0" />
      <path
         id="path2127"
         style="fill:none;stroke:#000000"
         d="m -460.37835,1229.1384 c 0,-2.0872 1.69186,-3.7793 3.77905,-3.7796"
         inkscape:connector-curvature="0" />
      <path
         id="path2129"
         style="fill:none;stroke:#000000"
         d="m -456.5993,1225.3588 502.016222,-0.063"
         inkscape:connector-curvature="0" />
      <path
         id="path2131"
         style="fill:none;stroke:#000000"
         d="m 45.416922,1225.2956 -0.0057,-47.3384"
         inkscape:connector-curvature="0" />
      <path
         id="path2133"
         style="fill:none;stroke:#000000"
         d="m -498.26535,1617.4144 a 4.1574805,4.1574805 0 1 0 -8.31496,0 4.1574805,4.1574805 0 1 0 8.31496,0 z"
         inkscape:connector-curvature="0" />
      <path
         id="path2135"
         style="fill:none;stroke:#000000"
         d="m 23.153496,1199.7367 a 4.1574805,4.1574805 0 1 0 -8.314961,0 4.1574805,4.1574805 0 1 0 8.314961,0 z"
         inkscape:connector-curvature="0" />
      <path
         id="path2137"
         style="fill:none;stroke:#000000"
         d="m -457.09591,1200.6608 a 4.15748,4.15748 0 1 0 -8.31496,0 4.15748,4.15748 0 1 0 8.31496,0 z"
         inkscape:connector-curvature="0" />
      <path
         id="path2139"
         style="fill:none;stroke:#000000"
         d="m -656.6442,1206.7999 a 4.15748,4.15748 0 1 0 -8.31496,0 4.15748,4.15748 0 1 0 8.31496,0 z"
         inkscape:connector-curvature="0" />
      <path
         id="path2141"
         style="fill:none;stroke:#000000"
         d="m -241.03923,1617.4261 a 4.1574805,4.1574805 0 1 0 -8.31496,0 4.1574805,4.1574805 0 1 0 8.31496,0 z"
         inkscape:connector-curvature="0" />
      <path
         id="path2143"
         style="fill:none;stroke:#000000"
         d="m -656.60007,1609.3989 a 4.15748,4.15748 0 1 0 -8.31496,0 4.15748,4.15748 0 1 0 8.31496,0 z"
         inkscape:connector-curvature="0" />
      <path
         id="path2145"
         style="fill:none;stroke:#000000"
         d="m -119.80126,1198.7871 a 4.1574805,4.1574805 0 1 0 -8.31496,0 4.1574805,4.1574805 0 1 0 8.31496,0 z"
         inkscape:connector-curvature="0" />
      <path
         id="path2147"
         style="fill:none;stroke:#000000"
         d="m -277.09557,1198.7869 a 4.1574805,4.1574805 0 1 0 -8.31496,0 4.1574805,4.1574805 0 1 0 8.31496,0 z"
         inkscape:connector-curvature="0" />
      <path
         id="path2149"
         style="fill:none;stroke:#000000"
         d="m -664.66179,1407.1758 a 4.15748,4.15748 0 1 0 -8.31496,0 4.15748,4.15748 0 1 0 8.31496,0 z"
         inkscape:connector-curvature="0" />
      <path
         id="path2151"
         style="fill:none;stroke:#000000"
         d="m 23.218928,1617.3847 a 4.1574805,4.1574805 0 1 0 -8.314961,0 4.1574805,4.1574805 0 1 0 8.314961,0 z"
         inkscape:connector-curvature="0" />
    </g>
  </g>
</svg>
