0
SECTION
2
HEADER
9
$INSUNITS
70
4
9
$ACADVER
1
AC1014
9
$HANDSEED
5
FFFF
0
ENDSEC
0
SECTION
2
TABLES
0
TABLE
2
VPORT
5
8
100
AcDbSymbolTable
0
ENDTAB
0
TABLE
2
LTYPE
5
5
100
AcDbSymbolTable
0
LTYPE
5
14
100
AcDbSymbolTableRecord
100
AcDbLinetypeTableRecord
2
BYBLOCK
70
0
0
LTYPE
5
15
100
AcDbSymbolTableRecord
100
AcDbLinetypeTableRecord
2
BYLAYER
70
0
0
ENDTAB
0
TABLE
2
LAYER
5
2
100
AcDbSymbolTable
70
2
0
LAYER
5
50
100
AcDbSymbolTableRecord
100
AcDbLayerTableRecord
2
0
70
0
6
CONTINUOUS
0
ENDTAB
0
TABLE
2
STYLE
5
3
100
AcDbSymbolTable
70
1
0
STYLE
5
11
100
AcDbSymbolTableRecord
100
AcDbTextStyleTableRecord
2
STANDARD
70
0
0
ENDTAB
0
TABLE
2
VIEW
5
6
100
AcDbSymbolTable
70
0
0
ENDTAB
0
TABLE
2
UCS
5
7
100
AcDbSymbolTable
70
0
0
ENDTAB
0
TABLE
2
APPID
5
9
100
AcDbSymbolTable
70
2
0
APPID
5
12
100
AcDbSymbolTableRecord
100
AcDbRegAppTableRecord
2
ACAD
70
0
0
ENDTAB
0
TABLE
2
DIMSTYLE
5
A
100
AcDbSymbolTable
70
1
0
ENDTAB
0
TABLE
2
BLOCK_RECORD
5
1
100
AcDbSymbolTable
70
1
0
BLOCK_RECORD
5
1F
100
AcDbSymbolTableRecord
100
AcDbBlockTableRecord
2
*MODEL_SPACE
0
BLOCK_RECORD
5
1B
100
AcDbSymbolTableRecord
100
AcDbBlockTableRecord
2
*PAPER_SPACE
0
ENDTAB
0
ENDSEC
0
SECTION
2
BLOCKS
0
BLOCK
5
20
100
AcDbEntity
100
AcDbBlockBegin
2
*MODEL_SPACE
0
ENDBLK
5
21
100
AcDbEntity
100
AcDbBlockEnd
0
BLOCK
5
1C
100
AcDbEntity
100
AcDbBlockBegin
2
*PAPER_SPACE
0
ENDBLK
5
1D
100
AcDbEntity
100
AcDbBlockEnd
0
ENDSEC
0
SECTION
2
ENTITIES
0
LWPOLYLINE
5
100
100
AcDbEntity
8
0
100
AcDbPolyline
90
74
70
1
43
0.0
10
98.216869726949568
20
126.18783528806264
42
-0.41421356237309509
10
99.216869726949568
20
125.18783528806266
10
99.216869726949554
20
120.07991199235036
42
0.41421356237309509
10
100.21686972694954
20
119.07991199235039
10
109.26686972694958
20
119.07991199235036
42
0.41421356237309509
10
110.26686972694958
20
120.07991199235036
10
110.26686972694958
20
125.18783528806266
42
-0.41421356237309509
10
111.26686972694957
20
126.18783528806264
10
125.07354368490061
20
126.18783528806264
42
0.043648353029487774
10
125.5943397169189
20
126.23338584814428
10
141.41312904642882
20
129.02184538406715
42
0.26807397278129724
10
143.71183686759116
20
130.95140555099084
42
-0.26809289248867091
10
146.01075328768076
20
132.88100248112988
10
161.73914530287811
20
135.65238222802333
42
0.40403267696283834
10
164.1894032644318
20
139.02409455823712
10
163.56401844671569
20
143.47712730236324
42
-0.41577733813138096
10
166.13349633993582
20
146.86738288250965
10
193.88216629321795
20
150.61353289643495
42
-0.37718264933129275
10
197.18095606958926
20
148.41828500694703
42
0.37375712756353835
10
200.44401444136483
20
146.21843156188262
10
214.2736474689531
20
147.91662930139924
42
-0.4142452276438181
10
217.61695808622954
20
145.30430847298669
10
217.73919218628373
20
144.30797877937434
42
0.37889432150424407
10
220.71686670673128
20
141.67329295960468
10
259.99330275732814
20
141.67329295960468
42
-0.41421356237309509
10
262.99330275732819
20
138.67329295960468
10
262.99330275732814
20
72.573292968848122
42
-0.41421356237309509
10
259.99330275732814
20
69.573292968848122
10
210.10584577037392
20
69.573292968848108
42
0.027010220705070486
10
209.78243165322908
20
69.555809240192076
10
189.94197924595997
20
67.404376753233791
42
0.016600883857604519
10
189.7448059300138
20
67.376346685023591
10
180.53894103672306
20
65.754251591434155
42
0.54864211657910988
10
178.60198778542966
20
61.079156837643005
10
183.59288905791377
20
53.950665627838383
42
-0.41418941201074233
10
182.85615955534294
20
49.772658274270576
10
159.83614241629232
20
33.652725745816767
42
-0.36072517686753386
10
156.01856100433824
20
33.964534978936015
42
0.33710260026648586
10
152.41383124391308
20
34.412409898013721
10
120.9612685360095
20
16.124443399600139
42
-0.13243244913769447
10
119.45330900572485
20
15.717907888468972
10
90.030430448174187
20
15.717907888468973
42
-0.13243244913769742
10
88.522470917889535
20
16.124443399600139
10
57.069908209985968
20
34.412409898013721
42
0.33710260026648192
10
53.465178449560767
20
33.96453497893603
42
-0.36072517686753225
10
49.647597037606737
20
33.652725745816774
10
26.6275798985561
20
49.772658274270583
42
-0.41418941201074011
10
25.890850395985261
20
53.950665627838376
10
30.88175166846937
20
61.079156837643026
42
0.54864211657911588
10
28.944798417175974
20
65.754251591434155
10
19.738933523885226
20
67.376346685023591
42
0.016600883857632556
10
19.541760207939056
20
67.404376753233791
10
-0.29869219933004976
20
69.555809240192076
42
0.027010220705019728
10
-0.62210631647488412
20
69.573292968848108
10
-50.509563303429097
20
69.573292968848122
42
-0.41421356237309243
10
-53.509563303429104
20
72.573292968848122
10
-53.50956330342914
20
138.67329295960468
42
-0.41421356237309509
10
-50.509563303429132
20
141.67329295960468
10
-11.23312725283224
20
141.67329295960468
42
0.37889432150423785
10
-8.2554527323846827
20
144.30797877937434
10
-8.1332186323304896
20
145.30430847298669
42
-0.41424522764381755
10
-4.789908015054074
20
147.91662930139924
10
9.0397250125342037
20
146.21843156188262
42
0.37375712756354318
10
12.30278338430978
20
148.41828500694703
42
-0.37718264933128948
10
15.60157316068107
20
150.61353289643495
10
43.350243113963209
20
146.86738288250962
42
-0.41577733813138001
10
45.919721007183334
20
143.47712730236321
10
45.294336189467259
20
139.02409455823712
42
0.40403267696284395
10
47.744594151020934
20
135.65238222802333
10
63.472986166218277
20
132.88100248112988
42
-0.26809289248866841
10
65.771902586307874
20
130.95140555099084
42
0.26807397278130013
10
68.070610407470213
20
129.02184538406715
10
83.889399736980138
20
126.23338584814427
42
0.04364835302949531
10
84.410195768998449
20
126.18783528806264
0
CIRCLE
5
101
100
AcDbEntity
8
0
100
AcDbCircle
10
94.309236713934013
20
32.424819365771988
30
0
40
0.99999999999999645
210
0
220
-0
230
1
0
CIRCLE
5
102
100
AcDbEntity
8
0
100
AcDbCircle
10
73.632914832750217
20
91.150288539017254
30
0
40
0.99999999999999645
210
0
220
-0
230
1
0
CIRCLE
5
103
100
AcDbEntity
8
0
100
AcDbCircle
10
135.4575779759586
20
61.376614800179851
30
0
40
0.99999999999999645
210
0
220
-0
230
1
0
CIRCLE
5
104
100
AcDbEntity
8
0
100
AcDbCircle
10
115.17493700569619
20
32.424819365771988
30
0
40
0.99999999999999645
210
0
220
-0
230
1
0
CIRCLE
5
105
100
AcDbEntity
8
0
100
AcDbCircle
10
135.85125888688
20
91.150288539017254
30
0
40
0.99999999999999645
210
0
220
-0
230
1
0
CIRCLE
5
106
100
AcDbEntity
8
0
100
AcDbCircle
10
74.026595743671621
20
61.376614800179851
30
0
40
0.99999999999999645
210
0
220
-0
230
1
0
CIRCLE
5
107
100
AcDbEntity
8
0
100
AcDbCircle
10
133.19910101040881
20
27.288720463762264
30
0
40
1.0000000000000142
210
0
220
0
230
1
0
CIRCLE
5
108
100
AcDbEntity
8
0
100
AcDbCircle
10
194.366147393745
20
143.45708318961059
30
0
40
1.0000000000000142
210
0
220
0
230
1
0
CIRCLE
5
109
100
AcDbEntity
8
0
100
AcDbCircle
10
115.74186972694953
20
122.68783528806266
30
0
40
0.99999999999999645
210
0
220
0
230
1
0
CIRCLE
5
110
100
AcDbEntity
8
0
100
AcDbCircle
10
259.49330275732814
20
73.073292968848108
30
0
40
0.99999999999997868
210
0
220
0
230
1
0
CIRCLE
5
111
100
AcDbEntity
8
0
100
AcDbCircle
10
-50.009563303429125
20
73.073292968848108
30
0
40
0.99999999999997868
210
0
220
0
230
1
0
CIRCLE
5
112
100
AcDbEntity
8
0
100
AcDbCircle
10
15.117592060154053
20
143.45708318961059
30
0
40
1.0000000000000142
210
0
220
0
230
1
0
CIRCLE
5
113
100
AcDbEntity
8
0
100
AcDbCircle
10
190.34111370782
20
73.34512131319957
30
0
40
1.0000000000000142
210
0
220
0
230
1
0
CIRCLE
5
114
100
AcDbEntity
8
0
100
AcDbCircle
10
93.741869726949503
20
122.68783528806266
30
0
40
0.99999999999999645
210
0
220
0
230
1
0
CIRCLE
5
115
100
AcDbEntity
8
0
100
AcDbCircle
10
-50.00956330342909
20
138.17329295960468
30
0
40
1.0000000000000142
210
0
220
0
230
1
0
CIRCLE
5
116
100
AcDbEntity
8
0
100
AcDbCircle
10
259.49330275732814
20
138.17329295960468
30
0
40
1.0000000000000142
210
0
220
0
230
1
0
CIRCLE
5
117
100
AcDbEntity
8
0
100
AcDbCircle
10
19.142625746079034
20
73.34512131319957
30
0
40
1.0000000000000142
210
0
220
0
230
1
0
CIRCLE
5
118
100
AcDbEntity
8
0
100
AcDbCircle
10
76.284638443490209
20
27.288720463762264
30
0
40
1.0000000000000142
210
0
220
0
230
1
0
ENDSEC
0
SECTION
2
OBJECTS
0
DICTIONARY
5
C
100
AcDbDictionary
3
ACAD_GROUP
350
D
3
ACAD_MLINESTYLE
350
17
0
DICTIONARY
5
D
100
AcDbDictionary
0
DICTIONARY
5
1A
330
C
100
AcDbDictionary
0
DICTIONARY
5
17
100
AcDbDictionary
0
ENDSEC
0
EOF
