0
SECTION
2
HEADER
9
$INSUNITS
70
4
9
$ACADVER
1
AC1014
9
$HANDSEED
5
FFFF
0
ENDSEC
0
SECTION
2
TABLES
0
TABLE
2
VPORT
5
8
100
AcDbSymbolTable
0
ENDTAB
0
TABLE
2
LTYPE
5
5
100
AcDbSymbolTable
0
LTYPE
5
14
100
AcDbSymbolTableRecord
100
AcDbLinetypeTableRecord
2
BYBLOCK
70
0
0
LTYPE
5
15
100
AcDbSymbolTableRecord
100
AcDbLinetypeTableRecord
2
BYLAYER
70
0
0
ENDTAB
0
TABLE
2
LAYER
5
2
100
AcDbSymbolTable
70
2
0
LAYER
5
50
100
AcDbSymbolTableRecord
100
AcDbLayerTableRecord
2
0
70
0
6
CONTINUOUS
0
ENDTAB
0
TABLE
2
STYLE
5
3
100
AcDbSymbolTable
70
1
0
STYLE
5
11
100
AcDbSymbolTableRecord
100
AcDbTextStyleTableRecord
2
STANDARD
70
0
0
ENDTAB
0
TABLE
2
VIEW
5
6
100
AcDbSymbolTable
70
0
0
ENDTAB
0
TABLE
2
UCS
5
7
100
AcDbSymbolTable
70
0
0
ENDTAB
0
TABLE
2
APPID
5
9
100
AcDbSymbolTable
70
2
0
APPID
5
12
100
AcDbSymbolTableRecord
100
AcDbRegAppTableRecord
2
ACAD
70
0
0
ENDTAB
0
TABLE
2
DIMSTYLE
5
A
100
AcDbSymbolTable
70
1
0
ENDTAB
0
TABLE
2
BLOCK_RECORD
5
1
100
AcDbSymbolTable
70
1
0
BLOCK_RECORD
5
1F
100
AcDbSymbolTableRecord
100
AcDbBlockTableRecord
2
*MODEL_SPACE
0
BLOCK_RECORD
5
1B
100
AcDbSymbolTableRecord
100
AcDbBlockTableRecord
2
*PAPER_SPACE
0
ENDTAB
0
ENDSEC
0
SECTION
2
BLOCKS
0
BLOCK
5
20
100
AcDbEntity
100
AcDbBlockBegin
2
*MODEL_SPACE
0
ENDBLK
5
21
100
AcDbEntity
100
AcDbBlockEnd
0
BLOCK
5
1C
100
AcDbEntity
100
AcDbBlockBegin
2
*PAPER_SPACE
0
ENDBLK
5
1D
100
AcDbEntity
100
AcDbBlockEnd
0
ENDSEC
0
SECTION
2
ENTITIES
0
LWPOLYLINE
5
100
100
AcDbEntity
8
0
100
AcDbPolyline
90
168
70
1
43
0.0
10
111.26686972694957
20
119.0799119923504
42
-0.41421356237309509
10
110.26686972694958
20
120.07991199235039
10
110.26686972694959
20
126.6878352880627
42
-0.41421356237309509
10
111.26686972694957
20
127.68783528806267
10
125.07354368490064
20
127.68783528806267
42
0.043648353029527187
10
125.33394170090975
20
127.71061056810346
10
141.15273103041972
20
130.49907010402634
42
0.2680739727813225
10
142.30208494100089
20
131.46385018748819
42
-0.2680928924886759
10
145.75045957113531
20
134.35824558269678
10
161.47885158633267
20
137.12962532959023
42
0.40403267696283085
10
162.70398056710948
20
138.81548149469711
10
162.0785957493934
20
143.2685142388232
42
-0.41577733813137224
10
165.93281258922349
20
148.35389760904286
10
193.68148254250571
20
152.10004762296813
42
-0.37718264933129669
10
198.62966720706268
20
148.80717578873626
42
0.37375712756353868
10
200.26119639295047
20
147.7072490662041
10
214.09082942053874
20
149.40544680572071
42
-0.41424522764381227
10
219.10579534645339
20
145.4869655631019
10
219.22802944650755
20
144.49063586948949
42
0.37889432150422392
10
220.71686670673131
20
143.17329295960474
10
259.99330275732814
20
143.17329295960468
42
-0.41421356237308926
10
264.49330275732819
20
138.67329295960471
10
264.49330275732825
20
72.573292968848136
42
-0.41421356237310136
10
259.99330275732814
20
68.073292968848136
10
210.105845770374
20
68.073292968848122
42
0.027010220705113514
10
209.94413871180166
20
68.06455110452012
10
190.10368630453243
20
65.913118617561835
42
0.016600883857630047
10
190.00509964655933
20
65.899103583456736
10
180.79923475326862
20
64.277008489867285
42
0.54864211657914153
10
179.83075812762192
20
61.939461112971713
10
184.82165940010606
20
54.810969903167077
42
-0.41418941201075038
10
183.71656514624974
20
48.543958872815367
10
160.69654800719917
20
32.424026344361593
42
-0.36072517686753636
10
154.97017588926803
20
32.891740194040466
42
0.3371026002664741
10
153.16781100905544
20
33.115677653579326
10
121.71524830115189
20
14.82771115516573
42
-0.13243244913769683
10
119.45330900572489
20
14.217907888468986
10
90.030430448174258
20
14.217907888468984
42
-0.13243244913769525
10
87.768491152747259
20
14.827711155165739
10
56.315928444843706
20
33.115677653579304
42
0.3371026002664797
10
54.513563564631113
20
32.891740194040452
42
-0.36072517686753336
10
48.7871914467
20
32.424026344361586
10
25.76717430764937
20
48.543958872815345
42
-0.41418941201074994
10
24.662080053793069
20
54.810969903167113
10
29.652981326277256
20
61.939461112971713
42
0.54864211657912931
10
28.684504700630534
20
64.277008489867299
10
19.478639807339793
20
65.899103583456736
42
0.016600883857516648
10
19.380053149366717
20
65.913118617561835
10
-0.46039925790241903
20
68.064551104520092
42
0.027010220705159887
10
-0.62210631647483972
20
68.073292968848136
10
-50.509563303429054
20
68.073292968848165
42
-0.41421356237309964
10
-55.009563303429061
20
72.573292968848165
10
-55.009563303429076
20
138.67329295960471
42
-0.41421356237308748
10
-50.509563303429104
20
143.17329295960471
10
-11.23312725283216
20
143.17329295960474
42
0.37889432150423369
10
-9.7442899926083815
20
144.49063586948955
10
-9.6220558925542345
20
145.48696556310188
42
-0.41424522764381427
10
-4.6070899666395615
20
149.40544680572069
10
9.2225430609486825
20
147.7072490662041
42
0.37375712756354551
10
10.854072246836445
20
148.80717578873629
42
-0.37718264933130496
10
15.802256911393533
20
152.10004762296816
10
43.55092686467556
20
148.35389760904286
42
-0.41577733813137452
10
47.405143704505718
20
143.26851423882323
10
46.779758886789658
20
138.81548149469711
42
0.40403267696284489
10
48.004887867566495
20
137.12962532959023
10
63.73327988276386
20
134.35824558269678
42
-0.26809289248867579
10
67.181654512898263
20
131.46385018748819
42
0.26807397278129746
10
68.331008423479432
20
130.49907010402637
10
84.149797752989372
20
127.71061056810348
42
0.043648353029507481
10
84.410195768998506
20
127.68783528806267
10
98.216869726949568
20
127.68783528806267
42
-0.41421356237309509
10
99.216869726949568
20
126.68783528806267
10
99.216869726949568
20
120.07991199235038
42
-0.41421356237309509
10
98.216869726949568
20
119.07991199235039
10
84.235269090294565
20
119.07991199235036
42
-0.043648353029245572
10
84.06167041295511
20
119.0950955123776
10
57.992551885663616
20
123.6904334131688
42
-0.41419768239977955
10
57.18132467231775
20
124.84879517552019
10
57.355237663169063
20
125.83570771943627
42
0.41421836191826306
10
56.543940916847433
20
126.99408173619278
10
37.970357663077131
20
130.26679088579959
42
-0.40403267696281081
10
37.153605009225899
20
131.39069499587086
10
38.288650997545659
20
139.47275392805881
42
0.41577733813139167
10
37.432158366472279
20
140.60283912144098
10
19.593727682219228
20
143.01107841610727
42
0.41265151385995058
10
18.469656716862815
20
142.159143974112
10
18.033224481534965
20
139.05154209531591
42
-0.40914235314325587
10
16.921063984377128
20
138.19807246812846
10
-0.67979734014179583
20
140.35935490094627
42
0.41424522764380695
10
-1.794234212567245
20
139.48858129147541
10
-2.2772499808060234
20
135.55152156619462
42
-0.37889432150424107
10
-3.269808154288496
20
134.67329295960477
10
-45.509563303429019
20
134.67329295960474
42
0.41421356237310281
10
-46.509563303429012
20
133.67329295960474
10
-46.509563303429012
20
77.573292968848136
42
0.4142135623731002
10
-45.509563303428997
20
76.573292968848136
10
-8.4596359701003632
20
76.573292968848151
42
0.41420291907852036
10
-7.4596359707606208
20
77.57325663023073
10
-7.4594923624477865
20
81.525204254777435
42
-0.45045906021983023
10
-6.3376136641651026
20
82.517712919041003
10
10.104898163333553
20
80.498669003578428
42
0.41409013117380916
10
11.219270412595188
20
81.368917021313365
10
11.598026540530817
20
84.442688739159877
42
-0.41761158809264953
10
12.72430925799104
20
85.311401571702589
10
28.475154955319937
20
83.184992236490345
42
-0.4260483883165137
10
29.326191678863694
20
82.020437136422956
10
27.922978562703559
20
74.057555126591595
42
0.41421836191825867
10
28.734275309025222
20
72.899181109835069
10
44.073446761447535
20
70.196382943544933
42
-0.548642116579098
10
44.719097845212062
20
68.638018025614542
10
34.4925564651926
20
54.031475769192276
42
0.41418941201074422
10
34.738132966049548
20
52.638806651336338
10
49.482193767244233
20
42.314172057233641
42
0.41422452131325288
10
50.874951890212408
20
42.559731913359329
10
53.154435855594777
20
45.815200799897688
42
-0.38889246925083348
10
54.473628036847963
20
46.107631308904203
10
69.465710684799248
20
37.451076163986464
42
-0.39437788238685079
10
69.863737190440418
20
36.145208360394264
42
0.39350493078137966
10
70.259148304876263
20
34.840855981030096
10
86.713723661571947
20
25.273409103537489
42
0.13243244913769039
10
87.216376838333503
20
25.137897266493766
10
122.26736261556566
20
25.137897266493766
42
0.13243244913770807
10
122.7700157923272
20
25.273409103537485
10
139.2245911490229
20
34.840855981030089
42
0.39350493078137311
10
139.62000226345873
20
36.145208360394264
42
-0.39437788238684668
10
140.01802876909991
20
37.451076163986457
10
155.01011141705121
20
46.107631308904217
42
-0.38889246925083221
10
156.32930359830439
20
45.815200799897688
10
158.60878756368672
20
42.559731913359343
42
0.41422452131325493
10
160.00154568665494
20
42.314172057233648
10
174.74560648784961
20
52.638806651336353
42
0.41418941201073195
10
174.99118298870656
20
54.031475769192276
10
164.7646416086871
20
68.638018025614556
42
-0.54864211657908113
10
165.41029269245158
20
70.196382943544918
10
180.74946414487391
20
72.899181109835069
42
0.41421836191826145
10
181.56076089119557
20
74.057555126591609
10
180.15754777503543
20
82.020437136422956
42
-0.42604838831652098
10
181.00858449857924
20
83.184992236490345
10
196.75943019590812
20
85.311401571702561
42
-0.4176115880926618
10
197.88571291336831
20
84.442688739159863
10
198.26446904130395
20
81.368917021313365
42
0.41409013117381155
10
199.37884129056556
20
80.498669003578442
10
215.82135311806425
20
82.517712919041003
42
-0.4504590602198299
10
216.94323181634695
20
81.525204254777435
10
216.94337542465976
20
77.57325663023073
42
0.41420291907849305
10
217.9433754239995
20
76.573292968848136
10
254.99330275732817
20
76.573292968848136
42
0.41421356237312884
10
255.99330275732819
20
77.573292968848136
10
255.99330275732819
20
133.67329295960474
42
0.41421356237309509
10
254.99330275732817
20
134.67329295960477
10
212.75354760818769
20
134.67329295960474
42
-0.3788943215042509
10
211.76098943470515
20
135.55152156619462
10
211.27797366646638
20
139.48858129147541
42
0.41424522764379035
10
210.16353679404097
20
140.35935490094627
10
192.56267546952202
20
138.19807246812843
42
-0.40914235314323649
10
191.45051497236415
20
139.05154209531591
10
191.01408273703635
20
142.159143974112
42
0.4126515138599432
10
189.89001177167992
20
143.01107841610727
10
172.05158108742688
20
140.60283912144098
42
0.41577733813139273
10
171.19508845635346
20
139.47275392805881
10
172.33013444467329
20
131.39069499587086
42
-0.40403267696281048
10
171.51338179082202
20
130.26679088579957
10
152.93979853705176
20
126.99408173619281
42
0.41421836191828282
10
152.12850179073013
20
125.83570771943627
10
152.30241478158138
20
124.84879517552019
42
-0.41419768239977495
10
151.49118756823555
20
123.69043341316882
10
125.42206904094405
20
119.09509551237761
42
-0.043648353029353805
10
125.24847036360458
20
119.07991199235039
0
CIRCLE
5
101
100
AcDbEntity
8
0
100
AcDbCircle
10
190.34111370782
20
73.345121313199598
30
0
40
1.4999999999999858
210
0
220
0
230
1
0
CIRCLE
5
102
100
AcDbEntity
8
0
100
AcDbCircle
10
15.117592060154168
20
143.45708318961061
30
0
40
1.5000000000000213
210
0
220
0
230
1
0
CIRCLE
5
103
100
AcDbEntity
8
0
100
AcDbCircle
10
76.284638443490323
20
27.288720463762278
30
0
40
1.5000000000000036
210
0
220
0
230
1
0
CIRCLE
5
104
100
AcDbEntity
8
0
100
AcDbCircle
10
19.142625746079148
20
73.345121313199598
30
0
40
1.4999999999999858
210
0
220
0
230
1
0
CIRCLE
5
105
100
AcDbEntity
8
0
100
AcDbCircle
10
-50.009563303428976
20
138.17300207126144
30
0
40
1.5000000000000213
210
0
220
0
230
1
0
CIRCLE
5
106
100
AcDbEntity
8
0
100
AcDbCircle
10
115.74186972694953
20
122.68783528806267
30
0
40
1.5000000000000036
210
0
220
0
230
1
0
CIRCLE
5
107
100
AcDbEntity
8
0
100
AcDbCircle
10
259.49330275732814
20
73.073294611453832
30
0
40
1.5000000000000213
210
0
220
0
230
1
0
CIRCLE
5
108
100
AcDbEntity
8
0
100
AcDbCircle
10
259.49330275732814
20
138.17300207126144
30
0
40
1.5000000000000213
210
0
220
0
230
1
0
CIRCLE
5
109
100
AcDbEntity
8
0
100
AcDbCircle
10
-50.009563303428976
20
73.073294611453832
30
0
40
1.5000000000000213
210
0
220
0
230
1
0
CIRCLE
5
110
100
AcDbEntity
8
0
100
AcDbCircle
10
93.741869726949602
20
122.68783528806267
30
0
40
1.5000000000000036
210
0
220
0
230
1
0
CIRCLE
5
111
100
AcDbEntity
8
0
100
AcDbCircle
10
194.366147393745
20
143.45708318961061
30
0
40
1.5000000000000213
210
0
220
0
230
1
0
CIRCLE
5
112
100
AcDbEntity
8
0
100
AcDbCircle
10
133.19910101040881
20
27.288720463762278
30
0
40
1.5000000000000036
210
0
220
0
230
1
0
ENDSEC
0
SECTION
2
OBJECTS
0
DICTIONARY
5
C
100
AcDbDictionary
3
ACAD_GROUP
350
D
3
ACAD_MLINESTYLE
350
17
0
DICTIONARY
5
D
100
AcDbDictionary
0
DICTIONARY
5
1A
330
C
100
AcDbDictionary
0
DICTIONARY
5
17
100
AcDbDictionary
0
ENDSEC
0
EOF
