0
SECTION
2
HEADER
9
$INSUNITS
70
4
9
$ACADVER
1
AC1014
9
$HANDSEED
5
FFFF
0
ENDSEC
0
SECTION
2
TABLES
0
TABLE
2
VPORT
5
8
100
AcDbSymbolTable
0
ENDTAB
0
TABLE
2
LTYPE
5
5
100
AcDbSymbolTable
0
LTYPE
5
14
100
AcDbSymbolTableRecord
100
AcDbLinetypeTableRecord
2
BYBLOCK
70
0
0
LTYPE
5
15
100
AcDbSymbolTableRecord
100
AcDbLinetypeTableRecord
2
BYLAYER
70
0
0
ENDTAB
0
TABLE
2
LAYER
5
2
100
AcDbSymbolTable
70
2
0
LAYER
5
50
100
AcDbSymbolTableRecord
100
AcDbLayerTableRecord
2
0
70
0
6
CONTINUOUS
0
ENDTAB
0
TABLE
2
STYLE
5
3
100
AcDbSymbolTable
70
1
0
STYLE
5
11
100
AcDbSymbolTableRecord
100
AcDbTextStyleTableRecord
2
STANDARD
70
0
0
ENDTAB
0
TABLE
2
VIEW
5
6
100
AcDbSymbolTable
70
0
0
ENDTAB
0
TABLE
2
UCS
5
7
100
AcDbSymbolTable
70
0
0
ENDTAB
0
TABLE
2
APPID
5
9
100
AcDbSymbolTable
70
2
0
APPID
5
12
100
AcDbSymbolTableRecord
100
AcDbRegAppTableRecord
2
ACAD
70
0
0
ENDTAB
0
TABLE
2
DIMSTYLE
5
A
100
AcDbSymbolTable
70
1
0
ENDTAB
0
TABLE
2
BLOCK_RECORD
5
1
100
AcDbSymbolTable
70
1
0
BLOCK_RECORD
5
1F
100
AcDbSymbolTableRecord
100
AcDbBlockTableRecord
2
*MODEL_SPACE
0
BLOCK_RECORD
5
1B
100
AcDbSymbolTableRecord
100
AcDbBlockTableRecord
2
*PAPER_SPACE
0
ENDTAB
0
ENDSEC
0
SECTION
2
BLOCKS
0
BLOCK
5
20
100
AcDbEntity
100
AcDbBlockBegin
2
*MODEL_SPACE
0
ENDBLK
5
21
100
AcDbEntity
100
AcDbBlockEnd
0
BLOCK
5
1C
100
AcDbEntity
100
AcDbBlockBegin
2
*PAPER_SPACE
0
ENDBLK
5
1D
100
AcDbEntity
100
AcDbBlockEnd
0
ENDSEC
0
SECTION
2
ENTITIES
0
CIRCLE
5
100
100
AcDbEntity
8
0
100
AcDbCircle
10
76.284638443490252
20
27.288720463762264
30
0
40
1.0000000000000142
210
0
220
0
230
1
0
LWPOLYLINE
5
101
100
AcDbEntity
8
0
100
AcDbPolyline
90
54
70
1
43
0.0
10
-1.7942342125672806
20
139.48858129147541
42
-0.41424522764381233
10
-0.67979734014184112
20
140.35935490094624
10
16.921063984377085
20
138.19807246812849
42
0.40914235314323821
10
18.033224481534901
20
139.05154209531591
10
18.469656716862801
20
142.159143974112
42
-0.41265151385995058
10
19.593727682219221
20
143.01107841610727
10
37.432158366472237
20
140.60283912144095
42
-0.41577733813139167
10
38.288650997545616
20
139.47275392805881
10
37.153605009225927
20
131.39069499587086
42
0.40403267696279715
10
37.970357663077159
20
130.26679088579957
10
56.543940916847397
20
126.99408173619281
42
-0.41421836191824257
10
57.355237663169049
20
125.8357077194363
10
57.1813246723177
20
124.84879517552015
42
0.41419768239978605
10
57.992551885663616
20
123.69043341316873
10
74.78479974291028
20
120.73037732469376
42
-0.41421106698807331
10
75.596019024531259
20
119.57197055781239
10
65.708021604812728
20
63.475067842161991
42
0.31527063998476468
10
66.192801778216946
20
62.435473968069118
10
80.324051923431057
20
54.275970780872498
42
-0.39479815001620194
10
80.721437656643303
20
52.96879712675117
42
0.39392494813052858
10
81.116207998650211
20
51.663138896857831
10
95.877381563993254
20
43.080313702380963
42
-0.41421356237309509
10
96.239216550187976
20
41.71317236266313
10
87.191459368480025
20
26.152385429450025
42
-0.41421356237309209
10
85.824318028762207
20
25.790550443255306
10
70.259148304876263
20
34.840855981030082
42
-0.39350493078138155
10
69.863737190440418
20
36.145208360394257
42
0.39437788238685151
10
69.465710684799262
20
37.451076163986436
10
54.473628036847956
20
46.107631308904203
42
0.38889246925083903
10
53.154435855594755
20
45.815200799897688
10
50.874951890212415
20
42.559731913359329
42
-0.41422452131325865
10
49.48219376724424
20
42.314172057233634
10
34.738132966049562
20
52.638806651336324
42
-0.4141894120107395
10
34.492556465192592
20
54.031475769192248
10
44.719097845212019
20
68.638018025614528
42
0.548642116579103
10
44.073446761447528
20
70.196382943544904
10
28.734275309025179
20
72.899181109835055
42
-0.41421836191826505
10
27.92297856270352
20
74.057555126591581
10
29.326191678863758
20
82.020437136422942
42
0.4260483883165217
10
28.475154955319937
20
83.184992236490345
10
12.724309257991031
20
85.311401571702589
42
0.41761158809265941
10
11.598026540530807
20
84.442688739159806
10
11.219270412595231
20
81.368917021313365
42
-0.41409013117381355
10
10.10489816333358
20
80.498669003578428
10
-6.3376136641651115
20
82.517712919040946
42
0.45045906021986309
10
-7.4594923624477971
20
81.525204254777407
10
-7.459635970760667
20
77.573256630230702
42
-0.41420291907851647
10
-8.4596359701004076
20
76.573292968848122
10
-45.509563303429061
20
76.573292968848122
42
-0.41421356237309509
10
-46.509563303429061
20
77.573292968848108
10
-46.509563303429061
20
133.67329295960471
42
-0.4142135623731002
10
-45.509563303429061
20
134.67329295960471
10
-3.2698081542885049
20
134.67329295960468
42
0.37889432150423841
10
-2.2772499808059941
20
135.55152156619459
0
CIRCLE
5
102
100
AcDbEntity
8
0
100
AcDbCircle
10
259.49330275732814
20
73.073292968848108
30
0
40
0.99999999999997868
210
0
220
0
230
1
0
LWPOLYLINE
5
103
100
AcDbEntity
8
0
100
AcDbPolyline
90
54
70
1
43
0.0
10
152.12850179073001
20
125.8357077194363
42
-0.41421836191827771
10
152.9397985370517
20
126.99408173619281
10
171.51338179082191
20
130.26679088579957
42
0.40403267696279543
10
172.33013444467318
20
131.39069499587086
10
171.19508845635346
20
139.47275392805881
42
-0.41577733813139123
10
172.05158108742683
20
140.60283912144095
10
189.89001177167984
20
143.01107841610727
42
-0.4126515138599432
10
191.01408273703626
20
142.159143974112
10
191.45051497236415
20
139.05154209531591
42
0.40914235314323627
10
192.56267546952199
20
138.19807246812849
10
210.16353679404091
20
140.35935490094624
42
-0.41424522764383626
10
211.27797366646635
20
139.48858129147541
10
211.76098943470507
20
135.55152156619459
42
0.37889432150424079
10
212.75354760818757
20
134.67329295960468
10
254.99330275732817
20
134.67329295960474
42
-0.41421356237308982
10
255.99330275732814
20
133.67329295960471
10
255.99330275732811
20
77.573292968848108
42
-0.41421356237306384
10
254.99330275732814
20
76.573292968848122
10
217.94337542399947
20
76.573292968848122
42
-0.41420291907852169
10
216.94337542465973
20
77.573256630230702
10
216.94323181634687
20
81.525204254777407
42
0.45045906021986443
10
215.82135311806417
20
82.517712919040946
10
199.3788412905655
20
80.498669003578414
42
-0.41409013117381605
10
198.26446904130381
20
81.368917021313365
10
197.88571291336825
20
84.442688739159806
42
0.41761158809265636
10
196.75943019590804
20
85.311401571702589
10
181.00858449857913
20
83.184992236490345
42
0.4260483883165217
10
180.15754777503531
20
82.020437136422942
10
181.56076089119551
20
74.057555126591581
42
-0.41421836191825534
10
180.74946414487388
20
72.899181109835055
10
165.41029269245155
20
70.196382943544876
42
0.54864211657910422
10
164.7646416086871
20
68.638018025614528
10
174.9911829887065
20
54.031475769192255
42
-0.41418941201071463
10
174.7456064878495
20
52.63880665133631
10
160.00154568665482
20
42.314172057233634
42
-0.41422452131325493
10
158.60878756368666
20
42.559731913359329
10
156.32930359830431
20
45.815200799897667
42
0.38889246925084275
10
155.01011141705112
20
46.107631308904196
10
140.0180287690998
20
37.451076163986428
42
0.39437788238684812
10
139.62000226345864
20
36.145208360394257
42
-0.3935049307813836
10
139.22459114902281
20
34.840855981030082
10
123.65942142513687
20
25.790550443255306
42
-0.41421356237309509
10
122.29228008541904
20
26.152385429450028
10
113.2445229037111
20
41.713172362663144
42
-0.41421356237309509
10
113.60635788990581
20
43.08031370238097
10
128.36753145524887
20
51.663138896857831
42
0.39392494813052403
10
128.76230179725576
20
52.968797126751141
42
-0.39479815001620344
10
129.15968753046801
20
54.275970780872512
10
143.29093767568213
20
62.435473968069118
42
0.31527063998476723
10
143.77571784908633
20
63.475067842161991
10
133.88772042936782
20
119.57197055781239
42
-0.41421106698808485
10
134.69893971098881
20
120.73037732469376
10
151.49118756823546
20
123.69043341316879
42
0.41419768239978605
10
152.30241478158132
20
124.84879517552015
0
CIRCLE
5
104
100
AcDbEntity
8
0
100
AcDbCircle
10
15.117592060154088
20
143.45708318961059
30
0
40
1.0000000000000142
210
0
220
0
230
1
0
CIRCLE
5
105
100
AcDbEntity
8
0
100
AcDbCircle
10
-50.009563303429054
20
138.17329295960468
30
0
40
1.0000000000000142
210
0
220
0
230
1
0
CIRCLE
5
106
100
AcDbEntity
8
0
100
AcDbCircle
10
-50.00956330342909
20
73.073292968848108
30
0
40
0.99999999999997868
210
0
220
0
230
1
0
CIRCLE
5
107
100
AcDbEntity
8
0
100
AcDbCircle
10
19.142625746079069
20
73.34512131319957
30
0
40
1.0000000000000142
210
0
220
0
230
1
0
CIRCLE
5
108
100
AcDbEntity
8
0
100
AcDbCircle
10
115.74186972694953
20
122.68783528806266
30
0
40
0.99999999999999645
210
0
220
0
230
1
0
CIRCLE
5
109
100
AcDbEntity
8
0
100
AcDbCircle
10
194.366147393745
20
143.45708318961059
30
0
40
1.0000000000000142
210
0
220
0
230
1
0
CIRCLE
5
110
100
AcDbEntity
8
0
100
AcDbCircle
10
93.741869726949545
20
122.68783528806266
30
0
40
0.99999999999999645
210
0
220
0
230
1
0
CIRCLE
5
111
100
AcDbEntity
8
0
100
AcDbCircle
10
259.49330275732814
20
138.17329295960468
30
0
40
1.0000000000000142
210
0
220
0
230
1
0
CIRCLE
5
112
100
AcDbEntity
8
0
100
AcDbCircle
10
190.34111370782
20
73.34512131319957
30
0
40
1.0000000000000142
210
0
220
0
230
1
0
CIRCLE
5
113
100
AcDbEntity
8
0
100
AcDbCircle
10
133.19910101040881
20
27.288720463762264
30
0
40
1.0000000000000142
210
0
220
0
230
1
0
LWPOLYLINE
5
114
100
AcDbEntity
8
0
100
AcDbPolyline
90
66
70
1
43
0.0
10
84.410195768998477
20
126.68783528806266
10
125.07354368490059
20
126.68783528806266
42
0.043648353029515648
10
125.50754037824917
20
126.72579408813067
10
142.11646892366241
20
129.65353553655629
42
0.26807105236036421
10
144.03204946637268
20
131.26147673543804
42
-0.26808997204010931
10
146.71410559158224
20
133.51263730429045
10
161.65238073069619
20
136.14479659521228
42
0.40403267696284167
10
163.69426236532428
20
138.95455687039046
10
163.06887754760822
20
143.40758961451652
42
-0.41577733813138007
10
166.06660175636503
20
147.36288779135404
10
193.85993072858636
20
151.11506690089738
42
-0.37720866060792674
10
197.70860143927476
20
148.55363645990207
42
0.37378308026128038
10
200.42787577641286
20
146.72020532478217
10
214.21269628315196
20
148.41290034984075
42
-0.41424522764381411
10
218.11322533664111
20
145.36519271669286
10
218.23549494589375
20
144.36857358773611
42
0.3788943215042388
10
220.71689037960004
20
142.17300207126144
10
259.99330275732814
20
142.17300207126138
42
-0.41421356237308904
10
263.49330275732814
20
138.67300207126141
10
263.49330275732819
20
72.573294611453818
42
-0.41421356237309725
10
259.99330275732814
20
69.073294611453818
10
210.10586091843948
20
69.073294611453818
42
0.027010220705083368
10
209.83634915415212
20
69.058724837573777
10
189.99588159881768
20
66.90729070800981
42
0.016600883857509952
10
189.83157050219586
20
66.883932317834649
10
180.62570560890487
20
65.261837224245184
42
0.54864211657911821
10
179.01157789949366
20
61.365924929419236
10
184.00247917197785
20
54.237433719614614
42
-0.41418941201072973
10
183.14296141897853
20
49.363091807118842
10
160.12294427992794
20
33.243159278665054
42
-0.36072517686753475
10
155.66909929931481
20
33.606936717304137
42
0.33710260026648858
10
152.66515783229383
20
33.980165816535568
10
121.21259512439026
20
15.692199318121997
42
-0.13243244913769514
10
119.45330900572485
20
15.217907888468972
10
90.030430448174229
20
15.217907888468964
42
-0.13243244913769742
10
88.271144329508786
20
15.692199318122004
10
56.81858162160524
20
33.980165816535568
42
0.33710260026648209
10
53.814640154584268
20
33.606936717304151
42
-0.36072517686753341
10
49.360795173971155
20
33.243159278665026
10
26.340778034920568
20
49.363091807118884
42
-0.41418941201072834
10
25.481260281921259
20
54.237433719614579
10
30.472161554405407
20
61.365924929419251
42
0.54864211657911677
10
28.858033844994218
20
65.261837224245198
10
19.65216895170321
20
66.883932317834649
42
0.016600883857487776
10
19.487857855081401
20
66.90729070800981
10
-0.35260970025304295
20
69.058724837573763
42
0.027010220705075381
10
-0.62212146454040607
20
69.073294611453818
10
-50.509563303429061
20
69.073294611453804
42
-0.41421356237309948
10
-54.009563303429111
20
72.573294611453818
10
-54.009563303429104
20
138.67300207126141
42
-0.41421356237308982
10
-50.509563303429097
20
142.17300207126141
10
-11.23315092570099
20
142.17300207126144
42
0.37889432150423558
10
-8.7517554919947038
20
144.36857358773614
10
-8.6294858827420864
20
145.36519271669283
42
-0.41424522764381067
10
-4.7289568292528905
20
148.41290034984081
10
9.0558636774862062
20
146.72020532478217
42
0.37378308026129392
10
11.775138014624325
20
148.55363645990209
42
-0.37720866060792524
10
15.623808725312731
20
151.11506690089738
10
43.417137697534045
20
147.36288779135404
42
-0.41577733813138029
10
46.414861906290824
20
143.40758961451652
10
45.789477088574813
20
138.95455687039046
42
0.40403267696283746
10
47.831358723202875
20
136.14479659521226
10
62.769633862316851
20
133.51263730429042
42
-0.26808997204011276
10
65.451689987526379
20
131.26147673543804
42
0.26807105236036649
10
67.367270530236652
20
129.65353553655629
10
83.976199075649888
20
126.72579408813067
42
0.043648353029526701
0
ENDSEC
0
SECTION
2
OBJECTS
0
DICTIONARY
5
C
100
AcDbDictionary
3
ACAD_GROUP
350
D
3
ACAD_MLINESTYLE
350
17
0
DICTIONARY
5
D
100
AcDbDictionary
0
DICTIONARY
5
1A
330
C
100
AcDbDictionary
0
DICTIONARY
5
17
100
AcDbDictionary
0
ENDSEC
0
EOF
