0
SECTION
2
HEADER
9
$INSUNITS
70
4
9
$ACADVER
1
AC1014
9
$HANDSEED
5
FFFF
0
ENDSEC
0
SECTION
2
TABLES
0
TABLE
2
VPORT
5
8
100
AcDbSymbolTable
0
ENDTAB
0
TABLE
2
LTYPE
5
5
100
AcDbSymbolTable
0
LTYPE
5
14
100
AcDbSymbolTableRecord
100
AcDbLinetypeTableRecord
2
BYBLOCK
70
0
0
LTYPE
5
15
100
AcDbSymbolTableRecord
100
AcDbLinetypeTableRecord
2
BYLAYER
70
0
0
ENDTAB
0
TABLE
2
LAYER
5
2
100
AcDbSymbolTable
70
2
0
LAYER
5
50
100
AcDbSymbolTableRecord
100
AcDbLayerTableRecord
2
0
70
0
6
CONTINUOUS
0
ENDTAB
0
TABLE
2
STYLE
5
3
100
AcDbSymbolTable
70
1
0
STYLE
5
11
100
AcDbSymbolTableRecord
100
AcDbTextStyleTableRecord
2
STANDARD
70
0
0
ENDTAB
0
TABLE
2
VIEW
5
6
100
AcDbSymbolTable
70
0
0
ENDTAB
0
TABLE
2
UCS
5
7
100
AcDbSymbolTable
70
0
0
ENDTAB
0
TABLE
2
APPID
5
9
100
AcDbSymbolTable
70
2
0
APPID
5
12
100
AcDbSymbolTableRecord
100
AcDbRegAppTableRecord
2
ACAD
70
0
0
ENDTAB
0
TABLE
2
DIMSTYLE
5
A
100
AcDbSymbolTable
70
1
0
ENDTAB
0
TABLE
2
BLOCK_RECORD
5
1
100
AcDbSymbolTable
70
1
0
BLOCK_RECORD
5
1F
100
AcDbSymbolTableRecord
100
AcDbBlockTableRecord
2
*MODEL_SPACE
0
BLOCK_RECORD
5
1B
100
AcDbSymbolTableRecord
100
AcDbBlockTableRecord
2
*PAPER_SPACE
0
ENDTAB
0
ENDSEC
0
SECTION
2
BLOCKS
0
BLOCK
5
20
100
AcDbEntity
100
AcDbBlockBegin
2
*MODEL_SPACE
0
ENDBLK
5
21
100
AcDbEntity
100
AcDbBlockEnd
0
BLOCK
5
1C
100
AcDbEntity
100
AcDbBlockBegin
2
*PAPER_SPACE
0
ENDBLK
5
1D
100
AcDbEntity
100
AcDbBlockEnd
0
ENDSEC
0
SECTION
2
ENTITIES
0
LWPOLYLINE
5
100
100
AcDbEntity
8
0
100
AcDbPolyline
90
168
70
1
43
0.0
10
99.216869726949568
20
120.07991199235039
42
-0.41421356237309509
10
98.216869726949568
20
119.0799119923504
10
84.235269090294551
20
119.07991199235036
42
-0.043648353029241124
10
84.06167041295511
20
119.0950955123776
10
57.992551885663602
20
123.6904334131688
42
-0.41419768239977955
10
57.181324672317743
20
124.84879517552019
10
57.355237663169056
20
125.83570771943627
42
0.41421836191826006
10
56.543940916847426
20
126.99408173619278
10
37.970357663077124
20
130.26679088579959
42
-0.40403267696281081
10
37.153605009225892
20
131.39069499587086
10
38.288650997545652
20
139.47275392805881
42
0.41577733813139167
10
37.432158366472272
20
140.60283912144098
10
19.593727682219221
20
143.01107841610727
42
0.41265151385995097
10
18.469656716862801
20
142.159143974112
10
18.033224481534955
20
139.05154209531591
42
-0.40914235314325587
10
16.92106398437712
20
138.19807246812846
10
-0.67979734014180471
20
140.35935490094627
42
0.41424522764380722
10
-1.7942342125672628
20
139.48858129147541
10
-2.2772499808060322
20
135.55152156619462
42
-0.37889432150424107
10
-3.2698081542885049
20
134.67329295960477
10
-45.509563303429026
20
134.67329295960474
42
0.4142135623731002
10
-46.50956330342904
20
133.67329295960474
10
-46.509563303429019
20
77.573292968848136
42
0.41421356237309509
10
-45.509563303429026
20
76.573292968848136
10
-8.459635970100372
20
76.573292968848151
42
0.41420291907852036
10
-7.4596359707606297
20
77.57325663023073
10
-7.4594923624477953
20
81.525204254777435
42
-0.45045906021983023
10
-6.3376136641651115
20
82.517712919041003
10
10.104898163333544
20
80.498669003578428
42
0.41409013117380916
10
11.219270412595179
20
81.368917021313365
10
11.598026540530809
20
84.442688739159877
42
-0.41761158809264953
10
12.724309257991031
20
85.311401571702589
10
28.47515495531993
20
83.184992236490345
42
-0.4260483883165137
10
29.326191678863687
20
82.020437136422956
10
27.922978562703552
20
74.057555126591595
42
0.41421836191825867
10
28.734275309025215
20
72.899181109835069
10
44.073446761447528
20
70.196382943544933
42
-0.548642116579098
10
44.719097845212055
20
68.638018025614542
10
34.492556465192592
20
54.031475769192276
42
0.41418941201074633
10
34.738132966049548
20
52.638806651336338
10
49.482193767244226
20
42.314172057233641
42
0.41422452131325288
10
50.874951890212401
20
42.559731913359329
10
53.15443585559477
20
45.815200799897688
42
-0.38889246925083348
10
54.473628036847956
20
46.107631308904203
10
69.465710684799248
20
37.451076163986471
42
-0.39437788238685079
10
69.863737190440418
20
36.145208360394264
42
0.39350493078137633
10
70.259148304876248
20
34.840855981030103
10
86.713723661571933
20
25.273409103537496
42
0.13243244913769944
10
87.216376838333488
20
25.137897266493773
10
122.26736261556566
20
25.137897266493773
42
0.13243244913770752
10
122.7700157923272
20
25.273409103537489
10
139.2245911490229
20
34.840855981030096
42
0.39350493078137544
10
139.62000226345873
20
36.145208360394271
42
-0.39437788238684668
10
140.01802876909989
20
37.451076163986457
10
155.01011141705118
20
46.107631308904217
42
-0.38889246925083221
10
156.32930359830436
20
45.815200799897688
10
158.60878756368672
20
42.559731913359343
42
0.41422452131325649
10
160.00154568665494
20
42.314172057233662
10
174.74560648784961
20
52.638806651336353
42
0.41418941201073195
10
174.99118298870656
20
54.031475769192276
10
164.7646416086871
20
68.638018025614556
42
-0.54864211657908113
10
165.41029269245158
20
70.196382943544918
10
180.74946414487391
20
72.899181109835069
42
0.41421836191826145
10
181.56076089119557
20
74.057555126591609
10
180.15754777503543
20
82.020437136422956
42
-0.42604838831652098
10
181.00858449857924
20
83.184992236490345
10
196.75943019590812
20
85.311401571702561
42
-0.4176115880926618
10
197.88571291336831
20
84.442688739159863
10
198.26446904130395
20
81.368917021313365
42
0.41409013117381155
10
199.37884129056556
20
80.498669003578442
10
215.82135311806425
20
82.517712919041003
42
-0.4504590602198299
10
216.94323181634695
20
81.525204254777435
10
216.94337542465976
20
77.573256630230745
42
0.41420291907849305
10
217.9433754239995
20
76.573292968848136
10
254.99330275732817
20
76.573292968848136
42
0.41421356237312884
10
255.99330275732819
20
77.573292968848136
10
255.99330275732819
20
133.67329295960474
42
0.41421356237309509
10
254.99330275732817
20
134.67329295960477
10
212.75354760818769
20
134.67329295960474
42
-0.3788943215042509
10
211.76098943470515
20
135.55152156619462
10
211.27797366646638
20
139.48858129147541
42
0.41424522764379035
10
210.16353679404097
20
140.35935490094627
10
192.56267546952202
20
138.19807246812843
42
-0.40914235314323649
10
191.45051497236415
20
139.05154209531591
10
191.01408273703635
20
142.159143974112
42
0.4126515138599432
10
189.89001177167992
20
143.01107841610727
10
172.05158108742688
20
140.60283912144098
42
0.41577733813139273
10
171.19508845635346
20
139.47275392805881
10
172.33013444467329
20
131.39069499587086
42
-0.40403267696281048
10
171.51338179082202
20
130.26679088579957
10
152.93979853705173
20
126.99408173619281
42
0.41421836191828887
10
152.1285017907301
20
125.83570771943627
10
152.30241478158138
20
124.84879517552019
42
-0.41419768239978005
10
151.49118756823552
20
123.69043341316882
10
125.42206904094402
20
119.09509551237761
42
-0.043648353029349579
10
125.24847036360458
20
119.07991199235039
10
111.26686972694957
20
119.07991199235039
42
-0.41421356237309509
10
110.26686972694958
20
120.07991199235038
10
110.26686972694958
20
125.68783528806267
42
-0.41421356237309509
10
111.26686972694957
20
126.68783528806267
10
125.07354368490064
20
126.68783528806267
42
0.043648353029434768
10
125.50754037824922
20
126.7257940881307
10
141.32632970775916
20
129.51425362405357
42
0.26807397278129402
10
143.24191955872777
20
131.1222204298233
42
-0.26809289248867602
10
145.92398871549898
20
133.37341684831887
10
161.65238073069634
20
136.14479659521231
42
0.40403267696284773
10
163.69426236532439
20
138.95455687039049
10
163.06887754760834
20
143.40758961451655
42
-0.41577733813136974
10
166.06660175636506
20
147.36288779135407
10
193.81527170964722
20
151.10903780527937
42
-0.37718264933129758
10
197.66385978208046
20
148.54791526754346
42
0.37375712756354551
10
200.38307509189343
20
146.71470406332315
10
214.21270811948165
20
148.41290180283974
42
-0.41424522764381549
10
218.11323717297086
20
145.36519416969179
10
218.23547127302501
20
144.36886447607941
42
0.3788943215042464
10
220.71686670673131
20
142.17329295960474
10
259.99330275732819
20
142.17329295960468
42
-0.41421356237308904
10
263.49330275732819
20
138.67329295960471
10
263.49330275732825
20
72.573292968848136
42
-0.4142135623731002
10
259.99330275732814
20
69.073292968848136
10
210.105845770374
20
69.073292968848136
42
0.027010220705083368
10
209.83633400608664
20
69.058723194968096
10
189.9958815988175
20
66.907290708009825
42
0.016600883857537989
10
189.83157050219569
20
66.883932317834649
10
180.62570560890492
20
65.261837224245212
42
0.54864211657912698
10
179.01157789949377
20
61.365924929419222
10
184.00247917197791
20
54.237433719614614
42
-0.41418941201075316
10
183.14296141897856
20
49.363091807118842
10
160.12294427992796
20
33.243159278665033
42
-0.36072517686753475
10
155.66909929931487
20
33.60693671730418
42
0.33710260026647715
10
152.66515783229391
20
33.980165816535603
10
121.21259512439032
20
15.692199318122011
42
-0.13243244913769628
10
119.45330900572489
20
15.217907888468989
10
90.030430448174243
20
15.217907888468986
42
-0.13243244913769536
10
88.2711443295088
20
15.69219931812202
10
56.81858162160524
20
33.980165816535589
42
0.33710260026648026
10
53.814640154584268
20
33.606936717304173
42
-0.36072517686753403
10
49.360795173971177
20
33.243159278665054
10
26.340778034920564
20
49.363091807118799
42
-0.41418941201075371
10
25.481260281921195
20
54.237433719614643
10
30.472161554405389
20
61.365924929419251
42
0.54864211657912443
10
28.858033844994182
20
65.261837224245212
10
19.652168951703459
20
66.883932317834649
42
0.016600883857497816
10
19.48785785508165
20
66.907290708009825
10
-0.35259455218748337
20
69.058723194968081
42
0.027010220705073838
10
-0.6221063164748486
20
69.073292968848122
10
-50.509563303429061
20
69.073292968848193
42
-0.41421356237309875
10
-54.009563303429061
20
72.573292968848136
10
-54.009563303429083
20
138.67329295960471
42
-0.41421356237308532
10
-50.509563303429118
20
142.17329295960471
10
-11.233127252832169
20
142.17329295960474
42
0.37889432150423474
10
-8.751731819125883
20
144.36886447607944
10
-8.6294977190717308
20
145.36519416969179
42
-0.41424522764381211
10
-4.7289686655825314
20
148.41290180283974
10
9.1006643620057162
20
146.71470406332313
42
0.3737571275635399
10
11.819879671818681
20
148.54791526754346
42
-0.37718264933130635
10
15.668467744251959
20
151.10903780527937
10
43.41713769753401
20
147.36288779135404
42
-0.41577733813137269
10
46.414861906290795
20
143.40758961451655
10
45.789477088574742
20
138.95455687039049
42
0.40403267696283524
10
47.831358723202811
20
136.14479659521231
10
63.559750738400169
20
133.37341684831887
42
-0.26809289248867751
10
66.241819895171375
20
131.1222204298233
42
0.2680739727812978
10
68.15740974613999
20
129.51425362405357
10
83.976199075649902
20
126.7257940881307
42
0.043648353029522691
10
84.410195768998491
20
126.68783528806267
10
98.216869726949568
20
126.68783528806267
42
-0.41421356237309509
10
99.216869726949568
20
125.68783528806267
0
CIRCLE
5
101
100
AcDbEntity
8
0
100
AcDbCircle
10
133.19910101040881
20
27.288720463762282
30
0
40
1.5000000000000036
210
0
220
0
230
1
0
CIRCLE
5
102
100
AcDbEntity
8
0
100
AcDbCircle
10
93.741869726949602
20
122.68783528806267
30
0
40
1.5000000000000036
210
0
220
0
230
1
0
CIRCLE
5
103
100
AcDbEntity
8
0
100
AcDbCircle
10
259.49330275732814
20
73.073294611453832
30
0
40
1.5000000000000213
210
0
220
0
230
1
0
CIRCLE
5
104
100
AcDbEntity
8
0
100
AcDbCircle
10
19.14262574607914
20
73.345121313199598
30
0
40
1.4999999999999858
210
0
220
0
230
1
0
CIRCLE
5
105
100
AcDbEntity
8
0
100
AcDbCircle
10
194.366147393745
20
143.45708318961061
30
0
40
1.5000000000000213
210
0
220
0
230
1
0
CIRCLE
5
106
100
AcDbEntity
8
0
100
AcDbCircle
10
-50.009563303428983
20
73.073294611453832
30
0
40
1.5000000000000213
210
0
220
0
230
1
0
CIRCLE
5
107
100
AcDbEntity
8
0
100
AcDbCircle
10
-50.009563303428983
20
138.17300207126144
30
0
40
1.5000000000000213
210
0
220
0
230
1
0
CIRCLE
5
108
100
AcDbEntity
8
0
100
AcDbCircle
10
15.117592060154159
20
143.45708318961061
30
0
40
1.5000000000000213
210
0
220
0
230
1
0
CIRCLE
5
109
100
AcDbEntity
8
0
100
AcDbCircle
10
190.34111370782
20
73.345121313199598
30
0
40
1.4999999999999858
210
0
220
0
230
1
0
CIRCLE
5
110
100
AcDbEntity
8
0
100
AcDbCircle
10
259.49330275732814
20
138.17300207126144
30
0
40
1.5000000000000213
210
0
220
0
230
1
0
CIRCLE
5
111
100
AcDbEntity
8
0
100
AcDbCircle
10
115.74186972694953
20
122.68783528806267
30
0
40
1.5000000000000036
210
0
220
0
230
1
0
CIRCLE
5
112
100
AcDbEntity
8
0
100
AcDbCircle
10
76.284638443490309
20
27.288720463762282
30
0
40
1.5000000000000036
210
0
220
0
230
1
0
ENDSEC
0
SECTION
2
OBJECTS
0
DICTIONARY
5
C
100
AcDbDictionary
3
ACAD_GROUP
350
D
3
ACAD_MLINESTYLE
350
17
0
DICTIONARY
5
D
100
AcDbDictionary
0
DICTIONARY
5
1A
330
C
100
AcDbDictionary
0
DICTIONARY
5
17
100
AcDbDictionary
0
ENDSEC
0
EOF
