0
SECTION
2
HEADER
9
$INSUNITS
70
4
9
$ACADVER
1
AC1014
9
$HANDSEED
5
FFFF
0
ENDSEC
0
SECTION
2
TABLES
0
TABLE
2
VPORT
5
8
100
AcDbSymbolTable
0
ENDTAB
0
TABLE
2
LTYPE
5
5
100
AcDbSymbolTable
0
LTYPE
5
14
100
AcDbSymbolTableRecord
100
AcDbLinetypeTableRecord
2
BYBLOCK
70
0
0
LTYPE
5
15
100
AcDbSymbolTableRecord
100
AcDbLinetypeTableRecord
2
BYLAYER
70
0
0
ENDTAB
0
TABLE
2
LAYER
5
2
100
AcDbSymbolTable
70
2
0
LAYER
5
50
100
AcDbSymbolTableRecord
100
AcDbLayerTableRecord
2
0
70
0
6
CONTINUOUS
0
ENDTAB
0
TABLE
2
STYLE
5
3
100
AcDbSymbolTable
70
1
0
STYLE
5
11
100
AcDbSymbolTableRecord
100
AcDbTextStyleTableRecord
2
STANDARD
70
0
0
ENDTAB
0
TABLE
2
VIEW
5
6
100
AcDbSymbolTable
70
0
0
ENDTAB
0
TABLE
2
UCS
5
7
100
AcDbSymbolTable
70
0
0
ENDTAB
0
TABLE
2
APPID
5
9
100
AcDbSymbolTable
70
2
0
APPID
5
12
100
AcDbSymbolTableRecord
100
AcDbRegAppTableRecord
2
ACAD
70
0
0
ENDTAB
0
TABLE
2
DIMSTYLE
5
A
100
AcDbSymbolTable
70
1
0
ENDTAB
0
TABLE
2
BLOCK_RECORD
5
1
100
AcDbSymbolTable
70
1
0
BLOCK_RECORD
5
1F
100
AcDbSymbolTableRecord
100
AcDbBlockTableRecord
2
*MODEL_SPACE
0
BLOCK_RECORD
5
1B
100
AcDbSymbolTableRecord
100
AcDbBlockTableRecord
2
*PAPER_SPACE
0
ENDTAB
0
ENDSEC
0
SECTION
2
BLOCKS
0
BLOCK
5
20
100
AcDbEntity
100
AcDbBlockBegin
2
*MODEL_SPACE
0
ENDBLK
5
21
100
AcDbEntity
100
AcDbBlockEnd
0
BLOCK
5
1C
100
AcDbEntity
100
AcDbBlockBegin
2
*PAPER_SPACE
0
ENDBLK
5
1D
100
AcDbEntity
100
AcDbBlockEnd
0
ENDSEC
0
SECTION
2
ENTITIES
0
LWPOLYLINE
5
100
100
AcDbEntity
8
0
100
AcDbPolyline
90
168
70
1
43
0.0
10
99.216869726949568
20
120.07991199235039
42
-0.41421356237309509
10
98.216869726949568
20
119.0799119923504
10
84.235269090294537
20
119.07991199235036
42
-0.043648353029236898
10
84.06167041295511
20
119.0950955123776
10
57.992551885663595
20
123.6904334131688
42
-0.41419768239977955
10
57.181324672317729
20
124.84879517552019
10
57.355237663169049
20
125.83570771943627
42
0.4142183619182605
10
56.543940916847426
20
126.99408173619278
10
37.97035766307711
20
130.26679088579959
42
-0.40403267696281081
10
37.153605009225885
20
131.39069499587086
10
38.288650997545645
20
139.47275392805881
42
0.41577733813139167
10
37.432158366472265
20
140.60283912144098
10
19.59372768221921
20
143.01107841610727
42
0.41265151385995097
10
18.46965671686279
20
142.159143974112
10
18.033224481534948
20
139.05154209531591
42
-0.40914235314325587
10
16.921063984377113
20
138.19807246812846
10
-0.67979734014181359
20
140.35935490094627
42
0.41424522764380722
10
-1.7942342125672717
20
139.48858129147541
10
-2.2772499808060411
20
135.55152156619462
42
-0.37889432150424107
10
-3.2698081542885138
20
134.67329295960477
10
-45.509563303429033
20
134.67329295960474
42
0.41421356237310281
10
-46.509563303429047
20
133.67329295960474
10
-46.509563303429033
20
77.573292968848136
42
0.41421356237309509
10
-45.509563303429033
20
76.573292968848136
10
-8.4596359701003809
20
76.573292968848151
42
0.41420291907852036
10
-7.4596359707606386
20
77.57325663023073
10
-7.4594923624478042
20
81.525204254777435
42
-0.45045906021983023
10
-6.3376136641651204
20
82.517712919041003
10
10.104898163333536
20
80.498669003578428
42
0.41409013117380916
10
11.21927041259517
20
81.368917021313365
10
11.5980265405308
20
84.442688739159877
42
-0.41761158809264953
10
12.724309257991022
20
85.311401571702589
10
28.475154955319919
20
83.184992236490345
42
-0.4260483883165137
10
29.32619167886368
20
82.020437136422956
10
27.922978562703541
20
74.057555126591595
42
0.41421836191825867
10
28.734275309025207
20
72.899181109835069
10
44.073446761447521
20
70.196382943544933
42
-0.548642116579098
10
44.719097845212048
20
68.638018025614542
10
34.492556465192578
20
54.031475769192276
42
0.41418941201074838
10
34.738132966049548
20
52.638806651336338
10
49.482193767244212
20
42.314172057233641
42
0.41422452131325288
10
50.874951890212394
20
42.559731913359329
10
53.154435855594755
20
45.815200799897688
42
-0.38889246925083348
10
54.473628036847941
20
46.107631308904203
10
69.465710684799234
20
37.451076163986464
42
-0.39437788238685079
10
69.863737190440403
20
36.145208360394264
42
0.39350493078138032
10
70.259148304876248
20
34.840855981030089
10
86.713723661571919
20
25.273409103537489
42
0.13243244913769034
10
87.216376838333474
20
25.137897266493763
10
122.26736261556566
20
25.137897266493766
42
0.13243244913770807
10
122.7700157923272
20
25.273409103537485
10
139.2245911490229
20
34.840855981030089
42
0.39350493078137772
10
139.62000226345873
20
36.145208360394278
42
-0.39437788238685489
10
140.01802876909991
20
37.45107616398645
10
155.01011141705115
20
46.107631308904232
42
-0.38889246925083804
10
156.32930359830439
20
45.815200799897688
10
158.60878756368672
20
42.559731913359343
42
0.41422452131325649
10
160.00154568665494
20
42.314172057233662
10
174.74560648784961
20
52.638806651336353
42
0.41418941201073195
10
174.99118298870656
20
54.031475769192276
10
164.7646416086871
20
68.638018025614556
42
-0.54864211657908113
10
165.41029269245158
20
70.196382943544918
10
180.74946414487391
20
72.899181109835069
42
0.41421836191826145
10
181.56076089119557
20
74.057555126591609
10
180.15754777503543
20
82.020437136422956
42
-0.42604838831652098
10
181.00858449857924
20
83.184992236490345
10
196.75943019590812
20
85.311401571702561
42
-0.4176115880926618
10
197.88571291336831
20
84.442688739159863
10
198.26446904130395
20
81.368917021313365
42
0.41409013117381155
10
199.37884129056556
20
80.498669003578442
10
215.82135311806425
20
82.517712919041003
42
-0.4504590602198299
10
216.94323181634695
20
81.525204254777435
10
216.94337542465976
20
77.57325663023073
42
0.41420291907849305
10
217.9433754239995
20
76.573292968848136
10
254.99330275732817
20
76.573292968848136
42
0.41421356237312884
10
255.99330275732819
20
77.573292968848136
10
255.99330275732819
20
133.67329295960474
42
0.41421356237309509
10
254.99330275732817
20
134.67329295960477
10
212.75354760818769
20
134.67329295960474
42
-0.3788943215042509
10
211.76098943470515
20
135.55152156619462
10
211.27797366646638
20
139.48858129147541
42
0.41424522764379035
10
210.16353679404097
20
140.35935490094627
10
192.56267546952202
20
138.19807246812843
42
-0.40914235314323649
10
191.45051497236415
20
139.05154209531591
10
191.01408273703635
20
142.159143974112
42
0.4126515138599432
10
189.89001177167992
20
143.01107841610727
10
172.05158108742688
20
140.60283912144098
42
0.41577733813139273
10
171.19508845635346
20
139.47275392805881
10
172.33013444467329
20
131.39069499587086
42
-0.40403267696281048
10
171.51338179082202
20
130.26679088579957
10
152.93979853705173
20
126.99408173619281
42
0.41421836191828282
10
152.12850179073007
20
125.83570771943627
10
152.30241478158138
20
124.84879517552019
42
-0.41419768239977495
10
151.49118756823555
20
123.69043341316882
10
125.42206904094401
20
119.09509551237761
42
-0.04364835302934502
10
125.24847036360458
20
119.07991199235039
10
111.26686972694957
20
119.07991199235039
42
-0.41421356237309509
10
110.26686972694958
20
120.07991199235038
10
110.26686972694958
20
126.18783528806267
42
-0.41421356237309509
10
111.26686972694957
20
127.18783528806267
10
125.07354368490064
20
127.18783528806267
42
0.043648353029475444
10
125.42074103957947
20
127.21820232811707
10
141.23953036908944
20
130.00666186403996
42
0.26807397278131367
10
142.77200224986433
20
131.29303530865573
42
-0.26809289248867663
10
145.83722414331717
20
133.86583121550782
10
161.56561615851447
20
136.63721096240127
42
0.40403267696283851
10
163.19912146621692
20
138.8850191825438
10
162.5737366485009
20
143.33805192666981
42
-0.41577733813137596
10
165.9997071727943
20
147.85839270019846
10
193.74837712607646
20
151.6045427141238
42
-0.3771826493312973
10
198.14676349457159
20
148.67754552813986
42
0.37375712756353546
10
200.32213574242192
20
147.21097656476363
10
214.15176877001019
20
148.90917430428021
42
-0.41424522764381372
10
218.60951625971211
20
145.42607986639683
10
218.73175035976627
20
144.42975017278445
42
0.37889432150421931
10
220.71686670673131
20
142.67329295960474
10
259.99330275732825
20
142.67329295960474
42
-0.41421356237308593
10
263.99330275732825
20
138.67329295960471
10
263.99330275732825
20
72.573292968848136
42
-0.4142135623731022
10
259.99330275732814
20
68.573292968848136
10
210.105845770374
20
68.573292968848122
42
0.027010220705137217
10
209.89023635894415
20
68.561637149744101
10
190.04978395167495
20
66.410204662785816
42
0.016600883857519993
10
189.91833507437752
20
66.391517950645692
10
180.71247018108676
20
64.769422857056242
42
0.54864211657913431
10
179.42116801355783
20
61.652693021195461
10
184.412069286042
20
54.52420181139086
42
-0.41418941201075271
10
183.42976328261415
20
48.953525339967086
10
160.40974614356355
20
32.833592811513299
42
-0.36072517686753347
10
155.31963759429144
20
33.249338455672316
42
0.3371026002664837
10
152.91648442067466
20
33.547921735057443
10
121.46392171277108
20
15.259955236643863
42
-0.13243244913769536
10
119.45330900572489
20
14.717907888468975
10
90.030430448174243
20
14.717907888468977
42
-0.13243244913769436
10
88.019817741128037
20
15.259955236643865
10
56.567255033224455
20
33.547921735057443
42
0.33710260026648164
10
54.164101859607669
20
33.249338455672323
42
-0.36072517686753336
10
49.073993310335588
20
32.833592811513327
10
26.053976171284944
20
48.953525339967079
42
-0.41418941201075105
10
25.071670167857121
20
54.524201811390881
10
30.062571440341305
20
61.652693021195475
42
0.54864211657912654
10
28.771269272812347
20
64.769422857056256
10
19.56540437952161
20
66.391517950645692
42
0.016600883857413297
10
19.433955502224176
20
66.410204662785816
10
-0.40649690504496572
20
68.561637149744087
42
0.027010220705107075
10
-0.62210631647485748
20
68.573292968848122
10
-50.509563303429069
20
68.573292968848165
42
-0.41421356237309892
10
-54.509563303429076
20
72.573292968848136
10
-54.509563303429083
20
138.67329295960471
42
-0.41421356237308526
10
-50.509563303429125
20
142.67329295960471
10
-11.233127252832178
20
142.67329295960474
42
0.37889432150423014
10
-9.2480109058671456
20
144.42975017278448
10
-9.1257768058129844
20
145.42607986639686
42
-0.41424522764381133
10
-4.6680293161110589
20
148.90917430428021
10
9.1616037114771895
20
147.21097656476357
42
0.37375712756352747
10
11.336975959327537
20
148.67754552813986
42
-0.3771826493313063
10
15.735362327822733
20
151.60454271412377
10
43.484032281104781
20
147.85839270019844
42
-0.41577733813137169
10
46.910002805398243
20
143.33805192666989
10
46.284617987682182
20
138.8850191825438
42
0.40403267696283746
10
47.918123295384653
20
136.63721096240127
10
63.646515310581997
20
133.86583121550782
42
-0.26809289248867751
10
66.711737204034819
20
131.29303530865573
42
0.26807397278130346
10
68.244209084809697
20
130.00666186403998
10
84.062998414319608
20
127.21820232811709
42
0.043648353029471121
10
84.410195768998477
20
127.18783528806267
10
98.216869726949568
20
127.18783528806264
42
-0.41421356237309509
10
99.216869726949568
20
126.18783528806264
0
CIRCLE
5
101
100
AcDbEntity
8
0
100
AcDbCircle
10
194.366147393745
20
143.45708318961061
30
0
40
1.5000000000000213
210
0
220
0
230
1
0
CIRCLE
5
102
100
AcDbEntity
8
0
100
AcDbCircle
10
259.49330275732814
20
138.17300207126144
30
0
40
1.5000000000000213
210
0
220
0
230
1
0
CIRCLE
5
103
100
AcDbEntity
8
0
100
AcDbCircle
10
93.741869726949602
20
122.68783528806267
30
0
40
1.5000000000000036
210
0
220
0
230
1
0
CIRCLE
5
104
100
AcDbEntity
8
0
100
AcDbCircle
10
259.49330275732814
20
73.073294611453832
30
0
40
1.5000000000000213
210
0
220
0
230
1
0
CIRCLE
5
105
100
AcDbEntity
8
0
100
AcDbCircle
10
19.142625746079133
20
73.345121313199598
30
0
40
1.4999999999999858
210
0
220
0
230
1
0
CIRCLE
5
106
100
AcDbEntity
8
0
100
AcDbCircle
10
76.284638443490309
20
27.288720463762278
30
0
40
1.5000000000000036
210
0
220
0
230
1
0
CIRCLE
5
107
100
AcDbEntity
8
0
100
AcDbCircle
10
190.34111370782
20
73.345121313199598
30
0
40
1.4999999999999858
210
0
220
0
230
1
0
CIRCLE
5
108
100
AcDbEntity
8
0
100
AcDbCircle
10
15.11759206015415
20
143.45708318961061
30
0
40
1.5000000000000213
210
0
220
0
230
1
0
CIRCLE
5
109
100
AcDbEntity
8
0
100
AcDbCircle
10
-50.00956330342899
20
73.073294611453832
30
0
40
1.5000000000000213
210
0
220
0
230
1
0
CIRCLE
5
110
100
AcDbEntity
8
0
100
AcDbCircle
10
133.19910101040881
20
27.288720463762278
30
0
40
1.5000000000000036
210
0
220
0
230
1
0
CIRCLE
5
111
100
AcDbEntity
8
0
100
AcDbCircle
10
115.74186972694953
20
122.68783528806267
30
0
40
1.5000000000000036
210
0
220
0
230
1
0
CIRCLE
5
112
100
AcDbEntity
8
0
100
AcDbCircle
10
-50.00956330342899
20
138.17300207126144
30
0
40
1.5000000000000213
210
0
220
0
230
1
0
ENDSEC
0
SECTION
2
OBJECTS
0
DICTIONARY
5
C
100
AcDbDictionary
3
ACAD_GROUP
350
D
3
ACAD_MLINESTYLE
350
17
0
DICTIONARY
5
D
100
AcDbDictionary
0
DICTIONARY
5
1A
330
C
100
AcDbDictionary
0
DICTIONARY
5
17
100
AcDbDictionary
0
ENDSEC
0
EOF
