0
SECTION
2
HEADER
9
$INSUNITS
70
4
9
$ACADVER
1
AC1014
9
$HANDSEED
5
FFFF
0
ENDSEC
0
SECTION
2
TABLES
0
TABLE
2
VPORT
5
8
100
AcDbSymbolTable
0
ENDTAB
0
TABLE
2
LTYPE
5
5
100
AcDbSymbolTable
0
LTYPE
5
14
100
AcDbSymbolTableRecord
100
AcDbLinetypeTableRecord
2
BYBLOCK
70
0
0
LTYPE
5
15
100
AcDbSymbolTableRecord
100
AcDbLinetypeTableRecord
2
BYLAYER
70
0
0
ENDTAB
0
TABLE
2
LAYER
5
2
100
AcDbSymbolTable
70
2
0
LAYER
5
50
100
AcDbSymbolTableRecord
100
AcDbLayerTableRecord
2
0
70
0
6
CONTINUOUS
0
ENDTAB
0
TABLE
2
STYLE
5
3
100
AcDbSymbolTable
70
1
0
STYLE
5
11
100
AcDbSymbolTableRecord
100
AcDbTextStyleTableRecord
2
STANDARD
70
0
0
ENDTAB
0
TABLE
2
VIEW
5
6
100
AcDbSymbolTable
70
0
0
ENDTAB
0
TABLE
2
UCS
5
7
100
AcDbSymbolTable
70
0
0
ENDTAB
0
TABLE
2
APPID
5
9
100
AcDbSymbolTable
70
2
0
APPID
5
12
100
AcDbSymbolTableRecord
100
AcDbRegAppTableRecord
2
ACAD
70
0
0
ENDTAB
0
TABLE
2
DIMSTYLE
5
A
100
AcDbSymbolTable
70
1
0
ENDTAB
0
TABLE
2
BLOCK_RECORD
5
1
100
AcDbSymbolTable
70
1
0
BLOCK_RECORD
5
1F
100
AcDbSymbolTableRecord
100
AcDbBlockTableRecord
2
*MODEL_SPACE
0
BLOCK_RECORD
5
1B
100
AcDbSymbolTableRecord
100
AcDbBlockTableRecord
2
*PAPER_SPACE
0
ENDTAB
0
ENDSEC
0
SECTION
2
BLOCKS
0
BLOCK
5
20
100
AcDbEntity
100
AcDbBlockBegin
2
*MODEL_SPACE
0
ENDBLK
5
21
100
AcDbEntity
100
AcDbBlockEnd
0
BLOCK
5
1C
100
AcDbEntity
100
AcDbBlockBegin
2
*PAPER_SPACE
0
ENDBLK
5
1D
100
AcDbEntity
100
AcDbBlockEnd
0
ENDSEC
0
SECTION
2
ENTITIES
0
LWPOLYLINE
5
100
100
AcDbEntity
8
0
100
AcDbPolyline
90
4
70
1
43
0.0
10
163.32053756818411
20
65.208385198481665
10
152.09772532577364
20
57.350463165592281
10
159.95589565042346
20
46.127734958014756
10
171.17776414700938
20
53.985929064277116
0
LWPOLYLINE
5
101
100
AcDbEntity
8
0
100
AcDbPolyline
90
4
70
1
43
0.0
10
171.47355584914504
20
113.15019957274147
10
169.09598548056508
20
126.64231427509068
10
155.60383181777624
20
124.26496499698919
10
157.98140218635612
20
110.77285029463997
0
LWPOLYLINE
5
102
100
AcDbEntity
8
0
100
AcDbPolyline
90
4
70
1
43
0.0
10
177.16377105357202
20
118.89160682271435
10
179.06913082719075
20
105.32455303293573
10
192.64615862576153
20
107.15749071832072
10
190.74079885214297
20
120.72454450809934
0
LWPOLYLINE
5
103
100
AcDbEntity
8
0
100
AcDbPolyline
90
4
70
1
43
0.0
10
199.45252715061895
20
97.484277402007564
10
201.12799599591031
20
83.88711455514067
10
214.72586374294312
20
85.556852878940802
10
213.05039489765167
20
99.15401572580771
0
LWPOLYLINE
5
104
100
AcDbEntity
8
0
100
AcDbPolyline
90
4
70
1
43
0.0
10
220.09196906531571
20
112.47278963967662
10
220.09246690437439
20
98.772789648721897
10
233.79246689532903
20
98.773287487780522
10
233.79196905627055
20
112.47328747873512
0
LWPOLYLINE
5
105
100
AcDbEntity
8
0
100
AcDbPolyline
90
4
70
1
43
0.0
10
65.018988270363835
20
59.475845473676102
10
58.168879936034763
20
47.611359979927727
10
70.033129087520521
20
40.760842313730421
10
76.8832374218495
20
52.625327807478818
0
LWPOLYLINE
5
106
100
AcDbEntity
8
0
100
AcDbPolyline
90
4
70
1
43
0.0
10
55.32174577483984
20
101.61895914993197
10
52.943558844105816
20
88.126953111684401
10
66.435544620222686
20
85.748651232047763
10
68.813731550956732
20
99.240657270295372
0
LWPOLYLINE
5
107
100
AcDbEntity
8
0
100
AcDbPolyline
90
4
70
1
43
0.0
10
-3.5666554437526088
20
99.15401572580771
10
-5.2421242890440567
20
85.556852878940802
10
8.3557434579887513
20
83.88711455514067
10
10.031212303280128
20
97.484277402007564
0
LWPOLYLINE
5
108
100
AcDbEntity
8
0
100
AcDbPolyline
90
4
70
1
43
0.0
10
-24.308229602371476
20
112.47328747873512
10
-24.308727441429951
20
98.773287487780522
10
-10.608727450475328
20
98.772789648721897
10
-10.60822961141664
20
112.47278963967662
0
LWPOLYLINE
5
109
100
AcDbEntity
8
0
100
AcDbPolyline
90
4
70
1
43
0.0
10
-29.659060022722379
20
131.52278968243024
10
-43.359060013676967
20
131.52328752148878
10
-43.359557852735513
20
117.82328753053419
10
-29.659557861780925
20
117.82278969147558
0
LWPOLYLINE
5
110
100
AcDbEntity
8
0
100
AcDbPolyline
90
4
70
1
43
0.0
10
56.249703662064491
20
106.88786746297569
10
69.74168943818141
20
104.50956558333912
10
72.119876368915442
20
118.00157162158668
10
58.627890592798607
20
120.37987350122329
0
LWPOLYLINE
5
111
100
AcDbEntity
8
0
100
AcDbPolyline
90
4
70
1
43
0.0
10
-10.609060022722687
20
131.52278966985259
10
-24.309060013677275
20
131.52328750891112
10
-24.309557852735821
20
117.82328751795647
10
-10.609557861781305
20
117.82278967889795
0
LWPOLYLINE
5
112
100
AcDbEntity
8
0
100
AcDbPolyline
90
4
70
1
43
0.0
10
-29.658727463053154
20
98.772789648722394
10
-29.658229623994536
20
112.47278963967703
10
-43.35822961494916
20
112.47328747873553
10
-43.358727454007777
20
98.773287487780976
0
LWPOLYLINE
5
113
100
AcDbEntity
8
0
100
AcDbPolyline
90
4
70
1
43
0.0
10
18.742940601756111
20
120.72454450809934
10
16.837580828137533
20
107.15749071832072
10
30.414608626708315
20
105.32455303293573
10
32.319968400327035
20
118.89160682271435
0
LWPOLYLINE
5
114
100
AcDbEntity
8
0
100
AcDbPolyline
90
4
70
1
43
0.0
10
52.016015566469385
20
82.857971713271354
10
49.637828635735453
20
69.365965675023745
10
63.12981441185233
20
66.987663795387121
10
65.508001342586368
20
80.479669833634773
0
LWPOLYLINE
5
115
100
AcDbEntity
8
0
100
AcDbPolyline
90
4
70
1
43
0.0
10
80.591886674337275
20
48.324228840739153
10
73.705538152704037
20
36.480741008238176
10
85.549025985205077
20
29.594392486604942
10
92.435374506838329
20
41.437880319106014
0
LWPOLYLINE
5
116
100
AcDbEntity
8
0
100
AcDbPolyline
90
4
70
1
43
0.0
10
252.84246690790684
20
98.773287487780976
10
252.84196906884824
20
112.47328747873553
10
239.14196907789361
20
112.47278963967703
10
239.14246691695223
20
98.772789648722394
0
LWPOLYLINE
5
117
100
AcDbEntity
8
0
100
AcDbPolyline
90
4
70
1
43
0.0
10
197.13717482944281
20
116.39305011964255
10
198.80544292891074
20
102.79500306346542
10
212.40330954784551
20
104.46474124874173
10
210.7350414483777
20
118.06278830491885
0
LWPOLYLINE
5
118
100
AcDbEntity
8
0
100
AcDbPolyline
90
4
70
1
43
0.0
10
193.28849344002549
20
101.84567395705963
10
179.71146564145445
20
100.01273627167463
10
181.61682541507321
20
86.445682481896071
10
195.19385321364422
20
88.278620167281019
0
LWPOLYLINE
5
119
100
AcDbEntity
8
0
100
AcDbPolyline
90
4
70
1
43
0.0
10
150.85584886110047
20
120.37987350122329
10
137.36386308498362
20
118.00157162158668
10
139.74205001571767
20
104.50956558333912
10
153.23403579183457
20
106.88786746297569
0
LWPOLYLINE
5
120
100
AcDbEntity
8
0
100
AcDbPolyline
90
4
70
1
43
0.0
10
132.60050203204958
20
52.625327807478818
10
139.45061036637856
20
40.760842313730421
10
151.31485951786431
20
47.611359979927727
10
144.46475118353524
20
59.475845473676102
0
LWPOLYLINE
5
121
100
AcDbEntity
8
0
100
AcDbPolyline
90
4
70
1
43
0.0
10
143.97573811131269
20
80.479669833634773
10
146.35392504204674
20
66.987663795387121
10
159.84591081816362
20
69.365965675023745
10
157.46772388742968
20
82.857971713271354
0
LWPOLYLINE
5
122
100
AcDbEntity
8
0
100
AcDbPolyline
90
4
70
1
43
0.0
10
158.90997663265242
20
105.50405066318577
10
161.28754700123227
20
92.011935960836567
10
174.77970066402125
20
94.389285238938001
10
172.40213029544137
20
107.88139994128727
0
LWPOLYLINE
5
123
100
AcDbEntity
8
0
100
AcDbPolyline
90
4
70
1
43
0.0
10
190.09747558443706
20
126.03622782531133
10
188.19211581081862
20
139.60328161508997
10
174.61508801224772
20
137.77034392970501
10
176.52044778586645
20
124.20329013992637
0
LWPOLYLINE
5
124
100
AcDbEntity
8
0
100
AcDbPolyline
90
4
70
1
43
0.0
10
233.7927994675764
20
93.423287508911073
10
220.09279947662176
20
93.422789669852534
10
220.09329731568039
20
79.722789678897868
10
233.79329730663488
20
79.723287517956479
0
LWPOLYLINE
5
125
100
AcDbEntity
8
0
100
AcDbPolyline
90
4
70
1
43
0.0
10
220.09329731568039
20
117.82278967889795
10
233.79329730663488
20
117.82328751795647
10
233.79279946757634
20
131.52328750891112
10
220.09279947662176
20
131.52278966985259
0
LWPOLYLINE
5
126
100
AcDbEntity
8
0
100
AcDbPolyline
90
4
70
1
43
0.0
10
38.305975306889692
20
53.985929064277116
10
49.527843803475605
20
46.127734958014756
10
57.386014128125424
20
57.350463165592281
10
46.163201885714962
20
65.208385198481665
0
LWPOLYLINE
5
127
100
AcDbEntity
8
0
100
AcDbPolyline
90
4
70
1
43
0.0
10
37.081609158457702
20
107.88139994128727
10
34.704038789877814
20
94.389285238938001
10
48.196192452666793
20
92.011935960836567
10
50.573762821246646
20
105.50405066318577
0
LWPOLYLINE
5
128
100
AcDbEntity
8
0
100
AcDbPolyline
90
4
70
1
43
0.0
10
-24.309557852735821
20
79.723287517956479
10
-10.609557861781305
20
79.722789678897868
10
-10.609060022722687
20
93.422789669852534
10
-24.309060013677346
20
93.423287508911073
0
LWPOLYLINE
5
129
100
AcDbEntity
8
0
100
AcDbPolyline
90
4
70
1
43
0.0
10
-1.2513019944786308
20
118.06278830491885
10
-2.9195700939464331
20
104.46474124874173
10
10.678296524988333
20
102.79500306346542
10
12.346564624456242
20
116.39305011964255
0
LWPOLYLINE
5
130
100
AcDbEntity
8
0
100
AcDbPolyline
90
4
70
1
43
0.0
10
32.96329166803261
20
124.20329013992637
10
34.86865144165133
20
137.77034392970501
10
21.291623643080442
20
139.60328161508997
10
19.386263869462006
20
126.03622782531133
0
LWPOLYLINE
5
131
100
AcDbEntity
8
0
100
AcDbPolyline
90
4
70
1
43
0.0
10
51.502337267542956
20
110.77285029463997
10
53.87990763612283
20
124.26496499698919
10
40.387753973333993
20
126.64231427509068
10
38.010183604754033
20
113.15019957274147
0
LWPOLYLINE
5
132
100
AcDbEntity
8
0
100
AcDbPolyline
90
4
70
1
43
0.0
10
14.668353851153135
20
135.30103242307183
10
1.0704872322184045
20
136.97077060834812
10
-0.59778086724953994
20
123.37272355217101
10
13.000085751685262
20
121.70298536689471
0
LWPOLYLINE
5
133
100
AcDbEntity
8
0
100
AcDbPolyline
90
4
70
1
43
0.0
10
-43.359557852736508
20
79.723287505378863
10
-29.659557861781813
20
79.722789666320239
10
-29.659060022723267
20
93.422789657274876
10
-43.35906001367789
20
93.423287496333387
0
LWPOLYLINE
5
134
100
AcDbEntity
8
0
100
AcDbPolyline
90
4
70
1
43
0.0
10
14.289886240254859
20
88.278620167281019
10
27.866914038825854
20
86.445682481896071
10
29.77227381244461
20
100.01273627167463
10
16.195246013873579
20
101.84567395705963
0
LWPOLYLINE
5
135
100
AcDbEntity
8
0
100
AcDbPolyline
90
4
70
1
43
0.0
10
47.26803262111865
20
86.743063273286396
10
33.775878958329741
20
89.120412551387915
10
31.398308589749817
20
75.628297849038702
10
44.890462252538867
20
73.250948570937211
0
LWPOLYLINE
5
136
100
AcDbEntity
8
0
100
AcDbPolyline
90
4
70
1
43
0.0
10
239.14329731568
20
117.82278969147558
10
252.84329730663458
20
117.82328753053419
10
252.84279946757604
20
131.52328752148878
10
239.14279947662146
20
131.52278968243024
0
LWPOLYLINE
5
137
100
AcDbEntity
8
0
100
AcDbPolyline
90
4
70
1
43
0.0
10
252.84279946757695
20
93.423287496333387
10
239.14279947662234
20
93.422789657274876
10
239.14329731568088
20
79.722789666320239
10
252.84329730663558
20
79.723287505378863
0
LWPOLYLINE
5
138
100
AcDbEntity
8
0
100
AcDbPolyline
90
4
70
1
43
0.0
10
196.48365370221381
20
121.70298536689471
10
210.08152032114862
20
123.37272355217101
10
208.41325222168066
20
136.97077060834812
10
194.81538560274595
20
135.30103242307183
0
LWPOLYLINE
5
139
100
AcDbEntity
8
0
100
AcDbPolyline
90
4
70
1
43
0.0
10
164.59327720136019
20
73.250948570937211
10
178.08543086414926
20
75.628297849038702
10
175.70786049556932
20
89.120412551387915
10
162.21570683278043
20
86.743063273286396
0
LWPOLYLINE
5
140
100
AcDbEntity
8
0
100
AcDbPolyline
90
4
70
1
43
0.0
10
140.67000790294233
20
99.240657270295372
10
143.04819483367638
20
85.748651232047763
10
156.54018060979325
20
88.126953111684401
10
154.16199367905924
20
101.61895914993197
0
LWPOLYLINE
5
141
100
AcDbEntity
8
0
100
AcDbPolyline
90
4
70
1
43
0.0
10
117.04836494706073
20
41.437880319106014
10
123.93471346869399
20
29.594392486604942
10
135.77820130119503
20
36.480741008238176
10
128.89185277956182
20
48.324228840739153
0
CIRCLE
5
142
100
AcDbEntity
8
0
100
AcDbCircle
10
190.34111370782
20
73.34512131319957
30
0
40
1.0000000000000142
210
0
220
0
230
1
0
CIRCLE
5
143
100
AcDbEntity
8
0
100
AcDbCircle
10
115.74186972694952
20
122.68783528806266
30
0
40
0.99999999999999645
210
0
220
0
230
1
0
CIRCLE
5
144
100
AcDbEntity
8
0
100
AcDbCircle
10
259.49330275732814
20
73.073292968848108
30
0
40
0.99999999999997868
210
0
220
0
230
1
0
CIRCLE
5
145
100
AcDbEntity
8
0
100
AcDbCircle
10
-50.009563303429076
20
138.17329295960468
30
0
40
1.0000000000000142
210
0
220
0
230
1
0
CIRCLE
5
146
100
AcDbEntity
8
0
100
AcDbCircle
10
133.19910101040881
20
27.28872046376226
30
0
40
1.0000000000000142
210
0
220
0
230
1
0
CIRCLE
5
147
100
AcDbEntity
8
0
100
AcDbCircle
10
-50.009563303429104
20
73.073292968848108
30
0
40
0.99999999999997868
210
0
220
0
230
1
0
CIRCLE
5
148
100
AcDbEntity
8
0
100
AcDbCircle
10
76.284638443490223
20
27.28872046376226
30
0
40
1.0000000000000142
210
0
220
0
230
1
0
CIRCLE
5
149
100
AcDbEntity
8
0
100
AcDbCircle
10
259.49330275732814
20
138.17329295960468
30
0
40
1.0000000000000142
210
0
220
0
230
1
0
CIRCLE
5
150
100
AcDbEntity
8
0
100
AcDbCircle
10
15.11759206015407
20
143.45708318961059
30
0
40
1.0000000000000142
210
0
220
0
230
1
0
CIRCLE
5
151
100
AcDbEntity
8
0
100
AcDbCircle
10
194.366147393745
20
143.45708318961059
30
0
40
1.0000000000000142
210
0
220
0
230
1
0
CIRCLE
5
152
100
AcDbEntity
8
0
100
AcDbCircle
10
19.142625746079052
20
73.34512131319957
30
0
40
1.0000000000000142
210
0
220
0
230
1
0
CIRCLE
5
153
100
AcDbEntity
8
0
100
AcDbCircle
10
93.741869726949517
20
122.68783528806266
30
0
40
0.99999999999999645
210
0
220
0
230
1
0
LWPOLYLINE
5
154
100
AcDbEntity
8
0
100
AcDbPolyline
90
66
70
1
43
0.0
10
84.410195768998463
20
127.18783528806264
10
125.07354368490057
20
127.18783528806264
42
0.043648353029485061
10
125.42074103957941
20
127.21820232811706
10
142.02966958499269
20
130.14594377654268
42
0.26807105236038165
10
143.56213401916091
20
131.43229673564809
42
-0.26808997204010848
10
146.62734101940038
20
134.00505167147941
10
161.5656161585143
20
136.63721096240124
42
0.40403267696284334
10
163.19912146621681
20
138.88501918254377
10
162.57373664850078
20
143.33805192666981
42
-0.41577733813137852
10
165.99970717279419
20
147.85839270019844
10
193.79303614501561
20
151.61057180974174
42
-0.37720866060792418
10
198.19151695723087
20
148.68322273431855
42
0.37378308026128892
10
200.36693642694138
20
147.21647782622267
10
214.15175693368045
20
148.90917285128128
42
-0.41424522764381261
10
218.60950442338236
20
145.42607841339793
10
218.731774032635
20
144.42945928444118
42
0.37889432150422686
10
220.71689037960004
20
142.67300207126144
10
259.99330275732808
20
142.67300207126144
42
-0.41421356237308854
10
263.99330275732814
20
138.67300207126141
10
263.99330275732814
20
72.573294611453804
42
-0.41421356237309959
10
259.99330275732808
20
68.573294611453818
10
210.10586091843948
20
68.573294611453804
42
0.027010220705141082
10
209.89025150700962
20
68.561638792349783
10
190.04978395167512
20
66.410204662785816
42
0.016600883857532549
10
189.91833507437769
20
66.391517950645692
10
180.71247018108664
20
64.769422857056227
42
0.54864211657913298
10
179.42116801355775
20
61.652693021195461
10
184.41206928604188
20
54.524201811390867
42
-0.4141894120107264
10
183.42976328261415
20
48.953525339967129
10
160.40974614356347
20
32.833592811513299
42
-0.36072517686753341
10
155.31963759429138
20
33.249338455672287
42
0.33710260026648908
10
152.91648442067458
20
33.547921735057422
10
121.46392171277103
20
15.259955236643865
42
-0.1324324491376957
10
119.45330900572483
20
14.717907888468972
10
90.030430448174201
20
14.717907888468961
42
-0.13243244913769786
10
88.01981774112798
20
15.259955236643869
10
56.567255033224448
20
33.547921735057429
42
0.33710260026648442
10
54.164101859607669
20
33.249338455672287
42
-0.36072517686753336
10
49.073993310335538
20
32.833592811513284
10
26.053976171284955
20
48.95352533996715
42
-0.41418941201072917
10
25.071670167857167
20
54.52420181139081
10
30.062571440341316
20
61.652693021195482
42
0.54864211657911799
10
28.771269272812372
20
64.769422857056242
10
19.565404379521354
20
66.391517950645692
42
0.016600883857478568
10
19.433955502223927
20
66.410204662785816
10
-0.40651205311053162
20
68.561638792349768
42
0.027010220705106301
10
-0.62212146454042383
20
68.573294611453804
10
-50.509563303429076
20
68.57329461145379
42
-0.41421356237309959
10
-54.509563303429132
20
72.573294611453818
10
-54.509563303429111
20
138.67300207126141
42
-0.41421356237309048
10
-50.509563303429118
20
142.67300207126141
10
-11.233150925701008
20
142.67300207126144
42
0.37889432150423596
10
-9.248034578735993
20
144.42945928444118
10
-9.1257649694833667
20
145.4260784133979
42
-0.41424522764381072
10
-4.6680174797814367
20
148.90917285128131
10
9.1168030269576619
20
147.21647782622267
42
0.37378308026129459
10
11.292222496668147
20
148.6832227343186
42
-0.37720866060792502
10
15.690703308883496
20
151.61057180974177
10
43.484032281104803
20
147.85839270019841
42
-0.41577733813138029
10
46.910002805398264
20
143.33805192666986
10
46.284617987682246
20
138.8850191825438
42
0.40403267696284217
10
47.918123295384696
20
136.63721096240124
10
62.856398434498658
20
134.00505167147941
42
-0.26808997204011314
10
65.92160543473814
20
131.43229673564807
42
0.26807105236036999
10
67.454069868906345
20
130.14594377654271
10
84.062998414319594
20
127.21820232811707
42
0.043648353029467596
0
ENDSEC
0
SECTION
2
OBJECTS
0
DICTIONARY
5
C
100
AcDbDictionary
3
ACAD_GROUP
350
D
3
ACAD_MLINESTYLE
350
17
0
DICTIONARY
5
D
100
AcDbDictionary
0
DICTIONARY
5
1A
330
C
100
AcDbDictionary
0
DICTIONARY
5
17
100
AcDbDictionary
0
ENDSEC
0
EOF
