0
SECTION
2
HEADER
9
$INSUNITS
70
4
9
$ACADVER
1
AC1014
9
$HANDSEED
5
FFFF
0
ENDSEC
0
SECTION
2
TABLES
0
TABLE
2
VPORT
5
8
100
AcDbSymbolTable
0
ENDTAB
0
TABLE
2
LTYPE
5
5
100
AcDbSymbolTable
0
LTYPE
5
14
100
AcDbSymbolTableRecord
100
AcDbLinetypeTableRecord
2
BYBLOCK
70
0
0
LTYPE
5
15
100
AcDbSymbolTableRecord
100
AcDbLinetypeTableRecord
2
BYLAYER
70
0
0
ENDTAB
0
TABLE
2
LAYER
5
2
100
AcDbSymbolTable
70
2
0
LAYER
5
50
100
AcDbSymbolTableRecord
100
AcDbLayerTableRecord
2
0
70
0
6
CONTINUOUS
0
ENDTAB
0
TABLE
2
STYLE
5
3
100
AcDbSymbolTable
70
1
0
STYLE
5
11
100
AcDbSymbolTableRecord
100
AcDbTextStyleTableRecord
2
STANDARD
70
0
0
ENDTAB
0
TABLE
2
VIEW
5
6
100
AcDbSymbolTable
70
0
0
ENDTAB
0
TABLE
2
UCS
5
7
100
AcDbSymbolTable
70
0
0
ENDTAB
0
TABLE
2
APPID
5
9
100
AcDbSymbolTable
70
2
0
APPID
5
12
100
AcDbSymbolTableRecord
100
AcDbRegAppTableRecord
2
ACAD
70
0
0
ENDTAB
0
TABLE
2
DIMSTYLE
5
A
100
AcDbSymbolTable
70
1
0
ENDTAB
0
TABLE
2
BLOCK_RECORD
5
1
100
AcDbSymbolTable
70
1
0
BLOCK_RECORD
5
1F
100
AcDbSymbolTableRecord
100
AcDbBlockTableRecord
2
*MODEL_SPACE
0
BLOCK_RECORD
5
1B
100
AcDbSymbolTableRecord
100
AcDbBlockTableRecord
2
*PAPER_SPACE
0
ENDTAB
0
ENDSEC
0
SECTION
2
BLOCKS
0
BLOCK
5
20
100
AcDbEntity
100
AcDbBlockBegin
2
*MODEL_SPACE
0
ENDBLK
5
21
100
AcDbEntity
100
AcDbBlockEnd
0
BLOCK
5
1C
100
AcDbEntity
100
AcDbBlockBegin
2
*PAPER_SPACE
0
ENDBLK
5
1D
100
AcDbEntity
100
AcDbBlockEnd
0
ENDSEC
0
SECTION
2
ENTITIES
0
LWPOLYLINE
5
100
100
AcDbEntity
8
0
100
AcDbPolyline
90
6
70
1
43
0.0
10
46.416689206547474
20
6.8916892065474755
10
45.704189206547468
20
8.1257754069402921
10
44.279189206547471
20
8.1257754069402921
10
43.566689206547473
20
6.8916892065474755
10
44.279189206547471
20
5.6576030061546412
10
45.704189206547468
20
5.6576030061546412
0
LWPOLYLINE
5
101
100
AcDbEntity
8
0
100
AcDbPolyline
90
6
70
1
43
0.0
10
44.279189206547471
20
-81.857603006154648
10
43.566689206547473
20
-83.091689206547485
10
44.279189206547471
20
-84.325775406940295
10
45.704189206547468
20
-84.325775406940295
10
46.416689206547474
20
-83.091689206547485
10
45.704189206547468
20
-81.857603006154648
0
LWPOLYLINE
5
102
100
AcDbEntity
8
0
100
AcDbPolyline
90
6
70
1
43
0.0
10
-6.1791892065474219
20
5.657603006154666
10
-5.4666892065474215
20
6.8916892065474915
10
-6.1791892065474219
20
8.125775406940317
10
-7.6041892065474226
20
8.125775406940317
10
-8.3166892065474229
20
6.8916892065474915
10
-7.6041892065474226
20
5.657603006154666
0
LWPOLYLINE
5
103
100
AcDbEntity
8
0
100
AcDbPolyline
90
6
70
1
43
0.0
10
-7.6041892065474226
20
-84.325775406940338
10
-6.1791892065474219
20
-84.325775406940338
10
-5.4666892065474215
20
-83.0916892065475
10
-6.1791892065474219
20
-81.857603006154676
10
-7.6041892065474226
20
-81.857603006154676
10
-8.3166892065474229
20
-83.0916892065475
0
LWPOLYLINE
5
104
100
AcDbEntity
8
0
100
AcDbPolyline
90
8
70
1
43
0.0
10
41.100000000000009
20
15
42
-0.41421356237309609
10
53.100000000000009
20
3.0000000000000071
10
53.100000000000009
20
-79.200000000000017
42
-0.41421356237309548
10
41.100000000000009
20
-91.200000000000017
10
-3.0000000000000031
20
-91.200000000000017
42
-0.41421356237309453
10
-15.000000000000004
20
-79.200000000000017
10
-14.999999999999998
20
3.0000000000000036
42
-0.41421356237309537
10
-2.9999999999999982
20
15
0
ENDSEC
0
SECTION
2
OBJECTS
0
DICTIONARY
5
C
100
AcDbDictionary
3
ACAD_GROUP
350
D
3
ACAD_MLINESTYLE
350
17
0
DICTIONARY
5
D
100
AcDbDictionary
0
DICTIONARY
5
1A
330
C
100
AcDbDictionary
0
DICTIONARY
5
17
100
AcDbDictionary
0
ENDSEC
0
EOF
