<?xml version="1.0" encoding="UTF-8" standalone="no"?>
<svg
   xmlns:dc="http://purl.org/dc/elements/1.1/"
   xmlns:cc="http://creativecommons.org/ns#"
   xmlns:rdf="http://www.w3.org/1999/02/22-rdf-syntax-ns#"
   xmlns:svg="http://www.w3.org/2000/svg"
   xmlns="http://www.w3.org/2000/svg"
   xmlns:sodipodi="http://sodipodi.sourceforge.net/DTD/sodipodi-0.dtd"
   xmlns:inkscape="http://www.inkscape.org/namespaces/inkscape"
   width="600mm"
   height="400mm"
   version="1.1"
   id="svg36"
   sodipodi:docname="Foam.svg"
   inkscape:version="0.92.4 (5da689c313, 2019-01-14)">
  <metadata
     id="metadata40">
    <rdf:RDF>
      <cc:Work
         rdf:about="">
        <dc:format>image/svg+xml</dc:format>
        <dc:type
           rdf:resource="http://purl.org/dc/dcmitype/StillImage" />
        <dc:title></dc:title>
      </cc:Work>
    </rdf:RDF>
  </metadata>
  <sodipodi:namedview
     pagecolor="#ffffff"
     bordercolor="#666666"
     borderopacity="1"
     objecttolerance="10"
     gridtolerance="10"
     guidetolerance="10"
     inkscape:pageopacity="0"
     inkscape:pageshadow="2"
     inkscape:window-width="2560"
     inkscape:window-height="1377"
     id="namedview38"
     showgrid="false"
     units="mm"
     inkscape:zoom="0.53807521"
     inkscape:cx="538.0098"
     inkscape:cy="525.00546"
     inkscape:window-x="-8"
     inkscape:window-y="-8"
     inkscape:window-maximized="1"
     inkscape:current-layer="g34" />
  <desc
     id="desc10">C:\msys64\home\cfb\keyboards\voyager104\acrylic_case\F0.dxf - scale = 1.000000, origin = (0.000000, 0.000000), method = manual</desc>
  <defs
     id="defs24">
    <marker
       id="DistanceX"
       orient="auto"
       refX="0"
       refY="0"
       style="overflow:visible">
      <path
         d="M 3,-3 -3,3 M 0,-5 V 5"
         style="stroke:#000000;stroke-width:0.5"
         id="path12"
         inkscape:connector-curvature="0" />
    </marker>
    <pattern
       height="8"
       id="Hatch"
       patternUnits="userSpaceOnUse"
       width="8"
       x="0"
       y="0">
      <path
         d="M8 4 l-4,4"
         linecap="square"
         stroke="#000000"
         stroke-width="0.25"
         id="path15" />
      <path
         d="M6 2 l-4,4"
         linecap="square"
         stroke="#000000"
         stroke-width="0.25"
         id="path17" />
      <path
         d="M4 0 l-4,4"
         linecap="square"
         stroke="#000000"
         stroke-width="0.25"
         id="path19" />
    </pattern>
    <symbol
       id="*MODEL_SPACE" />
    <symbol
       id="*PAPER_SPACE" />
    <marker
       style="overflow:visible"
       refY="0"
       refX="0"
       orient="auto"
       id="DistanceX-6">
      <path
         id="path3747"
         style="stroke:#000000;stroke-width:0.5"
         d="M 3,-3 -3,3 M 0,-5 V 5"
         inkscape:connector-curvature="0" />
    </marker>
    <pattern
       y="0"
       x="0"
       width="8"
       patternUnits="userSpaceOnUse"
       id="Hatch-6"
       height="8">
      <path
         id="path3750"
         stroke-width="0.25"
         stroke="#000000"
         linecap="square"
         d="M8 4 l-4,4" />
      <path
         id="path3752"
         stroke-width="0.25"
         stroke="#000000"
         linecap="square"
         d="M6 2 l-4,4" />
      <path
         id="path3754"
         stroke-width="0.25"
         stroke="#000000"
         linecap="square"
         d="M4 0 l-4,4" />
    </pattern>
    <symbol
       id="*MODEL_SPACE-5" />
    <symbol
       id="*PAPER_SPACE-4" />
    <marker
       style="overflow:visible"
       refY="0.0"
       refX="0.0"
       orient="auto"
       id="DistanceX-5">
      <path
         id="path3792"
         style="stroke:#000000; stroke-width:0.5"
         d="M 3,-3 L -3,3 M 0,-5 L  0,5" />
    </marker>
    <pattern
       y="0"
       x="0"
       width="8"
       patternUnits="userSpaceOnUse"
       id="Hatch-9"
       height="8">
      <path
         id="path3795"
         stroke-width="0.25"
         stroke="#000000"
         linecap="square"
         d="M8 4 l-4,4" />
      <path
         id="path3797"
         stroke-width="0.25"
         stroke="#000000"
         linecap="square"
         d="M6 2 l-4,4" />
      <path
         id="path3799"
         stroke-width="0.25"
         stroke="#000000"
         linecap="square"
         d="M4 0 l-4,4" />
    </pattern>
    <symbol
       id="*MODEL_SPACE-7" />
    <symbol
       id="*PAPER_SPACE-42" />
    <marker
       style="overflow:visible"
       refY="0.0"
       refX="0.0"
       orient="auto"
       id="DistanceX-7">
      <path
         id="path3837"
         style="stroke:#000000; stroke-width:0.5"
         d="M 3,-3 L -3,3 M 0,-5 L  0,5" />
    </marker>
    <pattern
       y="0"
       x="0"
       width="8"
       patternUnits="userSpaceOnUse"
       id="Hatch-94"
       height="8">
      <path
         id="path3840"
         stroke-width="0.25"
         stroke="#000000"
         linecap="square"
         d="M8 4 l-4,4" />
      <path
         id="path3842"
         stroke-width="0.25"
         stroke="#000000"
         linecap="square"
         d="M6 2 l-4,4" />
      <path
         id="path3844"
         stroke-width="0.25"
         stroke="#000000"
         linecap="square"
         d="M4 0 l-4,4" />
    </pattern>
    <symbol
       id="*MODEL_SPACE-50" />
    <symbol
       id="*PAPER_SPACE-7" />
    <marker
       style="overflow:visible"
       refY="0.0"
       refX="0.0"
       orient="auto"
       id="DistanceX-69">
      <path
         id="path3882"
         style="stroke:#000000; stroke-width:0.5"
         d="M 3,-3 L -3,3 M 0,-5 L  0,5" />
    </marker>
    <pattern
       y="0"
       x="0"
       width="8"
       patternUnits="userSpaceOnUse"
       id="Hatch-7"
       height="8">
      <path
         id="path3885"
         stroke-width="0.25"
         stroke="#000000"
         linecap="square"
         d="M8 4 l-4,4" />
      <path
         id="path3887"
         stroke-width="0.25"
         stroke="#000000"
         linecap="square"
         d="M6 2 l-4,4" />
      <path
         id="path3889"
         stroke-width="0.25"
         stroke="#000000"
         linecap="square"
         d="M4 0 l-4,4" />
    </pattern>
    <symbol
       id="*MODEL_SPACE-2" />
    <symbol
       id="*PAPER_SPACE-44" />
  </defs>
  <g
     inkscape:groupmode="layer"
     inkscape:label="0"
     id="g34"
     transform="translate(0,389.29132)">
    <g
       id="g4076"
       inkscape:label="0"
       transform="translate(323.85827,-999.35431)">
      <path
         id="path3896"
         style="fill:none;stroke:#000000"
         d="m 1232.4567,1200.0945 v -45.3543 a 3.779528,3.779528 0 0 0 -3.7795,-3.7796 h -45.3544 a 3.779528,3.779528 0 0 0 -3.7795,3.7796 v 45.3543 a 3.779528,3.779528 0 0 0 3.7795,3.7795 h 45.3544 a 3.779528,3.779528 0 0 0 3.7795,-3.7795 z"
         inkscape:connector-curvature="0" />
      <path
         id="path3898"
         style="fill:none;stroke:#000000"
         d="m 549.54331,1154.7402 a 3.779528,3.779528 0 0 1 3.77953,-3.7796 h 45.35432 a 3.779528,3.779528 0 0 1 3.77953,3.7796 v 45.3543 a 3.779528,3.779528 0 0 1 -3.77953,3.7795 h -45.35432 a 3.779528,3.779528 0 0 1 -3.77953,-3.7795 z"
         inkscape:connector-curvature="0" />
      <path
         id="path3900"
         style="fill:none;stroke:#000000"
         d="m 477.54331,1154.7402 a 3.779528,3.779528 0 0 1 3.77952,-3.7796 h 45.35433 a 3.779528,3.779528 0 0 1 3.77953,3.7796 v 45.3543 a 3.779528,3.779528 0 0 1 -3.77953,3.7795 h -45.35433 a 3.779528,3.779528 0 0 1 -3.77952,-3.7795 z"
         inkscape:connector-curvature="0" />
      <path
         id="path3902"
         style="fill:none;stroke:#000000"
         d="m 9.543307,1154.7402 a 3.779528,3.779528 0 0 1 3.779528,-3.7796 h 45.35433 a 3.779528,3.779528 0 0 1 3.779528,3.7796 v 45.3543 a 3.779528,3.779528 0 0 1 -3.779528,3.7795 h -45.35433 a 3.779528,3.779528 0 0 1 -3.779528,-3.7795 z"
         inkscape:connector-curvature="0" />
      <path
         id="path3904"
         style="fill:none;stroke:#000000"
         d="m 922.67716,1150.9606 a 3.779528,3.779528 0 0 1 3.77953,3.7796 v 45.3543 a 3.779528,3.779528 0 0 1 -3.77953,3.7795 h -45.35432 a 3.779528,3.779528 0 0 1 -3.77953,-3.7795 v -45.3543 a 3.779528,3.779528 0 0 1 3.77953,-3.7796 z"
         inkscape:connector-curvature="0" />
      <path
         id="path3906"
         style="fill:none;stroke:#000000"
         d="m 369.54331,1154.7402 a 3.779528,3.779528 0 0 1 3.77952,-3.7796 h 45.35433 a 3.779528,3.779528 0 0 1 3.77953,3.7796 v 45.3543 a 3.779528,3.779528 0 0 1 -3.77953,3.7795 h -45.35433 a 3.779528,3.779528 0 0 1 -3.77952,-3.7795 z"
         inkscape:connector-curvature="0" />
      <path
         id="path3908"
         style="fill:none;stroke:#000000"
         d="m 945.54331,1154.7402 a 3.779528,3.779528 0 0 1 3.77953,-3.7796 h 45.35432 a 3.779528,3.779528 0 0 1 3.77953,3.7796 v 45.3543 a 3.779528,3.779528 0 0 1 -3.77953,3.7795 h -45.35432 a 3.779528,3.779528 0 0 1 -3.77953,-3.7795 z"
         inkscape:connector-curvature="0" />
      <path
         id="path3910"
         style="fill:none;stroke:#000000"
         d="m 1017.5433,1154.7402 v 45.3543 a 3.779528,3.779528 0 0 0 3.7795,3.7795 h 45.3544 a 3.779528,3.779528 0 0 0 3.7795,-3.7795 v -45.3543 a 3.779528,3.779528 0 0 0 -3.7795,-3.7796 h -45.3544 a 3.779528,3.779528 0 0 0 -3.7795,3.7796 z"
         inkscape:connector-curvature="0" />
      <path
         id="path3912"
         style="fill:none;stroke:#000000"
         d="m 274.67716,1150.9606 a 3.779528,3.779528 0 0 1 3.77953,3.7796 v 45.3543 a 3.779528,3.779528 0 0 1 -3.77953,3.7795 h -45.35433 a 3.779528,3.779528 0 0 1 -3.77952,-3.7795 v -45.3543 a 3.779528,3.779528 0 0 1 3.77952,-3.7796 z"
         inkscape:connector-curvature="0" />
      <path
         id="path3914"
         style="fill:none;stroke:#000000"
         d="m 297.54331,1154.7402 v 45.3543 a 3.779528,3.779528 0 0 0 3.77952,3.7795 h 45.35433 a 3.779528,3.779528 0 0 0 3.77953,-3.7795 v -45.3543 a 3.779528,3.779528 0 0 0 -3.77953,-3.7796 h -45.35433 a 3.779528,3.779528 0 0 0 -3.77952,3.7796 z"
         inkscape:connector-curvature="0" />
      <path
         id="path3916"
         style="fill:none;stroke:#000000"
         d="m 801.54331,1154.7402 a 3.779528,3.779528 0 0 1 3.77953,-3.7796 h 45.35432 a 3.779528,3.779528 0 0 1 3.77953,3.7796 v 45.3543 a 3.779528,3.779528 0 0 1 -3.77953,3.7795 h -45.35432 a 3.779528,3.779528 0 0 1 -3.77953,-3.7795 z"
         inkscape:connector-curvature="0" />
      <path
         id="path3918"
         style="fill:none;stroke:#000000"
         d="m 206.45669,1200.0945 v -45.3543 a 3.779528,3.779528 0 0 0 -3.77953,-3.7796 h -45.35433 a 3.779528,3.779528 0 0 0 -3.77952,3.7796 v 45.3543 a 3.779528,3.779528 0 0 0 3.77952,3.7795 h 45.35433 a 3.779528,3.779528 0 0 0 3.77953,-3.7795 z"
         inkscape:connector-curvature="0" />
      <path
         id="path3920"
         style="fill:none;stroke:#000000"
         d="m 1160.4567,1200.0945 v -45.3543 a 3.779528,3.779528 0 0 0 -3.7795,-3.7796 h -45.3544 a 3.779528,3.779528 0 0 0 -3.7795,3.7796 v 45.3543 a 3.779528,3.779528 0 0 0 3.7795,3.7795 h 45.3544 a 3.779528,3.779528 0 0 0 3.7795,-3.7795 z"
         inkscape:connector-curvature="0" />
      <path
         id="path3922"
         style="fill:none;stroke:#000000"
         d="m 1534.6772,1150.9606 a 3.779528,3.779528 0 0 1 3.7795,3.7796 v 45.3543 a 3.779528,3.779528 0 0 1 -3.7795,3.7795 h -45.3544 a 3.779528,3.779528 0 0 1 -3.7795,-3.7795 v -45.3543 a 3.779528,3.779528 0 0 1 3.7795,-3.7796 z"
         inkscape:connector-curvature="0" />
      <path
         id="path3924"
         style="fill:none;stroke:#000000"
         d="m 1413.5433,1154.7402 a 3.779528,3.779528 0 0 1 3.7795,-3.7796 h 45.3544 a 3.779528,3.779528 0 0 1 3.7795,3.7796 v 45.3543 a 3.779528,3.779528 0 0 1 -3.7795,3.7795 h -45.3544 a 3.779528,3.779528 0 0 1 -3.7795,-3.7795 z"
         inkscape:connector-curvature="0" />
      <path
         id="path3926"
         style="fill:none;stroke:#000000"
         d="m 1557.5433,1154.7402 a 3.779528,3.779528 0 0 1 3.7795,-3.7796 h 45.3544 a 3.779528,3.779528 0 0 1 3.7795,3.7796 v 45.3543 a 3.779528,3.779528 0 0 1 -3.7795,3.7795 h -45.3544 a 3.779528,3.779528 0 0 1 -3.7795,-3.7795 z"
         inkscape:connector-curvature="0" />
      <path
         id="path3928"
         style="fill:none;stroke:#000000"
         d="m 621.54331,1154.7402 a 3.779528,3.779528 0 0 1 3.77953,-3.7796 h 45.35432 a 3.779528,3.779528 0 0 1 3.77953,3.7796 v 45.3543 a 3.779528,3.779528 0 0 1 -3.77953,3.7795 h -45.35432 a 3.779528,3.779528 0 0 1 -3.77953,-3.7795 z"
         inkscape:connector-curvature="0" />
      <path
         id="path3930"
         style="fill:none;stroke:#000000"
         d="m 693.54331,1154.7402 a 3.779528,3.779528 0 0 1 3.77953,-3.7796 h 45.35432 a 3.779528,3.779528 0 0 1 3.77953,3.7796 v 45.3543 a 3.779528,3.779528 0 0 1 -3.77953,3.7795 h -45.35432 a 3.779528,3.779528 0 0 1 -3.77953,-3.7795 z"
         inkscape:connector-curvature="0" />
      <path
         id="path3932"
         style="fill:none;stroke:#000000"
         d="m 1179.5433,1531.8425 a 3.779528,3.779528 0 0 1 3.7795,-3.7795 h 45.3544 a 3.779528,3.779528 0 0 1 3.7795,3.7795 v 46.252 a 3.779528,3.779528 0 0 1 -3.7795,3.7795 h -45.3544 a 3.779528,3.779528 0 0 1 -3.7795,-3.7795 z"
         inkscape:connector-curvature="0" />
      <path
         id="path3934"
         style="fill:none;stroke:#000000"
         d="m 837.54331,1315.8425 a 3.779528,3.779528 0 0 1 3.77953,-3.7795 h 45.35432 a 3.779528,3.779528 0 0 1 3.77953,3.7795 v 46.252 a 3.779528,3.779528 0 0 1 -3.77953,3.7795 h -45.35432 a 3.779528,3.779528 0 0 1 -3.77953,-3.7795 z"
         inkscape:connector-curvature="0" />
      <path
         id="path3936"
         style="fill:none;stroke:#000000"
         d="m 828.54331,1531.8425 a 3.779528,3.779528 0 0 1 3.77953,-3.7795 h 45.35432 a 3.779528,3.779528 0 0 1 3.77953,3.7795 v 46.252 a 3.779528,3.779528 0 0 1 -3.77953,3.7795 h -45.35432 a 3.779528,3.779528 0 0 1 -3.77953,-3.7795 z"
         inkscape:connector-curvature="0" />
      <path
         id="path3938"
         style="fill:none;stroke:#000000"
         d="m 1251.5433,1531.8425 a 3.779528,3.779528 0 0 1 3.7795,-3.7795 h 45.3544 a 3.779528,3.779528 0 0 1 3.7795,3.7795 v 46.252 a 3.779528,3.779528 0 0 1 -3.7795,3.7795 h -45.3544 a 3.779528,3.779528 0 0 1 -3.7795,-3.7795 z"
         inkscape:connector-curvature="0" />
      <path
         id="path3940"
         style="fill:none;stroke:#000000"
         d="m 1107.5433,1531.8425 a 3.779528,3.779528 0 0 1 3.7795,-3.7795 h 45.3544 a 3.779528,3.779528 0 0 1 3.7795,3.7795 v 46.252 a 3.779528,3.779528 0 0 1 -3.7795,3.7795 h -45.3544 a 3.779528,3.779528 0 0 1 -3.7795,-3.7795 z"
         inkscape:connector-curvature="0" />
      <path
         id="path3942"
         style="fill:none;stroke:#000000"
         d="m 351.54331,1387.8425 a 3.779528,3.779528 0 0 1 3.77952,-3.7795 h 45.35433 a 3.779528,3.779528 0 0 1 3.77953,3.7795 v 46.252 a 3.779528,3.779528 0 0 1 -3.77953,3.7795 h -45.35433 a 3.779528,3.779528 0 0 1 -3.77952,-3.7795 z"
         inkscape:connector-curvature="0" />
      <path
         id="path3944"
         style="fill:none;stroke:#000000"
         d="m 657.54331,1243.8425 a 3.779528,3.779528 0 0 1 3.77953,-3.7795 h 45.35432 a 3.779528,3.779528 0 0 1 3.77953,3.7795 v 46.252 a 3.779528,3.779528 0 0 1 -3.77953,3.7795 h -45.35432 a 3.779528,3.779528 0 0 1 -3.77953,-3.7795 z"
         inkscape:connector-curvature="0" />
      <path
         id="path3946"
         style="fill:none;stroke:#000000"
         d="m 171.54331,1459.8425 a 3.779528,3.779528 0 0 1 3.77952,-3.7795 h 45.35433 a 3.779528,3.779528 0 0 1 3.77953,3.7795 v 46.252 a 3.779528,3.779528 0 0 1 -3.77953,3.7795 h -45.35433 a 3.779528,3.779528 0 0 1 -3.77952,-3.7795 z"
         inkscape:connector-curvature="0" />
      <path
         id="path3948"
         style="fill:none;stroke:#000000"
         d="m 1485.5433,1531.8425 a 3.779528,3.779528 0 0 1 3.7795,-3.7795 h 45.3544 v -18.189 h -45.3544 a 3.779528,3.779528 0 0 1 -3.7795,-3.7795 v -46.252 a 3.779528,3.779528 0 0 1 3.7795,-3.7795 h 86.512 a 1.133858,1.133858 0 0 1 1.1338,1.1339 v 0.2107 l 33.2881,0.1244 a 3.779528,3.779528 0 0 1 3.7654,3.7829 l -0.023,25.4558 a 3.779528,3.779528 0 0 1 -1.1977,2.7569 l -1.3893,1.2995 a 3.779528,3.779528 0 0 0 -1.1116,3.562 6.851031,6.851031 0 0 1 0.1559,1.4534 v 46.252 a 3.779528,3.779528 0 0 1 -0.2419,1.3303 3.779528,3.779528 0 0 0 1.1976,2.7875 l 1.3893,1.2995 a 3.779528,3.779528 0 0 1 1.1977,2.7568 l 0.023,25.4559 a 3.779528,3.779528 0 0 1 -3.7654,3.7829 l -33.2881,0.1244 v 0.2107 a 1.133858,1.133858 0 0 1 -1.1338,1.1339 h -38.7123 a 3.779528,3.779528 0 0 1 -2.4453,0.8976 h -45.3544 a 3.779528,3.779528 0 0 1 -3.7795,-3.7795 z"
         inkscape:connector-curvature="0" />
      <path
         id="path3950"
         style="fill:none;stroke:#000000"
         d="m 495.54331,1387.8425 a 3.779528,3.779528 0 0 1 3.77952,-3.7795 h 45.35433 a 3.779528,3.779528 0 0 1 3.77953,3.7795 v 46.252 a 3.779528,3.779528 0 0 1 -3.77953,3.7795 h -45.35433 a 3.779528,3.779528 0 0 1 -3.77952,-3.7795 z"
         inkscape:connector-curvature="0" />
      <path
         id="path3952"
         style="fill:none;stroke:#000000"
         d="m 765.54331,1315.8425 a 3.779528,3.779528 0 0 1 3.77953,-3.7795 h 45.35432 a 3.779528,3.779528 0 0 1 3.77953,3.7795 v 46.252 a 3.779528,3.779528 0 0 1 -3.77953,3.7795 h -45.35432 a 3.779528,3.779528 0 0 1 -3.77953,-3.7795 z"
         inkscape:connector-curvature="0" />
      <path
         id="path3954"
         style="fill:none;stroke:#000000"
         d="m 1251.5433,1154.7402 a 3.779528,3.779528 0 0 1 3.7795,-3.7796 h 45.3544 a 3.779528,3.779528 0 0 1 3.7795,3.7796 v 45.3543 a 3.779528,3.779528 0 0 1 -3.7795,3.7795 h -45.3544 a 3.779528,3.779528 0 0 1 -3.7795,-3.7795 z"
         inkscape:connector-curvature="0" />
      <path
         id="path3956"
         style="fill:none;stroke:#000000"
         d="m 819.54331,1459.8425 a 3.779528,3.779528 0 0 1 3.77953,-3.7795 h 45.35432 a 3.779528,3.779528 0 0 1 3.77953,3.7795 v 46.252 a 3.779528,3.779528 0 0 1 -3.77953,3.7795 h -45.35432 a 3.779528,3.779528 0 0 1 -3.77953,-3.7795 z"
         inkscape:connector-curvature="0" />
      <path
         id="path3958"
         style="fill:none;stroke:#000000"
         d="m 1390.6772,1150.9606 a 3.779528,3.779528 0 0 1 3.7795,3.7796 v 45.3543 a 3.779528,3.779528 0 0 1 -3.7795,3.7795 h -45.3544 a 3.779528,3.779528 0 0 1 -3.7795,-3.7795 v -45.3543 a 3.779528,3.779528 0 0 1 3.7795,-3.7796 z"
         inkscape:connector-curvature="0" />
      <path
         id="path3960"
         style="fill:none;stroke:#000000"
         d="m 585.54331,1243.8425 a 3.779528,3.779528 0 0 1 3.77953,-3.7795 h 45.35432 a 3.779528,3.779528 0 0 1 3.77953,3.7795 v 46.252 a 3.779528,3.779528 0 0 1 -3.77953,3.7795 h -45.35432 a 3.779528,3.779528 0 0 1 -3.77953,-3.7795 z"
         inkscape:connector-curvature="0" />
      <path
         id="path3962"
         style="fill:none;stroke:#000000"
         d="m 198.54331,1531.8425 a 3.779528,3.779528 0 0 1 3.77952,-3.7795 h 45.35433 a 3.779528,3.779528 0 0 1 3.77953,3.7795 v 46.252 a 3.779528,3.779528 0 0 1 -3.77953,3.7795 h -45.35433 a 3.779528,3.779528 0 0 1 -3.77952,-3.7795 z"
         inkscape:connector-curvature="0" />
      <path
         id="path3964"
         style="fill:none;stroke:#000000"
         d="m 801.54331,1243.8425 a 3.779528,3.779528 0 0 1 3.77953,-3.7795 h 45.35432 a 3.779528,3.779528 0 0 1 3.77953,3.7795 v 46.252 a 3.779528,3.779528 0 0 1 -3.77953,3.7795 h -45.35432 a 3.779528,3.779528 0 0 1 -3.77953,-3.7795 z"
         inkscape:connector-curvature="0" />
      <path
         id="path3966"
         style="fill:none;stroke:#000000"
         d="m 135.54331,1387.8425 a 3.779528,3.779528 0 0 1 3.77952,-3.7795 h 45.35433 a 3.779528,3.779528 0 0 1 3.77953,3.7795 v 46.252 a 3.779528,3.779528 0 0 1 -3.77953,3.7795 h -45.35433 a 3.779528,3.779528 0 0 1 -3.77952,-3.7795 z"
         inkscape:connector-curvature="0" />
      <path
         id="path3968"
         style="fill:none;stroke:#000000"
         d="m 747.54331,1459.8425 a 3.779528,3.779528 0 0 1 3.77953,-3.7795 h 45.35432 a 3.779528,3.779528 0 0 1 3.77953,3.7795 v 46.252 a 3.779528,3.779528 0 0 1 -3.77953,3.7795 h -45.35432 a 3.779528,3.779528 0 0 1 -3.77953,-3.7795 z"
         inkscape:connector-curvature="0" />
      <path
         id="path3970"
         style="fill:none;stroke:#000000"
         d="m 261.54331,1315.8425 a 3.779528,3.779528 0 0 1 3.77952,-3.7795 h 45.35433 a 3.779528,3.779528 0 0 1 3.77953,3.7795 v 46.252 a 3.779528,3.779528 0 0 1 -3.77953,3.7795 h -45.35433 a 3.779528,3.779528 0 0 1 -3.77952,-3.7795 z"
         inkscape:connector-curvature="0" />
      <path
         id="path3972"
         style="fill:none;stroke:#000000"
         d="m 279.54331,1387.8425 a 3.779528,3.779528 0 0 1 3.77952,-3.7795 h 45.35433 a 3.779528,3.779528 0 0 1 3.77953,3.7795 v 46.252 a 3.779528,3.779528 0 0 1 -3.77953,3.7795 h -45.35433 a 3.779528,3.779528 0 0 1 -3.77952,-3.7795 z"
         inkscape:connector-curvature="0" />
      <path
         id="path3974"
         style="fill:none;stroke:#000000"
         d="m 855.54331,1387.8425 a 3.779528,3.779528 0 0 1 3.77953,-3.7795 h 45.35432 a 3.779528,3.779528 0 0 1 3.77953,3.7795 v 46.252 a 3.779528,3.779528 0 0 1 -3.77953,3.7795 h -45.35432 a 3.779528,3.779528 0 0 1 -3.77953,-3.7795 z"
         inkscape:connector-curvature="0" />
      <path
         id="path3976"
         style="fill:none;stroke:#000000"
         d="m 369.54331,1243.8425 a 3.779528,3.779528 0 0 1 3.77952,-3.7795 h 45.35433 a 3.779528,3.779528 0 0 1 3.77953,3.7795 v 46.252 a 3.779528,3.779528 0 0 1 -3.77953,3.7795 h -45.35433 a 3.779528,3.779528 0 0 1 -3.77952,-3.7795 z"
         inkscape:connector-curvature="0" />
      <path
         id="path3978"
         style="fill:none;stroke:#000000"
         d="m 1107.5433,1315.8425 a 3.779528,3.779528 0 0 1 3.7795,-3.7795 h 45.3544 a 3.779528,3.779528 0 0 1 3.7795,3.7795 v 46.252 a 3.779528,3.779528 0 0 1 -3.7795,3.7795 h -45.3544 a 3.779528,3.779528 0 0 1 -3.7795,-3.7795 z"
         inkscape:connector-curvature="0" />
      <path
         id="path3980"
         style="fill:none;stroke:#000000"
         d="m 1413.5433,1315.8425 a 3.779528,3.779528 0 0 1 3.7795,-3.7795 h 45.3544 a 3.779528,3.779528 0 0 1 3.7795,3.7795 v 46.252 a 3.779528,3.779528 0 0 1 -3.7795,3.7795 h -45.3544 a 3.779528,3.779528 0 0 1 -3.7795,-3.7795 z"
         inkscape:connector-curvature="0" />
      <path
         id="path3982"
         style="fill:none;stroke:#000000"
         d="m 693.54331,1315.8425 a 3.779528,3.779528 0 0 1 3.77953,-3.7795 h 45.35432 a 3.779528,3.779528 0 0 1 3.77953,3.7795 v 46.252 a 3.779528,3.779528 0 0 1 -3.77953,3.7795 h -45.35432 a 3.779528,3.779528 0 0 1 -3.77953,-3.7795 z"
         inkscape:connector-curvature="0" />
      <path
         id="path3984"
         style="fill:none;stroke:#000000"
         d="m 36.543307,1387.8425 a 3.779528,3.779528 0 0 1 3.779528,-3.7795 h 45.35433 a 3.779528,3.779528 0 0 1 3.779528,3.7795 v 46.252 a 3.779528,3.779528 0 0 1 -3.779528,3.7795 h -45.35433 a 3.779528,3.779528 0 0 1 -3.779528,-3.7795 z"
         inkscape:connector-curvature="0" />
      <path
         id="path3986"
         style="fill:none;stroke:#000000"
         d="m 297.54331,1243.8425 a 3.779528,3.779528 0 0 1 3.77952,-3.7795 h 45.35433 a 3.779528,3.779528 0 0 1 3.77953,3.7795 v 46.252 a 3.779528,3.779528 0 0 1 -3.77953,3.7795 h -45.35433 a 3.779528,3.779528 0 0 1 -3.77952,-3.7795 z"
         inkscape:connector-curvature="0" />
      <path
         id="path3988"
         style="fill:none;stroke:#000000"
         d="m 873.54331,1243.8425 a 3.779528,3.779528 0 0 1 3.77953,-3.7795 h 45.35432 a 3.779528,3.779528 0 0 1 3.77953,3.7795 v 46.252 a 3.779528,3.779528 0 0 1 -3.77953,3.7795 h -45.35432 a 3.779528,3.779528 0 0 1 -3.77953,-3.7795 z"
         inkscape:connector-curvature="0" />
      <path
         id="path3990"
         style="fill:none;stroke:#000000"
         d="m 1228.6772,1312.063 a 3.779528,3.779528 0 0 1 3.7795,3.7795 v 46.252 a 3.779528,3.779528 0 0 1 -3.7795,3.7795 h -45.3544 a 3.779528,3.779528 0 0 1 -3.7795,-3.7795 v -46.252 a 3.779528,3.779528 0 0 1 3.7795,-3.7795 z"
         inkscape:connector-curvature="0" />
      <path
         id="path3992"
         style="fill:none;stroke:#000000"
         d="m 1606.6772,1240.063 a 3.779528,3.779528 0 0 1 3.7795,3.7795 v 46.252 a 3.779528,3.779528 0 0 1 -3.7795,3.7795 h -45.3544 a 3.779528,3.779528 0 0 1 -3.7795,-3.7795 v -46.252 a 3.779528,3.779528 0 0 1 3.7795,-3.7795 z"
         inkscape:connector-curvature="0" />
      <path
         id="path3994"
         style="fill:none;stroke:#000000"
         d="m 441.54331,1243.8425 a 3.779528,3.779528 0 0 1 3.77952,-3.7795 h 45.35433 a 3.779528,3.779528 0 0 1 3.77953,3.7795 v 46.252 a 3.779528,3.779528 0 0 1 -3.77953,3.7795 h -45.35433 a 3.779528,3.779528 0 0 1 -3.77952,-3.7795 z"
         inkscape:connector-curvature="0" />
      <path
         id="path3996"
         style="fill:none;stroke:#000000"
         d="m 333.54331,1315.8425 a 3.779528,3.779528 0 0 1 3.77952,-3.7795 h 45.35433 a 3.779528,3.779528 0 0 1 3.77953,3.7795 v 46.252 a 3.779528,3.779528 0 0 1 -3.77953,3.7795 h -45.35433 a 3.779528,3.779528 0 0 1 -3.77952,-3.7795 z"
         inkscape:connector-curvature="0" />
      <path
         id="path3998"
         style="fill:none;stroke:#000000"
         d="m 71.456693,1531.8425 h 37.086617 v 46.252 a 3.779528,3.779528 0 0 0 3.77952,3.7795 h 45.35433 a 3.779528,3.779528 0 0 0 3.77953,-3.7795 v -46.252 a 3.779528,3.779528 0 0 0 -3.77953,-3.7795 h -15.42111 l -0.26837,-71.8 a 3.779528,3.779528 0 0 0 -3.78287,-3.7654 l -25.45585,0.023 a 3.779528,3.779528 0 0 0 -2.75685,1.1977 l -1.29954,1.3893 a 3.779528,3.779528 0 0 1 -3.56201,1.1116 6.851031,6.851031 0 0 0 -1.45339,-0.1559 H 58.322835 a 6.851031,6.851031 0 0 0 -1.453392,0.1559 3.779528,3.779528 0 0 1 -3.562011,-1.1116 l -1.299547,-1.3893 a 3.779528,3.779528 0 0 0 -2.756845,-1.1977 l -25.455847,-0.023 a 3.779528,3.779528 0 0 0 -3.782871,3.7654 l -0.248846,66.5761 h -1.220169 v 55.2554 a 3.779528,3.779528 0 0 0 3.779528,3.7795 h 45.35433 a 3.779528,3.779528 0 0 0 3.779528,-3.7795 z"
         inkscape:connector-curvature="0" />
      <path
         id="path4000"
         style="fill:none;stroke:#000000"
         d="m 9.543307,1243.8425 a 3.779528,3.779528 0 0 1 3.779528,-3.7795 h 45.35433 a 3.779528,3.779528 0 0 1 3.779528,3.7795 v 46.252 a 3.779528,3.779528 0 0 1 -3.779528,3.7795 h -45.35433 a 3.779528,3.779528 0 0 1 -3.779528,-3.7795 z"
         inkscape:connector-curvature="0" />
      <path
         id="path4002"
         style="fill:none;stroke:#000000"
         d="m 621.54331,1315.8425 a 3.779528,3.779528 0 0 1 3.77953,-3.7795 h 45.35432 a 3.779528,3.779528 0 0 1 3.77953,3.7795 v 46.252 a 3.779528,3.779528 0 0 1 -3.77953,3.7795 h -45.35432 a 3.779528,3.779528 0 0 1 -3.77953,-3.7795 z"
         inkscape:connector-curvature="0" />
      <path
         id="path4004"
         style="fill:none;stroke:#000000"
         d="m 971.45669,1531.8425 h 37.08661 v 46.252 a 3.779528,3.779528 0 0 0 3.7795,3.7795 h 45.3544 a 3.779528,3.779528 0 0 0 3.7795,-3.7795 v -46.252 a 3.779528,3.779528 0 0 0 -3.7795,-3.7795 h -11.6557 a 3.779528,3.779528 0 0 1 -3.7795,-3.7654 l -0.2543,-68.0346 a 3.779528,3.779528 0 0 0 -0.365,-1.6063 l 14.8404,-0.024 a 3.779528,3.779528 0 0 0 3.7734,-3.7936 l -0.2488,-66.5761 a 3.779528,3.779528 0 0 0 -3.7829,-3.7654 l -25.4558,0.023 a 3.779528,3.779528 0 0 0 -2.7569,1.1977 l -1.2995,1.3893 a 3.779528,3.779528 0 0 1 -3.562,1.1116 6.851031,6.851031 0 0 0 -1.4534,-0.1559 h -45.35436 a 6.851031,6.851031 0 0 0 -1.4534,0.1559 3.779528,3.779528 0 0 1 -3.56201,-1.1116 l -1.29955,-1.3893 a 3.779528,3.779528 0 0 0 -2.75684,-1.1977 l -25.45585,-0.023 a 3.779528,3.779528 0 0 0 -3.78287,3.7654 l -0.24884,66.5761 a 3.779528,3.779528 0 0 0 0.38268,1.6713 l -14.35097,-0.013 a 3.779528,3.779528 0 0 0 -3.78287,3.7654 l -0.12442,33.288 h -1.34459 v 88.5435 a 3.779528,3.779528 0 0 0 3.77953,3.7795 h 45.35432 a 3.779528,3.779528 0 0 0 3.77953,-3.7795 z"
         inkscape:connector-curvature="0" />
      <path
         id="path4006"
         style="fill:none;stroke:#000000"
         d="m 567.54331,1387.8425 a 3.779528,3.779528 0 0 1 3.77953,-3.7795 h 45.35432 a 3.779528,3.779528 0 0 1 3.77953,3.7795 v 46.252 a 3.779528,3.779528 0 0 1 -3.77953,3.7795 h -45.35432 a 3.779528,3.779528 0 0 1 -3.77953,-3.7795 z"
         inkscape:connector-curvature="0" />
      <path
         id="path4008"
         style="fill:none;stroke:#000000"
         d="m 1413.5433,1459.8425 a 3.779528,3.779528 0 0 1 3.7795,-3.7795 h 45.3544 a 3.779528,3.779528 0 0 1 3.7795,3.7795 v 46.252 a 3.779528,3.779528 0 0 1 -3.7795,3.7795 h -45.3544 a 3.779528,3.779528 0 0 1 -3.7795,-3.7795 z"
         inkscape:connector-curvature="0" />
      <path
         id="path4010"
         style="fill:none;stroke:#000000"
         d="m 153.54331,1243.8425 a 3.779528,3.779528 0 0 1 3.77952,-3.7795 h 45.35433 a 3.779528,3.779528 0 0 1 3.77953,3.7795 v 46.252 a 3.779528,3.779528 0 0 1 -3.77953,3.7795 h -45.35433 a 3.779528,3.779528 0 0 1 -3.77952,-3.7795 z"
         inkscape:connector-curvature="0" />
      <path
         id="path4012"
         style="fill:none;stroke:#000000"
         d="m 423.54331,1387.8425 a 3.779528,3.779528 0 0 1 3.77952,-3.7795 h 45.35433 a 3.779528,3.779528 0 0 1 3.77953,3.7795 v 46.252 a 3.779528,3.779528 0 0 1 -3.77953,3.7795 h -45.35433 a 3.779528,3.779528 0 0 1 -3.77952,-3.7795 z"
         inkscape:connector-curvature="0" />
      <path
         id="path4014"
         style="fill:none;stroke:#000000"
         d="m 1341.5433,1315.8425 a 3.779528,3.779528 0 0 1 3.7795,-3.7795 h 45.3544 a 3.779528,3.779528 0 0 1 3.7795,3.7795 v 46.252 a 3.779528,3.779528 0 0 1 -3.7795,3.7795 h -45.3544 a 3.779528,3.779528 0 0 1 -3.7795,-3.7795 z"
         inkscape:connector-curvature="0" />
      <path
         id="path4016"
         style="fill:none;stroke:#000000"
         d="m 1413.5433,1243.8425 a 3.779528,3.779528 0 0 1 3.7795,-3.7795 h 45.3544 a 3.779528,3.779528 0 0 1 3.7795,3.7795 v 46.252 a 3.779528,3.779528 0 0 1 -3.7795,3.7795 h -45.3544 a 3.779528,3.779528 0 0 1 -3.7795,-3.7795 z"
         inkscape:connector-curvature="0" />
      <path
         id="path4018"
         style="fill:none;stroke:#000000"
         d="m 1107.5433,1243.8425 a 3.779528,3.779528 0 0 1 3.7795,-3.7795 h 45.3544 a 3.779528,3.779528 0 0 1 3.7795,3.7795 v 46.252 a 3.779528,3.779528 0 0 1 -3.7795,3.7795 h -45.3544 a 3.779528,3.779528 0 0 1 -3.7795,-3.7795 z"
         inkscape:connector-curvature="0" />
      <path
         id="path4020"
         style="fill:none;stroke:#000000"
         d="m 1485.5433,1387.8425 a 3.779528,3.779528 0 0 1 3.7795,-3.7795 h 45.3544 v -18.189 h -45.3544 a 3.779528,3.779528 0 0 1 -3.7795,-3.7795 v -46.252 a 3.779528,3.779528 0 0 1 3.7795,-3.7795 h 87.6458 v 1.3446 l 33.2881,0.1244 a 3.779528,3.779528 0 0 1 3.7654,3.7829 l -0.023,25.4558 a 3.779528,3.779528 0 0 1 -1.1977,2.7569 l -1.3893,1.2995 a 3.779528,3.779528 0 0 0 -1.1116,3.562 6.851031,6.851031 0 0 1 0.1559,1.4534 v 46.252 a 3.779528,3.779528 0 0 1 -0.2419,1.3303 3.779528,3.779528 0 0 0 1.1976,2.7875 l 1.3893,1.2995 a 3.779528,3.779528 0 0 1 1.1977,2.7568 l 0.023,25.4559 a 3.779528,3.779528 0 0 1 -3.7654,3.7829 l -33.2881,0.1244 v 1.3446 h -39.8461 a 3.779528,3.779528 0 0 1 -2.4453,0.8976 h -45.3544 a 3.779528,3.779528 0 0 1 -3.7795,-3.7795 z"
         inkscape:connector-curvature="0" />
      <path
         id="path4022"
         style="fill:none;stroke:#000000"
         d="m 207.54331,1387.8425 a 3.779528,3.779528 0 0 1 3.77952,-3.7795 h 45.35433 a 3.779528,3.779528 0 0 1 3.77953,3.7795 v 46.252 a 3.779528,3.779528 0 0 1 -3.77953,3.7795 h -45.35433 a 3.779528,3.779528 0 0 1 -3.77952,-3.7795 z"
         inkscape:connector-curvature="0" />
      <path
         id="path4024"
         style="fill:none;stroke:#000000"
         d="m 738.54331,1531.8425 a 3.779528,3.779528 0 0 1 3.77953,-3.7795 h 45.35432 a 3.779528,3.779528 0 0 1 3.77953,3.7795 v 46.252 a 3.779528,3.779528 0 0 1 -3.77953,3.7795 h -45.35432 a 3.779528,3.779528 0 0 1 -3.77953,-3.7795 z"
         inkscape:connector-curvature="0" />
      <path
         id="path4026"
         style="fill:none;stroke:#000000"
         d="m 1251.5433,1243.8425 a 3.779528,3.779528 0 0 1 3.7795,-3.7795 h 45.3544 a 3.779528,3.779528 0 0 1 3.7795,3.7795 v 46.252 a 3.779528,3.779528 0 0 1 -3.7795,3.7795 h -45.3544 a 3.779528,3.779528 0 0 1 -3.7795,-3.7795 z"
         inkscape:connector-curvature="0" />
      <path
         id="path4028"
         style="fill:none;stroke:#000000"
         d="m 27.543307,1315.8425 a 3.779528,3.779528 0 0 1 3.779528,-3.7795 h 45.35433 a 3.779528,3.779528 0 0 1 3.779528,3.7795 v 46.252 a 3.779528,3.779528 0 0 1 -3.779528,3.7795 h -45.35433 a 3.779528,3.779528 0 0 1 -3.779528,-3.7795 z"
         inkscape:connector-curvature="0" />
      <path
         id="path4030"
         style="fill:none;stroke:#000000"
         d="m 1179.5433,1459.8425 a 3.779528,3.779528 0 0 1 3.7795,-3.7795 h 45.3544 a 3.779528,3.779528 0 0 1 3.7795,3.7795 v 46.252 a 3.779528,3.779528 0 0 1 -3.7795,3.7795 h -45.3544 a 3.779528,3.779528 0 0 1 -3.7795,-3.7795 z"
         inkscape:connector-curvature="0" />
      <path
         id="path4032"
         style="fill:none;stroke:#000000"
         d="m 729.54331,1243.8425 a 3.779528,3.779528 0 0 1 3.77953,-3.7795 h 45.35432 a 3.779528,3.779528 0 0 1 3.77953,3.7795 v 46.252 a 3.779528,3.779528 0 0 1 -3.77953,3.7795 h -45.35432 a 3.779528,3.779528 0 0 1 -3.77953,-3.7795 z"
         inkscape:connector-curvature="0" />
      <path
         id="path4034"
         style="fill:none;stroke:#000000"
         d="m 549.54331,1315.8425 a 3.779528,3.779528 0 0 1 3.77953,-3.7795 h 45.35432 a 3.779528,3.779528 0 0 1 3.77953,3.7795 v 46.252 a 3.779528,3.779528 0 0 1 -3.77953,3.7795 h -45.35432 a 3.779528,3.779528 0 0 1 -3.77953,-3.7795 z"
         inkscape:connector-curvature="0" />
      <path
         id="path4036"
         style="fill:none;stroke:#000000"
         d="m 405.54331,1315.8425 a 3.779528,3.779528 0 0 1 3.77952,-3.7795 h 45.35433 a 3.779528,3.779528 0 0 1 3.77953,3.7795 v 46.252 a 3.779528,3.779528 0 0 1 -3.77953,3.7795 h -45.35433 a 3.779528,3.779528 0 0 1 -3.77952,-3.7795 z"
         inkscape:connector-curvature="0" />
      <path
         id="path4038"
         style="fill:none;stroke:#000000"
         d="m 711.54331,1387.8425 a 3.779528,3.779528 0 0 1 3.77953,-3.7795 h 45.35432 a 3.779528,3.779528 0 0 1 3.77953,3.7795 v 46.252 a 3.779528,3.779528 0 0 1 -3.77953,3.7795 h -45.35432 a 3.779528,3.779528 0 0 1 -3.77953,-3.7795 z"
         inkscape:connector-curvature="0" />
      <path
         id="path4040"
         style="fill:none;stroke:#000000"
         d="m 783.54331,1387.8425 a 3.779528,3.779528 0 0 1 3.77953,-3.7795 h 45.35432 a 3.779528,3.779528 0 0 1 3.77953,3.7795 v 46.252 a 3.779528,3.779528 0 0 1 -3.77953,3.7795 h -45.35432 a 3.779528,3.779528 0 0 1 -3.77953,-3.7795 z"
         inkscape:connector-curvature="0" />
      <path
         id="path4042"
         style="fill:none;stroke:#000000"
         d="m 1179.5433,1243.8425 a 3.779528,3.779528 0 0 1 3.7795,-3.7795 h 45.3544 a 3.779528,3.779528 0 0 1 3.7795,3.7795 v 46.252 a 3.779528,3.779528 0 0 1 -3.7795,3.7795 h -45.3544 a 3.779528,3.779528 0 0 1 -3.7795,-3.7795 z"
         inkscape:connector-curvature="0" />
      <path
         id="path4044"
         style="fill:none;stroke:#000000"
         d="m 1341.5433,1387.8425 a 3.779528,3.779528 0 0 1 3.7795,-3.7795 h 45.3544 a 3.779528,3.779528 0 0 1 3.7795,3.7795 v 46.252 a 3.779528,3.779528 0 0 1 -3.7795,3.7795 h -45.3544 a 3.779528,3.779528 0 0 1 -3.7795,-3.7795 z"
         inkscape:connector-curvature="0" />
      <path
         id="path4046"
         style="fill:none;stroke:#000000"
         d="m 81.543307,1243.8425 a 3.779528,3.779528 0 0 1 3.779528,-3.7795 h 45.354325 a 3.779528,3.779528 0 0 1 3.77953,3.7795 v 46.252 a 3.779528,3.779528 0 0 1 -3.77953,3.7795 H 85.322835 a 3.779528,3.779528 0 0 1 -3.779528,-3.7795 z"
         inkscape:connector-curvature="0" />
      <path
         id="path4048"
         style="fill:none;stroke:#000000"
         d="m 1251.5433,1315.8425 a 3.779528,3.779528 0 0 1 3.7795,-3.7795 h 45.3544 a 3.779528,3.779528 0 0 1 3.7795,3.7795 v 46.252 a 3.779528,3.779528 0 0 1 -3.7795,3.7795 h -45.3544 a 3.779528,3.779528 0 0 1 -3.7795,-3.7795 z"
         inkscape:connector-curvature="0" />
      <path
         id="path4050"
         style="fill:none;stroke:#000000"
         d="m 117.54331,1315.8425 a 3.779528,3.779528 0 0 1 3.77952,-3.7795 h 45.35433 a 3.779528,3.779528 0 0 1 3.77953,3.7795 v 46.252 a 3.779528,3.779528 0 0 1 -3.77953,3.7795 h -45.35433 a 3.779528,3.779528 0 0 1 -3.77952,-3.7795 z"
         inkscape:connector-curvature="0" />
      <path
         id="path4052"
         style="fill:none;stroke:#000000"
         d="m 1341.5433,1243.8425 a 3.779528,3.779528 0 0 1 3.7795,-3.7795 h 45.3544 a 3.779528,3.779528 0 0 1 3.7795,3.7795 v 46.252 a 3.779528,3.779528 0 0 1 -3.7795,3.7795 h -45.3544 a 3.779528,3.779528 0 0 1 -3.7795,-3.7795 z"
         inkscape:connector-curvature="0" />
      <path
         id="path4054"
         style="fill:none;stroke:#000000"
         d="m 1462.6772,1384.063 a 3.779528,3.779528 0 0 1 3.7795,3.7795 v 46.252 a 3.779528,3.779528 0 0 1 -3.7795,3.7795 h -45.3544 a 3.779528,3.779528 0 0 1 -3.7795,-3.7795 v -46.252 a 3.779528,3.779528 0 0 1 3.7795,-3.7795 z"
         inkscape:connector-curvature="0" />
      <path
         id="path4056"
         style="fill:none;stroke:#000000"
         d="m 962.45669,1315.8425 h 37.08662 v 46.252 a 3.779528,3.779528 0 0 0 3.77949,3.7795 h 45.3544 a 3.779528,3.779528 0 0 0 3.7795,-3.7795 v -51.4408 l 13.0064,-0.021 a 3.779528,3.779528 0 0 0 3.7734,-3.7936 l -0.2488,-66.5761 a 3.779528,3.779528 0 0 0 -3.7829,-3.7654 l -25.4558,0.023 a 3.779528,3.779528 0 0 0 -2.7569,1.1977 l -1.2995,1.3893 a 3.779528,3.779528 0 0 1 -3.562,1.1116 6.851031,6.851031 0 0 0 -1.4534,-0.1559 h -45.35436 a 6.851031,6.851031 0 0 0 -1.4534,0.1559 3.779528,3.779528 0 0 1 -3.56201,-1.1116 l -1.29955,-1.3893 a 3.779528,3.779528 0 0 0 -2.75684,-1.1977 l -25.45585,-0.023 a 3.779528,3.779528 0 0 0 -3.78287,3.7654 l -0.26837,71.8 h -33.42111 a 3.779528,3.779528 0 0 0 -3.77953,3.7795 v 46.252 a 3.779528,3.779528 0 0 0 3.77953,3.7795 h 45.35432 a 3.779528,3.779528 0 0 0 3.77953,-3.7795 z"
         inkscape:connector-curvature="0" />
      <path
         id="path4058"
         style="fill:none;stroke:#000000"
         d="m 513.54331,1243.8425 a 3.779528,3.779528 0 0 1 3.77953,-3.7795 h 45.35432 a 3.779528,3.779528 0 0 1 3.77953,3.7795 v 46.252 a 3.779528,3.779528 0 0 1 -3.77953,3.7795 h -45.35432 a 3.779528,3.779528 0 0 1 -3.77953,-3.7795 z"
         inkscape:connector-curvature="0" />
      <path
         id="path4060"
         style="fill:none;stroke:#000000"
         d="m 472.32283,1581.874 h 45.35433 a 3.779528,3.779528 0 0 0 2.68104,-1.1155 3.779528,3.779528 0 0 1 2.33437,1.1736 l 1.17961,1.2611 a 3.779528,3.779528 0 0 0 2.75678,1.1976 l 169.33682,0.1509 a 3.779528,3.779528 0 0 0 3.78287,-3.7654 l 0.26501,-70.9023 h 24.6635 a 3.779528,3.779528 0 0 0 3.77953,-3.7795 v -46.252 a 3.779528,3.779528 0 0 0 -3.77953,-3.7795 h -45.35432 a 3.779528,3.779528 0 0 0 -3.77953,3.7795 v 45.3544 h -19.08662 v -45.3544 a 3.779528,3.779528 0 0 0 -3.77953,-3.7795 h -45.35432 a 3.779528,3.779528 0 0 0 -3.77953,3.7795 v 45.3544 h -19.08662 v -45.3544 a 3.779528,3.779528 0 0 0 -3.77953,-3.7795 h -45.35432 a 3.779528,3.779528 0 0 0 -3.77953,3.7795 v 45.3544 h -19.08662 v -45.3544 a 3.779528,3.779528 0 0 0 -3.77953,-3.7795 h -45.35433 a 3.779528,3.779528 0 0 0 -3.77952,3.7795 v 45.3544 h -19.08662 v -45.3544 a 3.779528,3.779528 0 0 0 -3.77953,-3.7795 h -45.35433 a 3.779528,3.779528 0 0 0 -3.77952,3.7795 v 45.3544 h -19.08662 v -45.3544 a 3.779528,3.779528 0 0 0 -3.77953,-3.7795 h -45.35433 a 3.779528,3.779528 0 0 0 -3.77952,3.7795 v 45.3544 h -19.08662 v -45.3544 a 3.779528,3.779528 0 0 0 -3.77953,-3.7795 h -45.35433 a 3.779528,3.779528 0 0 0 -3.77952,3.7795 v 46.252 a 3.779528,3.779528 0 0 0 3.77952,3.7795 h 42.66351 l 0.26501,70.9023 a 3.779528,3.779528 0 0 0 3.78287,3.7654 l 169.33672,-0.1509 a 3.779528,3.779528 0 0 0 2.75688,-1.1976 l 1.17961,-1.2611 a 3.779528,3.779528 0 0 1 2.33437,-1.1736 3.779528,3.779528 0 0 0 2.68103,1.1155 z"
         inkscape:connector-curvature="0" />
      <path
         id="path4062"
         style="fill:none;stroke:#000000"
         d="m 225.54331,1243.8425 a 3.779528,3.779528 0 0 1 3.77952,-3.7795 h 45.35433 a 3.779528,3.779528 0 0 1 3.77953,3.7795 v 46.252 a 3.779528,3.779528 0 0 1 -3.77953,3.7795 h -45.35433 a 3.779528,3.779528 0 0 1 -3.77952,-3.7795 z"
         inkscape:connector-curvature="0" />
      <path
         id="path4064"
         style="fill:none;stroke:#000000"
         d="m 1341.5433,1459.8425 a 3.779528,3.779528 0 0 1 3.7795,-3.7795 h 45.3544 a 3.779528,3.779528 0 0 1 3.7795,3.7795 v 46.252 a 3.779528,3.779528 0 0 1 -3.7795,3.7795 h -45.3544 a 3.779528,3.779528 0 0 1 -3.7795,-3.7795 z"
         inkscape:connector-curvature="0" />
      <path
         id="path4066"
         style="fill:none;stroke:#000000"
         d="m 639.54331,1387.8425 a 3.779528,3.779528 0 0 1 3.77953,-3.7795 h 45.35432 a 3.779528,3.779528 0 0 1 3.77953,3.7795 v 46.252 a 3.779528,3.779528 0 0 1 -3.77953,3.7795 h -45.35432 a 3.779528,3.779528 0 0 1 -3.77953,-3.7795 z"
         inkscape:connector-curvature="0" />
      <path
         id="path4068"
         style="fill:none;stroke:#000000"
         d="m 1485.5433,1243.8425 a 3.779528,3.779528 0 0 1 3.7795,-3.7795 h 45.3544 a 3.779528,3.779528 0 0 1 3.7795,3.7795 v 46.252 a 3.779528,3.779528 0 0 1 -3.7795,3.7795 h -45.3544 a 3.779528,3.779528 0 0 1 -3.7795,-3.7795 z"
         inkscape:connector-curvature="0" />
      <path
         id="path4070"
         style="fill:none;stroke:#000000"
         d="m 189.54331,1315.8425 a 3.779528,3.779528 0 0 1 3.77952,-3.7795 h 45.35433 a 3.779528,3.779528 0 0 1 3.77953,3.7795 v 46.252 a 3.779528,3.779528 0 0 1 -3.77953,3.7795 h -45.35433 a 3.779528,3.779528 0 0 1 -3.77952,-3.7795 z"
         inkscape:connector-curvature="0" />
      <path
         id="path4072"
         style="fill:none;stroke:#000000"
         d="m 477.54331,1315.8425 a 3.779528,3.779528 0 0 1 3.77952,-3.7795 h 45.35433 a 3.779528,3.779528 0 0 1 3.77953,3.7795 v 46.252 a 3.779528,3.779528 0 0 1 -3.77953,3.7795 h -45.35433 a 3.779528,3.779528 0 0 1 -3.77952,-3.7795 z"
         inkscape:connector-curvature="0" />
      <path
         id="path4074"
         style="fill:none;stroke:#000000"
         d="m 0,1590.5197 v -449.1024 h 1620 v 449.1024 h -154.7796 l -0.2327,-62.2567 a 3.779528,3.779528 0 0 0 -3.7829,-3.7654 l -25.4558,0.023 a 3.779528,3.779528 0 0 0 -2.7569,1.1977 l -1.2995,1.3893 a 3.779528,3.779528 0 0 1 -3.562,1.1116 6.851031,6.851031 0 0 0 -1.4534,-0.1559 h -45.3544 a 6.851031,6.851031 0 0 0 -1.4534,0.1559 3.779528,3.779528 0 0 1 -3.562,-1.1116 l -1.2995,-1.3893 a 3.779528,3.779528 0 0 0 -2.7569,-1.1977 l -25.4558,-0.023 a 3.779528,3.779528 0 0 0 -3.7829,3.7654 l -0.2327,62.2567 z"
         inkscape:connector-curvature="0" />
    </g>
  </g>
</svg>
