0
SECTION
2
HEADER
9
$INSUNITS
70
4
9
$ACADVER
1
AC1014
9
$HANDSEED
5
FFFF
0
ENDSEC
0
SECTION
2
TABLES
0
TABLE
2
VPORT
5
8
100
AcDbSymbolTable
0
ENDTAB
0
TABLE
2
LTYPE
5
5
100
AcDbSymbolTable
0
LTYPE
5
14
100
AcDbSymbolTableRecord
100
AcDbLinetypeTableRecord
2
BYBLOCK
70
0
0
LTYPE
5
15
100
AcDbSymbolTableRecord
100
AcDbLinetypeTableRecord
2
BYLAYER
70
0
0
ENDTAB
0
TABLE
2
LAYER
5
2
100
AcDbSymbolTable
70
2
0
LAYER
5
50
100
AcDbSymbolTableRecord
100
AcDbLayerTableRecord
2
0
70
0
6
CONTINUOUS
0
ENDTAB
0
TABLE
2
STYLE
5
3
100
AcDbSymbolTable
70
1
0
STYLE
5
11
100
AcDbSymbolTableRecord
100
AcDbTextStyleTableRecord
2
STANDARD
70
0
0
ENDTAB
0
TABLE
2
VIEW
5
6
100
AcDbSymbolTable
70
0
0
ENDTAB
0
TABLE
2
UCS
5
7
100
AcDbSymbolTable
70
0
0
ENDTAB
0
TABLE
2
APPID
5
9
100
AcDbSymbolTable
70
2
0
APPID
5
12
100
AcDbSymbolTableRecord
100
AcDbRegAppTableRecord
2
ACAD
70
0
0
ENDTAB
0
TABLE
2
DIMSTYLE
5
A
100
AcDbSymbolTable
70
1
0
ENDTAB
0
TABLE
2
BLOCK_RECORD
5
1
100
AcDbSymbolTable
70
1
0
BLOCK_RECORD
5
1F
100
AcDbSymbolTableRecord
100
AcDbBlockTableRecord
2
*MODEL_SPACE
0
BLOCK_RECORD
5
1B
100
AcDbSymbolTableRecord
100
AcDbBlockTableRecord
2
*PAPER_SPACE
0
ENDTAB
0
ENDSEC
0
SECTION
2
BLOCKS
0
BLOCK
5
20
100
AcDbEntity
100
AcDbBlockBegin
2
*MODEL_SPACE
0
ENDBLK
5
21
100
AcDbEntity
100
AcDbBlockEnd
0
BLOCK
5
1C
100
AcDbEntity
100
AcDbBlockBegin
2
*PAPER_SPACE
0
ENDBLK
5
1D
100
AcDbEntity
100
AcDbBlockEnd
0
ENDSEC
0
SECTION
2
ENTITIES
0
LWPOLYLINE
5
100
100
AcDbEntity
8
0
100
AcDbPolyline
90
8
70
1
43
0.0
10
326.08749999999998
20
-20.525000000000002
10
326.08749999999998
20
-8.5250000000000004
42
0.41421356237313273
10
325.08749999999998
20
-7.5249999999999861
10
313.08749999999998
20
-7.5250000000000004
42
0.41421356237307422
10
312.08749999999998
20
-8.5250000000000004
10
312.08749999999998
20
-20.525000000000002
42
0.41421356237307555
10
313.08749999999998
20
-21.525000000000016
10
325.08749999999998
20
-21.525000000000002
42
0.4142135623730781
0
LWPOLYLINE
5
101
100
AcDbEntity
8
0
100
AcDbPolyline
90
8
70
1
43
0.0
10
145.40000000000001
20
-8.5250000000000004
42
-0.41421356237309664
10
146.40000000000001
20
-7.5250000000000004
10
158.40000000000001
20
-7.5250000000000057
42
-0.41421356237309437
10
159.40000000000001
20
-8.5250000000000004
10
159.40000000000001
20
-20.525000000000002
42
-0.4142135623730937
10
158.40000000000001
20
-21.525000000000002
10
146.40000000000001
20
-21.525000000000006
42
-0.41421356237309764
10
145.40000000000001
20
-20.525000000000002
0
LWPOLYLINE
5
102
100
AcDbEntity
8
0
100
AcDbPolyline
90
8
70
1
43
0.0
10
126.34999999999999
20
-8.5250000000000004
42
-0.41421356237309664
10
127.34999999999999
20
-7.5250000000000004
10
139.34999999999999
20
-7.5250000000000057
42
-0.41421356237309437
10
140.34999999999999
20
-8.5250000000000004
10
140.34999999999999
20
-20.525000000000002
42
-0.4142135623730937
10
139.34999999999999
20
-21.525000000000002
10
127.34999999999999
20
-21.525000000000006
42
-0.41421356237309764
10
126.34999999999999
20
-20.525000000000002
0
LWPOLYLINE
5
103
100
AcDbEntity
8
0
100
AcDbPolyline
90
8
70
1
43
0.0
10
2.5249999999999999
20
-8.5250000000000004
42
-0.41421356237309459
10
3.5250000000000004
20
-7.5250000000000004
10
15.525000000000002
20
-7.5249999999999995
42
-0.41421356237309503
10
16.525000000000002
20
-8.5250000000000004
10
16.525000000000002
20
-20.525000000000002
42
-0.41421356237309243
10
15.525000000000002
20
-21.525000000000002
10
3.5250000000000004
20
-21.525000000000002
42
-0.41421356237309459
10
2.5250000000000004
20
-20.525000000000002
0
LWPOLYLINE
5
104
100
AcDbEntity
8
0
100
AcDbPolyline
90
8
70
1
43
0.0
10
244.125
20
-7.5249999999999879
42
-0.41421356237309437
10
245.12500000000003
20
-8.5250000000000004
10
245.12500000000003
20
-20.525000000000002
42
-0.41421356237310675
10
244.125
20
-21.525000000000002
10
232.12500000000003
20
-21.52500000000002
42
-0.41421356237307555
10
231.125
20
-20.525000000000002
10
231.125
20
-8.5250000000000004
42
-0.41421356237307422
10
232.12500000000003
20
-7.5250000000000004
0
LWPOLYLINE
5
105
100
AcDbEntity
8
0
100
AcDbPolyline
90
8
70
1
43
0.0
10
97.77500000000002
20
-8.5250000000000004
42
-0.41421356237309664
10
98.775000000000006
20
-7.5250000000000004
10
110.77500000000001
20
-7.5249999999999968
42
-0.41421356237309698
10
111.77500000000001
20
-8.5250000000000004
10
111.77500000000001
20
-20.525000000000002
42
-0.41421356237309631
10
110.77500000000001
20
-21.525000000000002
10
98.775000000000006
20
-21.525000000000006
42
-0.41421356237309764
10
97.77500000000002
20
-20.525000000000002
0
LWPOLYLINE
5
106
100
AcDbEntity
8
0
100
AcDbPolyline
90
8
70
1
43
0.0
10
250.17500000000001
20
-8.5250000000000004
42
-0.41421356237307422
10
251.17500000000004
20
-7.5250000000000004
10
263.17500000000001
20
-7.5249999999999879
42
-0.41421356237309437
10
264.17500000000007
20
-8.5250000000000004
10
264.17500000000007
20
-20.525000000000002
42
-0.41421356237310675
10
263.17500000000001
20
-21.525000000000002
10
251.17500000000004
20
-21.52500000000002
42
-0.41421356237307555
10
250.17500000000001
20
-20.525000000000002
0
LWPOLYLINE
5
107
100
AcDbEntity
8
0
100
AcDbPolyline
90
8
70
1
43
0.0
10
269.22500000000002
20
-8.5250000000000004
10
269.22500000000002
20
-20.525000000000002
42
0.41421356237307555
10
270.22500000000002
20
-21.525000000000002
10
282.22500000000002
20
-21.525000000000002
42
0.41421356237310675
10
283.22500000000002
20
-20.525000000000002
10
283.22500000000002
20
-8.5250000000000004
42
0.41421356237309437
10
282.22500000000002
20
-7.5250000000000004
10
270.22500000000002
20
-7.5250000000000004
42
0.41421356237307422
0
LWPOLYLINE
5
108
100
AcDbEntity
8
0
100
AcDbPolyline
90
8
70
1
43
0.0
10
72.674999999999997
20
-7.5250000000000021
42
-0.4142135623730957
10
73.674999999999997
20
-8.5250000000000004
10
73.674999999999997
20
-20.525000000000002
42
-0.41421356237309503
10
72.674999999999997
20
-21.525000000000002
10
60.675000000000011
20
-21.525000000000002
42
-0.41421356237309631
10
59.675000000000004
20
-20.525000000000002
10
59.675000000000004
20
-8.5250000000000004
42
-0.41421356237309537
10
60.674999999999997
20
-7.5250000000000004
0
LWPOLYLINE
5
109
100
AcDbEntity
8
0
100
AcDbPolyline
90
8
70
1
43
0.0
10
78.725000000000009
20
-8.5250000000000004
10
78.725000000000009
20
-20.525000000000002
42
0.41421356237309631
10
79.724999999999994
20
-21.525000000000002
10
91.724999999999994
20
-21.525000000000002
42
0.41421356237309631
10
92.724999999999994
20
-20.525000000000002
10
92.724999999999994
20
-8.5250000000000004
42
0.41421356237309698
10
91.724999999999994
20
-7.5250000000000004
10
79.724999999999994
20
-7.5250000000000004
42
0.41421356237309537
0
LWPOLYLINE
5
110
100
AcDbEntity
8
0
100
AcDbPolyline
90
8
70
1
43
0.0
10
212.07499999999999
20
-8.5250000000000004
42
-0.41421356237307422
10
213.07500000000002
20
-7.5250000000000004
10
225.07499999999999
20
-7.5249999999999879
42
-0.41421356237309437
10
226.07500000000002
20
-8.5250000000000004
10
226.07500000000002
20
-20.525000000000002
42
-0.41421356237310675
10
225.07499999999999
20
-21.525000000000002
10
213.07500000000002
20
-21.52500000000002
42
-0.41421356237307555
10
212.07499999999999
20
-20.525000000000002
0
LWPOLYLINE
5
111
100
AcDbEntity
8
0
100
AcDbPolyline
90
8
70
1
43
0.0
10
54.625
20
-20.525000000000002
10
54.625
20
-8.5250000000000004
42
0.4142135623730957
10
53.625000000000007
20
-7.5250000000000039
10
41.625000000000007
20
-7.5250000000000004
42
0.41421356237309537
10
40.625000000000007
20
-8.5250000000000004
10
40.625000000000007
20
-20.525000000000002
42
0.41421356237309631
10
41.625000000000007
20
-21.524999999999999
10
53.625000000000007
20
-21.525000000000002
42
0.41421356237309503
0
LWPOLYLINE
5
112
100
AcDbEntity
8
0
100
AcDbPolyline
90
8
70
1
43
0.0
10
307.03750000000008
20
-20.525000000000002
10
307.03750000000008
20
-8.5250000000000004
42
0.41421356237309437
10
306.03750000000002
20
-7.5249999999999861
10
294.03750000000002
20
-7.5250000000000004
42
0.41421356237310542
10
293.03750000000002
20
-8.5250000000000004
10
293.03750000000002
20
-20.525000000000002
42
0.41421356237309631
10
294.03750000000002
20
-21.525000000000002
10
306.03750000000002
20
-21.525000000000002
42
0.41421356237310675
0
LWPOLYLINE
5
113
100
AcDbEntity
8
0
100
AcDbPolyline
90
8
70
1
43
0.0
10
406.05000000000007
20
-7.5249999999999639
42
-0.41421356237310153
10
407.05000000000007
20
-8.5250000000000004
10
407.05000000000007
20
-20.525000000000002
42
-0.41421356237304691
10
406.05000000000007
20
-21.525000000000002
10
394.05000000000001
20
-21.52499999999997
42
-0.41421356237312362
10
393.05000000000001
20
-20.525000000000002
10
393.05000000000001
20
-8.5250000000000004
42
-0.41421356237304624
10
394.05000000000001
20
-7.5250000000000004
0
LWPOLYLINE
5
114
100
AcDbEntity
8
0
100
AcDbPolyline
90
8
70
1
43
0.0
10
374
20
-8.5250000000000004
42
-0.41421356237304624
10
375
20
-7.5250000000000004
10
387
20
-7.5249999999999639
42
-0.41421356237310153
10
388.00000000000006
20
-8.5250000000000004
10
388.00000000000006
20
-20.525000000000002
42
-0.41421356237304691
10
387
20
-21.525000000000002
10
375
20
-21.52499999999997
42
-0.41421356237312362
10
374
20
-20.525000000000002
0
LWPOLYLINE
5
115
100
AcDbEntity
8
0
100
AcDbPolyline
90
8
70
1
43
0.0
10
412.10000000000002
20
-8.5250000000000004
42
-0.41421356237304624
10
413.10000000000002
20
-7.5250000000000004
10
425.10000000000002
20
-7.5249999999999639
42
-0.41421356237310153
10
426.10000000000008
20
-8.5250000000000004
10
426.10000000000008
20
-20.525000000000002
42
-0.41421356237304691
10
425.10000000000002
20
-21.525000000000002
10
413.10000000000002
20
-21.52499999999997
42
-0.41421356237312362
10
412.10000000000002
20
-20.525000000000002
0
LWPOLYLINE
5
116
100
AcDbEntity
8
0
100
AcDbPolyline
90
8
70
1
43
0.0
10
164.44999999999996
20
-8.5250000000000004
42
-0.41421356237307422
10
165.44999999999999
20
-7.5250000000000004
10
177.45000000000002
20
-7.5249999999999879
42
-0.41421356237307355
10
178.45000000000002
20
-8.5250000000000004
10
178.44999999999999
20
-20.525000000000002
42
-0.41421356237307555
10
177.45000000000002
20
-21.525000000000002
10
165.44999999999999
20
-21.52500000000002
42
-0.41421356237307555
10
164.44999999999996
20
-20.525000000000002
0
LWPOLYLINE
5
117
100
AcDbEntity
8
0
100
AcDbPolyline
90
8
70
1
43
0.0
10
183.49999999999997
20
-8.5250000000000004
42
-0.41421356237307422
10
184.5
20
-7.5250000000000004
10
196.50000000000003
20
-7.5249999999999879
42
-0.41421356237307355
10
197.50000000000003
20
-8.5250000000000004
10
197.5
20
-20.525000000000002
42
-0.41421356237307555
10
196.50000000000003
20
-21.525000000000002
10
184.5
20
-21.52500000000002
42
-0.41421356237307555
10
183.49999999999997
20
-20.525000000000002
0
LWPOLYLINE
5
118
100
AcDbEntity
8
0
100
AcDbPolyline
90
8
70
1
43
0.0
10
312.08750000000003
20
-108.3
42
-0.41421356237310025
10
313.08749999999998
20
-107.30000000000001
10
325.08749999999998
20
-107.30000000000001
42
-0.41421356237313145
10
326.08749999999998
20
-108.3
10
326.08750000000009
20
-120.53750000000001
42
-0.41421356237307422
10
325.08749999999998
20
-121.53750000000001
10
313.08750000000003
20
-121.53750000000004
42
-0.41421356237307944
10
312.08749999999998
20
-120.53750000000001
0
LWPOLYLINE
5
119
100
AcDbEntity
8
0
100
AcDbPolyline
90
8
70
1
43
0.0
10
221.60000000000002
20
-51.150000000000006
42
-0.41421356237310025
10
222.60000000000002
20
-50.150000000000006
10
234.60000000000002
20
-50.149999999999999
42
-0.41421356237309243
10
235.60000000000002
20
-51.150000000000006
10
235.60000000000002
20
-63.38750000000001
42
-0.41421356237310542
10
234.60000000000002
20
-64.387500000000003
10
222.60000000000002
20
-64.387500000000017
42
-0.41421356237307161
10
221.59999999999999
20
-63.38750000000001
0
LWPOLYLINE
5
120
100
AcDbEntity
8
0
100
AcDbPolyline
90
8
70
1
43
0.0
10
219.21875
20
-108.3
42
-0.41421356237308982
10
220.21875
20
-107.30000000000001
10
232.21875
20
-107.29999999999998
42
-0.41421356237307422
10
233.21875000000003
20
-108.3
10
233.21875
20
-120.53750000000001
42
-0.41421356237310542
10
232.21875
20
-121.53750000000001
10
220.21875
20
-121.53750000000004
42
-0.41421356237310025
10
219.21875
20
-120.53750000000001
0
LWPOLYLINE
5
121
100
AcDbEntity
8
0
100
AcDbPolyline
90
8
70
1
43
0.0
10
331.13749999999987
20
-108.3
42
-0.41421356237307422
10
332.13749999999999
20
-107.30000000000001
10
344.13749999999999
20
-107.30000000000001
42
-0.41421356237313145
10
345.13750000000005
20
-108.3
10
345.1375000000001
20
-120.53750000000001
42
-0.41421356237307422
10
344.13749999999999
20
-121.53750000000001
10
332.13749999999999
20
-121.53750000000002
42
-0.41421356237313667
10
331.13749999999993
20
-120.53750000000001
0
LWPOLYLINE
5
122
100
AcDbEntity
8
0
100
AcDbPolyline
90
8
70
1
43
0.0
10
293.03750000000002
20
-108.3
42
-0.41421356237308982
10
294.03750000000002
20
-107.30000000000001
10
306.03750000000002
20
-107.29999999999998
42
-0.41421356237309503
10
307.03750000000008
20
-108.3
10
307.03750000000008
20
-120.53750000000001
42
-0.41421356237310542
10
306.03750000000002
20
-121.53750000000001
10
294.03750000000002
20
-121.53750000000004
42
-0.41421356237310025
10
293.03750000000002
20
-120.53750000000001
0
LWPOLYLINE
5
123
100
AcDbEntity
8
0
100
AcDbPolyline
90
8
70
1
43
0.0
10
93.012500000000031
20
-70.200000000000003
42
-0.41421356237309764
10
94.012500000000017
20
-69.200000000000003
10
106.0125
20
-69.200000000000003
42
-0.41421356237309764
10
107.0125
20
-70.200000000000003
10
107.0125
20
-82.4375
42
-0.41421356237309503
10
106.0125
20
-83.4375
10
94.012500000000017
20
-83.4375
42
-0.41421356237309503
10
93.012500000000017
20
-82.4375
0
LWPOLYLINE
5
124
100
AcDbEntity
8
0
100
AcDbPolyline
90
8
70
1
43
0.0
10
173.97500000000002
20
-32.100000000000001
42
-0.41421356237307555
10
174.97499999999999
20
-31.100000000000001
10
186.97500000000002
20
-31.099999999999991
42
-0.41421356237307422
10
187.97500000000002
20
-32.100000000000001
10
187.97499999999999
20
-44.337499999999999
42
-0.41421356237310025
10
186.97500000000002
20
-45.337499999999991
10
174.97499999999999
20
-45.337500000000006
42
-0.41421356237307161
10
173.97499999999997
20
-44.337499999999999
0
LWPOLYLINE
5
125
100
AcDbEntity
8
0
100
AcDbPolyline
90
8
70
1
43
0.0
10
45.387500000000003
20
-89.25
42
-0.41421356237309764
10
46.38750000000001
20
-88.250000000000014
10
58.38750000000001
20
-88.250000000000028
42
-0.41421356237309764
10
59.387500000000003
20
-89.25
10
59.387500000000017
20
-101.4875
42
-0.41421356237309764
10
58.38750000000001
20
-102.4875
10
46.38750000000001
20
-102.48749999999998
42
-0.41421356237309764
10
45.38750000000001
20
-101.4875
0
LWPOLYLINE
5
126
100
AcDbEntity
8
0
100
AcDbPolyline
90
32
70
1
43
0.0
10
393.05000000000007
20
-108.3
42
-0.4142135623730222
10
394.05000000000001
20
-107.30000000000001
10
406.05000000000007
20
-107.30000000000001
10
406.05000000000007
20
-102.48750000000001
10
394.05000000000001
20
-102.48749999999998
42
-0.41421356237312623
10
393.05000000000001
20
-101.4875
10
393.05000000000007
20
-89.25
42
-0.4142135623730222
10
394.05000000000001
20
-88.250000000000014
10
416.93962092241418
20
-88.250000000000057
42
-0.41421356237309503
10
417.23962092241413
20
-88.550000000000011
10
417.23962092241425
20
-88.605756625092738
10
426.04707442489621
20
-88.638676787747173
42
-0.41338020564627731
10
427.04333629175579
20
-89.63956145067435
10
427.03733086613931
20
-96.374754382227636
42
-0.20736777219122429
10
426.72045060165431
20
-97.104169498292023
10
426.35286105839208
20
-97.448007920316414
42
0.26402482355646684
10
426.05874155655812
20
-98.390456735958679
42
-0.053492530337945328
10
426.10000000000008
20
-98.775000000000006
10
426.10000000000008
20
-111.0125
42
-0.090165409751180772
10
426.03600633223448
20
-111.36448316155315
42
0.20947913897957554
10
426.35286105839202
20
-112.1019920796836
10
426.72045060165425
20
-112.44583050170802
42
-0.20736777219122116
10
427.0373308661392
20
-113.17524561777239
10
427.04333629175579
20
-119.91043854932568
42
-0.41338020564628775
10
426.04707442489621
20
-120.91132321225288
10
417.23962092241425
20
-120.94424337490729
10
417.23962092241413
20
-121.00000000000001
42
-0.4142135623730257
10
416.93962092241418
20
-121.30000000000001
10
406.69698821473042
20
-121.29999999999998
42
-0.17774409631208479
10
406.05000000000007
20
-121.53750000000001
10
394.05000000000001
20
-121.53749999999999
42
-0.41421356237312623
10
393.05000000000001
20
-120.53750000000001
0
LWPOLYLINE
5
127
100
AcDbEntity
8
0
100
AcDbPolyline
90
8
70
1
43
0.0
10
131.11250000000001
20
-70.200000000000003
42
-0.41421356237309503
10
132.11250000000001
20
-69.200000000000003
10
144.11250000000001
20
-69.200000000000003
42
-0.41421356237309764
10
145.11250000000001
20
-70.200000000000003
10
145.11250000000001
20
-82.4375
42
-0.41421356237309503
10
144.11250000000001
20
-83.4375
10
132.11250000000001
20
-83.4375
42
-0.41421356237309503
10
131.11250000000001
20
-82.4375
0
LWPOLYLINE
5
128
100
AcDbEntity
8
0
100
AcDbPolyline
90
8
70
1
43
0.0
10
202.55000000000001
20
-51.150000000000006
42
-0.41421356237310542
10
203.55000000000004
20
-50.150000000000006
10
215.55000000000004
20
-50.149999999999999
42
-0.41421356237307161
10
216.55000000000004
20
-51.150000000000006
10
216.55000000000001
20
-63.38750000000001
42
-0.41421356237310025
10
215.55000000000004
20
-64.387500000000003
10
203.55000000000004
20
-64.387500000000017
42
-0.41421356237309243
10
202.55000000000001
20
-63.38750000000001
0
LWPOLYLINE
5
129
100
AcDbEntity
8
0
100
AcDbPolyline
90
8
70
1
43
0.0
10
331.13749999999987
20
-8.5250000000000004
42
-0.41421356237307749
10
332.13749999999999
20
-7.5250000000000004
10
344.13749999999999
20
-7.5249999999999995
42
-0.41421356237313273
10
345.13750000000005
20
-8.5250000000000004
10
345.1375000000001
20
-20.525000000000002
42
-0.4142135623730781
10
344.13749999999999
20
-21.525000000000002
10
332.13749999999999
20
-21.525000000000006
42
-0.41421356237313406
10
331.13749999999993
20
-20.525000000000002
0
LWPOLYLINE
5
130
100
AcDbEntity
8
0
100
AcDbPolyline
90
8
70
1
43
0.0
10
216.83750000000003
20
-89.25
42
-0.41421356237310542
10
217.83750000000001
20
-88.250000000000014
10
229.83750000000001
20
-88.249999999999972
42
-0.41421356237310025
10
230.83750000000003
20
-89.25
10
230.83750000000003
20
-101.4875
42
-0.41421356237310542
10
229.83750000000001
20
-102.4875
10
217.83750000000003
20
-102.48750000000003
42
-0.41421356237307944
10
216.83750000000001
20
-101.4875
0
LWPOLYLINE
5
131
100
AcDbEntity
8
0
100
AcDbPolyline
90
8
70
1
43
0.0
10
367.95000000000005
20
-7.5249999999999639
42
-0.41421356237310153
10
368.95000000000005
20
-8.5250000000000004
10
368.95000000000005
20
-20.525000000000002
42
-0.41421356237304691
10
367.95000000000005
20
-21.525000000000002
10
355.94999999999999
20
-21.52499999999997
42
-0.41421356237312362
10
354.94999999999999
20
-20.525000000000002
10
354.94999999999999
20
-8.5250000000000004
42
-0.41421356237304624
10
355.94999999999999
20
-7.5250000000000004
0
LWPOLYLINE
5
132
100
AcDbEntity
8
0
100
AcDbPolyline
90
8
70
1
43
0.0
10
154.92500000000001
20
-32.100000000000001
42
-0.41421356237309631
10
155.92500000000001
20
-31.100000000000001
10
167.92500000000001
20
-31.099999999999991
42
-0.41421356237307422
10
168.92500000000001
20
-32.100000000000001
10
168.92499999999998
20
-44.337499999999999
42
-0.41421356237310025
10
167.92500000000001
20
-45.337499999999991
10
155.92500000000001
20
-45.337500000000006
42
-0.41421356237309764
10
154.92500000000001
20
-44.337499999999999
0
LWPOLYLINE
5
133
100
AcDbEntity
8
0
100
AcDbPolyline
90
8
70
1
43
0.0
10
52.531250000000007
20
-108.3
42
-0.41421356237309503
10
53.53125
20
-107.30000000000001
10
65.53125
20
-107.30000000000001
42
-0.41421356237309503
10
66.53125
20
-108.3
10
66.531250000000014
20
-120.53750000000001
42
-0.41421356237309764
10
65.53125
20
-121.53750000000001
10
53.53125
20
-121.53749999999999
42
-0.41421356237309764
10
52.531250000000007
20
-120.53750000000001
0
LWPOLYLINE
5
134
100
AcDbEntity
8
0
100
AcDbPolyline
90
8
70
1
43
0.0
10
212.07500000000005
20
-32.100000000000001
42
-0.41421356237307555
10
213.07500000000002
20
-31.100000000000001
10
225.07499999999999
20
-31.099999999999991
42
-0.41421356237309503
10
226.07500000000002
20
-32.100000000000001
10
226.07500000000002
20
-44.337499999999999
42
-0.41421356237310542
10
225.07499999999999
20
-45.337499999999991
10
213.07500000000002
20
-45.337500000000006
42
-0.41421356237307161
10
212.07499999999999
20
-44.337499999999999
0
LWPOLYLINE
5
135
100
AcDbEntity
8
0
100
AcDbPolyline
90
8
70
1
43
0.0
10
35.862499999999997
20
-70.199999999999989
42
-0.4142135623730937
10
36.862499999999997
20
-69.200000000000003
10
48.862500000000004
20
-69.200000000000003
42
-0.41421356237309503
10
49.862499999999997
20
-70.200000000000003
10
49.862499999999997
20
-82.4375
42
-0.41421356237309503
10
48.862500000000004
20
-83.4375
10
36.862499999999997
20
-83.4375
42
-0.4142135623730937
10
35.862499999999997
20
-82.4375
0
LWPOLYLINE
5
136
100
AcDbEntity
8
0
100
AcDbPolyline
90
8
70
1
43
0.0
10
197.78750000000002
20
-89.25
42
-0.41421356237310542
10
198.78749999999999
20
-88.250000000000014
10
210.78749999999999
20
-88.249999999999972
42
-0.41421356237310025
10
211.78750000000002
20
-89.25
10
211.78750000000002
20
-101.4875
42
-0.41421356237310542
10
210.78749999999999
20
-102.4875
10
198.78750000000002
20
-102.48750000000003
42
-0.41421356237307944
10
197.78749999999999
20
-101.4875
0
LWPOLYLINE
5
137
100
AcDbEntity
8
0
100
AcDbPolyline
90
8
70
1
43
0.0
10
69.200000000000003
20
-51.150000000000006
42
-0.41421356237309503
10
70.200000000000003
20
-50.150000000000006
10
82.200000000000003
20
-50.150000000000006
42
-0.41421356237309503
10
83.200000000000003
20
-51.150000000000006
10
83.200000000000003
20
-63.38750000000001
42
-0.41421356237309503
10
82.200000000000003
20
-64.387500000000003
10
70.200000000000003
20
-64.387500000000003
42
-0.41421356237309503
10
69.200000000000003
20
-63.38750000000001
0
LWPOLYLINE
5
138
100
AcDbEntity
8
0
100
AcDbPolyline
90
8
70
1
43
0.0
10
73.962500000000006
20
-70.200000000000003
42
-0.41421356237309503
10
74.962500000000006
20
-69.200000000000003
10
86.962500000000006
20
-69.200000000000003
42
-0.41421356237309503
10
87.962500000000006
20
-70.200000000000003
10
87.962500000000006
20
-82.4375
42
-0.41421356237309503
10
86.962500000000006
20
-83.4375
10
74.962500000000006
20
-83.4375
42
-0.41421356237309503
10
73.962500000000006
20
-82.4375
0
LWPOLYLINE
5
139
100
AcDbEntity
8
0
100
AcDbPolyline
90
8
70
1
43
0.0
10
226.36250000000004
20
-70.200000000000003
42
-0.4142135623730846
10
227.36250000000001
20
-69.200000000000003
10
239.36250000000001
20
-69.199999999999989
42
-0.41421356237309503
10
240.36250000000001
20
-70.200000000000003
10
240.36250000000001
20
-82.4375
42
-0.41421356237308982
10
239.36250000000001
20
-83.4375
10
227.36250000000001
20
-83.437500000000014
42
-0.41421356237307422
10
226.36250000000001
20
-82.4375
0
LWPOLYLINE
5
140
100
AcDbEntity
8
0
100
AcDbPolyline
90
8
70
1
43
0.0
10
97.77500000000002
20
-32.100000000000001
42
-0.41421356237309631
10
98.775000000000006
20
-31.100000000000001
10
110.77500000000001
20
-31.099999999999998
42
-0.41421356237309764
10
111.77500000000001
20
-32.100000000000001
10
111.77499999999998
20
-44.337499999999999
42
-0.41421356237309764
10
110.77500000000001
20
-45.337499999999991
10
98.775000000000006
20
-45.337500000000006
42
-0.41421356237309764
10
97.77500000000002
20
-44.337499999999999
0
LWPOLYLINE
5
141
100
AcDbEntity
8
0
100
AcDbPolyline
90
8
70
1
43
0.0
10
293.03750000000002
20
-51.150000000000006
42
-0.41421356237310542
10
294.03750000000002
20
-50.150000000000006
10
306.03750000000002
20
-50.149999999999999
42
-0.41421356237309243
10
307.03750000000008
20
-51.150000000000006
10
307.03750000000008
20
-63.38750000000001
42
-0.41421356237310542
10
306.03750000000002
20
-64.387500000000003
10
294.03750000000002
20
-64.387500000000017
42
-0.41421356237309243
10
293.03750000000002
20
-63.38750000000001
0
LWPOLYLINE
5
142
100
AcDbEntity
8
0
100
AcDbPolyline
90
8
70
1
43
0.0
10
374
20
-51.150000000000006
42
-0.41421356237304563
10
375
20
-50.150000000000006
10
387
20
-50.14999999999997
42
-0.41421356237310025
10
388.00000000000006
20
-51.150000000000006
10
388.00000000000006
20
-63.38750000000001
42
-0.41421356237304563
10
387
20
-64.387500000000003
10
375
20
-64.387500000000045
42
-0.41421356237310025
10
374
20
-63.38750000000001
0
LWPOLYLINE
5
143
100
AcDbEntity
8
0
100
AcDbPolyline
90
8
70
1
43
0.0
10
183.5
20
-51.150000000000006
42
-0.41421356237310025
10
184.5
20
-50.150000000000006
10
196.50000000000003
20
-50.149999999999999
42
-0.41421356237307161
10
197.50000000000003
20
-51.150000000000006
10
197.5
20
-63.38750000000001
42
-0.41421356237310025
10
196.50000000000003
20
-64.387500000000003
10
184.5
20
-64.387500000000017
42
-0.41421356237307161
10
183.49999999999997
20
-63.38750000000001
0
LWPOLYLINE
5
144
100
AcDbEntity
8
0
100
AcDbPolyline
90
8
70
1
43
0.0
10
9.6687500000000011
20
-70.200000000000003
42
-0.4142135623730957
10
10.668749999999999
20
-69.200000000000003
10
22.668750000000003
20
-69.200000000000003
42
-0.41421356237309503
10
23.668750000000003
20
-70.200000000000003
10
23.668749999999999
20
-82.4375
42
-0.41421356237309503
10
22.668750000000003
20
-83.4375
10
10.668749999999999
20
-83.4375
42
-0.41421356237309437
10
9.6687500000000011
20
-82.4375
0
LWPOLYLINE
5
145
100
AcDbEntity
8
0
100
AcDbPolyline
90
8
70
1
43
0.0
10
78.725000000000009
20
-32.100000000000001
42
-0.41421356237309243
10
79.724999999999994
20
-31.100000000000001
10
91.724999999999994
20
-31.099999999999998
42
-0.41421356237309764
10
92.724999999999994
20
-32.100000000000001
10
92.724999999999966
20
-44.337499999999999
42
-0.41421356237309764
10
91.724999999999994
20
-45.337499999999991
10
79.724999999999994
20
-45.337499999999991
42
-0.41421356237309503
10
78.725000000000009
20
-44.337499999999999
0
LWPOLYLINE
5
146
100
AcDbEntity
8
0
100
AcDbPolyline
90
8
70
1
43
0.0
10
231.12500000000006
20
-32.100000000000001
42
-0.41421356237307555
10
232.12500000000003
20
-31.100000000000001
10
244.125
20
-31.099999999999991
42
-0.41421356237309503
10
245.12500000000003
20
-32.100000000000001
10
245.12500000000003
20
-44.337499999999999
42
-0.41421356237310542
10
244.125
20
-45.337499999999991
10
232.12500000000003
20
-45.337500000000006
42
-0.41421356237307161
10
231.125
20
-44.337499999999999
0
LWPOLYLINE
5
147
100
AcDbEntity
8
0
100
AcDbPolyline
90
8
70
1
43
0.0
10
325.08749999999998
20
-50.150000000000006
42
-0.41421356237313145
10
326.08749999999998
20
-51.150000000000006
10
326.08750000000009
20
-63.38750000000001
42
-0.41421356237307683
10
325.08749999999998
20
-64.387500000000003
10
313.08749999999998
20
-64.387500000000017
42
-0.41421356237307161
10
312.08749999999998
20
-63.38750000000001
10
312.08750000000003
20
-51.150000000000006
42
-0.41421356237310025
10
313.08749999999998
20
-50.150000000000006
0
LWPOLYLINE
5
148
100
AcDbEntity
8
0
100
AcDbPolyline
90
8
70
1
43
0.0
10
425.10000000000002
20
-31.100000000000037
42
-0.41421356237312235
10
426.10000000000008
20
-32.100000000000001
10
426.10000000000008
20
-44.337499999999999
42
-0.41421356237304563
10
425.10000000000002
20
-45.337499999999991
10
413.10000000000002
20
-45.337500000000034
42
-0.41421356237310025
10
412.10000000000002
20
-44.337499999999999
10
412.10000000000002
20
-32.100000000000001
42
-0.41421356237304691
10
413.10000000000002
20
-31.100000000000001
0
LWPOLYLINE
5
149
100
AcDbEntity
8
0
100
AcDbPolyline
90
8
70
1
43
0.0
10
116.82500000000002
20
-32.100000000000001
42
-0.4142135623730937
10
117.825
20
-31.100000000000001
10
129.82499999999999
20
-31.100000000000009
42
-0.41421356237309503
10
130.82499999999999
20
-32.100000000000001
10
130.82499999999999
20
-44.337499999999999
42
-0.41421356237309503
10
129.82499999999999
20
-45.337499999999991
10
117.825
20
-45.337499999999991
42
-0.41421356237309503
10
116.82500000000002
20
-44.337499999999999
0
LWPOLYLINE
5
150
100
AcDbEntity
8
0
100
AcDbPolyline
90
8
70
1
43
0.0
10
88.250000000000028
20
-51.150000000000006
42
-0.41421356237309764
10
89.25
20
-50.150000000000006
10
101.25
20
-50.149999999999999
42
-0.41421356237309764
10
102.25
20
-51.150000000000006
10
102.24999999999997
20
-63.38750000000001
42
-0.41421356237309764
10
101.25
20
-64.387500000000003
10
89.25
20
-64.387500000000017
42
-0.41421356237309764
10
88.250000000000014
20
-63.38750000000001
0
LWPOLYLINE
5
151
100
AcDbEntity
8
0
100
AcDbPolyline
90
29
70
1
43
0.0
10
18.90625
20
-108.3
10
28.71875
20
-108.3
10
28.71875
20
-120.53750000000001
42
0.41421356237309631
10
29.718750000000004
20
-121.53750000000001
10
41.71875
20
-121.53750000000001
42
0.41421356237309764
10
42.71875
20
-120.53750000000001
10
42.71875
20
-108.3
42
0.41421356237309503
10
41.71875
20
-107.30000000000001
10
37.638579750050553
20
-107.30000000000001
10
37.567573212252874
20
-88.302925575103828
42
0.41338020564622802
10
36.566688549325661
20
-87.30666370824423
10
29.831495617772372
20
-87.31266913386078
42
0.20736777219119948
10
29.102080501707999
20
-87.629549398345731
10
28.758242079683598
20
-87.997138941608
42
-0.26402482355646223
10
27.815793264041318
20
-88.291258443441976
42
0.05349253033777842
10
27.431249999999991
20
-88.25
10
15.431250000000009
20
-88.25
42
0.053492530337872886
10
15.046706735958669
20
-88.291258443441976
42
-0.26402482355646023
10
14.104257920316407
20
-87.997138941608
10
13.760419498292009
20
-87.629549398345731
42
0.2073677721912254
10
13.031004382227621
20
-87.312669133860766
10
6.2958114506743401
20
-87.30666370824423
42
0.41338020564622802
10
5.2949267877471229
20
-88.302925575103828
10
5.2290864624383211
20
-105.91783258006782
10
4.90625
20
-105.91783258006782
10
4.9062500000000009
20
-120.53750000000001
42
0.41421356237309698
10
5.9062500000000018
20
-121.53750000000001
10
17.906250000000004
20
-121.53750000000001
42
0.41421356237309698
10
18.906250000000004
20
-120.53750000000001
0
LWPOLYLINE
5
152
100
AcDbEntity
8
0
100
AcDbPolyline
90
8
70
1
43
0.0
10
2.5249999999999995
20
-32.100000000000001
42
-0.41421356237309243
10
3.5250000000000004
20
-31.100000000000001
10
15.525000000000002
20
-31.100000000000001
42
-0.41421356237309176
10
16.525000000000002
20
-32.100000000000001
10
16.525000000000002
20
-44.337499999999999
42
-0.41421356237309631
10
15.525000000000002
20
-45.337499999999991
10
3.5250000000000004
20
-45.337499999999991
42
-0.41421356237309537
10
2.5250000000000004
20
-44.337499999999999
0
LWPOLYLINE
5
153
100
AcDbEntity
8
0
100
AcDbPolyline
90
8
70
1
43
0.0
10
164.44999999999999
20
-51.150000000000006
42
-0.41421356237310025
10
165.44999999999999
20
-50.150000000000006
10
177.45000000000002
20
-50.149999999999999
42
-0.41421356237307161
10
178.45000000000002
20
-51.150000000000006
10
178.44999999999999
20
-63.38750000000001
42
-0.41421356237310025
10
177.45000000000002
20
-64.387500000000003
10
165.44999999999999
20
-64.387500000000017
42
-0.41421356237307161
10
164.44999999999996
20
-63.38750000000001
0
LWPOLYLINE
5
154
100
AcDbEntity
8
0
100
AcDbPolyline
90
38
70
1
43
0.0
10
257.03125000000006
20
-108.3
10
266.84375
20
-108.3
10
266.84375
20
-120.53750000000001
42
0.41421356237307944
10
267.84375
20
-121.53750000000002
10
279.84375
20
-121.53750000000001
42
0.41421356237310542
10
280.84375
20
-120.53750000000001
10
280.84375
20
-108.3
42
0.41421356237309503
10
279.84375
20
-107.30000000000001
10
276.75984897372592
20
-107.30000000000003
42
-0.41311922565777842
10
275.75985595908412
20
-106.30373773562198
10
275.69257321225285
20
-88.302925575103828
42
0.11028426185305856
10
275.59600741612593
20
-87.877921825858252
10
279.52253844231075
20
-87.871569006857413
42
0.41483458089566622
10
280.52091353756174
20
-86.867832580067841
10
280.4550732122529
20
-69.252925575103859
42
0.41338020564624872
10
279.45418854932569
20
-68.256663708244261
10
272.71899561777241
20
-68.262669133860797
42
0.20736777219120978
10
271.98958050170802
20
-68.57954939834579
10
271.64574207968366
20
-68.947138941608003
42
-0.26402482355647411
10
270.70329326404135
20
-69.241258443442007
42
0.053492530337824737
10
270.31875000000002
20
-69.200000000000017
10
258.31875000000002
20
-69.200000000000017
42
0.053492530337879582
10
257.9342067359587
20
-69.241258443441964
42
-0.26402482355646317
10
256.99175792031645
20
-68.947138941608017
10
256.64791949829203
20
-68.579549398345762
42
0.20736777219122751
10
255.91850438222767
20
-68.262669133860797
10
249.18331145067438
20
-68.256663708244247
42
0.41338020564623057
10
248.18242678774715
20
-69.252925575103859
10
248.11658646243836
20
-86.867832580067841
42
0.11491267374430335
10
248.21783804531952
20
-87.310049321842797
10
244.42081145067434
20
-87.30666370824423
42
0.41338020564620465
10
243.41992678774713
20
-88.302925575103828
10
243.38700662509271
20
-97.110379077585819
10
243.03125
20
-97.110379077585819
10
243.03125
20
-120.53750000000001
42
0.41421356237310025
10
244.03125000000003
20
-121.53750000000002
10
256.03125
20
-121.53750000000001
42
0.41421356237310542
10
257.03125
20
-120.53750000000001
0
LWPOLYLINE
5
155
100
AcDbEntity
8
0
100
AcDbPolyline
90
8
70
1
43
0.0
10
150.16250000000002
20
-70.200000000000003
42
-0.41421356237309764
10
151.16250000000002
20
-69.200000000000003
10
163.16249999999999
20
-69.199999999999989
42
-0.41421356237307422
10
164.16250000000002
20
-70.200000000000003
10
164.16249999999997
20
-82.4375
42
-0.41421356237310025
10
163.16249999999999
20
-83.4375
10
151.16250000000002
20
-83.4375
42
-0.41421356237309503
10
150.16250000000002
20
-82.4375
0
LWPOLYLINE
5
156
100
AcDbEntity
8
0
100
AcDbPolyline
90
8
70
1
43
0.0
10
374.00000000000006
20
-89.25
42
-0.4142135623730222
10
375
20
-88.250000000000014
10
387
20
-88.250000000000028
42
-0.41421356237312623
10
388.00000000000006
20
-89.25
10
388
20
-101.4875
42
-0.4142135623730222
10
387
20
-102.4875
10
375
20
-102.48749999999998
42
-0.41421356237312623
10
374
20
-101.4875
0
LWPOLYLINE
5
157
100
AcDbEntity
8
0
100
AcDbPolyline
90
8
70
1
43
0.0
10
40.625
20
-32.100000000000001
42
-0.41421356237309503
10
41.625000000000007
20
-31.100000000000001
10
53.625000000000007
20
-31.100000000000001
42
-0.41421356237309631
10
54.625
20
-32.100000000000001
10
54.625
20
-44.337499999999999
42
-0.41421356237309503
10
53.625000000000007
20
-45.337499999999991
10
41.625000000000007
20
-45.337499999999991
42
-0.41421356237309503
10
40.625000000000007
20
-44.337499999999999
0
LWPOLYLINE
5
158
100
AcDbEntity
8
0
100
AcDbPolyline
90
8
70
1
43
0.0
10
112.0625
20
-70.200000000000003
42
-0.41421356237309503
10
113.0625
20
-69.200000000000003
10
125.06250000000001
20
-69.200000000000003
42
-0.41421356237309764
10
126.06250000000001
20
-70.200000000000003
10
126.06250000000001
20
-82.4375
42
-0.41421356237309503
10
125.06250000000001
20
-83.4375
10
113.0625
20
-83.4375
42
-0.41421356237309503
10
112.0625
20
-82.4375
0
LWPOLYLINE
5
159
100
AcDbEntity
8
0
100
AcDbPolyline
90
8
70
1
43
0.0
10
354.94999999999999
20
-51.150000000000006
42
-0.41421356237304563
10
355.94999999999999
20
-50.150000000000006
10
367.95000000000005
20
-50.14999999999997
42
-0.41421356237310025
10
368.95000000000005
20
-51.150000000000006
10
368.95000000000005
20
-63.38750000000001
42
-0.41421356237304563
10
367.95000000000005
20
-64.387500000000003
10
355.94999999999999
20
-64.387500000000045
42
-0.41421356237310025
10
354.94999999999999
20
-63.38750000000001
0
LWPOLYLINE
5
160
100
AcDbEntity
8
0
100
AcDbPolyline
90
8
70
1
43
0.0
10
374
20
-32.100000000000001
42
-0.41421356237304691
10
375
20
-31.100000000000001
10
387
20
-31.100000000000037
42
-0.41421356237312235
10
388.00000000000006
20
-32.100000000000001
10
388.00000000000006
20
-44.337499999999999
42
-0.41421356237304563
10
387
20
-45.337499999999991
10
375
20
-45.337500000000034
42
-0.41421356237310025
10
374
20
-44.337499999999999
0
LWPOLYLINE
5
161
100
AcDbEntity
8
0
100
AcDbPolyline
90
8
70
1
43
0.0
10
293.03750000000002
20
-32.100000000000001
42
-0.41421356237310675
10
294.03750000000002
20
-31.100000000000001
10
306.03750000000002
20
-31.099999999999991
42
-0.41421356237309503
10
307.03750000000008
20
-32.100000000000001
10
307.03750000000008
20
-44.337499999999999
42
-0.41421356237310542
10
306.03750000000002
20
-45.337499999999991
10
294.03750000000002
20
-45.337500000000006
42
-0.41421356237309243
10
293.03750000000002
20
-44.337499999999999
0
LWPOLYLINE
5
162
100
AcDbEntity
8
0
100
AcDbPolyline
90
30
70
1
43
0.0
10
393.05000000000001
20
-70.200000000000003
42
-0.41421356237305079
10
394.05000000000001
20
-69.200000000000003
10
406.05000000000007
20
-69.200000000000003
10
406.05000000000007
20
-64.387500000000003
10
394.05000000000001
20
-64.387500000000045
42
-0.41421356237310025
10
393.05000000000001
20
-63.38750000000001
10
393.05000000000001
20
-51.150000000000006
42
-0.41421356237304563
10
394.05000000000001
20
-50.150000000000006
10
417.2396209224143
20
-50.150000000000006
10
417.2396209224143
20
-50.505756625092729
10
426.04707442489627
20
-50.538676787747136
42
-0.4133802056462072
10
427.04333629175585
20
-51.539561450674341
10
427.03733086613943
20
-58.274754382227627
42
-0.20736777219123703
10
426.72045060165436
20
-59.004169498292008
10
426.35286105839214
20
-59.348007920316412
42
0.26402482355645762
10
426.05874155655812
20
-60.290456735958635
42
-0.053492530337958019
10
426.10000000000014
20
-60.675000000000018
10
426.10000000000008
20
-72.912499999999994
42
-0.090165409750903425
10
426.03600633223459
20
-73.264483161553059
42
0.20947913897960835
10
426.35286105839214
20
-74.001992079683589
10
426.72045060165431
20
-74.345830501707994
42
-0.20736777219121652
10
427.03733086613931
20
-75.075245617772367
10
427.04333629175585
20
-81.810438549325667
42
-0.41338020564620465
10
426.04707442489627
20
-82.811323212252873
10
417.2396209224143
20
-82.844243374907265
10
417.2396209224143
20
-83.200000000000003
10
406.69698821473042
20
-83.199999999999989
42
-0.17774409631208479
10
406.05000000000007
20
-83.4375
10
394.05000000000001
20
-83.437499999999972
42
-0.41421356237312101
10
393.05000000000001
20
-82.4375
0
LWPOLYLINE
5
163
100
AcDbEntity
8
0
100
AcDbPolyline
90
8
70
1
43
0.0
10
54.912500000000009
20
-70.200000000000003
42
-0.41421356237309503
10
55.912500000000009
20
-69.200000000000003
10
67.912499999999994
20
-69.200000000000003
42
-0.41421356237309503
10
68.912499999999994
20
-70.200000000000003
10
68.912499999999994
20
-82.4375
42
-0.41421356237309503
10
67.912499999999994
20
-83.4375
10
55.912500000000009
20
-83.4375
42
-0.41421356237309503
10
54.912500000000009
20
-82.4375
0
LWPOLYLINE
5
164
100
AcDbEntity
8
0
100
AcDbPolyline
90
8
70
1
43
0.0
10
195.40625
20
-108.3
42
-0.41421356237308982
10
196.40625
20
-107.30000000000001
10
208.40625000000003
20
-107.29999999999998
42
-0.41421356237309503
10
209.40625000000006
20
-108.3
10
209.40625000000006
20
-120.53750000000001
42
-0.41421356237310542
10
208.40625000000003
20
-121.53750000000001
10
196.40625
20
-121.53750000000004
42
-0.41421356237310025
10
195.40625
20
-120.53750000000001
0
LWPOLYLINE
5
165
100
AcDbEntity
8
0
100
AcDbPolyline
90
8
70
1
43
0.0
10
331.13749999999987
20
-32.100000000000001
42
-0.4142135623730781
10
332.13749999999999
20
-31.100000000000001
10
344.13749999999999
20
-31.100000000000001
42
-0.41421356237313273
10
345.13750000000005
20
-32.100000000000001
10
345.1375000000001
20
-44.337499999999999
42
-0.41421356237307683
10
344.13749999999999
20
-45.337499999999991
10
332.13749999999999
20
-45.337499999999991
42
-0.41421356237313145
10
331.13749999999993
20
-44.337499999999999
0
LWPOLYLINE
5
166
100
AcDbEntity
8
0
100
AcDbPolyline
90
8
70
1
43
0.0
10
7.2875000000000023
20
-51.150000000000006
42
-0.41421356237309537
10
8.2874999999999979
20
-50.150000000000006
10
20.287500000000001
20
-50.150000000000006
42
-0.41421356237309243
10
21.287500000000001
20
-51.150000000000006
10
21.287500000000001
20
-63.38750000000001
42
-0.41421356237309631
10
20.287500000000001
20
-64.387500000000003
10
8.2874999999999979
20
-64.387500000000003
42
-0.41421356237309503
10
7.2874999999999996
20
-63.38750000000001
0
LWPOLYLINE
5
167
100
AcDbEntity
8
0
100
AcDbPolyline
90
8
70
1
43
0.0
10
312.08750000000003
20
-89.25
42
-0.41421356237310542
10
313.08749999999998
20
-88.250000000000014
10
325.08749999999998
20
-88.25
42
-0.41421356237313667
10
326.08749999999998
20
-89.25
10
326.08750000000009
20
-101.4875
42
-0.41421356237307422
10
325.08749999999998
20
-102.4875
10
313.08750000000003
20
-102.48750000000003
42
-0.41421356237307944
10
312.08749999999998
20
-101.4875
0
LWPOLYLINE
5
168
100
AcDbEntity
8
0
100
AcDbPolyline
90
8
70
1
43
0.0
10
193.02500000000003
20
-32.100000000000001
42
-0.41421356237310675
10
194.02500000000003
20
-31.100000000000001
10
206.02500000000003
20
-31.099999999999991
42
-0.41421356237307422
10
207.02500000000003
20
-32.100000000000001
10
207.02500000000001
20
-44.337499999999999
42
-0.41421356237310025
10
206.02500000000003
20
-45.337499999999991
10
194.02500000000003
20
-45.337500000000006
42
-0.41421356237309243
10
193.02500000000003
20
-44.337499999999999
0
LWPOLYLINE
5
169
100
AcDbEntity
8
0
100
AcDbPolyline
90
8
70
1
43
0.0
10
145.40000000000003
20
-51.150000000000006
42
-0.41421356237309764
10
146.40000000000001
20
-50.150000000000006
10
158.40000000000001
20
-50.150000000000006
42
-0.41421356237309503
10
159.40000000000001
20
-51.150000000000006
10
159.40000000000001
20
-63.38750000000001
42
-0.41421356237309503
10
158.40000000000001
20
-64.387500000000003
10
146.40000000000001
20
-64.387500000000017
42
-0.41421356237309764
10
145.40000000000001
20
-63.38750000000001
0
LWPOLYLINE
5
170
100
AcDbEntity
8
0
100
AcDbPolyline
90
8
70
1
43
0.0
10
107.30000000000001
20
-51.150000000000006
42
-0.41421356237309503
10
108.3
20
-50.150000000000006
10
120.30000000000001
20
-50.149999999999999
42
-0.41421356237309764
10
121.30000000000001
20
-51.150000000000006
10
121.29999999999998
20
-63.38750000000001
42
-0.41421356237309764
10
120.30000000000001
20
-64.387500000000003
10
108.3
20
-64.387500000000003
42
-0.41421356237309503
10
107.30000000000001
20
-63.38750000000001
0
LWPOLYLINE
5
171
100
AcDbEntity
8
0
100
AcDbPolyline
90
8
70
1
43
0.0
10
188.26250000000002
20
-70.200000000000003
42
-0.4142135623730846
10
189.26249999999999
20
-69.200000000000003
10
201.26249999999999
20
-69.199999999999989
42
-0.41421356237309503
10
202.26249999999999
20
-70.200000000000003
10
202.26249999999999
20
-82.4375
42
-0.41421356237308982
10
201.26249999999999
20
-83.4375
10
189.26249999999999
20
-83.437500000000014
42
-0.41421356237307422
10
188.26249999999999
20
-82.4375
0
LWPOLYLINE
5
172
100
AcDbEntity
8
0
100
AcDbPolyline
90
8
70
1
43
0.0
10
207.31250000000003
20
-70.200000000000003
42
-0.4142135623730846
10
208.3125
20
-69.200000000000003
10
220.3125
20
-69.199999999999989
42
-0.41421356237309503
10
221.3125
20
-70.200000000000003
10
221.3125
20
-82.4375
42
-0.41421356237308982
10
220.3125
20
-83.4375
10
208.3125
20
-83.437500000000014
42
-0.41421356237307422
10
207.3125
20
-82.4375
0
LWPOLYLINE
5
173
100
AcDbEntity
8
0
100
AcDbPolyline
90
8
70
1
43
0.0
10
312.08750000000003
20
-32.100000000000001
42
-0.41421356237307555
10
313.08749999999998
20
-31.100000000000001
10
325.08749999999998
20
-31.100000000000001
42
-0.41421356237313273
10
326.08749999999998
20
-32.100000000000001
10
326.08750000000009
20
-44.337499999999999
42
-0.41421356237307683
10
325.08749999999998
20
-45.337499999999991
10
313.08749999999998
20
-45.337500000000006
42
-0.41421356237307161
10
312.08749999999998
20
-44.337499999999999
0
LWPOLYLINE
5
174
100
AcDbEntity
8
0
100
AcDbPolyline
90
8
70
1
43
0.0
10
354.94999999999999
20
-70.200000000000003
42
-0.41421356237305079
10
355.94999999999999
20
-69.200000000000003
10
367.95000000000005
20
-69.19999999999996
42
-0.41421356237310281
10
368.95000000000005
20
-70.200000000000003
10
368.94999999999993
20
-82.4375
42
-0.4142135623730222
10
367.95000000000005
20
-83.4375
10
355.94999999999999
20
-83.437499999999972
42
-0.41421356237312101
10
354.94999999999999
20
-82.4375
0
LWPOLYLINE
5
175
100
AcDbEntity
8
0
100
AcDbPolyline
90
8
70
1
43
0.0
10
21.574999999999996
20
-32.100000000000001
42
-0.41421356237308982
10
22.574999999999999
20
-31.100000000000001
10
34.575000000000003
20
-31.099999999999998
42
-0.41421356237309115
10
35.575000000000003
20
-32.100000000000001
10
35.575000000000003
20
-44.337499999999999
42
-0.41421356237309631
10
34.575000000000003
20
-45.337499999999991
10
22.574999999999999
20
-45.337499999999991
42
-0.41421356237309243
10
21.574999999999996
20
-44.337499999999999
0
LWPOLYLINE
5
176
100
AcDbEntity
8
0
100
AcDbPolyline
90
8
70
1
43
0.0
10
331.13749999999987
20
-51.150000000000006
42
-0.41421356237307683
10
332.13749999999999
20
-50.150000000000006
10
344.13749999999999
20
-50.150000000000006
42
-0.41421356237313145
10
345.13750000000005
20
-51.150000000000006
10
345.1375000000001
20
-63.38750000000001
42
-0.41421356237307683
10
344.13749999999999
20
-64.387500000000003
10
332.13749999999999
20
-64.387500000000003
42
-0.41421356237313145
10
331.13749999999993
20
-63.38750000000001
0
LWPOLYLINE
5
177
100
AcDbEntity
8
0
100
AcDbPolyline
90
8
70
1
43
0.0
10
31.100000000000001
20
-51.150000000000006
42
-0.41421356237309631
10
32.100000000000001
20
-50.150000000000006
10
44.100000000000001
20
-50.150000000000006
42
-0.41421356237309503
10
45.099999999999994
20
-51.150000000000006
10
45.099999999999994
20
-63.38750000000001
42
-0.41421356237309503
10
44.100000000000001
20
-64.387500000000003
10
32.100000000000001
20
-64.387500000000003
42
-0.41421356237309243
10
31.100000000000001
20
-63.38750000000001
0
LWPOLYLINE
5
178
100
AcDbEntity
8
0
100
AcDbPolyline
90
8
70
1
43
0.0
10
354.94999999999999
20
-32.100000000000001
42
-0.41421356237304691
10
355.94999999999999
20
-31.100000000000001
10
367.95000000000005
20
-31.100000000000037
42
-0.41421356237312235
10
368.95000000000005
20
-32.100000000000001
10
368.95000000000005
20
-44.337499999999999
42
-0.41421356237304563
10
367.95000000000005
20
-45.337499999999991
10
355.94999999999999
20
-45.337500000000034
42
-0.41421356237310025
10
354.94999999999999
20
-44.337499999999999
0
LWPOLYLINE
5
179
100
AcDbEntity
8
0
100
AcDbPolyline
90
8
70
1
43
0.0
10
387
20
-69.19999999999996
42
-0.41421356237310281
10
388.00000000000006
20
-70.200000000000003
10
388
20
-82.4375
42
-0.4142135623730222
10
387
20
-83.4375
10
375
20
-83.437499999999972
42
-0.41421356237312101
10
374
20
-82.4375
10
374
20
-70.200000000000003
42
-0.41421356237305079
10
375
20
-69.200000000000003
0
LWPOLYLINE
5
180
100
AcDbEntity
8
0
100
AcDbPolyline
90
30
70
1
43
0.0
10
254.65000000000003
20
-51.150000000000006
10
264.46249999999998
20
-51.150000000000006
10
264.46249999999998
20
-63.38750000000001
42
0.41421356237309243
10
265.46249999999998
20
-64.387500000000017
10
277.46249999999998
20
-64.387500000000003
42
0.41421356237310025
10
278.46250000000003
20
-63.38750000000001
10
278.46250000000003
20
-49.777136741444906
10
281.90378844231071
20
-49.771569006857334
42
0.41483458089567399
10
282.90216353756171
20
-48.76783258006779
10
282.83632321225286
20
-31.152925575103822
42
0.41338020564624745
10
281.83543854932566
20
-30.156663708244224
10
275.10024561777237
20
-30.162669133860788
42
0.20736777219122413
10
274.37083050170799
20
-30.47954939834576
10
274.02699207968362
20
-30.847138941608002
42
-0.2640248235564584
10
273.08454326404137
20
-31.141258443441984
42
0.053492530337826569
10
272.69999999999999
20
-31.100000000000001
10
260.70000000000005
20
-31.100000000000001
42
0.053492530337869999
10
260.31545673595872
20
-31.141258443441949
42
-0.26402482355646317
10
259.37300792031647
20
-30.847138941608002
10
259.02916949829205
20
-30.479549398345746
42
0.20736777219123001
10
258.29975438222766
20
-30.162669133860788
10
251.5645614506744
20
-30.156663708244238
42
0.4133802056462319
10
250.5636767877472
20
-31.152925575103836
10
250.4926702499495
20
-50.150000000000006
10
241.65000000000003
20
-50.150000000000006
42
0.41421356237310025
10
240.65000000000003
20
-51.150000000000006
10
240.65000000000001
20
-63.38750000000001
42
0.41421356237307161
10
241.65000000000003
20
-64.387500000000017
10
253.65000000000003
20
-64.387500000000003
42
0.41421356237310542
10
254.65000000000003
20
-63.38750000000001
0
LWPOLYLINE
5
181
100
AcDbEntity
8
0
100
AcDbPolyline
90
8
70
1
43
0.0
10
135.875
20
-32.100000000000001
42
-0.41421356237309631
10
136.875
20
-31.100000000000001
10
148.875
20
-31.100000000000009
42
-0.41421356237309503
10
149.875
20
-32.100000000000001
10
149.875
20
-44.337499999999999
42
-0.41421356237309503
10
148.875
20
-45.337499999999991
10
136.875
20
-45.337500000000006
42
-0.41421356237309764
10
135.875
20
-44.337499999999999
0
LWPOLYLINE
5
182
100
AcDbEntity
8
0
100
AcDbPolyline
90
60
70
1
43
0.0
10
124.96875000000001
20
-121.53750000000001
10
136.96875
20
-121.53750000000001
42
0.19974128369789851
10
137.67810811984663
20
-121.24234825161709
42
-0.17831937671873335
10
138.29574207968361
20
-121.55286105839198
10
138.60784850191092
20
-121.88652666892878
42
0.20736070275555477
10
139.33724509675412
20
-122.2033871335214
10
184.14094517441839
20
-122.24333629175575
42
0.41338020564620465
10
185.1418298373456
20
-121.24707442489616
10
185.21194865673206
20
-102.4875
10
191.73750000000001
20
-102.4875
42
0.41421356237310542
10
192.73750000000001
20
-101.4875
10
192.73750000000004
20
-89.25
42
0.41421356237307944
10
191.73750000000001
20
-88.25
10
179.73750000000001
20
-88.250000000000014
42
0.41421356237310542
10
178.73750000000001
20
-89.25
10
178.73750000000001
20
-101.25
10
173.68750000000003
20
-101.25
10
173.68750000000003
20
-89.25
42
0.41421356237307944
10
172.6875
20
-88.250000000000014
10
160.6875
20
-88.250000000000014
42
0.41421356237311063
10
159.68750000000003
20
-89.25
10
159.6875
20
-101.25
10
154.63749999999999
20
-101.25
10
154.63749999999999
20
-89.25
42
0.41421356237310542
10
153.63749999999999
20
-88.250000000000014
10
141.63749999999999
20
-88.250000000000014
42
0.41421356237310542
10
140.63750000000002
20
-89.25
10
140.63750000000002
20
-101.25
10
135.58750000000001
20
-101.25
10
135.58750000000001
20
-89.25
42
0.41421356237310542
10
134.58750000000003
20
-88.250000000000014
10
122.58750000000001
20
-88.250000000000014
42
0.41421356237309503
10
121.58750000000001
20
-89.25
10
121.58750000000001
20
-101.25
10
116.53750000000001
20
-101.25
10
116.53750000000001
20
-89.25
42
0.41421356237310542
10
115.53750000000001
20
-88.250000000000014
10
103.53749999999999
20
-88.250000000000014
42
0.41421356237309503
10
102.53749999999999
20
-89.25
10
102.53749999999999
20
-101.25
10
97.487500000000011
20
-101.25
10
97.487499999999997
20
-89.25
42
0.41421356237310542
10
96.487499999999997
20
-88.250000000000014
10
84.487500000000011
20
-88.250000000000014
42
0.41421356237310542
10
83.487500000000011
20
-89.25
10
83.487500000000011
20
-101.25
10
78.4375
20
-101.25
10
78.4375
20
-89.25
42
0.41421356237309764
10
77.4375
20
-88.250000000000014
10
65.4375
20
-88.250000000000014
42
0.41421356237309764
10
64.4375
20
-89.25
10
64.4375
20
-101.4875
42
0.41421356237309764
10
65.4375
20
-102.4875
10
76.725551343267966
20
-102.48750000000001
10
76.795670162654403
20
-121.24707442489616
42
0.41338020564620981
10
77.796554825581623
20
-122.24333629175575
10
122.60022822078243
20
-122.20338715732436
42
0.20736766021007105
10
123.32965149835752
20
-121.88652666917983
10
123.64175792031642
20
-121.55286105839198
42
-0.17831937671872741
10
124.25939188015337
20
-121.24234825161709
42
0.19974128369791766
0
LWPOLYLINE
5
183
100
AcDbEntity
8
0
100
AcDbPolyline
90
8
70
1
43
0.0
10
59.674999999999997
20
-32.100000000000001
42
-0.41421356237309503
10
60.674999999999997
20
-31.100000000000001
10
72.674999999999997
20
-31.100000000000001
42
-0.41421356237309631
10
73.674999999999997
20
-32.100000000000001
10
73.674999999999997
20
-44.337499999999999
42
-0.41421356237309503
10
72.674999999999997
20
-45.337499999999991
10
60.674999999999997
20
-45.337499999999991
42
-0.41421356237309503
10
59.675000000000004
20
-44.337499999999999
0
LWPOLYLINE
5
184
100
AcDbEntity
8
0
100
AcDbPolyline
90
8
70
1
43
0.0
10
354.95000000000005
20
-89.25
42
-0.4142135623730222
10
355.94999999999999
20
-88.250000000000014
10
367.95000000000005
20
-88.250000000000028
42
-0.41421356237312623
10
368.95000000000005
20
-89.25
10
368.94999999999993
20
-101.4875
42
-0.4142135623730222
10
367.95000000000005
20
-102.4875
10
355.94999999999999
20
-102.48749999999998
42
-0.41421356237312623
10
354.94999999999999
20
-101.4875
0
LWPOLYLINE
5
185
100
AcDbEntity
8
0
100
AcDbPolyline
90
8
70
1
43
0.0
10
169.21250000000001
20
-70.200000000000003
42
-0.41421356237310802
10
170.21250000000003
20
-69.200000000000003
10
182.21250000000001
20
-69.199999999999989
42
-0.41421356237307422
10
183.21250000000003
20
-70.200000000000003
10
183.21249999999998
20
-82.4375
42
-0.41421356237310025
10
182.21250000000001
20
-83.4375
10
170.21250000000003
20
-83.437500000000014
42
-0.41421356237309503
10
169.21250000000001
20
-82.4375
0
LWPOLYLINE
5
186
100
AcDbEntity
8
0
100
AcDbPolyline
90
8
70
1
43
0.0
10
393.05000000000001
20
-32.100000000000001
42
-0.41421356237304691
10
394.05000000000001
20
-31.100000000000001
10
406.05000000000007
20
-31.100000000000037
42
-0.41421356237312235
10
407.05000000000007
20
-32.100000000000001
10
407.05000000000007
20
-44.337499999999999
42
-0.41421356237304563
10
406.05000000000007
20
-45.337499999999991
10
394.05000000000001
20
-45.337500000000034
42
-0.41421356237310025
10
393.05000000000001
20
-44.337499999999999
0
LWPOLYLINE
5
187
100
AcDbEntity
8
0
100
AcDbPolyline
90
8
70
1
43
0.0
10
50.150000000000006
20
-51.150000000000006
42
-0.41421356237309503
10
51.150000000000006
20
-50.150000000000006
10
63.150000000000006
20
-50.150000000000006
42
-0.41421356237309503
10
64.150000000000006
20
-51.150000000000006
10
64.150000000000006
20
-63.38750000000001
42
-0.41421356237309503
10
63.150000000000006
20
-64.387500000000003
10
51.150000000000006
20
-64.387500000000003
42
-0.41421356237309503
10
50.150000000000006
20
-63.38750000000001
0
LWPOLYLINE
5
188
100
AcDbEntity
8
0
100
AcDbPolyline
90
8
70
1
43
0.0
10
126.35000000000002
20
-51.150000000000006
42
-0.41421356237309764
10
127.34999999999999
20
-50.150000000000006
10
139.34999999999999
20
-50.150000000000006
42
-0.41421356237309503
10
140.34999999999999
20
-51.150000000000006
10
140.34999999999999
20
-63.38750000000001
42
-0.41421356237309503
10
139.34999999999999
20
-64.387500000000003
10
127.34999999999999
20
-64.387500000000017
42
-0.41421356237309764
10
126.34999999999999
20
-63.38750000000001
0
LWPOLYLINE
5
189
100
AcDbEntity
8
0
100
AcDbPolyline
90
20
70
1
43
0.0
10
0
20
-123.825
10
0
20
-5
10
428.62500000000006
20
-5
10
428.62500000000006
20
-123.825
10
387.67289190167838
20
-123.825
10
387.61132321225296
20
-107.35292557510384
42
0.41338020564622019
10
386.61043854932581
20
-106.35666370824424
10
379.87524561777252
20
-106.36266913386079
42
0.20736777219120425
10
379.14583050170813
20
-106.67954939834574
10
378.80199207968366
20
-107.04713894160798
42
-0.26402482355645251
10
377.85954326404146
20
-107.34125844344199
42
0.053492530337840218
10
377.47500000000008
20
-107.30000000000001
10
365.47500000000014
20
-107.30000000000001
42
0.05349253033788378
10
365.09045673595881
20
-107.34125844344199
42
-0.26402482355646767
10
364.1480079203165
20
-107.04713894160801
10
363.80416949829214
20
-106.67954939834574
42
0.20736777219121103
10
363.07475438222775
20
-106.36266913386079
10
356.33956145067441
20
-106.35666370824424
42
0.41338020564622019
10
355.33867678774726
20
-107.35292557510384
10
355.27710809832183
20
-123.825
0
ENDSEC
0
SECTION
2
OBJECTS
0
DICTIONARY
5
C
100
AcDbDictionary
3
ACAD_GROUP
350
D
3
ACAD_MLINESTYLE
350
17
0
DICTIONARY
5
D
100
AcDbDictionary
0
DICTIONARY
5
1A
330
C
100
AcDbDictionary
0
DICTIONARY
5
17
100
AcDbDictionary
0
ENDSEC
0
EOF
