0
SECTION
2
HEADER
9
$INSUNITS
70
4
9
$ACADVER
1
AC1014
9
$HANDSEED
5
FFFF
0
ENDSEC
0
SECTION
2
TABLES
0
TABLE
2
VPORT
5
8
100
AcDbSymbolTable
0
ENDTAB
0
TABLE
2
LTYPE
5
5
100
AcDbSymbolTable
0
LTYPE
5
14
100
AcDbSymbolTableRecord
100
AcDbLinetypeTableRecord
2
BYBLOCK
70
0
0
LTYPE
5
15
100
AcDbSymbolTableRecord
100
AcDbLinetypeTableRecord
2
BYLAYER
70
0
0
ENDTAB
0
TABLE
2
LAYER
5
2
100
AcDbSymbolTable
70
2
0
LAYER
5
50
100
AcDbSymbolTableRecord
100
AcDbLayerTableRecord
2
0
70
0
6
CONTINUOUS
0
ENDTAB
0
TABLE
2
STYLE
5
3
100
AcDbSymbolTable
70
1
0
STYLE
5
11
100
AcDbSymbolTableRecord
100
AcDbTextStyleTableRecord
2
STANDARD
70
0
0
ENDTAB
0
TABLE
2
VIEW
5
6
100
AcDbSymbolTable
70
0
0
ENDTAB
0
TABLE
2
UCS
5
7
100
AcDbSymbolTable
70
0
0
ENDTAB
0
TABLE
2
APPID
5
9
100
AcDbSymbolTable
70
2
0
APPID
5
12
100
AcDbSymbolTableRecord
100
AcDbRegAppTableRecord
2
ACAD
70
0
0
ENDTAB
0
TABLE
2
DIMSTYLE
5
A
100
AcDbSymbolTable
70
1
0
ENDTAB
0
TABLE
2
BLOCK_RECORD
5
1
100
AcDbSymbolTable
70
1
0
BLOCK_RECORD
5
1F
100
AcDbSymbolTableRecord
100
AcDbBlockTableRecord
2
*MODEL_SPACE
0
BLOCK_RECORD
5
1B
100
AcDbSymbolTableRecord
100
AcDbBlockTableRecord
2
*PAPER_SPACE
0
ENDTAB
0
ENDSEC
0
SECTION
2
BLOCKS
0
BLOCK
5
20
100
AcDbEntity
100
AcDbBlockBegin
2
*MODEL_SPACE
0
ENDBLK
5
21
100
AcDbEntity
100
AcDbBlockEnd
0
BLOCK
5
1C
100
AcDbEntity
100
AcDbBlockBegin
2
*PAPER_SPACE
0
ENDBLK
5
1D
100
AcDbEntity
100
AcDbBlockEnd
0
ENDSEC
0
SECTION
2
ENTITIES
0
CIRCLE
5
100
100
AcDbEntity
8
0
100
AcDbCircle
10
204.31250000000003
20
-25.000000000000007
30
0
40
1.9999999999999929
210
0
220
0
230
1
0
CIRCLE
5
101
100
AcDbEntity
8
0
100
AcDbCircle
10
366.625
20
-25.000000000000007
30
0
40
2.0000000000000284
210
0
220
0
230
1
0
CIRCLE
5
102
100
AcDbEntity
8
0
100
AcDbCircle
10
42.000000000000028
20
-25.000000000000007
30
0
40
2.0000000000000018
210
0
220
0
230
1
0
LWPOLYLINE
5
103
100
AcDbEntity
8
0
100
AcDbPolyline
90
6
70
1
43
0.0
10
9.9874999925494734
20
-130.07291379960719
10
8.5624999925494905
20
-130.07291379960719
10
7.849999992549499
20
-131.30699999999999
10
8.5624999925494905
20
-132.54108620039281
10
9.9874999925494734
20
-132.54108620039281
10
10.699999992549465
20
-131.30699999999999
0
LWPOLYLINE
5
104
100
AcDbEntity
8
0
100
AcDbPolyline
90
6
70
1
43
0.0
10
220.1624999925495
20
6.2340862003928077
10
218.73749999254952
20
6.2340862003928077
10
218.02499999254951
20
4.9999999999999982
10
218.73749999254952
20
3.7659137996071879
10
220.1624999925495
20
3.7659137996071879
10
220.87499999254948
20
4.9999999999999982
0
LWPOLYLINE
5
105
100
AcDbEntity
8
0
100
AcDbPolyline
90
6
70
1
43
0.0
10
435.4125000074506
20
-60.678413799607192
10
434.70000000745063
20
-61.912500000000001
10
435.4125000074506
20
-63.146586200392811
10
436.83750000745056
20
-63.146586200392811
10
437.55000000745054
20
-61.912500000000001
10
436.83750000745056
20
-60.678413799607192
0
LWPOLYLINE
5
106
100
AcDbEntity
8
0
100
AcDbPolyline
90
6
70
1
43
0.0
10
430.33749999254951
20
-130.07291379960719
10
428.91249999254956
20
-130.07291379960716
10
428.19999999254952
20
-131.30699999999999
10
428.91249999254956
20
-132.54108620039281
10
430.33749999254951
20
-132.54108620039281
10
431.04999999254949
20
-131.30699999999999
0
LWPOLYLINE
5
107
100
AcDbEntity
8
0
100
AcDbPolyline
90
6
70
1
43
0.0
10
115.07499999254946
20
6.2340862003928077
10
113.64999999254948
20
6.2340862003928077
10
112.93749999254949
20
4.9999999999999982
10
113.64999999254948
20
3.7659137996071879
10
115.07499999254946
20
3.7659137996071879
10
115.78749999254946
20
4.9999999999999982
0
LWPOLYLINE
5
108
100
AcDbEntity
8
0
100
AcDbPolyline
90
6
70
1
43
0.0
10
115.07499999254946
20
-130.07291379960719
10
113.64999999254948
20
-130.07291379960719
10
112.93749999254949
20
-131.30699999999999
10
113.64999999254948
20
-132.54108620039281
10
115.07499999254946
20
-132.54108620039281
10
115.78749999254946
20
-131.30699999999999
0
LWPOLYLINE
5
109
100
AcDbEntity
8
0
100
AcDbPolyline
90
6
70
1
43
0.0
10
-8.2125000074505792
20
-60.678413799607178
10
-8.9250000074505778
20
-61.912500000000001
10
-8.2125000074505792
20
-63.146586200392825
10
-6.7875000074505776
20
-63.146586200392825
10
-6.0750000074505772
20
-61.912500000000001
10
-6.7875000074505776
20
-60.678413799607178
0
LWPOLYLINE
5
110
100
AcDbEntity
8
0
100
AcDbPolyline
90
6
70
1
43
0.0
10
325.24999999254953
20
6.2340862003928077
10
323.82499999254952
20
6.2340862003928077
10
323.11249999254954
20
4.9999999999999982
10
323.82499999254952
20
3.7659137996071879
10
325.24999999254953
20
3.7659137996071879
10
325.96249999254951
20
4.9999999999999982
0
LWPOLYLINE
5
111
100
AcDbEntity
8
0
100
AcDbPolyline
90
6
70
1
43
0.0
10
428.91249999254956
20
6.2340862003928077
10
428.19999999254952
20
4.9999999999999982
10
428.91249999254956
20
3.7659137996071879
10
430.33749999254951
20
3.7659137996071879
10
431.04999999254949
20
4.9999999999999982
10
430.33749999254951
20
6.2340862003928077
0
LWPOLYLINE
5
112
100
AcDbEntity
8
0
100
AcDbPolyline
90
6
70
1
43
0.0
10
325.24999999254953
20
-130.07291379960719
10
323.82499999254952
20
-130.07291379960716
10
323.11249999254954
20
-131.30699999999999
10
323.82499999254952
20
-132.54108620039281
10
325.24999999254953
20
-132.54108620039281
10
325.96249999254951
20
-131.30699999999999
0
LWPOLYLINE
5
113
100
AcDbEntity
8
0
100
AcDbPolyline
90
6
70
1
43
0.0
10
9.9874999925494734
20
6.2340862003928077
10
8.5624999925494905
20
6.2340862003928077
10
7.849999992549499
20
4.9999999999999982
10
8.5624999925494905
20
3.7659137996071879
10
9.9874999925494734
20
3.7659137996071879
10
10.699999992549465
20
4.9999999999999982
0
LWPOLYLINE
5
114
100
AcDbEntity
8
0
100
AcDbPolyline
90
6
70
1
43
0.0
10
220.1624999925495
20
-130.07291379960719
10
218.73749999254952
20
-130.07291379960716
10
218.02499999254951
20
-131.30699999999999
10
218.73749999254952
20
-132.54108620039281
10
220.1624999925495
20
-132.54108620039281
10
220.87499999254948
20
-131.30699999999999
0
LWPOLYLINE
5
115
100
AcDbEntity
8
0
100
AcDbPolyline
90
12
70
1
43
0.0
10
300.32608339411331
20
17.999999999999979
10
428.62500000000006
20
18.000000000000011
42
-0.41421356237309453
10
446.62499999999994
20
0
10
446.625
20
-123.825
42
-0.41421356237309276
10
428.62500000000006
20
-141.82499999999999
10
5.5430742177332046e-15
20
-141.82500000000002
42
-0.4142135623730957
10
-18.000000000000004
20
-123.825
10
-18
20
-3.322628168482931e-15
42
-0.41421356237309503
10
0
20
18
10
276.32608339411331
20
17.999999999999979
10
276.32608339411331
20
-4.3962338566713015
10
300.32608339411331
20
-4.3962338566713015
0
ENDSEC
0
SECTION
2
OBJECTS
0
DICTIONARY
5
C
100
AcDbDictionary
3
ACAD_GROUP
350
D
3
ACAD_MLINESTYLE
350
17
0
DICTIONARY
5
D
100
AcDbDictionary
0
DICTIONARY
5
1A
330
C
100
AcDbDictionary
0
DICTIONARY
5
17
100
AcDbDictionary
0
ENDSEC
0
EOF
