0
SECTION
2
HEADER
9
$INSUNITS
70
4
9
$ACADVER
1
AC1014
9
$HANDSEED
5
FFFF
0
ENDSEC
0
SECTION
2
TABLES
0
TABLE
2
VPORT
5
8
100
AcDbSymbolTable
0
ENDTAB
0
TABLE
2
LTYPE
5
5
100
AcDbSymbolTable
0
LTYPE
5
14
100
AcDbSymbolTableRecord
100
AcDbLinetypeTableRecord
2
BYBLOCK
70
0
0
LTYPE
5
15
100
AcDbSymbolTableRecord
100
AcDbLinetypeTableRecord
2
BYLAYER
70
0
0
ENDTAB
0
TABLE
2
LAYER
5
2
100
AcDbSymbolTable
70
2
0
LAYER
5
50
100
AcDbSymbolTableRecord
100
AcDbLayerTableRecord
2
0
70
0
6
CONTINUOUS
0
ENDTAB
0
TABLE
2
STYLE
5
3
100
AcDbSymbolTable
70
1
0
STYLE
5
11
100
AcDbSymbolTableRecord
100
AcDbTextStyleTableRecord
2
STANDARD
70
0
0
ENDTAB
0
TABLE
2
VIEW
5
6
100
AcDbSymbolTable
70
0
0
ENDTAB
0
TABLE
2
UCS
5
7
100
AcDbSymbolTable
70
0
0
ENDTAB
0
TABLE
2
APPID
5
9
100
AcDbSymbolTable
70
2
0
APPID
5
12
100
AcDbSymbolTableRecord
100
AcDbRegAppTableRecord
2
ACAD
70
0
0
ENDTAB
0
TABLE
2
DIMSTYLE
5
A
100
AcDbSymbolTable
70
1
0
ENDTAB
0
TABLE
2
BLOCK_RECORD
5
1
100
AcDbSymbolTable
70
1
0
BLOCK_RECORD
5
1F
100
AcDbSymbolTableRecord
100
AcDbBlockTableRecord
2
*MODEL_SPACE
0
BLOCK_RECORD
5
1B
100
AcDbSymbolTableRecord
100
AcDbBlockTableRecord
2
*PAPER_SPACE
0
ENDTAB
0
ENDSEC
0
SECTION
2
BLOCKS
0
BLOCK
5
20
100
AcDbEntity
100
AcDbBlockBegin
2
*MODEL_SPACE
0
ENDBLK
5
21
100
AcDbEntity
100
AcDbBlockEnd
0
BLOCK
5
1C
100
AcDbEntity
100
AcDbBlockBegin
2
*PAPER_SPACE
0
ENDBLK
5
1D
100
AcDbEntity
100
AcDbBlockEnd
0
ENDSEC
0
SECTION
2
ENTITIES
0
CIRCLE
5
100
100
AcDbEntity
8
0
100
AcDbCircle
10
219.44999999254946
20
-131.30699999999999
30
0
40
1.6250000000000142
210
0
220
-0
230
1
0
CIRCLE
5
101
100
AcDbEntity
8
0
100
AcDbCircle
10
9.2749999925494482
20
4.9999999999999982
30
0
40
1.6250000000000009
210
0
220
-0
230
1
0
CIRCLE
5
102
100
AcDbEntity
8
0
100
AcDbCircle
10
429.62499999254953
20
4.9999999999999982
30
0
40
1.6250000000000142
210
0
220
-0
230
1
0
CIRCLE
5
103
100
AcDbEntity
8
0
100
AcDbCircle
10
324.53749999254956
20
4.9999999999999982
30
0
40
1.6250000000000142
210
0
220
-0
230
1
0
CIRCLE
5
104
100
AcDbEntity
8
0
100
AcDbCircle
10
-7.5000000074505779
20
-61.912500000000001
30
0
40
1.625000000000002
210
0
220
-0
230
1
0
CIRCLE
5
105
100
AcDbEntity
8
0
100
AcDbCircle
10
324.53749999254956
20
-131.30699999999999
30
0
40
1.6250000000000142
210
0
220
-0
230
1
0
CIRCLE
5
106
100
AcDbEntity
8
0
100
AcDbCircle
10
114.36249999254946
20
-131.30699999999999
30
0
40
1.6249999999999964
210
0
220
-0
230
1
0
CIRCLE
5
107
100
AcDbEntity
8
0
100
AcDbCircle
10
114.36249999254946
20
4.9999999999999982
30
0
40
1.6249999999999964
210
0
220
-0
230
1
0
CIRCLE
5
108
100
AcDbEntity
8
0
100
AcDbCircle
10
436.12500000745058
20
-61.912500000000001
30
0
40
1.6250000000000142
210
0
220
-0
230
1
0
CIRCLE
5
109
100
AcDbEntity
8
0
100
AcDbCircle
10
219.44999999254946
20
4.9999999999999982
30
0
40
1.6250000000000142
210
0
220
-0
230
1
0
CIRCLE
5
110
100
AcDbEntity
8
0
100
AcDbCircle
10
9.2749999925494482
20
-131.30699999999999
30
0
40
1.6250000000000009
210
0
220
-0
230
1
0
CIRCLE
5
111
100
AcDbEntity
8
0
100
AcDbCircle
10
429.62499999254953
20
-131.30699999999999
30
0
40
1.6250000000000142
210
0
220
-0
230
1
0
LWPOLYLINE
5
112
100
AcDbEntity
8
0
100
AcDbPolyline
90
25
70
1
43
0.0
10
428.62500000000006
20
18.000000000000011
42
-0.41421356237309453
10
446.62499999999994
20
0
10
446.625
20
-123.825
42
-0.41421356237309276
10
428.62500000000006
20
-141.82499999999999
10
5.5430742177331336e-15
20
-141.82499999999999
42
-0.4142135623730957
10
-17.999999999999972
20
-123.825
10
-17.999999999999996
20
-3.3226281684829144e-15
42
-0.41421356237309537
10
0
20
18
10
276.32608339411331
20
17.999999999999979
10
276.32608339411331
20
-4.3962338566713015
10
-0.21766660588674824
20
-4.3962338566712944
10
-0.21766660588674824
20
-124.28373385667155
10
355.2753934604674
20
-124.28373385667155
10
355.27283646243848
20
-124.96783258006784
42
0.41483458089569231
10
356.27121155768941
20
-125.97156900685738
10
356.79343731203966
20
-125.97241392713761
42
0.035099298395235144
10
356.93331667771446
20
-125.98224537428491
10
380.07997176808095
20
-125.98224537428491
10
386.67878844231086
20
-125.97156900685738
42
0.41483458089569231
10
387.6771635375618
20
-124.96783258006784
10
387.67460653953287
20
-124.28373385667155
10
429.23233339411331
20
-124.28373385667155
10
429.23233339411331
20
-4.3962338566712926
10
300.32608339411331
20
-4.3962338566713015
10
300.32608339411331
20
17.999999999999979
0
ENDSEC
0
SECTION
2
OBJECTS
0
DICTIONARY
5
C
100
AcDbDictionary
3
ACAD_GROUP
350
D
3
ACAD_MLINESTYLE
350
17
0
DICTIONARY
5
D
100
AcDbDictionary
0
DICTIONARY
5
1A
330
C
100
AcDbDictionary
0
DICTIONARY
5
17
100
AcDbDictionary
0
ENDSEC
0
EOF
