0
SECTION
2
HEADER
9
$INSUNITS
70
4
9
$ACADVER
1
AC1014
9
$HANDSEED
5
FFFF
0
ENDSEC
0
SECTION
2
TABLES
0
TABLE
2
VPORT
5
8
100
AcDbSymbolTable
0
ENDTAB
0
TABLE
2
LTYPE
5
5
100
AcDbSymbolTable
0
LTYPE
5
14
100
AcDbSymbolTableRecord
100
AcDbLinetypeTableRecord
2
BYBLOCK
70
0
0
LTYPE
5
15
100
AcDbSymbolTableRecord
100
AcDbLinetypeTableRecord
2
BYLAYER
70
0
0
ENDTAB
0
TABLE
2
LAYER
5
2
100
AcDbSymbolTable
70
2
0
LAYER
5
50
100
AcDbSymbolTableRecord
100
AcDbLayerTableRecord
2
0
70
0
6
CONTINUOUS
0
ENDTAB
0
TABLE
2
STYLE
5
3
100
AcDbSymbolTable
70
1
0
STYLE
5
11
100
AcDbSymbolTableRecord
100
AcDbTextStyleTableRecord
2
STANDARD
70
0
0
ENDTAB
0
TABLE
2
VIEW
5
6
100
AcDbSymbolTable
70
0
0
ENDTAB
0
TABLE
2
UCS
5
7
100
AcDbSymbolTable
70
0
0
ENDTAB
0
TABLE
2
APPID
5
9
100
AcDbSymbolTable
70
2
0
APPID
5
12
100
AcDbSymbolTableRecord
100
AcDbRegAppTableRecord
2
ACAD
70
0
0
ENDTAB
0
TABLE
2
DIMSTYLE
5
A
100
AcDbSymbolTable
70
1
0
ENDTAB
0
TABLE
2
BLOCK_RECORD
5
1
100
AcDbSymbolTable
70
1
0
BLOCK_RECORD
5
1F
100
AcDbSymbolTableRecord
100
AcDbBlockTableRecord
2
*MODEL_SPACE
0
BLOCK_RECORD
5
1B
100
AcDbSymbolTableRecord
100
AcDbBlockTableRecord
2
*PAPER_SPACE
0
ENDTAB
0
ENDSEC
0
SECTION
2
BLOCKS
0
BLOCK
5
20
100
AcDbEntity
100
AcDbBlockBegin
2
*MODEL_SPACE
0
ENDBLK
5
21
100
AcDbEntity
100
AcDbBlockEnd
0
BLOCK
5
1C
100
AcDbEntity
100
AcDbBlockBegin
2
*PAPER_SPACE
0
ENDBLK
5
1D
100
AcDbEntity
100
AcDbBlockEnd
0
ENDSEC
0
SECTION
2
ENTITIES
0
LWPOLYLINE
5
100
100
AcDbEntity
8
0
100
AcDbPolyline
90
88
70
1
43
0.0
10
426.04707442489621
20
-120.91132321225288
10
427.59605843775921
20
-120.90994206276464
42
0.41395242870915389
10
428.59516678947386
20
-119.90994246028309
10
428.59516678947386
20
-112.69490335174309
42
0.41421356237313145
10
427.59516678947386
20
-111.69490335174308
10
426.58965587438797
20
-111.69490335174308
42
-0.41421356237307422
10
426.08965587438809
20
-111.19490335174306
10
426.08965587438803
20
-110.96837514128939
42
0.02672715921398762
10
426.10000000000008
20
-110.77500000000001
10
426.10000000000008
20
-98.775000000000006
42
0.02672715921401626
10
426.08965587438809
20
-98.581624858710612
10
426.08965587438809
20
-98.355096648256946
42
-0.41421356237311585
10
426.58965587438809
20
-97.855096648256946
10
427.59516678947386
20
-97.855096648256946
42
0.41421356237307422
10
428.59516678947386
20
-96.855096648256932
10
428.59516678947386
20
-89.640057539716921
42
0.41395242870914872
10
427.59605843775921
20
-88.640057937235355
10
426.04707442489621
20
-88.63867678774713
10
417.23962092241425
20
-88.605756625092738
10
417.23962092241413
20
-88.550000000000011
42
0.41421356237309503
10
416.93962092241418
20
-88.250000000000043
10
414.10000000000002
20
-88.249999999999957
42
-0.41421356237307422
10
413.10000000000002
20
-87.250000000000014
10
413.09999999999997
20
-84.200000000000017
42
-0.41421356237307422
10
414.10000000000002
20
-83.200000000000003
10
417.2396209224143
20
-83.200000000000003
10
417.2396209224143
20
-82.844243374907265
10
426.04707442489627
20
-82.811323212252873
10
427.59605843775932
20
-82.809942062764634
42
0.41395242870911753
10
428.59516678947392
20
-81.809942460283082
10
428.59516678947392
20
-74.594903351743085
42
0.41421356237310025
10
427.59516678947392
20
-73.594903351743071
10
426.58965587438814
20
-73.594903351743071
42
-0.41421356237311585
10
426.0896558743882
20
-73.094903351743056
10
426.08965587438809
20
-72.868375141289391
42
0.026727159213977468
10
426.10000000000008
20
-72.674999999999997
10
426.10000000000014
20
-60.675000000000011
42
0.026727159214026675
10
426.0896558743882
20
-60.481624858710603
10
426.0896558743882
20
-60.255096648256945
42
-0.41421356237311585
10
426.58965587438814
20
-59.755096648256938
10
427.59516678947392
20
-59.755096648256938
42
0.41421356237310025
10
428.59516678947392
20
-58.755096648256924
10
428.59516678947392
20
-51.540057539716919
42
0.41395242870911492
10
427.59605843775932
20
-50.540057937235346
10
426.04707442489627
20
-50.538676787747121
10
417.2396209224143
20
-50.505756625092729
10
417.2396209224143
20
-50.150000000000006
10
414.10000000000002
20
-50.149999999999963
42
-0.41421356237307683
10
413.10000000000002
20
-49.150000000000006
10
413.10000000000002
20
-46.100000000000001
42
-0.41421356237308204
10
414.10000000000002
20
-45.099999999999994
10
425.10000000000002
20
-45.099999999999994
42
0.41421356237304563
10
426.10000000000008
20
-44.100000000000001
10
426.10000000000008
20
-32.100000000000001
42
0.41421356237312235
10
425.10000000000002
20
-31.099999999999991
10
413.10000000000002
20
-31.100000000000001
42
0.26794919243108412
10
412.2339745962156
20
-31.599999999999994
42
-0.26794919243109444
10
411.36794919243118
20
-32.100000000000009
10
407.78205080756891
20
-32.099999999999959
42
-0.26794919243119197
10
406.91602540378449
20
-31.59999999999998
42
0.26794919243108101
10
406.05000000000007
20
-31.100000000000001
10
394.05000000000001
20
-31.100000000000001
42
0.26794919243108412
10
393.18397459621559
20
-31.599999999999994
42
-0.26794919243109444
10
392.31794919243112
20
-32.100000000000009
10
388.7320508075689
20
-32.099999999999959
42
-0.26794919243119197
10
387.86602540378448
20
-31.59999999999998
42
0.26794919243108101
10
387
20
-31.099999999999991
10
375
20
-31.100000000000001
42
0.41421356237304818
10
374
20
-32.100000000000009
10
374
20
-101.25
42
0.41421356237312623
10
375
20
-102.25000000000001
10
387
20
-102.25
42
0.26794919243107801
10
387.86602540378448
20
-101.74999999999999
42
-0.26794919243118892
10
388.7320508075689
20
-101.25
10
392.31794919243112
20
-101.25000000000001
42
-0.26794919243119308
10
393.18397459621559
20
-101.75
42
0.26794919243119308
10
394.05000000000001
20
-102.25
10
405.05000000000007
20
-102.25000000000003
42
-0.4142135623730222
10
406.05000000000007
20
-103.25000000000001
10
406.05000000000013
20
-106.29999999999998
42
-0.41421356237307422
10
405.05000000000001
20
-107.30000000000001
10
394.05000000000001
20
-107.30000000000001
42
0.4142135623730222
10
393.05000000000001
20
-108.3
10
393.05000000000001
20
-120.30000000000001
42
0.41421356237312623
10
394.05000000000001
20
-121.30000000000003
10
416.93962092241418
20
-121.30000000000001
42
0.4142135623730257
10
417.23962092241425
20
-121.00000000000001
10
417.23962092241425
20
-120.94424337490729
0
LWPOLYLINE
5
101
100
AcDbEntity
8
0
100
AcDbPolyline
90
36
70
1
43
0.0
10
15.237874858710597
20
-88.260344125611994
10
15.011346648256939
20
-88.260344125611979
42
-0.41421356237312623
10
14.511346648256932
20
-87.760344125611994
10
14.511346648256932
20
-86.754833210526229
42
0.41421356237309503
10
13.511346648256918
20
-85.754833210526243
10
6.2963075397169144
20
-85.754833210526215
42
0.41395242870914906
10
5.2963079372353512
20
-86.75394156224084
10
5.2949267877471229
20
-88.302925575103828
10
5.2318322919788134
20
-105.18321391315972
42
-0.20971901931089529
10
4.9062499999999964
20
-105.91783258006782
10
4.9062500000000009
20
-120.30000000000001
42
0.41421356237309437
10
5.9062499999999929
20
-121.30000000000001
10
17.906250000000004
20
-121.30000000000001
42
0.41421356237309698
10
18.90625
20
-120.30000000000001
10
18.90625
20
-109.3
42
-0.41421356237309698
10
19.906250000000004
20
-108.3
10
27.718750000000007
20
-108.3
42
-0.41421356237309631
10
28.71875
20
-109.3
10
28.71875
20
-120.30000000000001
42
0.41421356237309764
10
29.718750000000007
20
-121.30000000000001
10
41.71875
20
-121.30000000000001
42
0.41421356237309764
10
42.71875
20
-120.30000000000001
10
42.71875
20
-108.3
42
0.41421356237309503
10
41.71875
20
-107.30000000000001
10
38.63484897372593
20
-107.29999999999998
42
-0.41311922565778486
10
37.634855959084128
20
-106.30373773562199
10
37.567573212252867
20
-88.302925575103828
10
37.566192062764635
20
-86.75394156224084
42
0.41395242870914872
10
36.566192460283084
20
-85.754833210526215
10
29.351153351743079
20
-85.754833210526229
42
0.41421356237308854
10
28.351153351743065
20
-86.754833210526229
10
28.351153351743065
20
-87.760344125611994
42
-0.41421356237312623
10
27.851153351743058
20
-88.260344125611979
10
27.624625141289396
20
-88.260344125612008
42
0.026727159213977208
10
27.431249999999991
20
-88.25
10
15.431250000000006
20
-88.25
42
0.026727159214020167
0
LWPOLYLINE
5
102
100
AcDbEntity
8
0
100
AcDbPolyline
90
38
70
1
43
0.0
10
282.83632321225286
20
-31.152925575103822
10
282.83494206276464
20
-29.603941562240852
42
0.41395242870914872
10
281.83494246028312
20
-28.604833210526248
10
274.61990335174312
20
-28.604833210526248
42
0.41421356237307161
10
273.61990335174306
20
-29.604833210526245
10
273.61990335174306
20
-30.610344125612006
42
-0.41421356237312623
10
273.11990335174306
20
-31.110344125611995
10
272.89337514128943
20
-31.110344125612027
42
0.026727159214068073
10
272.69999999999999
20
-31.100000000000001
10
260.70000000000005
20
-31.100000000000001
42
0.026727159214085257
10
260.50662485871061
20
-31.110344125612002
10
260.28009664825697
20
-31.110344125611995
42
-0.41421356237313145
10
259.78009664825697
20
-30.610344125611995
10
259.78009664825697
20
-29.604833210526245
42
0.41421356237306772
10
258.78009664825692
20
-28.604833210526259
10
251.56505753971692
20
-28.60483321052623
42
0.41395242870914611
10
250.56505793723539
20
-29.603941562240841
10
250.5636767877472
20
-31.152925575103836
10
250.4963940409159
20
-49.153737735622002
42
-0.41311922565777315
10
249.49640102627413
20
-50.150000000000006
10
241.65000000000003
20
-50.150000000000006
42
0.41421356237310025
10
240.65000000000003
20
-51.150000000000006
10
240.65000000000001
20
-63.150000000000006
42
0.41421356237307422
10
241.65000000000003
20
-64.15000000000002
10
253.65000000000003
20
-64.150000000000006
42
0.41421356237310802
10
254.65000000000003
20
-63.150000000000006
10
254.65000000000003
20
-52.149999999999999
42
-0.41421356237310542
10
255.65000000000003
20
-51.150000000000006
10
263.46249999999998
20
-51.15000000000002
42
-0.41421356237310542
10
264.46249999999998
20
-52.149999999999999
10
264.46249999999998
20
-63.150000000000006
42
0.41421356237309503
10
265.46249999999998
20
-64.15000000000002
10
277.46249999999998
20
-64.150000000000006
42
0.4142135623730846
10
278.46250000000003
20
-63.150000000000006
10
278.46250000000003
20
-50.775520128770623
42
-0.41373976390306921
10
279.46088208060917
20
-49.775521437603047
10
281.90378844231071
20
-49.771569006857334
42
0.41483458089567399
10
282.90216353756171
20
-48.76783258006779
0
LWPOLYLINE
5
103
100
AcDbEntity
8
0
100
AcDbPolyline
90
42
70
1
43
0.0
10
258.12537485871064
20
-69.210344125612011
10
257.89884664825701
20
-69.210344125611996
42
-0.41421356237313145
10
257.39884664825701
20
-68.710344125611996
10
257.39884664825701
20
-67.704833210526246
42
0.41421356237307161
10
256.39884664825695
20
-66.70483321052626
10
249.18380753971695
20
-66.704833210526232
42
0.41395242870913573
10
248.18380793723543
20
-67.703941562240843
10
248.18242678774715
20
-69.252925575103859
10
248.11866101735723
20
-86.312806586472774
42
-0.41338020564623057
10
247.11777635443002
20
-87.309068453332372
10
244.42081145067434
20
-87.30666370824423
42
0.41338020564620465
10
243.41992678774713
20
-88.302925575103828
10
243.38700662509271
20
-97.110379077585819
10
243.03125
20
-97.110379077585819
10
243.03125
20
-120.30000000000001
42
0.41421356237310025
10
244.03125000000003
20
-121.30000000000001
10
256.03125
20
-121.30000000000001
42
0.41421356237310542
10
257.03125
20
-120.30000000000001
10
257.03125000000006
20
-108.3
10
266.84375
20
-108.3
10
266.84375
20
-120.30000000000001
42
0.41421356237307944
10
267.84375
20
-121.30000000000003
10
279.84375
20
-121.30000000000001
42
0.41421356237310542
10
280.84375
20
-120.30000000000001
10
280.84375
20
-108.3
42
0.41421356237309503
10
279.84375
20
-107.30000000000001
10
276.75984897372592
20
-107.30000000000003
42
-0.41311922565777842
10
275.75985595908412
20
-106.30373773562198
10
275.69472974251534
20
-88.879883235132468
42
-0.4148345808956766
10
276.69310483776633
20
-87.876146808342924
10
279.52253844231075
20
-87.871569006857413
42
0.41483458089566622
10
280.52091353756174
20
-86.867832580067841
10
280.4550732122529
20
-69.252925575103859
10
280.45369206276467
20
-67.703941562240857
42
0.41395242870914872
10
279.45369246028315
20
-66.704833210526246
10
272.23865335174315
20
-66.70483321052626
42
0.41421356237307161
10
271.2386533517431
20
-67.704833210526246
10
271.2386533517431
20
-68.710344125612011
42
-0.41421356237312623
10
270.7386533517431
20
-69.210344125611996
10
270.51212514128946
20
-69.210344125612039
42
0.026727159214068336
10
270.31875000000002
20
-69.200000000000017
10
258.31875000000002
20
-69.200000000000017
42
0.026727159214018862
0
LWPOLYLINE
5
104
100
AcDbEntity
8
0
100
AcDbPolyline
90
25
70
1
43
0.0
10
365.28162485871064
20
-107.310344125612
10
365.05509664825695
20
-107.31034412561199
42
-0.41421356237310542
10
364.55509664825695
20
-106.810344125612
10
364.55509664825695
20
-105.80483321052624
42
0.41421356237307422
10
363.55509664825695
20
-104.80483321052624
10
356.3400575397169
20
-104.80483321052623
42
0.41395242870916432
10
355.34005793723537
20
-105.80394156224085
10
355.33867678774726
20
-107.35292557510384
10
355.27283646243848
20
-124.96783258006784
42
0.41483458089568187
10
356.27121155768941
20
-125.97156900685735
10
356.79343731203966
20
-125.97241392713761
42
0.035099298395177531
10
356.93331667771446
20
-125.98224537428491
10
380.07997176808095
20
-125.98224537428491
10
386.67878844231086
20
-125.97156900685739
42
0.41483458089570263
10
387.6771635375618
20
-124.96783258006784
10
387.61132321225296
20
-107.35292557510384
10
387.60994206276462
20
-105.80394156224085
42
0.41395242870919025
10
386.60994246028309
20
-104.80483321052628
10
379.3949033517431
20
-104.80483321052624
42
0.41421356237312101
10
378.3949033517431
20
-105.80483321052624
10
378.3949033517431
20
-106.810344125612
42
-0.41421356237314705
10
377.8949033517431
20
-107.31034412561199
10
377.66837514128946
20
-107.310344125612
42
0.026727159214019382
10
377.47500000000008
20
-107.30000000000001
10
365.47500000000014
20
-107.30000000000001
42
0.026727159213999596
0
LWPOLYLINE
5
105
100
AcDbEntity
8
0
100
AcDbPolyline
90
8
70
1
43
0.0
10
-18
20
-9.0426023048520032e-16
42
-0.4142135623730952
10
0
20
18
10
428.62500000000006
20
17.999999999999964
42
-0.41421356237309381
10
446.62499999999994
20
0
10
446.625
20
-123.825
42
-0.41421356237309243
10
428.62500000000011
20
-141.82500000000002
10
2.87853895863287e-15
20
-141.82500000000002
42
-0.41421356237309542
10
-18.000000000000007
20
-123.825
0
LWPOLYLINE
5
106
100
AcDbEntity
8
0
100
AcDbPolyline
90
8
70
1
43
0.0
10
325.08749999999998
20
-31.100000000000001
42
-0.41421356237313273
10
326.08749999999998
20
-32.100000000000001
10
326.08750000000009
20
-44.100000000000001
42
-0.41421356237307683
10
325.08749999999998
20
-45.099999999999994
10
313.08749999999998
20
-45.100000000000009
42
-0.41421356237307161
10
312.08749999999998
20
-44.100000000000001
10
312.08750000000003
20
-32.100000000000001
42
-0.41421356237307555
10
313.08749999999998
20
-31.100000000000001
0
LWPOLYLINE
5
107
100
AcDbEntity
8
0
100
AcDbPolyline
90
8
70
1
43
0.0
10
367.95000000000005
20
-7.5249999999999639
42
-0.41421356237310153
10
368.95000000000005
20
-8.5250000000000004
10
368.95000000000005
20
-20.525000000000002
42
-0.41421356237304691
10
367.95000000000005
20
-21.525000000000002
10
355.94999999999999
20
-21.52499999999997
42
-0.41421356237312362
10
354.94999999999999
20
-20.525000000000002
10
354.94999999999999
20
-8.5250000000000004
42
-0.41421356237304624
10
355.94999999999999
20
-7.5250000000000004
0
LWPOLYLINE
5
108
100
AcDbEntity
8
0
100
AcDbPolyline
90
8
70
1
43
0.0
10
331.13749999999987
20
-32.100000000000001
42
-0.4142135623730781
10
332.13749999999999
20
-31.100000000000001
10
344.13749999999999
20
-31.100000000000001
42
-0.41421356237313273
10
345.13750000000005
20
-32.100000000000001
10
345.1375000000001
20
-44.100000000000001
42
-0.41421356237307683
10
344.13749999999999
20
-45.099999999999994
10
332.13749999999999
20
-45.099999999999994
42
-0.41421356237313145
10
331.13749999999993
20
-44.100000000000001
0
LWPOLYLINE
5
109
100
AcDbEntity
8
0
100
AcDbPolyline
90
8
70
1
43
0.0
10
331.13749999999987
20
-8.5250000000000004
42
-0.41421356237307749
10
332.13749999999999
20
-7.5250000000000004
10
344.13749999999999
20
-7.5249999999999995
42
-0.41421356237313273
10
345.13750000000005
20
-8.5250000000000004
10
345.1375000000001
20
-20.525000000000002
42
-0.4142135623730781
10
344.13749999999999
20
-21.525000000000002
10
332.13749999999999
20
-21.525000000000006
42
-0.41421356237313406
10
331.13749999999993
20
-20.525000000000002
0
LWPOLYLINE
5
110
100
AcDbEntity
8
0
100
AcDbPolyline
90
8
70
1
43
0.0
10
326.08749999999998
20
-20.525000000000002
10
326.08749999999998
20
-8.5250000000000004
42
0.41421356237313273
10
325.08749999999998
20
-7.5249999999999861
10
313.08749999999998
20
-7.5250000000000004
42
0.41421356237307422
10
312.08749999999998
20
-8.5250000000000004
10
312.08749999999998
20
-20.525000000000002
42
0.41421356237307555
10
313.08749999999998
20
-21.525000000000016
10
325.08749999999998
20
-21.525000000000002
42
0.4142135623730781
0
LWPOLYLINE
5
111
100
AcDbEntity
8
0
100
AcDbPolyline
90
8
70
1
43
0.0
10
2.5249999999999999
20
-8.5250000000000004
42
-0.41421356237309459
10
3.5250000000000004
20
-7.5250000000000004
10
15.525000000000002
20
-7.5249999999999995
42
-0.41421356237309503
10
16.525000000000002
20
-8.5250000000000004
10
16.525000000000002
20
-20.525000000000002
42
-0.41421356237309243
10
15.525000000000002
20
-21.525000000000002
10
3.5249999999999915
20
-21.525000000000002
42
-0.41421356237309198
10
2.5250000000000004
20
-20.525000000000002
0
LWPOLYLINE
5
112
100
AcDbEntity
8
0
100
AcDbPolyline
90
8
70
1
43
0.0
10
126.34999999999999
20
-8.5250000000000004
42
-0.41421356237309664
10
127.34999999999999
20
-7.5250000000000004
10
139.34999999999999
20
-7.5250000000000057
42
-0.41421356237309437
10
140.34999999999999
20
-8.5250000000000004
10
140.34999999999999
20
-20.525000000000002
42
-0.4142135623730937
10
139.34999999999999
20
-21.525000000000002
10
127.34999999999999
20
-21.525000000000006
42
-0.41421356237309764
10
126.34999999999999
20
-20.525000000000002
0
LWPOLYLINE
5
113
100
AcDbEntity
8
0
100
AcDbPolyline
90
8
70
1
43
0.0
10
54.625
20
-20.525000000000002
10
54.625
20
-8.5250000000000004
42
0.4142135623730957
10
53.625000000000007
20
-7.5250000000000039
10
41.625000000000007
20
-7.5250000000000004
42
0.41421356237309537
10
40.625000000000007
20
-8.5250000000000004
10
40.625000000000007
20
-20.525000000000002
42
0.41421356237309631
10
41.625000000000007
20
-21.524999999999999
10
53.625000000000007
20
-21.525000000000002
42
0.41421356237309503
0
LWPOLYLINE
5
114
100
AcDbEntity
8
0
100
AcDbPolyline
90
8
70
1
43
0.0
10
145.40000000000001
20
-8.5250000000000004
42
-0.41421356237309664
10
146.40000000000001
20
-7.5250000000000004
10
158.40000000000001
20
-7.5250000000000057
42
-0.41421356237309437
10
159.40000000000001
20
-8.5250000000000004
10
159.40000000000001
20
-20.525000000000002
42
-0.4142135623730937
10
158.40000000000001
20
-21.525000000000002
10
146.40000000000001
20
-21.525000000000006
42
-0.41421356237309764
10
145.40000000000001
20
-20.525000000000002
0
LWPOLYLINE
5
115
100
AcDbEntity
8
0
100
AcDbPolyline
90
8
70
1
43
0.0
10
97.77500000000002
20
-8.5250000000000004
42
-0.41421356237309664
10
98.775000000000006
20
-7.5250000000000004
10
110.77500000000001
20
-7.5249999999999968
42
-0.41421356237309698
10
111.77500000000001
20
-8.5250000000000004
10
111.77500000000001
20
-20.525000000000002
42
-0.41421356237309631
10
110.77500000000001
20
-21.525000000000002
10
98.775000000000006
20
-21.525000000000006
42
-0.41421356237309764
10
97.77500000000002
20
-20.525000000000002
0
LWPOLYLINE
5
116
100
AcDbEntity
8
0
100
AcDbPolyline
90
8
70
1
43
0.0
10
72.674999999999997
20
-7.5250000000000021
42
-0.4142135623730957
10
73.674999999999997
20
-8.5250000000000004
10
73.674999999999997
20
-20.525000000000002
42
-0.41421356237309503
10
72.674999999999997
20
-21.525000000000002
10
60.675000000000011
20
-21.525000000000002
42
-0.41421356237309631
10
59.675000000000004
20
-20.525000000000002
10
59.675000000000004
20
-8.5250000000000004
42
-0.41421356237309537
10
60.674999999999997
20
-7.5250000000000004
0
LWPOLYLINE
5
117
100
AcDbEntity
8
0
100
AcDbPolyline
90
8
70
1
43
0.0
10
78.725000000000009
20
-8.5250000000000004
10
78.725000000000009
20
-20.525000000000002
42
0.41421356237309631
10
79.724999999999994
20
-21.525000000000002
10
91.724999999999994
20
-21.525000000000002
42
0.41421356237309631
10
92.724999999999994
20
-20.525000000000002
10
92.724999999999994
20
-8.5250000000000004
42
0.41421356237309698
10
91.724999999999994
20
-7.5250000000000039
10
79.724999999999994
20
-7.5250000000000004
42
0.41421356237309537
0
LWPOLYLINE
5
118
100
AcDbEntity
8
0
100
AcDbPolyline
90
8
70
1
43
0.0
10
164.44999999999996
20
-8.5250000000000004
42
-0.41421356237307422
10
165.44999999999999
20
-7.5250000000000004
10
177.45000000000002
20
-7.5249999999999879
42
-0.41421356237307355
10
178.45000000000002
20
-8.5250000000000004
10
178.44999999999999
20
-20.525000000000002
42
-0.41421356237307555
10
177.45000000000002
20
-21.525000000000002
10
165.44999999999999
20
-21.52500000000002
42
-0.41421356237307555
10
164.44999999999996
20
-20.525000000000002
0
LWPOLYLINE
5
119
100
AcDbEntity
8
0
100
AcDbPolyline
90
8
70
1
43
0.0
10
412.10000000000002
20
-8.5250000000000004
42
-0.41421356237304624
10
413.10000000000002
20
-7.5250000000000004
10
425.10000000000002
20
-7.5249999999999639
42
-0.41421356237310153
10
426.10000000000008
20
-8.5250000000000004
10
426.10000000000008
20
-20.525000000000002
42
-0.41421356237304691
10
425.10000000000002
20
-21.525000000000002
10
413.10000000000002
20
-21.52499999999997
42
-0.41421356237312362
10
412.10000000000002
20
-20.525000000000002
0
LWPOLYLINE
5
120
100
AcDbEntity
8
0
100
AcDbPolyline
90
8
70
1
43
0.0
10
406.05000000000007
20
-7.5249999999999639
42
-0.41421356237310153
10
407.05000000000007
20
-8.5250000000000004
10
407.05000000000007
20
-20.525000000000002
42
-0.41421356237304691
10
406.05000000000007
20
-21.525000000000002
10
394.05000000000001
20
-21.52499999999997
42
-0.41421356237312362
10
393.05000000000001
20
-20.525000000000002
10
393.05000000000001
20
-8.5250000000000004
42
-0.41421356237304624
10
394.05000000000001
20
-7.5250000000000004
0
LWPOLYLINE
5
121
100
AcDbEntity
8
0
100
AcDbPolyline
90
8
70
1
43
0.0
10
374
20
-8.5250000000000004
42
-0.41421356237304624
10
375
20
-7.5250000000000004
10
387
20
-7.5249999999999639
42
-0.41421356237310153
10
388.00000000000006
20
-8.5250000000000004
10
388.00000000000006
20
-20.525000000000002
42
-0.41421356237304691
10
387
20
-21.525000000000002
10
375
20
-21.52499999999997
42
-0.41421356237312362
10
374
20
-20.525000000000002
0
LWPOLYLINE
5
122
100
AcDbEntity
8
0
100
AcDbPolyline
90
8
70
1
43
0.0
10
269.22500000000002
20
-8.5250000000000004
10
269.22500000000002
20
-20.525000000000002
42
0.41421356237307555
10
270.22500000000002
20
-21.525000000000002
10
282.22500000000002
20
-21.525000000000002
42
0.41421356237310675
10
283.22500000000002
20
-20.525000000000002
10
283.22500000000002
20
-8.5250000000000004
42
0.41421356237309437
10
282.22500000000002
20
-7.5250000000000039
10
270.22500000000002
20
-7.5250000000000004
42
0.41421356237307422
0
LWPOLYLINE
5
123
100
AcDbEntity
8
0
100
AcDbPolyline
90
8
70
1
43
0.0
10
307.03750000000008
20
-20.525000000000002
10
307.03750000000008
20
-8.5250000000000004
42
0.41421356237309437
10
306.03750000000002
20
-7.5249999999999861
10
294.03750000000002
20
-7.5250000000000004
42
0.41421356237310542
10
293.03750000000002
20
-8.5250000000000004
10
293.03750000000002
20
-20.525000000000002
42
0.41421356237309631
10
294.03750000000002
20
-21.525000000000002
10
306.03750000000002
20
-21.525000000000002
42
0.41421356237310675
0
LWPOLYLINE
5
124
100
AcDbEntity
8
0
100
AcDbPolyline
90
8
70
1
43
0.0
10
183.49999999999997
20
-8.5250000000000004
42
-0.41421356237307422
10
184.5
20
-7.5250000000000004
10
196.50000000000003
20
-7.5249999999999879
42
-0.41421356237307355
10
197.50000000000003
20
-8.5250000000000004
10
197.5
20
-20.525000000000002
42
-0.41421356237307555
10
196.50000000000003
20
-21.525000000000002
10
184.5
20
-21.52500000000002
42
-0.41421356237307555
10
183.49999999999997
20
-20.525000000000002
0
LWPOLYLINE
5
125
100
AcDbEntity
8
0
100
AcDbPolyline
90
8
70
1
43
0.0
10
250.17500000000001
20
-8.5250000000000004
42
-0.41421356237307422
10
251.17500000000004
20
-7.5250000000000004
10
263.17500000000001
20
-7.5249999999999879
42
-0.41421356237309437
10
264.17500000000007
20
-8.5250000000000004
10
264.17500000000007
20
-20.525000000000002
42
-0.41421356237310675
10
263.17500000000001
20
-21.525000000000002
10
251.17500000000004
20
-21.52500000000002
42
-0.41421356237307555
10
250.17500000000001
20
-20.525000000000002
0
LWPOLYLINE
5
126
100
AcDbEntity
8
0
100
AcDbPolyline
90
8
70
1
43
0.0
10
244.125
20
-7.5249999999999879
42
-0.41421356237309437
10
245.12500000000003
20
-8.5250000000000004
10
245.12500000000003
20
-20.525000000000002
42
-0.41421356237310675
10
244.125
20
-21.525000000000002
10
232.12500000000003
20
-21.52500000000002
42
-0.41421356237307555
10
231.125
20
-20.525000000000002
10
231.125
20
-8.5250000000000004
42
-0.41421356237307422
10
232.12500000000003
20
-7.5250000000000004
0
LWPOLYLINE
5
127
100
AcDbEntity
8
0
100
AcDbPolyline
90
8
70
1
43
0.0
10
212.07499999999999
20
-8.5250000000000004
42
-0.41421356237307422
10
213.07500000000002
20
-7.5250000000000004
10
225.07499999999999
20
-7.5249999999999879
42
-0.41421356237309437
10
226.07500000000002
20
-8.5250000000000004
10
226.07500000000002
20
-20.525000000000002
42
-0.41421356237310675
10
225.07499999999999
20
-21.525000000000002
10
213.07500000000002
20
-21.52500000000002
42
-0.41421356237307555
10
212.07499999999999
20
-20.525000000000002
0
LWPOLYLINE
5
128
100
AcDbEntity
8
0
100
AcDbPolyline
90
8
70
1
43
0.0
10
21.574999999999996
20
-32.100000000000001
42
-0.41421356237308982
10
22.574999999999999
20
-31.100000000000001
10
34.575000000000003
20
-31.099999999999998
42
-0.41421356237309115
10
35.575000000000003
20
-32.100000000000001
10
35.575000000000003
20
-44.100000000000001
42
-0.41421356237309631
10
34.575000000000003
20
-45.099999999999994
10
22.575000000000003
20
-45.099999999999994
42
-0.4142135623730937
10
21.574999999999996
20
-44.100000000000001
0
LWPOLYLINE
5
129
100
AcDbEntity
8
0
100
AcDbPolyline
90
8
70
1
43
0.0
10
2.5249999999999995
20
-32.100000000000001
42
-0.41421356237309243
10
3.5250000000000004
20
-31.100000000000001
10
15.525000000000002
20
-31.100000000000001
42
-0.41421356237309176
10
16.525000000000002
20
-32.100000000000001
10
16.525000000000002
20
-44.100000000000001
42
-0.41421356237309631
10
15.525000000000002
20
-45.099999999999994
10
3.5249999999999915
20
-45.099999999999994
42
-0.41421356237309276
10
2.5250000000000004
20
-44.100000000000001
0
LWPOLYLINE
5
130
100
AcDbEntity
8
0
100
AcDbPolyline
90
8
70
1
43
0.0
10
367.95000000000005
20
-69.19999999999996
42
-0.41421356237310281
10
368.95000000000005
20
-70.200000000000003
10
368.94999999999993
20
-82.200000000000003
42
-0.4142135623730222
10
367.95000000000005
20
-83.200000000000003
10
355.94999999999999
20
-83.19999999999996
42
-0.41421356237312101
10
354.94999999999999
20
-82.200000000000003
10
354.94999999999999
20
-70.200000000000003
42
-0.41421356237305079
10
355.94999999999999
20
-69.200000000000003
0
LWPOLYLINE
5
131
100
AcDbEntity
8
0
100
AcDbPolyline
90
8
70
1
43
0.0
10
35.862499999999997
20
-70.199999999999989
42
-0.4142135623730937
10
36.862499999999997
20
-69.200000000000003
10
48.862500000000004
20
-69.200000000000003
42
-0.41421356237309503
10
49.862499999999997
20
-70.200000000000003
10
49.862499999999997
20
-82.200000000000003
42
-0.41421356237309503
10
48.862500000000004
20
-83.200000000000003
10
36.862499999999997
20
-83.200000000000003
42
-0.41421356237309243
10
35.862499999999997
20
-82.200000000000003
0
LWPOLYLINE
5
132
100
AcDbEntity
8
0
100
AcDbPolyline
90
8
70
1
43
0.0
10
293.03750000000002
20
-51.150000000000006
42
-0.41421356237310542
10
294.03750000000002
20
-50.150000000000006
10
306.03750000000002
20
-50.149999999999999
42
-0.41421356237309243
10
307.03750000000008
20
-51.150000000000006
10
307.03750000000008
20
-63.150000000000006
42
-0.41421356237310802
10
306.03750000000002
20
-64.150000000000006
10
294.03750000000002
20
-64.15000000000002
42
-0.41421356237309503
10
293.03750000000002
20
-63.150000000000006
0
LWPOLYLINE
5
133
100
AcDbEntity
8
0
100
AcDbPolyline
90
8
70
1
43
0.0
10
354.94999999999999
20
-51.150000000000006
42
-0.41421356237304563
10
355.94999999999999
20
-50.150000000000006
10
367.95000000000005
20
-50.14999999999997
42
-0.41421356237310025
10
368.95000000000005
20
-51.150000000000006
10
368.95000000000005
20
-63.150000000000006
42
-0.41421356237305079
10
367.95000000000005
20
-64.150000000000006
10
355.94999999999999
20
-64.150000000000048
42
-0.41421356237310281
10
354.94999999999999
20
-63.150000000000006
0
LWPOLYLINE
5
134
100
AcDbEntity
8
0
100
AcDbPolyline
90
8
70
1
43
0.0
10
344.13749999999999
20
-50.150000000000006
42
-0.41421356237313145
10
345.13750000000005
20
-51.150000000000006
10
345.13750000000005
20
-63.150000000000006
42
-0.41421356237308204
10
344.13749999999999
20
-64.150000000000006
10
332.13749999999999
20
-64.150000000000006
42
-0.41421356237313406
10
331.13749999999993
20
-63.150000000000006
10
331.13749999999987
20
-51.150000000000006
42
-0.41421356237307683
10
332.13749999999999
20
-50.150000000000006
0
LWPOLYLINE
5
135
100
AcDbEntity
8
0
100
AcDbPolyline
90
8
70
1
43
0.0
10
9.6687500000000011
20
-70.200000000000003
42
-0.4142135623730957
10
10.668749999999999
20
-69.200000000000003
10
22.668750000000006
20
-69.200000000000003
42
-0.4142135623730937
10
23.668750000000003
20
-70.200000000000003
10
23.668749999999999
20
-82.200000000000003
42
-0.41421356237309503
10
22.668750000000003
20
-83.200000000000003
10
10.668749999999996
20
-83.200000000000003
42
-0.41421356237309309
10
9.6687500000000011
20
-82.200000000000003
0
LWPOLYLINE
5
136
100
AcDbEntity
8
0
100
AcDbPolyline
90
8
70
1
43
0.0
10
325.08749999999998
20
-50.150000000000006
42
-0.41421356237313145
10
326.08749999999998
20
-51.150000000000006
10
326.08749999999998
20
-63.150000000000006
42
-0.41421356237308204
10
325.08749999999998
20
-64.150000000000006
10
313.08749999999998
20
-64.15000000000002
42
-0.41421356237307422
10
312.08749999999998
20
-63.150000000000006
10
312.08750000000003
20
-51.150000000000006
42
-0.41421356237310025
10
313.08749999999998
20
-50.150000000000006
0
LWPOLYLINE
5
137
100
AcDbEntity
8
0
100
AcDbPolyline
90
8
70
1
43
0.0
10
65.53125
20
-107.30000000000001
42
-0.41421356237309503
10
66.53125
20
-108.3
10
66.531250000000014
20
-120.30000000000001
42
-0.41421356237309764
10
65.53125
20
-121.30000000000001
10
53.53125
20
-121.29999999999998
42
-0.41421356237309764
10
52.531250000000007
20
-120.30000000000001
10
52.531250000000007
20
-108.3
42
-0.41421356237309503
10
53.53125
20
-107.30000000000001
0
LWPOLYLINE
5
138
100
AcDbEntity
8
0
100
AcDbPolyline
90
8
70
1
43
0.0
10
312.08750000000003
20
-108.3
42
-0.41421356237310025
10
313.08749999999998
20
-107.30000000000001
10
325.08749999999998
20
-107.30000000000001
42
-0.41421356237313145
10
326.08749999999998
20
-108.3
10
326.08750000000009
20
-120.30000000000001
42
-0.41421356237307422
10
325.08749999999998
20
-121.30000000000001
10
313.08750000000003
20
-121.30000000000004
42
-0.41421356237307944
10
312.08749999999998
20
-120.30000000000001
0
LWPOLYLINE
5
139
100
AcDbEntity
8
0
100
AcDbPolyline
90
8
70
1
43
0.0
10
219.21875
20
-108.3
42
-0.41421356237308982
10
220.21875
20
-107.30000000000001
10
232.21875
20
-107.29999999999998
42
-0.41421356237307422
10
233.21875000000003
20
-108.3
10
233.21875
20
-120.30000000000001
42
-0.41421356237310542
10
232.21875
20
-121.30000000000001
10
220.21875
20
-121.30000000000004
42
-0.41421356237310025
10
219.21875
20
-120.30000000000001
0
LWPOLYLINE
5
140
100
AcDbEntity
8
0
100
AcDbPolyline
90
8
70
1
43
0.0
10
208.40625000000003
20
-107.29999999999998
42
-0.41421356237309503
10
209.40625000000006
20
-108.3
10
209.40625000000006
20
-120.30000000000001
42
-0.41421356237310542
10
208.40625000000003
20
-121.30000000000001
10
196.40625
20
-121.30000000000004
42
-0.41421356237310025
10
195.40625
20
-120.30000000000001
10
195.40625
20
-108.3
42
-0.41421356237308982
10
196.40625
20
-107.30000000000001
0
LWPOLYLINE
5
141
100
AcDbEntity
8
0
100
AcDbPolyline
90
8
70
1
43
0.0
10
293.03750000000002
20
-108.3
42
-0.41421356237308982
10
294.03750000000002
20
-107.30000000000001
10
306.03750000000002
20
-107.29999999999998
42
-0.41421356237309503
10
307.03750000000008
20
-108.3
10
307.03750000000008
20
-120.30000000000001
42
-0.41421356237310542
10
306.03750000000002
20
-121.30000000000001
10
294.03750000000002
20
-121.30000000000004
42
-0.41421356237310025
10
293.03750000000002
20
-120.30000000000001
0
LWPOLYLINE
5
142
100
AcDbEntity
8
0
100
AcDbPolyline
90
8
70
1
43
0.0
10
344.13749999999999
20
-107.30000000000001
42
-0.41421356237313145
10
345.13750000000005
20
-108.3
10
345.1375000000001
20
-120.30000000000001
42
-0.41421356237307422
10
344.13749999999999
20
-121.30000000000001
10
332.13749999999999
20
-121.30000000000003
42
-0.41421356237313667
10
331.13749999999993
20
-120.30000000000001
10
331.13749999999987
20
-108.3
42
-0.41421356237307422
10
332.13749999999999
20
-107.30000000000001
0
LWPOLYLINE
5
143
100
AcDbEntity
8
0
100
AcDbPolyline
90
8
70
1
43
0.0
10
325.08749999999998
20
-88.25
42
-0.41421356237313667
10
326.08749999999998
20
-89.25
10
326.08750000000009
20
-101.25
42
-0.41421356237307422
10
325.08749999999998
20
-102.25
10
313.08750000000003
20
-102.25000000000003
42
-0.41421356237307944
10
312.08749999999998
20
-101.25
10
312.08750000000003
20
-89.25
42
-0.41421356237310542
10
313.08749999999998
20
-88.250000000000014
0
LWPOLYLINE
5
144
100
AcDbEntity
8
0
100
AcDbPolyline
90
8
70
1
43
0.0
10
367.95000000000005
20
-88.250000000000028
42
-0.41421356237312623
10
368.95000000000005
20
-89.25
10
368.94999999999993
20
-101.25
42
-0.4142135623730222
10
367.95000000000005
20
-102.25
10
355.94999999999999
20
-102.24999999999997
42
-0.41421356237312623
10
354.94999999999999
20
-101.25
10
354.95000000000005
20
-89.25
42
-0.4142135623730222
10
355.94999999999999
20
-88.250000000000014
0
LWPOLYLINE
5
145
100
AcDbEntity
8
0
100
AcDbPolyline
90
8
70
1
43
0.0
10
293.03750000000002
20
-32.100000000000001
42
-0.41421356237310675
10
294.03750000000002
20
-31.100000000000001
10
306.03750000000002
20
-31.099999999999991
42
-0.41421356237309503
10
307.03750000000008
20
-32.100000000000001
10
307.03750000000008
20
-44.100000000000001
42
-0.41421356237310542
10
306.03750000000002
20
-45.099999999999994
10
294.03750000000002
20
-45.100000000000009
42
-0.41421356237309243
10
293.03750000000002
20
-44.100000000000001
0
LWPOLYLINE
5
146
100
AcDbEntity
8
0
100
AcDbPolyline
90
8
70
1
43
0.0
10
367.95000000000005
20
-31.100000000000037
42
-0.41421356237312235
10
368.95000000000005
20
-32.100000000000001
10
368.95000000000005
20
-44.100000000000001
42
-0.41421356237304563
10
367.95000000000005
20
-45.099999999999994
10
355.94999999999999
20
-45.100000000000037
42
-0.41421356237310025
10
354.94999999999999
20
-44.100000000000001
10
354.94999999999999
20
-32.100000000000001
42
-0.41421356237304691
10
355.94999999999999
20
-31.100000000000001
0
LWPOLYLINE
5
147
100
AcDbEntity
8
0
100
AcDbPolyline
90
8
70
1
43
0.0
10
31.100000000000001
20
-51.150000000000006
42
-0.41421356237309631
10
32.100000000000001
20
-50.150000000000006
10
44.100000000000001
20
-50.150000000000006
42
-0.41421356237309503
10
45.099999999999994
20
-51.150000000000006
10
45.099999999999994
20
-63.150000000000006
42
-0.41421356237309503
10
44.100000000000001
20
-64.150000000000006
10
32.100000000000009
20
-64.150000000000006
42
-0.41421356237309631
10
31.100000000000001
20
-63.150000000000006
0
LWPOLYLINE
5
148
100
AcDbEntity
8
0
100
AcDbPolyline
90
8
70
1
43
0.0
10
7.2875000000000023
20
-51.150000000000006
42
-0.41421356237309537
10
8.2874999999999979
20
-50.150000000000006
10
20.287500000000005
20
-50.150000000000006
42
-0.41421356237309115
10
21.287500000000001
20
-51.150000000000006
10
21.287500000000001
20
-63.149999999999991
42
-0.41421356237309631
10
20.287500000000001
20
-64.150000000000006
10
8.2874999999999943
20
-64.150000000000006
42
-0.4142135623730937
10
7.2874999999999996
20
-63.150000000000006
0
CIRCLE
5
149
100
AcDbEntity
8
0
100
AcDbCircle
10
429.62499999254953
20
-131.30699999999999
30
0
40
1.6250000000000142
210
0
220
-0
230
1
0
CIRCLE
5
150
100
AcDbEntity
8
0
100
AcDbCircle
10
9.2749999925494482
20
-131.30699999999999
30
0
40
1.6250000000000009
210
0
220
-0
230
1
0
CIRCLE
5
151
100
AcDbEntity
8
0
100
AcDbCircle
10
219.44999999254946
20
4.9999999999999982
30
0
40
1.6250000000000142
210
0
220
-0
230
1
0
CIRCLE
5
152
100
AcDbEntity
8
0
100
AcDbCircle
10
436.12500000745058
20
-61.912500000000001
30
0
40
1.6250000000000142
210
0
220
-0
230
1
0
CIRCLE
5
153
100
AcDbEntity
8
0
100
AcDbCircle
10
114.36249999254946
20
4.9999999999999982
30
0
40
1.6249999999999964
210
0
220
-0
230
1
0
CIRCLE
5
154
100
AcDbEntity
8
0
100
AcDbCircle
10
114.36249999254946
20
-131.30699999999999
30
0
40
1.6249999999999964
210
0
220
-0
230
1
0
CIRCLE
5
155
100
AcDbEntity
8
0
100
AcDbCircle
10
324.53749999254956
20
-131.30699999999999
30
0
40
1.6250000000000142
210
0
220
-0
230
1
0
CIRCLE
5
156
100
AcDbEntity
8
0
100
AcDbCircle
10
-7.5000000074505779
20
-61.912500000000001
30
0
40
1.625000000000002
210
0
220
-0
230
1
0
CIRCLE
5
157
100
AcDbEntity
8
0
100
AcDbCircle
10
324.53749999254956
20
4.9999999999999982
30
0
40
1.6250000000000142
210
0
220
-0
230
1
0
CIRCLE
5
158
100
AcDbEntity
8
0
100
AcDbCircle
10
429.62499999254953
20
4.9999999999999982
30
0
40
1.6250000000000142
210
0
220
-0
230
1
0
CIRCLE
5
159
100
AcDbEntity
8
0
100
AcDbCircle
10
9.2749999925494482
20
4.9999999999999982
30
0
40
1.6250000000000009
210
0
220
-0
230
1
0
CIRCLE
5
160
100
AcDbEntity
8
0
100
AcDbCircle
10
219.44999999254946
20
-131.30699999999999
30
0
40
1.6250000000000142
210
0
220
-0
230
1
0
LWPOLYLINE
5
161
100
AcDbEntity
8
0
100
AcDbPolyline
90
58
70
1
43
0.0
10
236.60000000000002
20
-69.200000000000003
42
-0.41421356237310542
10
235.60000000000002
20
-68.200000000000017
10
235.60000000000002
20
-46.099999999999994
42
-0.41421356237310542
10
236.60000000000002
20
-45.100000000000009
10
244.125
20
-45.099999999999994
42
0.41421356237310542
10
245.12500000000003
20
-44.100000000000001
10
245.12500000000003
20
-32.100000000000001
42
0.41421356237309503
10
244.125
20
-31.099999999999991
10
41.625000000000007
20
-31.100000000000001
42
0.41421356237309503
10
40.625000000000007
20
-32.100000000000001
10
40.625000000000007
20
-44.100000000000001
42
0.41421356237309503
10
41.625000000000007
20
-45.099999999999994
10
50.150000000000006
20
-45.100000000000016
42
-0.41421356237309503
10
51.149999999999984
20
-46.099999999999994
10
51.150000000000006
20
-50.150000000000006
42
0.41421356237309503
10
50.150000000000006
20
-51.150000000000006
10
50.150000000000006
20
-63.150000000000006
42
0.41421356237309503
10
51.150000000000006
20
-64.150000000000006
10
54.912500000000009
20
-64.15000000000002
42
-0.41421356237309503
10
55.912499999999994
20
-65.150000000000006
10
55.912500000000009
20
-69.200000000000003
42
0.41421356237309503
10
54.912500000000009
20
-70.200000000000003
10
54.912500000000009
20
-82.200000000000003
42
0.41421356237309503
10
55.912500000000009
20
-83.200000000000003
10
57.387500000000017
20
-83.200000000000003
42
-0.41421356237309503
10
58.38750000000001
20
-84.200000000000003
10
58.387500000000017
20
-87.250000000000014
42
-0.41421356237309764
10
57.387500000000017
20
-88.250000000000014
10
46.38750000000001
20
-88.250000000000014
42
0.41421356237309764
10
45.38750000000001
20
-89.25
10
45.38750000000001
20
-101.25
42
0.41421356237309764
10
46.38750000000001
20
-102.25
10
75.728394401181333
20
-102.25000000000001
42
-0.41311922565776799
10
76.728387415823136
20
-103.246262264378
10
76.795670162654403
20
-121.24707442489616
42
0.41338020564620981
10
77.796554825581623
20
-122.24333629175575
10
122.60022822078243
20
-122.20338715732436
42
0.20736766021007105
10
123.32965149835752
20
-121.88652666917983
10
123.64175792031639
20
-121.55286105839201
42
-0.26402482355646628
10
124.58420673595869
20
-121.25874155655801
42
0.053492530337775929
10
124.96875000000003
20
-121.29999999999998
10
136.96875
20
-121.29999999999998
42
0.053492530337888242
10
137.3532932640413
20
-121.25874155655802
42
-0.26402482355647006
10
138.29574207968361
20
-121.55286105839198
10
138.60784850191092
20
-121.88652666892878
42
0.20736070275555477
10
139.33724509675412
20
-122.2033871335214
10
184.14094517441839
20
-122.24333629175575
42
0.41338020564620465
10
185.1418298373456
20
-121.24707442489616
10
185.20911258417692
20
-103.246262264378
42
-0.41311922565777842
10
186.20910559881867
20
-102.25000000000007
10
229.83750000000001
20
-102.25
42
0.41421356237310542
10
230.83750000000003
20
-101.25
10
230.83750000000003
20
-84.199999999999989
42
-0.41421356237310542
10
231.83750000000003
20
-83.200000000000003
10
239.36250000000001
20
-83.200000000000003
42
0.41421356237308982
10
240.36250000000001
20
-82.200000000000003
10
240.36250000000001
20
-70.200000000000003
42
0.41421356237309503
10
239.36250000000001
20
-69.199999999999989
0
ENDSEC
0
SECTION
2
OBJECTS
0
DICTIONARY
5
C
100
AcDbDictionary
3
ACAD_GROUP
350
D
3
ACAD_MLINESTYLE
350
17
0
DICTIONARY
5
D
100
AcDbDictionary
0
DICTIONARY
5
1A
330
C
100
AcDbDictionary
0
DICTIONARY
5
17
100
AcDbDictionary
0
ENDSEC
0
EOF
