<?xml version="1.0" encoding="UTF-8" standalone="no"?>
<!-- Created with Inkscape (http://www.inkscape.org/) -->

<svg
   xmlns:dc="http://purl.org/dc/elements/1.1/"
   xmlns:cc="http://creativecommons.org/ns#"
   xmlns:rdf="http://www.w3.org/1999/02/22-rdf-syntax-ns#"
   xmlns:svg="http://www.w3.org/2000/svg"
   xmlns="http://www.w3.org/2000/svg"
   xmlns:sodipodi="http://sodipodi.sourceforge.net/DTD/sodipodi-0.dtd"
   xmlns:inkscape="http://www.inkscape.org/namespaces/inkscape"
   width="500mm"
   height="210mm"
   viewBox="0 0 500 210"
   version="1.1"
   id="svg8"
   inkscape:version="0.92.4 (5da689c313, 2019-01-14)"
   sodipodi:docname="L3_plate.svg">
  <defs
     id="defs2">
    <marker
       style="overflow:visible"
       refY="0"
       refX="0"
       orient="auto"
       id="DistanceX">
      <path
         id="path3715"
         style="stroke:#000000;stroke-width:0.5"
         d="M 3,-3 -3,3 M 0,-5 V 5"
         inkscape:connector-curvature="0" />
    </marker>
    <pattern
       y="0"
       x="0"
       width="8"
       patternUnits="userSpaceOnUse"
       id="Hatch"
       height="8">
      <path
         id="path3718"
         stroke-width="0.25"
         stroke="#000000"
         linecap="square"
         d="M8 4 l-4,4" />
      <path
         id="path3720"
         stroke-width="0.25"
         stroke="#000000"
         linecap="square"
         d="M6 2 l-4,4" />
      <path
         id="path3722"
         stroke-width="0.25"
         stroke="#000000"
         linecap="square"
         d="M4 0 l-4,4" />
    </pattern>
    <symbol
       id="*MODEL_SPACE" />
    <symbol
       id="*PAPER_SPACE" />
    <marker
       style="overflow:visible"
       refY="0.0"
       refX="0.0"
       orient="auto"
       id="DistanceX-5">
      <path
         id="path8997"
         style="stroke:#000000; stroke-width:0.5"
         d="M 3,-3 L -3,3 M 0,-5 L  0,5" />
    </marker>
    <pattern
       y="0"
       x="0"
       width="8"
       patternUnits="userSpaceOnUse"
       id="Hatch-4"
       height="8">
      <path
         id="path9000"
         stroke-width="0.25"
         stroke="#000000"
         linecap="square"
         d="M8 4 l-4,4" />
      <path
         id="path9002"
         stroke-width="0.25"
         stroke="#000000"
         linecap="square"
         d="M6 2 l-4,4" />
      <path
         id="path9004"
         stroke-width="0.25"
         stroke="#000000"
         linecap="square"
         d="M4 0 l-4,4" />
    </pattern>
    <symbol
       id="*MODEL_SPACE-9" />
    <symbol
       id="*PAPER_SPACE-2" />
  </defs>
  <sodipodi:namedview
     id="base"
     pagecolor="#ffffff"
     bordercolor="#666666"
     borderopacity="1.0"
     inkscape:pageopacity="0.0"
     inkscape:pageshadow="2"
     inkscape:zoom="0.49497475"
     inkscape:cx="350.23738"
     inkscape:cy="486.35828"
     inkscape:document-units="mm"
     inkscape:current-layer="layer1"
     showgrid="false"
     inkscape:window-width="2560"
     inkscape:window-height="1377"
     inkscape:window-x="-8"
     inkscape:window-y="-8"
     inkscape:window-maximized="1" />
  <metadata
     id="metadata5">
    <rdf:RDF>
      <cc:Work
         rdf:about="">
        <dc:format>image/svg+xml</dc:format>
        <dc:type
           rdf:resource="http://purl.org/dc/dcmitype/StillImage" />
        <dc:title></dc:title>
      </cc:Work>
    </rdf:RDF>
  </metadata>
  <g
     inkscape:label="Layer 1"
     inkscape:groupmode="layer"
     id="layer1"
     transform="translate(0,-87)">
    <g
       id="g9135"
       inkscape:label="0"
       transform="matrix(0.26458333,0,0,0.26458333,35.687502,-166.9125)">
      <path
         id="path9011"
         style="fill:none;stroke:#000000"
         d="m 1610.2567,1579.5074 5.8544,-0.01 a 3.779528,3.779528 0 0 0 3.7761,-3.7795 v -27.2694 a 3.779528,3.779528 0 0 0 -3.7795,-3.7795 h -3.8003 a 1.889764,1.889764 0 0 1 -1.8898,-1.8898 v -0.8562 a 6.851031,6.851031 0 0 0 0.039,-0.7308 v -45.3544 a 6.851031,6.851031 0 0 0 -0.039,-0.7308 v -0.8562 a 1.889764,1.889764 0 0 1 1.8898,-1.8898 h 3.8003 a 3.779528,3.779528 0 0 0 3.7795,-3.7795 v -27.2694 a 3.779528,3.779528 0 0 0 -3.7761,-3.7796 l -5.8544,-0.01 -33.2881,-0.1244 v -0.2107 a 1.133858,1.133858 0 0 0 -1.1338,-1.1339 h -10.7324 a 3.779528,3.779528 0 0 1 -3.7796,-3.7795 v -11.5276 a 3.779528,3.779528 0 0 1 3.7796,-3.7795 h 11.8662 v -1.3446 l 33.2881,-0.1244 5.8544,-0.01 a 3.779528,3.779528 0 0 0 3.7761,-3.7795 v -27.2694 a 3.779528,3.779528 0 0 0 -3.7795,-3.7795 h -3.8003 a 1.889764,1.889764 0 0 1 -1.8898,-1.8898 v -0.8562 a 6.851031,6.851031 0 0 0 0.039,-0.7308 v -45.3544 a 6.851031,6.851031 0 0 0 -0.039,-0.7308 v -0.8562 a 1.889764,1.889764 0 0 1 1.8898,-1.8898 h 3.8003 a 3.779528,3.779528 0 0 0 3.7795,-3.7795 v -27.2694 a 3.779528,3.779528 0 0 0 -3.7761,-3.7796 l -5.8544,-0.01 -33.2881,-0.1244 v -1.3446 h -11.8662 a 3.779528,3.779528 0 0 1 -3.7796,-3.7795 v -11.5276 a 3.779528,3.779528 0 0 1 3.7796,-3.7795 h 41.5748 a 3.779528,3.779528 0 0 0 3.7795,-3.7795 v -45.3544 a 3.779528,3.779528 0 0 0 -3.7795,-3.7795 h -45.3544 a 3.779528,3.779528 0 0 0 -3.2731,1.8898 3.779528,3.779528 0 0 1 -3.2732,1.8897 h -13.553 a 3.779528,3.779528 0 0 1 -3.2732,-1.8897 3.779528,3.779528 0 0 0 -3.2731,-1.8898 h -45.3544 a 3.779528,3.779528 0 0 0 -3.2731,1.8898 3.779528,3.779528 0 0 1 -3.2732,1.8897 h -13.553 a 3.779528,3.779528 0 0 1 -3.2732,-1.8897 3.779528,3.779528 0 0 0 -3.2731,-1.8898 h -45.3544 a 3.779528,3.779528 0 0 0 -3.7795,3.7795 v 261.3544 a 3.779528,3.779528 0 0 0 3.7795,3.7795 h 45.3544 a 3.779528,3.779528 0 0 0 3.2731,-1.8898 3.779528,3.779528 0 0 1 3.2732,-1.8897 h 13.553 a 3.779528,3.779528 0 0 1 3.2732,1.8897 3.779528,3.779528 0 0 0 3.2731,1.8898 h 41.5748 a 3.779528,3.779528 0 0 1 3.7796,3.7795 v 11.5276 a 3.779528,3.779528 0 0 1 -3.7796,3.7795 h -41.5748 a 3.779528,3.779528 0 0 0 -3.7795,3.7795 v 45.3544 a 3.779528,3.779528 0 0 0 3.7795,3.7795 h 86.512 a 1.133858,1.133858 0 0 0 1.1338,-1.1339 v -0.2107 z"
         inkscape:connector-curvature="0" />
      <path
         id="path9013"
         style="fill:none;stroke:#000000"
         d="m 57.591968,1456.1021 h -0.85617 a 1.889764,1.889764 0 0 1 -1.889763,-1.8898 v -3.8003 a 3.779528,3.779528 0 0 0 -3.779528,-3.7796 H 23.797068 a 3.779528,3.779528 0 0 0 -3.779526,3.7762 l -0.0052,5.8544 -0.238468,63.7995 a 3.779528,3.779528 0 0 1 -1.230547,2.7766 v 54.3578 a 3.779528,3.779528 0 0 0 3.779528,3.7795 h 45.35433 a 3.779528,3.779528 0 0 0 3.779528,-3.7795 v -41.5749 a 3.779528,3.779528 0 0 1 3.779527,-3.7795 h 29.52756 a 3.779528,3.779528 0 0 1 3.77953,3.7795 v 41.5749 a 3.779528,3.779528 0 0 0 3.77952,3.7795 h 45.35433 a 3.779528,3.779528 0 0 0 3.77953,-3.7795 v -45.3544 a 3.779528,3.779528 0 0 0 -3.77953,-3.7795 H 146.0215 a 3.779528,3.779528 0 0 1 -3.77951,-3.7654 l -0.25429,-68.0346 -0.005,-5.8544 a 3.779528,3.779528 0 0 0 -3.77953,-3.7762 h -27.26944 a 3.779528,3.779528 0 0 0 -3.77952,3.7796 v 3.8003 a 1.889764,1.889764 0 0 1 -1.88977,1.8898 h -0.85617 a 6.851031,6.851031 0 0 0 -0.73086,-0.039 H 58.322835 a 6.851031,6.851031 0 0 0 -0.730867,0.039 z"
         inkscape:connector-curvature="0" />
      <path
         id="path9015"
         style="fill:none;stroke:#000000"
         d="m 1068.9877,1240.263 -0.01,-5.8544 a 3.779528,3.779528 0 0 0 -3.7796,-3.7762 h -27.2694 a 3.779528,3.779528 0 0 0 -3.7795,3.7796 v 3.8003 a 1.889764,1.889764 0 0 1 -1.8898,1.8898 h -0.8562 a 6.851031,6.851031 0 0 0 -0.7308,-0.039 h -45.35436 a 6.851031,6.851031 0 0 0 -0.73087,0.039 H 983.731 a 1.889764,1.889764 0 0 1 -1.88976,-1.8898 v -3.8003 a 3.779528,3.779528 0 0 0 -3.77953,-3.7796 h -27.26944 a 3.779528,3.779528 0 0 0 -3.77953,3.7762 l -0.005,5.8544 -0.2543,68.0346 a 3.779528,3.779528 0 0 1 -3.7795,3.7654 h -29.65568 a 3.779528,3.779528 0 0 0 -3.77953,3.7795 v 45.3544 a 3.779528,3.779528 0 0 0 3.77953,3.7795 h 45.35432 a 3.779528,3.779528 0 0 0 3.77953,-3.7795 v -41.5749 a 3.779528,3.779528 0 0 1 3.77953,-3.7795 h 29.52756 a 3.779528,3.779528 0 0 1 3.77953,3.7795 v 41.5749 a 3.779528,3.779528 0 0 0 3.77947,3.7795 h 45.3544 a 3.779528,3.779528 0 0 0 3.7795,-3.7795 v -46.7697 a 3.779528,3.779528 0 0 1 3.7734,-3.7796 l 9.233,-0.015 a 3.779528,3.779528 0 0 0 3.7734,-3.7936 z"
         inkscape:connector-curvature="0" />
      <path
         id="path9017"
         style="fill:none;stroke:#000000"
         d="m 975.59197,1384.1021 h -0.85617 a 1.889764,1.889764 0 0 1 -1.88976,-1.8898 v -3.8003 a 3.779528,3.779528 0 0 0 -3.77953,-3.7796 h -27.26944 a 3.779528,3.779528 0 0 0 -3.77953,3.7762 l -0.005,5.8544 -0.241,64.4783 a 3.779528,3.779528 0 0 1 -3.78287,3.7654 l -10.19326,-0.01 a 3.779528,3.779528 0 0 0 -3.78287,3.7654 l -0.12442,33.288 h -1.34459 v 87.6459 a 3.779528,3.779528 0 0 0 3.77953,3.7795 h 45.35432 a 3.779528,3.779528 0 0 0 3.77953,-3.7795 v -45.3544 h 37.08659 v 45.3544 a 3.779528,3.779528 0 0 0 3.7795,3.7795 h 45.3544 a 3.779528,3.779528 0 0 0 3.7795,-3.7795 v -45.3544 a 3.779528,3.779528 0 0 0 -3.7795,-3.7795 h -11.6557 a 3.779528,3.779528 0 0 1 -3.7795,-3.7654 l -0.2462,-65.8539 a 3.779528,3.779528 0 0 1 3.7734,-3.7937 l 10.6939,-0.017 a 3.779528,3.779528 0 0 0 3.7734,-3.7936 l -0.2488,-66.5761 -0.01,-5.8544 a 3.779528,3.779528 0 0 0 -3.7796,-3.7762 h -27.2694 a 3.779528,3.779528 0 0 0 -3.7795,3.7796 v 3.8003 a 1.889764,1.889764 0 0 1 -1.8898,1.8898 h -0.8562 a 6.851031,6.851031 0 0 0 -0.7308,-0.039 h -45.35434 a 6.851031,6.851031 0 0 0 -0.73087,0.039 z"
         inkscape:connector-curvature="0" />
      <path
         id="path9019"
         style="fill:none;stroke:#000000"
         d="m 1380.592,1528.1021 h -0.8562 a 1.889764,1.889764 0 0 1 -1.8898,-1.8898 v -3.8003 a 3.779528,3.779528 0 0 0 -3.7795,-3.7796 h -27.2694 a 3.779528,3.779528 0 0 0 -3.7796,3.7762 l -0.01,5.8544 -0.2488,66.5761 a 3.779528,3.779528 0 0 0 3.7734,3.7936 h 1.9737 a 3.779528,3.779528 0 0 0 0.5287,0.037 h 87.4834 l 24.9404,-0.04 a 3.779528,3.779528 0 0 0 3.7734,-3.7936 l -0.2488,-66.5761 -0.01,-5.8544 a 3.779528,3.779528 0 0 0 -3.7796,-3.7762 h -27.2694 a 3.779528,3.779528 0 0 0 -3.7795,3.7796 v 3.8003 a 1.889764,1.889764 0 0 1 -1.8898,1.8898 h -0.8562 a 6.851031,6.851031 0 0 0 -0.7308,-0.039 h -45.3544 a 6.851031,6.851031 0 0 0 -0.7308,0.039 z"
         inkscape:connector-curvature="0" />
      <path
         id="path9021"
         style="fill:none;stroke:#000000"
         d="M -68.031496,1122.5197 A 68.031496,68.031496 0 0 1 0,1054.4882 h 1620 a 68.031496,68.031496 0 0 1 68.0315,68.0315 v 468 A 68.031496,68.031496 0 0 1 1620,1658.5512 H 0 a 68.031496,68.031496 0 0 1 -68.031496,-68.0315 z"
         inkscape:connector-curvature="0" />
      <path
         id="path9023"
         style="fill:none;stroke:#000000"
         d="m 1228.6772,1240.063 a 3.779528,3.779528 0 0 1 3.7795,3.7795 v 45.3544 a 3.779528,3.779528 0 0 1 -3.7795,3.7795 h -45.3544 a 3.779528,3.779528 0 0 1 -3.7795,-3.7795 v -45.3544 a 3.779528,3.779528 0 0 1 3.7795,-3.7795 z"
         inkscape:connector-curvature="0" />
      <path
         id="path9025"
         style="fill:none;stroke:#000000"
         d="m 1390.6772,1150.9606 a 3.779528,3.779528 0 0 1 3.7795,3.7796 v 45.3543 a 3.779528,3.779528 0 0 1 -3.7795,3.7795 h -45.3544 a 3.779528,3.779528 0 0 1 -3.7795,-3.7795 v -45.3543 a 3.779528,3.779528 0 0 1 3.7795,-3.7796 z"
         inkscape:connector-curvature="0" />
      <path
         id="path9027"
         style="fill:none;stroke:#000000"
         d="m 1251.5433,1243.8425 a 3.779528,3.779528 0 0 1 3.7795,-3.7795 h 45.3544 a 3.779528,3.779528 0 0 1 3.7795,3.7795 v 45.3544 a 3.779528,3.779528 0 0 1 -3.7795,3.7795 h -45.3544 a 3.779528,3.779528 0 0 1 -3.7795,-3.7795 z"
         inkscape:connector-curvature="0" />
      <path
         id="path9029"
         style="fill:none;stroke:#000000"
         d="m 1251.5433,1154.7402 a 3.779528,3.779528 0 0 1 3.7795,-3.7796 h 45.3544 a 3.779528,3.779528 0 0 1 3.7795,3.7796 v 45.3543 a 3.779528,3.779528 0 0 1 -3.7795,3.7795 h -45.3544 a 3.779528,3.779528 0 0 1 -3.7795,-3.7795 z"
         inkscape:connector-curvature="0" />
      <path
         id="path9031"
         style="fill:none;stroke:#000000"
         d="m 1232.4567,1200.0945 v -45.3543 a 3.779528,3.779528 0 0 0 -3.7795,-3.7796 h -45.3544 a 3.779528,3.779528 0 0 0 -3.7795,3.7796 v 45.3543 a 3.779528,3.779528 0 0 0 3.7795,3.7795 h 45.3544 a 3.779528,3.779528 0 0 0 3.7795,-3.7795 z"
         inkscape:connector-curvature="0" />
      <path
         id="path9033"
         style="fill:none;stroke:#000000"
         d="m 9.543307,1154.7402 a 3.779528,3.779528 0 0 1 3.779528,-3.7796 h 45.35433 a 3.779528,3.779528 0 0 1 3.779528,3.7796 v 45.3543 a 3.779528,3.779528 0 0 1 -3.779528,3.7795 h -45.35433 a 3.779528,3.779528 0 0 1 -3.779528,-3.7795 z"
         inkscape:connector-curvature="0" />
      <path
         id="path9035"
         style="fill:none;stroke:#000000"
         d="m 477.54331,1154.7402 a 3.779528,3.779528 0 0 1 3.77952,-3.7796 h 45.35433 a 3.779528,3.779528 0 0 1 3.77953,3.7796 v 45.3543 a 3.779528,3.779528 0 0 1 -3.77953,3.7795 h -45.35433 a 3.779528,3.779528 0 0 1 -3.77952,-3.7795 z"
         inkscape:connector-curvature="0" />
      <path
         id="path9037"
         style="fill:none;stroke:#000000"
         d="m 206.45669,1200.0945 v -45.3543 a 3.779528,3.779528 0 0 0 -3.77953,-3.7796 h -45.35433 a 3.779528,3.779528 0 0 0 -3.77952,3.7796 v 45.3543 a 3.779528,3.779528 0 0 0 3.77952,3.7795 h 45.35433 a 3.779528,3.779528 0 0 0 3.77953,-3.7795 z"
         inkscape:connector-curvature="0" />
      <path
         id="path9039"
         style="fill:none;stroke:#000000"
         d="m 549.54331,1154.7402 a 3.779528,3.779528 0 0 1 3.77953,-3.7796 h 45.35432 a 3.779528,3.779528 0 0 1 3.77953,3.7796 v 45.3543 a 3.779528,3.779528 0 0 1 -3.77953,3.7795 h -45.35432 a 3.779528,3.779528 0 0 1 -3.77953,-3.7795 z"
         inkscape:connector-curvature="0" />
      <path
         id="path9041"
         style="fill:none;stroke:#000000"
         d="m 369.54331,1154.7402 a 3.779528,3.779528 0 0 1 3.77952,-3.7796 h 45.35433 a 3.779528,3.779528 0 0 1 3.77953,3.7796 v 45.3543 a 3.779528,3.779528 0 0 1 -3.77953,3.7795 h -45.35433 a 3.779528,3.779528 0 0 1 -3.77952,-3.7795 z"
         inkscape:connector-curvature="0" />
      <path
         id="path9043"
         style="fill:none;stroke:#000000"
         d="m 274.67716,1150.9606 a 3.779528,3.779528 0 0 1 3.77953,3.7796 v 45.3543 a 3.779528,3.779528 0 0 1 -3.77953,3.7795 h -45.35433 a 3.779528,3.779528 0 0 1 -3.77952,-3.7795 v -45.3543 a 3.779528,3.779528 0 0 1 3.77952,-3.7796 z"
         inkscape:connector-curvature="0" />
      <path
         id="path9045"
         style="fill:none;stroke:#000000"
         d="m 297.54331,1154.7402 v 45.3543 a 3.779528,3.779528 0 0 0 3.77952,3.7795 h 45.35433 a 3.779528,3.779528 0 0 0 3.77953,-3.7795 v -45.3543 a 3.779528,3.779528 0 0 0 -3.77953,-3.7796 h -45.35433 a 3.779528,3.779528 0 0 0 -3.77952,3.7796 z"
         inkscape:connector-curvature="0" />
      <path
         id="path9047"
         style="fill:none;stroke:#000000"
         d="m 621.54331,1154.7402 a 3.779528,3.779528 0 0 1 3.77953,-3.7796 h 45.35432 a 3.779528,3.779528 0 0 1 3.77953,3.7796 v 45.3543 a 3.779528,3.779528 0 0 1 -3.77953,3.7795 h -45.35432 a 3.779528,3.779528 0 0 1 -3.77953,-3.7795 z"
         inkscape:connector-curvature="0" />
      <path
         id="path9049"
         style="fill:none;stroke:#000000"
         d="m 1557.5433,1154.7402 a 3.779528,3.779528 0 0 1 3.7795,-3.7796 h 45.3544 a 3.779528,3.779528 0 0 1 3.7795,3.7796 v 45.3543 a 3.779528,3.779528 0 0 1 -3.7795,3.7795 h -45.3544 a 3.779528,3.779528 0 0 1 -3.7795,-3.7795 z"
         inkscape:connector-curvature="0" />
      <path
         id="path9051"
         style="fill:none;stroke:#000000"
         d="m 1534.6772,1150.9606 a 3.779528,3.779528 0 0 1 3.7795,3.7796 v 45.3543 a 3.779528,3.779528 0 0 1 -3.7795,3.7795 h -45.3544 a 3.779528,3.779528 0 0 1 -3.7795,-3.7795 v -45.3543 a 3.779528,3.779528 0 0 1 3.7795,-3.7796 z"
         inkscape:connector-curvature="0" />
      <path
         id="path9053"
         style="fill:none;stroke:#000000"
         d="m 1413.5433,1154.7402 a 3.779528,3.779528 0 0 1 3.7795,-3.7796 h 45.3544 a 3.779528,3.779528 0 0 1 3.7795,3.7796 v 45.3543 a 3.779528,3.779528 0 0 1 -3.7795,3.7795 h -45.3544 a 3.779528,3.779528 0 0 1 -3.7795,-3.7795 z"
         inkscape:connector-curvature="0" />
      <path
         id="path9055"
         style="fill:none;stroke:#000000"
         d="m 1017.5433,1154.7402 v 45.3543 a 3.779528,3.779528 0 0 0 3.7795,3.7795 h 45.3544 a 3.779528,3.779528 0 0 0 3.7795,-3.7795 v -45.3543 a 3.779528,3.779528 0 0 0 -3.7795,-3.7796 h -45.3544 a 3.779528,3.779528 0 0 0 -3.7795,3.7796 z"
         inkscape:connector-curvature="0" />
      <path
         id="path9057"
         style="fill:none;stroke:#000000"
         d="m 1160.4567,1200.0945 v -45.3543 a 3.779528,3.779528 0 0 0 -3.7795,-3.7796 h -45.3544 a 3.779528,3.779528 0 0 0 -3.7795,3.7796 v 45.3543 a 3.779528,3.779528 0 0 0 3.7795,3.7795 h 45.3544 a 3.779528,3.779528 0 0 0 3.7795,-3.7795 z"
         inkscape:connector-curvature="0" />
      <path
         id="path9059"
         style="fill:none;stroke:#000000"
         d="m 693.54331,1154.7402 a 3.779528,3.779528 0 0 1 3.77953,-3.7796 h 45.35432 a 3.779528,3.779528 0 0 1 3.77953,3.7796 v 45.3543 a 3.779528,3.779528 0 0 1 -3.77953,3.7795 h -45.35432 a 3.779528,3.779528 0 0 1 -3.77953,-3.7795 z"
         inkscape:connector-curvature="0" />
      <path
         id="path9061"
         style="fill:none;stroke:#000000"
         d="m 945.54331,1154.7402 a 3.779528,3.779528 0 0 1 3.77953,-3.7796 h 45.35432 a 3.779528,3.779528 0 0 1 3.77953,3.7796 v 45.3543 a 3.779528,3.779528 0 0 1 -3.77953,3.7795 h -45.35432 a 3.779528,3.779528 0 0 1 -3.77953,-3.7795 z"
         inkscape:connector-curvature="0" />
      <path
         id="path9063"
         style="fill:none;stroke:#000000"
         d="m 922.67716,1150.9606 a 3.779528,3.779528 0 0 1 3.77953,3.7796 v 45.3543 a 3.779528,3.779528 0 0 1 -3.77953,3.7795 h -45.35432 a 3.779528,3.779528 0 0 1 -3.77953,-3.7795 v -45.3543 a 3.779528,3.779528 0 0 1 3.77953,-3.7796 z"
         inkscape:connector-curvature="0" />
      <path
         id="path9065"
         style="fill:none;stroke:#000000"
         d="m 801.54331,1154.7402 a 3.779528,3.779528 0 0 1 3.77953,-3.7796 h 45.35432 a 3.779528,3.779528 0 0 1 3.77953,3.7796 v 45.3543 a 3.779528,3.779528 0 0 1 -3.77953,3.7795 h -45.35432 a 3.779528,3.779528 0 0 1 -3.77953,-3.7795 z"
         inkscape:connector-curvature="0" />
      <path
         id="path9067"
         style="fill:none;stroke:#000000"
         d="m 81.543307,1243.8425 a 3.779528,3.779528 0 0 1 3.779528,-3.7795 h 45.354325 a 3.779528,3.779528 0 0 1 3.77953,3.7795 v 45.3544 a 3.779528,3.779528 0 0 1 -3.77953,3.7795 H 85.322835 a 3.779528,3.779528 0 0 1 -3.779528,-3.7795 z"
         inkscape:connector-curvature="0" />
      <path
         id="path9069"
         style="fill:none;stroke:#000000"
         d="m 9.543307,1243.8425 a 3.779528,3.779528 0 0 1 3.779528,-3.7795 h 45.35433 a 3.779528,3.779528 0 0 1 3.779528,3.7795 v 45.3544 a 3.779528,3.779528 0 0 1 -3.779528,3.7795 h -45.35433 a 3.779528,3.779528 0 0 1 -3.779528,-3.7795 z"
         inkscape:connector-curvature="0" />
      <path
         id="path9071"
         style="fill:none;stroke:#000000"
         d="m 1390.6772,1384.063 a 3.779528,3.779528 0 0 1 3.7795,3.7795 v 45.3544 a 3.779528,3.779528 0 0 1 -3.7795,3.7795 h -45.3544 a 3.779528,3.779528 0 0 1 -3.7795,-3.7795 v -45.3544 a 3.779528,3.779528 0 0 1 3.7795,-3.7795 z"
         inkscape:connector-curvature="0" />
      <path
         id="path9073"
         style="fill:none;stroke:#000000"
         d="m 135.54331,1387.8425 a 3.779528,3.779528 0 0 1 3.77952,-3.7795 h 45.35433 a 3.779528,3.779528 0 0 1 3.77953,3.7795 v 45.3544 a 3.779528,3.779528 0 0 1 -3.77953,3.7795 h -45.35433 a 3.779528,3.779528 0 0 1 -3.77952,-3.7795 z"
         inkscape:connector-curvature="0" />
      <path
         id="path9075"
         style="fill:none;stroke:#000000"
         d="m 1107.5433,1315.8425 a 3.779528,3.779528 0 0 1 3.7795,-3.7795 h 45.3544 a 3.779528,3.779528 0 0 1 3.7795,3.7795 v 45.3544 a 3.779528,3.779528 0 0 1 -3.7795,3.7795 h -45.3544 a 3.779528,3.779528 0 0 1 -3.7795,-3.7795 z"
         inkscape:connector-curvature="0" />
      <path
         id="path9077"
         style="fill:none;stroke:#000000"
         d="m 1341.5433,1315.8425 a 3.779528,3.779528 0 0 1 3.7795,-3.7795 h 45.3544 a 3.779528,3.779528 0 0 1 3.7795,3.7795 v 45.3544 a 3.779528,3.779528 0 0 1 -3.7795,3.7795 h -45.3544 a 3.779528,3.779528 0 0 1 -3.7795,-3.7795 z"
         inkscape:connector-curvature="0" />
      <path
         id="path9079"
         style="fill:none;stroke:#000000"
         d="m 1300.6772,1312.063 a 3.779528,3.779528 0 0 1 3.7795,3.7795 v 45.3544 a 3.779528,3.779528 0 0 1 -3.7795,3.7795 h -45.3544 a 3.779528,3.779528 0 0 1 -3.7795,-3.7795 v -45.3544 a 3.779528,3.779528 0 0 1 3.7795,-3.7795 z"
         inkscape:connector-curvature="0" />
      <path
         id="path9081"
         style="fill:none;stroke:#000000"
         d="m 36.543307,1387.8425 a 3.779528,3.779528 0 0 1 3.779528,-3.7795 h 45.35433 a 3.779528,3.779528 0 0 1 3.779528,3.7795 v 45.3544 a 3.779528,3.779528 0 0 1 -3.779528,3.7795 h -45.35433 a 3.779528,3.779528 0 0 1 -3.779528,-3.7795 z"
         inkscape:connector-curvature="0" />
      <path
         id="path9083"
         style="fill:none;stroke:#000000"
         d="m 1228.6772,1312.063 a 3.779528,3.779528 0 0 1 3.7795,3.7795 v 45.3544 a 3.779528,3.779528 0 0 1 -3.7795,3.7795 h -45.3544 a 3.779528,3.779528 0 0 1 -3.7795,-3.7795 v -45.3544 a 3.779528,3.779528 0 0 1 3.7795,-3.7795 z"
         inkscape:connector-curvature="0" />
      <path
         id="path9085"
         style="fill:none;stroke:#000000"
         d="m 247.67716,1528.063 a 3.779528,3.779528 0 0 1 3.77953,3.7795 v 45.3544 a 3.779528,3.779528 0 0 1 -3.77953,3.7795 h -45.35433 a 3.779528,3.779528 0 0 1 -3.77952,-3.7795 v -45.3544 a 3.779528,3.779528 0 0 1 3.77952,-3.7795 z"
         inkscape:connector-curvature="0" />
      <path
         id="path9087"
         style="fill:none;stroke:#000000"
         d="m 1179.5433,1531.8425 a 3.779528,3.779528 0 0 1 3.7795,-3.7795 h 45.3544 a 3.779528,3.779528 0 0 1 3.7795,3.7795 v 45.3544 a 3.779528,3.779528 0 0 1 -3.7795,3.7795 h -45.3544 a 3.779528,3.779528 0 0 1 -3.7795,-3.7795 z"
         inkscape:connector-curvature="0" />
      <path
         id="path9089"
         style="fill:none;stroke:#000000"
         d="m 828.54331,1531.8425 a 3.779528,3.779528 0 0 1 3.77953,-3.7795 h 45.35432 a 3.779528,3.779528 0 0 1 3.77953,3.7795 v 45.3544 a 3.779528,3.779528 0 0 1 -3.77953,3.7795 h -45.35432 a 3.779528,3.779528 0 0 1 -3.77953,-3.7795 z"
         inkscape:connector-curvature="0" />
      <path
         id="path9091"
         style="fill:none;stroke:#000000"
         d="m 787.67716,1528.063 a 3.779528,3.779528 0 0 1 3.77953,3.7795 v 45.3544 a 3.779528,3.779528 0 0 1 -3.77953,3.7795 h -45.35432 a 3.779528,3.779528 0 0 1 -3.77953,-3.7795 v -45.3544 a 3.779528,3.779528 0 0 1 3.77953,-3.7795 z"
         inkscape:connector-curvature="0" />
      <path
         id="path9093"
         style="fill:none;stroke:#000000"
         d="m 1107.5433,1531.8425 a 3.779528,3.779528 0 0 1 3.7795,-3.7795 h 45.3544 a 3.779528,3.779528 0 0 1 3.7795,3.7795 v 45.3544 a 3.779528,3.779528 0 0 1 -3.7795,3.7795 h -45.3544 a 3.779528,3.779528 0 0 1 -3.7795,-3.7795 z"
         inkscape:connector-curvature="0" />
      <path
         id="path9095"
         style="fill:none;stroke:#000000"
         d="m 1300.6772,1528.063 a 3.779528,3.779528 0 0 1 3.7795,3.7795 v 45.3544 a 3.779528,3.779528 0 0 1 -3.7795,3.7795 h -45.3544 a 3.779528,3.779528 0 0 1 -3.7795,-3.7795 v -45.3544 a 3.779528,3.779528 0 0 1 3.7795,-3.7795 z"
         inkscape:connector-curvature="0" />
      <path
         id="path9097"
         style="fill:none;stroke:#000000"
         d="m 1228.6772,1456.063 a 3.779528,3.779528 0 0 1 3.7795,3.7795 v 45.3544 a 3.779528,3.779528 0 0 1 -3.7795,3.7795 h -45.3544 a 3.779528,3.779528 0 0 1 -3.7795,-3.7795 v -45.3544 a 3.779528,3.779528 0 0 1 3.7795,-3.7795 z"
         inkscape:connector-curvature="0" />
      <path
         id="path9099"
         style="fill:none;stroke:#000000"
         d="m 1390.6772,1456.063 a 3.779528,3.779528 0 0 1 3.7795,3.7795 v 45.3544 a 3.779528,3.779528 0 0 1 -3.7795,3.7795 h -45.3544 a 3.779528,3.779528 0 0 1 -3.7795,-3.7795 v -45.3544 a 3.779528,3.779528 0 0 1 3.7795,-3.7795 z"
         inkscape:connector-curvature="0" />
      <path
         id="path9101"
         style="fill:none;stroke:#000000"
         d="m 1107.5433,1243.8425 a 3.779528,3.779528 0 0 1 3.7795,-3.7795 h 45.3544 a 3.779528,3.779528 0 0 1 3.7795,3.7795 v 45.3544 a 3.779528,3.779528 0 0 1 -3.7795,3.7795 h -45.3544 a 3.779528,3.779528 0 0 1 -3.7795,-3.7795 z"
         inkscape:connector-curvature="0" />
      <path
         id="path9103"
         style="fill:none;stroke:#000000"
         d="m 1390.6772,1240.063 a 3.779528,3.779528 0 0 1 3.7795,3.7795 v 45.3544 a 3.779528,3.779528 0 0 1 -3.7795,3.7795 h -45.3544 a 3.779528,3.779528 0 0 1 -3.7795,-3.7795 v -45.3544 a 3.779528,3.779528 0 0 1 3.7795,-3.7795 z"
         inkscape:connector-curvature="0" />
      <path
         id="path9105"
         style="fill:none;stroke:#000000"
         d="m 117.54331,1315.8425 a 3.779528,3.779528 0 0 1 3.77952,-3.7795 h 45.35433 a 3.779528,3.779528 0 0 1 3.77953,3.7795 v 45.3544 a 3.779528,3.779528 0 0 1 -3.77953,3.7795 h -45.35433 a 3.779528,3.779528 0 0 1 -3.77952,-3.7795 z"
         inkscape:connector-curvature="0" />
      <path
         id="path9107"
         style="fill:none;stroke:#000000"
         d="m 27.543307,1315.8425 a 3.779528,3.779528 0 0 1 3.779528,-3.7795 h 45.35433 a 3.779528,3.779528 0 0 1 3.779528,3.7795 v 45.3544 a 3.779528,3.779528 0 0 1 -3.779528,3.7795 h -45.35433 a 3.779528,3.779528 0 0 1 -3.779528,-3.7795 z"
         inkscape:connector-curvature="0" />
      <path
         id="path9109"
         style="fill:none;stroke:#000000"
         d="m 1629.9213,1618.7981 a 6.14175,6.14175 0 1 0 -12.2835,0 6.14175,6.14175 0 1 0 12.2835,0 z"
         inkscape:connector-curvature="0" />
      <path
         id="path9111"
         style="fill:none;stroke:#000000"
         d="m 41.19685,1618.7981 a 6.141732,6.141732 0 1 0 -12.283464,0 6.141732,6.141732 0 1 0 12.283464,0 z"
         inkscape:connector-curvature="0" />
      <path
         id="path9113"
         style="fill:none;stroke:#000000"
         d="m 835.55905,1103.622 a 6.141732,6.141732 0 1 0 -12.28346,0 6.141732,6.141732 0 1 0 12.28346,0 z"
         inkscape:connector-curvature="0" />
      <path
         id="path9115"
         style="fill:none;stroke:#000000"
         d="m 1654.4882,1356.5197 a 6.14175,6.14175 0 1 0 -12.2835,0 6.14175,6.14175 0 1 0 12.2835,0 z"
         inkscape:connector-curvature="0" />
      <path
         id="path9117"
         style="fill:none;stroke:#000000"
         d="m 438.37795,1103.622 a 6.1417325,6.1417325 0 1 0 -12.28346,0 6.1417325,6.1417325 0 1 0 12.28346,0 z"
         inkscape:connector-curvature="0" />
      <path
         id="path9119"
         style="fill:none;stroke:#000000"
         d="m 438.37795,1618.7981 a 6.1417325,6.1417325 0 1 0 -12.28346,0 6.1417325,6.1417325 0 1 0 12.28346,0 z"
         inkscape:connector-curvature="0" />
      <path
         id="path9121"
         style="fill:none;stroke:#000000"
         d="m 1232.7402,1618.7981 a 6.14175,6.14175 0 1 0 -12.2835,0 6.14175,6.14175 0 1 0 12.2835,0 z"
         inkscape:connector-curvature="0" />
      <path
         id="path9123"
         style="fill:none;stroke:#000000"
         d="m -22.204724,1356.5197 a 6.1417325,6.1417325 0 1 0 -12.283465,0 6.1417325,6.1417325 0 1 0 12.283465,0 z"
         inkscape:connector-curvature="0" />
      <path
         id="path9125"
         style="fill:none;stroke:#000000"
         d="m 1232.7402,1103.622 a 6.14175,6.14175 0 1 0 -12.2835,0 6.14175,6.14175 0 1 0 12.2835,0 z"
         inkscape:connector-curvature="0" />
      <path
         id="path9127"
         style="fill:none;stroke:#000000"
         d="m 1629.9213,1103.622 a 6.14175,6.14175 0 1 0 -12.2835,0 6.14175,6.14175 0 1 0 12.2835,0 z"
         inkscape:connector-curvature="0" />
      <path
         id="path9129"
         style="fill:none;stroke:#000000"
         d="m 41.19685,1103.622 a 6.141732,6.141732 0 1 0 -12.283464,0 6.141732,6.141732 0 1 0 12.283464,0 z"
         inkscape:connector-curvature="0" />
      <path
         id="path9131"
         style="fill:none;stroke:#000000"
         d="m 835.55905,1618.7981 a 6.141732,6.141732 0 1 0 -12.28346,0 6.141732,6.141732 0 1 0 12.28346,0 z"
         inkscape:connector-curvature="0" />
      <path
         id="path9133"
         style="fill:none;stroke:#000000"
         d="m 894.23622,1384.063 a 3.779528,3.779528 0 0 1 -3.77953,-3.7795 v -83.5276 a 3.779528,3.779528 0 0 1 3.77953,-3.7795 h 28.44094 a 3.779528,3.779528 0 0 0 3.77953,-3.7795 v -45.3544 a 3.779528,3.779528 0 0 0 -3.77953,-3.7795 H 157.32283 a 3.779528,3.779528 0 0 0 -3.77952,3.7795 v 45.3544 a 3.779528,3.779528 0 0 0 3.77952,3.7795 h 32.22048 a 3.779528,3.779528 0 0 1 3.77952,3.7795 v 15.3071 a 3.779528,3.779528 0 0 0 -3.77952,3.7795 v 45.3544 a 3.779528,3.779528 0 0 0 3.77952,3.7795 h 14.22048 a 3.779528,3.779528 0 0 1 3.77952,3.7795 v 15.3071 a 3.779528,3.779528 0 0 0 -3.77952,3.7795 v 45.3544 a 3.779528,3.779528 0 0 0 3.77952,3.7795 h 5.57481 a 3.779528,3.779528 0 0 1 3.77952,3.7795 v 11.5276 a 3.779528,3.779528 0 0 1 -3.77952,3.7795 h -41.57481 a 3.779528,3.779528 0 0 0 -3.77952,3.7795 v 45.3544 a 3.779528,3.779528 0 0 0 3.77952,3.7795 h 110.89472 a 3.779528,3.779528 0 0 1 3.7795,3.7654 l 0.2543,68.0345 a 3.779528,3.779528 0 0 0 3.78287,3.7654 l 169.33672,-0.1509 a 3.779528,3.779528 0 0 0 2.75688,-1.1976 l 1.17961,-1.2611 a 3.779528,3.779528 0 0 1 3.56201,-1.1117 6.851031,6.851031 0 0 0 1.45339,0.156 h 45.35433 a 6.851031,6.851031 0 0 0 1.4534,-0.156 3.779528,3.779528 0 0 1 3.56201,1.1117 l 1.17961,1.2611 a 3.779528,3.779528 0 0 0 2.75678,1.1976 l 169.33682,0.1509 a 3.779528,3.779528 0 0 0 3.78287,-3.7654 l 0.25429,-68.0345 a 3.779528,3.779528 0 0 1 3.77951,-3.7654 h 164.89471 a 3.779528,3.779528 0 0 0 3.77953,-3.7795 v -64.441 a 3.779528,3.779528 0 0 1 3.77953,-3.7795 h 28.44094 a 3.779528,3.779528 0 0 0 3.77953,-3.7795 v -45.3544 a 3.779528,3.779528 0 0 0 -3.77953,-3.7795 z"
         inkscape:connector-curvature="0" />
    </g>
  </g>
</svg>
