<?xml version="1.0" encoding="UTF-8" standalone="no"?>
<!-- Created with Inkscape (http://www.inkscape.org/) -->

<svg
   xmlns:dc="http://purl.org/dc/elements/1.1/"
   xmlns:cc="http://creativecommons.org/ns#"
   xmlns:rdf="http://www.w3.org/1999/02/22-rdf-syntax-ns#"
   xmlns:svg="http://www.w3.org/2000/svg"
   xmlns="http://www.w3.org/2000/svg"
   xmlns:sodipodi="http://sodipodi.sourceforge.net/DTD/sodipodi-0.dtd"
   xmlns:inkscape="http://www.inkscape.org/namespaces/inkscape"
   width="500mm"
   height="210mm"
   viewBox="0 0 500 210"
   version="1.1"
   id="svg8"
   inkscape:version="0.92.4 (5da689c313, 2019-01-14)"
   sodipodi:docname="L3_plate.svg">
  <defs
     id="defs2">
    <marker
       style="overflow:visible"
       refY="0"
       refX="0"
       orient="auto"
       id="DistanceX">
      <path
         id="path3715"
         style="stroke:#000000;stroke-width:0.5"
         d="M 3,-3 -3,3 M 0,-5 V 5"
         inkscape:connector-curvature="0" />
    </marker>
    <pattern
       y="0"
       x="0"
       width="8"
       patternUnits="userSpaceOnUse"
       id="Hatch"
       height="8">
      <path
         id="path3718"
         stroke-width="0.25"
         stroke="#000000"
         linecap="square"
         d="M8 4 l-4,4" />
      <path
         id="path3720"
         stroke-width="0.25"
         stroke="#000000"
         linecap="square"
         d="M6 2 l-4,4" />
      <path
         id="path3722"
         stroke-width="0.25"
         stroke="#000000"
         linecap="square"
         d="M4 0 l-4,4" />
    </pattern>
    <symbol
       id="*MODEL_SPACE" />
    <symbol
       id="*PAPER_SPACE" />
  </defs>
  <sodipodi:namedview
     id="base"
     pagecolor="#ffffff"
     bordercolor="#666666"
     borderopacity="1.0"
     inkscape:pageopacity="0.0"
     inkscape:pageshadow="2"
     inkscape:zoom="0.35"
     inkscape:cx="47.142857"
     inkscape:cy="560"
     inkscape:document-units="mm"
     inkscape:current-layer="layer1"
     showgrid="false"
     inkscape:window-width="2560"
     inkscape:window-height="1377"
     inkscape:window-x="-8"
     inkscape:window-y="-8"
     inkscape:window-maximized="1" />
  <metadata
     id="metadata5">
    <rdf:RDF>
      <cc:Work
         rdf:about="">
        <dc:format>image/svg+xml</dc:format>
        <dc:type
           rdf:resource="http://purl.org/dc/dcmitype/StillImage" />
        <dc:title></dc:title>
      </cc:Work>
    </rdf:RDF>
  </metadata>
  <g
     inkscape:label="Layer 1"
     inkscape:groupmode="layer"
     id="layer1"
     transform="translate(0,-87)">
    <g
       id="g3853"
       inkscape:label="0"
       transform="matrix(0.26458333,0,0,0.26458333,35.687502,-166.9125)">
      <path
         id="path3729"
         style="fill:none;stroke:#000000"
         d="m 1558.0497,1241.9528 a 3.779528,3.779528 0 0 1 -3.2732,1.8897 h -13.553 a 3.779528,3.779528 0 0 1 -3.2732,-1.8897 3.779528,3.779528 0 0 0 -3.2731,-1.8898 h -45.3544 a 3.779528,3.779528 0 0 0 -3.2731,1.8898 3.779528,3.779528 0 0 1 -3.2732,1.8897 h -13.553 a 3.779528,3.779528 0 0 1 -3.2732,-1.8897 3.779528,3.779528 0 0 0 -3.2731,-1.8898 h -45.3544 a 3.779528,3.779528 0 0 0 -3.7795,3.7795 v 261.3544 a 3.779528,3.779528 0 0 0 3.7795,3.7795 h 45.3544 a 3.779528,3.779528 0 0 0 3.2731,-1.8898 3.779528,3.779528 0 0 1 3.2732,-1.8897 h 13.553 a 3.779528,3.779528 0 0 1 3.2732,1.8897 3.779528,3.779528 0 0 0 3.2731,1.8898 h 41.5748 a 3.779528,3.779528 0 0 1 3.7796,3.7795 v 11.5276 a 3.779528,3.779528 0 0 1 -3.7796,3.7795 h -41.5748 a 3.779528,3.779528 0 0 0 -3.7795,3.7795 v 45.3544 a 3.779528,3.779528 0 0 0 3.7795,3.7795 h 86.512 a 1.133858,1.133858 0 0 0 1.1338,-1.1339 v -0.2107 l 33.2881,-0.1244 a 3.779528,3.779528 0 0 0 3.7654,-3.7829 l -0.023,-25.4559 a 3.779528,3.779528 0 0 0 -1.1977,-2.7568 l -1.3893,-1.2995 a 3.779528,3.779528 0 0 1 -1.1116,-3.5621 6.851031,6.851031 0 0 0 0.1559,-1.4533 v -45.3544 a 6.851031,6.851031 0 0 0 -0.1559,-1.4534 3.779528,3.779528 0 0 1 1.1116,-3.562 l 1.3893,-1.2995 a 3.779528,3.779528 0 0 0 1.1977,-2.7569 l 0.023,-25.4558 a 3.779528,3.779528 0 0 0 -3.7654,-3.7829 l -33.2881,-0.1244 v -0.2107 a 1.133858,1.133858 0 0 0 -1.1338,-1.1339 h -10.7324 a 3.779528,3.779528 0 0 1 -3.7796,-3.7795 v -11.5276 a 3.779528,3.779528 0 0 1 3.7796,-3.7795 h 11.8662 v -1.3446 l 33.2881,-0.1244 a 3.779528,3.779528 0 0 0 3.7654,-3.7829 l -0.023,-25.4559 a 3.779528,3.779528 0 0 0 -1.1977,-2.7568 l -1.3893,-1.2995 a 3.779528,3.779528 0 0 1 -1.1116,-3.5621 6.851031,6.851031 0 0 0 0.1559,-1.4533 v -45.3544 a 6.851031,6.851031 0 0 0 -0.1559,-1.4534 3.779528,3.779528 0 0 1 1.1116,-3.562 l 1.3893,-1.2995 a 3.779528,3.779528 0 0 0 1.1977,-2.7569 l 0.023,-25.4558 a 3.779528,3.779528 0 0 0 -3.7654,-3.7829 l -33.2881,-0.1244 v -1.3446 h -11.8662 a 3.779528,3.779528 0 0 1 -3.7796,-3.7795 v -11.5276 a 3.779528,3.779528 0 0 1 3.7796,-3.7795 h 41.5748 a 3.779528,3.779528 0 0 0 3.7795,-3.7795 v -45.3544 a 3.779528,3.779528 0 0 0 -3.7795,-3.7795 h -45.3544 a 3.779528,3.779528 0 0 0 -3.2731,1.8898 z"
         inkscape:connector-curvature="0" />
      <path
         id="path3731"
         style="fill:none;stroke:#000000"
         d="M -68.031496,1122.5197 A 68.031496,68.031496 0 0 1 0,1054.4882 h 1620 a 68.031496,68.031496 0 0 1 68.0315,68.0315 v 468 A 68.031496,68.031496 0 0 1 1620,1658.5512 H 0 a 68.031496,68.031496 0 0 1 -68.031496,-68.0315 z"
         inkscape:connector-curvature="0" />
      <path
         id="path3733"
         style="fill:none;stroke:#000000"
         d="m 1228.6772,1240.063 a 3.779528,3.779528 0 0 1 3.7795,3.7795 v 45.3544 a 3.779528,3.779528 0 0 1 -3.7795,3.7795 h -45.3544 a 3.779528,3.779528 0 0 1 -3.7795,-3.7795 v -45.3544 a 3.779528,3.779528 0 0 1 3.7795,-3.7795 z"
         inkscape:connector-curvature="0" />
      <path
         id="path3735"
         style="fill:none;stroke:#000000"
         d="m 1390.6772,1150.9606 a 3.779528,3.779528 0 0 1 3.7795,3.7796 v 45.3543 a 3.779528,3.779528 0 0 1 -3.7795,3.7795 h -45.3544 a 3.779528,3.779528 0 0 1 -3.7795,-3.7795 v -45.3543 a 3.779528,3.779528 0 0 1 3.7795,-3.7796 z"
         inkscape:connector-curvature="0" />
      <path
         id="path3737"
         style="fill:none;stroke:#000000"
         d="m 1251.5433,1243.8425 a 3.779528,3.779528 0 0 1 3.7795,-3.7795 h 45.3544 a 3.779528,3.779528 0 0 1 3.7795,3.7795 v 45.3544 a 3.779528,3.779528 0 0 1 -3.7795,3.7795 h -45.3544 a 3.779528,3.779528 0 0 1 -3.7795,-3.7795 z"
         inkscape:connector-curvature="0" />
      <path
         id="path3739"
         style="fill:none;stroke:#000000"
         d="m 1251.5433,1154.7402 a 3.779528,3.779528 0 0 1 3.7795,-3.7796 h 45.3544 a 3.779528,3.779528 0 0 1 3.7795,3.7796 v 45.3543 a 3.779528,3.779528 0 0 1 -3.7795,3.7795 h -45.3544 a 3.779528,3.779528 0 0 1 -3.7795,-3.7795 z"
         inkscape:connector-curvature="0" />
      <path
         id="path3741"
         style="fill:none;stroke:#000000"
         d="m 1232.4567,1200.0945 v -45.3543 a 3.779528,3.779528 0 0 0 -3.7795,-3.7796 h -45.3544 a 3.779528,3.779528 0 0 0 -3.7795,3.7796 v 45.3543 a 3.779528,3.779528 0 0 0 3.7795,3.7795 h 45.3544 a 3.779528,3.779528 0 0 0 3.7795,-3.7795 z"
         inkscape:connector-curvature="0" />
      <path
         id="path3743"
         style="fill:none;stroke:#000000"
         d="m 9.543307,1154.7402 a 3.779528,3.779528 0 0 1 3.779528,-3.7796 h 45.35433 a 3.779528,3.779528 0 0 1 3.779528,3.7796 v 45.3543 a 3.779528,3.779528 0 0 1 -3.779528,3.7795 h -45.35433 a 3.779528,3.779528 0 0 1 -3.779528,-3.7795 z"
         inkscape:connector-curvature="0" />
      <path
         id="path3745"
         style="fill:none;stroke:#000000"
         d="m 477.54331,1154.7402 a 3.779528,3.779528 0 0 1 3.77952,-3.7796 h 45.35433 a 3.779528,3.779528 0 0 1 3.77953,3.7796 v 45.3543 a 3.779528,3.779528 0 0 1 -3.77953,3.7795 h -45.35433 a 3.779528,3.779528 0 0 1 -3.77952,-3.7795 z"
         inkscape:connector-curvature="0" />
      <path
         id="path3747"
         style="fill:none;stroke:#000000"
         d="m 206.45669,1200.0945 v -45.3543 a 3.779528,3.779528 0 0 0 -3.77953,-3.7796 h -45.35433 a 3.779528,3.779528 0 0 0 -3.77952,3.7796 v 45.3543 a 3.779528,3.779528 0 0 0 3.77952,3.7795 h 45.35433 a 3.779528,3.779528 0 0 0 3.77953,-3.7795 z"
         inkscape:connector-curvature="0" />
      <path
         id="path3749"
         style="fill:none;stroke:#000000"
         d="m 549.54331,1154.7402 a 3.779528,3.779528 0 0 1 3.77953,-3.7796 h 45.35432 a 3.779528,3.779528 0 0 1 3.77953,3.7796 v 45.3543 a 3.779528,3.779528 0 0 1 -3.77953,3.7795 h -45.35432 a 3.779528,3.779528 0 0 1 -3.77953,-3.7795 z"
         inkscape:connector-curvature="0" />
      <path
         id="path3751"
         style="fill:none;stroke:#000000"
         d="m 369.54331,1154.7402 a 3.779528,3.779528 0 0 1 3.77952,-3.7796 h 45.35433 a 3.779528,3.779528 0 0 1 3.77953,3.7796 v 45.3543 a 3.779528,3.779528 0 0 1 -3.77953,3.7795 h -45.35433 a 3.779528,3.779528 0 0 1 -3.77952,-3.7795 z"
         inkscape:connector-curvature="0" />
      <path
         id="path3753"
         style="fill:none;stroke:#000000"
         d="m 274.67716,1150.9606 a 3.779528,3.779528 0 0 1 3.77953,3.7796 v 45.3543 a 3.779528,3.779528 0 0 1 -3.77953,3.7795 h -45.35433 a 3.779528,3.779528 0 0 1 -3.77952,-3.7795 v -45.3543 a 3.779528,3.779528 0 0 1 3.77952,-3.7796 z"
         inkscape:connector-curvature="0" />
      <path
         id="path3755"
         style="fill:none;stroke:#000000"
         d="m 297.54331,1154.7402 v 45.3543 a 3.779528,3.779528 0 0 0 3.77952,3.7795 h 45.35433 a 3.779528,3.779528 0 0 0 3.77953,-3.7795 v -45.3543 a 3.779528,3.779528 0 0 0 -3.77953,-3.7796 h -45.35433 a 3.779528,3.779528 0 0 0 -3.77952,3.7796 z"
         inkscape:connector-curvature="0" />
      <path
         id="path3757"
         style="fill:none;stroke:#000000"
         d="m 621.54331,1154.7402 a 3.779528,3.779528 0 0 1 3.77953,-3.7796 h 45.35432 a 3.779528,3.779528 0 0 1 3.77953,3.7796 v 45.3543 a 3.779528,3.779528 0 0 1 -3.77953,3.7795 h -45.35432 a 3.779528,3.779528 0 0 1 -3.77953,-3.7795 z"
         inkscape:connector-curvature="0" />
      <path
         id="path3759"
         style="fill:none;stroke:#000000"
         d="m 1557.5433,1154.7402 a 3.779528,3.779528 0 0 1 3.7795,-3.7796 h 45.3544 a 3.779528,3.779528 0 0 1 3.7795,3.7796 v 45.3543 a 3.779528,3.779528 0 0 1 -3.7795,3.7795 h -45.3544 a 3.779528,3.779528 0 0 1 -3.7795,-3.7795 z"
         inkscape:connector-curvature="0" />
      <path
         id="path3761"
         style="fill:none;stroke:#000000"
         d="m 1343.0123,1528.263 a 3.779528,3.779528 0 0 1 3.7829,-3.7654 l 25.4558,0.023 a 3.779528,3.779528 0 0 1 2.7569,1.1977 l 1.2995,1.3893 a 3.779528,3.779528 0 0 0 3.562,1.1116 6.851031,6.851031 0 0 1 1.4534,-0.1559 h 45.3544 a 6.851031,6.851031 0 0 1 1.4534,0.1559 3.779528,3.779528 0 0 0 3.562,-1.1116 l 1.2995,-1.3893 a 3.779528,3.779528 0 0 1 2.7569,-1.1977 l 25.4558,-0.023 a 3.779528,3.779528 0 0 1 3.7829,3.7654 l 0.2488,66.5761 a 3.779528,3.779528 0 0 1 -3.7734,3.7936 l -24.9404,0.04 h -87.4834 a 3.779528,3.779528 0 0 1 -0.5287,-0.037 h -1.9737 a 3.779528,3.779528 0 0 1 -3.7734,-3.7936 z"
         inkscape:connector-curvature="0" />
      <path
         id="path3763"
         style="fill:none;stroke:#000000"
         d="m 1534.6772,1150.9606 a 3.779528,3.779528 0 0 1 3.7795,3.7796 v 45.3543 a 3.779528,3.779528 0 0 1 -3.7795,3.7795 h -45.3544 a 3.779528,3.779528 0 0 1 -3.7795,-3.7795 v -45.3543 a 3.779528,3.779528 0 0 1 3.7795,-3.7796 z"
         inkscape:connector-curvature="0" />
      <path
         id="path3765"
         style="fill:none;stroke:#000000"
         d="m 1413.5433,1154.7402 a 3.779528,3.779528 0 0 1 3.7795,-3.7796 h 45.3544 a 3.779528,3.779528 0 0 1 3.7795,3.7796 v 45.3543 a 3.779528,3.779528 0 0 1 -3.7795,3.7795 h -45.3544 a 3.779528,3.779528 0 0 1 -3.7795,-3.7795 z"
         inkscape:connector-curvature="0" />
      <path
         id="path3767"
         style="fill:none;stroke:#000000"
         d="m 1017.5433,1154.7402 v 45.3543 a 3.779528,3.779528 0 0 0 3.7795,3.7795 h 45.3544 a 3.779528,3.779528 0 0 0 3.7795,-3.7795 v -45.3543 a 3.779528,3.779528 0 0 0 -3.7795,-3.7796 h -45.3544 a 3.779528,3.779528 0 0 0 -3.7795,3.7796 z"
         inkscape:connector-curvature="0" />
      <path
         id="path3769"
         style="fill:none;stroke:#000000"
         d="m 1160.4567,1200.0945 v -45.3543 a 3.779528,3.779528 0 0 0 -3.7795,-3.7796 h -45.3544 a 3.779528,3.779528 0 0 0 -3.7795,3.7796 v 45.3543 a 3.779528,3.779528 0 0 0 3.7795,3.7795 h 45.3544 a 3.779528,3.779528 0 0 0 3.7795,-3.7795 z"
         inkscape:connector-curvature="0" />
      <path
         id="path3771"
         style="fill:none;stroke:#000000"
         d="m 693.54331,1154.7402 a 3.779528,3.779528 0 0 1 3.77953,-3.7796 h 45.35432 a 3.779528,3.779528 0 0 1 3.77953,3.7796 v 45.3543 a 3.779528,3.779528 0 0 1 -3.77953,3.7795 h -45.35432 a 3.779528,3.779528 0 0 1 -3.77953,-3.7795 z"
         inkscape:connector-curvature="0" />
      <path
         id="path3773"
         style="fill:none;stroke:#000000"
         d="m 945.54331,1154.7402 a 3.779528,3.779528 0 0 1 3.77953,-3.7796 h 45.35432 a 3.779528,3.779528 0 0 1 3.77953,3.7796 v 45.3543 a 3.779528,3.779528 0 0 1 -3.77953,3.7795 h -45.35432 a 3.779528,3.779528 0 0 1 -3.77953,-3.7795 z"
         inkscape:connector-curvature="0" />
      <path
         id="path3775"
         style="fill:none;stroke:#000000"
         d="m 922.67716,1150.9606 a 3.779528,3.779528 0 0 1 3.77953,3.7796 v 45.3543 a 3.779528,3.779528 0 0 1 -3.77953,3.7795 h -45.35432 a 3.779528,3.779528 0 0 1 -3.77953,-3.7795 v -45.3543 a 3.779528,3.779528 0 0 1 3.77953,-3.7796 z"
         inkscape:connector-curvature="0" />
      <path
         id="path3777"
         style="fill:none;stroke:#000000"
         d="m 801.54331,1154.7402 a 3.779528,3.779528 0 0 1 3.77953,-3.7796 h 45.35432 a 3.779528,3.779528 0 0 1 3.77953,3.7796 v 45.3543 a 3.779528,3.779528 0 0 1 -3.77953,3.7795 h -45.35432 a 3.779528,3.779528 0 0 1 -3.77953,-3.7795 z"
         inkscape:connector-curvature="0" />
      <path
         id="path3779"
         style="fill:none;stroke:#000000"
         d="m 81.543307,1243.8425 a 3.779528,3.779528 0 0 1 3.779528,-3.7795 h 45.354325 a 3.779528,3.779528 0 0 1 3.77953,3.7795 v 45.3544 a 3.779528,3.779528 0 0 1 -3.77953,3.7795 H 85.322835 a 3.779528,3.779528 0 0 1 -3.779528,-3.7795 z"
         inkscape:connector-curvature="0" />
      <path
         id="path3781"
         style="fill:none;stroke:#000000"
         d="m 9.543307,1243.8425 a 3.779528,3.779528 0 0 1 3.779528,-3.7795 h 45.35433 a 3.779528,3.779528 0 0 1 3.779528,3.7795 v 45.3544 a 3.779528,3.779528 0 0 1 -3.779528,3.7795 h -45.35433 a 3.779528,3.779528 0 0 1 -3.779528,-3.7795 z"
         inkscape:connector-curvature="0" />
      <path
         id="path3783"
         style="fill:none;stroke:#000000"
         d="m 1390.6772,1384.063 a 3.779528,3.779528 0 0 1 3.7795,3.7795 v 45.3544 a 3.779528,3.779528 0 0 1 -3.7795,3.7795 h -45.3544 a 3.779528,3.779528 0 0 1 -3.7795,-3.7795 v -45.3544 a 3.779528,3.779528 0 0 1 3.7795,-3.7795 z"
         inkscape:connector-curvature="0" />
      <path
         id="path3785"
         style="fill:none;stroke:#000000"
         d="m 135.54331,1387.8425 a 3.779528,3.779528 0 0 1 3.77952,-3.7795 h 45.35433 a 3.779528,3.779528 0 0 1 3.77953,3.7795 v 45.3544 a 3.779528,3.779528 0 0 1 -3.77953,3.7795 h -45.35433 a 3.779528,3.779528 0 0 1 -3.77952,-3.7795 z"
         inkscape:connector-curvature="0" />
      <path
         id="path3787"
         style="fill:none;stroke:#000000"
         d="m 1107.5433,1315.8425 a 3.779528,3.779528 0 0 1 3.7795,-3.7795 h 45.3544 a 3.779528,3.779528 0 0 1 3.7795,3.7795 v 45.3544 a 3.779528,3.779528 0 0 1 -3.7795,3.7795 h -45.3544 a 3.779528,3.779528 0 0 1 -3.7795,-3.7795 z"
         inkscape:connector-curvature="0" />
      <path
         id="path3789"
         style="fill:none;stroke:#000000"
         d="m 1341.5433,1315.8425 a 3.779528,3.779528 0 0 1 3.7795,-3.7795 h 45.3544 a 3.779528,3.779528 0 0 1 3.7795,3.7795 v 45.3544 a 3.779528,3.779528 0 0 1 -3.7795,3.7795 h -45.3544 a 3.779528,3.779528 0 0 1 -3.7795,-3.7795 z"
         inkscape:connector-curvature="0" />
      <path
         id="path3791"
         style="fill:none;stroke:#000000"
         d="m 1300.6772,1312.063 a 3.779528,3.779528 0 0 1 3.7795,3.7795 v 45.3544 a 3.779528,3.779528 0 0 1 -3.7795,3.7795 h -45.3544 a 3.779528,3.779528 0 0 1 -3.7795,-3.7795 v -45.3544 a 3.779528,3.779528 0 0 1 3.7795,-3.7795 z"
         inkscape:connector-curvature="0" />
      <path
         id="path3793"
         style="fill:none;stroke:#000000"
         d="m 36.543307,1387.8425 a 3.779528,3.779528 0 0 1 3.779528,-3.7795 h 45.35433 a 3.779528,3.779528 0 0 1 3.779528,3.7795 v 45.3544 a 3.779528,3.779528 0 0 1 -3.779528,3.7795 h -45.35433 a 3.779528,3.779528 0 0 1 -3.779528,-3.7795 z"
         inkscape:connector-curvature="0" />
      <path
         id="path3795"
         style="fill:none;stroke:#000000"
         d="m 1228.6772,1312.063 a 3.779528,3.779528 0 0 1 3.7795,3.7795 v 45.3544 a 3.779528,3.779528 0 0 1 -3.7795,3.7795 h -45.3544 a 3.779528,3.779528 0 0 1 -3.7795,-3.7795 v -45.3544 a 3.779528,3.779528 0 0 1 3.7795,-3.7795 z"
         inkscape:connector-curvature="0" />
      <path
         id="path3797"
         style="fill:none;stroke:#000000"
         d="m 247.67716,1528.063 a 3.779528,3.779528 0 0 1 3.77953,3.7795 v 45.3544 a 3.779528,3.779528 0 0 1 -3.77953,3.7795 h -45.35433 a 3.779528,3.779528 0 0 1 -3.77952,-3.7795 v -45.3544 a 3.779528,3.779528 0 0 1 3.77952,-3.7795 z"
         inkscape:connector-curvature="0" />
      <path
         id="path3799"
         style="fill:none;stroke:#000000"
         d="m 1179.5433,1531.8425 a 3.779528,3.779528 0 0 1 3.7795,-3.7795 h 45.3544 a 3.779528,3.779528 0 0 1 3.7795,3.7795 v 45.3544 a 3.779528,3.779528 0 0 1 -3.7795,3.7795 h -45.3544 a 3.779528,3.779528 0 0 1 -3.7795,-3.7795 z"
         inkscape:connector-curvature="0" />
      <path
         id="path3801"
         style="fill:none;stroke:#000000"
         d="m 828.54331,1531.8425 a 3.779528,3.779528 0 0 1 3.77953,-3.7795 h 45.35432 a 3.779528,3.779528 0 0 1 3.77953,3.7795 v 45.3544 a 3.779528,3.779528 0 0 1 -3.77953,3.7795 h -45.35432 a 3.779528,3.779528 0 0 1 -3.77953,-3.7795 z"
         inkscape:connector-curvature="0" />
      <path
         id="path3803"
         style="fill:none;stroke:#000000"
         d="m 787.67716,1528.063 a 3.779528,3.779528 0 0 1 3.77953,3.7795 v 45.3544 a 3.779528,3.779528 0 0 1 -3.77953,3.7795 h -45.35432 a 3.779528,3.779528 0 0 1 -3.77953,-3.7795 v -45.3544 a 3.779528,3.779528 0 0 1 3.77953,-3.7795 z"
         inkscape:connector-curvature="0" />
      <path
         id="path3805"
         style="fill:none;stroke:#000000"
         d="m 1107.5433,1531.8425 a 3.779528,3.779528 0 0 1 3.7795,-3.7795 h 45.3544 a 3.779528,3.779528 0 0 1 3.7795,3.7795 v 45.3544 a 3.779528,3.779528 0 0 1 -3.7795,3.7795 h -45.3544 a 3.779528,3.779528 0 0 1 -3.7795,-3.7795 z"
         inkscape:connector-curvature="0" />
      <path
         id="path3807"
         style="fill:none;stroke:#000000"
         d="m 1300.6772,1528.063 a 3.779528,3.779528 0 0 1 3.7795,3.7795 v 45.3544 a 3.779528,3.779528 0 0 1 -3.7795,3.7795 h -45.3544 a 3.779528,3.779528 0 0 1 -3.7795,-3.7795 v -45.3544 a 3.779528,3.779528 0 0 1 3.7795,-3.7795 z"
         inkscape:connector-curvature="0" />
      <path
         id="path3809"
         style="fill:none;stroke:#000000"
         d="m 1228.6772,1456.063 a 3.779528,3.779528 0 0 1 3.7795,3.7795 v 45.3544 a 3.779528,3.779528 0 0 1 -3.7795,3.7795 h -45.3544 a 3.779528,3.779528 0 0 1 -3.7795,-3.7795 v -45.3544 a 3.779528,3.779528 0 0 1 3.7795,-3.7795 z"
         inkscape:connector-curvature="0" />
      <path
         id="path3811"
         style="fill:none;stroke:#000000"
         d="m 1390.6772,1456.063 a 3.779528,3.779528 0 0 1 3.7795,3.7795 v 45.3544 a 3.779528,3.779528 0 0 1 -3.7795,3.7795 h -45.3544 a 3.779528,3.779528 0 0 1 -3.7795,-3.7795 v -45.3544 a 3.779528,3.779528 0 0 1 3.7795,-3.7795 z"
         inkscape:connector-curvature="0" />
      <path
         id="path3813"
         style="fill:none;stroke:#000000"
         d="m 1107.5433,1243.8425 a 3.779528,3.779528 0 0 1 3.7795,-3.7795 h 45.3544 a 3.779528,3.779528 0 0 1 3.7795,3.7795 v 45.3544 a 3.779528,3.779528 0 0 1 -3.7795,3.7795 h -45.3544 a 3.779528,3.779528 0 0 1 -3.7795,-3.7795 z"
         inkscape:connector-curvature="0" />
      <path
         id="path3815"
         style="fill:none;stroke:#000000"
         d="m 1390.6772,1240.063 a 3.779528,3.779528 0 0 1 3.7795,3.7795 v 45.3544 a 3.779528,3.779528 0 0 1 -3.7795,3.7795 h -45.3544 a 3.779528,3.779528 0 0 1 -3.7795,-3.7795 v -45.3544 a 3.779528,3.779528 0 0 1 3.7795,-3.7795 z"
         inkscape:connector-curvature="0" />
      <path
         id="path3817"
         style="fill:none;stroke:#000000"
         d="m 117.54331,1315.8425 a 3.779528,3.779528 0 0 1 3.77952,-3.7795 h 45.35433 a 3.779528,3.779528 0 0 1 3.77953,3.7795 v 45.3544 a 3.779528,3.779528 0 0 1 -3.77953,3.7795 h -45.35433 a 3.779528,3.779528 0 0 1 -3.77952,-3.7795 z"
         inkscape:connector-curvature="0" />
      <path
         id="path3819"
         style="fill:none;stroke:#000000"
         d="m 27.543307,1315.8425 a 3.779528,3.779528 0 0 1 3.779528,-3.7795 h 45.35433 a 3.779528,3.779528 0 0 1 3.779528,3.7795 v 45.3544 a 3.779528,3.779528 0 0 1 -3.779528,3.7795 h -45.35433 a 3.779528,3.779528 0 0 1 -3.779528,-3.7795 z"
         inkscape:connector-curvature="0" />
      <path
         id="path3821"
         style="fill:none;stroke:#000000"
         d="m 1041.9958,1458.4437 a 3.779528,3.779528 0 0 1 3.7734,-3.7937 l 10.6939,-0.017 a 3.779528,3.779528 0 0 0 3.7734,-3.7936 l -0.2488,-66.5761 a 3.779528,3.779528 0 0 0 -3.7829,-3.7654 l -25.4558,0.023 a 3.779528,3.779528 0 0 0 -2.7569,1.1977 l -1.2995,1.3893 a 3.779528,3.779528 0 0 1 -3.562,1.1116 6.851031,6.851031 0 0 0 -1.4534,-0.1559 h -45.35436 a 6.851031,6.851031 0 0 0 -1.4534,0.1559 3.779528,3.779528 0 0 1 -3.56201,-1.1116 l -1.29955,-1.3893 a 3.779528,3.779528 0 0 0 -2.75684,-1.1977 l -25.45585,-0.023 a 3.779528,3.779528 0 0 0 -3.78287,3.7654 l -0.241,64.4783 a 3.779528,3.779528 0 0 1 -3.78287,3.7654 l -10.19326,-0.01 a 3.779528,3.779528 0 0 0 -3.78287,3.7654 l -0.12442,33.288 h -1.34459 v 87.6459 a 3.779528,3.779528 0 0 0 3.77953,3.7795 h 45.35432 a 3.779528,3.779528 0 0 0 3.77953,-3.7795 v -45.3544 h 37.08661 v 45.3544 a 3.779528,3.779528 0 0 0 3.7795,3.7795 h 45.3544 a 3.779528,3.779528 0 0 0 3.7795,-3.7795 v -45.3544 a 3.779528,3.779528 0 0 0 -3.7795,-3.7795 h -11.6557 a 3.779528,3.779528 0 0 1 -3.7795,-3.7654 z"
         inkscape:connector-curvature="0" />
      <path
         id="path3823"
         style="fill:none;stroke:#000000"
         d="m 946.75802,1308.2976 a 3.779528,3.779528 0 0 1 -3.7795,3.7654 h -29.65568 a 3.779528,3.779528 0 0 0 -3.77953,3.7795 v 45.3544 a 3.779528,3.779528 0 0 0 3.77953,3.7795 h 45.35432 a 3.779528,3.779528 0 0 0 3.77953,-3.7795 v -41.5749 a 3.779528,3.779528 0 0 1 3.77953,-3.7795 h 29.52756 a 3.779528,3.779528 0 0 1 3.77953,3.7795 v 41.5749 a 3.779528,3.779528 0 0 0 3.77949,3.7795 h 45.3544 a 3.779528,3.779528 0 0 0 3.7795,-3.7795 v -46.7697 a 3.779528,3.779528 0 0 1 3.7734,-3.7796 l 9.233,-0.015 a 3.779528,3.779528 0 0 0 3.7734,-3.7936 l -0.2488,-66.5761 a 3.779528,3.779528 0 0 0 -3.7829,-3.7654 l -25.4558,0.023 a 3.779528,3.779528 0 0 0 -2.7569,1.1977 l -1.2995,1.3893 a 3.779528,3.779528 0 0 1 -3.562,1.1116 6.851031,6.851031 0 0 0 -1.4534,-0.1559 h -45.35436 a 6.851031,6.851031 0 0 0 -1.4534,0.1559 3.779528,3.779528 0 0 1 -3.56201,-1.1116 l -1.29955,-1.3893 a 3.779528,3.779528 0 0 0 -2.75684,-1.1977 l -25.45585,-0.023 a 3.779528,3.779528 0 0 0 -3.78287,3.7654 z"
         inkscape:connector-curvature="0" />
      <path
         id="path3825"
         style="fill:none;stroke:#000000"
         d="m 146.02148,1528.063 a 3.779528,3.779528 0 0 1 -3.77951,-3.7654 l -0.25429,-68.0346 a 3.779528,3.779528 0 0 0 -3.78287,-3.7654 l -25.45585,0.023 a 3.779528,3.779528 0 0 0 -2.75685,1.1977 l -1.29954,1.3893 a 3.779528,3.779528 0 0 1 -3.56201,1.1116 6.851031,6.851031 0 0 0 -1.45339,-0.1559 H 58.322835 a 6.851031,6.851031 0 0 0 -1.453392,0.1559 3.779528,3.779528 0 0 1 -3.562011,-1.1116 l -1.299547,-1.3893 a 3.779528,3.779528 0 0 0 -2.756845,-1.1977 l -25.455847,-0.023 a 3.779528,3.779528 0 0 0 -3.782871,3.7654 l -0.238468,63.7995 a 3.779528,3.779528 0 0 1 -1.230547,2.7766 v 54.3578 a 3.779528,3.779528 0 0 0 3.779528,3.7795 h 45.35433 a 3.779528,3.779528 0 0 0 3.779528,-3.7795 v -41.5749 a 3.779528,3.779528 0 0 1 3.779527,-3.7795 h 29.52756 a 3.779528,3.779528 0 0 1 3.77953,3.7795 v 41.5749 a 3.779528,3.779528 0 0 0 3.77952,3.7795 h 45.35433 a 3.779528,3.779528 0 0 0 3.77953,-3.7795 v -45.3544 a 3.779528,3.779528 0 0 0 -3.77953,-3.7795 z"
         inkscape:connector-curvature="0" />
      <path
         id="path3827"
         style="fill:none;stroke:#000000"
         d="m 1629.9213,1618.7981 a 6.14175,6.14175 0 1 0 -12.2835,0 6.14175,6.14175 0 1 0 12.2835,0 z"
         inkscape:connector-curvature="0" />
      <path
         id="path3829"
         style="fill:none;stroke:#000000"
         d="m 41.19685,1618.7981 a 6.141732,6.141732 0 1 0 -12.283464,0 6.141732,6.141732 0 1 0 12.283464,0 z"
         inkscape:connector-curvature="0" />
      <path
         id="path3831"
         style="fill:none;stroke:#000000"
         d="m 835.55905,1103.622 a 6.141732,6.141732 0 1 0 -12.28346,0 6.141732,6.141732 0 1 0 12.28346,0 z"
         inkscape:connector-curvature="0" />
      <path
         id="path3833"
         style="fill:none;stroke:#000000"
         d="m 1654.4882,1356.5197 a 6.14175,6.14175 0 1 0 -12.2835,0 6.14175,6.14175 0 1 0 12.2835,0 z"
         inkscape:connector-curvature="0" />
      <path
         id="path3835"
         style="fill:none;stroke:#000000"
         d="m 438.37795,1103.622 a 6.1417325,6.1417325 0 1 0 -12.28346,0 6.1417325,6.1417325 0 1 0 12.28346,0 z"
         inkscape:connector-curvature="0" />
      <path
         id="path3837"
         style="fill:none;stroke:#000000"
         d="m 438.37795,1618.7981 a 6.1417325,6.1417325 0 1 0 -12.28346,0 6.1417325,6.1417325 0 1 0 12.28346,0 z"
         inkscape:connector-curvature="0" />
      <path
         id="path3839"
         style="fill:none;stroke:#000000"
         d="m 1232.7402,1618.7981 a 6.14175,6.14175 0 1 0 -12.2835,0 6.14175,6.14175 0 1 0 12.2835,0 z"
         inkscape:connector-curvature="0" />
      <path
         id="path3841"
         style="fill:none;stroke:#000000"
         d="m -22.204724,1356.5197 a 6.1417325,6.1417325 0 1 0 -12.283465,0 6.1417325,6.1417325 0 1 0 12.283465,0 z"
         inkscape:connector-curvature="0" />
      <path
         id="path3843"
         style="fill:none;stroke:#000000"
         d="m 1232.7402,1103.622 a 6.14175,6.14175 0 1 0 -12.2835,0 6.14175,6.14175 0 1 0 12.2835,0 z"
         inkscape:connector-curvature="0" />
      <path
         id="path3845"
         style="fill:none;stroke:#000000"
         d="m 1629.9213,1103.622 a 6.14175,6.14175 0 1 0 -12.2835,0 6.14175,6.14175 0 1 0 12.2835,0 z"
         inkscape:connector-curvature="0" />
      <path
         id="path3847"
         style="fill:none;stroke:#000000"
         d="m 41.19685,1103.622 a 6.141732,6.141732 0 1 0 -12.283464,0 6.141732,6.141732 0 1 0 12.283464,0 z"
         inkscape:connector-curvature="0" />
      <path
         id="path3849"
         style="fill:none;stroke:#000000"
         d="m 835.55905,1618.7981 a 6.141732,6.141732 0 1 0 -12.28346,0 6.141732,6.141732 0 1 0 12.28346,0 z"
         inkscape:connector-curvature="0" />
      <path
         id="path3851"
         style="fill:none;stroke:#000000"
         d="m 894.23622,1384.063 a 3.779528,3.779528 0 0 1 -3.77953,-3.7795 v -83.5276 a 3.779528,3.779528 0 0 1 3.77953,-3.7795 h 28.44094 a 3.779528,3.779528 0 0 0 3.77953,-3.7795 v -45.3544 a 3.779528,3.779528 0 0 0 -3.77953,-3.7795 H 157.32283 a 3.779528,3.779528 0 0 0 -3.77952,3.7795 v 45.3544 a 3.779528,3.779528 0 0 0 3.77952,3.7795 h 32.22048 a 3.779528,3.779528 0 0 1 3.77952,3.7795 v 15.3071 a 3.779528,3.779528 0 0 0 -3.77952,3.7795 v 45.3544 a 3.779528,3.779528 0 0 0 3.77952,3.7795 h 14.22048 a 3.779528,3.779528 0 0 1 3.77952,3.7795 v 15.3071 a 3.779528,3.779528 0 0 0 -3.77952,3.7795 v 45.3544 a 3.779528,3.779528 0 0 0 3.77952,3.7795 h 5.57481 a 3.779528,3.779528 0 0 1 3.77952,3.7795 v 11.5276 a 3.779528,3.779528 0 0 1 -3.77952,3.7795 h -41.57481 a 3.779528,3.779528 0 0 0 -3.77952,3.7795 v 45.3544 a 3.779528,3.779528 0 0 0 3.77952,3.7795 h 110.89472 a 3.779528,3.779528 0 0 1 3.7795,3.7654 l 0.2543,68.0345 a 3.779528,3.779528 0 0 0 3.78287,3.7654 l 169.33672,-0.1509 a 3.779528,3.779528 0 0 0 2.75688,-1.1976 l 1.17961,-1.2611 a 3.779528,3.779528 0 0 1 3.56201,-1.1117 6.851031,6.851031 0 0 0 1.45339,0.156 h 45.35433 a 6.851031,6.851031 0 0 0 1.4534,-0.156 3.779528,3.779528 0 0 1 3.56201,1.1117 l 1.17961,1.2611 a 3.779528,3.779528 0 0 0 2.75678,1.1976 l 169.33682,0.1509 a 3.779528,3.779528 0 0 0 3.78287,-3.7654 l 0.25429,-68.0345 a 3.779528,3.779528 0 0 1 3.77951,-3.7654 h 164.89471 a 3.779528,3.779528 0 0 0 3.77953,-3.7795 v -64.441 a 3.779528,3.779528 0 0 1 3.77953,-3.7795 h 28.44094 a 3.779528,3.779528 0 0 0 3.77953,-3.7795 v -45.3544 a 3.779528,3.779528 0 0 0 -3.77953,-3.7795 z"
         inkscape:connector-curvature="0" />
    </g>
  </g>
</svg>
