0
SECTION
2
HEADER
9
$INSUNITS
70
4
9
$ACADVER
1
AC1014
9
$HANDSEED
5
FFFF
0
ENDSEC
0
SECTION
2
TABLES
0
TABLE
2
VPORT
5
8
100
AcDbSymbolTable
0
ENDTAB
0
TABLE
2
LTYPE
5
5
100
AcDbSymbolTable
0
LTYPE
5
14
100
AcDbSymbolTableRecord
100
AcDbLinetypeTableRecord
2
BYBLOCK
70
0
0
LTYPE
5
15
100
AcDbSymbolTableRecord
100
AcDbLinetypeTableRecord
2
BYLAYER
70
0
0
ENDTAB
0
TABLE
2
LAYER
5
2
100
AcDbSymbolTable
70
2
0
LAYER
5
50
100
AcDbSymbolTableRecord
100
AcDbLayerTableRecord
2
0
70
0
6
CONTINUOUS
0
ENDTAB
0
TABLE
2
STYLE
5
3
100
AcDbSymbolTable
70
1
0
STYLE
5
11
100
AcDbSymbolTableRecord
100
AcDbTextStyleTableRecord
2
STANDARD
70
0
0
ENDTAB
0
TABLE
2
VIEW
5
6
100
AcDbSymbolTable
70
0
0
ENDTAB
0
TABLE
2
UCS
5
7
100
AcDbSymbolTable
70
0
0
ENDTAB
0
TABLE
2
APPID
5
9
100
AcDbSymbolTable
70
2
0
APPID
5
12
100
AcDbSymbolTableRecord
100
AcDbRegAppTableRecord
2
ACAD
70
0
0
ENDTAB
0
TABLE
2
DIMSTYLE
5
A
100
AcDbSymbolTable
70
1
0
ENDTAB
0
TABLE
2
BLOCK_RECORD
5
1
100
AcDbSymbolTable
70
1
0
BLOCK_RECORD
5
1F
100
AcDbSymbolTableRecord
100
AcDbBlockTableRecord
2
*MODEL_SPACE
0
BLOCK_RECORD
5
1B
100
AcDbSymbolTableRecord
100
AcDbBlockTableRecord
2
*PAPER_SPACE
0
ENDTAB
0
ENDSEC
0
SECTION
2
BLOCKS
0
BLOCK
5
20
100
AcDbEntity
100
AcDbBlockBegin
2
*MODEL_SPACE
0
ENDBLK
5
21
100
AcDbEntity
100
AcDbBlockEnd
0
BLOCK
5
1C
100
AcDbEntity
100
AcDbBlockBegin
2
*PAPER_SPACE
0
ENDBLK
5
1D
100
AcDbEntity
100
AcDbBlockEnd
0
ENDSEC
0
SECTION
2
ENTITIES
0
LWPOLYLINE
5
100
100
AcDbEntity
8
0
100
AcDbPolyline
90
4
70
1
43
0.0
10
-1.0000000149011612
20
-124.82500001490116
10
286.25000000000006
20
-124.82500001490116
10
286.25000000000006
20
-28.075000000000006
10
-1.0000000149011612
20
-28.07500000000001
0
CIRCLE
5
101
100
AcDbEntity
8
0
100
AcDbCircle
10
219.44999999254946
20
-131.30699999999999
30
0
40
1.6250000000000142
210
0
220
-0
230
1
0
CIRCLE
5
102
100
AcDbEntity
8
0
100
AcDbCircle
10
9.2749999925494482
20
4.9999999999999982
30
0
40
1.6250000000000009
210
0
220
-0
230
1
0
CIRCLE
5
103
100
AcDbEntity
8
0
100
AcDbCircle
10
429.62499999254953
20
4.9999999999999982
30
0
40
1.6250000000000142
210
0
220
-0
230
1
0
CIRCLE
5
104
100
AcDbEntity
8
0
100
AcDbCircle
10
324.53749999254956
20
4.9999999999999982
30
0
40
1.6250000000000142
210
0
220
-0
230
1
0
CIRCLE
5
105
100
AcDbEntity
8
0
100
AcDbCircle
10
-7.5000000074505779
20
-61.912500000000001
30
0
40
1.625000000000002
210
0
220
-0
230
1
0
CIRCLE
5
106
100
AcDbEntity
8
0
100
AcDbCircle
10
324.53749999254956
20
-131.30699999999999
30
0
40
1.6250000000000142
210
0
220
-0
230
1
0
CIRCLE
5
107
100
AcDbEntity
8
0
100
AcDbCircle
10
114.36249999254946
20
-131.30699999999999
30
0
40
1.6249999999999964
210
0
220
-0
230
1
0
CIRCLE
5
108
100
AcDbEntity
8
0
100
AcDbCircle
10
114.36249999254946
20
4.9999999999999982
30
0
40
1.6249999999999964
210
0
220
-0
230
1
0
CIRCLE
5
109
100
AcDbEntity
8
0
100
AcDbCircle
10
436.12500000745058
20
-61.912500000000001
30
0
40
1.6250000000000142
210
0
220
-0
230
1
0
CIRCLE
5
110
100
AcDbEntity
8
0
100
AcDbCircle
10
219.44999999254946
20
4.9999999999999982
30
0
40
1.6250000000000142
210
0
220
-0
230
1
0
CIRCLE
5
111
100
AcDbEntity
8
0
100
AcDbCircle
10
9.2749999925494482
20
-131.30699999999999
30
0
40
1.6250000000000009
210
0
220
-0
230
1
0
CIRCLE
5
112
100
AcDbEntity
8
0
100
AcDbCircle
10
429.62499999254953
20
-131.30699999999999
30
0
40
1.6250000000000142
210
0
220
-0
230
1
0
LWPOLYLINE
5
113
100
AcDbEntity
8
0
100
AcDbPolyline
90
4
70
1
43
0.0
10
289.76271228972382
20
-3.9999999999999991
10
289.76271228972382
20
-24.550000000000004
10
348.16249999999997
20
-24.550000000000004
10
348.16249999999997
20
-3.9999999999999991
0
LWPOLYLINE
5
114
100
AcDbEntity
8
0
100
AcDbPolyline
90
4
70
1
43
0.0
10
37.605000000000004
20
-3.9999999999999991
10
37.605000000000004
20
-24.550000000000004
10
114.80000000000001
20
-24.550000000000004
10
114.80000000000001
20
-3.9999999999999991
0
LWPOLYLINE
5
115
100
AcDbEntity
8
0
100
AcDbPolyline
90
8
70
1
43
0.0
10
348.16249999999997
20
-124.82500001490116
10
348.16249999999997
20
-104.27500000000001
10
329.11249999999995
20
-104.27500000000001
10
329.11249999999995
20
-85.224999999999994
10
309.0625
20
-85.224999999999994
10
309.0625
20
-104.27500000000001
10
290.01249999999999
20
-104.27500000000001
10
290.01249999999999
20
-124.82500001490116
0
LWPOLYLINE
5
116
100
AcDbEntity
8
0
100
AcDbPolyline
90
4
70
1
43
0.0
10
123.32499999999999
20
-3.9999999999999991
10
123.32499999999999
20
-24.550000000000004
10
200.52500000000006
20
-24.550000000000004
10
200.52500000000006
20
-3.9999999999999991
0
LWPOLYLINE
5
117
100
AcDbEntity
8
0
100
AcDbPolyline
90
4
70
1
43
0.0
10
290.01249999999999
20
-67.175000000000011
10
348.16249999999997
20
-67.175000000000011
10
348.16249999999997
20
-28.074999999999996
10
290.01249999999999
20
-28.074999999999996
0
LWPOLYLINE
5
118
100
AcDbEntity
8
0
100
AcDbPolyline
90
4
70
1
43
0.0
10
209.04999999999998
20
-3.9999999999999991
10
209.04999999999998
20
-24.550000000000004
10
286.25000000000006
20
-24.550000000000004
10
286.25000000000006
20
-3.9999999999999991
0
LWPOLYLINE
5
119
100
AcDbEntity
8
0
100
AcDbPolyline
90
4
70
1
43
0.0
10
351.92500000000007
20
-3.9999999999999991
10
351.92500000000007
20
-24.550000000000004
10
429.62500001490122
20
-24.550000000000004
10
429.62500001490122
20
-3.9999999999999991
0
LWPOLYLINE
5
120
100
AcDbEntity
8
0
100
AcDbPolyline
90
4
70
1
43
0.0
10
-1.0000000149011612
20
-3.9999999999999991
10
-1.0000000149011612
20
-24.550000000000004
10
19.549999999999983
20
-24.550000000000004
10
19.550000000000018
20
-3.9999999999999991
0
LWPOLYLINE
5
121
100
AcDbEntity
8
0
100
AcDbPolyline
90
4
70
1
43
0.0
10
429.62500001490122
20
-28.075000000000006
10
351.92500000000001
20
-28.07500000000001
10
351.92500000000001
20
-124.82500001490116
10
429.62500001490122
20
-124.82500001490116
0
LWPOLYLINE
5
122
100
AcDbEntity
8
0
100
AcDbPolyline
90
8
70
1
43
0.0
10
-14.000000000000002
20
1.2704163089562326e-15
42
-0.4142135623730952
10
0
20
14.000000000000002
10
428.62500000000006
20
13.999999999999908
42
-0.41421356237309342
10
442.62499999999989
20
0
10
442.625
20
-123.82499999999999
42
-0.41421356237309354
10
428.62500000000006
20
-137.82500000000002
10
3.5217880185035525e-15
20
-137.82500000000005
42
-0.41421356237309553
10
-14.000000000000021
20
-123.825
0
ENDSEC
0
SECTION
2
OBJECTS
0
DICTIONARY
5
C
100
AcDbDictionary
3
ACAD_GROUP
350
D
3
ACAD_MLINESTYLE
350
17
0
DICTIONARY
5
D
100
AcDbDictionary
0
DICTIONARY
5
1A
330
C
100
AcDbDictionary
0
DICTIONARY
5
17
100
AcDbDictionary
0
ENDSEC
0
EOF
