0
SECTION
2
HEADER
9
$INSUNITS
70
4
9
$ACADVER
1
AC1014
9
$HANDSEED
5
FFFF
0
ENDSEC
0
SECTION
2
TABLES
0
TABLE
2
VPORT
5
8
100
AcDbSymbolTable
0
ENDTAB
0
TABLE
2
LTYPE
5
5
100
AcDbSymbolTable
0
LTYPE
5
14
100
AcDbSymbolTableRecord
100
AcDbLinetypeTableRecord
2
BYBLOCK
70
0
0
LTYPE
5
15
100
AcDbSymbolTableRecord
100
AcDbLinetypeTableRecord
2
BYLAYER
70
0
0
ENDTAB
0
TABLE
2
LAYER
5
2
100
AcDbSymbolTable
70
2
0
LAYER
5
50
100
AcDbSymbolTableRecord
100
AcDbLayerTableRecord
2
0
70
0
6
CONTINUOUS
0
ENDTAB
0
TABLE
2
STYLE
5
3
100
AcDbSymbolTable
70
1
0
STYLE
5
11
100
AcDbSymbolTableRecord
100
AcDbTextStyleTableRecord
2
STANDARD
70
0
0
ENDTAB
0
TABLE
2
VIEW
5
6
100
AcDbSymbolTable
70
0
0
ENDTAB
0
TABLE
2
UCS
5
7
100
AcDbSymbolTable
70
0
0
ENDTAB
0
TABLE
2
APPID
5
9
100
AcDbSymbolTable
70
2
0
APPID
5
12
100
AcDbSymbolTableRecord
100
AcDbRegAppTableRecord
2
ACAD
70
0
0
ENDTAB
0
TABLE
2
DIMSTYLE
5
A
100
AcDbSymbolTable
70
1
0
ENDTAB
0
TABLE
2
BLOCK_RECORD
5
1
100
AcDbSymbolTable
70
1
0
BLOCK_RECORD
5
1F
100
AcDbSymbolTableRecord
100
AcDbBlockTableRecord
2
*MODEL_SPACE
0
BLOCK_RECORD
5
1B
100
AcDbSymbolTableRecord
100
AcDbBlockTableRecord
2
*PAPER_SPACE
0
ENDTAB
0
ENDSEC
0
SECTION
2
BLOCKS
0
BLOCK
5
20
100
AcDbEntity
100
AcDbBlockBegin
2
*MODEL_SPACE
0
ENDBLK
5
21
100
AcDbEntity
100
AcDbBlockEnd
0
BLOCK
5
1C
100
AcDbEntity
100
AcDbBlockBegin
2
*PAPER_SPACE
0
ENDBLK
5
1D
100
AcDbEntity
100
AcDbBlockEnd
0
ENDSEC
0
SECTION
2
ENTITIES
0
CIRCLE
5
100
100
AcDbEntity
8
0
100
AcDbCircle
10
-8.1819805153394682
20
-65.331980515339467
30
0
40
1.6249999999999998
210
0
220
-0
230
1
0
CIRCLE
5
101
100
AcDbEntity
8
0
100
AcDbCircle
10
-8.1819805153394682
20
8.1819805153394665
30
0
40
1.6249999999999998
210
0
220
-0
230
1
0
CIRCLE
5
102
100
AcDbEntity
8
0
100
AcDbCircle
10
65.331980515339467
20
-65.331980515339467
30
0
40
1.6250000000000053
210
0
220
-0
230
1
0
CIRCLE
5
103
100
AcDbEntity
8
0
100
AcDbCircle
10
65.331980515339467
20
8.1819805153394665
30
0
40
1.6250000000000053
210
0
220
-0
230
1
0
LWPOLYLINE
5
104
100
AcDbEntity
8
0
100
AcDbPolyline
90
8
70
1
43
0.0
10
2.5250000000000021
20
-41.625000000000007
42
-0.41421356237309553
10
3.5250000000000004
20
-40.625000000000007
10
15.525000000000002
20
-40.625
42
-0.4142135623730937
10
16.525000000000002
20
-41.625000000000007
10
16.525000000000002
20
-53.625000000000007
42
-0.41421356237309631
10
15.525000000000002
20
-54.625
10
3.5250000000000004
20
-54.625
42
-0.41421356237309537
10
2.5250000000000004
20
-53.625000000000007
0
LWPOLYLINE
5
105
100
AcDbEntity
8
0
100
AcDbPolyline
90
8
70
1
43
0.0
10
21.574999999999996
20
-41.625000000000007
10
21.574999999999996
20
-53.625000000000007
42
0.41421356237309243
10
22.574999999999999
20
-54.625
10
34.575000000000003
20
-54.625
42
0.41421356237309631
10
35.575000000000003
20
-53.625000000000007
10
35.575000000000003
20
-41.625000000000007
42
0.41421356237309243
10
34.575000000000003
20
-40.625000000000007
10
22.574999999999999
20
-40.625000000000007
42
0.41421356237309631
0
LWPOLYLINE
5
106
100
AcDbEntity
8
0
100
AcDbPolyline
90
8
70
1
43
0.0
10
53.625000000000007
20
-40.625000000000007
42
-0.41421356237309503
10
54.625
20
-41.625000000000007
10
54.625
20
-53.625000000000007
42
-0.41421356237309503
10
53.625000000000007
20
-54.625
10
41.625000000000007
20
-54.625
42
-0.41421356237309503
10
40.625000000000007
20
-53.625000000000007
10
40.625000000000007
20
-41.625000000000007
42
-0.41421356237309503
10
41.625000000000007
20
-40.625000000000007
0
LWPOLYLINE
5
107
100
AcDbEntity
8
0
100
AcDbPolyline
90
8
70
1
43
0.0
10
21.574999999999996
20
-22.574999999999999
10
21.574999999999996
20
-34.575000000000003
42
0.41421356237309115
10
22.574999999999999
20
-35.575000000000003
10
34.575000000000003
20
-35.575000000000003
42
0.41421356237309243
10
35.575000000000003
20
-34.575000000000003
10
35.575000000000003
20
-22.574999999999999
42
0.41421356237309115
10
34.575000000000003
20
-21.574999999999996
10
22.574999999999999
20
-21.574999999999996
42
0.41421356237308982
0
LWPOLYLINE
5
108
100
AcDbEntity
8
0
100
AcDbPolyline
90
8
70
1
43
0.0
10
40.625000000000007
20
-3.5250000000000004
42
-0.41421356237309537
10
41.625000000000007
20
-2.5250000000000004
10
53.625000000000007
20
-2.5250000000000021
42
-0.41421356237309553
10
54.625
20
-3.5250000000000004
10
54.625
20
-15.525000000000002
42
-0.41421356237309503
10
53.625000000000007
20
-16.525000000000002
10
41.625000000000014
20
-16.525000000000002
42
-0.41421356237309631
10
40.625000000000007
20
-15.525000000000002
0
LWPOLYLINE
5
109
100
AcDbEntity
8
0
100
AcDbPolyline
90
8
70
1
43
0.0
10
21.574999999999996
20
-3.5250000000000004
42
-0.41421356237309265
10
22.574999999999999
20
-2.5250000000000004
10
34.575000000000003
20
-2.5249999999999972
42
-0.41421356237309309
10
35.575000000000003
20
-3.5250000000000004
10
35.575000000000003
20
-15.525000000000002
42
-0.41421356237309243
10
34.575000000000003
20
-16.525000000000002
10
22.575000000000003
20
-16.525000000000002
42
-0.41421356237309176
10
21.574999999999996
20
-15.525000000000002
0
LWPOLYLINE
5
110
100
AcDbEntity
8
0
100
AcDbPolyline
90
8
70
1
43
0.0
10
40.625
20
-22.574999999999999
42
-0.41421356237309503
10
41.625000000000007
20
-21.574999999999996
10
53.625000000000007
20
-21.574999999999996
42
-0.41421356237309631
10
54.625
20
-22.574999999999999
10
54.625
20
-34.575000000000003
42
-0.41421356237309503
10
53.625000000000007
20
-35.575000000000003
10
41.625000000000014
20
-35.575000000000003
42
-0.41421356237309631
10
40.625000000000007
20
-34.575000000000003
0
LWPOLYLINE
5
111
100
AcDbEntity
8
0
100
AcDbPolyline
90
8
70
1
43
0.0
10
2.5249999999999999
20
-3.5250000000000004
42
-0.41421356237309492
10
3.5250000000000004
20
-2.5250000000000004
10
15.525000000000002
20
-2.5249999999999999
42
-0.41421356237309492
10
16.525000000000002
20
-3.5250000000000004
10
16.525000000000002
20
-15.525000000000002
42
-0.4142135623730937
10
15.525000000000002
20
-16.525000000000002
10
3.5250000000000004
20
-16.525000000000002
42
-0.41421356237309359
10
2.5250000000000004
20
-15.525000000000002
0
LWPOLYLINE
5
112
100
AcDbEntity
8
0
100
AcDbPolyline
90
8
70
1
43
0.0
10
2.5249999999999995
20
-22.574999999999999
42
-0.41421356237309243
10
3.5250000000000004
20
-21.574999999999996
10
15.525000000000002
20
-21.574999999999996
42
-0.41421356237309176
10
16.525000000000002
20
-22.574999999999999
10
16.525000000000002
20
-34.575000000000003
42
-0.41421356237309243
10
15.525000000000002
20
-35.575000000000003
10
3.5250000000000004
20
-35.575000000000003
42
-0.41421356237309459
10
2.5250000000000004
20
-34.575000000000003
0
LWPOLYLINE
5
113
100
AcDbEntity
8
0
100
AcDbPolyline
90
8
70
1
43
0.0
10
-15
20
5
42
-0.4142135623730957
10
-5
20
15
10
62.149999999999991
20
14.999999999999998
42
-0.41421356237309548
10
72.149999999999991
20
5
10
72.150000000000006
20
-62.149999999999991
42
-0.41421356237309581
10
62.150000000000006
20
-72.149999999999991
10
-5
20
-72.150000000000006
42
-0.41421356237309515
10
-15.000000000000004
20
-62.149999999999999
0
ENDSEC
0
SECTION
2
OBJECTS
0
DICTIONARY
5
C
100
AcDbDictionary
3
ACAD_GROUP
350
D
3
ACAD_MLINESTYLE
350
17
0
DICTIONARY
5
D
100
AcDbDictionary
0
DICTIONARY
5
1A
330
C
100
AcDbDictionary
0
DICTIONARY
5
17
100
AcDbDictionary
0
ENDSEC
0
EOF
