<?xml version="1.0" encoding="UTF-8" standalone="no"?>
<!-- Created with Inkscape (http://www.inkscape.org/) -->

<svg
   xmlns:dc="http://purl.org/dc/elements/1.1/"
   xmlns:cc="http://creativecommons.org/ns#"
   xmlns:rdf="http://www.w3.org/1999/02/22-rdf-syntax-ns#"
   xmlns:svg="http://www.w3.org/2000/svg"
   xmlns="http://www.w3.org/2000/svg"
   xmlns:sodipodi="http://sodipodi.sourceforge.net/DTD/sodipodi-0.dtd"
   xmlns:inkscape="http://www.inkscape.org/namespaces/inkscape"
   width="210mm"
   height="210mm"
   viewBox="0 0 210 210"
   version="1.1"
   id="svg821"
   inkscape:version="0.92.4 (5da689c313, 2019-01-14)"
   sodipodi:docname="L6.svg">
  <defs
     id="defs815">
    <marker
       style="overflow:visible"
       refY="0.0"
       refX="0.0"
       orient="auto"
       id="DistanceX">
      <path
         id="path1368"
         style="stroke:#000000; stroke-width:0.5"
         d="M 3,-3 L -3,3 M 0,-5 L  0,5" />
    </marker>
    <pattern
       y="0"
       x="0"
       width="8"
       patternUnits="userSpaceOnUse"
       id="Hatch"
       height="8">
      <path
         id="path1371"
         stroke-width="0.25"
         stroke="#000000"
         linecap="square"
         d="M8 4 l-4,4" />
      <path
         id="path1373"
         stroke-width="0.25"
         stroke="#000000"
         linecap="square"
         d="M6 2 l-4,4" />
      <path
         id="path1375"
         stroke-width="0.25"
         stroke="#000000"
         linecap="square"
         d="M4 0 l-4,4" />
    </pattern>
    <symbol
       id="*MODEL_SPACE" />
    <symbol
       id="*PAPER_SPACE" />
  </defs>
  <sodipodi:namedview
     id="base"
     pagecolor="#ffffff"
     bordercolor="#666666"
     borderopacity="1.0"
     inkscape:pageopacity="0.0"
     inkscape:pageshadow="2"
     inkscape:zoom="0.35"
     inkscape:cx="-64.285714"
     inkscape:cy="560"
     inkscape:document-units="mm"
     inkscape:current-layer="layer1"
     showgrid="false"
     inkscape:window-width="2560"
     inkscape:window-height="1377"
     inkscape:window-x="-8"
     inkscape:window-y="-8"
     inkscape:window-maximized="1" />
  <metadata
     id="metadata818">
    <rdf:RDF>
      <cc:Work
         rdf:about="">
        <dc:format>image/svg+xml</dc:format>
        <dc:type
           rdf:resource="http://purl.org/dc/dcmitype/StillImage" />
        <dc:title></dc:title>
      </cc:Work>
    </rdf:RDF>
  </metadata>
  <g
     inkscape:label="Layer 1"
     inkscape:groupmode="layer"
     id="layer1"
     transform="translate(0,-87)">
    <g
       id="g1394"
       inkscape:label="0"
       transform="matrix(0.26458333,0,0,0.26458333,76.425,-133.575)">
      <path
         id="path1382"
         style="fill:none;stroke:#000000"
         d="m 251.0815,1091.5957 a 4.15748,4.15748 0 1 0 -8.31496,0 4.15748,4.15748 0 1 0 8.31496,0 z"
         inkscape:connector-curvature="0" />
      <path
         id="path1384"
         style="fill:none;stroke:#000000"
         d="m -26.766541,1369.4437 a 4.15748,4.15748 0 1 0 -8.31496,0 4.15748,4.15748 0 1 0 8.31496,0 z"
         inkscape:connector-curvature="0" />
      <path
         id="path1386"
         style="fill:none;stroke:#000000"
         d="m -26.766541,1091.5957 a 4.15748,4.15748 0 1 0 -8.31496,0 4.15748,4.15748 0 1 0 8.31496,0 z"
         inkscape:connector-curvature="0" />
      <path
         id="path1388"
         style="fill:none;stroke:#000000"
         d="m 251.0815,1369.4437 a 4.15748,4.15748 0 1 0 -8.31496,0 4.15748,4.15748 0 1 0 8.31496,0 z"
         inkscape:connector-curvature="0" />
      <path
         id="path1390"
         style="fill:none;stroke:#000000"
         d="M -3.779528,1342.2992 H 219.77953 v -223.559 H -3.779528 Z"
         inkscape:connector-curvature="0" />
      <path
         id="path1392"
         style="fill:none;stroke:#000000"
         d="m -18.897638,1383.874 a 26.456693,26.456693 0 0 1 -26.456693,-26.4567 V 1103.622 a 26.456693,26.456693 0 0 1 26.456693,-26.4566 H 234.89764 a 26.456693,26.456693 0 0 1 26.45669,26.4566 v 253.7953 a 26.456693,26.456693 0 0 1 -26.45669,26.4567 z"
         inkscape:connector-curvature="0" />
    </g>
  </g>
</svg>
