<?xml version="1.0" encoding="UTF-8" standalone="no"?>
<!-- Created with Inkscape (http://www.inkscape.org/) -->

<svg
   xmlns:dc="http://purl.org/dc/elements/1.1/"
   xmlns:cc="http://creativecommons.org/ns#"
   xmlns:rdf="http://www.w3.org/1999/02/22-rdf-syntax-ns#"
   xmlns:svg="http://www.w3.org/2000/svg"
   xmlns="http://www.w3.org/2000/svg"
   xmlns:sodipodi="http://sodipodi.sourceforge.net/DTD/sodipodi-0.dtd"
   xmlns:inkscape="http://www.inkscape.org/namespaces/inkscape"
   width="420mm"
   height="210mm"
   viewBox="0 0 420 210"
   version="1.1"
   id="svg14476"
   inkscape:version="0.92.4 (5da689c313, 2019-01-14)"
   sodipodi:docname="L0_M2.svg">
  <defs
     id="defs14470">
    <marker
       style="overflow:visible"
       refY="0"
       refX="0"
       orient="auto"
       id="DistanceX">
      <path
         id="path15023"
         style="stroke:#000000;stroke-width:0.5"
         d="M 3,-3 -3,3 M 0,-5 V 5"
         inkscape:connector-curvature="0" />
    </marker>
    <pattern
       y="0"
       x="0"
       width="8"
       patternUnits="userSpaceOnUse"
       id="Hatch"
       height="8">
      <path
         id="path15026"
         stroke-width="0.25"
         stroke="#000000"
         linecap="square"
         d="M8 4 l-4,4" />
      <path
         id="path15028"
         stroke-width="0.25"
         stroke="#000000"
         linecap="square"
         d="M6 2 l-4,4" />
      <path
         id="path15030"
         stroke-width="0.25"
         stroke="#000000"
         linecap="square"
         d="M4 0 l-4,4" />
    </pattern>
    <symbol
       id="*MODEL_SPACE" />
    <symbol
       id="*PAPER_SPACE" />
    <marker
       style="overflow:visible"
       refY="0.0"
       refX="0.0"
       orient="auto"
       id="DistanceX-1">
      <path
         id="path79"
         style="stroke:#000000; stroke-width:0.5"
         d="M 3,-3 L -3,3 M 0,-5 L  0,5" />
    </marker>
    <pattern
       y="0"
       x="0"
       width="8"
       patternUnits="userSpaceOnUse"
       id="Hatch-1"
       height="8">
      <path
         id="path82"
         stroke-width="0.25"
         stroke="#000000"
         linecap="square"
         d="M8 4 l-4,4" />
      <path
         id="path84"
         stroke-width="0.25"
         stroke="#000000"
         linecap="square"
         d="M6 2 l-4,4" />
      <path
         id="path86"
         stroke-width="0.25"
         stroke="#000000"
         linecap="square"
         d="M4 0 l-4,4" />
    </pattern>
    <symbol
       id="*MODEL_SPACE-2" />
    <symbol
       id="*PAPER_SPACE-9" />
  </defs>
  <sodipodi:namedview
     id="base"
     pagecolor="#ffffff"
     bordercolor="#666666"
     borderopacity="1.0"
     inkscape:pageopacity="0.0"
     inkscape:pageshadow="2"
     inkscape:zoom="0.35"
     inkscape:cx="-70"
     inkscape:cy="560"
     inkscape:document-units="mm"
     inkscape:current-layer="layer1"
     showgrid="false"
     inkscape:window-width="2560"
     inkscape:window-height="1377"
     inkscape:window-x="-8"
     inkscape:window-y="-8"
     inkscape:window-maximized="1" />
  <metadata
     id="metadata14473">
    <rdf:RDF>
      <cc:Work
         rdf:about="">
        <dc:format>image/svg+xml</dc:format>
        <dc:type
           rdf:resource="http://purl.org/dc/dcmitype/StillImage" />
        <dc:title></dc:title>
      </cc:Work>
    </rdf:RDF>
  </metadata>
  <g
     inkscape:label="Layer 1"
     inkscape:groupmode="layer"
     id="layer1"
     transform="translate(0,-87)">
    <g
       id="g115"
       inkscape:label="0"
       transform="matrix(0.26458333,0,0,0.26458333,22.675004,-222.3775)">
      <path
         id="path93"
         style="fill:none;stroke:#000000"
         d="m 143.52756,1557.789 a 4.1574805,4.1574805 0 1 0 -8.31496,0 4.1574805,4.1574805 0 1 0 8.31496,0 z"
         inkscape:connector-curvature="0" />
      <path
         id="path95"
         style="fill:none;stroke:#000000"
         d="m 1280.7874,1557.789 a 4.1575,4.1575 0 1 0 -8.315,0 4.1575,4.1575 0 1 0 8.315,0 z"
         inkscape:connector-curvature="0" />
      <path
         id="path97"
         style="fill:none;stroke:#000000"
         d="m 277.41732,1784.0315 a 4.1574805,4.1574805 0 1 0 -8.31496,0 4.1574805,4.1574805 0 1 0 8.31496,0 z"
         inkscape:connector-curvature="0" />
      <path
         id="path99"
         style="fill:none;stroke:#000000"
         d="m 1146.8976,1319.4047 a 4.1574805,4.1574805 0 1 0 -8.3149,0 4.1574805,4.1574805 0 1 0 8.3149,0 z"
         inkscape:connector-curvature="0" />
      <path
         id="path101"
         style="fill:none;stroke:#000000"
         d="m 277.41732,1319.4047 a 4.1574805,4.1574805 0 1 0 -8.31496,0 4.1574805,4.1574805 0 1 0 8.31496,0 z"
         inkscape:connector-curvature="0" />
      <path
         id="path103"
         style="fill:none;stroke:#000000"
         d="m 1146.8976,1784.0315 a 4.1574805,4.1574805 0 1 0 -8.3149,0 4.1574805,4.1574805 0 1 0 8.3149,0 z"
         inkscape:connector-curvature="0" />
      <path
         id="path105"
         style="fill:none;stroke:#000000"
         d="m 712.15748,1784.0315 a 4.15748,4.15748 0 1 0 -8.31496,0 4.15748,4.15748 0 1 0 8.31496,0 z"
         inkscape:connector-curvature="0" />
      <path
         id="path107"
         style="fill:none;stroke:#000000"
         d="m 712.15748,1319.4047 a 4.15748,4.15748 0 1 0 -8.31496,0 4.15748,4.15748 0 1 0 8.31496,0 z"
         inkscape:connector-curvature="0" />
      <path
         id="path109"
         style="fill:none;stroke:#000000"
         d="m 1198.8661,1459.4835 a 7.5590555,7.5590555 0 1 0 -15.1181,0 7.5590555,7.5590555 0 1 0 15.1181,0 z"
         inkscape:connector-curvature="0" />
      <path
         id="path111"
         style="fill:none;stroke:#000000"
         d="m 232.25197,1459.4835 a 7.5590555,7.5590555 0 1 0 -15.11811,0 7.5590555,7.5590555 0 1 0 15.11811,0 z"
         inkscape:connector-curvature="0" />
      <path
         id="path113"
         style="fill:none;stroke:#000000"
         d="m 1248.5669,1305.0898 56.126,56.1259 v 420.787 l -45.2099,45.2099 H 156.51703 l -45.20994,-45.2099 v -420.787 l 56.12598,-56.1259 z"
         inkscape:connector-curvature="0" />
    </g>
  </g>
</svg>
