0
SECTION
2
HEADER
9
$INSUNITS
70
4
9
$ACADVER
1
AC1014
9
$HANDSEED
5
FFFF
0
ENDSEC
0
SECTION
2
TABLES
0
TABLE
2
VPORT
5
8
100
AcDbSymbolTable
0
ENDTAB
0
TABLE
2
LTYPE
5
5
100
AcDbSymbolTable
0
LTYPE
5
14
100
AcDbSymbolTableRecord
100
AcDbLinetypeTableRecord
2
BYBLOCK
70
0
0
LTYPE
5
15
100
AcDbSymbolTableRecord
100
AcDbLinetypeTableRecord
2
BYLAYER
70
0
0
ENDTAB
0
TABLE
2
LAYER
5
2
100
AcDbSymbolTable
70
2
0
LAYER
5
50
100
AcDbSymbolTableRecord
100
AcDbLayerTableRecord
2
0
70
0
6
CONTINUOUS
0
ENDTAB
0
TABLE
2
STYLE
5
3
100
AcDbSymbolTable
70
1
0
STYLE
5
11
100
AcDbSymbolTableRecord
100
AcDbTextStyleTableRecord
2
STANDARD
70
0
0
ENDTAB
0
TABLE
2
VIEW
5
6
100
AcDbSymbolTable
70
0
0
ENDTAB
0
TABLE
2
UCS
5
7
100
AcDbSymbolTable
70
0
0
ENDTAB
0
TABLE
2
APPID
5
9
100
AcDbSymbolTable
70
2
0
APPID
5
12
100
AcDbSymbolTableRecord
100
AcDbRegAppTableRecord
2
ACAD
70
0
0
ENDTAB
0
TABLE
2
DIMSTYLE
5
A
100
AcDbSymbolTable
70
1
0
ENDTAB
0
TABLE
2
BLOCK_RECORD
5
1
100
AcDbSymbolTable
70
1
0
BLOCK_RECORD
5
1F
100
AcDbSymbolTableRecord
100
AcDbBlockTableRecord
2
*MODEL_SPACE
0
BLOCK_RECORD
5
1B
100
AcDbSymbolTableRecord
100
AcDbBlockTableRecord
2
*PAPER_SPACE
0
ENDTAB
0
ENDSEC
0
SECTION
2
BLOCKS
0
BLOCK
5
20
100
AcDbEntity
100
AcDbBlockBegin
2
*MODEL_SPACE
0
ENDBLK
5
21
100
AcDbEntity
100
AcDbBlockEnd
0
BLOCK
5
1C
100
AcDbEntity
100
AcDbBlockBegin
2
*PAPER_SPACE
0
ENDBLK
5
1D
100
AcDbEntity
100
AcDbBlockEnd
0
ENDSEC
0
SECTION
2
ENTITIES
0
LWPOLYLINE
5
100
100
AcDbEntity
8
0
100
AcDbPolyline
90
6
70
1
43
0.0
10
303.06249999999875
20
-50.858413799605984
10
301.63749999999879
20
-50.858413799605984
10
300.92499999999882
20
-52.092499999998822
10
301.63749999999879
20
-53.326586200391652
10
303.06249999999875
20
-53.326586200391652
10
303.77499999999878
20
-52.092499999998822
0
LWPOLYLINE
5
101
100
AcDbEntity
8
0
100
AcDbPolyline
90
6
70
1
43
0.0
10
73.012499999999974
20
-176.25908620039158
10
73.724999999999966
20
-175.02499999999878
10
73.01249999999996
20
-173.79091379960596
10
71.587499999999963
20
-173.79091379960596
10
70.874999999999972
20
-175.02499999999878
10
71.587499999999977
20
-176.25908620039158
0
LWPOLYLINE
5
102
100
AcDbEntity
8
0
100
AcDbPolyline
90
6
70
1
43
0.0
10
303.06250000000006
20
-173.79091379960596
10
301.63750000000005
20
-173.79091379960596
10
300.92500000000007
20
-175.02499999999878
10
301.63750000000005
20
-176.25908620039158
10
303.06250000000006
20
-176.25908620039158
10
303.77500000000003
20
-175.02499999999878
0
LWPOLYLINE
5
103
100
AcDbEntity
8
0
100
AcDbPolyline
90
6
70
1
43
0.0
10
37.587500000000567
20
-116.39908620039128
10
38.300000000000566
20
-115.16499999999844
10
37.587500000000574
20
-113.93091379960561
10
36.162500000000563
20
-113.93091379960561
10
35.450000000000557
20
-115.16499999999844
10
36.162500000000563
20
-116.39908620039128
0
CIRCLE
5
104
100
AcDbEntity
8
0
100
AcDbCircle
10
315.20000000000005
20
-89.154999999999831
30
0
40
1.9999999999999929
210
0
220
0
230
1
0
LWPOLYLINE
5
105
100
AcDbEntity
8
0
100
AcDbPolyline
90
6
70
1
43
0.0
10
188.03750000000002
20
-53.326586200392825
10
188.75
20
-52.092500000000015
10
188.03750000000002
20
-50.858413799607206
10
186.61250000000001
20
-50.858413799607206
10
185.90000000000003
20
-52.092500000000015
10
186.61250000000001
20
-53.326586200392825
0
LWPOLYLINE
5
106
100
AcDbEntity
8
0
100
AcDbPolyline
90
6
70
1
43
0.0
10
188.03750000000002
20
-176.2590862003928
10
188.75
20
-175.02499999999998
10
188.03750000000002
20
-173.79091379960715
10
186.61250000000001
20
-173.79091379960715
10
185.90000000000003
20
-175.02499999999998
10
186.61250000000001
20
-176.2590862003928
0
LWPOLYLINE
5
107
100
AcDbEntity
8
0
100
AcDbPolyline
90
6
70
1
43
0.0
10
339.19999999999948
20
-115.16499999999844
10
338.48749999999944
20
-113.93091379960561
10
337.06249999999949
20
-113.93091379960561
10
336.34999999999945
20
-115.16499999999844
10
337.06249999999949
20
-116.39908620039128
10
338.48749999999944
20
-116.39908620039128
0
LWPOLYLINE
5
108
100
AcDbEntity
8
0
100
AcDbPolyline
90
6
70
1
43
0.0
10
73.012500000001253
20
-53.326586200391645
10
73.725000000001245
20
-52.092499999998822
10
73.012500000001253
20
-50.858413799605991
10
71.587500000001242
20
-50.858413799605991
10
70.875000000001251
20
-52.092499999998822
10
71.587500000001242
20
-53.326586200391645
0
CIRCLE
5
109
100
AcDbEntity
8
0
100
AcDbCircle
10
59.450000000000003
20
-89.154999999999831
30
0
40
2.0000000000000018
210
0
220
0
230
1
0
LWPOLYLINE
5
110
100
AcDbEntity
8
0
100
AcDbPolyline
90
8
70
1
43
0.0
10
330.35000000000002
20
-48.305000000000021
10
345.20000000000005
20
-63.154999999999845
10
345.20000000000005
20
-174.48820343559646
10
333.2382034355964
20
-186.44999999999999
10
41.411796564403538
20
-186.44999999999996
10
29.450000000000003
20
-174.48820343559646
10
29.45000000000001
20
-63.154999999999994
10
44.299999999999997
20
-48.305000000000035
0
ENDSEC
0
SECTION
2
OBJECTS
0
DICTIONARY
5
C
100
AcDbDictionary
3
ACAD_GROUP
350
D
3
ACAD_MLINESTYLE
350
17
0
DICTIONARY
5
D
100
AcDbDictionary
0
DICTIONARY
5
1A
330
C
100
AcDbDictionary
0
DICTIONARY
5
17
100
AcDbDictionary
0
ENDSEC
0
EOF
