0
SECTION
2
HEADER
9
$INSUNITS
70
4
9
$ACADVER
1
AC1014
9
$HANDSEED
5
FFFF
0
ENDSEC
0
SECTION
2
TABLES
0
TABLE
2
VPORT
5
8
100
AcDbSymbolTable
0
ENDTAB
0
TABLE
2
LTYPE
5
5
100
AcDbSymbolTable
0
LTYPE
5
14
100
AcDbSymbolTableRecord
100
AcDbLinetypeTableRecord
2
BYBLOCK
70
0
0
LTYPE
5
15
100
AcDbSymbolTableRecord
100
AcDbLinetypeTableRecord
2
BYLAYER
70
0
0
ENDTAB
0
TABLE
2
LAYER
5
2
100
AcDbSymbolTable
70
2
0
LAYER
5
50
100
AcDbSymbolTableRecord
100
AcDbLayerTableRecord
2
0
70
0
6
CONTINUOUS
0
ENDTAB
0
TABLE
2
STYLE
5
3
100
AcDbSymbolTable
70
1
0
STYLE
5
11
100
AcDbSymbolTableRecord
100
AcDbTextStyleTableRecord
2
STANDARD
70
0
0
ENDTAB
0
TABLE
2
VIEW
5
6
100
AcDbSymbolTable
70
0
0
ENDTAB
0
TABLE
2
UCS
5
7
100
AcDbSymbolTable
70
0
0
ENDTAB
0
TABLE
2
APPID
5
9
100
AcDbSymbolTable
70
2
0
APPID
5
12
100
AcDbSymbolTableRecord
100
AcDbRegAppTableRecord
2
ACAD
70
0
0
ENDTAB
0
TABLE
2
DIMSTYLE
5
A
100
AcDbSymbolTable
70
1
0
ENDTAB
0
TABLE
2
BLOCK_RECORD
5
1
100
AcDbSymbolTable
70
1
0
BLOCK_RECORD
5
1F
100
AcDbSymbolTableRecord
100
AcDbBlockTableRecord
2
*MODEL_SPACE
0
BLOCK_RECORD
5
1B
100
AcDbSymbolTableRecord
100
AcDbBlockTableRecord
2
*PAPER_SPACE
0
ENDTAB
0
ENDSEC
0
SECTION
2
BLOCKS
0
BLOCK
5
20
100
AcDbEntity
100
AcDbBlockBegin
2
*MODEL_SPACE
0
ENDBLK
5
21
100
AcDbEntity
100
AcDbBlockEnd
0
BLOCK
5
1C
100
AcDbEntity
100
AcDbBlockBegin
2
*PAPER_SPACE
0
ENDBLK
5
1D
100
AcDbEntity
100
AcDbBlockEnd
0
ENDSEC
0
SECTION
2
ENTITIES
0
CIRCLE
5
100
100
AcDbEntity
8
0
100
AcDbCircle
10
72.299999999999969
20
-355.02499999999873
30
0
40
1.6250000000000142
210
0
220
0
230
1
0
CIRCLE
5
101
100
AcDbEntity
8
0
100
AcDbCircle
10
187.32500000000002
20
-232.09249999999997
30
0
40
1.6250000000000142
210
0
220
0
230
1
0
CIRCLE
5
102
100
AcDbEntity
8
0
100
AcDbCircle
10
337.77500000000003
20
-295.16499999999996
30
0
40
1.6250000000000142
210
0
220
0
230
1
0
CIRCLE
5
103
100
AcDbEntity
8
0
100
AcDbCircle
10
36.875000000000568
20
-295.16499999999843
30
0
40
1.6250000000000142
210
0
220
0
230
1
0
CIRCLE
5
104
100
AcDbEntity
8
0
100
AcDbCircle
10
187.32500000000002
20
-355.02499999999998
30
0
40
1.6250000000000142
210
0
220
0
230
1
0
CIRCLE
5
105
100
AcDbEntity
8
0
100
AcDbCircle
10
302.35000000000002
20
-232.09249999999997
30
0
40
1.6250000000000142
210
0
220
0
230
1
0
CIRCLE
5
106
100
AcDbEntity
8
0
100
AcDbCircle
10
302.35000000000002
20
-355.02499999999998
30
0
40
1.6250000000000142
210
0
220
0
230
1
0
CIRCLE
5
107
100
AcDbEntity
8
0
100
AcDbCircle
10
72.300000000001248
20
-232.09249999999878
30
0
40
1.6250000000000142
210
0
220
0
230
1
0
LWPOLYLINE
5
108
100
AcDbEntity
8
0
100
AcDbPolyline
90
8
70
1
43
0.0
10
29.45000000000001
20
-243.15499999999997
10
44.299999999999997
20
-228.30500000000001
10
330.35000000000002
20
-228.30500000000001
10
345.20000000000005
20
-243.1549999999998
10
345.20000000000005
20
-354.48820343559646
10
333.2382034355964
20
-366.44999999999993
10
41.411796564403538
20
-366.44999999999993
10
29.450000000000003
20
-354.48820343559646
0
LWPOLYLINE
5
109
100
AcDbEntity
8
0
100
AcDbPolyline
90
27
70
1
43
0.0
10
228.52500000000003
20
-242.55499999999998
10
227.52500000000001
20
-241.55499999999995
10
227.52500000000001
20
-235.87999999999997
10
47.624999999999993
20
-235.87999999999997
10
44.450000000000003
20
-239.05499999999995
10
44.450000000000003
20
-270.90499999999997
10
52.406067860056993
20
-273.8007718828627
10
52.45000000000001
20
-281.45384311599463
10
52.45000000000001
20
-294.44115668639159
10
44.450000000000003
20
-297.35000000000002
10
44.450000000000003
20
-348.27499999999998
10
47.624999999999993
20
-351.44999999999993
10
136.87500000000003
20
-351.44999999999993
10
136.87500000000003
20
-333.27499999999992
10
147.875
20
-333.27499999999992
10
147.875
20
-351.44999999999993
10
327.02499999999998
20
-351.44999999999993
10
330.20000000000005
20
-348.27499999999998
10
330.20000000000005
20
-313.34999999999997
10
324.20000000000005
20
-310.54852620116714
10
324.20000000000005
20
-280.14196308776479
10
330.20000000000005
20
-277.35000000000002
10
330.20000000000005
20
-239.05499999999995
10
327.02499999999998
20
-235.87999999999997
10
236.02500000000003
20
-235.87999999999997
10
236.02500000000003
20
-241.55499999999995
10
235.02500000000001
20
-242.55499999999998
0
ENDSEC
0
SECTION
2
OBJECTS
0
DICTIONARY
5
C
100
AcDbDictionary
3
ACAD_GROUP
350
D
3
ACAD_MLINESTYLE
350
17
0
DICTIONARY
5
D
100
AcDbDictionary
0
DICTIONARY
5
1A
330
C
100
AcDbDictionary
0
DICTIONARY
5
17
100
AcDbDictionary
0
ENDSEC
0
EOF
