0
SECTION
2
HEADER
9
$INSUNITS
70
4
9
$ACADVER
1
AC1014
9
$HANDSEED
5
FFFF
0
ENDSEC
0
SECTION
2
TABLES
0
TABLE
2
VPORT
5
8
100
AcDbSymbolTable
0
ENDTAB
0
TABLE
2
LTYPE
5
5
100
AcDbSymbolTable
0
LTYPE
5
14
100
AcDbSymbolTableRecord
100
AcDbLinetypeTableRecord
2
BYBLOCK
70
0
0
LTYPE
5
15
100
AcDbSymbolTableRecord
100
AcDbLinetypeTableRecord
2
BYLAYER
70
0
0
ENDTAB
0
TABLE
2
LAYER
5
2
100
AcDbSymbolTable
70
2
0
LAYER
5
50
100
AcDbSymbolTableRecord
100
AcDbLayerTableRecord
2
0
70
0
6
CONTINUOUS
0
ENDTAB
0
TABLE
2
STYLE
5
3
100
AcDbSymbolTable
70
1
0
STYLE
5
11
100
AcDbSymbolTableRecord
100
AcDbTextStyleTableRecord
2
STANDARD
70
0
0
ENDTAB
0
TABLE
2
VIEW
5
6
100
AcDbSymbolTable
70
0
0
ENDTAB
0
TABLE
2
UCS
5
7
100
AcDbSymbolTable
70
0
0
ENDTAB
0
TABLE
2
APPID
5
9
100
AcDbSymbolTable
70
2
0
APPID
5
12
100
AcDbSymbolTableRecord
100
AcDbRegAppTableRecord
2
ACAD
70
0
0
ENDTAB
0
TABLE
2
DIMSTYLE
5
A
100
AcDbSymbolTable
70
1
0
ENDTAB
0
TABLE
2
BLOCK_RECORD
5
1
100
AcDbSymbolTable
70
1
0
BLOCK_RECORD
5
1F
100
AcDbSymbolTableRecord
100
AcDbBlockTableRecord
2
*MODEL_SPACE
0
BLOCK_RECORD
5
1B
100
AcDbSymbolTableRecord
100
AcDbBlockTableRecord
2
*PAPER_SPACE
0
ENDTAB
0
ENDSEC
0
SECTION
2
BLOCKS
0
BLOCK
5
20
100
AcDbEntity
100
AcDbBlockBegin
2
*MODEL_SPACE
0
ENDBLK
5
21
100
AcDbEntity
100
AcDbBlockEnd
0
BLOCK
5
1C
100
AcDbEntity
100
AcDbBlockBegin
2
*PAPER_SPACE
0
ENDBLK
5
1D
100
AcDbEntity
100
AcDbBlockEnd
0
ENDSEC
0
SECTION
2
ENTITIES
0
CIRCLE
5
100
100
AcDbEntity
8
0
100
AcDbCircle
10
72.299999999999969
20
-45.024999999998769
30
0
40
1.6250000000000142
210
0
220
0
230
1
0
CIRCLE
5
101
100
AcDbEntity
8
0
100
AcDbCircle
10
187.32500000000002
20
77.907499999999985
30
0
40
1.6250000000000142
210
0
220
0
230
1
0
CIRCLE
5
102
100
AcDbEntity
8
0
100
AcDbCircle
10
337.77500000000003
20
14.834999999999994
30
0
40
1.6250000000000142
210
0
220
0
230
1
0
CIRCLE
5
103
100
AcDbEntity
8
0
100
AcDbCircle
10
36.875000000000568
20
14.835000000001557
30
0
40
1.6250000000000142
210
0
220
0
230
1
0
CIRCLE
5
104
100
AcDbEntity
8
0
100
AcDbCircle
10
187.32500000000002
20
-45.024999999999977
30
0
40
1.6250000000000142
210
0
220
0
230
1
0
CIRCLE
5
105
100
AcDbEntity
8
0
100
AcDbCircle
10
302.35000000000002
20
77.907499999999985
30
0
40
1.6250000000000142
210
0
220
0
230
1
0
CIRCLE
5
106
100
AcDbEntity
8
0
100
AcDbCircle
10
302.35000000000002
20
-45.024999999999977
30
0
40
1.6250000000000142
210
0
220
0
230
1
0
CIRCLE
5
107
100
AcDbEntity
8
0
100
AcDbCircle
10
72.300000000001248
20
77.907500000001178
30
0
40
1.6250000000000142
210
0
220
0
230
1
0
LWPOLYLINE
5
108
100
AcDbEntity
8
0
100
AcDbPolyline
90
28
70
1
43
0.0
10
330.35000000000002
20
81.694999999999979
10
345.20000000000005
20
66.845000000000155
10
345.20000000000005
20
-44.488203435596461
10
334.2382034355964
20
-55.449999999999982
10
40.411796564403524
20
-55.449999999999946
10
29.450000000000003
20
-44.488203435596454
10
29.45000000000001
20
66.845000000000013
10
44.299999999999997
20
81.694999999999965
10
199.95000000000005
20
81.694999999999979
10
199.95000000000005
20
74.269999999999968
10
47.562867965644031
20
74.269999999999982
10
44.299999999999997
20
71.007132034355962
10
44.299999999999997
20
18.978190064547302
10
47.625000000000028
20
16.649999999999991
10
47.625000000000028
20
-3.3500000000000085
10
44.299999999999997
20
-5.6781900645473193
10
44.300000000000004
20
-38.337132034355967
10
47.562867965644031
20
-41.600000000000001
10
327.08713203435593
20
-41.600000000000001
10
330.35000000000002
20
-38.337132034355932
10
330.35000000000002
20
-5.6781900645473193
10
327.02499999999998
20
-3.3500000000000085
10
327.02499999999998
20
16.649999999999991
10
330.35000000000002
20
18.978190064547302
10
330.35000000000002
20
71.007132034355948
10
327.08713203435599
20
74.269999999999953
10
212.95000000000002
20
74.269999999999968
10
212.95000000000002
20
81.694999999999979
0
ENDSEC
0
SECTION
2
OBJECTS
0
DICTIONARY
5
C
100
AcDbDictionary
3
ACAD_GROUP
350
D
3
ACAD_MLINESTYLE
350
17
0
DICTIONARY
5
D
100
AcDbDictionary
0
DICTIONARY
5
1A
330
C
100
AcDbDictionary
0
DICTIONARY
5
17
100
AcDbDictionary
0
ENDSEC
0
EOF
